<svg width="60" height="20" viewBox="0 0 60 20" fill="none" xmlns="http://www.w3.org/2000/svg">
<path fill-rule="evenodd" clip-rule="evenodd" d="M43.2905 9.03552V20H48.4647V13.5025H54.3288C56.7968 13.481 58.8933 11.6249 59.6839 9.03552H43.2905Z" fill="#37A72E"/>
<path fill-rule="evenodd" clip-rule="evenodd" d="M42.6008 0C42.9022 4.48167 46.5037 8.0203 50.9022 8.0203C50.9166 8.0203 59.899 8.0203 59.899 8.0203C59.9654 7.60928 60.0001 7.18505 60.0001 6.75127C60.0001 3.03876 57.4559 0.0274644 54.3085 0.000186795L42.6008 0Z" fill="url(#paint0_linear_106_3)"/>
<path fill-rule="evenodd" clip-rule="evenodd" d="M34.9429 7.91366L34.947 7.90343L34.9475 7.90359C35.0005 7.79153 35.1022 7.71574 35.2189 7.71574C35.3875 7.71574 35.5246 7.87389 35.5292 8.07103L35.5293 8.07107V19.8985H40.7035V0H35.5293C34.8732 0.0257108 34.1319 0.592547 33.8563 1.28835L29.7386 11.684C29.7285 11.7265 29.7126 11.7661 29.692 11.8018L29.6906 11.8052L29.6901 11.805C29.6278 11.9106 29.524 11.9797 29.4066 11.9797C29.2161 11.9797 29.0616 11.7979 29.0616 11.5736V0H23.8875V19.8985H29.0616V19.8962C29.7106 19.8563 30.4345 19.2958 30.7061 18.6101L34.9323 7.94047C34.9355 7.93134 34.9391 7.92239 34.9429 7.91366Z" fill="#37A72E"/>
<path fill-rule="evenodd" clip-rule="evenodd" d="M15.622 8.2538L12.5979 19.8985H8.87571L5.8498 8.24673C5.82062 8.06014 5.68174 7.91878 5.51481 7.91878C5.32668 7.91878 5.17417 8.09832 5.17417 8.3198C5.17417 8.32149 5.17418 8.32318 5.1742 8.32487L5.17417 19.8985H0V0H4.44117H5.76383C6.7159 0 7.71359 0.869829 7.99181 1.94114L10.5099 11.6376C10.6352 12.1201 10.8385 12.1196 10.9637 11.6376L13.4818 1.94114C13.7602 0.86908 14.7576 0 15.7098 0L17.032 0H21.4728V19.8985H16.2986V8.32487C16.2986 8.32318 16.2986 8.32149 16.2986 8.3198C16.2986 8.09832 16.1461 7.91878 15.958 7.91878C15.789 7.91878 15.6487 8.06372 15.622 8.2538Z" fill="#37A72E"/>
<defs>
<linearGradient id="paint0_linear_106_3" x1="42.6008" y1="4.01015" x2="60.0001" y2="4.01015" gradientUnits="userSpaceOnUse">
<stop stop-color="#00A0E5"/>
<stop offset="1" stop-color="#0077C3"/>
</linearGradient>
</defs>
</svg>
