<svg xmlns="http://www.w3.org/2000/svg" width="24" height="24" fill="#dc3545"><path d="M14.599 0H9.514C8.242 0 7.211 1.031 7.211 2.303v5.085c0 1.272 1.031 2.303 2.303 2.303h5.085c1.272 0 2.304-1.031 2.304-2.303V2.303C16.902 1.031 15.871 0 14.599 0zm-4.48 7.908h-1V4.95h1v2.958zm-.384-3.939a1.031 1.031 0 1 1 0-2.062 1.031 1.031 0 1 1 0 2.062zm2.009 3.939h-1V4.95h1v2.958zm1.625 0h-1V4.95h1v2.958zm1.625 0h-1V4.95h1v2.958zm-.616-3.939a1.031 1.031 0 1 1 0-2.062 1.031 1.031 0 1 1 0 2.062zm7.614 16.634c.006-.033-.007-.062-.007-.095s.007-.063.007-.094c0-.499-.464-.914-1.035-.91h-.165v-1.433h.026l.004-.408c.016-1.498.041-3.76-1.504-5.322-1.014-1.025-2.524-1.544-4.489-1.544v.01c-.076-.011-.151-.032-.23-.032H9.514c-.057 0-.111.018-.167.023-2.018.004-3.563.532-4.592 1.573-1.146 1.159-1.427 2.691-1.489 4.011l-.036.027v3.094h-.145c-.587 0-1.059.408-1.059.909-.012.072-.024.128-.024.185V21.7c0 .404.382.73.853.73s.854-.326.854-.73v-.383l1.387-.005v.388c0 .399.38.725.846.725s.853-.326.853-.725l-.006-1.107c.006-.033-.007-.062-.007-.095s.007-.062.007-.093c0-.495-.472-.907-1.054-.902h-.17v-3.048c.047-.924.219-1.854.824-2.466.221-.223.519-.39.855-.53l-.034.459v6.939C7.211 22.593 8.242 24 9.514 24h5.085c1.272 0 2.304-1.407 2.304-3.143v-6.939c0-.161-.018-.315-.035-.469.32.134.604.295.815.509.592.598.771 1.508.821 2.421l-.008.006v3.119h-.142c-.577 0-1.041.411-1.041.917-.011.073-.023.129-.023.187v1.112c0 .407.376.736.838.736s.839-.329.839-.736v-.387l1.362-.005v.392c0 .402.373.731.831.731s.838-.329.838-.731l-.006-1.117zm-6.585-.569l-.707.707-2.644-2.646-2.644 2.646-.707-.707 2.644-2.646-2.644-2.646.707-.707 2.644 2.646 2.644-2.646.707.707-2.644 2.646 2.644 2.646z"/></svg>