<svg xmlns="http://www.w3.org/2000/svg" width="28" height="28" fill="#71717a"><path d="M23.898 7.055h-.766V4.102A4.11 4.11 0 0 0 19.031 0H8.969a4.11 4.11 0 0 0-4.102 4.102v2.953h-.766A4.11 4.11 0 0 0 0 11.156v6.563a4.11 4.11 0 0 0 4.102 4.101h.766v3.719C4.867 26.896 5.971 28 7.328 28h13.344c1.357 0 2.461-1.104 2.461-2.461V21.82h.766A4.11 4.11 0 0 0 28 17.719v-6.563a4.11 4.11 0 0 0-4.102-4.102zM6.508 4.102c0-1.357 1.104-2.461 2.461-2.461h10.062c1.357 0 2.461 1.104 2.461 2.461v2.953H6.508V4.102zM21.492 25.54a.82.82 0 0 1-.82.82H7.328a.82.82 0 0 1-.82-.82v-8.094h14.984v8.094zm4.867-7.82c0 1.357-1.104 2.461-2.461 2.461h-.766v-2.734h.492a.821.821 0 1 0 0-1.641H4.375a.821.821 0 1 0 0 1.641h.492v2.734h-.766c-1.357 0-2.461-1.104-2.461-2.461v-6.563c0-1.357 1.104-2.461 2.461-2.461h19.797c1.357 0 2.461 1.104 2.461 2.461v6.563zm-10.171 1.585h-4.375a.82.82 0 1 0 0 1.641h4.375a.82.82 0 1 0 0-1.641zm0 3.5h-4.375a.82.82 0 1 0 0 1.641h4.375a.82.82 0 1 0 0-1.641zM7 10.555H4.375a.821.821 0 1 0 0 1.641H7a.821.821 0 1 0 0-1.641z"/></svg>