<svg width="11" height="11" viewBox="0 0 11 11" fill="none" xmlns="http://www.w3.org/2000/svg">
<path d="M8.24272 0.438357C8.24272 0.534607 8.20834 0.63186 8.13959 0.713071L4.47758 4.96211C4.38842 5.06538 4.25414 5.12553 4.11127 5.12553C3.96947 5.12553 3.83412 5.06538 3.74604 4.96211L0.10336 0.731118C-0.0588471 0.542628 -0.0266206 0.266912 0.175333 0.115519C0.377286 -0.0358745 0.672696 -0.00579637 0.834903 0.182693L4.11234 3.98858L7.40805 0.163644C7.57025 -0.0248459 7.86566 -0.054924 8.06762 0.0964693C8.18256 0.183696 8.24272 0.310024 8.24272 0.438357Z" transform="translate(1.37915 2.57043)" fill="black" fill-opacity="0.25"/>
<mask id="mask0" mask-type="alpha" maskUnits="userSpaceOnUse" x="1" y="2" width="9" height="6">
<path d="M8.24272 0.438357C8.24272 0.534607 8.20834 0.63186 8.13959 0.713071L4.47758 4.96211C4.38842 5.06538 4.25414 5.12553 4.11127 5.12553C3.96947 5.12553 3.83412 5.06538 3.74604 4.96211L0.10336 0.731118C-0.0588471 0.542628 -0.0266206 0.266912 0.175333 0.115519C0.377286 -0.0358745 0.672696 -0.00579637 0.834903 0.182693L4.11234 3.98858L7.40805 0.163644C7.57025 -0.0248459 7.86566 -0.054924 8.06762 0.0964693C8.18256 0.183696 8.24272 0.310024 8.24272 0.438357Z" transform="translate(1.37915 2.57043)" fill="white"/>
</mask>
<g mask="url(#mask0)">
</g>
</svg>
