<svg width="24" height="24" viewBox="0 0 24 24" fill="none" xmlns="http://www.w3.org/2000/svg">
<path fill-rule="evenodd" clip-rule="evenodd" d="M0 12C0 18.6169 5.38306 24 12 24C18.6169 24 24 18.6169 24 12C24 5.38306 18.6169 0 12 0C5.38306 0 0 5.38306 0 12ZM2 12C2 6.48608 6.48608 2 12 2C17.5139 2 22 6.48608 22 12C22 17.5139 17.5139 22 12 22C6.48608 22 2 17.5139 2 12Z" fill="#7F8285"/>
<path d="M1.5 3C2.32843 3 3 2.32843 3 1.5C3 0.671573 2.32843 0 1.5 0C0.671573 0 0 0.671573 0 1.5C0 2.32843 0.671573 3 1.5 3Z" transform="translate(7 8)" fill="#7F8285"/>
<path d="M1.5 3C2.32843 3 3 2.32843 3 1.5C3 0.671573 2.32843 0 1.5 0C0.671573 0 0 0.671573 0 1.5C0 2.32843 0.671573 3 1.5 3Z" transform="translate(14 8)" fill="#7F8285"/>
<path fill-rule="evenodd" clip-rule="evenodd" d="M0 1C0 0.447715 0.447715 0 1 0H9C9.55229 0 10 0.447715 10 1C10 1.55228 9.55229 2 9 2H1C0.447715 2 0 1.55228 0 1Z" transform="translate(7 15)" fill="#7F8285"/>
</svg>
