<svg width="25" height="24" viewBox="0 0 25 24" fill="none" xmlns="http://www.w3.org/2000/svg">
<path fill-rule="evenodd" clip-rule="evenodd" d="M0 12C0 18.6169 5.38306 24 12 24C18.6169 24 24 18.6169 24 12C24 5.38306 18.6169 0 12 0C5.38306 0 0 5.38306 0 12ZM2 12C2 6.48608 6.48608 2 12 2C17.5139 2 22 6.48608 22 12C22 17.5139 17.5139 22 12 22C6.48608 22 2 17.5139 2 12Z" transform="translate(0.5)" fill="#7F8285"/>
<path d="M1.5 3C2.32843 3 3 2.32843 3 1.5C3 0.671573 2.32843 0 1.5 0C0.671573 0 0 0.671573 0 1.5C0 2.32843 0.671573 3 1.5 3Z" transform="translate(7.5 8)" fill="#7F8285"/>
<path d="M1.5 3C2.32843 3 3 2.32843 3 1.5C3 0.671573 2.32843 0 1.5 0C0.671573 0 0 0.671573 0 1.5C0 2.32843 0.671573 3 1.5 3Z" transform="translate(14.5 8)" fill="#7F8285"/>
<path d="M6.19097 5.00131C3.70597 5.00131 1.38497 3.66031 0.134974 1.50231C-0.142026 1.02431 0.0209742 0.412307 0.498974 0.136307C0.977974 -0.140693 1.58897 0.0233074 1.86597 0.500307C2.75897 2.04331 4.41697 3.00131 6.19097 3.00131C7.96597 3.00131 9.62397 2.04331 10.516 0.500307C10.792 0.0223075 11.401 -0.143693 11.882 0.136307C12.36 0.412307 12.524 1.02431 12.246 1.50231C10.998 3.66031 8.67697 5.00131 6.19097 5.00131Z" transform="translate(6.30908 13.9987)" fill="#7F8285"/>
</svg>
