<svg width="56" height="56" viewBox="0 0 56 56" fill="none" xmlns="http://www.w3.org/2000/svg">
<circle cx="28" cy="28" r="28" fill="url(#paint0_linear_37077_14615)"/>
<circle cx="28" cy="28" r="21" fill="#F6F7FA"/>
<path d="M24.3483 34.4382C24.3483 33.6525 24.3531 32.9201 24.342 32.1884C24.3336 32.144 24.3157 32.1018 24.2895 32.065C24.2633 32.0281 24.2295 31.9973 24.1902 31.9748C22.7967 31.212 21.653 30.0631 20.8966 28.666C20.8631 28.6174 20.8196 28.5765 20.7691 28.5459C20.7186 28.5154 20.6621 28.4959 20.6035 28.4889C17.7412 28.3117 15.5963 26.1628 15.4374 23.3133C15.2944 20.7529 17.1525 18.3721 19.7137 17.8319C19.7812 17.8176 19.8472 17.8009 19.952 17.7763C19.952 17.4116 19.952 17.0494 19.952 16.6863C19.952 15.996 20.3286 15.625 21.0229 15.625C25.6924 15.625 30.3615 15.625 35.0299 15.625C35.7251 15.625 36.1 15.996 36.1032 16.6832C36.1032 16.9803 36.1127 17.2782 36.1032 17.5753C36.0952 17.7469 36.1564 17.8009 36.3256 17.8454C38.6191 18.4507 40.0347 19.9061 40.482 22.2385C41.0261 25.0793 38.9178 27.994 36.0492 28.4166C35.9716 28.4386 35.8914 28.4499 35.8108 28.45C35.3342 28.3832 35.138 28.674 34.9227 29.041C34.2071 30.2651 33.1648 31.2658 31.9127 31.9311C31.6966 32.0478 31.6299 32.1813 31.6354 32.4156C31.6505 33.0774 31.641 33.7391 31.641 34.439C32.1645 34.439 32.6586 34.4557 33.1504 34.4342C33.6707 34.4112 34.0282 34.6185 34.3126 35.0531C35.1539 36.3392 36.0206 37.6079 36.8762 38.8837C37.0867 39.2015 37.12 39.5312 36.9381 39.8672C36.8608 40.0244 36.7398 40.156 36.5896 40.2461C36.4394 40.3363 36.2664 40.3813 36.0913 40.3756H20.0259C19.4246 40.3756 19.0186 40.0777 18.9773 39.5502C18.962 39.3153 19.0191 39.0813 19.141 38.8798C20.0148 37.5428 20.9061 36.2209 21.7927 34.8942C22.0112 34.5677 22.3249 34.4366 22.7086 34.4382C23.2433 34.4398 23.7787 34.4382 24.3483 34.4382ZM21.8554 17.5443V17.7826C21.8554 20.142 21.8554 22.5009 21.8554 24.8592C21.8578 25.107 21.8738 25.3544 21.9031 25.6004C22.2948 29.2094 25.8696 31.7277 29.4023 30.8872C32.2257 30.2151 34.1783 27.7699 34.1887 24.8759C34.1966 22.5165 34.1887 20.1579 34.1887 17.7993C34.1887 17.7135 34.1783 17.6285 34.172 17.5403L21.8554 17.5443ZM21.7085 38.4532H34.2784C33.8113 37.7541 33.3712 37.0868 32.9192 36.4282C32.8876 36.4002 32.8508 36.3787 32.8108 36.3651C32.7708 36.3514 32.7286 36.3459 32.6864 36.3488C29.558 36.3451 26.4294 36.3451 23.3005 36.3488C23.221 36.3488 23.1059 36.375 23.0677 36.4282C22.6157 37.0868 22.1748 37.7533 21.7085 38.4532ZM20.0752 26.4894C19.8162 24.2428 20.0227 22.0057 19.9298 19.775C18.5459 19.9974 17.3535 21.5227 17.3384 23.0782C17.3225 24.7019 18.5102 26.1867 20.0752 26.4894ZM36.0428 26.4425C37.3933 26.278 38.6644 24.6646 38.6445 23.0774C38.6278 21.5434 37.3735 19.9228 36.0428 19.8004V26.4425ZM29.7169 32.7652C28.582 33.0056 27.4086 32.9991 26.2763 32.7461V34.4144H29.7169V32.7652Z" fill="url(#paint1_linear_37077_14615)"/>
<defs>
<linearGradient id="paint0_linear_37077_14615" x1="28" y1="0" x2="28" y2="56" gradientUnits="userSpaceOnUse">
<stop stop-color="#005AFE"/>
<stop offset="1" stop-color="#0647BD"/>
</linearGradient>
<linearGradient id="paint1_linear_37077_14615" x1="27.9988" y1="15.625" x2="27.9988" y2="40.3761" gradientUnits="userSpaceOnUse">
<stop stop-color="#005AFE"/>
<stop offset="1" stop-color="#0647BD"/>
</linearGradient>
</defs>
</svg>
