<svg width="24" height="24" viewBox="0 0 24 24" stroke="##005AFE" fill="none" xmlns="http://www.w3.org/2000/svg">
<path d="M14.5 7.00032V3.50097C14.5 2.66923 14.5 2.25336 14.3248 1.99779C14.1717 1.7745 13.9346 1.62281 13.6678 1.5774C13.3623 1.52542 12.9847 1.69969 12.2295 2.04824L3.35901 6.14231C2.68551 6.45316 2.34875 6.60858 2.10211 6.84963C1.88406 7.06273 1.71762 7.32287 1.6155 7.61015C1.5 7.9351 1.5 8.306 1.5 9.04778V14.0003M15 13.5003H15.01M1.5 10.2003L1.5 16.8003C1.5 17.9204 1.5 18.4805 1.71799 18.9083C1.90973 19.2846 2.21569 19.5906 2.59202 19.7823C3.01984 20.0003 3.57989 20.0003 4.7 20.0003H16.3C17.4201 20.0003 17.9802 20.0003 18.408 19.7823C18.7843 19.5906 19.0903 19.2846 19.282 18.9083C19.5 18.4805 19.5 17.9204 19.5 16.8003V10.2003C19.5 9.08021 19.5 8.52016 19.282 8.09234C19.0903 7.71601 18.7843 7.41005 18.408 7.2183C17.9802 7.00032 17.4201 7.00032 16.3 7.00032L4.7 7.00032C3.5799 7.00032 3.01984 7.00032 2.59202 7.2183C2.2157 7.41005 1.90973 7.71601 1.71799 8.09234C1.5 8.52016 1.5 9.08021 1.5 10.2003ZM15.5 13.5003C15.5 13.7765 15.2761 14.0003 15 14.0003C14.7239 14.0003 14.5 13.7765 14.5 13.5003C14.5 13.2242 14.7239 13.0003 15 13.0003C15.2761 13.0003 15.5 13.2242 15.5 13.5003Z" stroke="#005AFE" stroke-width="2" stroke-linecap="round" stroke-linejoin="round"/>
</svg>
