<svg width="56" height="56" viewBox="0 0 56 56" fill="none" xmlns="http://www.w3.org/2000/svg">
<path d="M28 56C43.464 56 56 43.464 56 28C56 12.536 43.464 0 28 0C12.536 0 0 12.536 0 28C0 43.464 12.536 56 28 56Z" fill="#005AFE"/>
<path d="M30.3924 31.8188C29.5943 32.3508 28.6673 32.632 27.7116 32.632C26.756 32.632 25.829 32.3508 25.031 31.8188L11.8868 23.0557C11.8142 23.0072 11.743 22.9567 11.6732 22.9043V37.2635C11.6732 38.9098 13.0092 40.2164 14.6261 40.2164H40.7971C42.4434 40.2164 43.75 38.8803 43.75 37.2635V22.9042C43.68 22.9568 43.6087 23.0074 43.536 23.056L30.3924 31.8188Z" fill="#005AFE"/>
<path d="M12.9294 21.4923L26.0735 30.2554C26.5711 30.5872 27.1413 30.753 27.7116 30.753C28.2819 30.753 28.8522 30.5871 29.3497 30.2554L42.4939 21.4923C43.2805 20.9683 43.75 20.0912 43.75 19.1445C43.75 17.5168 42.4258 16.1926 40.7981 16.1926H14.6251C12.9975 16.1927 11.6732 17.5169 11.6732 19.1461C11.6727 19.6104 11.7872 20.0677 12.0064 20.4771C12.2255 20.8865 12.5426 21.2353 12.9294 21.4923Z" fill="#005AFE"/>
<g clip-path="url(#clip0_48214_83644)">
<path d="M35.2678 21.001L24.8337 31.4352L19.1495 25.7668L16.917 27.9993L24.8337 35.916L37.5003 23.2493L35.2678 21.001ZM28.0003 12.166C19.2603 12.166 12.167 19.2593 12.167 27.9993C12.167 36.7393 19.2603 43.8327 28.0003 43.8327C36.7403 43.8327 43.8337 36.7393 43.8337 27.9993C43.8337 19.2593 36.7403 12.166 28.0003 12.166ZM28.0003 40.666C21.002 40.666 15.3337 34.9977 15.3337 27.9993C15.3337 21.001 21.002 15.3327 28.0003 15.3327C34.9987 15.3327 40.667 21.001 40.667 27.9993C40.667 34.9977 34.9987 40.666 28.0003 40.666Z" fill="white"/>
</g>
<defs>
<clipPath id="clip0_48214_83644">
<rect width="38" height="38" fill="white" transform="translate(9 9)"/>
</clipPath>
</defs>
</svg>
