<svg width="56" height="56" viewBox="0 0 56 56" fill="none" xmlns="http://www.w3.org/2000/svg">
<path d="M28 56C43.464 56 56 43.464 56 28C56 12.536 43.464 0 28 0C12.536 0 0 12.536 0 28C0 43.464 12.536 56 28 56Z" fill="#005AFE"/>
<path d="M30.3924 31.8188C29.5943 32.3508 28.6673 32.632 27.7116 32.632C26.756 32.632 25.829 32.3508 25.031 31.8188L11.8868 23.0557C11.8142 23.0072 11.743 22.9567 11.6732 22.9043V37.2635C11.6732 38.9098 13.0092 40.2164 14.6261 40.2164H40.7971C42.4434 40.2164 43.75 38.8803 43.75 37.2635V22.9042C43.68 22.9568 43.6087 23.0074 43.536 23.056L30.3924 31.8188Z" fill="#005AFE"/>
<path d="M12.9294 21.4923L26.0735 30.2554C26.5711 30.5872 27.1413 30.753 27.7116 30.753C28.2819 30.753 28.8522 30.5871 29.3497 30.2554L42.4939 21.4923C43.2805 20.9683 43.75 20.0912 43.75 19.1445C43.75 17.5168 42.4258 16.1926 40.7981 16.1926H14.6251C12.9975 16.1927 11.6732 17.5169 11.6732 19.1461C11.6727 19.6104 11.7872 20.0677 12.0064 20.4771C12.2255 20.8865 12.5426 21.2353 12.9294 21.4923Z" fill="#005AFE"/>
<path d="M43.8337 24.8333H12.167M26.417 39.0833L38.767 39.0833C40.5405 39.0833 41.4272 39.0833 42.1046 38.7382C42.7005 38.4346 43.1849 37.9501 43.4885 37.3543C43.8337 36.6769 43.8337 35.7902 43.8337 34.0167V21.9833C43.8337 20.2098 43.8337 19.3231 43.4885 18.6457C43.1849 18.0499 42.7005 17.5654 42.1046 17.2618C41.4272 16.9167 40.5405 16.9167 38.767 16.9167H35.917M26.417 39.0833L29.5837 42.25M26.417 39.0833L29.5837 35.9167M20.0837 39.0833H17.2337C15.4602 39.0833 14.5734 39.0833 13.896 38.7382C13.3002 38.4346 12.8157 37.9501 12.5121 37.3543C12.167 36.6769 12.167 35.7902 12.167 34.0167V21.9833C12.167 20.2098 12.167 19.3231 12.5121 18.6457C12.8157 18.0499 13.3002 17.5654 13.896 17.2618C14.5734 16.9167 15.4602 16.9167 17.2337 16.9167H29.5837M29.5837 16.9167L26.417 20.0833M29.5837 16.9167L26.417 13.75" stroke="white" stroke-width="3" stroke-linecap="round" stroke-linejoin="round"/>
</svg>
