<svg width="56" height="56" viewBox="0 0 56 56" fill="none" xmlns="http://www.w3.org/2000/svg">
<path d="M28 56C43.464 56 56 43.464 56 28C56 12.536 43.464 0 28 0C12.536 0 0 12.536 0 28C0 43.464 12.536 56 28 56Z" fill="#005AFE"/>
<path d="M30.3924 31.8188C29.5943 32.3508 28.6673 32.632 27.7116 32.632C26.756 32.632 25.829 32.3508 25.031 31.8188L11.8868 23.0557C11.8142 23.0072 11.743 22.9567 11.6732 22.9043V37.2635C11.6732 38.9098 13.0092 40.2164 14.6261 40.2164H40.7971C42.4434 40.2164 43.75 38.8803 43.75 37.2635V22.9042C43.68 22.9568 43.6087 23.0074 43.536 23.056L30.3924 31.8188Z" fill="#005AFE"/>
<path d="M12.9294 21.4923L26.0735 30.2554C26.5711 30.5872 27.1413 30.753 27.7116 30.753C28.2819 30.753 28.8522 30.5871 29.3497 30.2554L42.4939 21.4923C43.2805 20.9683 43.75 20.0912 43.75 19.1445C43.75 17.5168 42.4258 16.1926 40.7981 16.1926H14.6251C12.9975 16.1927 11.6732 17.5169 11.6732 19.1461C11.6727 19.6104 11.7872 20.0677 12.0064 20.4771C12.2255 20.8865 12.5426 21.2353 12.9294 21.4923Z" fill="#005AFE"/>
<path d="M27.9997 27.9993H28.0066M34.9268 27.9993H34.9337M21.0726 27.9993H21.0795M18.5788 21.0723H37.4205C38.9723 21.0723 39.7482 21.0723 40.3409 21.3743C40.8623 21.6399 41.2862 22.0638 41.5518 22.5852C41.8538 23.1779 41.8538 23.9538 41.8538 25.5056V30.4931C41.8538 32.0449 41.8538 32.8208 41.5518 33.4135C41.2862 33.9349 40.8623 34.3588 40.3409 34.6244C39.7482 34.9264 38.9723 34.9264 37.4205 34.9264H18.5788C17.027 34.9264 16.2511 34.9264 15.6584 34.6244C15.137 34.3588 14.7132 33.9349 14.4475 33.4135C14.1455 32.8208 14.1455 32.0449 14.1455 30.4931V25.5056C14.1455 23.9538 14.1455 23.1779 14.4475 22.5852C14.7132 22.0638 15.137 21.6399 15.6584 21.3743C16.2511 21.0723 17.027 21.0723 18.5788 21.0723ZM28.346 27.9993C28.346 28.1906 28.191 28.3457 27.9997 28.3457C27.8084 28.3457 27.6533 28.1906 27.6533 27.9993C27.6533 27.8081 27.8084 27.653 27.9997 27.653C28.191 27.653 28.346 27.8081 28.346 27.9993ZM35.2731 27.9993C35.2731 28.1906 35.118 28.3457 34.9268 28.3457C34.7355 28.3457 34.5804 28.1906 34.5804 27.9993C34.5804 27.8081 34.7355 27.653 34.9268 27.653C35.118 27.653 35.2731 27.8081 35.2731 27.9993ZM21.4189 27.9993C21.4189 28.1906 21.2639 28.3457 21.0726 28.3457C20.8813 28.3457 20.7262 28.1906 20.7262 27.9993C20.7262 27.8081 20.8813 27.653 21.0726 27.653C21.2639 27.653 21.4189 27.8081 21.4189 27.9993Z" stroke="white" stroke-width="3" stroke-linecap="round" stroke-linejoin="round"/>
</svg>
