<svg width="56" height="56" viewBox="0 0 56 56" fill="none" xmlns="http://www.w3.org/2000/svg">
<path d="M28 56C43.464 56 56 43.464 56 28C56 12.536 43.464 0 28 0C12.536 0 0 12.536 0 28C0 43.464 12.536 56 28 56Z" fill="#005AFE"/>
<path d="M30.3924 31.8188C29.5943 32.3508 28.6673 32.632 27.7116 32.632C26.756 32.632 25.829 32.3508 25.031 31.8188L11.8868 23.0557C11.8142 23.0072 11.743 22.9567 11.6732 22.9043V37.2635C11.6732 38.9098 13.0092 40.2164 14.6261 40.2164H40.7971C42.4434 40.2164 43.75 38.8803 43.75 37.2635V22.9042C43.68 22.9568 43.6087 23.0074 43.536 23.056L30.3924 31.8188Z" fill="#005AFE"/>
<path d="M12.9294 21.4923L26.0735 30.2554C26.5711 30.5872 27.1413 30.753 27.7116 30.753C28.2819 30.753 28.8522 30.5871 29.3497 30.2554L42.4939 21.4923C43.2805 20.9683 43.75 20.0912 43.75 19.1445C43.75 17.5168 42.4258 16.1926 40.7981 16.1926H14.6251C12.9975 16.1927 11.6732 17.5169 11.6732 19.1461C11.6727 19.6104 11.7872 20.0677 12.0064 20.4771C12.2255 20.8865 12.5426 21.2353 12.9294 21.4923Z" fill="#005AFE"/>
<g clip-path="url(#clip0_49811_42947)">
<path d="M27.9997 35.9173C29.7413 35.9173 31.1663 34.4923 31.1663 32.7507C31.1663 31.009 29.7413 29.584 27.9997 29.584C26.258 29.584 24.833 31.009 24.833 32.7507C24.833 34.4923 26.258 35.9173 27.9997 35.9173ZM37.4997 21.6673H35.9163V18.5007C35.9163 14.1307 32.3697 10.584 27.9997 10.584C23.6297 10.584 20.083 14.1307 20.083 18.5007V21.6673H18.4997C16.758 21.6673 15.333 23.0923 15.333 24.834V40.6673C15.333 42.409 16.758 43.834 18.4997 43.834H37.4997C39.2413 43.834 40.6663 42.409 40.6663 40.6673V24.834C40.6663 23.0923 39.2413 21.6673 37.4997 21.6673ZM23.0913 18.5007C23.0913 15.7932 25.2922 13.5923 27.9997 13.5923C30.7072 13.5923 32.908 15.7932 32.908 18.5007V21.6673H23.0913V18.5007ZM37.4997 40.6673H18.4997V24.834H37.4997V40.6673Z" fill="white"/>
</g>
<defs>
<clipPath id="clip0_49811_42947">
<rect width="38" height="38" fill="white" transform="translate(9 9)"/>
</clipPath>
</defs>
</svg>
