<svg width="80" height="80" viewBox="0 0 80 80" fill="none" xmlns="http://www.w3.org/2000/svg">
<circle cx="40" cy="40" r="40" fill="#F3F4F8"/>
<g opacity="0.4">
<path opacity="0.85" d="M17.5 57.5C17.5 53.5218 19.0804 49.7064 21.8934 46.8934C24.7064 44.0804 28.5218 42.5 32.5 42.5H47.5C51.4782 42.5 55.2936 44.0804 58.1066 46.8934C60.9197 49.7064 62.5 53.5218 62.5 57.5V65H17.5V57.5Z" fill="#001A34" fill-opacity="0.5"/>
<path opacity="0.3" fill-rule="evenodd" clip-rule="evenodd" d="M50.5559 17.3789C50.0373 18.3741 49.2557 19.208 48.2961 19.7899C47.3365 20.3717 46.2357 20.6792 45.1134 20.6789H38.9734C37.3457 20.6789 35.7846 21.3255 34.6336 22.4765C33.4826 23.6275 32.8359 25.1886 32.8359 26.8164V36.5164C34.4814 37.875 36.4794 38.7375 38.5966 39.0034C40.7138 39.2693 42.863 38.9276 44.7933 38.0181C46.7236 37.1086 48.3555 35.6689 49.4985 33.867C50.6414 32.0651 51.2484 29.9753 51.2484 27.8414V20.6814C51.2484 19.5064 51.0009 18.3889 50.5559 17.3814V17.3789Z" fill="#001A34" fill-opacity="0.5"/>
<path fill-rule="evenodd" clip-rule="evenodd" d="M50.5575 17.38C49.9166 15.928 48.8674 14.6936 47.5376 13.8272C46.2077 12.9607 44.6547 12.4996 43.0675 12.5H28.75V27.84C28.7479 29.4992 29.1136 31.1382 29.8208 32.639C30.528 34.1399 31.5592 35.4654 32.84 36.52V26.82C32.84 25.1922 33.4866 23.6311 34.6376 22.4801C35.7886 21.3291 37.3497 20.6825 38.9775 20.6825H45.115C47.48 20.6825 49.5325 19.3425 50.5575 17.3825V17.38Z" fill="url(#paint0_linear_8839_46116)"/>
</g>
<path d="M20.1367 34.0801V35H13.6797V34.0801H20.1367ZM13.8613 34.0801V37.0977H12.7422L12.7363 34.0801H13.8613ZM21.1211 34.0801L21.1094 37.0918H19.9902V34.0801H21.1211ZM19.0293 26.4688V27.3945H15.291V26.4688H19.0293ZM20.002 26.4688V35H18.877V26.4688H20.002ZM14.9043 26.4688H16.0352L15.8594 29.9023C15.8359 30.418 15.7871 30.8945 15.7129 31.332C15.6387 31.7656 15.5469 32.1621 15.4375 32.5215C15.3281 32.8809 15.2031 33.2031 15.0625 33.4883C14.9219 33.7695 14.7715 34.0137 14.6113 34.2207C14.4512 34.4238 14.2832 34.5918 14.1074 34.7246C13.9355 34.8535 13.7617 34.9453 13.5859 35H13.0703V34.0801H13.4336C13.5352 33.9707 13.6504 33.8125 13.7793 33.6055C13.9121 33.3984 14.043 33.1309 14.1719 32.8027C14.3047 32.4707 14.4199 32.0664 14.5176 31.5898C14.6191 31.1133 14.6875 30.5508 14.7227 29.9023L14.9043 26.4688ZM22 31.9004V31.7656C22 31.3086 22.0664 30.8848 22.1992 30.4941C22.332 30.0996 22.5234 29.7578 22.7734 29.4688C23.0234 29.1758 23.3262 28.9492 23.6816 28.7891C24.0371 28.625 24.4355 28.543 24.877 28.543C25.3223 28.543 25.7227 28.625 26.0781 28.7891C26.4375 28.9492 26.7422 29.1758 26.9922 29.4688C27.2461 29.7578 27.4395 30.0996 27.5723 30.4941C27.7051 30.8848 27.7715 31.3086 27.7715 31.7656V31.9004C27.7715 32.3574 27.7051 32.7812 27.5723 33.1719C27.4395 33.5625 27.2461 33.9043 26.9922 34.1973C26.7422 34.4863 26.4395 34.7129 26.084 34.877C25.7324 35.0371 25.334 35.1172 24.8887 35.1172C24.4434 35.1172 24.043 35.0371 23.6875 34.877C23.332 34.7129 23.0273 34.4863 22.7734 34.1973C22.5234 33.9043 22.332 33.5625 22.1992 33.1719C22.0664 32.7812 22 32.3574 22 31.9004ZM23.084 31.7656V31.9004C23.084 32.2168 23.1211 32.5156 23.1953 32.7969C23.2695 33.0742 23.3809 33.3203 23.5293 33.5352C23.6816 33.75 23.8711 33.9199 24.0977 34.0449C24.3242 34.166 24.5879 34.2266 24.8887 34.2266C25.1855 34.2266 25.4453 34.166 25.668 34.0449C25.8945 33.9199 26.082 33.75 26.2305 33.5352C26.3789 33.3203 26.4902 33.0742 26.5645 32.7969C26.6426 32.5156 26.6816 32.2168 26.6816 31.9004V31.7656C26.6816 31.4531 26.6426 31.1582 26.5645 30.8809C26.4902 30.5996 26.377 30.3516 26.2246 30.1367C26.0762 29.918 25.8887 29.7461 25.6621 29.6211C25.4395 29.4961 25.1777 29.4336 24.877 29.4336C24.5801 29.4336 24.3184 29.4961 24.0918 29.6211C23.8691 29.7461 23.6816 29.918 23.5293 30.1367C23.3809 30.3516 23.2695 30.5996 23.1953 30.8809C23.1211 31.1582 23.084 31.4531 23.084 31.7656ZM33.1973 25.9004H34.0879C34.0879 26.2832 34.0293 26.5879 33.9121 26.8145C33.7949 27.0371 33.6348 27.209 33.4316 27.3301C33.2324 27.4512 33.0059 27.543 32.752 27.6055C32.502 27.668 32.2422 27.7285 31.9727 27.7871C31.6367 27.8574 31.3242 27.9688 31.0352 28.1211C30.75 28.2695 30.5039 28.4805 30.2969 28.7539C30.0938 29.0273 29.9434 29.3828 29.8457 29.8203C29.752 30.2578 29.7266 30.7988 29.7695 31.4434V31.9824H28.8789V31.4434C28.8789 30.7207 28.9473 30.0898 29.084 29.5508C29.2246 29.0117 29.4219 28.5566 29.6758 28.1855C29.9297 27.8145 30.2305 27.5195 30.5781 27.3008C30.9297 27.082 31.3164 26.9316 31.7383 26.8496C32.043 26.791 32.3047 26.7285 32.5234 26.6621C32.7422 26.5918 32.9082 26.498 33.0215 26.3809C33.1387 26.2637 33.1973 26.1035 33.1973 25.9004ZM31.9141 29.0234C32.3281 29.0234 32.6973 29.0957 33.0215 29.2402C33.3457 29.3848 33.6211 29.5859 33.8477 29.8438C34.0742 30.1016 34.2461 30.4062 34.3633 30.7578C34.4844 31.1055 34.5449 31.4844 34.5449 31.8945V32.0234C34.5449 32.4648 34.4805 32.875 34.3516 33.2539C34.2266 33.6289 34.041 33.957 33.7949 34.2383C33.5527 34.5156 33.2559 34.7324 32.9043 34.8887C32.5566 35.0449 32.1602 35.123 31.7148 35.123C31.2695 35.123 30.8711 35.0449 30.5195 34.8887C30.1719 34.7324 29.875 34.5156 29.6289 34.2383C29.3828 33.957 29.1953 33.6289 29.0664 33.2539C28.9414 32.875 28.8789 32.4648 28.8789 32.0234V31.8945C28.8789 31.7969 28.8965 31.7012 28.9316 31.6074C28.9668 31.5137 29.0098 31.418 29.0605 31.3203C29.1152 31.2227 29.1641 31.1191 29.207 31.0098C29.3516 30.6582 29.5488 30.332 29.7988 30.0312C30.0527 29.7305 30.3555 29.4883 30.707 29.3047C31.0625 29.1172 31.4648 29.0234 31.9141 29.0234ZM31.7031 29.9082C31.3047 29.9082 30.9766 30 30.7188 30.1836C30.4648 30.3672 30.2754 30.6113 30.1504 30.916C30.0254 31.2168 29.9629 31.543 29.9629 31.8945V32.0234C29.9629 32.3203 29.998 32.6016 30.0684 32.8672C30.1387 33.1328 30.2441 33.3691 30.3848 33.5762C30.5293 33.7793 30.7109 33.9395 30.9297 34.0566C31.1523 34.1738 31.4141 34.2324 31.7148 34.2324C32.0156 34.2324 32.2754 34.1738 32.4941 34.0566C32.7129 33.9395 32.8926 33.7793 33.0332 33.5762C33.1738 33.3691 33.2793 33.1328 33.3496 32.8672C33.4199 32.6016 33.4551 32.3203 33.4551 32.0234V31.8945C33.4551 31.6289 33.4199 31.377 33.3496 31.1387C33.2793 30.9004 33.1719 30.6895 33.0273 30.5059C32.8867 30.3223 32.7051 30.1777 32.4824 30.0723C32.2637 29.9629 32.0039 29.9082 31.7031 29.9082ZM39.5137 33.916V30.6523C39.5137 30.4023 39.4629 30.1855 39.3613 30.002C39.2637 29.8145 39.1152 29.6699 38.916 29.5684C38.7168 29.4668 38.4707 29.416 38.1777 29.416C37.9043 29.416 37.6641 29.4629 37.457 29.5566C37.2539 29.6504 37.0938 29.7734 36.9766 29.9258C36.8633 30.0781 36.8066 30.2422 36.8066 30.418H35.7227C35.7227 30.1914 35.7812 29.9668 35.8984 29.7441C36.0156 29.5215 36.1836 29.3203 36.4023 29.1406C36.625 28.957 36.8906 28.8125 37.1992 28.707C37.5117 28.5977 37.8594 28.543 38.2422 28.543C38.7031 28.543 39.1094 28.6211 39.4609 28.7773C39.8164 28.9336 40.0938 29.1699 40.293 29.4863C40.4961 29.7988 40.5977 30.1914 40.5977 30.6641V33.6172C40.5977 33.8281 40.6152 34.0527 40.6504 34.291C40.6895 34.5293 40.7461 34.7344 40.8203 34.9062V35H39.6895C39.6348 34.875 39.5918 34.709 39.5605 34.502C39.5293 34.291 39.5137 34.0957 39.5137 33.916ZM39.7012 31.1562L39.7129 31.918H38.6172C38.3086 31.918 38.0332 31.9434 37.791 31.9941C37.5488 32.041 37.3457 32.1133 37.1816 32.2109C37.0176 32.3086 36.8926 32.4316 36.8066 32.5801C36.7207 32.7246 36.6777 32.8945 36.6777 33.0898C36.6777 33.2891 36.7227 33.4707 36.8125 33.6348C36.9023 33.7988 37.0371 33.9297 37.2168 34.0273C37.4004 34.1211 37.625 34.168 37.8906 34.168C38.2227 34.168 38.5156 34.0977 38.7695 33.957C39.0234 33.8164 39.2246 33.6445 39.373 33.4414C39.5254 33.2383 39.6074 33.041 39.6191 32.8496L40.082 33.3711C40.0547 33.5352 39.9805 33.7168 39.8594 33.916C39.7383 34.1152 39.5762 34.3066 39.373 34.4902C39.1738 34.6699 38.9355 34.8203 38.6582 34.9414C38.3848 35.0586 38.0762 35.1172 37.7324 35.1172C37.3027 35.1172 36.9258 35.0332 36.6016 34.8652C36.2812 34.6973 36.0312 34.4727 35.8516 34.1914C35.6758 33.9062 35.5879 33.5879 35.5879 33.2363C35.5879 32.8965 35.6543 32.5977 35.7871 32.3398C35.9199 32.0781 36.1113 31.8613 36.3613 31.6895C36.6113 31.5137 36.9121 31.3809 37.2637 31.291C37.6152 31.2012 38.0078 31.1562 38.4414 31.1562H39.7012ZM45.2793 32.2109H43.1992L43.1875 31.3438H44.8867C45.2227 31.3438 45.502 31.3105 45.7246 31.2441C45.9512 31.1777 46.1211 31.0781 46.2344 30.9453C46.3477 30.8125 46.4043 30.6484 46.4043 30.4531C46.4043 30.3008 46.3711 30.168 46.3047 30.0547C46.2422 29.9375 46.1465 29.8418 46.0176 29.7676C45.8887 29.6895 45.7285 29.6328 45.5371 29.5977C45.3496 29.5586 45.1289 29.5391 44.875 29.5391H43.4863V35H42.4023V28.6602H44.875C45.2773 28.6602 45.6387 28.6953 45.959 28.7656C46.2832 28.8359 46.5586 28.9434 46.7852 29.0879C47.0156 29.2285 47.1914 29.4082 47.3125 29.627C47.4336 29.8457 47.4941 30.1035 47.4941 30.4004C47.4941 30.5918 47.4551 30.7734 47.377 30.9453C47.2988 31.1172 47.1836 31.2695 47.0312 31.4023C46.8789 31.5352 46.6914 31.6445 46.4688 31.7305C46.2461 31.8125 45.9902 31.8652 45.7012 31.8887L45.2793 32.2109ZM45.2793 35H42.8066L43.3457 34.1211H45.2793C45.5801 34.1211 45.8301 34.084 46.0293 34.0098C46.2285 33.9316 46.377 33.8223 46.4746 33.6816C46.5762 33.5371 46.627 33.3652 46.627 33.166C46.627 32.9668 46.5762 32.7969 46.4746 32.6562C46.377 32.5117 46.2285 32.4023 46.0293 32.3281C45.8301 32.25 45.5801 32.2109 45.2793 32.2109H43.6328L43.6445 31.3438H45.7012L46.0938 31.6719C46.4414 31.6992 46.7363 31.7852 46.9785 31.9297C47.2207 32.0742 47.4043 32.2578 47.5293 32.4805C47.6543 32.6992 47.7168 32.9375 47.7168 33.1953C47.7168 33.4922 47.6602 33.7539 47.5469 33.9805C47.4375 34.207 47.2773 34.3965 47.0664 34.5488C46.8555 34.6973 46.5996 34.8105 46.2988 34.8887C45.998 34.9629 45.6582 35 45.2793 35ZM50.3418 33.2832L53.2656 28.6602H54.3555V35H53.2656V30.377L50.3418 35H49.2637V28.6602H50.3418V33.2832ZM58.6797 28.6602V35H57.5898V28.6602H58.6797ZM60.8066 28.6602V29.5391H55.5039V28.6602H60.8066ZM62.7637 30.8398H64.668C65.1797 30.8398 65.6113 30.9297 65.9629 31.1094C66.3145 31.2852 66.5801 31.5293 66.7598 31.8418C66.9434 32.1504 67.0352 32.502 67.0352 32.8965C67.0352 33.1895 66.9844 33.4648 66.8828 33.7227C66.7812 33.9766 66.6289 34.1992 66.4258 34.3906C66.2266 34.582 65.9785 34.7324 65.6816 34.8418C65.3887 34.9473 65.0508 35 64.668 35H61.9727V28.6602H63.0566V34.1094H64.668C64.9805 34.1094 65.2305 34.0527 65.418 33.9395C65.6055 33.8262 65.7402 33.6797 65.8223 33.5C65.9043 33.3203 65.9453 33.1328 65.9453 32.9375C65.9453 32.7461 65.9043 32.5586 65.8223 32.375C65.7402 32.1914 65.6055 32.0391 65.418 31.918C65.2305 31.793 64.9805 31.7305 64.668 31.7305H62.7637V30.8398ZM34.2168 49.9414V50.0645C34.2168 50.5098 34.168 50.9199 34.0703 51.2949C33.9727 51.666 33.8262 51.9883 33.6309 52.2617C33.4395 52.5352 33.2012 52.748 32.916 52.9004C32.6309 53.0488 32.3008 53.123 31.9258 53.123C31.6172 53.123 31.3457 53.082 31.1113 53C30.877 52.9141 30.6777 52.791 30.5137 52.6309C30.3535 52.4707 30.2246 52.2793 30.127 52.0566C30.0332 51.8301 29.9688 51.5762 29.9336 51.2949V48.4824C29.9688 48.1816 30.0332 47.9121 30.127 47.6738C30.2246 47.4355 30.3535 47.2324 30.5137 47.0645C30.6777 46.8965 30.875 46.7676 31.1055 46.6777C31.3359 46.5879 31.6055 46.543 31.9141 46.543C32.2188 46.543 32.4922 46.5977 32.7344 46.707C32.9805 46.8125 33.1953 46.9648 33.3789 47.1641C33.5664 47.3633 33.7207 47.6035 33.8418 47.8848C33.9668 48.1621 34.0605 48.4746 34.123 48.8223C34.1855 49.1699 34.2168 49.543 34.2168 49.9414ZM33.1328 50.0645V49.9414C33.1328 49.668 33.1133 49.4082 33.0742 49.1621C33.0391 48.9121 32.9824 48.6836 32.9043 48.4766C32.8301 48.2656 32.7324 48.082 32.6113 47.9258C32.4902 47.7695 32.3438 47.6484 32.1719 47.5625C32.0039 47.4766 31.8105 47.4336 31.5918 47.4336C31.3574 47.4336 31.1621 47.4629 31.0059 47.5215C30.8535 47.5801 30.7344 47.6582 30.6484 47.7559C30.5625 47.8496 30.5 47.9492 30.4609 48.0547V51.7285C30.5078 51.8145 30.5762 51.8965 30.666 51.9746C30.7559 52.0488 30.877 52.1113 31.0293 52.1621C31.1816 52.209 31.373 52.2324 31.6035 52.2324C31.877 52.2324 32.1094 52.1777 32.3008 52.0684C32.4961 51.9551 32.6543 51.7988 32.7754 51.5996C32.9004 51.4004 32.9902 51.1699 33.0449 50.9082C33.1035 50.6465 33.1328 50.3652 33.1328 50.0645ZM26.6875 50.0645V49.9414C26.6875 49.543 26.7188 49.1699 26.7812 48.8223C26.8438 48.4746 26.9375 48.1621 27.0625 47.8848C27.1875 47.6035 27.3418 47.3633 27.5254 47.1641C27.7129 46.9648 27.9277 46.8125 28.1699 46.707C28.416 46.5977 28.6914 46.543 28.9961 46.543C29.2969 46.543 29.5586 46.5879 29.7812 46.6777C30.0078 46.7676 30.1992 46.8965 30.3555 47.0645C30.5117 47.2324 30.6367 47.4355 30.7305 47.6738C30.8242 47.9121 30.8906 48.1816 30.9297 48.4824V51.1836C30.8945 51.4805 30.8301 51.748 30.7363 51.9863C30.6426 52.2246 30.5176 52.4297 30.3613 52.6016C30.2051 52.7695 30.0117 52.8984 29.7812 52.9883C29.5547 53.0781 29.2891 53.123 28.9844 53.123C28.6094 53.123 28.2793 53.0488 27.9941 52.9004C27.709 52.748 27.4688 52.5352 27.2734 52.2617C27.082 51.9883 26.9355 51.666 26.834 51.2949C26.7363 50.9199 26.6875 50.5098 26.6875 50.0645ZM27.7773 49.9414V50.0645C27.7773 50.3652 27.8027 50.6465 27.8535 50.9082C27.9082 51.1699 27.9922 51.4004 28.1055 51.5996C28.2227 51.7988 28.375 51.9551 28.5625 52.0684C28.75 52.1777 28.9805 52.2324 29.2539 52.2324C29.4883 52.2324 29.6816 52.2031 29.834 52.1445C29.9863 52.0859 30.1074 52.0098 30.1973 51.916C30.2871 51.8223 30.3555 51.7246 30.4023 51.623V48.0547C30.3633 47.9492 30.2988 47.8496 30.209 47.7559C30.123 47.6582 30.0039 47.5801 29.8516 47.5215C29.6992 47.4629 29.5039 47.4336 29.2656 47.4336C28.9922 47.4336 28.7598 47.5 28.5684 47.6328C28.377 47.7656 28.2227 47.9473 28.1055 48.1777C27.9922 48.4082 27.9082 48.6758 27.8535 48.9805C27.8027 49.2812 27.7773 49.6016 27.7773 49.9414ZM29.8633 55.4375V44H30.9531V55.4375H29.8633ZM35.3477 49.9004V49.7656C35.3477 49.3086 35.4141 48.8848 35.5469 48.4941C35.6797 48.0996 35.8711 47.7578 36.1211 47.4688C36.3711 47.1758 36.6738 46.9492 37.0293 46.7891C37.3848 46.625 37.7832 46.543 38.2246 46.543C38.6699 46.543 39.0703 46.625 39.4258 46.7891C39.7852 46.9492 40.0898 47.1758 40.3398 47.4688C40.5938 47.7578 40.7871 48.0996 40.9199 48.4941C41.0527 48.8848 41.1191 49.3086 41.1191 49.7656V49.9004C41.1191 50.3574 41.0527 50.7812 40.9199 51.1719C40.7871 51.5625 40.5938 51.9043 40.3398 52.1973C40.0898 52.4863 39.7871 52.7129 39.4316 52.877C39.0801 53.0371 38.6816 53.1172 38.2363 53.1172C37.791 53.1172 37.3906 53.0371 37.0352 52.877C36.6797 52.7129 36.375 52.4863 36.1211 52.1973C35.8711 51.9043 35.6797 51.5625 35.5469 51.1719C35.4141 50.7812 35.3477 50.3574 35.3477 49.9004ZM36.4316 49.7656V49.9004C36.4316 50.2168 36.4688 50.5156 36.543 50.7969C36.6172 51.0742 36.7285 51.3203 36.877 51.5352C37.0293 51.75 37.2188 51.9199 37.4453 52.0449C37.6719 52.166 37.9355 52.2266 38.2363 52.2266C38.5332 52.2266 38.793 52.166 39.0156 52.0449C39.2422 51.9199 39.4297 51.75 39.5781 51.5352C39.7266 51.3203 39.8379 51.0742 39.9121 50.7969C39.9902 50.5156 40.0293 50.2168 40.0293 49.9004V49.7656C40.0293 49.4531 39.9902 49.1582 39.9121 48.8809C39.8379 48.5996 39.7246 48.3516 39.5723 48.1367C39.4238 47.918 39.2363 47.7461 39.0098 47.6211C38.7871 47.4961 38.5254 47.4336 38.2246 47.4336C37.9277 47.4336 37.666 47.4961 37.4395 47.6211C37.2168 47.7461 37.0293 47.918 36.877 48.1367C36.7285 48.3516 36.6172 48.5996 36.543 48.8809C36.4688 49.1582 36.4316 49.4531 36.4316 49.7656ZM44.9336 46.6602V53H43.8438V46.6602H44.9336ZM47.0605 46.6602V47.5391H41.7578V46.6602H47.0605ZM47.5938 49.9004V49.7656C47.5938 49.3086 47.6602 48.8848 47.793 48.4941C47.9258 48.0996 48.1172 47.7578 48.3672 47.4688C48.6172 47.1758 48.9199 46.9492 49.2754 46.7891C49.6309 46.625 50.0293 46.543 50.4707 46.543C50.916 46.543 51.3164 46.625 51.6719 46.7891C52.0312 46.9492 52.3359 47.1758 52.5859 47.4688C52.8398 47.7578 53.0332 48.0996 53.166 48.4941C53.2988 48.8848 53.3652 49.3086 53.3652 49.7656V49.9004C53.3652 50.3574 53.2988 50.7812 53.166 51.1719C53.0332 51.5625 52.8398 51.9043 52.5859 52.1973C52.3359 52.4863 52.0332 52.7129 51.6777 52.877C51.3262 53.0371 50.9277 53.1172 50.4824 53.1172C50.0371 53.1172 49.6367 53.0371 49.2812 52.877C48.9258 52.7129 48.6211 52.4863 48.3672 52.1973C48.1172 51.9043 47.9258 51.5625 47.793 51.1719C47.6602 50.7812 47.5938 50.3574 47.5938 49.9004ZM48.6777 49.7656V49.9004C48.6777 50.2168 48.7148 50.5156 48.7891 50.7969C48.8633 51.0742 48.9746 51.3203 49.123 51.5352C49.2754 51.75 49.4648 51.9199 49.6914 52.0449C49.918 52.166 50.1816 52.2266 50.4824 52.2266C50.7793 52.2266 51.0391 52.166 51.2617 52.0449C51.4883 51.9199 51.6758 51.75 51.8242 51.5352C51.9727 51.3203 52.084 51.0742 52.1582 50.7969C52.2363 50.5156 52.2754 50.2168 52.2754 49.9004V49.7656C52.2754 49.4531 52.2363 49.1582 52.1582 48.8809C52.084 48.5996 51.9707 48.3516 51.8184 48.1367C51.6699 47.918 51.4824 47.7461 51.2559 47.6211C51.0332 47.4961 50.7715 47.4336 50.4707 47.4336C50.1738 47.4336 49.9121 47.4961 49.6855 47.6211C49.4629 47.7461 49.2754 47.918 49.123 48.1367C48.9746 48.3516 48.8633 48.5996 48.7891 48.8809C48.7148 49.1582 48.6777 49.4531 48.6777 49.7656Z" fill="#005AFE"/>
<defs>
<linearGradient id="paint0_linear_8839_46116" x1="43.0675" y1="12.5" x2="40" y2="39.09" gradientUnits="userSpaceOnUse">
<stop/>
<stop offset="1" stop-opacity="0.5"/>
</linearGradient>
</defs>
</svg>
