<svg xmlns="http://www.w3.org/2000/svg" width="46" height="38" viewBox="0 0 46 38" fill="none">
<path d="M16.1435 18C17.839 18 19.4965 17.4972 20.9063 16.5552C22.3161 15.6131 23.4148 14.2742 24.0636 12.7077C24.7124 11.1412 24.8821 9.41746 24.5512 7.75452C24.2203 6.09158 23.4037 4.56411 22.2046 3.36528C21.0056 2.16646 19.478 1.35012 17.815 1.01952C16.152 0.688917 14.4283 0.858895 12.8619 1.50796C11.2955 2.15702 9.95678 3.25601 9.015 4.66595C8.07322 6.07589 7.5707 7.73344 7.571 9.42898C7.57338 11.7017 8.47737 13.8806 10.0845 15.4875C11.6917 17.0944 13.8708 17.998 16.1435 18ZM27.3575 25.0815C25.1852 22.8534 22.3981 21.3234 19.3521 20.6869C16.3061 20.0505 13.1395 20.3365 10.2568 21.5084C7.37409 22.6803 4.90618 24.6849 3.16829 27.2662C1.43039 29.8475 0.501406 32.8882 0.5 36C0.5 36.3978 0.658035 36.7793 0.93934 37.0606C1.22064 37.3419 1.60218 37.5 2 37.5H30.29C30.6878 37.5 31.0694 37.3419 31.3507 37.0606C31.632 36.7793 31.79 36.3978 31.79 36C31.7958 34.4094 31.5503 32.8279 31.0625 31.314C30.3362 28.9734 29.0667 26.8378 27.3575 25.0815Z" fill="#005AFE"/>
<path d="M34.25 18.75C37.7708 18.75 40.625 15.8958 40.625 12.375C40.625 8.85418 37.7708 6 34.25 6C30.7292 6 27.875 8.85418 27.875 12.375C27.875 15.8958 30.7292 18.75 34.25 18.75Z" fill="#005AFE"/>
<path d="M34.25 20.5049C32.2393 20.5124 30.2676 21.06 28.541 22.0904C28.8665 22.3814 29.195 22.6679 29.5025 22.9829C31.545 25.0822 33.0622 27.6346 33.9305 30.4319C34.2279 31.3528 34.4472 32.2971 34.586 33.2549H44C44.3978 33.2549 44.7794 33.0968 45.0607 32.8155C45.342 32.5342 45.5 32.1527 45.5 31.7549C45.4968 28.7722 44.3106 25.9125 42.2015 23.8034C40.0924 21.6943 37.2327 20.5081 34.25 20.5049Z" fill="#005AFE"/>
</svg>