<svg xmlns="http://www.w3.org/2000/svg" width="18" height="19" viewBox="0 0 18 19" fill="none">
<path d="M5 13.4995V8.49951M9 13.4995V5.49951M13 13.4995V11.4995M15 1.49951H3C2.46957 1.49951 1.96086 1.71023 1.58579 2.0853C1.21071 2.46037 1 2.96908 1 3.49951V15.4995C1 16.0299 1.21071 16.5387 1.58579 16.9137C1.96086 17.2888 2.46957 17.4995 3 17.4995H15C15.5304 17.4995 16.0391 17.2888 16.4142 16.9137C16.7893 16.5387 17 16.0299 17 15.4995V3.49951C17 2.96908 16.7893 2.46037 16.4142 2.0853C16.0391 1.71023 15.5304 1.49951 15 1.49951V1.49951Z" stroke="#7B7B7B" stroke-width="1.5" stroke-linecap="round" stroke-linejoin="round"/>
</svg>