<svg xmlns="http://www.w3.org/2000/svg" width="42" height="42" viewBox="0 0 42 42" fill="none">
<path d="M40.8645 18.045L37.02 17.0835C36.6243 15.445 35.9766 13.8778 35.1 12.438L37.1355 9.0435C37.3075 8.7568 37.3787 8.42088 37.3379 8.08906C37.2972 7.75724 37.1467 7.44855 36.9105 7.212L34.788 5.091C34.5513 4.85499 34.2426 4.70471 33.9109 4.66395C33.5791 4.6232 33.2433 4.6943 32.9565 4.866L29.562 6.9C28.1222 6.0234 26.555 5.37568 24.9165 4.98L23.9565 1.134C23.8749 0.80966 23.6872 0.521895 23.4233 0.316431C23.1594 0.110967 22.8345 -0.000408435 22.5 1.12552e-06H19.5C19.1656 9.91617e-06 18.8408 0.111754 18.5772 0.317484C18.3136 0.523214 18.1263 0.811131 18.045 1.1355L17.0835 4.98C15.445 5.37568 13.8778 6.0234 12.438 6.9L9.0435 4.866C8.75665 4.69456 8.42084 4.6236 8.08916 4.66435C7.75747 4.7051 7.44883 4.85523 7.212 5.091L5.091 7.2135C4.85476 7.45005 4.70432 7.75874 4.66355 8.09056C4.62279 8.42238 4.69404 8.7583 4.866 9.045L6.9 12.438C6.0234 13.8778 5.37568 15.445 4.98 17.0835L1.134 18.0435C0.80966 18.1251 0.521895 18.3128 0.316431 18.5767C0.110967 18.8406 -0.000408435 19.1656 1.12552e-06 19.5V22.5C9.91617e-06 22.8344 0.111754 23.1592 0.317484 23.4228C0.523214 23.6864 0.811131 23.8737 1.1355 23.955L4.98 24.9165C5.37568 26.555 6.0234 28.1222 6.9 29.562L4.8645 32.9565C4.69254 33.2432 4.62129 33.5791 4.66205 33.9109C4.70282 34.2428 4.85326 34.5514 5.0895 34.788L7.212 36.909C7.44855 37.1452 7.75724 37.2957 8.08906 37.3364C8.42088 37.3772 8.7568 37.306 9.0435 37.134L12.438 35.0985C13.8778 35.9751 15.445 36.6228 17.0835 37.0185L18.0435 40.8645C18.1248 41.1891 18.3124 41.4772 18.5763 41.683C18.8402 41.8887 19.1654 42.0003 19.5 42H22.5C22.8344 42 23.1592 41.8882 23.4228 41.6825C23.6864 41.4768 23.8737 41.1889 23.955 40.8645L24.9165 37.02C26.555 36.6243 28.1222 35.9766 29.562 35.1L32.9565 37.1355C33.2432 37.3075 33.5791 37.3787 33.9109 37.3379C34.2428 37.2972 34.5514 37.1467 34.788 36.9105L36.909 34.788C37.1452 34.5514 37.2957 34.2428 37.3364 33.9109C37.3772 33.5791 37.306 33.2432 37.134 32.9565L35.1 29.562C35.9766 28.1222 36.6243 26.555 37.02 24.9165L40.866 23.9565C41.1903 23.8749 41.4781 23.6872 41.6836 23.4233C41.889 23.1594 42.0004 22.8345 42 22.5V19.5C42 19.1656 41.8882 18.8408 41.6825 18.5772C41.4768 18.3136 41.1889 18.1263 40.8645 18.045ZM21 33C17.8174 33 14.7652 31.7357 12.5147 29.4853C10.2643 27.2348 9 24.1826 9 21C9 17.8174 10.2643 14.7652 12.5147 12.5147C14.7652 10.2643 17.8174 9 21 9C24.1826 9 27.2348 10.2643 29.4853 12.5147C31.7357 14.7652 33 17.8174 33 21C33 24.1826 31.7357 27.2348 29.4853 29.4853C27.2348 31.7357 24.1826 33 21 33Z" fill="#005AFE"/>
<path d="M21 10.5C18.2152 10.5 15.5445 11.6062 13.5754 13.5754C11.6062 15.5445 10.5 18.2152 10.5 21C10.5 23.7848 11.6062 26.4555 13.5754 28.4246C15.5445 30.3938 18.2152 31.5 21 31.5C23.7848 31.5 26.4555 30.3938 28.4246 28.4246C30.3938 26.4555 31.5 23.7848 31.5 21C31.5 18.2152 30.3938 15.5445 28.4246 13.5754C26.4555 11.6062 23.7848 10.5 21 10.5ZM27 22.5H22.5V27C22.5 27.3978 22.342 27.7794 22.0607 28.0607C21.7794 28.342 21.3978 28.5 21 28.5C20.6022 28.5 20.2206 28.342 19.9393 28.0607C19.658 27.7794 19.5 27.3978 19.5 27V22.5H15C14.6022 22.5 14.2206 22.342 13.9393 22.0607C13.658 21.7794 13.5 21.3978 13.5 21C13.5 20.6022 13.658 20.2206 13.9393 19.9393C14.2206 19.658 14.6022 19.5 15 19.5H19.5V15C19.5 14.6022 19.658 14.2206 19.9393 13.9393C20.2206 13.658 20.6022 13.5 21 13.5C21.3978 13.5 21.7794 13.658 22.0607 13.9393C22.342 14.2206 22.5 14.6022 22.5 15V19.5H27C27.3978 19.5 27.7794 19.658 28.0607 19.9393C28.342 20.2206 28.5 20.6022 28.5 21C28.5 21.3978 28.342 21.7794 28.0607 22.0607C27.7794 22.342 27.3978 22.5 27 22.5Z" fill="#005AFE"/>
</svg>