<svg width="49" height="48" viewBox="0 0 49 48" fill="none" xmlns="http://www.w3.org/2000/svg">
<path d="M15.0376 5.63439C14.5605 5.6478 14.1075 5.84692 13.775 6.18936L6.44253 13.508C6.27075 13.6782 6.1344 13.8808 6.04135 14.1041C5.9483 14.3273 5.90039 14.5668 5.90039 14.8087C5.90039 15.0505 5.9483 15.29 6.04135 15.5133C6.1344 15.7365 6.27075 15.9391 6.44253 16.1094L13.775 23.4419C14.1191 23.785 14.5853 23.9774 15.0712 23.9767C15.3118 23.9764 15.55 23.9287 15.7722 23.8363C15.9943 23.744 16.1961 23.6087 16.366 23.4384C16.5359 23.268 16.6706 23.0659 16.7624 22.8435C16.8541 22.6211 16.9012 22.3828 16.9009 22.1422C16.9006 21.9016 16.8529 21.6634 16.7605 21.4412C16.6681 21.2191 16.5329 21.0173 16.3625 20.8474L12.1656 16.6505H40.7256C41.2122 16.6505 41.6789 16.4572 42.023 16.113C42.3671 15.7689 42.5604 15.3022 42.5604 14.8156C42.5604 14.329 42.3671 13.8623 42.023 13.5182C41.6789 13.1741 41.2122 12.9808 40.7256 12.9808H12.1448L16.3625 8.77689C16.6263 8.51991 16.8064 8.18939 16.8795 7.82846C16.9525 7.46754 16.9151 7.09298 16.772 6.75366C16.629 6.41435 16.3869 6.12604 16.0775 5.92638C15.7681 5.72671 15.4057 5.62495 15.0376 5.63439ZM33.3931 23.9621C33.0268 23.9611 32.6685 24.0699 32.3647 24.2746C32.0609 24.4792 31.8254 24.7703 31.6887 25.1101C31.5521 25.45 31.5204 25.823 31.5979 26.1811C31.6755 26.5391 31.8586 26.8656 32.1236 27.1185L36.3136 31.3085H7.76058C7.27394 31.3085 6.80724 31.5018 6.46314 31.8459C6.11903 32.19 5.92572 32.6567 5.92572 33.1434C5.92572 33.63 6.11903 34.0967 6.46314 34.4408C6.80724 34.7849 7.27394 34.9782 7.76058 34.9782H36.3413L32.1305 39.189C31.9488 39.3566 31.8028 39.5591 31.7014 39.7846C31.6001 40.01 31.5454 40.2537 31.5407 40.5008C31.536 40.748 31.5814 40.9935 31.6741 41.2226C31.7668 41.4518 31.905 41.6597 32.0802 41.8341C32.2555 42.0084 32.4642 42.1454 32.6939 42.2369C32.9235 42.3284 33.1693 42.3725 33.4164 42.3665C33.6635 42.3604 33.9068 42.3045 34.1317 42.2019C34.3566 42.0993 34.5584 41.9523 34.725 41.7696L42.0575 34.451C42.2292 34.2807 42.3656 34.0781 42.4586 33.8549C42.5517 33.6316 42.5996 33.3922 42.5996 33.1503C42.5996 32.9084 42.5517 32.669 42.4586 32.4457C42.3656 32.2225 42.2292 32.0199 42.0575 31.8496L34.718 24.5171C34.546 24.3401 34.3399 24.1997 34.1122 24.1043C33.8845 24.0089 33.6399 23.9606 33.3931 23.9621Z" fill="#005AFE"/>
</svg>
