<svg width="24" height="24" viewBox="0 0 24 24" fill="none" xmlns="http://www.w3.org/2000/svg">
<path d="M12.5 7.5C12.3833 7.5 12.2727 7.52147 12.1682 7.56442C12.0699 7.60736 11.9777 7.67178 11.8917 7.75767L4.74885 15.0552C4.58295 15.2209 4.5 15.4202 4.5 15.6534C4.5 15.8129 4.53687 15.954 4.6106 16.0767C4.68433 16.2055 4.78571 16.3067 4.91475 16.3804C5.03763 16.4601 5.17896 16.5 5.33871 16.5C5.56605 16.5 5.76575 16.4172 5.93779 16.2515L12.5 9.55215L19.0622 16.2515C19.2343 16.4172 19.4339 16.5 19.6613 16.5C19.821 16.5 19.9624 16.4601 20.0853 16.3804C20.2143 16.3067 20.3157 16.2055 20.3894 16.0767C20.4631 15.954 20.5 15.8129 20.5 15.6534C20.5 15.4202 20.4201 15.2209 20.2604 15.0552L13.1083 7.75767C13.0223 7.67178 12.927 7.60736 12.8226 7.56442C12.7243 7.52147 12.6167 7.5 12.5 7.5Z" fill="#001A34" fill-opacity="0.5"/>
<path d="M12.0731 7.3332L12.0731 7.33314L12.0681 7.33532C11.9377 7.39229 11.8202 7.47576 11.7151 7.58076L11.713 7.5828L4.57115 14.8794C4.35928 15.0914 4.25 15.354 4.25 15.6534C4.25 15.852 4.29618 16.0378 4.39491 16.2031C4.48956 16.3676 4.62056 16.4989 4.78471 16.594C4.95029 16.6997 5.13766 16.75 5.33871 16.75C5.63424 16.75 5.89516 16.6396 6.11118 16.4316L6.11126 16.4317L6.11638 16.4265L12.5 9.90942L18.8836 16.4265L18.8835 16.4265L18.8888 16.4316C19.1048 16.6396 19.3658 16.75 19.6613 16.75C19.8623 16.75 20.0497 16.6997 20.2153 16.594C20.3794 16.499 20.5104 16.3676 20.6051 16.2032C20.7038 16.0378 20.75 15.852 20.75 15.6534C20.75 15.3565 20.6457 15.0946 20.4403 14.8817L20.4403 14.8817L20.4389 14.8802L13.2868 7.58268L13.2869 7.58267L13.2849 7.58076C13.178 7.47401 13.0564 7.39064 12.9201 7.33423C12.7883 7.27707 12.6472 7.25 12.5 7.25C12.3518 7.25 12.2088 7.27743 12.0731 7.3332Z" stroke="#001A34" stroke-opacity="0.5" stroke-width="0.5"/>
</svg>
