<svg width="24" height="24" viewBox="0 0 24 24" fill="none" xmlns="http://www.w3.org/2000/svg">
<path d="M9.62808 11.9902C10.2541 12.6275 10.8998 13.3115 11.5755 13.9658C13.0512 15.3956 14.5436 16.8089 16.0271 18.2311C16.5023 18.687 16.539 19.2695 16.1273 19.6821C15.6913 20.1198 15.0513 20.1042 14.5694 19.6434L8.23649 13.5859C7.92966 13.2924 7.61663 13.0044 7.31652 12.7054C6.89501 12.2857 6.89191 11.7088 7.32272 11.2946C9.2825 9.413 11.2454 7.53405 13.2114 5.65777C13.6897 5.19993 14.1644 4.73807 14.651 4.28877C14.9578 4.00532 15.3287 3.92691 15.7275 4.06964C16.1144 4.20835 16.3427 4.4908 16.399 4.88934C16.4208 5.03527 16.4061 5.18417 16.3561 5.32339C16.3061 5.4626 16.2223 5.58801 16.1118 5.68893C14.4263 7.30521 12.7336 8.91394 11.0496 10.5342C10.5511 11.0187 10.0785 11.5293 9.62808 11.9902Z" fill="#FEFEFE"/>
</svg>
