<svg xmlns="http://www.w3.org/2000/svg" width="24" height="25" viewBox="0 0 24 25" fill="none">
<path d="M16 12.5C16 12.3833 15.9785 12.2727 15.9356 12.1682C15.8926 12.0699 15.8282 11.9777 15.7423 11.8917L8.44479 4.74885C8.27914 4.58295 8.07975 4.5 7.84663 4.5C7.68712 4.5 7.54601 4.53687 7.42331 4.6106C7.29448 4.68433 7.19325 4.78571 7.11963 4.91475C7.03988 5.03763 7 5.17896 7 5.33871C7 5.56605 7.08282 5.76575 7.24847 5.93779L13.9479 12.5L7.24847 19.0622C7.08282 19.2343 7 19.4339 7 19.6613C7 19.821 7.03988 19.9624 7.11963 20.0853C7.19325 20.2143 7.29448 20.3157 7.42331 20.3894C7.54601 20.4631 7.68712 20.5 7.84663 20.5C8.07975 20.5 8.27914 20.4201 8.44479 20.2604L15.7423 13.1083C15.8282 13.0223 15.8926 12.927 15.9356 12.8226C15.9785 12.7243 16 12.6167 16 12.5Z" fill="#001A34" fill-opacity="0.5"/>
<path d="M16.1668 12.0731L16.1669 12.0731L16.1647 12.0681C16.1077 11.9377 16.0242 11.8202 15.9192 11.7151L15.9172 11.713L8.62064 4.57115C8.40858 4.35928 8.14605 4.25 7.84663 4.25C7.64801 4.25 7.46222 4.29618 7.2969 4.39491C7.13239 4.48956 7.00105 4.62056 6.90602 4.78471C6.80026 4.95029 6.75 5.13766 6.75 5.33871C6.75 5.63424 6.86038 5.89516 7.06837 6.11118L7.06829 6.11126L7.07353 6.11638L13.5906 12.5L7.07353 18.8836L7.07345 18.8835L7.06837 18.8888C6.86038 19.1048 6.75 19.3658 6.75 19.6613C6.75 19.8623 6.80026 20.0497 6.90602 20.2153C7.00104 20.3794 7.13236 20.5104 7.29684 20.6051C7.46218 20.7038 7.64799 20.75 7.84663 20.75C8.14355 20.75 8.40542 20.6457 8.61833 20.4403L8.61834 20.4403L8.61977 20.4389L15.9173 13.2868L15.9173 13.2869L15.9192 13.2849C16.026 13.178 16.1094 13.0564 16.1658 12.9201C16.2229 12.7883 16.25 12.6472 16.25 12.5C16.25 12.3518 16.2226 12.2088 16.1668 12.0731Z" stroke="#001A34" stroke-opacity="0.5" stroke-width="0.5"/>
</svg>