<svg xmlns="http://www.w3.org/2000/svg" width="25" height="24" viewBox="0 0 25 24" fill="none">
  <path d="M9.87808 11.9902C10.5041 12.6275 11.1498 13.3115 11.8255 13.9658C13.3012 15.3956 14.7936 16.8089 16.2771 18.2311C16.7523 18.687 16.789 19.2695 16.3773 19.6821C15.9413 20.1198 15.3013 20.1042 14.8194 19.6434L8.48649 13.5859C8.17966 13.2924 7.86663 13.0044 7.56652 12.7054C7.14501 12.2857 7.14191 11.7088 7.57272 11.2946C9.5325 9.413 11.4954 7.53405 13.4614 5.65777C13.9397 5.19993 14.4144 4.73807 14.901 4.28877C15.2078 4.00532 15.5787 3.92691 15.9775 4.06964C16.3644 4.20835 16.5927 4.4908 16.649 4.88934C16.6708 5.03527 16.6561 5.18417 16.6061 5.32339C16.5561 5.4626 16.4723 5.58801 16.3618 5.68893C14.6763 7.30521 12.9836 8.91394 11.2996 10.5342C10.8011 11.0187 10.3285 11.5293 9.87808 11.9902Z" fill="#005AFE"/>
</svg>
