<svg xmlns="http://www.w3.org/2000/svg" width="24" height="25" viewBox="0 0 24 25" fill="none">
<path d="M8 12.5C8 12.6167 8.02147 12.7273 8.06442 12.8318C8.10736 12.9301 8.17178 13.0223 8.25767 13.1083L15.5552 20.2512C15.7209 20.4171 15.9202 20.5 16.1534 20.5C16.3129 20.5 16.454 20.4631 16.5767 20.3894C16.7055 20.3157 16.8067 20.2143 16.8804 20.0853C16.9601 19.9624 17 19.821 17 19.6613C17 19.4339 16.9172 19.2343 16.7515 19.0622L10.0521 12.5L16.7515 5.93779C16.9172 5.76575 17 5.56605 17 5.33871C17 5.17896 16.9601 5.03763 16.8804 4.91475C16.8067 4.78571 16.7055 4.68433 16.5767 4.6106C16.454 4.53687 16.3129 4.5 16.1534 4.5C15.9202 4.5 15.7209 4.57988 15.5552 4.73963L8.25767 11.8917C8.17178 11.9777 8.10736 12.073 8.06442 12.1774C8.02147 12.2757 8 12.3833 8 12.5Z" fill="#001A34" fill-opacity="0.5"/>
<path d="M7.8332 12.9269L7.83314 12.9269L7.83532 12.9319C7.89229 13.0623 7.97576 13.1798 8.08076 13.2849L8.0828 13.287L15.3794 20.4288C15.5914 20.6407 15.854 20.75 16.1534 20.75C16.352 20.75 16.5378 20.7038 16.7031 20.6051C16.8676 20.5104 16.9989 20.3794 17.094 20.2153C17.1997 20.0497 17.25 19.8623 17.25 19.6613C17.25 19.3658 17.1396 19.1048 16.9316 18.8888L16.9317 18.8887L16.9265 18.8836L10.4094 12.5L16.9265 6.11638L16.9265 6.11646L16.9316 6.11118C17.1396 5.89516 17.25 5.63424 17.25 5.33871C17.25 5.13766 17.1997 4.95029 17.094 4.78471C16.999 4.62058 16.8676 4.48959 16.7032 4.39494C16.5378 4.29618 16.352 4.25 16.1534 4.25C15.8565 4.25 15.5946 4.35434 15.3817 4.55968L15.3817 4.55968L15.3802 4.56108L8.08268 11.7132L8.08267 11.7131L8.08076 11.7151C7.97401 11.822 7.89064 11.9436 7.83423 12.0799C7.77707 12.2117 7.75 12.3528 7.75 12.5C7.75 12.6482 7.77743 12.7912 7.8332 12.9269Z" stroke="#001A34" stroke-opacity="0.5" stroke-width="0.5"/>
</svg>