<svg xmlns="http://www.w3.org/2000/svg" width="24" height="25" viewBox="0 0 24 25" fill="none">
  <path d="M16.1668 12.0731L16.1669 12.0731L16.1647 12.0681C16.1077 11.9377 16.0242 11.8202 15.9192 11.7151L15.9172 11.713L8.62064 4.57115C8.40858 4.35928 8.14605 4.25 7.84663 4.25C7.64801 4.25 7.46222 4.29618 7.2969 4.39491C7.13239 4.48956 7.00105 4.62056 6.90602 4.78471C6.80026 4.95029 6.75 5.13766 6.75 5.33871C6.75 5.63424 6.86038 5.89516 7.06837 6.11118L7.06829 6.11126L7.07353 6.11638L13.5906 12.5L7.07353 18.8836L7.07345 18.8835L7.06837 18.8888C6.86038 19.1048 6.75 19.3658 6.75 19.6613C6.75 19.8623 6.80026 20.0497 6.90602 20.2153C7.00104 20.3794 7.13236 20.5104 7.29684 20.6051C7.46218 20.7038 7.64799 20.75 7.84663 20.75C8.14355 20.75 8.40542 20.6457 8.61833 20.4403L8.61834 20.4403L8.61977 20.4389L15.9173 13.2868L15.9173 13.2869L15.9192 13.2849C16.026 13.178 16.1094 13.0564 16.1658 12.9201C16.2229 12.7883 16.25 12.6472 16.25 12.5C16.25 12.3518 16.2226 12.2088 16.1668 12.0731Z" fill="#001A34" stroke="#001A34" stroke-width="0.5"/>
</svg>