<svg width="25" height="24" viewBox="0 0 25 24" fill="none" xmlns="http://www.w3.org/2000/svg">
<path d="M12.9269 16.1668L12.9269 16.1669L12.9319 16.1647C13.0623 16.1077 13.1798 16.0242 13.2849 15.9192L13.287 15.9172L20.4288 8.62064C20.6407 8.40858 20.75 8.14605 20.75 7.84662C20.75 7.64801 20.7038 7.46222 20.6051 7.29689C20.5104 7.13238 20.3794 7.00105 20.2153 6.90602C20.0497 6.80026 19.8623 6.75 19.6613 6.75C19.3658 6.75 19.1048 6.86038 18.8888 7.06837L18.8887 7.06829L18.8836 7.07353L12.5 13.5906L6.11638 7.07353L6.11646 7.07345L6.11118 7.06837C5.89516 6.86038 5.63424 6.75 5.33871 6.75C5.13766 6.75 4.95029 6.80026 4.78471 6.90602C4.62058 7.00104 4.48958 7.13236 4.39494 7.29684C4.29618 7.46218 4.25 7.64799 4.25 7.84663C4.25 8.14355 4.35434 8.40542 4.55968 8.61833L4.55968 8.61834L4.56108 8.61977L11.7132 15.9173L11.7131 15.9173L11.7151 15.9192C11.822 16.026 11.9436 16.1094 12.0799 16.1658C12.2117 16.2229 12.3528 16.25 12.5 16.25C12.6482 16.25 12.7912 16.2226 12.9269 16.1668Z" fill="#005AFE" stroke="#005AFE" stroke-width="0.5"/>
</svg>
