<svg width="24" height="24" viewBox="0 0 24 24" fill="none" xmlns="http://www.w3.org/2000/svg">
<g id="Icons 24">
<path id="Icon" d="M16.1668 11.5731L16.1669 11.5731L16.1647 11.5681C16.1077 11.4377 16.0242 11.3202 15.9192 11.2151L15.9172 11.213L8.62064 4.07115C8.40858 3.85928 8.14605 3.75 7.84663 3.75C7.64801 3.75 7.46222 3.79618 7.2969 3.89491C7.13239 3.98956 7.00105 4.12056 6.90602 4.28471C6.80026 4.45029 6.75 4.63766 6.75 4.83871C6.75 5.13424 6.86038 5.39516 7.06837 5.61118L7.06829 5.61126L7.07353 5.61638L13.5906 12L7.07353 18.3836L7.07345 18.3835L7.06837 18.3888C6.86038 18.6048 6.75 18.8658 6.75 19.1613C6.75 19.3623 6.80026 19.5497 6.90602 19.7153C7.00104 19.8794 7.13236 20.0104 7.29684 20.1051C7.46218 20.2038 7.64799 20.25 7.84663 20.25C8.14355 20.25 8.40542 20.1457 8.61833 19.9403L8.61834 19.9403L8.61977 19.9389L15.9173 12.7868L15.9173 12.7869L15.9192 12.7849C16.026 12.678 16.1094 12.5564 16.1658 12.4201C16.2229 12.2883 16.25 12.1472 16.25 12C16.25 11.8518 16.2226 11.7088 16.1668 11.5731Z" fill="#757F8A" stroke="#757F8A" stroke-width="0.5"/>
</g>
</svg>
