<svg width="24" height="24" viewBox="0 0 24 24" fill="none" xmlns="http://www.w3.org/2000/svg">
<path d="M11.7154 14.078C11.0781 13.4519 10.3941 12.8062 9.73976 12.1306C8.30994 10.6548 6.89671 9.1625 5.47443 7.67897C5.01859 7.20374 4.43611 7.16707 4.0235 7.57876C3.58576 8.01472 3.60134 8.65473 4.0622 9.13667L10.1197 15.4696C10.4132 15.7764 10.7012 16.0894 11.0002 16.3895C11.4199 16.811 11.9968 16.8141 12.4109 16.3833C14.2926 14.4236 16.1715 12.4607 18.0478 10.4947C18.5056 10.0164 18.9675 9.54164 19.4168 9.05505C19.7003 8.74822 19.7787 8.37734 19.6359 7.97857C19.4972 7.59167 19.2148 7.36336 18.8162 7.30705C18.6703 7.28521 18.5214 7.29991 18.3822 7.34992C18.243 7.39992 18.1176 7.48374 18.0166 7.59425C16.4004 9.27975 14.7916 10.9725 13.1713 12.6564C12.6868 13.1549 12.1762 13.6275 11.7154 14.078Z" fill="#005AFE"/>
</svg>
