<svg width="16" height="16" viewBox="0 0 16 16" fill="none" xmlns="http://www.w3.org/2000/svg">
<path d="M7.50005 13.5C7.43438 13.5001 7.36935 13.4872 7.30868 13.4621C7.24802 13.4369 7.19292 13.4 7.14655 13.3535L2.14655 8.35353C2.10009 8.30713 2.06323 8.25202 2.03809 8.19137C2.01294 8.13071 2 8.06569 2 8.00003C2 7.93437 2.01294 7.86935 2.03809 7.80869C2.06323 7.74804 2.10009 7.69293 2.14655 7.64653L7.14655 2.64653C7.34192 2.45116 7.6583 2.45116 7.85355 2.64653C8.0488 2.84191 8.04892 3.15828 7.85355 3.35353L3.20705 8.00003L7.85355 12.6465C7.90001 12.6929 7.93686 12.748 7.96201 12.8087C7.98715 12.8694 8.0001 12.9344 8.0001 13C8.0001 13.0657 7.98715 13.1307 7.96201 13.1914C7.93686 13.252 7.90001 13.3071 7.85355 13.3535C7.80718 13.4 7.75208 13.4369 7.69141 13.4621C7.63075 13.4872 7.56572 13.5001 7.50005 13.5Z" fill="currentColor" fill-opacity="0.5"/>
</svg>
