<svg width="24" height="24" viewBox="0 0 24 24" fill="none" xmlns="http://www.w3.org/2000/svg">
<path d="M12.5 16.5C12.6167 16.5 12.7273 16.4785 12.8318 16.4356C12.9301 16.3926 13.0223 16.3282 13.1083 16.2423L20.2512 8.94479C20.4171 8.77914 20.5 8.57975 20.5 8.34663C20.5 8.18712 20.4631 8.04601 20.3894 7.92331C20.3157 7.79448 20.2143 7.69325 20.0853 7.61963C19.9624 7.53988 19.821 7.5 19.6613 7.5C19.4339 7.5 19.2343 7.58282 19.0622 7.74847L12.5 14.4479L5.93779 7.74847C5.76575 7.58282 5.56605 7.5 5.33871 7.5C5.17896 7.5 5.03763 7.53988 4.91475 7.61963C4.78571 7.69325 4.68433 7.79448 4.6106 7.92331C4.53687 8.04601 4.5 8.18712 4.5 8.34663C4.5 8.57975 4.57988 8.77914 4.73963 8.94479L11.8917 16.2423C11.9777 16.3282 12.073 16.3926 12.1774 16.4356C12.2757 16.4785 12.3833 16.5 12.5 16.5Z" fill="#001A34" fill-opacity="0.5"/>
<path d="M12.9269 16.6668L12.9269 16.6669L12.9319 16.6647C13.0623 16.6077 13.1798 16.5242 13.2849 16.4192L13.287 16.4172L20.4288 9.12064C20.6407 8.90858 20.75 8.64605 20.75 8.34663C20.75 8.14801 20.7038 7.96222 20.6051 7.7969C20.5104 7.63239 20.3794 7.50105 20.2153 7.40602C20.0497 7.30026 19.8623 7.25 19.6613 7.25C19.3658 7.25 19.1048 7.36038 18.8888 7.56837L18.8887 7.56829L18.8836 7.57353L12.5 14.0906L6.11638 7.57353L6.11646 7.57345L6.11118 7.56837C5.89516 7.36038 5.63424 7.25 5.33871 7.25C5.13766 7.25 4.95029 7.30026 4.78471 7.40602C4.62058 7.50104 4.48959 7.63236 4.39494 7.79684C4.29618 7.96218 4.25 8.14799 4.25 8.34663C4.25 8.64355 4.35434 8.90542 4.55968 9.11833L4.55968 9.11834L4.56108 9.11977L11.7132 16.4173L11.7131 16.4173L11.7151 16.4192C11.822 16.526 11.9436 16.6094 12.0799 16.6658C12.2117 16.7229 12.3528 16.75 12.5 16.75C12.6482 16.75 12.7912 16.7226 12.9269 16.6668Z" stroke="#001A34" stroke-opacity="0.5" stroke-width="0.5"/>
</svg>
