<svg width="32" height="32" viewBox="0 0 32 32" fill="none" xmlns="http://www.w3.org/2000/svg">
<mask id="path-1-outside-1_69770_28246" maskUnits="userSpaceOnUse" x="2" y="0" width="28" height="32" fill="black">
<rect fill="white" x="2" width="28" height="32"/>
<path d="M26.934 9.00719C26.9112 8.83302 26.8254 8.67323 26.6929 8.55793C26.5604 8.44263 26.3902 8.37981 26.2146 8.38129H22.2506V6.94245C22.2506 5.36641 21.6245 3.85493 20.5101 2.7405C19.3956 1.62608 17.8841 1 16.3081 1C14.7321 1 13.2206 1.62608 12.1062 2.7405C10.9917 3.85493 10.3657 5.36641 10.3657 6.94245V8.38129H6.39444C6.21879 8.37981 6.04866 8.44263 5.91614 8.55793C5.78361 8.67323 5.69785 8.83302 5.67502 9.00719L3.00595 29.2518C2.99237 29.3567 3.00209 29.4633 3.03442 29.564C3.06676 29.6648 3.1209 29.7571 3.19301 29.8345C3.49516 30.1583 3.8261 30.4892 4.18581 30.8129C4.31775 30.9329 4.48953 30.9995 4.66782 31H27.9484C28.1267 30.9995 28.2985 30.9329 28.4304 30.8129C28.7829 30.4892 29.1498 30.1583 29.4232 29.8345C29.4953 29.7571 29.5495 29.6648 29.5818 29.564C29.6141 29.4633 29.6239 29.3567 29.6103 29.2518L26.934 9.00719ZM11.8261 6.92806C11.8261 5.73363 12.3006 4.58812 13.1452 3.74353C13.9898 2.89895 15.1353 2.42446 16.3297 2.42446C17.5241 2.42446 18.6696 2.89895 19.5142 3.74353C20.3588 4.58812 20.8333 5.73363 20.8333 6.92806V8.36691H11.8045L11.8261 6.92806ZM27.6534 29.5611H4.9484L4.47358 29.1007L7.02034 9.82014H25.5887L28.1354 29.1007L27.6534 29.5611Z"/>
</mask>
<path d="M26.934 9.00719C26.9112 8.83302 26.8254 8.67323 26.6929 8.55793C26.5604 8.44263 26.3902 8.37981 26.2146 8.38129H22.2506V6.94245C22.2506 5.36641 21.6245 3.85493 20.5101 2.7405C19.3956 1.62608 17.8841 1 16.3081 1C14.7321 1 13.2206 1.62608 12.1062 2.7405C10.9917 3.85493 10.3657 5.36641 10.3657 6.94245V8.38129H6.39444C6.21879 8.37981 6.04866 8.44263 5.91614 8.55793C5.78361 8.67323 5.69785 8.83302 5.67502 9.00719L3.00595 29.2518C2.99237 29.3567 3.00209 29.4633 3.03442 29.564C3.06676 29.6648 3.1209 29.7571 3.19301 29.8345C3.49516 30.1583 3.8261 30.4892 4.18581 30.8129C4.31775 30.9329 4.48953 30.9995 4.66782 31H27.9484C28.1267 30.9995 28.2985 30.9329 28.4304 30.8129C28.7829 30.4892 29.1498 30.1583 29.4232 29.8345C29.4953 29.7571 29.5495 29.6648 29.5818 29.564C29.6141 29.4633 29.6239 29.3567 29.6103 29.2518L26.934 9.00719ZM11.8261 6.92806C11.8261 5.73363 12.3006 4.58812 13.1452 3.74353C13.9898 2.89895 15.1353 2.42446 16.3297 2.42446C17.5241 2.42446 18.6696 2.89895 19.5142 3.74353C20.3588 4.58812 20.8333 5.73363 20.8333 6.92806V8.36691H11.8045L11.8261 6.92806ZM27.6534 29.5611H4.9484L4.47358 29.1007L7.02034 9.82014H25.5887L28.1354 29.1007L27.6534 29.5611Z" fill="#005AFE"/>
<path d="M26.934 9.00719C26.9112 8.83302 26.8254 8.67323 26.6929 8.55793C26.5604 8.44263 26.3902 8.37981 26.2146 8.38129H22.2506V6.94245C22.2506 5.36641 21.6245 3.85493 20.5101 2.7405C19.3956 1.62608 17.8841 1 16.3081 1C14.7321 1 13.2206 1.62608 12.1062 2.7405C10.9917 3.85493 10.3657 5.36641 10.3657 6.94245V8.38129H6.39444C6.21879 8.37981 6.04866 8.44263 5.91614 8.55793C5.78361 8.67323 5.69785 8.83302 5.67502 9.00719L3.00595 29.2518C2.99237 29.3567 3.00209 29.4633 3.03442 29.564C3.06676 29.6648 3.1209 29.7571 3.19301 29.8345C3.49516 30.1583 3.8261 30.4892 4.18581 30.8129C4.31775 30.9329 4.48953 30.9995 4.66782 31H27.9484C28.1267 30.9995 28.2985 30.9329 28.4304 30.8129C28.7829 30.4892 29.1498 30.1583 29.4232 29.8345C29.4953 29.7571 29.5495 29.6648 29.5818 29.564C29.6141 29.4633 29.6239 29.3567 29.6103 29.2518L26.934 9.00719ZM11.8261 6.92806C11.8261 5.73363 12.3006 4.58812 13.1452 3.74353C13.9898 2.89895 15.1353 2.42446 16.3297 2.42446C17.5241 2.42446 18.6696 2.89895 19.5142 3.74353C20.3588 4.58812 20.8333 5.73363 20.8333 6.92806V8.36691H11.8045L11.8261 6.92806ZM27.6534 29.5611H4.9484L4.47358 29.1007L7.02034 9.82014H25.5887L28.1354 29.1007L27.6534 29.5611Z" stroke="#005AFE" stroke-width="0.4" mask="url(#path-1-outside-1_69770_28246)"/>
</svg>
