<svg width="32" height="32" viewBox="0 0 32 32" fill="none" xmlns="http://www.w3.org/2000/svg">
<path d="M6.66667 12.0002V22.6669M12.6667 12.0002V22.6669M19.3333 12.0002V22.6669M25.3333 12.0002V22.6669M4 24.8002L4 25.8669C4 26.6136 4 26.987 4.14532 27.2722C4.27316 27.5231 4.47713 27.727 4.72801 27.8549C5.01323 28.0002 5.3866 28.0002 6.13333 28.0002H25.8667C26.6134 28.0002 26.9868 28.0002 27.272 27.8549C27.5229 27.727 27.7268 27.5231 27.8547 27.2722C28 26.987 28 26.6136 28 25.8669V24.8002C28 24.0535 28 23.6801 27.8547 23.3949C27.7268 23.144 27.5229 22.94 27.272 22.8122C26.9868 22.6669 26.6134 22.6669 25.8667 22.6669H6.13333C5.3866 22.6669 5.01323 22.6669 4.72801 22.8122C4.47713 22.94 4.27316 23.144 4.14532 23.3949C4 23.6801 4 24.0535 4 24.8002ZM15.5372 4.10303L5.67055 6.29562C5.07447 6.42809 4.77643 6.49432 4.55395 6.65459C4.35772 6.79597 4.20364 6.98805 4.1082 7.21028C4 7.46222 4 7.76753 4 8.37816L4 9.86685C4 10.6136 4 10.987 4.14532 11.2722C4.27316 11.5231 4.47713 11.727 4.72801 11.8549C5.01323 12.0002 5.3866 12.0002 6.13333 12.0002H25.8667C26.6134 12.0002 26.9868 12.0002 27.272 11.8549C27.5229 11.727 27.7268 11.5231 27.8547 11.2722C28 10.987 28 10.6136 28 9.86686V8.37816C28 7.76753 28 7.46222 27.8918 7.21028C27.7964 6.98805 27.6423 6.79597 27.446 6.65459C27.2236 6.49432 26.9255 6.42809 26.3295 6.29562L16.4628 4.10303C16.2901 4.06465 16.2037 4.04546 16.1165 4.03781C16.039 4.03102 15.961 4.03102 15.8835 4.03781C15.7963 4.04546 15.7099 4.06465 15.5372 4.10303Z" stroke="#005AFE" stroke-width="2" stroke-linecap="round" stroke-linejoin="round"/>
</svg>
