<svg width="65" height="64" viewBox="0 0 65 64" fill="none" xmlns="http://www.w3.org/2000/svg">
<path d="M32.667 64C50.3401 64 64.667 49.6731 64.667 32C64.667 14.3269 50.3401 0 32.667 0C14.9939 0 0.666992 14.3269 0.666992 32C0.666992 49.6731 14.9939 64 32.667 64Z" fill="#005AFE"/>
<path d="M35.4011 36.3643C34.4891 36.9723 33.4297 37.2937 32.3374 37.2937C31.2452 37.2937 30.1858 36.9723 29.2738 36.3643L14.2519 26.3494C14.169 26.2939 14.0876 26.2362 14.0078 26.1763V42.5868C14.0078 44.4683 15.5347 45.9616 17.3825 45.9616H47.2922C49.1737 45.9616 50.667 44.4347 50.667 42.5868V26.1763C50.587 26.2363 50.5055 26.2941 50.4224 26.3497L35.4011 36.3643Z" fill="#005AFE"/>
<path d="M15.4434 24.5626L30.4653 34.5776C31.0339 34.9568 31.6856 35.1463 32.3373 35.1463C32.9891 35.1463 33.6409 34.9567 34.2095 34.5776L49.2314 24.5626C50.1304 23.9637 50.667 22.9613 50.667 21.8794C50.667 20.0192 49.1536 18.5059 47.2934 18.5059H17.3814C15.5212 18.5059 14.0078 20.0193 14.0078 21.8812C14.0073 22.4119 14.1381 22.9345 14.3885 23.4024C14.639 23.8703 15.0014 24.2689 15.4434 24.5626Z" fill="#005AFE"/>
<path d="M26.5007 41.4998H38.834V38.3332H26.5007V41.4998ZM26.5007 35.1665H38.834V31.9998H26.5007V35.1665ZM23.4173 47.8332C22.5694 47.8332 21.8435 47.5231 21.2397 46.903C20.6359 46.2828 20.334 45.5373 20.334 44.6665V19.3332C20.334 18.4623 20.6359 17.7169 21.2397 17.0967C21.8435 16.4766 22.5694 16.1665 23.4173 16.1665H35.7507L45.0007 25.6665V44.6665C45.0007 45.5373 44.6987 46.2828 44.0949 46.903C43.4911 47.5231 42.7652 47.8332 41.9173 47.8332H23.4173ZM34.209 27.2498V19.3332H23.4173V44.6665H41.9173V27.2498H34.209Z" fill="white"/>
</svg>
