<svg width="16" height="16" viewBox="0 0 16 16" fill="none" xmlns="http://www.w3.org/2000/svg">
<path d="M7.99992 14.0799C9.20243 14.0799 10.3779 13.7233 11.3778 13.0553C12.3776 12.3872 13.1569 11.4376 13.6171 10.3266C14.0773 9.21566 14.1977 7.99318 13.9631 6.81378C13.7285 5.63437 13.1494 4.55102 12.2991 3.70072C11.4488 2.85041 10.3655 2.27135 9.18607 2.03675C8.00667 1.80215 6.78418 1.92256 5.67321 2.38274C4.56223 2.84292 3.61266 3.62221 2.94459 4.62206C2.27651 5.62191 1.91992 6.79741 1.91992 7.99992C1.92174 9.61188 2.5629 11.1573 3.70272 12.2971C4.84255 13.4369 6.38796 14.0781 7.99992 14.0799ZM7.99992 2.55992C9.07585 2.55992 10.1276 2.87898 11.0222 3.47673C11.9168 4.07449 12.6141 4.9241 13.0258 5.91813C13.4376 6.91216 13.5453 8.00596 13.3354 9.06122C13.1255 10.1165 12.6074 11.0858 11.8466 11.8466C11.0858 12.6074 10.1165 13.1255 9.06121 13.3354C8.00596 13.5453 6.91215 13.4376 5.91812 13.0258C4.92409 12.6141 4.07448 11.9168 3.47673 11.0222C2.87897 10.1276 2.55992 9.07585 2.55992 7.99992C2.56155 6.55765 3.13522 5.17491 4.15506 4.15507C5.17491 3.13522 6.55764 2.56156 7.99992 2.55992Z" fill="url(#paint0_linear_69615_13771)"/>
<path d="M5.27519 11.1461C5.26513 11.205 5.27172 11.2654 5.2942 11.3207C5.31668 11.3759 5.35417 11.4238 5.40243 11.4589C5.45069 11.494 5.50779 11.5149 5.5673 11.5192C5.62681 11.5236 5.68635 11.5112 5.73919 11.4835L7.99935 10.2954L10.2592 11.4835C10.312 11.5112 10.3716 11.5236 10.4311 11.5192C10.4906 11.5149 10.5477 11.494 10.5959 11.4589C10.6442 11.4238 10.6817 11.3759 10.7042 11.3207C10.7267 11.2654 10.7332 11.205 10.7232 11.1461L10.2912 8.62974L12.1194 6.84766C12.1622 6.80598 12.1924 6.75318 12.2067 6.69521C12.221 6.63725 12.2188 6.57645 12.2003 6.51967C12.1819 6.46289 12.1479 6.41241 12.1023 6.37393C12.0566 6.33544 12.0011 6.3105 11.9421 6.3019L9.41551 5.9347L8.28559 3.64518C8.25916 3.59164 8.21829 3.54655 8.16757 3.51503C8.11686 3.4835 8.05834 3.4668 7.99863 3.4668C7.93892 3.4668 7.8804 3.4835 7.82968 3.51503C7.77897 3.54655 7.73809 3.59164 7.71167 3.64518L6.58175 5.9347L4.05519 6.3019C3.99611 6.3105 3.94062 6.33544 3.89497 6.37393C3.84933 6.41241 3.81537 6.46289 3.79692 6.51967C3.77847 6.57645 3.77627 6.63725 3.79056 6.69521C3.80486 6.75318 3.83509 6.80598 3.87783 6.84766L5.70607 8.62974L5.27519 11.1461ZM4.78959 6.84214L6.84103 6.54406C6.89236 6.5366 6.94111 6.51676 6.98307 6.48627C7.02503 6.45578 7.05895 6.41554 7.08191 6.36902L7.99935 4.5099L8.91679 6.36878C8.93974 6.4153 8.97367 6.45554 9.01563 6.48603C9.05759 6.51652 9.10634 6.53636 9.15767 6.54382L11.2091 6.8419L9.72471 8.28886C9.68757 8.32508 9.65979 8.36978 9.64376 8.41911C9.62774 8.46845 9.62394 8.52094 9.63271 8.57206L9.98311 10.6153L8.14823 9.65062C8.10231 9.62649 8.05122 9.61388 7.99935 9.61388C7.94748 9.61388 7.89638 9.62649 7.85047 9.65062L6.01535 10.6153L6.36575 8.57206C6.37452 8.52094 6.37072 8.46845 6.3547 8.41911C6.33867 8.36978 6.31089 8.32508 6.27375 8.28886L4.78959 6.84214Z" fill="url(#paint1_linear_69615_13771)"/>
<path d="M8 16C9.58225 16 11.129 15.5308 12.4446 14.6518C13.7602 13.7727 14.7855 12.5233 15.391 11.0615C15.9965 9.59966 16.155 7.99113 15.8463 6.43928C15.5376 4.88743 14.7757 3.46197 13.6569 2.34315C12.538 1.22433 11.1126 0.462403 9.56072 0.153721C8.00887 -0.15496 6.40034 0.00346626 4.93853 0.608967C3.47672 1.21447 2.22729 2.23985 1.34824 3.55544C0.469192 4.87103 0 6.41775 0 8C0.00239267 10.121 0.846016 12.1544 2.34579 13.6542C3.84556 15.154 5.879 15.9976 8 16ZM8 0.640004C9.45567 0.640004 10.8786 1.07166 12.089 1.88039C13.2993 2.68911 14.2427 3.83859 14.7998 5.18345C15.3568 6.52832 15.5026 8.00817 15.2186 9.43587C14.9346 10.8636 14.2336 12.175 13.2043 13.2043C12.175 14.2336 10.8636 14.9346 9.43586 15.2186C8.00816 15.5026 6.52831 15.3568 5.18345 14.7998C3.83858 14.2427 2.68911 13.2993 1.88038 12.089C1.07166 10.8787 0.64 9.45567 0.64 8C0.642117 6.04866 1.41822 4.17785 2.79803 2.79804C4.17784 1.41823 6.04866 0.642121 8 0.640004Z" fill="url(#paint2_linear_69615_13771)"/>
<defs>
<linearGradient id="paint0_linear_69615_13771" x1="7.99992" y1="1.91992" x2="7.99992" y2="14.0799" gradientUnits="userSpaceOnUse">
<stop stop-color="#005AFE"/>
<stop offset="1" stop-color="#0647BD"/>
</linearGradient>
<linearGradient id="paint1_linear_69615_13771" x1="7.99863" y1="3.4668" x2="7.99863" y2="11.5201" gradientUnits="userSpaceOnUse">
<stop stop-color="#005AFE"/>
<stop offset="1" stop-color="#0647BD"/>
</linearGradient>
<linearGradient id="paint2_linear_69615_13771" x1="8" y1="0" x2="8" y2="16" gradientUnits="userSpaceOnUse">
<stop stop-color="#005AFE"/>
<stop offset="1" stop-color="#0647BD"/>
</linearGradient>
</defs>
</svg>
