<svg width="32" height="32" viewBox="0 0 32 32" fill="none" xmlns="http://www.w3.org/2000/svg">
<mask id="mask0_1555_9461" style="mask-type:alpha" maskUnits="userSpaceOnUse" x="0" y="0" width="32" height="32">
<circle cx="16" cy="16" r="16" fill="#D9D9D9"/>
</mask>
<g mask="url(#mask0_1555_9461)">
<path d="M28.9524 0H3.04762C1.36447 0 0 1.91025 0 4.26666V27.7333C0 30.0897 1.36447 31.9999 3.04762 31.9999H28.9524C30.6355 31.9999 32 30.0897 32 27.7333V4.26666C32 1.91025 30.6355 0 28.9524 0Z" fill="#F93939"/>
<path fill-rule="evenodd" clip-rule="evenodd" d="M4.57143 0L7.61905 3.19999L4.57143 6.39998V0ZM4.57143 6.39998L7.61905 9.59997L4.57143 12.8V6.39998ZM4.57143 12.8L7.61905 16L4.57143 19.1999V12.8ZM4.57143 19.1999L7.61905 22.3999L4.57143 25.5999V19.1999ZM4.57143 25.5999L7.61905 28.7999L4.57143 31.9999V25.5999ZM3.04762 0L0 3.19999L3.04762 6.39998V0ZM3.04762 6.39998L0 9.59997L3.04762 12.8V6.39998ZM3.04762 12.8L0 16L3.04762 19.1999V12.8ZM3.04762 19.1999L0 22.3999L3.04762 25.5999V19.1999ZM3.04762 25.5999L0 28.7999L3.04762 31.9999V25.5999ZM3.04762 0H4.57143V4.26666H3.04762V0ZM3.04762 27.7333H4.57143V31.9999H3.04762V27.7333ZM3.04762 10.6666H4.57143V14.9333H3.04762V10.6666ZM3.04762 6.39998H4.57143V8.53331H3.04762V6.39998ZM3.04762 23.4666H4.57143V25.5999H3.04762V23.4666ZM3.04762 17.0666H4.57143V21.3333H3.04762V17.0666Z" fill="white"/>
<path fill-rule="evenodd" clip-rule="evenodd" d="M7.61914 22.0542H32.0001V32.0003H7.61914V22.0542Z" fill="#249F58"/>
</g>
</svg>
