<svg width="48" height="48" viewBox="0 0 48 48" fill="none" xmlns="http://www.w3.org/2000/svg">
<g clip-path="url(#clip0_7050_2861)">
<path d="M20.544 6H8.9016C8.13224 6.00064 7.39458 6.30654 6.85056 6.85056C6.30654 7.39458 6.00064 8.13224 6 8.9016V20.544C6.00127 21.3129 6.30746 22.05 6.85141 22.5935C7.39536 23.137 8.13266 23.4426 8.9016 23.4432H20.544C21.3127 23.4426 22.0498 23.1369 22.5933 22.5933C23.1369 22.0498 23.4426 21.3127 23.4432 20.544V8.9016C23.4426 8.13266 23.137 7.39536 22.5935 6.85141C22.05 6.30746 21.3129 6.00127 20.544 6ZM18.6696 15.4152H15.4128V18.6696C15.4024 18.8462 15.3249 19.0121 15.1962 19.1335C15.0675 19.2548 14.8973 19.3224 14.7204 19.3224C14.5435 19.3224 14.3733 19.2548 14.2446 19.1335C14.1159 19.0121 14.0384 18.8462 14.028 18.6696V15.4152H10.7736C10.597 15.4048 10.4311 15.3273 10.3097 15.1986C10.1884 15.0699 10.1208 14.8997 10.1208 14.7228C10.1208 14.5459 10.1884 14.3757 10.3097 14.247C10.4311 14.1183 10.597 14.0408 10.7736 14.0304H14.028V10.7736C14.0384 10.597 14.1159 10.4311 14.2446 10.3097C14.3733 10.1884 14.5435 10.1208 14.7204 10.1208C14.8973 10.1208 15.0675 10.1884 15.1962 10.3097C15.3249 10.4311 15.4024 10.597 15.4128 10.7736V14.0304H18.6696C18.8462 14.0408 19.0121 14.1183 19.1335 14.247C19.2548 14.3757 19.3224 14.5459 19.3224 14.7228C19.3224 14.8997 19.2548 15.0699 19.1335 15.1986C19.0121 15.3273 18.8462 15.4048 18.6696 15.4152ZM39.0984 6H27.456C26.6871 6.00127 25.95 6.30746 25.4065 6.85141C24.863 7.39536 24.5574 8.13266 24.5568 8.9016V20.544C24.5574 21.3127 24.8631 22.0498 25.4067 22.5933C25.9502 23.1369 26.6873 23.4426 27.456 23.4432H39.0984C39.8673 23.4426 40.6046 23.137 41.1486 22.5935C41.6925 22.05 41.9987 21.3129 42 20.544V8.9016C41.9994 8.13224 41.6935 7.39458 41.1494 6.85056C40.6054 6.30654 39.8678 6.00064 39.0984 6ZM37.2264 15.4152H29.3304C29.1538 15.4048 28.9879 15.3273 28.8665 15.1986C28.7452 15.0699 28.6776 14.8997 28.6776 14.7228C28.6776 14.5459 28.7452 14.3757 28.8665 14.247C28.9879 14.1183 29.1538 14.0408 29.3304 14.0304H37.2264C37.403 14.0408 37.5689 14.1183 37.6903 14.247C37.8116 14.3757 37.8792 14.5459 37.8792 14.7228C37.8792 14.8997 37.8116 15.0699 37.6903 15.1986C37.5689 15.3273 37.403 15.4048 37.2264 15.4152ZM39.0984 24.5568H27.456C26.6873 24.5574 25.9502 24.8631 25.4067 25.4067C24.8631 25.9502 24.5574 26.6873 24.5568 27.456V39.0984C24.5574 39.8673 24.863 40.6046 25.4065 41.1486C25.95 41.6925 26.6871 41.9987 27.456 42H39.0984C39.8678 41.9994 40.6054 41.6935 41.1494 41.1494C41.6935 40.6054 41.9994 39.8678 42 39.0984V27.456C41.9987 26.6871 41.6925 25.95 41.1486 25.4065C40.6046 24.863 39.8673 24.5574 39.0984 24.5568ZM28.6392 35.22C28.6389 35.1291 28.6565 35.0391 28.6912 34.9551C28.7258 34.8711 28.7767 34.7948 28.8409 34.7305C28.9052 34.6663 28.9815 34.6154 29.0655 34.5808C29.1495 34.5461 29.2395 34.5285 29.3304 34.5288H37.2264C37.4097 34.5288 37.5855 34.6016 37.7152 34.7312C37.8448 34.8609 37.9176 35.0367 37.9176 35.22C37.9176 35.4033 37.8448 35.5791 37.7152 35.7088C37.5855 35.8384 37.4097 35.9112 37.2264 35.9112H29.3304C29.1471 35.9112 28.9713 35.8384 28.8416 35.7088C28.712 35.5791 28.6392 35.4033 28.6392 35.22ZM37.2264 32.0304H29.3304C29.1538 32.02 28.9879 31.9425 28.8665 31.8138C28.7452 31.6851 28.6776 31.5149 28.6776 31.338C28.6776 31.1611 28.7452 30.9909 28.8665 30.8622C28.9879 30.7335 29.1538 30.656 29.3304 30.6456H37.2264C37.403 30.656 37.5689 30.7335 37.6903 30.8622C37.8116 30.9909 37.8792 31.1611 37.8792 31.338C37.8792 31.5149 37.8116 31.6851 37.6903 31.8138C37.5689 31.9425 37.403 32.02 37.2264 32.0304ZM20.544 24.5568H8.9016C8.13266 24.5574 7.39536 24.863 6.85141 25.4065C6.30746 25.95 6.00127 26.6871 6 27.456V39.0984C6.00064 39.8678 6.30654 40.6054 6.85056 41.1494C7.39458 41.6935 8.13224 41.9994 8.9016 42H20.544C21.3129 41.9987 22.05 41.6925 22.5935 41.1486C23.137 40.6046 23.4426 39.8673 23.4432 39.0984V27.456C23.4426 26.6873 23.1369 25.9502 22.5933 25.4067C22.0498 24.8631 21.3127 24.5574 20.544 24.5568ZM18 35.58C18.1234 35.7112 18.1909 35.8853 18.1883 36.0654C18.1856 36.2455 18.113 36.4175 17.9858 36.545C17.8586 36.6726 17.6868 36.7456 17.5067 36.7487C17.3266 36.7518 17.1523 36.6847 17.0208 36.5616L14.7192 34.2576L12.4176 36.5616C12.3539 36.6293 12.2773 36.6835 12.1922 36.721C12.1072 36.7585 12.0155 36.7786 11.9226 36.7799C11.8296 36.7813 11.7374 36.764 11.6513 36.729C11.5651 36.694 11.4869 36.6421 11.4213 36.5763C11.3557 36.5104 11.3039 36.4321 11.2691 36.3459C11.2344 36.2597 11.2173 36.1674 11.2189 36.0745C11.2205 35.9816 11.2407 35.8899 11.2784 35.805C11.3161 35.72 11.3705 35.6435 11.4384 35.58L13.74 33.2784L11.4384 30.9768C11.3086 30.847 11.2356 30.6708 11.2356 30.4872C11.2356 30.3036 11.3086 30.1275 11.4384 29.9976C11.5683 29.8678 11.7444 29.7948 11.928 29.7948C12.1116 29.7948 12.2877 29.8678 12.4176 29.9976L14.7192 32.3016L17.0208 29.9976C17.1506 29.8678 17.3268 29.7948 17.5104 29.7948C17.694 29.7948 17.8701 29.8678 18 29.9976C18.1298 30.1275 18.2028 30.3036 18.2028 30.4872C18.2028 30.6708 18.1298 30.847 18 30.9768L15.6984 33.2784L18 35.58Z" fill="#005AFE"/>
</g>
<defs>
<clipPath id="clip0_7050_2861">
<rect width="36" height="36" fill="white" transform="translate(6 6)"/>
</clipPath>
</defs>
</svg>
