<svg width="48" height="48" viewBox="0 0 48 48" fill="none" xmlns="http://www.w3.org/2000/svg">
<g clip-path="url(#clip0_30779_4817)">
<path d="M1.40416 36.6558H38.1558C38.4855 36.6558 38.804 36.5405 39.0567 36.3303C39.4097 36.0347 47.462 29.1077 47.9529 14.1548H8.48242C7.9933 27.728 0.57753 34.1078 0.500464 34.1714C0.0486624 34.5532 -0.117564 35.1768 0.0856953 35.7316C0.287548 36.285 0.813603 36.6558 1.40416 36.6558ZM46.5936 5.71692H39.562V4.31061C39.562 3.52307 38.9433 2.9043 38.1557 2.9043C37.3682 2.9043 36.7494 3.52307 36.7494 4.31061V5.71692H29.6241V4.31061C29.6241 3.52307 29.0053 2.9043 28.2178 2.9043C27.4302 2.9043 26.8115 3.52307 26.8115 4.31061V5.71692H19.7799V4.31061C19.7799 3.52307 19.1611 2.9043 18.3736 2.9043C17.586 2.9043 16.9673 3.52307 16.9673 4.31061V5.71692H9.9357C9.14816 5.71692 8.52939 6.3357 8.52939 7.12324V11.3422H47.9999V7.12324C47.9999 6.3357 47.3811 5.71692 46.5936 5.71692Z" fill="#005AFE"/>
<path d="M40.8625 38.4873C40.0989 39.1231 39.1403 39.4693 38.1556 39.4693H8.5293V43.6882C8.5293 44.4655 9.15829 45.0945 9.93561 45.0945H46.5935C47.3708 45.0945 47.9998 44.4655 47.9998 43.6882V27.9238C45.2885 34.5758 41.5049 37.9496 40.8625 38.4873Z" fill="#005AFE"/>
</g>
<defs>
<clipPath id="clip0_30779_4817">
<rect width="48" height="48" fill="white"/>
</clipPath>
</defs>
</svg>
