<svg width="32" height="32" viewBox="0 0 32 32" fill="none" xmlns="http://www.w3.org/2000/svg">
<g clip-path="url(#clip0_68584_11516)">
<path d="M6.52071 21.2714C9.67695 25.0443 13.4764 28.0149 17.8129 30.1169C19.4639 30.8993 21.672 31.8276 24.132 31.9867C24.2845 31.9934 24.4304 32 24.5829 32C26.2339 32 27.5601 31.4298 28.6409 30.2561C28.6475 30.2495 28.6608 30.2362 28.6674 30.223C29.052 29.7588 29.4896 29.3411 29.9472 28.8968C30.2588 28.5984 30.5771 28.2868 30.8821 27.9685C32.2944 26.4965 32.2944 24.6266 30.8688 23.201L26.8837 19.2159C26.2074 18.5131 25.3985 18.1417 24.5497 18.1417C23.701 18.1417 22.8854 18.5131 22.1892 19.2093L19.8154 21.5831C19.5966 21.4571 19.3711 21.3444 19.1589 21.2383C18.8937 21.1057 18.6484 20.9797 18.4295 20.8404C16.2679 19.4679 14.3052 17.6776 12.4287 15.3767C11.4805 14.1765 10.844 13.1687 10.3997 12.1409C11.023 11.5773 11.6065 10.9872 12.1701 10.4103C12.369 10.2047 12.5746 9.99917 12.7801 9.79362C13.4963 9.0775 13.8808 8.24865 13.8808 7.40655C13.8808 6.56444 13.5029 5.7356 12.7801 5.01948L10.8042 3.04351C10.5721 2.81144 10.3533 2.58599 10.1278 2.35392C9.69021 1.90303 9.23269 1.43887 8.7818 1.02114C8.09883 0.35143 7.29651 0 6.44778 0C5.60567 0 4.79672 0.35143 4.08723 1.02777L1.60733 3.50767C0.705546 4.40945 0.194978 5.50352 0.0888861 6.77C-0.0370981 8.35474 0.254655 10.039 1.01056 12.0746C2.17094 15.2242 3.92146 18.1484 6.52071 21.2714ZM1.70679 6.90924C1.78636 6.02735 2.12453 5.29134 2.76108 4.65479L5.22772 2.18815C5.6123 1.81683 6.03667 1.62453 6.44778 1.62453C6.85225 1.62453 7.26336 1.81683 7.64131 2.20141C8.08557 2.61252 8.50331 3.04351 8.9542 3.50104C9.17965 3.73311 9.41172 3.96519 9.6438 4.2039L11.6198 6.17986C12.0309 6.59097 12.2431 7.0087 12.2431 7.41981C12.2431 7.83092 12.0309 8.24865 11.6198 8.65976C11.4142 8.86531 11.2087 9.0775 11.0031 9.28305C10.3864 9.90634 9.80957 10.4965 9.17302 11.0601L9.13986 11.0932C8.58951 11.6436 8.67571 12.1674 8.80832 12.5653C8.81495 12.5852 8.82159 12.5984 8.82822 12.6183C9.33878 13.845 10.0483 15.012 11.1556 16.4045C13.1448 18.8579 15.2402 20.7609 17.5477 22.2263C17.8328 22.4119 18.1378 22.5578 18.4229 22.7037C18.6881 22.8363 18.9335 22.9623 19.1523 23.1015C19.1788 23.1148 19.1987 23.1281 19.2252 23.1413C19.444 23.254 19.6562 23.3071 19.8684 23.3071C20.3989 23.3071 20.7437 22.9689 20.8564 22.8562L23.3363 20.3763C23.7209 19.9917 24.1386 19.7862 24.5497 19.7862C25.0537 19.7862 25.4648 20.0978 25.7234 20.3763L29.7217 24.368C30.5174 25.1637 30.5108 26.0257 29.7018 26.8678C29.4233 27.1662 29.1316 27.4513 28.8199 27.7497C28.3558 28.2006 27.8717 28.6647 27.4341 29.1886C26.6716 30.0108 25.7632 30.3954 24.5895 30.3954C24.4768 30.3954 24.3574 30.3887 24.2447 30.3821C22.0698 30.2429 20.0474 29.3941 18.529 28.6714C14.4047 26.6755 10.7843 23.8442 7.78056 20.2503C5.30729 17.2731 3.64297 14.5014 2.54226 11.5309C1.8593 9.70742 1.6007 8.24202 1.70679 6.90924Z" fill="#005AFE"/>
</g>
<defs>
<clipPath id="clip0_68584_11516">
<rect width="32" height="32" fill="white"/>
</clipPath>
</defs>
</svg>
