<svg width="56" height="56" viewBox="0 0 56 56" fill="none" xmlns="http://www.w3.org/2000/svg">
<circle cx="28" cy="28" r="28" fill="url(#paint0_linear_6102_28317)"/>
<circle cx="28" cy="28" r="21" fill="#F6F7FA"/>
<path d="M18.6665 29.3333H22.6665M14.6665 23.9999L17.3332 25.3333L19.0274 20.2507C19.3771 19.2016 19.5519 18.677 19.8762 18.2892C20.1626 17.9468 20.5304 17.6817 20.9458 17.5183C21.4163 17.3333 21.9692 17.3333 23.0751 17.3333H32.9246C34.0304 17.3333 34.5834 17.3333 35.0538 17.5183C35.4693 17.6817 35.8371 17.9468 36.1235 18.2892C36.4478 18.677 36.6226 19.2016 36.9723 20.2507L38.6665 25.3333L41.3332 23.9999M33.3332 29.3333H37.3332M21.0665 25.3333H34.9332C37.1734 25.3333 38.2935 25.3333 39.1491 25.7692C39.9018 26.1527 40.5137 26.7646 40.8972 27.5173C41.3332 28.3729 41.3332 29.493 41.3332 31.7333V35.3333C41.3332 35.9528 41.3332 36.2626 41.2819 36.5202C41.0715 37.578 40.2446 38.4049 39.1867 38.6153C38.9291 38.6666 38.6194 38.6666 37.9998 38.6666H37.3332C35.8604 38.6666 34.6665 37.4727 34.6665 35.9999C34.6665 35.6317 34.368 35.3333 33.9998 35.3333H21.9998C21.6316 35.3333 21.3332 35.6317 21.3332 35.9999C21.3332 37.4727 20.1393 38.6666 18.6665 38.6666H17.9998C17.3803 38.6666 17.0705 38.6666 16.8129 38.6153C15.7551 38.4049 14.9282 37.578 14.7177 36.5202C14.6665 36.2626 14.6665 35.9528 14.6665 35.3333V31.7333C14.6665 29.493 14.6665 28.3729 15.1025 27.5173C15.486 26.7646 16.0979 26.1527 16.8505 25.7692C17.7062 25.3333 18.8263 25.3333 21.0665 25.3333Z" stroke="url(#paint1_linear_6102_28317)" stroke-width="2.2" stroke-linecap="round" stroke-linejoin="round"/>
<defs>
<linearGradient id="paint0_linear_6102_28317" x1="28" y1="0" x2="28" y2="56" gradientUnits="userSpaceOnUse">
<stop stop-color="#005AFE"/>
<stop offset="1" stop-color="#0647BD"/>
</linearGradient>
<linearGradient id="paint1_linear_6102_28317" x1="27.9998" y1="17.3333" x2="27.9998" y2="38.6666" gradientUnits="userSpaceOnUse">
<stop stop-color="#005AFE"/>
<stop offset="1" stop-color="#0647BD"/>
</linearGradient>
</defs>
</svg>
