<svg width="28" height="28" viewBox="0 0 28 28" fill="none" xmlns="http://www.w3.org/2000/svg">
<path d="M22.2548 14.285H24.4958C25.1093 14.2708 25.7078 14.4752 26.1843 14.8618C26.6608 15.2484 26.9842 15.7919 27.0967 16.3951C27.1135 16.5965 27.1135 16.799 27.0967 17.0004V24.4267C27.1157 24.7897 27.058 25.1526 26.9272 25.4918C26.7964 25.831 26.5956 26.1387 26.3378 26.395C26.08 26.6512 25.771 26.8503 25.4311 26.979C25.0911 27.1077 24.7278 27.1633 24.365 27.1421H5.52105C4.46476 27.1545 3.43666 26.8014 2.6109 26.1425C1.78515 25.4837 1.21251 24.5597 0.989997 23.5271C0.924136 23.1765 0.891281 22.8205 0.891855 22.4638V5.48466C0.865825 4.36533 1.25364 3.27571 1.98105 2.42456C2.70845 1.5734 3.72432 1.02053 4.83404 0.871814C5.08426 0.847416 5.33625 0.847416 5.58647 0.871814H14.9267C15.2817 0.856267 15.6357 0.921837 15.9616 1.06355C16.2876 1.20527 16.577 1.41941 16.8078 1.68969C18.4435 3.4236 20.0793 5.14113 21.715 6.84232C22.1336 7.28426 22.3677 7.86937 22.3694 8.47808V14.3341L22.2548 14.285ZM20.4064 8.7725H18.7707C17.7485 8.76438 16.7592 8.4109 15.9634 7.76947C15.1675 7.12804 14.6119 6.23638 14.3869 5.23931C14.2858 4.51873 14.242 3.79123 14.256 3.06372C14.2478 2.93299 14.2478 2.80189 14.256 2.67116H5.45561H4.88311C4.22202 2.78999 3.62734 3.14681 3.21143 3.67424C2.79552 4.20166 2.58717 4.86316 2.62575 5.53373V22.3657C2.60952 22.5835 2.60952 22.8022 2.62575 23.02C2.73881 23.658 3.0763 24.2346 3.57727 24.6456C4.07823 25.0565 4.70964 25.2748 5.35747 25.261C6.617 25.261 7.87653 25.261 9.13606 25.261H9.36507C9.36507 25.032 9.36507 24.8193 9.36507 24.5903C9.36507 21.9894 9.36507 19.3886 9.36507 16.7878C9.35691 16.6679 9.35691 16.5477 9.36507 16.4279C9.46752 15.8085 9.79058 15.247 10.2746 14.8471C10.7587 14.4473 11.371 14.236 11.9986 14.2523H20.3574L20.4064 8.7725ZM11.2298 19.8139V24.3449C11.2298 25.032 11.4916 25.2937 12.1949 25.2937H24.3813C25.052 25.2937 25.2974 25.0483 25.2974 24.3776V19.8139H11.2298ZM25.2974 17.9491V17.0495C25.2974 16.3788 25.0356 16.1171 24.365 16.1171H11.9496C11.7838 16.1075 11.6206 16.1613 11.493 16.2676C11.3654 16.374 11.283 16.5248 11.2626 16.6896C11.238 17.0982 11.238 17.5079 11.2626 17.9164L25.2974 17.9491ZM16.1371 4.07789C15.9245 5.55007 17.7729 7.34942 18.967 6.90777L16.1371 4.07789Z" fill="#005AFE"/>
<path d="M15.2697 23.4609H14.0756C13.8326 23.4609 13.5996 23.3645 13.4278 23.1927C13.256 23.0209 13.1595 22.7879 13.1595 22.5449C13.1595 22.302 13.256 22.069 13.4278 21.8972C13.5996 21.7254 13.8326 21.6289 14.0756 21.6289C14.8934 21.6289 15.7113 21.6289 16.5292 21.6289C16.7721 21.6289 17.0051 21.7254 17.1769 21.8972C17.3487 22.069 17.4452 22.302 17.4452 22.5449C17.4452 22.7879 17.3487 23.0209 17.1769 23.1927C17.0051 23.3645 16.7721 23.4609 16.5292 23.4609H15.2697Z" fill="#005AFE"/>
</svg>
