<svg width="48" height="48" viewBox="0 0 48 48" fill="none" xmlns="http://www.w3.org/2000/svg">
<path fill-rule="evenodd" clip-rule="evenodd" d="M36 6H12C7.6 6 4 9.6 4 14C4 17.4 6 20.2 9 21.4V14C9 13.2 9.4 12.4 9.8 11.8C10.2 11.2 11.2 11 12 11H36C36.8 11 37.6 11.4 38.2 11.8C38.8 12.2 39 13.2 39 14V21.4C42 20.2 44 17.4 44 14C44 9.6 40.4 6 36 6ZM36 38V14H12V38C12 40.2 13.8 42 16 42H32C34.2 42 36 40.2 36 38ZM22.4 24.8L21 26.2C20.4 26.8 19.4 26.8 18.8 26.2C18.2 25.6 18.2 24.6 18.8 24L21.4 21.4C22.8 20 25 20 26.4 21.4L29 24C29.6 24.6 29.6 25.6 29 26.2C28.4 26.8 27.4 26.8 26.8 26.2L25.4 24.8V33.2C25.4 34 24.8 34.8 23.8 34.8C22.8 34.8 22.2 34.2 22.2 33.2V24.8H22.4Z" fill="#005AFE"/>
</svg>
