<svg width="28" height="21" viewBox="0 0 28 21" fill="none" xmlns="http://www.w3.org/2000/svg">
<path d="M27.2295 8.3531H0.770264M0.770264 5.97176L0.770264 16.0263C0.770264 17.5081 0.770264 18.2491 1.05865 18.8151C1.31233 19.3129 1.7171 19.7177 2.21496 19.9714C2.78096 20.2598 3.52189 20.2598 5.00375 20.2598L22.996 20.2598C24.4779 20.2598 25.2188 20.2598 25.7848 19.9714C26.2827 19.7177 26.6875 19.3129 26.9411 18.8151C27.2295 18.2491 27.2295 17.5081 27.2295 16.0263V5.97176C27.2295 4.48991 27.2295 3.74898 26.9411 3.18298C26.6875 2.68512 26.2827 2.28035 25.7848 2.02667C25.2188 1.73828 24.4779 1.73828 22.996 1.73828L5.00375 1.73828C3.52189 1.73828 2.78096 1.73828 2.21496 2.02667C1.7171 2.28034 1.31233 2.68512 1.05865 3.18298C0.770264 3.74898 0.770264 4.48991 0.770264 5.97176Z" stroke="#005AFE" stroke-width="1.5" stroke-linecap="round" stroke-linejoin="round"/>
</svg>
