<svg width="56" height="56" viewBox="0 0 56 56" fill="none" xmlns="http://www.w3.org/2000/svg">
<circle cx="28" cy="28" r="28" fill="url(#paint0_linear_37077_16489)"/>
<circle cx="28" cy="28" r="21" fill="#F6F7FA"/>
<path d="M27.9315 37.0934C24.9968 37.0934 22.0614 37.0934 19.1252 37.0934C16.9509 37.0934 15.5103 35.6454 15.506 33.4469C15.498 29.8411 15.498 26.2352 15.506 22.6294C15.506 20.3485 16.9106 18.9158 19.16 18.9114C25.0649 18.9019 30.9699 18.9019 36.8748 18.9114C39.0915 18.9114 40.4908 20.3606 40.4951 22.6074C40.5016 26.1964 40.5016 29.7854 40.4951 33.3744C40.4951 35.6761 39.0644 37.0967 36.7867 37.0945L27.9315 37.0934ZM17.2477 25.4145V26.0517C17.2477 28.4505 17.2477 30.8489 17.2477 33.247C17.2477 34.7137 17.8434 35.3345 19.2861 35.3345C25.1012 35.3389 30.9169 35.3389 36.7334 35.3345C38.1468 35.3345 38.7426 34.7148 38.7436 33.281C38.7436 30.8639 38.7436 28.4469 38.7436 26.0298V25.4167L17.2477 25.4145ZM17.2672 23.5522H38.6849C38.7002 23.3534 38.7175 23.1908 38.7219 23.0271C38.7795 21.2132 38.2794 20.6858 36.4888 20.6847C30.7289 20.6847 24.9696 20.6847 19.2111 20.6847C18.9576 20.6788 18.7044 20.7057 18.4577 20.7649C17.8967 20.9154 17.4553 21.2593 17.3564 21.8526C17.2651 22.4008 17.2933 22.9721 17.2672 23.5522Z" fill="url(#paint1_linear_37077_16489)"/>
<path d="M22.248 31.8256C22.9721 31.8256 23.6962 31.8146 24.4224 31.8256C25.028 31.8376 25.3715 32.1464 25.3889 32.6463C25.4063 33.1462 25.041 33.5516 24.4442 33.5604C22.9417 33.5831 21.4388 33.5831 19.9356 33.5604C19.3539 33.5538 18.9723 33.1451 18.993 32.6408C19.0115 32.164 19.3887 31.8333 19.9715 31.8223C20.7325 31.8091 21.4935 31.8223 22.2546 31.8223L22.248 31.8256Z" fill="url(#paint2_linear_37077_16489)"/>
<defs>
<linearGradient id="paint0_linear_37077_16489" x1="28" y1="0" x2="28" y2="56" gradientUnits="userSpaceOnUse">
<stop stop-color="#005AFE"/>
<stop offset="1" stop-color="#0647BD"/>
</linearGradient>
<linearGradient id="paint1_linear_37077_16489" x1="28" y1="18.9043" x2="28" y2="37.0945" gradientUnits="userSpaceOnUse">
<stop stop-color="#005AFE"/>
<stop offset="1" stop-color="#0647BD"/>
</linearGradient>
<linearGradient id="paint2_linear_37077_16489" x1="22.1909" y1="31.8164" x2="22.1909" y2="33.5774" gradientUnits="userSpaceOnUse">
<stop stop-color="#005AFE"/>
<stop offset="1" stop-color="#0647BD"/>
</linearGradient>
</defs>
</svg>
