<svg width="48" height="48" viewBox="0 0 48 48" fill="none" xmlns="http://www.w3.org/2000/svg">
<path fill-rule="evenodd" clip-rule="evenodd" d="M45.75 18C45.75 17.4033 45.5129 16.831 45.091 16.409C44.669 15.9871 44.0967 15.75 43.5 15.75H4.5C3.90326 15.75 3.33097 15.9871 2.90901 16.409C2.48705 16.831 2.25 17.4033 2.25 18V37.5C2.25 38.0967 2.48705 38.669 2.90901 39.091C3.33097 39.5129 3.90326 39.75 4.5 39.75H43.5C44.0967 39.75 44.669 39.5129 45.091 39.091C45.5129 38.669 45.75 38.0967 45.75 37.5V18ZM5.25 33C5.25 33.1989 5.32902 33.3897 5.46967 33.5303C5.61032 33.671 5.80109 33.75 6 33.75C6.59674 33.75 7.16903 33.9871 7.59099 34.409C8.01295 34.831 8.25 35.4033 8.25 36C8.25 36.1989 8.32902 36.3897 8.46967 36.5303C8.61032 36.671 8.80109 36.75 9 36.75H39C39.1989 36.75 39.3897 36.671 39.5303 36.5303C39.671 36.3897 39.75 36.1989 39.75 36C39.75 35.4033 39.9871 34.831 40.409 34.409C40.831 33.9871 41.4033 33.75 42 33.75C42.1989 33.75 42.3897 33.671 42.5303 33.5303C42.671 33.3897 42.75 33.1989 42.75 33V22.5C42.75 22.3011 42.671 22.1103 42.5303 21.9697C42.3897 21.829 42.1989 21.75 42 21.75C41.4033 21.75 40.831 21.5129 40.409 21.091C39.9871 20.669 39.75 20.0967 39.75 19.5C39.75 19.3011 39.671 19.1103 39.5303 18.9697C39.3897 18.829 39.1989 18.75 39 18.75H9C8.80109 18.75 8.61032 18.829 8.46967 18.9697C8.32902 19.1103 8.25 19.3011 8.25 19.5C8.25 20.0967 8.01295 20.669 7.59099 21.091C7.16903 21.5129 6.59674 21.75 6 21.75C5.80109 21.75 5.61032 21.829 5.46967 21.9697C5.32902 22.1103 5.25 22.3011 5.25 22.5V33Z" fill="#005AFE"/>
<path fill-rule="evenodd" clip-rule="evenodd" d="M6.75 32.325V23.175C7.47038 23.0274 8.13158 22.6715 8.65155 22.1515C9.17152 21.6316 9.52739 20.9704 9.675 20.25H38.325C38.4726 20.9704 38.8285 21.6316 39.3484 22.1515C39.8684 22.6715 40.5296 23.0274 41.25 23.175V32.325C40.5296 32.4726 39.8684 32.8285 39.3484 33.3484C38.8285 33.8684 38.4726 34.5296 38.325 35.25H9.675C9.52739 34.5296 9.17152 33.8684 8.65155 33.3484C8.13158 32.8285 7.47038 32.4726 6.75 32.325ZM24.0015 21.7463C22.41 21.7472 20.8839 22.38 19.7586 23.5054C18.6333 24.6309 18.0008 26.157 18 27.7485C18.0008 29.34 18.6333 30.866 19.7587 31.9913C20.884 33.1167 22.41 33.7492 24.0015 33.75C25.593 33.7492 27.1191 33.1167 28.2446 31.9914C29.37 30.8661 30.0028 29.34 30.0037 27.7485C30.003 26.1568 29.3703 24.6306 28.2449 23.5051C27.1194 22.3797 25.5932 21.747 24.0015 21.7463Z" fill="#005AFE"/>
<path d="M24.0015 32.2491C26.4876 32.2491 28.503 30.2337 28.503 27.7476C28.503 25.2615 26.4876 23.2461 24.0015 23.2461C21.5154 23.2461 19.5 25.2615 19.5 27.7476C19.5 30.2337 21.5154 32.2491 24.0015 32.2491Z" fill="#005AFE"/>
<path fill-rule="evenodd" clip-rule="evenodd" d="M16.1425 14.2496L35.2173 9.13833C35.3124 9.1125 35.4118 9.10574 35.5095 9.11844C35.6073 9.13114 35.7016 9.16305 35.787 9.21233C35.8724 9.26161 35.9472 9.32729 36.0071 9.40559C36.067 9.48389 36.1108 9.57327 36.136 9.66858C36.2125 9.95401 36.3444 10.2216 36.5242 10.4561C36.704 10.6905 36.9283 10.8872 37.1842 11.035C37.44 11.1828 37.7225 11.2788 38.0155 11.3174C38.3084 11.356 38.6061 11.3365 38.8915 11.2601C39.0837 11.2089 39.2882 11.236 39.4604 11.3354C39.6326 11.4348 39.7584 11.5984 39.8103 11.7903L40.4695 14.2496H43.363L41.3988 6.91758C41.3223 6.63213 41.1903 6.36455 41.0104 6.13012C40.8305 5.89568 40.6061 5.69899 40.3502 5.55127C40.0942 5.40355 39.8117 5.3077 39.5187 5.26919C39.2257 5.23068 38.928 5.25026 38.6425 5.32683L5.3418 14.2496H16.1425Z" fill="#005AFE"/>
<path fill-rule="evenodd" clip-rule="evenodd" d="M21.9375 14.2492L34.9537 10.7617C35.2825 11.4194 35.7973 11.9661 36.4341 12.3337C37.071 12.7013 37.8018 12.8737 38.5358 12.8295L38.916 14.2492H21.9375Z" fill="#005AFE"/>
</svg>
