<svg width="36" height="36" viewBox="0 0 36 36" fill="none" xmlns="http://www.w3.org/2000/svg">
<circle cx="18" cy="18" r="18" fill="#005AFE"/>
<path d="M7 15C7 10.5817 10.5817 7 15 7H27C28.1046 7 29 7.89543 29 9V21C29 25.4183 25.4183 29 21 29H9C7.89543 29 7 28.1046 7 27V15Z" fill="#F6F7FA"/>
<path d="M20.3457 20.2344H23.5098C23.4577 21.2109 23.1908 22.0736 22.709 22.8223C22.2337 23.5645 21.5729 24.1471 20.7266 24.5703C19.8802 24.987 18.8743 25.1953 17.709 25.1953C16.778 25.1953 15.9447 25.0358 15.209 24.7168C14.4733 24.3978 13.8483 23.9421 13.334 23.3496C12.8262 22.7507 12.4355 22.0312 12.1621 21.1914C11.8952 20.3451 11.7617 19.3913 11.7617 18.3301V17.4609C11.7617 16.3997 11.9017 15.446 12.1816 14.5996C12.4616 13.7533 12.862 13.0306 13.3828 12.4316C13.9036 11.8327 14.5286 11.3737 15.2578 11.0547C15.987 10.7357 16.8008 10.5762 17.6992 10.5762C18.9102 10.5762 19.9323 10.7943 20.7656 11.2305C21.599 11.6667 22.2435 12.2656 22.6992 13.0273C23.1615 13.7891 23.4382 14.6582 23.5293 15.6348H20.3555C20.3294 15.0814 20.2253 14.6159 20.043 14.2383C19.8607 13.8542 19.5807 13.5645 19.2031 13.3691C18.8255 13.1738 18.3242 13.0762 17.6992 13.0762C17.2435 13.0762 16.8431 13.1608 16.498 13.3301C16.1595 13.4993 15.8763 13.763 15.6484 14.1211C15.4271 14.4792 15.2611 14.9349 15.1504 15.4883C15.0397 16.0352 14.9844 16.6862 14.9844 17.4414V18.3301C14.9844 19.0788 15.0332 19.7266 15.1309 20.2734C15.2285 20.8203 15.3848 21.2728 15.5996 21.6309C15.821 21.9889 16.1042 22.2559 16.4492 22.4316C16.7943 22.6074 17.2142 22.6953 17.709 22.6953C18.2754 22.6953 18.7474 22.6074 19.125 22.4316C19.5026 22.2493 19.7923 21.9759 19.9941 21.6113C20.196 21.2467 20.3132 20.7878 20.3457 20.2344Z" fill="#005AFE"/>
</svg>
