<svg width="32" height="32" viewBox="0 0 32 32" fill="none" xmlns="http://www.w3.org/2000/svg">
<g clip-path="url(#clip0_300_2051)">
<path d="M15.9998 23.3332H16.0132M10.9332 29.3332H21.0665C22.56 29.3332 23.3067 29.3332 23.8771 29.0425C24.3789 28.7869 24.7869 28.3789 25.0425 27.8771C25.3332 27.3067 25.3332 26.56 25.3332 25.0665V6.93317C25.3332 5.4397 25.3332 4.69296 25.0425 4.12253C24.7869 3.62076 24.3789 3.21282 23.8771 2.95715C23.3067 2.6665 22.56 2.6665 21.0665 2.6665H10.9332C9.4397 2.6665 8.69296 2.6665 8.12253 2.95715C7.62076 3.21282 7.21282 3.62076 6.95715 4.12253C6.6665 4.69296 6.6665 5.4397 6.6665 6.93317V25.0665C6.6665 26.56 6.6665 27.3067 6.95715 27.8771C7.21282 28.3789 7.62076 28.7869 8.12253 29.0425C8.69296 29.3332 9.4397 29.3332 10.9332 29.3332ZM16.6665 23.3332C16.6665 23.7014 16.368 23.9998 15.9998 23.9998C15.6316 23.9998 15.3332 23.7014 15.3332 23.3332C15.3332 22.965 15.6316 22.6665 15.9998 22.6665C16.368 22.6665 16.6665 22.965 16.6665 23.3332Z" stroke="#005AFE" stroke-width="2" stroke-linecap="round" stroke-linejoin="round"/>
</g>
<defs>
<clipPath id="clip0_300_2051">
<rect width="32" height="32" fill="white"/>
</clipPath>
</defs>
</svg>
