<svg width="48" height="48" viewBox="0 0 48 48" fill="none" xmlns="http://www.w3.org/2000/svg">
<path d="M38 2.5H10C9.07207 2.50106 8.18244 2.87015 7.5263 3.5263C6.87015 4.18244 6.50106 5.07207 6.5 6V42C6.50106 42.9279 6.87015 43.8176 7.5263 44.4737C8.18244 45.1299 9.07207 45.4989 10 45.5H38C38.9279 45.4989 39.8176 45.1299 40.4737 44.4737C41.1299 43.8176 41.4989 42.9279 41.5 42V6C41.4989 5.07207 41.1299 4.18244 40.4737 3.5263C39.8176 2.87015 38.9279 2.50106 38 2.5ZM15 38C14.6044 38 14.2178 37.8827 13.8889 37.6629C13.56 37.4432 13.3036 37.1308 13.1522 36.7654C13.0009 36.3999 12.9613 35.9978 13.0384 35.6098C13.1156 35.2219 13.3061 34.8655 13.5858 34.5858C13.8655 34.3061 14.2219 34.1156 14.6098 34.0384C14.9978 33.9613 15.3999 34.0009 15.7654 34.1522C16.1308 34.3036 16.4432 34.56 16.6629 34.8889C16.8827 35.2178 17 35.6044 17 36C17 36.5304 16.7893 37.0391 16.4142 37.4142C16.0391 37.7893 15.5304 38 15 38ZM15 30C14.6044 30 14.2178 29.8827 13.8889 29.6629C13.56 29.4432 13.3036 29.1308 13.1522 28.7654C13.0009 28.3999 12.9613 27.9978 13.0384 27.6098C13.1156 27.2219 13.3061 26.8655 13.5858 26.5858C13.8655 26.3061 14.2219 26.1156 14.6098 26.0384C14.9978 25.9613 15.3999 26.0009 15.7654 26.1522C16.1308 26.3036 16.4432 26.56 16.6629 26.8889C16.8827 27.2178 17 27.6044 17 28C17 28.5304 16.7893 29.0391 16.4142 29.4142C16.0391 29.7893 15.5304 30 15 30ZM15 22C14.6044 22 14.2178 21.8827 13.8889 21.6629C13.56 21.4432 13.3036 21.1308 13.1522 20.7654C13.0009 20.3999 12.9613 19.9978 13.0384 19.6098C13.1156 19.2219 13.3061 18.8655 13.5858 18.5858C13.8655 18.3061 14.2219 18.1156 14.6098 18.0384C14.9978 17.9613 15.3999 18.0009 15.7654 18.1522C16.1308 18.3036 16.4432 18.56 16.6629 18.8889C16.8827 19.2178 17 19.6044 17 20C17 20.5304 16.7893 21.0391 16.4142 21.4142C16.0391 21.7893 15.5304 22 15 22ZM15 14C14.6044 14 14.2178 13.8827 13.8889 13.6629C13.56 13.4432 13.3036 13.1308 13.1522 12.7654C13.0009 12.3999 12.9613 11.9978 13.0384 11.6098C13.1156 11.2219 13.3061 10.8655 13.5858 10.5858C13.8655 10.3061 14.2219 10.1156 14.6098 10.0384C14.9978 9.96126 15.3999 10.0009 15.7654 10.1522C16.1308 10.3036 16.4432 10.56 16.6629 10.8889C16.8827 11.2178 17 11.6044 17 12C17 12.5304 16.7893 13.0391 16.4142 13.4142C16.0391 13.7893 15.5304 14 15 14ZM29 37.5H21C20.6022 37.5 20.2206 37.342 19.9393 37.0607C19.658 36.7794 19.5 36.3978 19.5 36C19.5 35.6022 19.658 35.2206 19.9393 34.9393C20.2206 34.658 20.6022 34.5 21 34.5H29C29.3978 34.5 29.7794 34.658 30.0607 34.9393C30.342 35.2206 30.5 35.6022 30.5 36C30.5 36.3978 30.342 36.7794 30.0607 37.0607C29.7794 37.342 29.3978 37.5 29 37.5ZM33 29.5H21C20.6022 29.5 20.2206 29.342 19.9393 29.0607C19.658 28.7794 19.5 28.3978 19.5 28C19.5 27.6022 19.658 27.2206 19.9393 26.9393C20.2206 26.658 20.6022 26.5 21 26.5H33C33.3978 26.5 33.7794 26.658 34.0607 26.9393C34.342 27.2206 34.5 27.6022 34.5 28C34.5 28.3978 34.342 28.7794 34.0607 29.0607C33.7794 29.342 33.3978 29.5 33 29.5ZM33 21.5H21C20.6022 21.5 20.2206 21.342 19.9393 21.0607C19.658 20.7794 19.5 20.3978 19.5 20C19.5 19.6022 19.658 19.2206 19.9393 18.9393C20.2206 18.658 20.6022 18.5 21 18.5H33C33.3978 18.5 33.7794 18.658 34.0607 18.9393C34.342 19.2206 34.5 19.6022 34.5 20C34.5 20.3978 34.342 20.7794 34.0607 21.0607C33.7794 21.342 33.3978 21.5 33 21.5ZM33 13.5H21C20.6022 13.5 20.2206 13.342 19.9393 13.0607C19.658 12.7794 19.5 12.3978 19.5 12C19.5 11.6022 19.658 11.2206 19.9393 10.9393C20.2206 10.658 20.6022 10.5 21 10.5H33C33.3978 10.5 33.7794 10.658 34.0607 10.9393C34.342 11.2206 34.5 11.6022 34.5 12C34.5 12.3978 34.342 12.7794 34.0607 13.0607C33.7794 13.342 33.3978 13.5 33 13.5Z" fill="#005AFE"/>
</svg>
