<svg width="24" height="24" viewBox="0 0 24 24" fill="none" xmlns="http://www.w3.org/2000/svg">
<rect x="3" y="3" width="18" height="18" rx="4" fill="url(#paint0_linear_140_8619)"/>
<mask id="path-2-inside-1_140_8619" fill="white">
<path d="M10.5622 15C10.3097 15 10.0572 14.9215 9.86439 14.7636L7.18908 12.5719C6.80351 12.2561 6.80351 11.7444 7.18908 11.4295C7.57465 11.1136 8.1981 11.1127 8.58367 11.4285L10.5622 13.0494L15.2161 9.2369C15.6017 8.92103 16.2252 8.92103 16.6107 9.2369C16.9963 9.55276 16.9963 10.0644 16.6107 10.3803L11.2601 14.7636C11.0673 14.9215 10.8148 15 10.5622 15Z"/>
</mask>
<path d="M10.5622 15C10.3097 15 10.0572 14.9215 9.86439 14.7636L7.18908 12.5719C6.80351 12.2561 6.80351 11.7444 7.18908 11.4295C7.57465 11.1136 8.1981 11.1127 8.58367 11.4285L10.5622 13.0494L15.2161 9.2369C15.6017 8.92103 16.2252 8.92103 16.6107 9.2369C16.9963 9.55276 16.9963 10.0644 16.6107 10.3803L11.2601 14.7636C11.0673 14.9215 10.8148 15 10.5622 15Z" fill="white"/>
<path d="M7.18908 11.4295L7.3156 11.5844L7.31582 11.5842L7.18908 11.4295ZM10.5622 13.0494L10.4355 13.2041L10.5622 13.308L10.689 13.2041L10.5622 13.0494ZM16.6107 10.3803L16.484 10.2256L16.6107 10.3803ZM11.2601 14.7636L11.3868 14.9183L11.2601 14.7636ZM10.5622 14.8C10.3491 14.8 10.1433 14.7335 9.99113 14.6089L9.73765 14.9183C9.97109 15.1095 10.2703 15.2 10.5622 15.2V14.8ZM9.99113 14.6089L7.31582 12.4172L7.06234 12.7266L9.73765 14.9183L9.99113 14.6089ZM7.31582 12.4172C7.1653 12.2939 7.0999 12.1421 7.0999 12.0003C7.0999 11.8587 7.16527 11.7072 7.3156 11.5844L7.06256 11.2746C6.82732 11.4667 6.6999 11.7285 6.6999 12.0003C6.6999 12.2722 6.82729 12.5341 7.06234 12.7266L7.31582 12.4172ZM7.31582 11.5842C7.62793 11.3285 8.14531 11.328 8.45693 11.5833L8.71041 11.2738C8.25089 10.8974 7.52137 10.8987 7.06234 11.2747L7.31582 11.5842ZM8.45693 11.5833L10.4355 13.2041L10.689 12.8947L8.71041 11.2738L8.45693 11.5833ZM10.689 13.2041L15.3429 9.39161L15.0894 9.08218L10.4355 12.8947L10.689 13.2041ZM15.3429 9.39161C15.6547 9.13613 16.1721 9.13613 16.484 9.39161L16.7375 9.08218C16.2782 8.70594 15.5487 8.70594 15.0894 9.08218L15.3429 9.39161ZM16.484 9.39161C16.6345 9.51491 16.6999 9.66675 16.6999 9.80859C16.6999 9.95043 16.6345 10.1023 16.484 10.2256L16.7375 10.535C16.9725 10.3424 17.0999 10.0805 17.0999 9.80859C17.0999 9.53667 16.9725 9.27475 16.7375 9.08218L16.484 9.39161ZM16.484 10.2256L11.1334 14.6089L11.3868 14.9183L16.7375 10.535L16.484 10.2256ZM11.1334 14.6089C10.9812 14.7335 10.7754 14.8 10.5622 14.8V15.2C10.8542 15.2 11.1534 15.1095 11.3868 14.9183L11.1334 14.6089Z" fill="white" mask="url(#path-2-inside-1_140_8619)"/>
<defs>
<linearGradient id="paint0_linear_140_8619" x1="3" y1="3" x2="23.2107" y2="5.97339" gradientUnits="userSpaceOnUse">
<stop stop-color="#568CEE"/>
<stop offset="0.817708" stop-color="#005AFE"/>
</linearGradient>
</defs>
</svg>
