<svg width="32" height="32" viewBox="0 0 32 32" fill="none" xmlns="http://www.w3.org/2000/svg">
<path d="M7.99984 7.99984L10.6665 5.33317M10.6665 5.33317L7.99984 2.6665M10.6665 5.33317H7.99984C5.05432 5.33317 2.6665 7.72098 2.6665 10.6665M23.9998 23.9998L21.3332 26.6665M21.3332 26.6665L23.9998 29.3332M21.3332 26.6665H23.9998C26.9454 26.6665 29.3332 24.2787 29.3332 21.3332M17.8894 17.8894C18.9324 18.3876 20.1002 18.6665 21.3332 18.6665C25.7515 18.6665 29.3332 15.0848 29.3332 10.6665C29.3332 6.24823 25.7515 2.6665 21.3332 2.6665C16.9149 2.6665 13.3332 6.24823 13.3332 10.6665C13.3332 11.8995 13.6121 13.0673 14.1103 14.1103M18.6665 21.3332C18.6665 25.7515 15.0848 29.3332 10.6665 29.3332C6.24823 29.3332 2.6665 25.7515 2.6665 21.3332C2.6665 16.9149 6.24823 13.3332 10.6665 13.3332C15.0848 13.3332 18.6665 16.9149 18.6665 21.3332Z" stroke="#005AFE" stroke-width="2" stroke-linecap="round" stroke-linejoin="round"/>
</svg>
