<svg width="24" height="24" viewBox="0 0 24 24" fill="none" xmlns="http://www.w3.org/2000/svg">
<path d="M11.1802 15.341C9.89022 15.214 8.72522 14.913 7.72922 14.176C7.60522 14.084 7.47722 13.996 7.36422 13.893C6.92822 13.497 6.88422 13.043 7.22922 12.575C7.52522 12.175 8.02022 12.067 8.53622 12.297C8.63622 12.342 8.73022 12.397 8.82122 12.457C10.6792 13.665 13.2312 13.698 15.0952 12.511C15.2792 12.377 15.4772 12.268 15.7052 12.212C16.1512 12.104 16.5652 12.259 16.8052 12.627C17.0772 13.047 17.0742 13.459 16.7382 13.785C16.2222 14.285 15.6022 14.648 14.9132 14.901C14.2612 15.14 13.5482 15.261 12.8422 15.34C12.9482 15.45 12.9992 15.504 13.0652 15.567C14.0252 16.479 14.9872 17.387 15.9432 18.301C16.2692 18.613 16.3372 18.999 16.1572 19.361C16.0587 19.5569 15.9059 19.7203 15.7171 19.8319C15.5282 19.9434 15.3114 19.9983 15.0922 19.99C14.8202 19.972 14.6072 19.844 14.4182 19.664C13.6942 18.974 12.9582 18.298 12.2482 17.596C12.0422 17.392 11.9432 17.431 11.7612 17.608C11.0332 18.318 10.2932 19.016 9.54822 19.71C9.21422 20.022 8.81722 20.078 8.42922 19.9C8.01722 19.71 7.75522 19.313 7.77522 18.913C7.78922 18.643 7.93022 18.436 8.12522 18.25C9.07522 17.354 10.0212 16.455 10.9682 15.557C11.0312 15.497 11.0892 15.434 11.1802 15.341ZM11.7852 12.178C9.55522 12.17 7.72822 10.318 7.74022 8.08001C7.75422 5.81701 9.58322 3.99401 11.8342 4.00001C14.0902 4.00601 15.9002 5.85601 15.8892 8.14201C15.8772 10.375 14.0372 12.186 11.7852 12.178ZM13.8102 8.08501C13.8111 7.82284 13.7603 7.56307 13.6605 7.32063C13.5607 7.07819 13.414 6.85785 13.2288 6.67228C13.0436 6.48671 12.8235 6.33957 12.5813 6.2393C12.3391 6.13903 12.0794 6.08762 11.8172 6.08801C11.5527 6.08732 11.2906 6.13933 11.0464 6.24101C10.8021 6.3427 10.5806 6.49201 10.3947 6.68024C10.2088 6.86847 10.0623 7.09185 9.96362 7.33733C9.86498 7.58281 9.81624 7.84549 9.82022 8.11001C9.82126 8.37219 9.87411 8.63158 9.97571 8.87327C10.0773 9.11497 10.2257 9.3342 10.4123 9.51838C10.5989 9.70256 10.82 9.84805 11.063 9.94649C11.306 10.0449 11.5661 10.0944 11.8282 10.092C12.0905 10.0918 12.3501 10.0395 12.5921 9.93835C12.8341 9.83717 13.0536 9.68903 13.238 9.50251C13.4224 9.31598 13.568 9.09476 13.6664 8.85163C13.7648 8.6085 13.814 8.34828 13.8112 8.08602L13.8102 8.08501Z" fill="#001A34" fill-opacity="0.5"/>
</svg>
