<svg width="24" height="24" viewBox="0 0 24 24" fill="none" xmlns="http://www.w3.org/2000/svg">
<circle cx="12" cy="12" r="10" fill="#001A34" fill-opacity="0.5"/>
<path d="M8.14954 7.18759C8.02351 7.06586 7.85472 6.9985 7.67951 7.00003C7.5043 7.00155 7.3367 7.07183 7.21281 7.19573C7.08892 7.31963 7.01864 7.48725 7.01712 7.66246C7.01559 7.83768 7.08295 8.00649 7.20467 8.13253L11.0637 11.9918L7.204 15.851C7.14018 15.9127 7.08927 15.9864 7.05425 16.068C7.01923 16.1495 7.0008 16.2372 7.00003 16.3259C6.99925 16.4147 7.01616 16.5027 7.04976 16.5848C7.08336 16.6669 7.13298 16.7415 7.19572 16.8043C7.25846 16.867 7.33307 16.9166 7.41519 16.9502C7.49731 16.9838 7.58531 17.0007 7.67403 17C7.76276 16.9992 7.85044 16.9808 7.93197 16.9457C8.0135 16.9107 8.08723 16.8598 8.14887 16.796L12.0085 12.9367L15.8675 16.796C15.9936 16.9177 16.1624 16.9851 16.3376 16.9836C16.5128 16.982 16.6804 16.9117 16.8043 16.7878C16.9282 16.6639 16.9985 16.4963 17 16.3211C17.0015 16.1459 16.9341 15.9771 16.8124 15.851L12.9534 11.9918L16.8124 8.13253C16.9341 8.00649 17.0015 7.83768 17 7.66246C16.9985 7.48725 16.9282 7.31963 16.8043 7.19573C16.6804 7.07183 16.5128 7.00155 16.3376 7.00003C16.1624 6.9985 15.9936 7.06586 15.8675 7.18759L12.0085 11.0469L8.14954 7.18692V7.18759Z" fill="#F1F1F1"/>
</svg>
