<svg width="16" height="16" viewBox="0 0 16 16" fill="none" xmlns="http://www.w3.org/2000/svg">
<g clip-path="url(#clip0_37599_14320)">
<path d="M4.31058 8.95501L9.92617 3.20323C9.98634 3.1416 10.4677 2.64859 11.2298 2.38154C12.2927 2.03233 13.3758 2.31992 14.2382 3.20323C15.1206 4.08654 15.3813 5.17527 15.0404 6.264C14.7997 7.0446 14.2983 7.57869 14.2382 7.64032L8.20138 13.8235C7.15849 14.8917 4.55124 16.268 2.14456 13.8235C-0.24207 11.379 1.12172 8.68796 2.14456 7.64032L8.62255 0.984683C8.86322 0.738178 9.24428 0.738178 9.48495 0.984683C9.72562 1.23119 9.72562 1.62149 9.48495 1.86799L3.02701 8.52363C2.92673 8.6058 0.901105 10.7627 3.02701 12.9402C5.09275 15.056 7.11837 13.1661 7.33899 12.9402L13.3758 6.73647C13.3758 6.73647 13.7167 6.38725 13.8771 5.89424C14.0777 5.23689 13.9373 4.66172 13.3758 4.08654C12.1724 2.85401 11.0092 3.88112 10.7886 4.08654L5.17297 9.81778C4.97241 10.0232 4.83202 10.3724 5.17297 10.7216C5.51392 11.0708 5.83481 10.9065 6.03537 10.7216L9.92617 6.73647C10.1668 6.5105 10.568 6.5105 10.7886 6.73647C11.0292 6.98297 11.0292 7.39381 10.7886 7.64032L6.89776 11.6049C6.35626 12.139 5.25319 12.5704 4.31058 11.6049C3.3479 10.6395 3.76907 9.48911 4.31058 8.95501Z" fill="#001A34"/>
</g>
<defs>
<clipPath id="clip0_37599_14320">
<rect width="16" height="16" fill="white"/>
</clipPath>
</defs>
</svg>
