<svg width="16" height="16" viewBox="0 0 16 16" fill="none" xmlns="http://www.w3.org/2000/svg">
<path d="M0.781382 16C0.626847 16 0.475775 15.9542 0.347274 15.8684C0.218774 15.7825 0.118618 15.6605 0.0594765 15.5177C0.000334655 15.375 -0.0151367 15.2179 0.0150195 15.0663C0.0451758 14.9147 0.119605 14.7755 0.228892 14.6663L14.6661 0.228852C14.8127 0.0823204 15.0114 0 15.2186 0C15.4258 0 15.6246 0.0823204 15.7711 0.228852C15.9176 0.375383 16 0.574122 16 0.781348C16 0.988574 15.9176 1.18731 15.7711 1.33384L1.33387 15.7713C1.26138 15.8439 1.17526 15.9015 1.08045 15.9407C0.985635 15.98 0.884 16.0001 0.781382 16Z" fill="black"/>
<path d="M15.2186 16C15.116 16.0001 15.0144 15.98 14.9196 15.9407C14.8247 15.9015 14.7386 15.8439 14.6661 15.7713L0.228892 1.33384C0.0823624 1.18731 4.30356e-05 0.988574 4.30356e-05 0.781348C4.30356e-05 0.574122 0.0823624 0.375383 0.228892 0.228852C0.375421 0.0823204 0.574158 0 0.781382 0C0.988606 0 1.18734 0.0823204 1.33387 0.228852L15.7711 14.6663C15.8804 14.7755 15.9548 14.9147 15.985 15.0663C16.0151 15.2179 15.9997 15.375 15.9405 15.5177C15.8814 15.6605 15.7812 15.7825 15.6527 15.8684C15.5242 15.9542 15.3732 16 15.2186 16Z" fill="black"/>
</svg>
