<svg width="24" height="24" viewBox="0 0 24 24" fill="none" xmlns="http://www.w3.org/2000/svg">
    <mask id="mask0_17744_46423" style="mask-type:alpha" maskUnits="userSpaceOnUse" x="0" y="0" width="24" height="24">
        <circle cx="12" cy="12" r="12" fill="#D9D9D9"/>
    </mask>
    <g mask="url(#mask0_17744_46423)">
        <path d="M30.5357 0H3.21429C1.43908 0 0 1.43269 0 3.2V20.8C0 22.5673 1.43908 24 3.21429 24H30.5357C32.3109 24 33.75 22.5673 33.75 20.8V3.2C33.75 1.43269 32.3109 0 30.5357 0Z" fill="#F93939"/>
        <path fill-rule="evenodd" clip-rule="evenodd" d="M8.87132 11.2982L6.63274 12.5405L7.05914 9.90964L5.25 8.04536L7.75203 7.66446L8.87132 5.26982L9.98909 7.66446L12.4911 8.04536L10.6789 9.90964L11.1084 12.5389L8.87132 11.2982ZM14.2043 4.5H15.7272V6.10714H14.2043V4.5ZM15.7272 7.71429H17.25V9.32143H15.7272V7.71429ZM15.7272 10.9286H17.25V12.5357H15.7272V10.9286ZM14.2043 14.1429H15.7272V15.75H14.2043V14.1429Z" fill="#FFDA2C"/>
    </g>
</svg>
