<svg width="32" height="32" viewBox="0 0 32 32" fill="none" xmlns="http://www.w3.org/2000/svg">
<path d="M15.9998 21.1C15.9998 24.2296 18.5368 26.7666 21.6664 26.7666C24.796 26.7666 27.333 24.2296 27.333 21.1C27.333 17.9704 24.796 15.4333 21.6664 15.4333C18.5368 15.4333 15.9998 17.9704 15.9998 21.1ZM15.9998 21.1C15.9998 19.824 16.4215 18.6466 17.1331 17.6994V7.50005M15.9998 21.1C15.9998 22.0354 16.2264 22.9178 16.6278 23.6954C15.673 24.5019 13.4677 25.0666 10.8998 25.0666C7.45725 25.0666 4.6665 24.0518 4.6665 22.8V7.50005M17.1331 7.50005C17.1331 8.75189 14.3424 9.7667 10.8998 9.7667C7.45725 9.7667 4.6665 8.75189 4.6665 7.50005M17.1331 7.50005C17.1331 6.24821 14.3424 5.2334 10.8998 5.2334C7.45725 5.2334 4.6665 6.24821 4.6665 7.50005M4.6665 17.7C4.6665 18.9518 7.45725 19.9666 10.8998 19.9666C13.3807 19.9666 15.523 19.4396 16.5264 18.6767M17.1331 12.6C17.1331 13.8519 14.3424 14.8667 10.8998 14.8667C7.45725 14.8667 4.6665 13.8519 4.6665 12.6" stroke="#005AFE" stroke-width="1.5" stroke-linecap="round" stroke-linejoin="round"/>
</svg>
