<svg width="25" height="24" viewBox="0 0 25 24" fill="none" xmlns="http://www.w3.org/2000/svg">
<g id="copy-card">
<path id="Icon" d="M8 3H15.1C17.3402 3 18.4603 3 19.316 3.43597C20.0686 3.81947 20.6805 4.43139 21.064 5.18404C21.5 6.03969 21.5 7.15979 21.5 9.4V16.5M6.7 21H14.8C15.9201 21 16.4802 21 16.908 20.782C17.2843 20.5903 17.5903 20.2843 17.782 19.908C18 19.4802 18 18.9201 18 17.8V9.7C18 8.57989 18 8.01984 17.782 7.59202C17.5903 7.21569 17.2843 6.90973 16.908 6.71799C16.4802 6.5 15.9201 6.5 14.8 6.5H6.7C5.5799 6.5 5.01984 6.5 4.59202 6.71799C4.21569 6.90973 3.90973 7.21569 3.71799 7.59202C3.5 8.01984 3.5 8.57989 3.5 9.7V17.8C3.5 18.9201 3.5 19.4802 3.71799 19.908C3.90973 20.2843 4.21569 20.5903 4.59202 20.782C5.01984 21 5.5799 21 6.7 21Z" stroke="#4D5F71" stroke-width="2" stroke-linecap="round" stroke-linejoin="round"/>
</g>
</svg>
