<svg width="16" height="16" viewBox="0 0 16 16" fill="none" xmlns="http://www.w3.org/2000/svg">
<g id="edit">
<path id="Vector" d="M13.1925 2.34252H12.225V1.37752C12.225 0.63002 11.615 0.0200195 10.8675 0.0200195H3.30501C2.55751 0.0200195 1.94751 0.63002 1.94751 1.37752V12.255C1.94751 13.0025 2.55751 13.6125 3.30501 13.6125H4.27251V14.58C4.27251 15.3275 4.88251 15.9375 5.63001 15.9375H13.1925C13.94 15.9375 14.55 15.3275 14.55 14.58V3.70002C14.55 2.95252 13.9425 2.34252 13.1925 2.34252ZM2.66501 12.2525V1.37752C2.66501 1.20712 2.7327 1.0437 2.85319 0.923203C2.97369 0.802711 3.13711 0.73502 3.30751 0.73502H10.87C11.0404 0.73502 11.2038 0.802711 11.3243 0.923203C11.4448 1.0437 11.5125 1.20712 11.5125 1.37752V12.255C11.5125 12.4254 11.4448 12.5888 11.3243 12.7093C11.2038 12.8298 11.0404 12.8975 10.87 12.8975H3.30501C3.13485 12.8961 2.97215 12.8275 2.8523 12.7067C2.73245 12.5859 2.66514 12.4227 2.66501 12.2525ZM13.835 14.5775C13.835 14.7479 13.7673 14.9113 13.6468 15.0318C13.5263 15.1523 13.3629 15.22 13.1925 15.22H5.63001C5.45961 15.22 5.29619 15.1523 5.17569 15.0318C5.0552 14.9113 4.98751 14.7479 4.98751 14.5775V13.61H10.8675C11.615 13.61 12.225 13 12.225 12.2525V3.05752H13.1925C13.3629 3.05752 13.5263 3.12521 13.6468 3.2457C13.7673 3.3662 13.835 3.52962 13.835 3.70002V14.5775Z" fill="#001A34" fill-opacity="0.5"/>
</g>
</svg>