<svg width="24" height="24" viewBox="0 0 24 24" fill="none" xmlns="http://www.w3.org/2000/svg">
<path d="M6.60936 5.26238C6.43292 5.09196 6.1966 4.99766 5.95131 4.99979C5.70602 5.00192 5.47139 5.10032 5.29793 5.27378C5.12448 5.44724 5.02609 5.6819 5.02396 5.92721C5.02183 6.17251 5.11613 6.40884 5.28654 6.58529L10.6891 11.9883L5.2856 17.3912C5.19625 17.4775 5.12498 17.5808 5.07595 17.6949C5.02692 17.8091 5.00111 17.9318 5.00004 18.056C4.99896 18.1803 5.02263 18.3035 5.06966 18.4184C5.1167 18.5334 5.18617 18.6379 5.27401 18.7257C5.36184 18.8136 5.4663 18.883 5.58127 18.9301C5.69624 18.9771 5.81943 19.0008 5.94365 18.9997C6.06786 18.9986 6.19062 18.9728 6.30476 18.9238C6.41889 18.8748 6.52212 18.8035 6.60842 18.7141L12.012 13.3112L17.4146 18.7141C17.591 18.8846 17.8273 18.9789 18.0726 18.9767C18.3179 18.9746 18.5525 18.8762 18.726 18.7027C18.8994 18.5293 18.9978 18.2946 19 18.0493C19.0021 17.804 18.9078 17.5677 18.7374 17.3912L13.3348 11.9883L18.7374 6.58529C18.9078 6.40884 19.0021 6.17251 19 5.92721C18.9978 5.6819 18.8994 5.44724 18.726 5.27378C18.5525 5.10032 18.3179 5.00192 18.0726 4.99979C17.8273 4.99766 17.591 5.09196 17.4146 5.26238L12.012 10.6654L6.60936 5.26238Z" fill="#001A34" fill-opacity="0.5"/>
</svg>
