<svg width="48" height="48" viewBox="0 0 48 48" fill="none" xmlns="http://www.w3.org/2000/svg">
<g clip-path="url(#clip0_7489_40852)">
<path d="M21.485 22.5748C21.9264 22.195 22.5526 21.9486 23.3738 21.887V26.5986C22.3678 26.2804 21.6801 25.911 21.3003 25.5927C20.9204 25.2128 20.7357 24.7714 20.7357 24.1453C20.7973 23.5192 21.0436 23.0162 21.485 22.5748ZM39.8905 7.43365C39.0693 4.41569 36.6879 3.28652 33.9264 4.04614L9.54662 10.5748H40.7117L39.8905 7.43365ZM48 18.3661V39.3481C48 42.0479 45.8648 44.1831 43.1651 44.1831H4.8349C2.13516 44.1831 0 42.0479 0 39.3481V18.3661C0 15.6663 2.13516 13.5312 4.8349 13.5312H43.1548C45.8032 13.5311 48 15.7279 48 18.3661ZM31.2883 32.6859C31.2883 31.1152 30.7854 29.9247 29.7793 29.0418C28.7733 28.1589 27.2643 27.5329 25.1909 27.0914H25.1292V21.9997C26.515 22.1845 27.8289 22.7491 29.0197 23.5703L30.775 21.0553C29.0197 19.8646 27.1309 19.1666 25.1189 19.0434V17.6576H23.3636V18.9818C21.6082 19.0434 20.2224 19.608 19.0932 20.6139C18.0257 21.6199 17.4611 22.8723 17.4611 24.4429C17.4611 26.0134 17.9641 27.2042 18.9085 27.9638C19.8529 28.785 21.3618 29.4114 23.3738 29.9142V35.1905C21.7417 34.9441 20.2327 34.1229 18.6621 32.7987L16.6501 35.1905C18.6005 36.8843 20.8589 37.8902 23.3122 38.1469V40.1591H25.0676V38.2087C26.8844 38.1469 28.3933 37.5823 29.5329 36.5765C30.7237 35.5192 31.2883 34.2566 31.2883 32.6859ZM25.1292 30.366V35.2625C26.0121 35.2008 26.6997 34.9441 27.2027 34.5131C27.7056 34.0716 27.9521 33.5687 27.9521 32.9424C27.9521 32.3162 27.7673 31.8133 27.3875 31.4335C26.9564 31.0538 26.2583 30.6842 25.1292 30.366Z" fill="#005AFE"/>
</g>
<defs>
<clipPath id="clip0_7489_40852">
<rect width="48" height="48" fill="white"/>
</clipPath>
</defs>
</svg>
