<svg xmlns="http://www.w3.org/2000/svg" width="18" height="19" viewBox="0 0 18 19" fill="none">
<path d="M6 17.75H2C1.31421 17.75 0.75 17.1858 0.75 16.5V2.5C0.75 1.81421 1.31421 1.25 2 1.25H6C6.68579 1.25 7.25 1.81421 7.25 2.5V16.5C7.25 17.1858 6.68579 17.75 6 17.75ZM16 17.75H12C11.3142 17.75 10.75 17.1858 10.75 16.5V11.5C10.75 10.8142 11.3142 10.25 12 10.25H16C16.6858 10.25 17.25 10.8142 17.25 11.5V16.5C17.25 17.1858 16.6858 17.75 16 17.75ZM17.25 2.5V5.5C17.25 6.18579 16.6858 6.75 16 6.75H12C11.3142 6.75 10.75 6.18579 10.75 5.5V2.5C10.75 1.81421 11.3142 1.25 12 1.25H16C16.6858 1.25 17.25 1.81421 17.25 2.5Z" fill="#5CA9FF" stroke="#5CA9FF" stroke-width="1.5"/>
</svg>