<svg width="36" height="15" viewBox="0 0 36 15" fill="none" xmlns="http://www.w3.org/2000/svg">
<path d="M2.29688 3.54688H4.17969L4.08594 6.52344C4.0599 7.38802 3.96094 8.13021 3.78906 8.75C3.61719 9.36979 3.39323 9.89323 3.11719 10.3203C2.84115 10.7422 2.52865 11.0885 2.17969 11.3594C1.83594 11.6302 1.47396 11.8438 1.09375 12H0.539062V10.5156L0.804688 10.5C1.02865 10.2604 1.22135 10.0208 1.38281 9.78125C1.54948 9.53646 1.6901 9.26823 1.80469 8.97656C1.91927 8.67969 2.00781 8.33333 2.07031 7.9375C2.13802 7.54167 2.18229 7.07031 2.20312 6.52344L2.29688 3.54688ZM2.79688 3.54688H8.15625V12H6.28125V5.14062H2.79688V3.54688ZM0.109375 10.5H9.3125V14.5156H7.42969V12H2.01562V14.5156H0.101562L0.109375 10.5ZM16.3828 7.07812V8.5625H12.0078V7.07812H16.3828ZM12.5547 3.54688V12H10.6719V3.54688H12.5547ZM17.7422 3.54688V12H15.8594V3.54688H17.7422ZM23.4766 12.1562C22.8516 12.1562 22.2865 12.0547 21.7812 11.8516C21.2812 11.6432 20.8542 11.3542 20.5 10.9844C20.151 10.6146 19.8828 10.1797 19.6953 9.67969C19.5078 9.17969 19.4141 8.64062 19.4141 8.0625V7.75C19.4141 7.08854 19.5104 6.48958 19.7031 5.95312C19.8958 5.41667 20.1641 4.95833 20.5078 4.57812C20.8516 4.19271 21.2578 3.89844 21.7266 3.69531C22.1953 3.49219 22.7031 3.39062 23.25 3.39062C23.8542 3.39062 24.3828 3.49219 24.8359 3.69531C25.2891 3.89844 25.6641 4.1849 25.9609 4.55469C26.263 4.91927 26.487 5.35417 26.6328 5.85938C26.7839 6.36458 26.8594 6.92188 26.8594 7.53125V8.33594H20.3281V6.98438H25V6.83594C24.9896 6.4974 24.9219 6.17969 24.7969 5.88281C24.6771 5.58594 24.4922 5.34635 24.2422 5.16406C23.9922 4.98177 23.6589 4.89062 23.2422 4.89062C22.9297 4.89062 22.651 4.95833 22.4062 5.09375C22.1667 5.22396 21.9661 5.41406 21.8047 5.66406C21.6432 5.91406 21.5182 6.21615 21.4297 6.57031C21.3464 6.91927 21.3047 7.3125 21.3047 7.75V8.0625C21.3047 8.43229 21.3542 8.77604 21.4531 9.09375C21.5573 9.40625 21.7083 9.67969 21.9062 9.91406C22.1042 10.1484 22.3438 10.3333 22.625 10.4688C22.9062 10.599 23.2266 10.6641 23.5859 10.6641C24.0391 10.6641 24.4427 10.5729 24.7969 10.3906C25.151 10.2083 25.4583 9.95052 25.7188 9.61719L26.7109 10.5781C26.5286 10.8438 26.2917 11.099 26 11.3438C25.7083 11.5833 25.3516 11.7786 24.9297 11.9297C24.513 12.0807 24.0286 12.1562 23.4766 12.1562ZM30.2734 9.25L33.5938 3.54688H35.4766V12H33.5938V6.28906L30.2734 12H28.3906V3.54688H30.2734V9.25ZM33.0938 0.296875H34.4922C34.4922 0.729167 34.388 1.11198 34.1797 1.44531C33.9766 1.77344 33.6849 2.03125 33.3047 2.21875C32.9297 2.40625 32.4818 2.5 31.9609 2.5C31.1745 2.5 30.5521 2.29688 30.0938 1.89062C29.6406 1.47917 29.4141 0.947917 29.4141 0.296875H30.8125C30.8125 0.588542 30.8984 0.846354 31.0703 1.07031C31.2474 1.28906 31.5443 1.39844 31.9609 1.39844C32.3724 1.39844 32.6641 1.28906 32.8359 1.07031C33.0078 0.846354 33.0938 0.588542 33.0938 0.296875Z" fill="#001A34" fill-opacity="0.5"/>
</svg>
