<svg width="48" height="48" viewBox="0 0 48 48" fill="none" xmlns="http://www.w3.org/2000/svg">
<path d="M32.1662 32.8828C32.1662 33.0319 32.1662 33.1509 32.1662 33.2698C32.1553 36.4177 32.1434 39.5661 32.1305 42.7149C32.1305 43.0264 32.0965 43.3373 32.0777 43.6482C32.0074 44.78 31.3377 45.5159 30.4123 46.0405C30.1293 46.2011 29.7547 46.256 29.4202 46.2639C27.2383 46.3152 25.0565 46.3671 22.8783 46.3689C17.4753 46.3744 12.0723 46.355 6.66926 46.3393C6.10441 46.3393 5.54017 46.279 4.97229 46.2735C3.50259 46.2578 2.37896 44.7088 2.36138 43.6584C2.33471 42.0997 2.29472 40.541 2.29411 38.9824C2.29088 29.1223 2.29451 19.2641 2.30502 9.40774C2.30502 8.18107 2.35471 6.9544 2.41774 5.72955C2.48138 4.47994 3.68077 3.26354 4.93774 3.2249C6.94562 3.16454 8.95593 3.14643 10.965 3.14099C15.9844 3.12852 21.0038 3.1257 26.0232 3.13254C27.0426 3.13254 28.0626 3.15548 29.0826 3.17359C30.248 3.19472 31.1262 3.7169 31.7335 4.7027C32.0365 5.19167 32.1111 5.74041 32.119 6.297C32.1414 7.82551 32.1571 9.35461 32.1583 10.8849C32.1583 11.156 32.219 11.2435 32.508 11.2435C36.0232 11.2435 39.5383 11.2707 43.0535 11.2671C44.108 11.2671 44.8238 11.782 45.362 12.6145C45.5973 12.9775 45.7178 13.4025 45.708 13.8345C45.6893 18.9549 45.6905 24.0746 45.6838 29.195C45.6838 29.5771 45.6565 29.9592 45.6571 30.342C45.6571 31.4225 45.005 32.0679 44.162 32.5882C43.8589 32.7736 43.5365 32.8243 43.1814 32.8249C39.6165 32.8321 36.0517 32.847 32.4868 32.8695C32.3965 32.8695 32.3068 32.8786 32.1662 32.8828ZM5.00199 5.85149V6.43766C5.00199 16.8993 5.00199 27.361 5.00199 37.8227C5.00199 38.2622 5.00199 38.264 5.44138 38.264C13.3202 38.264 21.1975 38.264 29.0735 38.264C29.1899 38.264 29.3062 38.2489 29.4196 38.241V32.8629H28.9711C23.6592 32.848 18.3472 32.8351 13.0353 32.8243C12.659 32.8243 12.3183 32.7603 11.9947 32.5774C11.0559 32.0467 10.4699 31.3163 10.4729 30.1729C10.485 24.7801 10.4834 19.3873 10.468 13.9945C10.468 13.4578 10.5668 12.9797 10.8541 12.5402C11.359 11.7681 12.0256 11.2677 13.002 11.2665C18.3757 11.2576 23.7495 11.2451 29.1232 11.229C29.2286 11.229 29.3335 11.2157 29.4299 11.2091V5.85149H5.00199ZM12.4983 20.0378C12.4899 20.1163 12.4783 20.1749 12.4783 20.2328C12.4893 23.3317 12.5016 26.4306 12.5153 29.5294C12.5083 29.609 12.5228 29.689 12.5571 29.7612C12.9529 30.3565 13.4056 30.8364 14.2153 30.8352C23.4274 30.8267 32.6375 30.8289 41.8456 30.8418C42.5692 30.8418 43.0577 30.54 43.4517 30.0069C43.5583 29.8639 43.6505 29.6671 43.6517 29.4944C43.6777 26.4573 43.688 23.4196 43.702 20.3819C43.702 20.2745 43.702 20.167 43.702 20.0403L12.4983 20.0378ZM43.6741 15.2724C43.805 14.1683 43.1226 13.3582 42.0547 13.3202C41.4486 13.2984 40.8426 13.2815 40.2365 13.2809C32.7117 13.2809 25.1868 13.2829 17.662 13.287C16.4002 13.287 15.1377 13.3274 13.8771 13.3878C12.9874 13.4312 12.3074 14.4025 12.5232 15.2724H43.6741ZM18.5383 42.3104C18.5347 41.4955 18.0129 40.9956 17.1705 41.0004C16.4396 41.0041 15.8808 41.5884 15.879 42.3515C15.879 43.0391 16.485 43.659 17.1596 43.6536C18.0068 43.6469 18.5426 43.1248 18.5383 42.3104Z" fill="#005AFE"/>
<path d="M20.3887 29.4378C19.7944 29.4126 19.2301 29.1707 18.8032 28.758C18.6541 28.6156 18.5608 28.6228 18.4038 28.7502C17.2657 29.6635 15.7948 29.6732 14.7675 28.7882C13.7257 27.8869 13.5499 26.362 14.3572 25.212C15.1208 24.1254 16.7038 23.7318 17.8275 24.455C18.3778 24.8094 18.7457 24.8172 19.3014 24.4756C20.4396 23.7693 21.9002 24.0723 22.7129 25.0792C23.1147 25.578 23.3249 26.203 23.3057 26.8422C23.2865 27.4814 23.0391 28.0928 22.6081 28.5667C22.0832 29.1558 21.4184 29.4474 20.3887 29.4378Z" fill="#005AFE"/>
<path d="M37.6048 22.0879C39.1401 22.0879 40.6739 22.0879 42.206 22.0879C42.6181 22.0879 42.9381 22.3722 42.9611 22.7821C42.9838 23.1842 42.9853 23.5872 42.9654 23.9895C42.943 24.4356 42.6236 24.7139 42.1775 24.7139L33.0951 24.7501C32.6102 24.7501 32.186 24.3625 32.1739 23.8826C32.1583 23.5115 32.1735 23.1398 32.2193 22.7713C32.2884 22.2943 32.5223 22.1126 33.0036 22.1114C34.5369 22.106 36.0708 22.1114 37.6048 22.1114V22.0879Z" fill="#005AFE"/>
</svg>
