<svg width="32" height="32" viewBox="0 0 32 32" fill="none" xmlns="http://www.w3.org/2000/svg">
<g clip-path="url(#clip0_300_2046)">
<path d="M18.6668 3.02588V8.53327C18.6668 9.28 18.6668 9.65337 18.8122 9.93859C18.94 10.1895 19.144 10.3934 19.3948 10.5213C19.6801 10.6666 20.0534 10.6666 20.8002 10.6666H26.3075M21.3335 17.3332H10.6668M21.3335 22.6665H10.6668M13.3335 11.9998H10.6668M18.6668 2.6665H11.7335C9.49329 2.6665 8.37318 2.6665 7.51753 3.10248C6.76489 3.48597 6.15296 4.09789 5.76947 4.85054C5.3335 5.70619 5.3335 6.82629 5.3335 9.0665V22.9332C5.3335 25.1734 5.3335 26.2935 5.76947 27.1491C6.15296 27.9018 6.76489 28.5137 7.51753 28.8972C8.37318 29.3332 9.49329 29.3332 11.7335 29.3332H20.2668C22.507 29.3332 23.6271 29.3332 24.4828 28.8972C25.2354 28.5137 25.8474 27.9018 26.2309 27.1491C26.6668 26.2935 26.6668 25.1734 26.6668 22.9332V10.6665L18.6668 2.6665Z" stroke="#005AFE" stroke-width="2" stroke-linecap="round" stroke-linejoin="round"/>
</g>
<defs>
<clipPath id="clip0_300_2046">
<rect width="32" height="32" fill="white"/>
</clipPath>
</defs>
</svg>
