<svg width="56" height="56" viewBox="0 0 56 56" fill="none" xmlns="http://www.w3.org/2000/svg">
<circle cx="28" cy="28" r="28" fill="url(#paint0_linear_37077_8949)"/>
<circle cx="28" cy="28" r="21" fill="#F6F7FA"/>
<path d="M35.6198 18.4333C36.2664 18.4333 36.9069 18.4333 37.5454 18.4333C38.4952 18.4366 38.861 18.7622 38.8617 19.5949C38.8617 26.1627 38.8617 32.7307 38.8617 39.299C38.8653 39.5347 38.8137 39.7685 38.7101 39.9858C38.538 40.3213 38.2275 40.5005 37.774 40.5C32.3604 40.4945 26.9465 40.4945 21.5325 40.5C20.8852 40.5 20.4374 40.1409 20.4144 39.5648C20.3927 39.0358 20.4144 38.5052 20.4144 37.9751C20.4144 37.8759 20.4144 37.7767 20.4144 37.6462C20.2554 37.6391 20.1163 37.6281 19.9796 37.6276C19.4721 37.6276 18.9652 37.6276 18.4578 37.6276C17.4918 37.6182 17.1328 37.2893 17.1328 36.4369C17.1328 29.8687 17.1328 23.3007 17.1328 16.7328C17.1327 16.5688 17.1478 16.4051 17.1782 16.2433C17.2515 15.8596 17.5111 15.6228 17.9434 15.5477C18.1157 15.5179 18.2909 15.5024 18.4664 15.5016C23.7351 15.4995 29.004 15.4995 34.2731 15.5016C35.2142 15.5016 35.5813 15.8305 35.5825 16.6704C35.5825 17.2273 35.5838 17.7844 35.5863 18.3417C35.5942 18.3731 35.6055 18.4037 35.6198 18.4333ZM19.2578 35.7314H33.4532V17.3841H19.2578V35.7314ZM35.5869 20.3064V32.62C35.5869 33.9356 35.59 35.2512 35.5869 36.5669C35.5869 37.2373 35.2409 37.5623 34.493 37.6117C34.2663 37.6265 34.0377 37.627 33.8098 37.627H22.881C22.7723 37.627 22.6636 37.6374 22.5574 37.6429V38.6231H36.7373V20.3064H35.5869Z" fill="url(#paint1_linear_37077_8949)"/>
<path d="M26.3512 27.4945C24.7691 27.4945 23.187 27.4945 21.6043 27.4945C20.9104 27.4945 20.4576 27.1623 20.4172 26.6404C20.38 26.1558 20.6713 25.776 21.2328 25.6981C21.6981 25.6329 22.1795 25.6433 22.6534 25.64C25.4768 25.6356 28.3002 25.6356 31.1236 25.64C31.8739 25.64 32.3609 26.0539 32.3112 26.6317C32.2665 27.1552 31.8143 27.4934 31.131 27.495C29.5371 27.4972 27.942 27.4945 26.3512 27.4945Z" fill="url(#paint2_linear_37077_8949)"/>
<path d="M26.3653 24.6038C24.7621 24.6038 23.1583 24.6038 21.5551 24.6038C20.8885 24.6038 20.4196 24.2327 20.4065 23.7136C20.3947 23.2367 20.7612 22.8168 21.301 22.7883C22.0427 22.7493 22.7887 22.7658 23.5322 22.7641C25.9837 22.759 28.4352 22.7557 30.8868 22.7543C31.0528 22.7521 31.2188 22.7596 31.3837 22.7768C31.9514 22.8409 32.3347 23.2273 32.3154 23.7048C32.3119 23.9409 32.2043 24.1665 32.0154 24.3338C31.8264 24.501 31.5711 24.5967 31.3036 24.6005C30.9632 24.6148 30.6203 24.6033 30.2799 24.6033H26.3666L26.3653 24.6038Z" fill="url(#paint3_linear_37077_8949)"/>
<path d="M26.3865 30.3654C24.7714 30.3654 23.1602 30.3654 21.5464 30.3654C20.8935 30.3654 20.4283 30.0036 20.4084 29.4987C20.3993 29.3753 20.419 29.2516 20.4663 29.1352C20.5137 29.0188 20.5876 28.9122 20.6835 28.822C20.7794 28.7319 20.8953 28.6601 21.024 28.6111C21.1526 28.5621 21.2913 28.537 21.4315 28.5372C22.093 28.523 22.7552 28.5323 23.4192 28.5323C25.9945 28.5323 28.5696 28.5323 31.1446 28.5323C31.8341 28.5323 32.3105 28.899 32.3155 29.4242C32.3204 29.9625 31.8719 30.3604 31.2284 30.3637C29.8426 30.3703 28.4568 30.3637 27.071 30.3637L26.3865 30.3654Z" fill="url(#paint4_linear_37077_8949)"/>
<path d="M23.9182 19.8802C24.7257 19.8802 25.5332 19.8665 26.3364 19.8835C27.206 19.9016 27.6886 20.6449 27.2607 21.2731C27.1817 21.3918 27.072 21.4921 26.9404 21.5659C26.8089 21.6397 26.6593 21.6848 26.5041 21.6974C26.2577 21.7199 26.0101 21.7298 25.7624 21.727C24.4402 21.7303 23.1177 21.7303 21.7951 21.727C21.6705 21.7275 21.5461 21.7217 21.4224 21.7095C20.7645 21.6437 20.3881 21.2786 20.4155 20.7365C20.4403 20.2497 20.8776 19.8901 21.4988 19.8802C22.3063 19.8704 23.1119 19.8802 23.9182 19.8802Z" fill="url(#paint5_linear_37077_8949)"/>
<path d="M29.6133 33.254C29.086 33.254 28.5574 33.2649 28.0306 33.2507C27.5144 33.237 27.133 32.9826 26.9958 32.5929C26.8672 32.2283 26.984 31.8254 27.3505 31.622C27.5739 31.4952 27.8306 31.4214 28.0958 31.4077C29.1189 31.3836 30.1457 31.3891 31.1675 31.3995C31.8446 31.4061 32.2924 31.7744 32.303 32.2996C32.3142 32.8478 31.8862 33.2205 31.1936 33.2507C30.9252 33.2622 30.6557 33.2545 30.3861 33.2551H29.6133V33.254Z" fill="url(#paint6_linear_37077_8949)"/>
<defs>
<linearGradient id="paint0_linear_37077_8949" x1="28" y1="0" x2="28" y2="56" gradientUnits="userSpaceOnUse">
<stop stop-color="#005AFE"/>
<stop offset="1" stop-color="#0647BD"/>
</linearGradient>
<linearGradient id="paint1_linear_37077_8949" x1="27.9973" y1="15.5" x2="27.9973" y2="40.5" gradientUnits="userSpaceOnUse">
<stop stop-color="#005AFE"/>
<stop offset="1" stop-color="#0647BD"/>
</linearGradient>
<linearGradient id="paint2_linear_37077_8949" x1="26.3644" y1="25.6367" x2="26.3644" y2="27.4959" gradientUnits="userSpaceOnUse">
<stop stop-color="#005AFE"/>
<stop offset="1" stop-color="#0647BD"/>
</linearGradient>
<linearGradient id="paint3_linear_37077_8949" x1="26.3612" y1="22.7539" x2="26.3612" y2="24.6077" gradientUnits="userSpaceOnUse">
<stop stop-color="#005AFE"/>
<stop offset="1" stop-color="#0647BD"/>
</linearGradient>
<linearGradient id="paint4_linear_37077_8949" x1="26.3609" y1="28.5293" x2="26.3609" y2="30.3667" gradientUnits="userSpaceOnUse">
<stop stop-color="#005AFE"/>
<stop offset="1" stop-color="#0647BD"/>
</linearGradient>
<linearGradient id="paint5_linear_37077_8949" x1="23.9166" y1="19.875" x2="23.9166" y2="21.7295" gradientUnits="userSpaceOnUse">
<stop stop-color="#005AFE"/>
<stop offset="1" stop-color="#0647BD"/>
</linearGradient>
<linearGradient id="paint6_linear_37077_8949" x1="29.6242" y1="31.3906" x2="29.6242" y2="33.258" gradientUnits="userSpaceOnUse">
<stop stop-color="#005AFE"/>
<stop offset="1" stop-color="#0647BD"/>
</linearGradient>
</defs>
</svg>
