<svg width="32" height="32" viewBox="0 0 32 32" fill="none" xmlns="http://www.w3.org/2000/svg">
<g clip-path="url(#clip0_68584_841)">
<path d="M10.6664 22.9338H9.59974C9.45829 22.9338 9.32263 22.99 9.22262 23.09C9.1226 23.19 9.06641 23.3257 9.06641 23.4671C9.06641 23.6086 9.1226 23.7442 9.22262 23.8442C9.32263 23.9443 9.45829 24.0005 9.59974 24.0005H10.6664C10.8079 24.0005 10.9435 23.9443 11.0435 23.8442C11.1435 23.7442 11.1997 23.6086 11.1997 23.4671C11.1997 23.3257 11.1435 23.19 11.0435 23.09C10.9435 22.99 10.8079 22.9338 10.6664 22.9338ZM25.5997 22.9338H12.7997C12.6583 22.9338 12.5226 22.99 12.4226 23.09C12.3226 23.19 12.2664 23.3257 12.2664 23.4671C12.2664 23.6086 12.3226 23.7442 12.4226 23.8442C12.5226 23.9443 12.6583 24.0005 12.7997 24.0005H25.5997C25.7412 24.0005 25.8768 23.9443 25.9769 23.8442C26.0769 23.7442 26.1331 23.6086 26.1331 23.4671C26.1331 23.3257 26.0769 23.19 25.9769 23.09C25.8768 22.99 25.7412 22.9338 25.5997 22.9338ZM10.6664 19.7338H9.59974C9.45829 19.7338 9.32263 19.79 9.22262 19.89C9.1226 19.99 9.06641 20.1257 9.06641 20.2671C9.06641 20.4086 9.1226 20.5442 9.22262 20.6442C9.32263 20.7443 9.45829 20.8005 9.59974 20.8005H10.6664C10.8079 20.8005 10.9435 20.7443 11.0435 20.6442C11.1435 20.5442 11.1997 20.4086 11.1997 20.2671C11.1997 20.1257 11.1435 19.99 11.0435 19.89C10.9435 19.79 10.8079 19.7338 10.6664 19.7338ZM25.5997 19.7338H12.7997C12.6583 19.7338 12.5226 19.79 12.4226 19.89C12.3226 19.99 12.2664 20.1257 12.2664 20.2671C12.2664 20.4086 12.3226 20.5442 12.4226 20.6442C12.5226 20.7443 12.6583 20.8005 12.7997 20.8005H25.5997C25.7412 20.8005 25.8768 20.7443 25.9769 20.6442C26.0769 20.5442 26.1331 20.4086 26.1331 20.2671C26.1331 20.1257 26.0769 19.99 25.9769 19.89C25.8768 19.79 25.7412 19.7338 25.5997 19.7338ZM10.6664 16.5338H9.59974C9.45829 16.5338 9.32263 16.59 9.22262 16.69C9.1226 16.79 9.06641 16.9257 9.06641 17.0671C9.06641 17.2086 9.1226 17.3442 9.22262 17.4442C9.32263 17.5443 9.45829 17.6005 9.59974 17.6005H10.6664C10.8079 17.6005 10.9435 17.5443 11.0435 17.4442C11.1435 17.3442 11.1997 17.2086 11.1997 17.0671C11.1997 16.9257 11.1435 16.79 11.0435 16.69C10.9435 16.59 10.8079 16.5338 10.6664 16.5338ZM25.5997 16.5338H12.7997C12.6583 16.5338 12.5226 16.59 12.4226 16.69C12.3226 16.79 12.2664 16.9257 12.2664 17.0671C12.2664 17.2086 12.3226 17.3442 12.4226 17.4442C12.5226 17.5443 12.6583 17.6005 12.7997 17.6005H25.5997C25.7412 17.6005 25.8768 17.5443 25.9769 17.4442C26.0769 17.3442 26.1331 17.2086 26.1331 17.0671C26.1331 16.9257 26.0769 16.79 25.9769 16.69C25.8768 16.59 25.7412 16.5338 25.5997 16.5338ZM10.6664 13.3338H9.59974C9.45829 13.3338 9.32263 13.39 9.22262 13.49C9.1226 13.59 9.06641 13.7257 9.06641 13.8671C9.06641 14.0086 9.1226 14.1442 9.22262 14.2442C9.32263 14.3443 9.45829 14.4005 9.59974 14.4005H10.6664C10.8079 14.4005 10.9435 14.3443 11.0435 14.2442C11.1435 14.1442 11.1997 14.0086 11.1997 13.8671C11.1997 13.7257 11.1435 13.59 11.0435 13.49C10.9435 13.39 10.8079 13.3338 10.6664 13.3338ZM25.5997 13.3338H12.7997C12.6583 13.3338 12.5226 13.39 12.4226 13.49C12.3226 13.59 12.2664 13.7257 12.2664 13.8671C12.2664 14.0086 12.3226 14.1442 12.4226 14.2442C12.5226 14.3443 12.6583 14.4005 12.7997 14.4005H25.5997C25.7412 14.4005 25.8768 14.3443 25.9769 14.2442C26.0769 14.1442 26.1331 14.0086 26.1331 13.8671C26.1331 13.7257 26.0769 13.59 25.9769 13.49C25.8768 13.39 25.7412 13.3338 25.5997 13.3338ZM10.6664 10.1338H9.59974C9.45829 10.1338 9.32263 10.19 9.22262 10.29C9.1226 10.39 9.06641 10.5257 9.06641 10.6671C9.06641 10.8086 9.1226 10.9442 9.22262 11.0442C9.32263 11.1443 9.45829 11.2005 9.59974 11.2005H10.6664C10.8079 11.2005 10.9435 11.1443 11.0435 11.0442C11.1435 10.9442 11.1997 10.8086 11.1997 10.6671C11.1997 10.5257 11.1435 10.39 11.0435 10.29C10.9435 10.19 10.8079 10.1338 10.6664 10.1338ZM25.5997 10.1338H12.7997C12.6583 10.1338 12.5226 10.19 12.4226 10.29C12.3226 10.39 12.2664 10.5257 12.2664 10.6671C12.2664 10.8086 12.3226 10.9442 12.4226 11.0442C12.5226 11.1443 12.6583 11.2005 12.7997 11.2005H25.5997C25.7412 11.2005 25.8768 11.1443 25.9769 11.0442C26.0769 10.9442 26.1331 10.8086 26.1331 10.6671C26.1331 10.5257 26.0769 10.39 25.9769 10.29C25.8768 10.19 25.7412 10.1338 25.5997 10.1338Z" fill="#005AFE"/>
<path d="M29.3258 7.9664C29.3231 7.91967 29.3139 7.87354 29.2986 7.82933C29.2927 7.81227 29.2884 7.79573 29.281 7.7792C29.255 7.72117 29.2189 7.66825 29.1743 7.62293L21.7076 0.156267C21.6623 0.11168 21.6094 0.0755557 21.5513 0.0496C21.5348 0.0421333 21.5183 0.0378667 21.5018 0.032C21.4571 0.0166625 21.4107 0.00733606 21.3636 0.00426667C21.3545 0.00586667 21.3444 0 21.3327 0H6.39935C6.2579 0 6.12225 0.0561903 6.02223 0.15621C5.92221 0.256229 5.86602 0.391885 5.86602 0.533333V2.13333H3.19935C3.0579 2.13333 2.92224 2.18952 2.82223 2.28954C2.72221 2.38956 2.66602 2.52522 2.66602 2.66667V31.4667C2.66602 31.6081 2.72221 31.7438 2.82223 31.8438C2.92224 31.9438 3.0579 32 3.19935 32H25.5993C25.7408 32 25.8765 31.9438 25.9765 31.8438C26.0765 31.7438 26.1327 31.6081 26.1327 31.4667V28.8H28.7994C28.9408 28.8 29.0765 28.7438 29.1765 28.6438C29.2765 28.5438 29.3327 28.4081 29.3327 28.2667V8C29.3327 7.98827 29.3268 7.97813 29.3258 7.9664ZM21.866 1.8208L27.5119 7.46667H21.866V1.8208ZM25.066 30.9333H3.73268V3.2H5.86602V28.2667C5.86602 28.4081 5.92221 28.5438 6.02223 28.6438C6.12225 28.7438 6.2579 28.8 6.39935 28.8H25.066V30.9333ZM28.266 27.7333H6.93268V1.06667H20.7994V8C20.7994 8.14145 20.8555 8.2771 20.9556 8.37712C21.0556 8.47714 21.1912 8.53333 21.3327 8.53333H28.266V27.7333Z" fill="#005AFE"/>
<path d="M12.7997 4.7998H9.59974C9.45829 4.7998 9.32263 4.856 9.22262 4.95601C9.1226 5.05603 9.06641 5.19169 9.06641 5.33314V8.53314C9.06641 8.67459 9.1226 8.81024 9.22262 8.91026C9.32263 9.01028 9.45829 9.06647 9.59974 9.06647H12.7997C12.9412 9.06647 13.0768 9.01028 13.1769 8.91026C13.2769 8.81024 13.3331 8.67459 13.3331 8.53314V5.33314C13.3331 5.19169 13.2769 5.05603 13.1769 4.95601C13.0768 4.856 12.9412 4.7998 12.7997 4.7998ZM12.2664 7.9998H10.1331V5.86647H12.2664V7.9998Z" fill="#005AFE"/>
</g>
<defs>
<clipPath id="clip0_68584_841">
<rect width="32" height="32" fill="white"/>
</clipPath>
</defs>
</svg>
