<svg width="29" height="13" viewBox="0 0 29 13" fill="none" xmlns="http://www.w3.org/2000/svg">
<path d="M6.53906 0.625H8.49219V8.22656C8.49219 9.09115 8.30469 9.8151 7.92969 10.3984C7.55469 10.9818 7.04427 11.4219 6.39844 11.7188C5.75781 12.0104 5.04167 12.1562 4.25 12.1562C3.43229 12.1562 2.70312 12.0104 2.0625 11.7188C1.42188 11.4219 0.916667 10.9818 0.546875 10.3984C0.182292 9.8151 0 9.09115 0 8.22656V0.625H1.95312V8.22656C1.95312 8.77344 2.04688 9.22396 2.23438 9.57812C2.42188 9.92708 2.6875 10.1849 3.03125 10.3516C3.375 10.5182 3.78125 10.6016 4.25 10.6016C4.71875 10.6016 5.1224 10.5182 5.46094 10.3516C5.80469 10.1849 6.07031 9.92708 6.25781 9.57812C6.44531 9.22396 6.53906 8.77344 6.53906 8.22656V0.625ZM16.6094 9.07031C16.6094 8.83594 16.5729 8.6276 16.5 8.44531C16.4323 8.26302 16.3099 8.09635 16.1328 7.94531C15.9557 7.79427 15.7057 7.64844 15.3828 7.50781C15.0651 7.36198 14.6589 7.21354 14.1641 7.0625C13.6224 6.89583 13.1224 6.71094 12.6641 6.50781C12.2109 6.29948 11.8151 6.0599 11.4766 5.78906C11.138 5.51302 10.875 5.19792 10.6875 4.84375C10.5 4.48438 10.4062 4.07031 10.4062 3.60156C10.4062 3.13802 10.5026 2.71615 10.6953 2.33594C10.8932 1.95573 11.1719 1.6276 11.5312 1.35156C11.8958 1.07031 12.3255 0.854167 12.8203 0.703125C13.3151 0.546875 13.862 0.46875 14.4609 0.46875C15.3047 0.46875 16.0312 0.625 16.6406 0.9375C17.2552 1.25 17.7266 1.66927 18.0547 2.19531C18.388 2.72135 18.5547 3.30208 18.5547 3.9375H16.6094C16.6094 3.5625 16.5286 3.23177 16.3672 2.94531C16.2109 2.65365 15.9714 2.42448 15.6484 2.25781C15.3307 2.09115 14.9271 2.00781 14.4375 2.00781C13.974 2.00781 13.5885 2.07812 13.2812 2.21875C12.974 2.35938 12.7448 2.54948 12.5938 2.78906C12.4427 3.02865 12.3672 3.29948 12.3672 3.60156C12.3672 3.8151 12.4167 4.01042 12.5156 4.1875C12.6146 4.35938 12.7656 4.52083 12.9688 4.67188C13.1719 4.81771 13.4271 4.95573 13.7344 5.08594C14.0417 5.21615 14.4036 5.34115 14.8203 5.46094C15.4505 5.64844 16 5.85677 16.4688 6.08594C16.9375 6.3099 17.3281 6.5651 17.6406 6.85156C17.9531 7.13802 18.1875 7.46354 18.3438 7.82812C18.5 8.1875 18.5781 8.59635 18.5781 9.05469C18.5781 9.53385 18.4818 9.96615 18.2891 10.3516C18.0964 10.7318 17.8203 11.0573 17.4609 11.3281C17.1068 11.5938 16.6797 11.7995 16.1797 11.9453C15.6849 12.0859 15.1328 12.1562 14.5234 12.1562C13.9766 12.1562 13.4375 12.0833 12.9062 11.9375C12.3802 11.7917 11.901 11.5703 11.4688 11.2734C11.0365 10.9714 10.6927 10.5964 10.4375 10.1484C10.1823 9.69531 10.0547 9.16667 10.0547 8.5625H12.0156C12.0156 8.93229 12.0781 9.2474 12.2031 9.50781C12.3333 9.76823 12.513 9.98177 12.7422 10.1484C12.9714 10.3099 13.237 10.4297 13.5391 10.5078C13.8464 10.5859 14.1745 10.625 14.5234 10.625C14.9818 10.625 15.3646 10.5599 15.6719 10.4297C15.9844 10.2995 16.2188 10.1172 16.375 9.88281C16.5312 9.64844 16.6094 9.3776 16.6094 9.07031ZM23.6172 12H21.1875L21.2031 10.4453H23.6172C24.3203 10.4453 24.9089 10.2917 25.3828 9.98438C25.862 9.67708 26.2214 9.23698 26.4609 8.66406C26.7057 8.09115 26.8281 7.40885 26.8281 6.61719V6C26.8281 5.38542 26.7578 4.84115 26.6172 4.36719C26.4818 3.89323 26.2786 3.49479 26.0078 3.17188C25.7422 2.84896 25.4141 2.60417 25.0234 2.4375C24.638 2.27083 24.1927 2.1875 23.6875 2.1875H21.1406V0.625H23.6875C24.4427 0.625 25.1328 0.752604 25.7578 1.00781C26.3828 1.25781 26.9219 1.61979 27.375 2.09375C27.8333 2.56771 28.1849 3.13542 28.4297 3.79688C28.6745 4.45833 28.7969 5.19792 28.7969 6.01562V6.61719C28.7969 7.4349 28.6745 8.17448 28.4297 8.83594C28.1849 9.4974 27.8333 10.0651 27.375 10.5391C26.9167 11.0078 26.3698 11.3698 25.7344 11.625C25.1042 11.875 24.3984 12 23.6172 12ZM22.2734 0.625V12H20.3125V0.625H22.2734Z" fill="#4D5F71"/>
</svg>

