<svg width="40" height="40" viewBox="0 0 40 40" fill="none" xmlns="http://www.w3.org/2000/svg">
<circle cx="20" cy="20" r="20" fill="url(#paint0_linear_1832_700)"/>
<circle cx="20" cy="20" r="15" fill="#F6F7FA"/>
<path d="M21.2725 13.4678V15.4844H20.2061V13.4678H21.2725ZM21.1426 24.6309V26.4697H20.0762V24.6309H21.1426ZM21.8945 22.3887C21.8945 22.1289 21.8467 21.9079 21.751 21.7256C21.6598 21.5433 21.5094 21.3815 21.2998 21.2402C21.0947 21.099 20.8167 20.9622 20.4658 20.8301C19.8734 20.6022 19.3516 20.3607 18.9004 20.1055C18.4538 19.8457 18.1051 19.5244 17.8545 19.1416C17.6038 18.7542 17.4785 18.2643 17.4785 17.6719C17.4785 17.1068 17.613 16.6169 17.8818 16.2021C18.1507 15.7874 18.5221 15.4684 18.9961 15.2451C19.4746 15.0173 20.0306 14.9033 20.6641 14.9033C21.1471 14.9033 21.5846 14.9762 21.9766 15.1221C22.3685 15.2633 22.7057 15.473 22.9883 15.751C23.2708 16.0244 23.4873 16.3594 23.6377 16.7559C23.7881 17.1523 23.8633 17.6058 23.8633 18.1162H21.9014C21.9014 17.8428 21.8717 17.6012 21.8125 17.3916C21.7533 17.182 21.6667 17.0065 21.5527 16.8652C21.4434 16.724 21.3112 16.6191 21.1562 16.5508C21.0013 16.4779 20.8304 16.4414 20.6436 16.4414C20.3656 16.4414 20.1377 16.4961 19.96 16.6055C19.7822 16.7148 19.6523 16.863 19.5703 17.0498C19.4928 17.2321 19.4541 17.4417 19.4541 17.6787C19.4541 17.9111 19.4951 18.1139 19.5771 18.2871C19.6637 18.4603 19.8118 18.6198 20.0215 18.7656C20.2311 18.9069 20.5182 19.0527 20.8828 19.2031C21.4753 19.431 21.9948 19.6771 22.4414 19.9414C22.888 20.2057 23.2367 20.5293 23.4873 20.9121C23.738 21.2949 23.8633 21.7826 23.8633 22.375C23.8633 22.9629 23.7266 23.4642 23.4531 23.8789C23.1797 24.2891 22.7969 24.6035 22.3047 24.8223C21.8125 25.0365 21.2428 25.1436 20.5957 25.1436C20.1764 25.1436 19.7594 25.0889 19.3447 24.9795C18.93 24.8656 18.554 24.6833 18.2168 24.4326C17.8796 24.182 17.6107 23.8493 17.4102 23.4346C17.2096 23.0153 17.1094 22.5003 17.1094 21.8896H19.0781C19.0781 22.2223 19.1214 22.5003 19.208 22.7236C19.2946 22.9424 19.4085 23.1178 19.5498 23.25C19.6956 23.3776 19.8597 23.4687 20.042 23.5234C20.2243 23.5781 20.4089 23.6055 20.5957 23.6055C20.8874 23.6055 21.1266 23.5531 21.3135 23.4482C21.5049 23.3434 21.6484 23.1999 21.7441 23.0176C21.8444 22.8307 21.8945 22.6211 21.8945 22.3887Z" fill="url(#paint1_linear_1832_700)"/>
<defs>
<linearGradient id="paint0_linear_1832_700" x1="20" y1="0" x2="20" y2="40" gradientUnits="userSpaceOnUse">
<stop stop-color="#005AFE"/>
<stop offset="1" stop-color="#0647BD"/>
</linearGradient>
<linearGradient id="paint1_linear_1832_700" x1="20.5" y1="15" x2="20.5" y2="25" gradientUnits="userSpaceOnUse">
<stop stop-color="#005AFE"/>
<stop offset="1" stop-color="#0647BD"/>
</linearGradient>
</defs>
</svg>
