<svg width="28" height="24" viewBox="0 0 28 24" fill="none" xmlns="http://www.w3.org/2000/svg">
<path d="M14 12C14 11.9124 13.9857 11.8295 13.9571 11.7512C13.9284 11.6774 13.8855 11.6083 13.8282 11.5438L8.96319 6.18664C8.85276 6.06221 8.71984 6 8.56442 6C8.45808 6 8.36401 6.02765 8.28221 6.08295C8.19632 6.13825 8.12883 6.21429 8.07975 6.31106C8.02658 6.40323 8 6.50922 8 6.62903C8 6.79954 8.05521 6.94931 8.16564 7.07834L12.6319 12L8.16564 16.9217C8.05521 17.0507 8 17.2005 8 17.371C8 17.4908 8.02658 17.5968 8.07975 17.6889C8.12883 17.7857 8.19632 17.8618 8.28221 17.9171C8.36401 17.9724 8.45808 18 8.56442 18C8.71984 18 8.85276 17.9401 8.96319 17.8203L13.8282 12.4562C13.8855 12.3917 13.9284 12.3203 13.9571 12.2419C13.9857 12.1682 14 12.0876 14 12Z" fill="#001A34" fill-opacity="0.5"/>
<path d="M14.1919 11.6653L14.1919 11.6653L14.1901 11.6607C14.1498 11.5568 14.0904 11.4625 14.0152 11.3778L14.0152 11.3778L14.0133 11.3757L9.14915 6.01954C8.99519 5.84663 8.79629 5.75 8.56442 5.75C8.41315 5.75 8.27035 5.78991 8.14456 5.87425C8.02199 5.95374 7.92709 6.06174 7.85982 6.19207C7.78443 6.32529 7.75 6.47332 7.75 6.62903C7.75 6.85889 7.82635 7.06637 7.97571 7.24089L7.97563 7.24096L7.98051 7.24634L12.2943 12L7.98051 16.7537L7.98043 16.7536L7.97571 16.7591C7.82635 16.9336 7.75 17.1411 7.75 17.371C7.75 17.5267 7.78443 17.6747 7.85982 17.8079C7.92709 17.9383 8.02199 18.0463 8.14455 18.1258C8.27034 18.2101 8.41315 18.25 8.56442 18.25C8.7934 18.25 8.99184 18.1581 9.14702 17.9897L9.14837 17.9882L14.0134 12.6242L14.0134 12.6242L14.0152 12.6222C14.092 12.5356 14.1512 12.438 14.191 12.3301C14.2314 12.2253 14.25 12.1144 14.25 12C14.25 11.8846 14.231 11.7725 14.1919 11.6653Z" stroke="#001A34" stroke-opacity="0.5" stroke-width="0.5"/>
<path d="M20 12C20 11.9124 19.9857 11.8295 19.9571 11.7512C19.9284 11.6774 19.8855 11.6083 19.8282 11.5438L14.9632 6.18664C14.8528 6.06221 14.7198 6 14.5644 6C14.4581 6 14.364 6.02765 14.2822 6.08295C14.1963 6.13825 14.1288 6.21429 14.0798 6.31106C14.0266 6.40323 14 6.50922 14 6.62903C14 6.79954 14.0552 6.94931 14.1656 7.07834L18.6319 12L14.1656 16.9217C14.0552 17.0507 14 17.2005 14 17.371C14 17.4908 14.0266 17.5968 14.0798 17.6889C14.1288 17.7857 14.1963 17.8618 14.2822 17.9171C14.364 17.9724 14.4581 18 14.5644 18C14.7198 18 14.8528 17.9401 14.9632 17.8203L19.8282 12.4562C19.8855 12.3917 19.9284 12.3203 19.9571 12.2419C19.9857 12.1682 20 12.0876 20 12Z" fill="#001A34" fill-opacity="0.5"/>
<path d="M20.1919 11.6653L20.1919 11.6653L20.1901 11.6607C20.1498 11.5568 20.0904 11.4625 20.0152 11.3778L20.0152 11.3778L20.0133 11.3757L15.1492 6.01954C14.9952 5.84663 14.7963 5.75 14.5644 5.75C14.4132 5.75 14.2703 5.78991 14.1446 5.87425C14.022 5.95374 13.9271 6.06174 13.8598 6.19207C13.7844 6.32529 13.75 6.47332 13.75 6.62903C13.75 6.85889 13.8263 7.06637 13.9757 7.24089L13.9756 7.24096L13.9805 7.24634L18.2943 12L13.9805 16.7537L13.9804 16.7536L13.9757 16.7591C13.8263 16.9336 13.75 17.1411 13.75 17.371C13.75 17.5267 13.7844 17.6747 13.8598 17.8079C13.9271 17.9383 14.022 18.0463 14.1446 18.1258C14.2703 18.2101 14.4131 18.25 14.5644 18.25C14.7934 18.25 14.9918 18.1581 15.147 17.9897L15.1484 17.9882L20.0134 12.6242L20.0134 12.6242L20.0152 12.6222C20.092 12.5356 20.1512 12.438 20.191 12.3301C20.2314 12.2253 20.25 12.1144 20.25 12C20.25 11.8846 20.231 11.7725 20.1919 11.6653Z" stroke="#001A34" stroke-opacity="0.5" stroke-width="0.5"/>
</svg>
