<svg width="28" height="24" viewBox="0 0 28 24" fill="none" xmlns="http://www.w3.org/2000/svg">
<path d="M14 12C14 12.0876 14.0143 12.1705 14.0429 12.2488C14.0716 12.3226 14.1145 12.3917 14.1718 12.4562L19.0368 17.8134C19.1472 17.9378 19.2802 18 19.4356 18C19.5419 18 19.636 17.9724 19.7178 17.9171C19.8037 17.8618 19.8712 17.7857 19.9202 17.6889C19.9734 17.5968 20 17.4908 20 17.371C20 17.2005 19.9448 17.0507 19.8344 16.9217L15.3681 12L19.8344 7.07834C19.9448 6.94931 20 6.79954 20 6.62903C20 6.50922 19.9734 6.40323 19.9202 6.31106C19.8712 6.21429 19.8037 6.13825 19.7178 6.08295C19.636 6.02765 19.5419 6 19.4356 6C19.2802 6 19.1472 6.05991 19.0368 6.17972L14.1718 11.5438C14.1145 11.6083 14.0716 11.6797 14.0429 11.7581C14.0143 11.8318 14 11.9124 14 12Z" fill="#001A34" fill-opacity="0.5"/>
<path d="M13.8081 12.3347L13.8081 12.3347L13.8099 12.3393C13.8502 12.4432 13.9096 12.5375 13.9848 12.6222L13.9848 12.6222L13.9867 12.6243L18.8508 17.9805C19.0048 18.1534 19.2037 18.25 19.4356 18.25C19.5868 18.25 19.7297 18.2101 19.8554 18.1258C19.978 18.0463 20.0729 17.9383 20.1402 17.8079C20.2156 17.6747 20.25 17.5267 20.25 17.371C20.25 17.1411 20.1737 16.9336 20.0243 16.7591L20.0244 16.759L20.0195 16.7537L15.7057 12L20.0195 7.24634L20.0196 7.24642L20.0243 7.24089C20.1737 7.06638 20.25 6.85889 20.25 6.62903C20.25 6.47331 20.2156 6.32529 20.1402 6.19206C20.0729 6.06174 19.978 5.95374 19.8554 5.87425C19.7297 5.78991 19.5869 5.75 19.4356 5.75C19.2066 5.75 19.0082 5.84193 18.853 6.01029L18.8516 6.01177L13.9866 11.3758L13.9866 11.3758L13.9848 11.3778C13.908 11.4644 13.8488 11.562 13.809 11.6699C13.7686 11.7747 13.75 11.8856 13.75 12C13.75 12.1154 13.769 12.2275 13.8081 12.3347Z" stroke="#001A34" stroke-opacity="0.5" stroke-width="0.5"/>
<path d="M8 12C8 12.0876 8.01431 12.1705 8.04294 12.2488C8.07157 12.3226 8.11452 12.3917 8.17178 12.4562L13.0368 17.8134C13.1472 17.9378 13.2802 18 13.4356 18C13.5419 18 13.636 17.9724 13.7178 17.9171C13.8037 17.8618 13.8712 17.7857 13.9202 17.6889C13.9734 17.5968 14 17.4908 14 17.371C14 17.2005 13.9448 17.0507 13.8344 16.9217L9.3681 12L13.8344 7.07834C13.9448 6.94931 14 6.79954 14 6.62903C14 6.50922 13.9734 6.40323 13.9202 6.31106C13.8712 6.21429 13.8037 6.13825 13.7178 6.08295C13.636 6.02765 13.5419 6 13.4356 6C13.2802 6 13.1472 6.05991 13.0368 6.17972L8.17178 11.5438C8.11452 11.6083 8.07157 11.6797 8.04294 11.7581C8.01431 11.8318 8 11.9124 8 12Z" fill="#001A34" fill-opacity="0.5"/>
<path d="M7.80813 12.3347L7.80809 12.3347L7.8099 12.3393C7.85021 12.4432 7.90961 12.5375 7.9848 12.6222L7.98479 12.6222L7.98671 12.6243L12.8508 17.9805C13.0048 18.1534 13.2037 18.25 13.4356 18.25C13.5868 18.25 13.7297 18.2101 13.8554 18.1258C13.978 18.0463 14.0729 17.9383 14.1402 17.8079C14.2156 17.6747 14.25 17.5267 14.25 17.371C14.25 17.1411 14.1737 16.9336 14.0243 16.7591L14.0244 16.759L14.0195 16.7537L9.70569 12L14.0195 7.24634L14.0196 7.24642L14.0243 7.24089C14.1737 7.06638 14.25 6.85889 14.25 6.62903C14.25 6.47331 14.2156 6.32529 14.1402 6.19206C14.0729 6.06174 13.978 5.95374 13.8554 5.87425C13.7297 5.78991 13.5869 5.75 13.4356 5.75C13.2066 5.75 13.0082 5.84193 12.853 6.01029L12.8516 6.01177L7.9866 11.3758L7.98659 11.3758L7.9848 11.3778C7.90799 11.4644 7.84876 11.562 7.80899 11.6699C7.76865 11.7747 7.75 11.8856 7.75 12C7.75 12.1154 7.76896 12.2275 7.80813 12.3347Z" stroke="#001A34" stroke-opacity="0.5" stroke-width="0.5"/>
</svg>
