<svg width="65" height="64" viewBox="0 0 65 64" fill="none" xmlns="http://www.w3.org/2000/svg">
<path d="M32.5 64C50.1731 64 64.5 49.6731 64.5 32C64.5 14.3269 50.1731 0 32.5 0C14.8269 0 0.5 14.3269 0.5 32C0.5 49.6731 14.8269 64 32.5 64Z" fill="#005AFE"/>
<path d="M35.2341 36.3643C34.3221 36.9723 33.2627 37.2937 32.1704 37.2937C31.0782 37.2937 30.0188 36.9723 29.1068 36.3643L14.0849 26.3494C14.002 26.2939 13.9206 26.2362 13.8408 26.1763V42.5868C13.8408 44.4683 15.3677 45.9616 17.2155 45.9616H47.1252C49.0067 45.9616 50.5 44.4347 50.5 42.5868V26.1763C50.4201 26.2363 50.3385 26.2941 50.2554 26.3497L35.2341 36.3643Z" fill="#005AFE"/>
<path d="M15.2764 24.5626L30.2983 34.5776C30.8669 34.9568 31.5187 35.1463 32.1704 35.1463C32.8221 35.1463 33.4739 34.9567 34.0426 34.5776L49.0645 24.5626C49.9634 23.9637 50.5 22.9613 50.5 21.8794C50.5 20.0192 48.9866 18.5059 47.1265 18.5059H17.2144C15.3542 18.5059 13.8408 20.0193 13.8408 21.8812C13.8403 22.4119 13.9711 22.9345 14.2216 23.4024C14.472 23.8703 14.8344 24.2689 15.2764 24.5626Z" fill="#005AFE"/>
<path d="M17.7002 37.2501V39.1602C17.7002 41.8347 17.7002 43.1719 18.2379 44.1934C18.7109 45.0919 19.4656 45.8225 20.3938 46.2803C21.4491 46.8008 22.8306 46.8008 25.5935 46.8008H39.4069C42.1698 46.8008 43.5513 46.8008 44.6065 46.2803C45.5348 45.8225 46.2895 45.0919 46.7625 44.1934C47.3002 43.1719 47.3002 41.8347 47.3002 39.1602V37.2501" stroke="white" stroke-width="3" stroke-linecap="round" stroke-linejoin="round"/>
<path d="M40.7228 28.3427L32.5005 36.3016M32.5005 36.3016L24.2783 28.3427M32.5005 36.3016V17.2002" stroke="white" stroke-width="3" stroke-linecap="round" stroke-linejoin="round"/>
</svg>
