<svg width="32" height="32" viewBox="0 0 32 32" fill="none" xmlns="http://www.w3.org/2000/svg">
<mask id="mask0_4409_1089" style="mask-type:alpha" maskUnits="userSpaceOnUse" x="0" y="0" width="32" height="32">
<circle cx="16" cy="16" r="16" fill="#D9D9D9"/>
</mask>
<g mask="url(#mask0_4409_1089)">
<path d="M36 -6H0V36H36V-6Z" fill="#003399"/>
<path d="M16.4639 7L16.0518 8.26808L16.6859 8.47409L16.4639 7Z" fill="#FFCC00"/>
<path d="M16.4639 7L16.8759 8.26808L16.2419 8.47409L16.4639 7Z" fill="#FFCC00"/>
<path d="M17.7324 7.92139H16.3991V8.58805L17.7324 7.92139Z" fill="#FFCC00"/>
<path d="M17.7324 7.92139L16.6537 8.7051L16.2619 8.16576L17.7324 7.92139Z" fill="#FFCC00"/>
<path d="M17.248 9.41211L16.836 8.14403L16.202 8.35005L17.248 9.41211Z" fill="#FFCC00"/>
<path d="M17.248 9.41211L16.1694 8.6284L16.5612 8.08905L17.248 9.41211Z" fill="#FFCC00"/>
<path d="M15.1953 7.92139H16.5286V8.58805L15.1953 7.92139Z" fill="#FFCC00"/>
<path d="M15.1953 7.92139L16.274 8.7051L16.6659 8.16576L15.1953 7.92139Z" fill="#FFCC00"/>
<path d="M15.6797 9.41211L16.0917 8.14403L16.7257 8.35005L15.6797 9.41211Z" fill="#FFCC00"/>
<path d="M15.6797 9.41211L16.7584 8.6284L16.3665 8.08905L15.6797 9.41211Z" fill="#FFCC00"/>
<path d="M16.4639 23L16.0518 24.2681L16.6859 24.4741L16.4639 23Z" fill="#FFCC00"/>
<path d="M16.4639 23L16.8759 24.2681L16.2419 24.4741L16.4639 23Z" fill="#FFCC00"/>
<path d="M17.7324 23.9214H16.3991V24.5881L17.7324 23.9214Z" fill="#FFCC00"/>
<path d="M17.7324 23.9214L16.6537 24.7051L16.2619 24.1658L17.7324 23.9214Z" fill="#FFCC00"/>
<path d="M17.248 25.4121L16.836 24.144L16.202 24.35L17.248 25.4121Z" fill="#FFCC00"/>
<path d="M17.248 25.4121L16.1694 24.6284L16.5612 24.0891L17.248 25.4121Z" fill="#FFCC00"/>
<path d="M15.1953 23.9214H16.5286V24.5881L15.1953 23.9214Z" fill="#FFCC00"/>
<path d="M15.1953 23.9214L16.274 24.7051L16.6659 24.1658L15.1953 23.9214Z" fill="#FFCC00"/>
<path d="M15.6797 25.4121L16.0917 24.144L16.7257 24.35L15.6797 25.4121Z" fill="#FFCC00"/>
<path d="M15.6797 25.4121L16.7584 24.6284L16.3665 24.0891L15.6797 25.4121Z" fill="#FFCC00"/>
<path d="M8.46387 15L8.05184 16.2681L8.68588 16.4741L8.46387 15Z" fill="#FFCC00"/>
<path d="M8.46387 15L8.87589 16.2681L8.24185 16.4741L8.46387 15Z" fill="#FFCC00"/>
<path d="M9.73242 15.9214H8.39909V16.5881L9.73242 15.9214Z" fill="#FFCC00"/>
<path d="M9.73242 15.9214L8.65373 16.7051L8.26188 16.1658L9.73242 15.9214Z" fill="#FFCC00"/>
<path d="M9.24805 17.4121L8.83602 16.144L8.20199 16.35L9.24805 17.4121Z" fill="#FFCC00"/>
<path d="M9.24805 17.4121L8.16936 16.6284L8.56121 16.0891L9.24805 17.4121Z" fill="#FFCC00"/>
<path d="M7.19531 15.9214H8.52865V16.5881L7.19531 15.9214Z" fill="#FFCC00"/>
<path d="M7.19531 15.9214L8.274 16.7051L8.66586 16.1658L7.19531 15.9214Z" fill="#FFCC00"/>
<path d="M7.67969 17.4121L8.09171 16.144L8.72575 16.35L7.67969 17.4121Z" fill="#FFCC00"/>
<path d="M7.67969 17.4121L8.75838 16.6284L8.36652 16.0891L7.67969 17.4121Z" fill="#FFCC00"/>
<path d="M11.6797 10.4844L12.7584 9.70066L12.3665 9.16132L11.6797 10.4844Z" fill="#FFCC00"/>
<path d="M11.6797 10.4844L12.0917 9.2163L12.7257 9.42231L11.6797 10.4844Z" fill="#FFCC00"/>
<path d="M11.1953 8.99316L12.274 9.77688L12.6659 9.23753L11.1953 8.99316Z" fill="#FFCC00"/>
<path d="M11.1953 8.99316H12.5286V9.65983L11.1953 8.99316Z" fill="#FFCC00"/>
<path d="M12.4629 8.07178L12.0509 9.33985L12.6849 9.54586L12.4629 8.07178Z" fill="#FFCC00"/>
<path d="M12.4629 8.07178L12.8749 9.33985L12.2409 9.54586L12.4629 8.07178Z" fill="#FFCC00"/>
<path d="M13.2471 10.4844L12.1684 9.70066L12.5602 9.16132L13.2471 10.4844Z" fill="#FFCC00"/>
<path d="M13.2471 10.4844L12.835 9.2163L12.201 9.42231L13.2471 10.4844Z" fill="#FFCC00"/>
<path d="M13.7314 8.99316L12.6528 9.77688L12.2609 9.23753L13.7314 8.99316Z" fill="#FFCC00"/>
<path d="M13.7314 8.99316H12.3981V9.65983L13.7314 8.99316Z" fill="#FFCC00"/>
<path d="M10.3193 13.4121L9.90731 12.144L9.27328 12.35L10.3193 13.4121Z" fill="#FFCC00"/>
<path d="M10.3193 13.4121L9.24065 12.6284L9.6325 12.0891L10.3193 13.4121Z" fill="#FFCC00"/>
<path d="M8.75195 13.4126L9.83064 12.6289L9.43879 12.0895L8.75195 13.4126Z" fill="#FFCC00"/>
<path d="M8.75195 13.4126L9.16398 12.1445L9.79801 12.3505L8.75195 13.4126Z" fill="#FFCC00"/>
<path d="M8.26758 11.9214L9.34627 12.7051L9.73812 12.1658L8.26758 11.9214Z" fill="#FFCC00"/>
<path d="M8.26758 11.9214H9.60091V12.5881L8.26758 11.9214Z" fill="#FFCC00"/>
<path d="M10.8037 11.9214L9.72502 12.7051L9.33316 12.1658L10.8037 11.9214Z" fill="#FFCC00"/>
<path d="M10.8037 11.9214H9.47038V12.5881L10.8037 11.9214Z" fill="#FFCC00"/>
<path d="M9.53613 11L9.94816 12.2681L9.31412 12.4741L9.53613 11Z" fill="#FFCC00"/>
<path d="M9.53613 11L9.12411 12.2681L9.75815 12.4741L9.53613 11Z" fill="#FFCC00"/>
<path d="M10.8047 19.9219H9.47135V20.5885L10.8047 19.9219Z" fill="#FFCC00"/>
<path d="M10.8047 19.9219L9.726 20.7056L9.33414 20.1662L10.8047 19.9219Z" fill="#FFCC00"/>
<path d="M10.3203 21.4126L9.90829 20.1445L9.27425 20.3505L10.3203 21.4126Z" fill="#FFCC00"/>
<path d="M10.3203 21.4126L9.24162 20.6289L9.63348 20.0895L10.3203 21.4126Z" fill="#FFCC00"/>
<path d="M8.75293 21.4126L9.83162 20.6289L9.43976 20.0895L8.75293 21.4126Z" fill="#FFCC00"/>
<path d="M8.75293 21.4126L9.16495 20.1445L9.79899 20.3505L8.75293 21.4126Z" fill="#FFCC00"/>
<path d="M9.53613 19L9.94816 20.2681L9.31412 20.4741L9.53613 19Z" fill="#FFCC00"/>
<path d="M9.53613 19L9.12411 20.2681L9.75815 20.4741L9.53613 19Z" fill="#FFCC00"/>
<path d="M8.26758 19.9214H9.60091V20.5881L8.26758 19.9214Z" fill="#FFCC00"/>
<path d="M8.26758 19.9214L9.34627 20.7051L9.73812 20.1658L8.26758 19.9214Z" fill="#FFCC00"/>
<path d="M13.7324 22.8501H12.3991V23.5168L13.7324 22.8501Z" fill="#FFCC00"/>
<path d="M13.7324 22.8501L12.6537 23.6338L12.2619 23.0945L13.7324 22.8501Z" fill="#FFCC00"/>
<path d="M13.248 24.3408L12.836 23.0727L12.202 23.2788L13.248 24.3408Z" fill="#FFCC00"/>
<path d="M13.248 24.3408L12.1694 23.5571L12.5612 23.0178L13.248 24.3408Z" fill="#FFCC00"/>
<path d="M11.6807 24.3408L12.7594 23.5571L12.3675 23.0178L11.6807 24.3408Z" fill="#FFCC00"/>
<path d="M11.6807 24.3408L12.0927 23.0727L12.7267 23.2788L11.6807 24.3408Z" fill="#FFCC00"/>
<path d="M12.4639 21.9282L12.8759 23.1963L12.2419 23.4023L12.4639 21.9282Z" fill="#FFCC00"/>
<path d="M12.4639 21.9282L12.0518 23.1963L12.6859 23.4023L12.4639 21.9282Z" fill="#FFCC00"/>
<path d="M11.1953 22.8496H12.5286V23.5163L11.1953 22.8496Z" fill="#FFCC00"/>
<path d="M11.1953 22.8496L12.274 23.6333L12.6659 23.094L11.1953 22.8496Z" fill="#FFCC00"/>
<path d="M24.4639 15L24.8759 16.2681L24.2419 16.4741L24.4639 15Z" fill="#FFCC00"/>
<path d="M24.4639 15L24.0518 16.2681L24.6859 16.4741L24.4639 15Z" fill="#FFCC00"/>
<path d="M23.1953 15.9214H24.5286V16.5881L23.1953 15.9214Z" fill="#FFCC00"/>
<path d="M23.1953 15.9214L24.274 16.7051L24.6659 16.1658L23.1953 15.9214Z" fill="#FFCC00"/>
<path d="M23.6797 17.4121L24.0917 16.144L24.7257 16.35L23.6797 17.4121Z" fill="#FFCC00"/>
<path d="M23.6797 17.4121L24.7584 16.6284L24.3665 16.0891L23.6797 17.4121Z" fill="#FFCC00"/>
<path d="M25.7324 15.9214H24.3991V16.5881L25.7324 15.9214Z" fill="#FFCC00"/>
<path d="M25.7324 15.9214L24.6537 16.7051L24.2619 16.1658L25.7324 15.9214Z" fill="#FFCC00"/>
<path d="M25.248 17.4121L24.836 16.144L24.202 16.35L25.248 17.4121Z" fill="#FFCC00"/>
<path d="M25.248 17.4121L24.1694 16.6284L24.5612 16.0891L25.248 17.4121Z" fill="#FFCC00"/>
<path d="M21.248 10.4844L20.1694 9.70066L20.5612 9.16132L21.248 10.4844Z" fill="#FFCC00"/>
<path d="M21.248 10.4844L20.836 9.2163L20.202 9.42231L21.248 10.4844Z" fill="#FFCC00"/>
<path d="M21.7324 8.99316L20.6537 9.77688L20.2619 9.23753L21.7324 8.99316Z" fill="#FFCC00"/>
<path d="M21.7324 8.99316H20.3991V9.65983L21.7324 8.99316Z" fill="#FFCC00"/>
<path d="M20.4648 8.07178L20.8769 9.33985L20.2428 9.54586L20.4648 8.07178Z" fill="#FFCC00"/>
<path d="M20.4648 8.07178L20.0528 9.33985L20.6869 9.54586L20.4648 8.07178Z" fill="#FFCC00"/>
<path d="M19.6807 10.4844L20.7594 9.70066L20.3675 9.16132L19.6807 10.4844Z" fill="#FFCC00"/>
<path d="M19.6807 10.4844L20.0927 9.2163L20.7267 9.42231L19.6807 10.4844Z" fill="#FFCC00"/>
<path d="M19.1963 8.99316L20.275 9.77688L20.6668 9.23753L19.1963 8.99316Z" fill="#FFCC00"/>
<path d="M19.1963 8.99316H20.5296V9.65983L19.1963 8.99316Z" fill="#FFCC00"/>
<path d="M22.6084 13.4121L23.0204 12.144L23.6545 12.35L22.6084 13.4121Z" fill="#FFCC00"/>
<path d="M22.6084 13.4121L23.6871 12.6284L23.2952 12.0891L22.6084 13.4121Z" fill="#FFCC00"/>
<path d="M24.1758 13.4126L23.0971 12.6289L23.4889 12.0895L24.1758 13.4126Z" fill="#FFCC00"/>
<path d="M24.1758 13.4126L23.7638 12.1445L23.1297 12.3505L24.1758 13.4126Z" fill="#FFCC00"/>
<path d="M24.6602 11.9214L23.5815 12.7051L23.1896 12.1658L24.6602 11.9214Z" fill="#FFCC00"/>
<path d="M24.6602 11.9214H23.3268V12.5881L24.6602 11.9214Z" fill="#FFCC00"/>
<path d="M22.124 11.9214L23.2027 12.7051L23.5946 12.1658L22.124 11.9214Z" fill="#FFCC00"/>
<path d="M22.124 11.9214H23.4574V12.5881L22.124 11.9214Z" fill="#FFCC00"/>
<path d="M23.3916 11L22.9796 12.2681L23.6136 12.4741L23.3916 11Z" fill="#FFCC00"/>
<path d="M23.3916 11L23.8036 12.2681L23.1696 12.4741L23.3916 11Z" fill="#FFCC00"/>
<path d="M22.123 19.9219H23.4564V20.5885L22.123 19.9219Z" fill="#FFCC00"/>
<path d="M22.123 19.9219L23.2017 20.7056L23.5936 20.1662L22.123 19.9219Z" fill="#FFCC00"/>
<path d="M22.6074 21.4126L23.0194 20.1445L23.6535 20.3505L22.6074 21.4126Z" fill="#FFCC00"/>
<path d="M22.6074 21.4126L23.6861 20.6289L23.2943 20.0895L22.6074 21.4126Z" fill="#FFCC00"/>
<path d="M24.1748 21.4126L23.0961 20.6289L23.488 20.0895L24.1748 21.4126Z" fill="#FFCC00"/>
<path d="M24.1748 21.4126L23.7628 20.1445L23.1287 20.3505L24.1748 21.4126Z" fill="#FFCC00"/>
<path d="M23.3916 19L22.9796 20.2681L23.6136 20.4741L23.3916 19Z" fill="#FFCC00"/>
<path d="M23.3916 19L23.8036 20.2681L23.1696 20.4741L23.3916 19Z" fill="#FFCC00"/>
<path d="M24.6602 19.9214H23.3268V20.5881L24.6602 19.9214Z" fill="#FFCC00"/>
<path d="M24.6602 19.9214L23.5815 20.7051L23.1896 20.1658L24.6602 19.9214Z" fill="#FFCC00"/>
<path d="M19.1953 22.8501H20.5286V23.5168L19.1953 22.8501Z" fill="#FFCC00"/>
<path d="M19.1953 22.8501L20.274 23.6338L20.6659 23.0945L19.1953 22.8501Z" fill="#FFCC00"/>
<path d="M19.6797 24.3408L20.0917 23.0727L20.7257 23.2788L19.6797 24.3408Z" fill="#FFCC00"/>
<path d="M19.6797 24.3408L20.7584 23.5571L20.3665 23.0178L19.6797 24.3408Z" fill="#FFCC00"/>
<path d="M21.2471 24.3408L20.1684 23.5571L20.5602 23.0178L21.2471 24.3408Z" fill="#FFCC00"/>
<path d="M21.2471 24.3408L20.835 23.0727L20.201 23.2788L21.2471 24.3408Z" fill="#FFCC00"/>
<path d="M20.4639 21.9282L20.0518 23.1963L20.6859 23.4023L20.4639 21.9282Z" fill="#FFCC00"/>
<path d="M20.4639 21.9282L20.8759 23.1963L20.2419 23.4023L20.4639 21.9282Z" fill="#FFCC00"/>
<path d="M21.7324 22.8496H20.3991V23.5163L21.7324 22.8496Z" fill="#FFCC00"/>
<path d="M21.7324 22.8496L20.6537 23.6333L20.2619 23.094L21.7324 22.8496Z" fill="#FFCC00"/>
</g>
</svg>
