<svg width="29" height="13" viewBox="0 0 29 13" fill="none" xmlns="http://www.w3.org/2000/svg">
<path d="M7.60156 10.4453V12H1.5625V10.4453H7.60156ZM2.11719 0.625V12H0.15625V0.625H2.11719ZM6.8125 5.375V6.90625H1.5625V5.375H6.8125ZM7.5625 0.625V2.1875H1.5625V0.625H7.5625ZM15.5859 0.625H17.5391V8.22656C17.5391 9.09115 17.3516 9.8151 16.9766 10.3984C16.6016 10.9818 16.0911 11.4219 15.4453 11.7188C14.8047 12.0104 14.0885 12.1562 13.2969 12.1562C12.4792 12.1562 11.75 12.0104 11.1094 11.7188C10.4688 11.4219 9.96354 10.9818 9.59375 10.3984C9.22917 9.8151 9.04688 9.09115 9.04688 8.22656V0.625H11V8.22656C11 8.77344 11.0938 9.22396 11.2812 9.57812C11.4688 9.92708 11.7344 10.1849 12.0781 10.3516C12.4219 10.5182 12.8281 10.6016 13.2969 10.6016C13.7656 10.6016 14.1693 10.5182 14.5078 10.3516C14.8516 10.1849 15.1172 9.92708 15.3047 9.57812C15.4922 9.22396 15.5859 8.77344 15.5859 8.22656V0.625ZM19.6719 0.625H23.6953C24.5599 0.625 25.2969 0.755208 25.9062 1.01562C26.5156 1.27604 26.9818 1.66146 27.3047 2.17188C27.6328 2.67708 27.7969 3.30208 27.7969 4.04688C27.7969 4.61458 27.6927 5.11458 27.4844 5.54688C27.276 5.97917 26.9818 6.34375 26.6016 6.64062C26.2214 6.93229 25.7682 7.15885 25.2422 7.32031L24.6484 7.60938H21.0312L21.0156 6.05469H23.7266C24.1953 6.05469 24.5859 5.97135 24.8984 5.80469C25.2109 5.63802 25.4453 5.41146 25.6016 5.125C25.763 4.83333 25.8438 4.50521 25.8438 4.14062C25.8438 3.74479 25.7656 3.40104 25.6094 3.10938C25.4583 2.8125 25.224 2.58594 24.9062 2.42969C24.5885 2.26823 24.1849 2.1875 23.6953 2.1875H21.6328V12H19.6719V0.625ZM26.1641 12L23.4922 6.89062L25.5469 6.88281L28.2578 11.8984V12H26.1641Z" fill="#4D5F71"/>
</svg>


