<svg width="40" height="40" viewBox="0 0 40 40" fill="none" xmlns="http://www.w3.org/2000/svg">
<circle cx="20" cy="20" r="20" fill="url(#paint0_linear_1832_817)"/>
<circle cx="20" cy="20" r="15" fill="#F6F7FA"/>
<path d="M21.4209 23.5439C21.6488 23.5439 21.8698 23.5257 22.084 23.4893C22.3027 23.4528 22.5101 23.3981 22.7061 23.3252L22.9521 24.9248C22.6833 24.9886 22.4007 25.0387 22.1045 25.0752C21.8083 25.1117 21.5075 25.1299 21.2021 25.1299C20.6279 25.1299 20.0993 25.0501 19.6162 24.8906C19.1331 24.7311 18.7139 24.4919 18.3584 24.1729C18.0075 23.8493 17.734 23.4505 17.5381 22.9766C17.3421 22.498 17.2441 21.9398 17.2441 21.3018V18.9434C17.2441 18.278 17.3421 17.6947 17.5381 17.1934C17.7386 16.6921 18.0212 16.2728 18.3857 15.9355C18.7503 15.5983 19.1833 15.3454 19.6846 15.1768C20.1859 15.0036 20.7419 14.917 21.3525 14.917C21.6214 14.917 21.888 14.9375 22.1523 14.9785C22.4212 15.015 22.6878 15.0651 22.9521 15.1289L22.7061 16.7354C22.5283 16.667 22.3278 16.6123 22.1045 16.5713C21.8857 16.5303 21.6693 16.5098 21.4551 16.5098C21.1178 16.5098 20.8148 16.5576 20.5459 16.6533C20.277 16.7445 20.0492 16.888 19.8623 17.084C19.68 17.2754 19.541 17.5238 19.4453 17.8291C19.3496 18.1344 19.3018 18.5013 19.3018 18.9297V21.3018C19.3018 21.721 19.3519 22.0765 19.4521 22.3682C19.5524 22.6553 19.696 22.8854 19.8828 23.0586C20.0697 23.2272 20.293 23.3503 20.5527 23.4277C20.8125 23.5052 21.1019 23.5439 21.4209 23.5439ZM21.585 18.5605V19.5723H16.0889V18.5605H21.585ZM21.585 20.4404V21.4521H16.0889V20.4404H21.585Z" fill="url(#paint1_linear_1832_817)"/>
<defs>
<linearGradient id="paint0_linear_1832_817" x1="20" y1="0" x2="20" y2="40" gradientUnits="userSpaceOnUse">
<stop stop-color="#005AFE"/>
<stop offset="1" stop-color="#0647BD"/>
</linearGradient>
<linearGradient id="paint1_linear_1832_817" x1="19.5" y1="15" x2="19.5" y2="25" gradientUnits="userSpaceOnUse">
<stop stop-color="#005AFE"/>
<stop offset="1" stop-color="#0647BD"/>
</linearGradient>
</defs>
</svg>
