<svg width="49" height="48" viewBox="0 0 49 48" fill="none" xmlns="http://www.w3.org/2000/svg">
<path d="M24.5341 1C24.9252 1.19297 25.1178 1.51774 25.258 1.9331C26.2912 5.09717 27.3431 8.25654 28.3892 11.4159C28.4359 11.5547 28.4873 11.6912 28.555 11.8866C28.7103 11.8148 28.8492 11.7548 28.9847 11.6865L32.7289 9.77797C33.4224 9.42497 33.7797 9.48851 34.2373 10.1204C36.4463 13.1515 38.0107 16.5062 38.2256 20.2692C38.4999 25.0582 36.4614 28.7577 32.2595 31.1216C29.5194 32.6607 26.5224 33.0996 23.425 32.9819C21.007 32.889 18.6872 32.3795 16.5214 31.2569C11.8876 28.8542 9.4778 23.858 10.4714 18.7042C10.9127 16.4109 11.6144 14.2117 12.7912 12.1843C12.8578 12.0666 12.9278 11.9583 13.0002 11.8477C13.5396 11.0335 13.9342 10.9488 14.7386 11.47L18.2353 13.7198C18.3579 13.4398 18.4688 13.1891 18.5786 12.9373C20.1524 9.24023 21.718 5.53842 23.3117 1.84956C23.4518 1.52597 23.7717 1.28122 24.0122 1H24.5341ZM24.2656 16.0437C23.6818 16.7627 23.1226 17.4205 22.5948 18.1006C21.2826 19.7926 20.0076 21.5129 19.1775 23.5133C18.9172 24.1381 18.7012 24.8347 18.6895 25.5018C18.6206 29.1189 22.1255 31.817 25.6292 30.9628C28.506 30.2568 31.0687 26.742 29.238 23.1532C27.9199 20.5669 26.1686 18.3065 24.2656 16.0437Z" fill="#005AFE"/>
<path d="M12.662 46C12.3429 45.7938 11.9518 45.6427 11.7232 45.3655C11.4946 45.0883 11.2799 44.6679 11.2741 44.3084C11.2358 41.9159 11.2544 39.5222 11.2555 37.1285C11.2628 37.0898 11.2745 37.052 11.2903 37.0158H14.9447V42.3599H22.3834V37H26.0819V42.3542H33.5183V37.0023H37.2318V37.5083C37.2318 39.5492 37.1912 41.5924 37.2481 43.6322C37.2794 44.7592 36.9382 45.5774 35.8172 45.9989L12.662 46Z" fill="#005AFE"/>
</svg>
