<svg width="48" height="48" viewBox="0 0 48 48" fill="none" xmlns="http://www.w3.org/2000/svg">
<path d="M24.3856 2C24.9164 2.26534 25.1778 2.71189 25.3679 3.28301C26.7702 7.63361 28.1978 11.9777 29.6175 16.3219C29.6809 16.5128 29.7506 16.7005 29.8425 16.969C30.0533 16.8703 30.2418 16.7878 30.4256 16.694L35.5071 14.0697C36.4482 13.5843 36.9331 13.6717 37.5542 14.5405C40.5521 18.7083 42.6753 23.321 42.9668 28.4951C43.3392 35.0801 40.5727 40.1668 34.8701 43.4172C31.1513 45.5335 27.0839 46.137 22.8803 45.9752C19.5988 45.8473 16.4504 45.1468 13.5112 43.6033C7.2224 40.2995 3.95201 33.4298 5.30041 26.3433C5.89935 23.1899 6.85163 20.166 8.44879 17.3784C8.5391 17.2166 8.63417 17.0677 8.73241 16.9156C9.46444 15.796 10 15.6795 11.0917 16.3963L15.8372 19.4898C16.0036 19.1047 16.1541 18.7601 16.3031 18.4138C18.439 13.3303 20.5638 8.24033 22.7266 3.16814C22.9167 2.72321 23.3509 2.38668 23.6773 2H24.3856ZM24.0211 22.6852C23.2289 23.6737 22.4699 24.5781 21.7537 25.5133C19.9728 27.8399 18.2425 30.2053 17.1159 32.9557C16.7626 33.8149 16.4695 34.7727 16.4536 35.69C16.3601 40.6635 21.1168 44.3734 25.8718 43.1988C29.776 42.2281 33.2539 37.3953 30.7695 32.4606C28.9806 28.9045 26.6038 25.7964 24.0211 22.6852Z" fill="#005AFE"/>
</svg>
