<svg width="48" height="48" viewBox="0 0 48 48" fill="none" xmlns="http://www.w3.org/2000/svg">
<path d="M11.736 34.3594C12.2707 33.7969 13.1704 33.7969 13.7048 34.3594L18.5988 39.2248C20.3918 36.5014 20.1007 32.7678 17.6986 30.3654C15.1955 27.8624 8.10801 27.9467 6.72989 27.9748C5.97042 28.0031 5.38008 28.5938 5.35176 29.3533C5.32364 30.7313 5.23945 37.8186 7.74239 40.3221C10.1767 42.7558 13.9538 43.002 16.6018 41.1939L11.7365 36.3281C11.1736 35.7938 11.1735 34.8938 11.736 34.3594ZM36.2048 34.3594C36.7673 34.8938 36.7673 35.7938 36.2048 36.3281L31.3393 41.1939C33.8958 42.9394 37.6282 42.8386 40.1986 40.3221C42.6735 37.8189 42.6174 30.7313 42.5893 29.3533C42.5611 28.5938 41.9704 28.003 41.2111 27.9748H40.4235C38.1175 27.9748 32.436 28.1719 30.2421 30.3654C27.8427 32.7653 27.5472 36.4984 29.3423 39.2248L34.2078 34.3594C34.7707 33.7969 35.6705 33.7969 36.2048 34.3594Z" fill="#005AFE"/>
<path d="M30.2421 40.3221C29.9047 39.9844 29.5954 39.6189 29.3422 39.2252L25.3766 43.2188V25.2641C30.1344 24.5746 33.8141 20.4144 33.8141 15.4688C33.8141 14.6916 33.1853 14.0625 32.4079 14.0625H25.3766V7.03125C25.3766 6.25406 24.7478 5.625 23.9704 5.625C18.5431 5.625 14.1266 10.0416 14.1266 15.4688C14.1266 20.4144 17.8063 24.5746 22.5641 25.2641V43.1906L18.5988 39.225C18.3454 39.619 18.0363 39.9845 17.6986 40.3222C17.361 40.6594 16.9955 40.9688 16.6017 41.1937L20.5955 45.1875H12.7205C11.9433 45.1875 11.3142 45.8166 11.3142 46.5938C11.3142 47.3709 11.9433 48 12.7205 48H35.2205C35.9979 48 36.6267 47.3709 36.6267 46.5938C36.6267 45.8166 35.9979 45.1875 35.2205 45.1875H27.3455L31.3393 41.1939C30.9453 40.9688 30.5798 40.6593 30.2421 40.3221H30.2421Z" fill="#005AFE"/>
<path d="M29.5955 0C28.8183 0 28.1892 0.629063 28.1892 1.40625V9.84375C28.1892 10.6209 28.8183 11.25 29.5955 11.25H38.033C38.8104 11.25 39.4392 10.6209 39.4392 9.84375C39.4392 4.41656 35.0226 0 29.5955 0Z" fill="#005AFE"/>
</svg>
