<svg width="49" height="48" viewBox="0 0 49 48" fill="none" xmlns="http://www.w3.org/2000/svg">
<path d="M25.2214 4C27.2054 5.5337 29.1895 7.06792 31.1735 8.60267C34.9096 11.5037 38.6434 14.4073 42.3747 17.3136C42.5188 17.4262 42.6692 17.5332 42.8015 17.6584C43.0203 17.8602 43.1541 18.1377 43.1757 18.4345C43.1974 18.7314 43.1052 19.0253 42.918 19.2567C42.7376 19.4854 42.4771 19.637 42.1891 19.6808C41.9011 19.7247 41.6073 19.6575 41.367 19.4929C40.9363 19.2 40.534 18.863 40.0781 18.5166V30.4555C40.3198 30.3052 40.5505 30.1721 40.771 30.0233C41.5722 29.4705 42.5233 29.1758 43.4967 29.1785C44.1998 29.1785 44.7257 29.6596 44.7477 30.3154C44.7706 30.987 44.258 31.5208 43.5345 31.5247C42.8715 31.5287 42.322 31.7932 41.8024 32.164C40.8714 32.8341 39.7383 33.1635 38.5933 33.097C37.5382 33.0513 36.6124 32.6648 35.7699 32.0554C35.0802 31.557 34.3157 31.3956 33.5048 31.6153C33.1319 31.7303 32.7791 31.9027 32.4592 32.1262C30.4516 33.4513 28.4439 33.4647 26.4583 32.116C25.3041 31.3334 24.1939 31.3342 23.0405 32.116C21.051 33.467 19.0346 33.4639 17.0459 32.116C15.8917 31.3334 14.7815 31.335 13.6289 32.116C11.6386 33.4662 9.62773 33.4544 7.63345 32.116C7.09886 31.757 6.5438 31.5287 5.8856 31.52C5.73128 31.5171 5.5791 31.4834 5.43801 31.4208C5.29693 31.3582 5.16978 31.268 5.06407 31.1555C4.95836 31.0431 4.87621 30.9106 4.82245 30.7659C4.7687 30.6212 4.74443 30.4672 4.75107 30.313C4.76303 30.0092 4.89175 29.7216 5.11042 29.5103C5.32909 29.2989 5.62086 29.1801 5.92497 29.1785C6.83197 29.1552 7.72584 29.3989 8.49557 29.8792C8.79239 30.0634 9.08685 30.2524 9.42697 30.4681V18.5103C9.03882 18.8103 8.68452 19.0874 8.32472 19.3614C7.71061 19.8338 7.00517 19.7881 6.57923 19.2551C6.13754 18.704 6.25407 17.9954 6.8792 17.5081C12.5616 13.0865 18.2444 8.66618 23.9278 4.24722C24.0412 4.15904 24.164 4.08188 24.2798 4H25.2214ZM24.7632 6.59816C24.6726 6.66272 24.5971 6.71153 24.527 6.76664C20.371 9.99833 16.2131 13.2284 12.0535 16.457C11.8456 16.6144 11.8055 16.7861 11.8063 17.0199C11.8099 21.3591 11.8099 25.6978 11.8063 30.0359V30.4177L14.1588 29.188V28.8407C14.1588 25.8741 14.1588 22.9085 14.1588 19.944C14.1588 19.0465 14.613 18.5883 15.5027 18.5875H22.9909C23.905 18.5875 24.3538 19.041 24.3538 19.9645C24.3538 22.8781 24.3538 25.7912 24.3538 28.7037V29.1887C25.6552 29.0958 26.7708 29.4564 27.7873 30.1776C28.8966 30.9649 30.0107 30.9374 31.135 30.1737C33.1513 28.8014 35.1771 28.8116 37.1973 30.1784C37.3398 30.2752 37.4957 30.354 37.6697 30.454C37.6807 30.354 37.6878 30.3146 37.6886 30.276C37.6886 25.8198 37.6852 21.3636 37.6784 16.9073C37.6784 16.7499 37.5438 16.5499 37.4115 16.4467C34.3887 14.0801 31.3596 11.7197 28.3242 9.36559C27.1401 8.44442 25.9528 7.52195 24.7624 6.59816H24.7632ZM16.5317 20.9542V29.1872C17.2018 29.5493 17.8411 29.8438 18.4268 30.2209C19.5291 30.9295 20.5927 30.9295 21.6816 30.2075C21.9178 30.0501 22.0131 29.902 22.0115 29.6178C22.0005 26.8622 22.0052 24.1066 22.0044 21.351C22.0044 21.225 21.9934 21.0982 21.9871 20.9573L16.5317 20.9542Z" fill="#005AFE"/>
<path d="M20.025 38.5841C18.9062 38.6124 17.8992 38.2267 16.9851 37.5653C16.286 37.0591 15.5144 36.878 14.6861 37.1031C14.3134 37.2177 13.9609 37.3899 13.6414 37.6133C11.6321 38.9408 9.63232 38.9455 7.63647 37.607C7.10266 37.248 6.54839 37.0165 5.89019 37.0087C5.73578 37.0065 5.58337 36.9734 5.44196 36.9114C5.30054 36.8493 5.17298 36.7596 5.0668 36.6475C4.96061 36.5353 4.87796 36.4031 4.82371 36.2585C4.76947 36.1139 4.74472 35.9599 4.75094 35.8056C4.77062 35.1663 5.28789 34.675 5.96026 34.6672C7.02866 34.6546 7.9884 34.9821 8.85681 35.5978C9.36621 35.956 9.90001 36.2213 10.5488 36.2395C11.27 36.2599 11.8667 35.9836 12.4336 35.5828C13.3118 34.9543 14.3719 34.6313 15.4514 34.6632C16.4914 34.6774 17.5001 35.0206 18.333 35.6435C19.0636 36.178 19.8667 36.3969 20.7343 36.1395C21.1618 36.0135 21.5618 35.76 21.9397 35.5096C23.2183 34.6703 24.604 34.4428 26.0598 34.8412C26.647 35.0141 27.2028 35.2799 27.706 35.6285C28.887 36.4276 30.0129 36.426 31.1955 35.6285C33.1582 34.3011 35.1596 34.2956 37.1224 35.6285C38.3034 36.43 39.4418 36.456 40.6039 35.6285C41.47 35.0128 42.4226 34.668 43.4918 34.6711C44.213 34.6711 44.746 35.1711 44.7476 35.8434C44.7476 36.5016 44.2453 37.0142 43.5375 37.0173C42.8746 37.0173 42.325 37.2842 41.8054 37.6543C40.8968 38.3089 39.7946 38.6392 38.6758 38.592C37.5901 38.5613 36.6382 38.1763 35.7737 37.5503C35.0706 37.0409 34.2936 36.889 33.47 37.1142C33.1142 37.211 32.7748 37.4102 32.463 37.6165C30.4569 38.9447 28.4477 38.9549 26.4621 37.611C25.3079 36.8292 24.1844 36.8047 23.0475 37.611C22.1507 38.2463 21.1603 38.6046 20.025 38.5841Z" fill="#005AFE"/>
<path d="M38.8226 44.0754C37.7204 44.1022 36.7094 43.7125 35.7977 43.0519C35.0978 42.5449 34.3246 42.3709 33.498 42.596C33.1254 42.7122 32.7732 42.8856 32.454 43.1102C30.4447 44.4313 28.4386 44.4407 26.4522 43.0921C25.3146 42.3205 24.2084 42.3047 23.0668 43.0795C21.0496 44.4525 19.0207 44.4439 17.0044 43.0716C15.8478 42.2843 14.7212 42.3221 13.589 43.1235C12.1285 44.1557 10.5365 44.3589 8.86507 43.7573C8.40527 43.592 7.97855 43.3157 7.56442 43.0487C7.05817 42.7196 6.53303 42.5134 5.91892 42.5047C5.76431 42.5054 5.61113 42.4751 5.46834 42.4159C5.32556 42.3566 5.19604 42.2694 5.08737 42.1594C4.97871 42.0494 4.89309 41.9188 4.83552 41.7753C4.77795 41.6319 4.74959 41.4783 4.75211 41.3237C4.75604 40.6687 5.28119 40.1632 5.97167 40.1553C7.07391 40.1435 8.05255 40.4955 8.93042 41.1379C9.66105 41.6733 10.4673 41.8843 11.3333 41.6268C11.76 41.5001 12.1592 41.2442 12.5379 40.997C13.8173 40.1585 15.203 39.9373 16.6588 40.3349C17.2342 40.5027 17.7785 40.763 18.2704 41.1056C19.4624 41.9182 20.5946 41.926 21.7937 41.1151C23.7564 39.7869 25.7578 39.7908 27.7206 41.1214C28.9016 41.9229 30.0235 41.9142 31.2061 41.1143C33.1689 39.7869 35.1702 39.7908 37.1322 41.1214C38.3132 41.9237 39.4533 41.9402 40.6145 41.1088C41.4649 40.4994 42.4096 40.1601 43.4646 40.1561C44.1969 40.1561 44.7299 40.6285 44.7488 41.2993C44.7677 41.9701 44.2551 42.4992 43.5284 42.5031C42.8647 42.5071 42.3183 42.7771 41.7963 43.1448C40.9341 43.773 39.8891 44.1 38.8226 44.0754Z" fill="#005AFE"/>
<path d="M31.064 18.585C32.0561 18.585 33.0489 18.585 34.0409 18.585C34.8558 18.585 35.3352 19.0574 35.3368 19.8684C35.3405 21.8792 35.3405 23.8903 35.3368 25.9016C35.3368 26.7322 34.8566 27.2093 34.0196 27.2101C32.0219 27.2143 30.0242 27.2143 28.0266 27.2101C27.1896 27.2101 26.7117 26.7322 26.7109 25.9008C26.7109 23.89 26.7109 21.8792 26.7109 19.8684C26.7109 19.0598 27.1928 18.5874 28.0077 18.585C29.0272 18.5827 30.0452 18.585 31.064 18.585ZM32.9591 24.8403V20.9683H29.0839V24.8403H32.9591Z" fill="#005AFE"/>
</svg>
