<svg width="48" height="48" viewBox="0 0 48 48" fill="none" xmlns="http://www.w3.org/2000/svg">
<path d="M43.8645 21.045L40.02 20.0835C39.6243 18.445 38.9766 16.8778 38.1 15.438L40.1355 12.0435C40.3075 11.7568 40.3787 11.4209 40.3379 11.0891C40.2972 10.7572 40.1467 10.4486 39.9105 10.212L37.788 8.091C37.5513 7.85499 37.2426 7.70471 36.9109 7.66395C36.5791 7.6232 36.2433 7.6943 35.9565 7.866L32.562 9.9C31.1222 9.0234 29.555 8.37568 27.9165 7.98L26.9565 4.134C26.8749 3.80966 26.6872 3.5219 26.4233 3.31643C26.1594 3.11097 25.8345 2.99959 25.5 3H22.5C22.1656 3.00001 21.8408 3.11175 21.5772 3.31748C21.3136 3.52321 21.1263 3.81113 21.045 4.1355L20.0835 7.98C18.445 8.37568 16.8778 9.0234 15.438 9.9L12.0435 7.866C11.7567 7.69456 11.4208 7.6236 11.0892 7.66435C10.7575 7.7051 10.4488 7.85523 10.212 8.091L8.091 10.2135C7.85476 10.4501 7.70432 10.7587 7.66355 11.0906C7.62279 11.4224 7.69404 11.7583 7.866 12.045L9.9 15.438C9.0234 16.8778 8.37568 18.445 7.98 20.0835L4.134 21.0435C3.80966 21.1251 3.5219 21.3128 3.31643 21.5767C3.11097 21.8406 2.99959 22.1656 3 22.5V25.5C3.00001 25.8344 3.11175 26.1592 3.31748 26.4228C3.52321 26.6864 3.81113 26.8737 4.1355 26.955L7.98 27.9165C8.37568 29.555 9.0234 31.1222 9.9 32.562L7.8645 35.9565C7.69254 36.2432 7.62129 36.5791 7.66205 36.9109C7.70282 37.2428 7.85326 37.5514 8.0895 37.788L10.212 39.909C10.4486 40.1452 10.7572 40.2957 11.0891 40.3364C11.4209 40.3772 11.7568 40.306 12.0435 40.134L15.438 38.0985C16.8778 38.9751 18.445 39.6228 20.0835 40.0185L21.0435 43.8645C21.1248 44.1891 21.3124 44.4772 21.5763 44.683C21.8402 44.8887 22.1654 45.0003 22.5 45H25.5C25.8344 45 26.1592 44.8882 26.4228 44.6825C26.6864 44.4768 26.8737 44.1889 26.955 43.8645L27.9165 40.02C29.555 39.6243 31.1222 38.9766 32.562 38.1L35.9565 40.1355C36.2432 40.3075 36.5791 40.3787 36.9109 40.3379C37.2428 40.2972 37.5514 40.1467 37.788 39.9105L39.909 37.788C40.1452 37.5514 40.2957 37.2428 40.3364 36.9109C40.3772 36.5791 40.306 36.2432 40.134 35.9565L38.1 32.562C38.9766 31.1222 39.6243 29.555 40.02 27.9165L43.866 26.9565C44.1903 26.8749 44.4781 26.6872 44.6836 26.4233C44.889 26.1594 45.0004 25.8345 45 25.5V22.5C45 22.1656 44.8882 21.8408 44.6825 21.5772C44.4768 21.3136 44.1889 21.1263 43.8645 21.045ZM24 36C20.8174 36 17.7652 34.7357 15.5147 32.4853C13.2643 30.2348 12 27.1826 12 24C12 20.8174 13.2643 17.7652 15.5147 15.5147C17.7652 13.2643 20.8174 12 24 12C27.1826 12 30.2348 13.2643 32.4853 15.5147C34.7357 17.7652 36 20.8174 36 24C36 27.1826 34.7357 30.2348 32.4853 32.4853C30.2348 34.7357 27.1826 36 24 36Z" fill="#005AFE"/>
<path d="M24 13.5C21.2152 13.5 18.5445 14.6062 16.5754 16.5754C14.6062 18.5445 13.5 21.2152 13.5 24C13.5 26.7848 14.6062 29.4555 16.5754 31.4246C18.5445 33.3938 21.2152 34.5 24 34.5C26.7848 34.5 29.4555 33.3938 31.4246 31.4246C33.3938 29.4555 34.5 26.7848 34.5 24C34.5 21.2152 33.3938 18.5445 31.4246 16.5754C29.4555 14.6062 26.7848 13.5 24 13.5ZM30 25.5H25.5V30C25.5 30.3978 25.342 30.7794 25.0607 31.0607C24.7794 31.342 24.3978 31.5 24 31.5C23.6022 31.5 23.2206 31.342 22.9393 31.0607C22.658 30.7794 22.5 30.3978 22.5 30V25.5H18C17.6022 25.5 17.2206 25.342 16.9393 25.0607C16.658 24.7794 16.5 24.3978 16.5 24C16.5 23.6022 16.658 23.2206 16.9393 22.9393C17.2206 22.658 17.6022 22.5 18 22.5H22.5V18C22.5 17.6022 22.658 17.2206 22.9393 16.9393C23.2206 16.658 23.6022 16.5 24 16.5C24.3978 16.5 24.7794 16.658 25.0607 16.9393C25.342 17.2206 25.5 17.6022 25.5 18V22.5H30C30.3978 22.5 30.7794 22.658 31.0607 22.9393C31.342 23.2206 31.5 23.6022 31.5 24C31.5 24.3978 31.342 24.7794 31.0607 25.0607C30.7794 25.342 30.3978 25.5 30 25.5Z" fill="#005AFE"/>
</svg>
