<svg width="28" height="28" viewBox="0 0 28 28" fill="none" xmlns="http://www.w3.org/2000/svg">
<path d="M27.4446 13.2003V14.6703C27.4264 14.7363 27.4122 14.8033 27.4021 14.8711C27.222 16.898 26.6273 18.8664 25.655 20.654C24.3244 23.1287 22.4542 25.0766 19.8573 26.2234C16.4514 27.728 12.9636 27.8538 9.45451 26.6024C6.56481 25.5722 4.22803 23.8018 2.56223 21.2013C1.34187 19.2972 0.723912 17.1951 0.586745 14.9439C0.435437 12.3773 0.82714 9.90903 2.06871 7.63588C4.17641 3.77612 7.52498 1.62599 11.7651 0.757035C12.2601 0.655928 12.7663 0.615626 13.2676 0.544922H14.8938C15.2219 0.583102 15.5514 0.615626 15.878 0.66017C19.1304 1.10561 21.8759 2.51758 24.0451 4.99789C25.742 6.93661 26.8026 9.18714 27.2402 11.7254C27.3265 12.2133 27.3788 12.7082 27.4446 13.2003ZM1.43661 14.4313C1.56812 17.2913 2.51839 19.7992 4.35671 22.0476C4.41934 21.9544 4.48758 21.8652 4.56105 21.7803C5.31608 21.0261 6.16292 20.3698 7.08166 19.8268C7.27186 19.715 7.31994 19.6111 7.2655 19.3969C6.95397 18.1495 6.76174 16.8753 6.69138 15.5916C6.66946 15.2098 6.64825 14.8279 6.62633 14.4334L1.43661 14.4313ZM6.63835 13.5482C6.66766 11.7789 6.89895 10.0187 7.32772 8.30192C6.22232 7.66652 5.21133 6.87948 4.32419 5.96372C2.52122 8.19374 1.56035 10.7009 1.44086 13.5482H6.63835ZM26.5685 13.5482C26.437 10.6896 25.4846 8.18172 23.6845 5.97291C23.6138 6.03654 23.5685 6.07543 23.5261 6.11432C22.7398 6.91232 21.8525 7.60402 20.8867 8.17182C20.7149 8.27293 20.693 8.37545 20.7368 8.54797C21.0472 9.79497 21.2403 11.0682 21.3138 12.3512C21.3378 12.7485 21.359 13.1459 21.381 13.5447L26.5685 13.5482ZM23.7404 21.9429C25.4868 19.7857 26.4462 17.2764 26.5685 14.4419H21.3569C21.3569 14.5784 21.3569 14.6915 21.3569 14.8046C21.317 16.2905 21.1275 17.7686 20.7913 19.2166C20.6852 19.6656 20.6838 19.6648 21.0875 19.9158C21.1634 19.9592 21.2371 20.0064 21.3081 20.0573C22.1057 20.6752 22.9039 21.2953 23.7375 21.9422L23.7404 21.9429ZM14.4455 18.7662V26.5154C14.5021 26.5112 14.5445 26.5119 14.587 26.5048C15.4828 26.3528 16.2132 25.8946 16.8601 25.2809C17.8542 24.3342 18.521 23.1704 19.042 21.9182C19.2846 21.3335 19.4825 20.7304 19.7038 20.128C18.0703 19.2988 16.2762 18.8342 14.4455 18.7662ZM8.32324 7.85648C9.9489 8.67994 11.7342 9.14002 13.5554 9.20481V1.44358C13.4097 1.47327 13.2825 1.49448 13.1573 1.5263C12.1137 1.79356 11.319 2.42991 10.6374 3.2324C9.50047 4.5772 8.83584 6.16381 8.32324 7.85719V7.85648ZM19.6819 7.85648C19.134 6.06129 18.4198 4.37499 17.1436 2.98211C16.5928 2.38183 15.9572 1.89538 15.178 1.62529C14.9461 1.54468 14.7022 1.49943 14.4491 1.43439V9.21188C16.2706 9.14182 18.0555 8.6795 19.6819 7.85648ZM13.554 26.5225V18.7662C11.7169 18.8376 9.91726 19.3071 8.2794 20.1421C8.60393 20.9531 8.88887 21.7598 9.24522 22.534C9.78753 23.7106 10.496 24.7789 11.5191 25.6047C12.113 26.0848 12.7713 26.4242 13.554 26.5239V26.5225ZM13.554 13.5432V10.0695C11.6629 10.0011 9.80678 9.54026 8.10334 8.71625C7.72943 10.2994 7.5298 11.9188 7.50801 13.5454L13.554 13.5432ZM13.5575 17.9029V14.4355H7.5271C7.42458 15.2896 7.85022 18.6439 8.1387 19.2434C9.83248 18.4266 11.6775 17.9706 13.5568 17.9043L13.5575 17.9029ZM19.9032 8.7113C18.2023 9.53668 16.3483 9.999 14.459 10.0688V13.539H20.5021C20.4759 11.9139 20.2749 10.2962 19.9025 8.71412L19.9032 8.7113ZM20.5 14.432H14.4462V17.9036C16.3405 17.9672 18.2 18.4298 19.9032 19.2611C20.2744 17.6784 20.4742 16.0603 20.4993 14.4348L20.5 14.432ZM23.1019 22.6556C22.3173 21.8325 21.4232 21.1212 20.4448 20.5416C19.7654 22.6415 18.8526 24.5781 17.2327 26.1117C19.5087 25.5171 21.4509 24.361 23.1012 22.6585L23.1019 22.6556ZM23.1019 5.30829C21.4495 3.61138 19.5115 2.45748 17.2419 1.86285C18.8533 3.40068 19.7639 5.33586 20.4434 7.42589C21.4216 6.84507 22.316 6.13359 23.1019 5.31111V5.30829ZM10.7668 1.8678C8.49151 2.46243 6.54784 3.61562 4.90538 5.31748C5.68864 6.14236 6.58377 6.85327 7.56458 7.42942C8.24263 5.33233 9.15189 3.40351 10.7668 1.8678ZM4.90609 22.6648C6.55421 24.3617 8.49575 25.5149 10.7746 26.1138C9.15755 24.5795 8.24617 22.6443 7.5674 20.5486C6.58568 21.1261 5.68984 21.8384 4.90609 22.6648Z" fill="#005AFE"/>
</svg>
