<svg width="32" height="32" viewBox="0 0 32 32" fill="none" xmlns="http://www.w3.org/2000/svg">
<g clip-path="url(#clip0_300_2056)">
<path d="M4.10139 9.97693L9.81878 14.0607C10.1163 14.2732 10.265 14.3795 10.4207 14.4039C10.5577 14.4255 10.698 14.4038 10.8221 14.3418C10.9631 14.2714 11.0727 14.1252 11.2921 13.8327L12.5002 12.2219C12.5623 12.1391 12.5933 12.0978 12.6297 12.0621C12.6621 12.0304 12.6976 12.0021 12.7357 11.9777C12.7786 11.9501 12.8259 11.9291 12.9204 11.8871L18.0785 9.59462C18.2923 9.49959 18.3992 9.45208 18.4798 9.37787C18.5511 9.31223 18.6073 9.23184 18.6443 9.14229C18.6862 9.04105 18.694 8.92431 18.7096 8.69084L19.0872 3.02571M18.0001 17.9998L21.4881 19.4947C21.8928 19.6681 22.0951 19.7549 22.2023 19.8989C22.2964 20.0253 22.3426 20.1809 22.3329 20.3381C22.3218 20.5173 22.1997 20.7005 21.9554 21.0668L20.3167 23.5249C20.201 23.6985 20.1431 23.7854 20.0666 23.8482C19.9989 23.9039 19.9209 23.9456 19.837 23.9711C19.7423 23.9999 19.6379 23.9999 19.4292 23.9999H16.7689C16.4924 23.9999 16.3542 23.9999 16.2366 23.9536C16.1327 23.9128 16.0408 23.8465 15.9692 23.7609C15.8881 23.6639 15.8444 23.5328 15.757 23.2705L14.8065 20.419C14.7549 20.2643 14.7291 20.187 14.7223 20.1083C14.7163 20.0386 14.7213 19.9684 14.7371 19.9003C14.755 19.8234 14.7914 19.7505 14.8643 19.6047L15.5864 18.1606C15.7331 17.8672 15.8064 17.7205 15.9194 17.6294C16.0189 17.5492 16.1395 17.4993 16.2666 17.4856C16.4109 17.4701 16.5665 17.522 16.8777 17.6257L18.0001 17.9998ZM29.3334 15.9998C29.3334 23.3636 23.3639 29.3332 16.0001 29.3332C8.63628 29.3332 2.66675 23.3636 2.66675 15.9998C2.66675 8.63604 8.63628 2.6665 16.0001 2.6665C23.3639 2.6665 29.3334 8.63604 29.3334 15.9998Z" stroke="#005AFE" stroke-width="2" stroke-linecap="round" stroke-linejoin="round"/>
</g>
<defs>
<clipPath id="clip0_300_2056">
<rect width="32" height="32" fill="white"/>
</clipPath>
</defs>
</svg>
