<svg xmlns="http://www.w3.org/2000/svg" width="24" height="24" viewBox="0 0 24 24" fill="none">
<path d="M12 1.99951C17.523 1.99951 22 6.47651 22 11.9995C22 17.5225 17.523 21.9995 12 21.9995C10.404 22.0017 8.83083 21.6203 7.41301 20.8875L3.58701 21.9545C3.37355 22.0141 3.14809 22.0158 2.93373 21.9596C2.71937 21.9033 2.52382 21.7911 2.36712 21.6344C2.21041 21.4777 2.09818 21.2821 2.04194 21.0678C1.98569 20.8534 1.98744 20.628 2.04701 20.4145L3.11501 16.5915C2.38036 15.1724 1.99793 13.5975 2.00001 11.9995C2.00001 6.47651 6.47701 1.99951 12 1.99951ZM12 3.49951C9.74567 3.49951 7.58366 4.39505 5.9896 5.9891C4.39554 7.58316 3.50001 9.74517 3.50001 11.9995C3.50001 13.4695 3.87301 14.8825 4.57301 16.1365L4.72301 16.4065L3.61101 20.3905L7.59801 19.2785L7.86801 19.4285C9.00239 20.0592 10.2661 20.4217 11.5624 20.4883C12.8586 20.5549 14.1528 20.3238 15.3458 19.8126C16.5389 19.3015 17.599 18.5239 18.445 17.5395C19.2909 16.5551 19.9002 15.3901 20.2261 14.1338C20.552 12.8774 20.5858 11.5632 20.325 10.2917C20.0643 9.02025 19.5158 7.8254 18.7216 6.79878C17.9275 5.77216 16.9088 4.94103 15.7437 4.36914C14.5786 3.79724 13.2979 3.49976 12 3.49951ZM12 15.4995C12.2652 15.4995 12.5196 15.6049 12.7071 15.7924C12.8947 15.9799 13 16.2343 13 16.4995C13 16.7647 12.8947 17.0191 12.7071 17.2066C12.5196 17.3942 12.2652 17.4995 12 17.4995C11.7348 17.4995 11.4804 17.3942 11.2929 17.2066C11.1054 17.0191 11 16.7647 11 16.4995C11 16.2343 11.1054 15.9799 11.2929 15.7924C11.4804 15.6049 11.7348 15.4995 12 15.4995ZM12 6.74951C12.7294 6.74951 13.4288 7.03924 13.9446 7.55497C14.4603 8.07069 14.75 8.77017 14.75 9.49951C14.75 10.5095 14.453 11.0735 13.699 11.8585L13.53 12.0295C12.908 12.6515 12.75 12.9155 12.75 13.4995C12.75 13.6984 12.671 13.8892 12.5303 14.0298C12.3897 14.1705 12.1989 14.2495 12 14.2495C11.8011 14.2495 11.6103 14.1705 11.4697 14.0298C11.329 13.8892 11.25 13.6984 11.25 13.4995C11.25 12.4895 11.547 11.9255 12.301 11.1405L12.47 10.9695C13.092 10.3475 13.25 10.0835 13.25 9.49951C13.249 9.17979 13.1255 8.87261 12.9049 8.64116C12.6843 8.40972 12.3834 8.27159 12.0641 8.2552C11.7448 8.2388 11.4314 8.34539 11.1882 8.55303C10.9451 8.76066 10.7908 9.05357 10.757 9.37151L10.75 9.49951C10.75 9.69842 10.671 9.88919 10.5303 10.0298C10.3897 10.1705 10.1989 10.2495 10 10.2495C9.8011 10.2495 9.61033 10.1705 9.46968 10.0298C9.32903 9.88919 9.25001 9.69842 9.25001 9.49951C9.25001 8.77017 9.53974 8.07069 10.0555 7.55497C10.5712 7.03924 11.2707 6.74951 12 6.74951Z" stroke="#858585"/>
</svg>