<svg width="24" height="24" viewBox="0 0 24 24" fill="none" xmlns="http://www.w3.org/2000/svg">
<path fill-rule="evenodd" clip-rule="evenodd" d="M3.75003 11.8639V17.9981C3.75003 18.5951 3.98703 19.1674 4.40928 19.5889C4.61806 19.7979 4.86603 19.9638 5.139 20.0769C5.41196 20.19 5.70455 20.2482 6.00003 20.2481H18C18.597 20.2481 19.1693 20.0111 19.5908 19.5889C19.7999 19.3801 19.9657 19.1321 20.0788 18.8591C20.192 18.5862 20.2501 18.2936 20.25 17.9981V11.4851L21.2003 12.5081C21.3365 12.6499 21.523 12.7325 21.7195 12.7381C21.9161 12.7437 22.107 12.672 22.2511 12.5382C22.3953 12.4045 22.4811 12.2195 22.4902 12.0231C22.4993 11.8267 22.4309 11.6346 22.2998 11.4881L13.6703 2.19485C13.4571 1.96556 13.1984 1.78326 12.9107 1.6596C12.623 1.53594 12.3128 1.47363 11.9997 1.47667C11.6866 1.4797 11.3775 1.54801 11.0923 1.67722C10.8071 1.80644 10.552 1.99372 10.3433 2.2271L2.06553 11.4986C1.99993 11.5721 1.94945 11.6578 1.91697 11.7507C1.88448 11.8437 1.87063 11.9422 1.8762 12.0405C1.88745 12.2391 1.97714 12.4251 2.12553 12.5576C2.27392 12.6901 2.46885 12.7582 2.66745 12.7469C2.86605 12.7357 3.05205 12.646 3.18453 12.4976L3.75003 11.8639ZM18.75 9.8696L12.5715 3.2156C12.5005 3.13905 12.4143 3.07816 12.3184 3.03685C12.2225 2.99554 12.119 2.97472 12.0146 2.9757C11.9102 2.97669 11.8071 2.99948 11.712 3.04259C11.6169 3.08571 11.5318 3.14822 11.4623 3.2261L5.25003 10.1839V17.9981C5.24973 18.0967 5.26893 18.1943 5.30651 18.2855C5.3441 18.3766 5.39933 18.4594 5.46903 18.5291C5.53874 18.5988 5.62154 18.654 5.71266 18.6916C5.80379 18.7292 5.90145 18.7484 6.00003 18.7481H9.00003V14.9981C9.00003 14.4014 9.23708 13.8291 9.65904 13.4071C10.081 12.9852 10.6533 12.7481 11.25 12.7481H12.75C13.3468 12.7481 13.9191 12.9852 14.341 13.4071C14.763 13.8291 15 14.4014 15 14.9981V18.7481H18C18.0986 18.7484 18.1963 18.7292 18.2874 18.6916C18.3785 18.654 18.4613 18.5988 18.531 18.5291C18.6007 18.4594 18.656 18.3766 18.6935 18.2855C18.7311 18.1943 18.7503 18.0967 18.75 17.9981V9.8696ZM13.5 18.7481V14.9981C13.5 14.7992 13.421 14.6084 13.2804 14.4678C13.1397 14.3271 12.9489 14.2481 12.75 14.2481H11.25C11.0511 14.2481 10.8603 14.3271 10.7197 14.4678C10.579 14.6084 10.5 14.7992 10.5 14.9981V18.7481H13.5Z" fill="#005AFE"/>
</svg>
