<svg width="56" height="56" viewBox="0 0 56 56" fill="none" xmlns="http://www.w3.org/2000/svg">
<circle cx="28" cy="28" r="28" fill="url(#paint0_linear_6102_28310)"/>
<circle cx="28" cy="28" r="21" fill="#F6F7FA"/>
<path d="M23.9998 40V30.1333C23.9998 29.3866 23.9998 29.0132 24.1452 28.728C24.273 28.4771 24.477 28.2732 24.7279 28.1453C25.0131 28 25.3864 28 26.1332 28H29.8665C30.6132 28 30.9866 28 31.2718 28.1453C31.5227 28.2732 31.7267 28.4771 31.8545 28.728C31.9998 29.0132 31.9998 29.3866 31.9998 30.1333V40M14.6665 24.6667L26.7198 15.6267C27.1789 15.2824 27.4084 15.1103 27.6604 15.0439C27.8829 14.9854 28.1168 14.9854 28.3393 15.0439C28.5913 15.1103 28.8208 15.2824 29.2798 15.6267L41.3332 24.6667M17.3332 22.6667V35.7333C17.3332 37.2268 17.3332 37.9735 17.6238 38.544C17.8795 39.0457 18.2874 39.4537 18.7892 39.7094C19.3596 40 20.1064 40 21.5998 40H34.3998C35.8933 40 36.6401 40 37.2105 39.7094C37.7123 39.4537 38.1202 39.0457 38.3759 38.544C38.6665 37.9735 38.6665 37.2268 38.6665 35.7333V22.6667L30.5598 16.5867C29.6418 15.8981 29.1828 15.5539 28.6787 15.4212C28.2337 15.304 27.766 15.304 27.321 15.4212C26.8169 15.5539 26.3579 15.8981 25.4398 16.5867L17.3332 22.6667Z" stroke="url(#paint1_linear_6102_28310)" stroke-width="2.2" stroke-linecap="round" stroke-linejoin="round"/>
<defs>
<linearGradient id="paint0_linear_6102_28310" x1="28" y1="0" x2="28" y2="56" gradientUnits="userSpaceOnUse">
<stop stop-color="#005AFE"/>
<stop offset="1" stop-color="#0647BD"/>
</linearGradient>
<linearGradient id="paint1_linear_6102_28310" x1="27.9998" y1="15" x2="27.9998" y2="40" gradientUnits="userSpaceOnUse">
<stop stop-color="#005AFE"/>
<stop offset="1" stop-color="#0647BD"/>
</linearGradient>
</defs>
</svg>
