<svg width="16" height="16" viewBox="0 0 16 16" fill="none" xmlns="http://www.w3.org/2000/svg">
<path d="M6.03125 2.5H9.96875V1.40625C9.96875 1.05078 10.2422 0.75 10.625 0.75C10.9805 0.75 11.2812 1.05078 11.2812 1.40625V2.5H12.375C13.332 2.5 14.125 3.29297 14.125 4.25V13C14.125 13.9844 13.332 14.75 12.375 14.75H3.625C2.64062 14.75 1.875 13.9844 1.875 13V4.25C1.875 3.29297 2.64062 2.5 3.625 2.5H4.71875V1.40625C4.71875 1.05078 4.99219 0.75 5.375 0.75C5.73047 0.75 6.03125 1.05078 6.03125 1.40625V2.5ZM3.1875 13C3.1875 13.2461 3.37891 13.4375 3.625 13.4375H12.375C12.5938 13.4375 12.8125 13.2461 12.8125 13V6H3.1875V13Z" fill="#001A34" fill-opacity="0.5"/>
</svg>
