<svg width="49" height="48" viewBox="0 0 49 48" fill="none" xmlns="http://www.w3.org/2000/svg">
<path d="M47.5041 24.9475C47.2641 25.9625 47.1442 27.0242 46.7663 27.984C45.0291 32.3786 41.779 34.9424 37.0653 35.4439C33.1842 35.8602 29.8862 34.5045 27.3032 31.594C23.9836 27.852 20.7395 24.0441 17.4535 20.2734C14.6941 17.1133 9.59531 17.712 7.78493 21.4239C6.81436 23.4143 6.95232 25.395 8.21563 27.2126C9.47894 29.0302 11.3181 29.828 13.5448 29.6456C15.1644 29.5137 16.4829 28.7854 17.5399 27.5629C18.2513 26.7387 18.9675 25.9193 19.7126 25.0615L23.5097 29.4417C23.1989 29.8016 22.887 30.1615 22.5847 30.5214C21.4377 31.8999 20.1852 33.1512 18.586 34.0186C11.5365 37.8337 2.86248 33.5639 1.63157 25.6625C0.611803 19.1193 5.47067 13.0223 12.1171 12.5412C15.8998 12.2665 19.1283 13.5166 21.6477 16.3455C24.9541 20.0575 28.1754 23.8462 31.4398 27.5977C34.168 30.7338 39.154 30.2647 41.058 26.6667C42.1197 24.6608 42.0274 22.6381 40.7521 20.7569C39.4767 18.8757 37.652 18.0935 35.4073 18.2687C33.7709 18.397 32.4404 19.1337 31.3774 20.3754C30.6792 21.1924 29.969 21.9998 29.2179 22.8564L25.4484 18.5122C27.6847 15.4769 30.3481 13.1783 34.2316 12.6048C40.2038 11.7254 45.9492 15.6365 47.2269 21.5211C47.3373 22.0298 47.4129 22.5469 47.5041 23.0592V24.9475Z" fill="#005AFE"/>
</svg>
