<svg width="45" height="45" viewBox="0 0 45 45" fill="none" xmlns="http://www.w3.org/2000/svg">
<path d="M22.5 45C34.9264 45 45 34.9264 45 22.5C45 10.0736 34.9264 0 22.5 0C10.0736 0 0 10.0736 0 22.5C0 34.9264 10.0736 45 22.5 45Z" fill="#005AFE"/>
<path d="M24.4224 25.5686C23.7811 25.9962 23.0363 26.2222 22.2683 26.2222C21.5003 26.2222 20.7554 25.9962 20.1142 25.5686L9.55189 18.5269C9.49358 18.4879 9.43635 18.4473 9.38026 18.4052V29.9439C9.38026 31.2668 10.4538 32.3167 11.7531 32.3167H32.7834C34.1063 32.3167 35.1562 31.2431 35.1562 29.9439V18.4052C35.1 18.4474 35.0427 18.4881 34.9842 18.5271L24.4224 25.5686Z" fill="#005AFE"/>
<path d="M10.3897 17.2706L20.9519 24.3124C21.3518 24.579 21.81 24.7122 22.2682 24.7122C22.7265 24.7122 23.1848 24.5789 23.5846 24.3124L34.1469 17.2706C34.7789 16.8495 35.1563 16.1447 35.1563 15.384C35.1563 14.076 34.0922 13.0119 32.7842 13.0119H11.7523C10.4444 13.012 9.38027 14.076 9.38027 15.3852C9.37987 15.7584 9.47184 16.1258 9.64797 16.4548C9.82409 16.7838 10.0789 17.064 10.3897 17.2706Z" fill="#005AFE"/>
<path d="M26.9531 16.9336C26.9531 15.8983 26.9531 15.3806 26.8393 14.9559C26.5305 13.8033 25.6302 12.9031 24.4777 12.5943C24.053 12.4805 23.5353 12.4805 22.5 12.4805C21.4647 12.4805 20.947 12.4805 20.5223 12.5943C19.3698 12.9031 18.4695 13.8033 18.1607 14.9559C18.0469 15.3806 18.0469 15.8983 18.0469 16.9336M14.9297 32.5195H30.0703C31.3173 32.5195 31.9408 32.5195 32.4171 32.2769C32.836 32.0634 33.1767 31.7228 33.3901 31.3038C33.6328 30.8275 33.6328 30.204 33.6328 28.957V20.4961C33.6328 19.2491 33.6328 18.6256 33.3901 18.1493C33.1767 17.7304 32.836 17.3897 32.4171 17.1763C31.9408 16.9336 31.3173 16.9336 30.0703 16.9336H14.9297C13.6827 16.9336 13.0592 16.9336 12.5829 17.1763C12.164 17.3897 11.8233 17.7304 11.6099 18.1493C11.3672 18.6256 11.3672 19.2491 11.3672 20.4961V28.957C11.3672 30.204 11.3672 30.8275 11.6099 31.3038C11.8233 31.7228 12.164 32.0634 12.5829 32.2769C13.0592 32.5195 13.6827 32.5195 14.9297 32.5195Z" stroke="white" stroke-width="2" stroke-linecap="round" stroke-linejoin="round"/>
</svg>
