<svg fill="none" xmlns="http://www.w3.org/2000/svg">
<path d="M28.25 56C43.714 56 56.25 43.464 56.25 28C56.25 12.536 43.714 0 28.25 0C12.786 0 0.25 12.536 0.25 28C0.25 43.464 12.786 56 28.25 56Z" fill="#005AFE"/>
<path d="M30.6424 31.8188C29.8443 32.3508 28.9173 32.632 27.9616 32.632C27.006 32.632 26.079 32.3508 25.281 31.8188L12.1368 23.0557C12.0642 23.0072 11.993 22.9567 11.9232 22.9043V37.2635C11.9232 38.9098 13.2592 40.2164 14.8761 40.2164H41.0471C42.6934 40.2164 44 38.8803 44 37.2635V22.9042C43.93 22.9568 43.8587 23.0074 43.786 23.056L30.6424 31.8188Z" fill="#005AFE"/>
<path d="M13.1794 21.4923L26.3235 30.2554C26.8211 30.5872 27.3913 30.753 27.9616 30.753C28.5319 30.753 29.1022 30.5871 29.5997 30.2554L42.7439 21.4923C43.5305 20.9683 44 20.0912 44 19.1445C44 17.5168 42.6758 16.1926 41.0481 16.1926H14.8751C13.2475 16.1927 11.9232 17.5169 11.9232 19.1461C11.9227 19.6104 12.0372 20.0677 12.2564 20.4771C12.4755 20.8865 12.7926 21.2353 13.1794 21.4923Z" fill="#005AFE"/>
<path d="M22.0837 37.4993H34.417V34.3327H22.0837V37.4993ZM22.0837 31.166H34.417V27.9993H22.0837V31.166ZM19.0003 43.8327C18.1524 43.8327 17.4265 43.5226 16.8227 42.9025C16.2189 42.2823 15.917 41.5368 15.917 40.666V15.3327C15.917 14.4618 16.2189 13.7164 16.8227 13.0962C17.4265 12.4761 18.1524 12.166 19.0003 12.166H31.3337L40.5837 21.666V40.666C40.5837 41.5368 40.2817 42.2823 39.6779 42.9025C39.0741 43.5226 38.3482 43.8327 37.5003 43.8327H19.0003ZM29.792 23.2493V15.3327H19.0003V40.666H37.5003V23.2493H29.792Z" fill="white"/>
</svg>
