<svg width="57" height="56" viewBox="0 0 57 56" fill="none" xmlns="http://www.w3.org/2000/svg">
<path d="M28.25 56C43.714 56 56.25 43.464 56.25 28C56.25 12.536 43.714 0 28.25 0C12.786 0 0.25 12.536 0.25 28C0.25 43.464 12.786 56 28.25 56Z" fill="#005AFE"/>
<path d="M30.6424 31.8188C29.8443 32.3508 28.9173 32.632 27.9616 32.632C27.006 32.632 26.079 32.3508 25.281 31.8188L12.1368 23.0557C12.0642 23.0072 11.993 22.9567 11.9232 22.9043V37.2635C11.9232 38.9098 13.2592 40.2164 14.8761 40.2164H41.0471C42.6934 40.2164 44 38.8803 44 37.2635V22.9042C43.93 22.9568 43.8587 23.0074 43.786 23.056L30.6424 31.8188Z" fill="#005AFE"/>
<path d="M13.1794 21.4923L26.3235 30.2554C26.8211 30.5872 27.3913 30.753 27.9616 30.753C28.5319 30.753 29.1022 30.5871 29.5997 30.2554L42.7439 21.4923C43.5305 20.9683 44 20.0912 44 19.1445C44 17.5168 42.6758 16.1926 41.0481 16.1926H14.8751C13.2475 16.1927 11.9232 17.5169 11.9232 19.1461C11.9227 19.6104 12.0372 20.0677 12.2564 20.4771C12.4755 20.8865 12.7926 21.2353 13.1794 21.4923Z" fill="#005AFE"/>
<path d="M24.6413 38.2108L25.451 40.0318C25.6917 40.5739 26.0845 41.0345 26.5818 41.3577C27.0791 41.681 27.6595 41.853 28.2526 41.8529C28.8457 41.853 29.4261 41.681 29.9234 41.3577C30.4207 41.0345 30.8136 40.5739 31.0543 40.0318L31.864 38.2108C32.1522 37.5646 32.637 37.0259 33.2494 36.6714C33.8656 36.316 34.5784 36.1645 35.2859 36.2389L37.2671 36.4497C37.8568 36.5121 38.452 36.4021 38.9804 36.1329C39.5088 35.8638 39.9478 35.4471 40.2442 34.9335C40.5409 34.4201 40.6823 33.8317 40.6511 33.2396C40.62 32.6474 40.4177 32.0771 40.0687 31.5977L38.8957 29.986C38.478 29.4078 38.2549 28.7119 38.2584 27.9987C38.2583 27.2874 38.4836 26.5944 38.9019 26.0191L40.0749 24.4074C40.4238 23.928 40.6261 23.3576 40.6573 22.7655C40.6884 22.1734 40.5471 21.585 40.2503 21.0716C39.954 20.558 39.515 20.1413 38.9866 19.8722C38.4581 19.603 37.863 19.493 37.2732 19.5554L35.2921 19.7662C34.5846 19.8405 33.8717 19.6891 33.2555 19.3337C32.642 18.9772 32.157 18.4357 31.8701 17.7866L31.0543 15.9656C30.8136 15.4235 30.4207 14.9629 29.9234 14.6397C29.4261 14.3164 28.8457 14.1444 28.2526 14.1445C27.6595 14.1444 27.0791 14.3164 26.5818 14.6397C26.0845 14.9629 25.6917 15.4235 25.451 15.9656L24.6413 17.7866C24.3544 18.4357 23.8695 18.9772 23.2559 19.3337C22.6397 19.6891 21.9268 19.8405 21.2193 19.7662L19.232 19.5554C18.6423 19.493 18.0471 19.603 17.5187 19.8722C16.9903 20.1413 16.5513 20.558 16.2549 21.0716C15.9582 21.585 15.8168 22.1734 15.848 22.7655C15.8791 23.3576 16.0815 23.928 16.4304 24.4074L17.6034 26.0191C18.0217 26.5944 18.247 27.2874 18.2468 27.9987C18.247 28.71 18.0217 29.403 17.6034 29.9783L16.4304 31.59C16.0815 32.0694 15.8791 32.6397 15.848 33.2319C15.8168 33.824 15.9582 34.4124 16.2549 34.9258C16.5516 35.4392 16.9906 35.8556 17.519 36.1247C18.0473 36.3938 18.6423 36.504 19.232 36.442L21.2132 36.2312C21.9207 36.1569 22.6335 36.3083 23.2497 36.6637C23.8656 37.0192 24.3528 37.5608 24.6413 38.2108Z" stroke="white" stroke-width="3" stroke-linecap="round" stroke-linejoin="round"/>
<path d="M28.2502 32.1549C30.5456 32.1549 32.4064 30.2941 32.4064 27.9987C32.4064 25.7033 30.5456 23.8424 28.2502 23.8424C25.9547 23.8424 24.0939 25.7033 24.0939 27.9987C24.0939 30.2941 25.9547 32.1549 28.2502 32.1549Z" stroke="white" stroke-width="3" stroke-linecap="round" stroke-linejoin="round"/>
</svg>
