<svg width="60" height="44" viewBox="0 0 60 44" fill="none" xmlns="http://www.w3.org/2000/svg">
<path d="M30 6C27.4288 6 24.9154 6.76244 22.7776 8.1909C20.6397 9.61935 18.9735 11.6497 17.9896 14.0251C17.0056 16.4006 16.7482 19.0144 17.2498 21.5362C17.7514 24.0579 18.9895 26.3743 20.8076 28.1924C22.6257 30.0105 24.9421 31.2486 27.4638 31.7502C29.9856 32.2518 32.5994 31.9944 34.9749 31.0104C37.3503 30.0265 39.3806 28.3603 40.8091 26.2224C42.2376 24.0846 43 21.5712 43 19C43 15.5522 41.6304 12.2456 39.1924 9.80761C36.7544 7.36964 33.4478 6 30 6ZM21.78 19.57C21.7426 19.6961 21.6807 19.8135 21.5979 19.9157C21.515 20.0178 21.4129 20.1027 21.2973 20.1653C21.1817 20.228 21.0549 20.2673 20.9241 20.281C20.7933 20.2947 20.6611 20.2824 20.535 20.245C20.4089 20.2076 20.2915 20.1457 20.1893 20.0629C20.0872 19.98 20.0023 19.8779 19.9397 19.7623C19.877 19.6467 19.8377 19.5199 19.824 19.3891C19.8103 19.2583 19.8226 19.1261 19.86 19C19.9322 18.7458 20.1022 18.5305 20.3327 18.4012C20.5631 18.272 20.8354 18.2392 21.09 18.31C21.2192 18.3455 21.3399 18.4067 21.4451 18.4898C21.5502 18.5729 21.6375 18.6763 21.7019 18.7939C21.7662 18.9114 21.8063 19.0407 21.8197 19.174C21.8331 19.3073 21.8196 19.442 21.78 19.57ZM22.16 16.89L20.23 16.35C20.6897 14.7456 21.538 13.2793 22.6997 12.081C23.8614 10.8827 25.3006 9.9893 26.89 9.48L27.5 11.39C26.2254 11.7953 25.0708 12.5096 24.1391 13.4692C23.2074 14.4288 22.5275 15.604 22.16 16.89ZM30 18C30.9932 17.9395 31.9702 18.273 32.719 18.9283C33.4679 19.5835 33.9281 20.5076 34 21.5C33.9611 22.3213 33.6422 23.1045 33.0965 23.7194C32.5507 24.3343 31.8109 24.7439 31 24.88V27H29V24.88C28.1891 24.7439 27.4493 24.3343 26.9035 23.7194C26.3578 23.1045 26.0389 22.3213 26 21.5H28C28 22.31 28.92 23 30 23C31.08 23 32 22.31 32 21.5C32 20.69 31.08 20 30 20C29.0068 20.0605 28.0298 19.727 27.281 19.0717C26.5321 18.4165 26.0719 17.4924 26 16.5C26.0389 15.6787 26.3578 14.8955 26.9035 14.2806C27.4493 13.6657 28.1891 13.2561 29 13.12V11H31V13.12C31.8109 13.2561 32.5507 13.6657 33.0965 14.2806C33.6422 14.8955 33.9611 15.6787 34 16.5H32C32 15.69 31.08 15 30 15C28.92 15 28 15.69 28 16.5C28 17.31 28.92 18 30 18ZM0 43C0 43.2652 0.105357 43.5196 0.292893 43.7071C0.48043 43.8946 0.734784 44 1 44H59C59.2652 44 59.5196 43.8946 59.7071 43.7071C59.8946 43.5196 60 43.2652 60 43V41C60 40.7348 59.8946 40.4804 59.7071 40.2929C59.5196 40.1054 59.2652 40 59 40H38.41L37.72 40.7C37.6262 40.7957 37.5141 40.8716 37.3905 40.9231C37.2668 40.9746 37.134 41.0008 37 41H23C22.8713 41.0015 22.7436 40.9765 22.6249 40.9266C22.5062 40.8768 22.399 40.803 22.31 40.71L21.61 40H1C0.734784 40 0.48043 40.1054 0.292893 40.2929C0.105357 40.4804 0 40.7348 0 41V43Z" fill="#005AFE"/>
<path d="M22.71 38.29L23.41 39H36.59L37.29 38.29C37.3834 38.1973 37.4943 38.124 37.6161 38.0742C37.7379 38.0245 37.8684 37.9992 38 38H55V2C55 1.46957 54.7893 0.96086 54.4142 0.585787C54.0391 0.210714 53.5304 0 53 0H7C6.46957 0 5.96086 0.210714 5.58579 0.585787C5.21071 0.96086 5 1.46957 5 2V38H22C22.1316 37.9992 22.2621 38.0245 22.3839 38.0742C22.5057 38.124 22.6166 38.1973 22.71 38.29ZM9 4H51V34H9V4Z" fill="#005AFE"/>
</svg>
