<svg width="56" height="56" viewBox="0 0 56 56" fill="none" xmlns="http://www.w3.org/2000/svg">
<circle cx="28" cy="28" r="28" fill="url(#paint0_linear_37077_16759)"/>
<circle cx="28" cy="28" r="21" fill="#F6F7FA"/>
<path d="M38.7483 22.6391C37.8705 22.6391 37.0345 22.6391 36.1947 22.6391C34.5338 22.6391 33.384 21.4901 33.381 19.8344C33.381 18.9983 33.381 18.1623 33.381 17.283H23.6831C22.9931 17.283 22.6476 17.6235 22.6466 18.3046C22.6466 18.8344 22.6466 19.3642 22.6466 19.8947C22.6429 20.4566 22.2591 20.8589 21.7405 20.8522C21.2293 20.8463 20.8568 20.4469 20.8568 19.9022C20.8627 19.1779 20.8187 18.4454 20.9126 17.7316C21.0833 16.4418 22.204 15.5126 23.5206 15.5051C25.5146 15.4939 27.5086 15.5051 29.5033 15.5014C31.0406 15.5014 32.5785 15.5074 34.1158 15.5014C34.2821 15.4952 34.4478 15.5244 34.6019 15.5871C34.7561 15.6498 34.8951 15.7445 35.0099 15.865C36.7242 17.5863 38.444 19.3023 40.1693 21.0132C40.2901 21.1278 40.3853 21.2668 40.4485 21.4209C40.5117 21.5751 40.5415 21.7409 40.5359 21.9074C40.5299 27.1611 40.5284 32.4146 40.5314 37.6678C40.5314 39.3622 39.3898 40.4993 37.6894 40.4993C34.2121 40.4993 30.7365 40.4993 27.2627 40.4993C27.1236 40.5036 26.9846 40.488 26.8499 40.4531C26.6502 40.3935 26.4781 40.2649 26.3645 40.0902C26.2508 39.9155 26.2028 39.7061 26.2292 39.4993C26.2527 39.2891 26.3499 39.094 26.5037 38.9487C26.6575 38.8034 26.8577 38.7173 27.069 38.7058C27.1614 38.6998 27.2553 38.7058 27.3484 38.7058H37.6641C38.4256 38.7058 38.7483 38.3816 38.7483 37.6179V22.6406V22.6391ZM37.3668 20.8507L35.1731 18.6645C35.1731 19.093 35.1582 19.5654 35.1776 20.0363C35.1883 20.2436 35.2741 20.4399 35.4188 20.5886C35.5636 20.7374 35.7575 20.8284 35.9644 20.8448C36.4451 20.8709 36.9279 20.8485 37.3668 20.8485V20.8507Z" fill="url(#paint1_linear_37077_16759)"/>
<path d="M20.8543 38.2023C20.1837 38.8677 19.5242 39.5235 18.8618 40.1762C18.5324 40.5011 18.1643 40.5786 17.7947 40.3997C17.4252 40.2209 17.2731 39.8968 17.2731 39.4884C17.2769 37.0898 17.2731 34.6912 17.2791 32.2926C17.2818 32.1934 17.2633 32.0947 17.2247 32.0032C17.1861 31.9117 17.1285 31.8295 17.0556 31.7621C15.5638 30.1764 15.0832 28.3158 15.7873 26.2563C16.4855 24.2228 17.9743 23.0156 20.1136 22.6923C21.2248 22.5308 22.3586 22.7235 23.354 23.2431C24.3493 23.7628 25.1557 24.5828 25.6584 25.5868C26.1612 26.5908 26.3348 27.7277 26.1545 28.836C25.9743 29.9443 25.4494 30.9676 24.6545 31.7606C24.5805 31.827 24.5221 31.9089 24.4835 32.0005C24.4449 32.0921 24.4269 32.1911 24.431 32.2904C24.4389 34.6987 24.4389 37.1065 24.431 39.5138C24.431 40.2515 23.7603 40.706 23.1396 40.3938C23.0185 40.3253 22.9083 40.2392 22.8125 40.1382C22.162 39.4996 21.5152 38.858 20.8543 38.2023ZM20.8468 24.4255C20.3759 24.4264 19.9098 24.5204 19.4752 24.702C19.0407 24.8836 18.6463 25.1492 18.3146 25.4836C17.983 25.818 17.7207 26.2146 17.5427 26.6506C17.3648 27.0866 17.2747 27.5535 17.2776 28.0245C17.2866 29.982 18.902 31.5698 20.8796 31.5646C21.3484 31.5624 21.8122 31.4679 22.2445 31.2865C22.6768 31.105 23.0691 30.8402 23.3991 30.5072C23.729 30.1741 23.9901 29.7793 24.1675 29.3453C24.3449 28.9114 24.435 28.4467 24.4328 27.9779C24.4306 27.5091 24.3361 27.0453 24.1547 26.613C23.9732 26.1807 23.7084 25.7884 23.3753 25.4585C23.0423 25.1285 22.6475 24.8674 22.2135 24.69C21.7796 24.5127 21.3149 24.4225 20.8461 24.4247L20.8468 24.4255ZM22.6352 33.0475C21.4883 33.4493 20.2393 33.4511 19.0913 33.0527V37.3924C19.1153 37.3829 19.1383 37.3709 19.1598 37.3566C19.4952 37.0213 19.8305 36.686 20.1658 36.3507C20.6129 35.9036 21.1084 35.908 21.5599 36.3559C21.864 36.6539 22.1635 36.9624 22.4668 37.2634C22.5204 37.3115 22.5766 37.3565 22.6352 37.3983V33.0475Z" fill="url(#paint2_linear_37077_16759)"/>
<path d="M31.6136 34.2429C33.0577 34.2429 34.5017 34.2429 35.9458 34.2429C36.5419 34.2429 36.948 34.6028 36.9518 35.1282C36.9555 35.6535 36.5486 36.0268 35.9585 36.0268C33.043 36.0268 30.1268 36.0268 27.2098 36.0268C26.6219 36.0268 26.2143 35.6542 26.2188 35.1267C26.2233 34.5991 26.6264 34.2429 27.2247 34.2429C28.6877 34.2419 30.1506 34.2419 31.6136 34.2429Z" fill="url(#paint3_linear_37077_16759)"/>
<path d="M32.5014 25.3175C33.6564 25.3175 34.8116 25.3175 35.967 25.3175C36.5557 25.3175 36.9633 25.6901 36.9596 26.2169C36.9558 26.7437 36.552 27.1014 35.9812 27.1021C33.6519 27.1021 31.3228 27.1021 28.994 27.1021C28.4232 27.1021 28.0194 26.7296 28.0157 26.2162C28.0119 25.6871 28.4165 25.3183 29.0074 25.3175C30.1723 25.316 31.337 25.316 32.5014 25.3175Z" fill="url(#paint4_linear_37077_16759)"/>
<path d="M32.5156 29.78C33.6616 29.78 34.8076 29.78 35.9536 29.78C36.5497 29.78 36.9558 30.1407 36.9596 30.6653C36.9633 31.1898 36.5564 31.5639 35.9663 31.5647H29.0074C28.4188 31.5647 28.0112 31.1921 28.0157 30.6638C28.0201 30.1355 28.424 29.7808 29.0216 29.78C30.186 29.779 31.3507 29.779 32.5156 29.78Z" fill="url(#paint5_linear_37077_16759)"/>
<path d="M28.4443 22.6393C27.7364 22.6393 27.0286 22.6393 26.3207 22.6393C25.732 22.6393 25.3244 22.2668 25.3282 21.7399C25.3319 21.2131 25.7328 20.8562 26.3058 20.8555C27.7409 20.8555 29.1756 20.8555 30.6097 20.8555C31.1805 20.8555 31.5843 21.2243 31.5881 21.7399C31.5918 22.2556 31.1857 22.6341 30.5963 22.6393C29.8787 22.6408 29.1619 22.6393 28.4443 22.6393Z" fill="url(#paint6_linear_37077_16759)"/>
<defs>
<linearGradient id="paint0_linear_37077_16759" x1="28" y1="0" x2="28" y2="56" gradientUnits="userSpaceOnUse">
<stop stop-color="#005AFE"/>
<stop offset="1" stop-color="#0647BD"/>
</linearGradient>
<linearGradient id="paint1_linear_37077_16759" x1="30.694" y1="15.5" x2="30.694" y2="40.5" gradientUnits="userSpaceOnUse">
<stop stop-color="#005AFE"/>
<stop offset="1" stop-color="#0647BD"/>
</linearGradient>
<linearGradient id="paint2_linear_37077_16759" x1="20.8463" y1="22.6367" x2="20.8463" y2="40.4937" gradientUnits="userSpaceOnUse">
<stop stop-color="#005AFE"/>
<stop offset="1" stop-color="#0647BD"/>
</linearGradient>
<linearGradient id="paint3_linear_37077_16759" x1="31.5853" y1="34.2422" x2="31.5853" y2="36.0268" gradientUnits="userSpaceOnUse">
<stop stop-color="#005AFE"/>
<stop offset="1" stop-color="#0647BD"/>
</linearGradient>
<linearGradient id="paint4_linear_37077_16759" x1="32.4876" y1="25.3164" x2="32.4876" y2="27.1021" gradientUnits="userSpaceOnUse">
<stop stop-color="#005AFE"/>
<stop offset="1" stop-color="#0647BD"/>
</linearGradient>
<linearGradient id="paint5_linear_37077_16759" x1="32.4876" y1="29.7793" x2="32.4876" y2="31.5647" gradientUnits="userSpaceOnUse">
<stop stop-color="#005AFE"/>
<stop offset="1" stop-color="#0647BD"/>
</linearGradient>
<linearGradient id="paint6_linear_37077_16759" x1="28.4581" y1="20.8555" x2="28.4581" y2="22.64" gradientUnits="userSpaceOnUse">
<stop stop-color="#005AFE"/>
<stop offset="1" stop-color="#0647BD"/>
</linearGradient>
</defs>
</svg>
