<svg width="48" height="48" viewBox="0 0 48 48" fill="none" xmlns="http://www.w3.org/2000/svg">
<g clip-path="url(#clip0_7358_44072)">
<path d="M24.001 0C14.1311 0 6.10156 8.03281 6.10156 17.9066C6.10156 32.6179 22.2194 46.9821 22.9058 47.5866C23.2082 47.8534 23.5977 48.0005 24.001 48.0002C24.3923 48.0002 24.7834 47.8623 25.0965 47.5866C25.7825 46.9823 41.9005 32.618 41.9005 17.9066C41.9005 8.03281 33.8709 0 24.001 0Z" fill="#005AFE"/>
<path d="M30 25.4286C30.5523 25.4286 31 25.8763 31 26.4286V27C31 27.5523 30.5523 28 30 28H24.1688C23.6165 28 23.1688 27.5523 23.1688 27V26.4286C23.1688 25.8763 23.6165 25.4286 24.1688 25.4286H30ZM23.2051 12C23.7574 12 24.2051 12.4477 24.2051 13V27C24.2051 27.5523 23.7574 28 23.2051 28H22C21.4477 28 21 27.5523 21 27V13C21 12.4477 21.4477 12 22 12H23.2051Z" fill="#FEFEFE"/>
</g>
<defs>
<clipPath id="clip0_7358_44072">
<rect width="48" height="48" fill="white"/>
</clipPath>
</defs>
</svg>
