<svg width="48" height="48" viewBox="0 0 48 48" fill="none" xmlns="http://www.w3.org/2000/svg">
<g id="Icon">
<path id="Vector" d="M12.3417 34.6006L14.0317 37.2437C13.6015 37.4163 13.188 37.5438 12.8106 37.7409C12.115 38.1028 11.4002 38.4481 10.7677 38.9002C9.89699 39.5262 9.87896 40.08 10.7677 40.6725C11.5795 41.2153 12.4496 41.6651 13.3619 42.0134C15.598 42.8648 17.9461 43.2358 20.3174 43.4303C20.4089 43.438 20.5016 43.4303 20.6845 43.4303C20.5454 43.2332 20.4501 43.0941 20.3496 42.9589C17.0084 38.4506 13.8295 33.8394 11.1194 28.9189C9.77947 26.5232 8.65072 24.0153 7.74592 21.4237C6.69615 18.3658 6.90353 15.3698 8.06021 12.4278C10.4663 6.31212 14.9449 2.61279 21.4213 1.5115C30.4146 -0.0122846 39.2249 6.40228 40.7178 15.3621C41.1673 18.067 40.6096 20.5594 39.659 23.0286C38.0811 27.126 35.8824 30.9 33.4763 34.5465C31.597 37.388 29.5876 40.138 27.6388 42.9267C27.5383 43.0696 27.4366 43.2113 27.2588 43.4586C27.8191 43.4097 28.2893 43.3813 28.7452 43.3298C31.0638 43.0516 33.3462 42.6098 35.5037 41.6798C36.02 41.4589 36.515 41.1911 36.9824 40.8799C38.1661 40.0878 38.1855 39.463 36.9824 38.6838C36.2212 38.1917 35.3607 37.853 34.5415 37.4511C34.3728 37.3687 34.1873 37.3223 33.9722 37.2373C34.548 36.3356 35.0993 35.4816 35.6776 34.58C37.4139 35.2936 39.0858 36.0651 40.2361 37.6108C41.3013 39.0457 41.2214 40.7807 40.0557 42.1847C39.0498 43.3942 37.7089 44.1168 36.283 44.6926C33.7159 45.7385 31.0187 46.2293 28.2777 46.4959C24.6737 46.8597 21.0382 46.7654 17.4579 46.2151C14.7981 45.8016 12.1769 45.2014 9.85062 43.7819C9.15021 43.3593 8.51898 42.8315 7.97906 42.2169C6.61371 40.6378 6.72062 38.6464 8.15681 37.1252C9.10096 36.1321 10.6518 35.1892 12.3417 34.6006ZM23.9949 9.67654C19.7674 9.66495 16.309 13.1195 16.2884 17.374C16.2678 21.6053 19.7365 25.1024 23.9614 25.1024C28.2236 25.1024 31.7026 21.6762 31.7181 17.4539C31.7261 16.4349 31.5322 15.4244 31.1476 14.4807C30.7629 13.537 30.1952 12.6789 29.4771 11.9558C28.7591 11.2327 27.9049 10.659 26.964 10.2678C26.023 9.87662 25.0139 9.67566 23.9949 9.67654Z" fill="#005AFE"/>
</g>
</svg>
