<svg width="64" height="64" viewBox="0 0 64 64" fill="none" xmlns="http://www.w3.org/2000/svg">
<path d="M32 64C49.6731 64 64 49.6731 64 32C64 14.3269 49.6731 0 32 0C14.3269 0 0 14.3269 0 32C0 49.6731 14.3269 64 32 64Z" fill="#005AFE"/>
<path d="M34.7341 36.3643C33.8221 36.9723 32.7627 37.2937 31.6704 37.2937C30.5782 37.2937 29.5188 36.9723 28.6068 36.3643L13.5849 26.3494C13.502 26.2939 13.4206 26.2362 13.3408 26.1763V42.5868C13.3408 44.4683 14.8677 45.9616 16.7155 45.9616H46.6252C48.5067 45.9616 50 44.4347 50 42.5868V26.1763C49.9201 26.2363 49.8385 26.2941 49.7554 26.3497L34.7341 36.3643Z" fill="#F8F8F8"/>
<path d="M14.7764 24.5626L29.7983 34.5776C30.3669 34.9568 31.0187 35.1463 31.6704 35.1463C32.3221 35.1463 32.9739 34.9567 33.5426 34.5776L48.5645 24.5626C49.4634 23.9637 50 22.9613 50 21.8794C50 20.0192 48.4866 18.5059 46.6265 18.5059H16.7144C14.8542 18.5059 13.3408 20.0193 13.3408 21.8812C13.3403 22.4119 13.4711 22.9345 13.7216 23.4024C13.972 23.8703 14.3344 24.2689 14.7764 24.5626Z" fill="#F8F8F8"/>
</svg>
