<svg width="56" height="56" viewBox="0 0 56 56" fill="none" xmlns="http://www.w3.org/2000/svg">
<circle cx="28" cy="28" r="28" fill="url(#paint0_linear_6102_28312)"/>
<circle cx="28" cy="28" r="21" fill="#F6F7FA"/>
<path d="M32.6665 27.3333H31.3332L29.3332 31.3333L26.6665 23.3333L24.6665 27.3333H23.3332M27.9907 18.8478C25.3249 15.7312 20.8795 14.8929 17.5394 17.7467C14.1994 20.6005 13.7291 25.372 16.3521 28.7472C18.3333 31.2966 23.9616 36.4146 26.5972 38.7665C27.0817 39.1989 27.3239 39.415 27.6076 39.5001C27.8539 39.574 28.1275 39.574 28.3738 39.5001C28.6575 39.415 28.8997 39.1989 29.3842 38.7665C32.0198 36.4146 37.6481 31.2966 39.6293 28.7472C42.2523 25.372 41.8395 20.5705 38.442 17.7467C35.0445 14.9229 30.6565 15.7312 27.9907 18.8478Z" stroke="url(#paint1_linear_6102_28312)" stroke-width="2.2" stroke-linecap="round" stroke-linejoin="round"/>
<defs>
<linearGradient id="paint0_linear_6102_28312" x1="28" y1="0" x2="28" y2="56" gradientUnits="userSpaceOnUse">
<stop stop-color="#005AFE"/>
<stop offset="1" stop-color="#0647BD"/>
</linearGradient>
<linearGradient id="paint1_linear_6102_28312" x1="27.9998" y1="16" x2="27.9998" y2="39.5555" gradientUnits="userSpaceOnUse">
<stop stop-color="#005AFE"/>
<stop offset="1" stop-color="#0647BD"/>
</linearGradient>
</defs>
</svg>
