<svg xmlns="http://www.w3.org/2000/svg" width="24" height="24" viewBox="0 0 24 24" fill="none">
<path d="M8.5 19L8 19C4 19 2 18 2 13L2 8C2 4 4 2 8 2L16 2C20 2 22 4 22 8L22 13C22 17 20 19 16 19L15.5 19C15.19 19 14.89 19.15 14.7 19.4L13.2 21.4C12.54 22.28 11.46 22.28 10.8 21.4L9.3 19.4C9.14 19.18 8.77 19 8.5 19Z" stroke="#858585" stroke-width="1.5" stroke-miterlimit="10" stroke-linecap="round" stroke-linejoin="round"/>
<path d="M15.9965 11L16.0054 11" stroke="#858585" stroke-width="2" stroke-linecap="round" stroke-linejoin="round"/>
<path d="M11.9955 11L12.0045 11" stroke="#858585" stroke-width="2" stroke-linecap="round" stroke-linejoin="round"/>
<path d="M7.99451 11L8.00349 11" stroke="#858585" stroke-width="2" stroke-linecap="round" stroke-linejoin="round"/>
</svg>