<svg width="48" height="48" viewBox="0 0 48 48" fill="none" xmlns="http://www.w3.org/2000/svg">
<path d="M29.6471 12.7058H18.3529C17.9785 12.7058 17.6194 12.8545 17.3547 13.1193C17.0899 13.3841 16.9412 13.7432 16.9412 14.1176V33.8823C16.9412 34.2567 17.0899 34.6158 17.3547 34.8806C17.6194 35.1453 17.9785 35.294 18.3529 35.294H29.6471C30.0215 35.294 30.3806 35.1453 30.6453 34.8806C30.9101 34.6158 31.0588 34.2567 31.0588 33.8823V14.1176C31.0588 13.7432 30.9101 13.3841 30.6453 13.1193C30.3806 12.8545 30.0215 12.7058 29.6471 12.7058ZM25.4118 33.8823H22.5882C22.2138 33.8823 21.8547 33.7335 21.59 33.4688C21.3252 33.204 21.1765 32.8449 21.1765 32.4705C21.1765 32.0961 21.3252 31.737 21.59 31.4722C21.8547 31.2075 22.2138 31.0588 22.5882 31.0588H25.4118C25.7862 31.0588 26.1453 31.2075 26.41 31.4722C26.6748 31.737 26.8235 32.0961 26.8235 32.4705C26.8235 32.8449 26.6748 33.204 26.41 33.4688C26.1453 33.7335 25.7862 33.8823 25.4118 33.8823Z" fill="#005AFE"/>
<path d="M24 1.41174C19.5325 1.41174 15.1653 2.73652 11.4506 5.21855C7.73603 7.70057 4.84084 11.2284 3.13119 15.3558C1.42154 19.4833 0.974219 24.025 1.84579 28.4067C2.71736 32.7884 4.86868 36.8133 8.02771 39.9723C11.1867 43.1313 15.2116 45.2826 19.5933 46.1542C23.9749 47.0258 28.5167 46.5784 32.6441 44.8688C36.7716 43.1591 40.2994 40.2639 42.7814 36.5493C45.2635 32.8347 46.5882 28.4675 46.5882 24C46.5882 18.0092 44.2084 12.2638 39.9723 8.02768C35.7362 3.79157 29.9908 1.41174 24 1.41174ZM33.8824 33.8823C33.879 35.0046 33.4317 36.0799 32.6382 36.8734C31.8446 37.667 30.7693 38.1143 29.6471 38.1176H18.3529C17.2307 38.1143 16.1554 37.667 15.3618 36.8734C14.5683 36.0799 14.121 35.0046 14.1176 33.8823V14.1176C14.121 12.9954 14.5683 11.9201 15.3618 11.1265C16.1554 10.333 17.2307 9.88568 18.3529 9.88233H29.6471C30.7693 9.88568 31.8446 10.333 32.6382 11.1265C33.4317 11.9201 33.879 12.9954 33.8824 14.1176V33.8823Z" fill="#005AFE"/>
</svg>
