<svg width="48" height="48" viewBox="0 0 48 48" fill="none" xmlns="http://www.w3.org/2000/svg">
<path d="M0 30.3714C0.0155707 31.8238 1.18853 32.9977 2.64105 33.0146H45.3588C46.8114 32.9977 47.9843 31.8238 47.9999 30.3714V28.0976H0V30.3714ZM45.3589 0H2.64117C1.20503 0 0 1.10985 0 2.54587V26.4585H48V2.54587C48 1.10985 46.795 0 45.3589 0ZM35.1393 42.4976H29.7366V34.6537H18.2634V42.4976H13.4763C12.8296 42.4976 12.3056 43.0217 12.3056 43.6683C12.3056 44.3149 12.8296 44.839 13.4763 44.839H35.1393C35.786 44.839 36.31 44.3149 36.31 43.6683C36.31 43.0217 35.786 42.4976 35.1393 42.4976Z" fill="#005AFE"/>
</svg>
