<svg xmlns="http://www.w3.org/2000/svg" width="19" height="20" viewBox="0 0 19 20" fill="none">
<path d="M11.356 1.5947C11.3771 1.56816 11.4034 1.54619 11.4332 1.53012C11.4631 1.51406 11.4959 1.50423 11.5296 1.50123C11.5634 1.49824 11.5974 1.50215 11.6296 1.51271C11.6618 1.52328 11.6916 1.54029 11.717 1.5627L12.638 2.3747L9.739 5.9997H11.66L13.766 3.3677L15.418 4.8247C15.4668 4.86786 15.4969 4.9284 15.5018 4.99341C15.5066 5.05842 15.4859 5.12275 15.444 5.1727L14.754 5.9997H16.698C16.9388 5.64718 17.0424 5.21879 16.9894 4.79518C16.9363 4.37157 16.7303 3.98196 16.41 3.6997L12.71 0.436699C12.5315 0.279502 12.3228 0.16034 12.0968 0.0864911C11.8707 0.0126422 11.6319 -0.0143438 11.395 0.00718138C11.1581 0.0287065 10.9282 0.0982909 10.7191 0.211685C10.51 0.325079 10.3262 0.479902 10.179 0.666699L5.976 5.9997H7.886L11.356 1.5947ZM13.25 12.9997C13.0511 12.9997 12.8603 13.0787 12.7197 13.2194C12.579 13.36 12.5 13.5508 12.5 13.7497C12.5 13.9486 12.579 14.1394 12.7197 14.28C12.8603 14.4207 13.0511 14.4997 13.25 14.4997H15.25C15.4489 14.4997 15.6397 14.4207 15.7803 14.28C15.921 14.1394 16 13.9486 16 13.7497C16 13.5508 15.921 13.36 15.7803 13.2194C15.6397 13.0787 15.4489 12.9997 15.25 12.9997H13.25ZM1.5 6.2497C1.5 6.05079 1.57902 5.86002 1.71967 5.71937C1.86032 5.57872 2.05109 5.4997 2.25 5.4997H5.378L6.57 3.9997H2.25C1.65326 3.9997 1.08097 4.23675 0.65901 4.65871C0.237053 5.08067 0 5.65296 0 6.2497V16.7497C0 17.6117 0.34241 18.4383 0.951903 19.0478C1.5614 19.6573 2.38805 19.9997 3.25 19.9997H15.25C16.112 19.9997 16.9386 19.6573 17.5481 19.0478C18.1576 18.4383 18.5 17.6117 18.5 16.7497V10.2497C18.5 9.38774 18.1576 8.5611 17.5481 7.9516C16.9386 7.34211 16.112 6.9997 15.25 6.9997H2.25C2.05109 6.9997 1.86032 6.92068 1.71967 6.78003C1.57902 6.63938 1.5 6.44861 1.5 6.2497ZM1.5 16.7497V8.3717C1.735 8.4547 1.987 8.4997 2.25 8.4997H15.25C16.216 8.4997 17 9.2837 17 10.2497V16.7497C17 17.2138 16.8156 17.6589 16.4874 17.9871C16.1592 18.3153 15.7141 18.4997 15.25 18.4997H3.25C2.78587 18.4997 2.34075 18.3153 2.01256 17.9871C1.68437 17.6589 1.5 17.2138 1.5 16.7497Z" stroke="#858585" />
<path d="M15.9965 11L16.0054 11" stroke="#858585" stroke-width="2" stroke-linecap="round" stroke-linejoin="round"/>
<path d="M11.9955 11L12.0045 11" stroke="#858585" stroke-width="2" stroke-linecap="round" stroke-linejoin="round"/>
<path d="M7.99451 11L8.00349 11" stroke="#858585" stroke-width="2" stroke-linecap="round" stroke-linejoin="round"/>
</svg>
