<svg width="48" height="48" viewBox="0 0 48 48" fill="none" xmlns="http://www.w3.org/2000/svg">
<path d="M32.1662 32.8826C32.1662 33.0317 32.1662 33.1506 32.1662 33.2695C32.1553 36.4175 32.1434 39.5659 32.1305 42.7146C32.1305 43.0261 32.0965 43.337 32.0777 43.6479C32.0074 44.7798 31.3377 45.5157 30.4123 46.0403C30.1293 46.2009 29.7547 46.2558 29.4202 46.2636C27.2383 46.3149 25.0565 46.3669 22.8783 46.3687C17.4753 46.3741 12.0723 46.3548 6.66926 46.3391C6.10441 46.3391 5.54017 46.2787 4.97229 46.2733C3.50259 46.2576 2.37896 44.7086 2.36138 43.6582C2.33471 42.0995 2.29472 40.5408 2.29411 38.9821C2.29088 29.1221 2.29451 19.2639 2.30502 9.40749C2.30502 8.18083 2.35471 6.95416 2.41774 5.7293C2.48138 4.4797 3.68077 3.26329 4.93774 3.22466C6.94562 3.16429 8.95593 3.14618 10.965 3.14075C15.9844 3.12827 21.0038 3.12546 26.0232 3.1323C27.0426 3.1323 28.0626 3.15524 29.0826 3.17335C30.248 3.19448 31.1262 3.71665 31.7335 4.70245C32.0365 5.19143 32.1111 5.74017 32.119 6.29676C32.1414 7.82526 32.1571 9.35437 32.1583 10.8847C32.1583 11.1557 32.219 11.2433 32.508 11.2433C36.0232 11.2433 39.5383 11.2704 43.0535 11.2668C44.108 11.2668 44.8238 11.7817 45.362 12.6142C45.5973 12.9772 45.7178 13.4022 45.708 13.8342C45.6893 18.9546 45.6905 24.0744 45.6838 29.1947C45.6838 29.5769 45.6565 29.959 45.6571 30.3417C45.6571 31.4223 45.005 32.0676 44.162 32.588C43.8589 32.7733 43.5365 32.824 43.1814 32.8246C39.6165 32.8319 36.0517 32.8468 32.4868 32.8693C32.3965 32.8693 32.3068 32.8784 32.1662 32.8826ZM5.00199 5.85125V6.43741C5.00199 16.8991 5.00199 27.3608 5.00199 37.8225C5.00199 38.2619 5.00199 38.2637 5.44138 38.2637C13.3202 38.2637 21.1975 38.2637 29.0735 38.2637C29.1899 38.2637 29.3062 38.2486 29.4196 38.2408V32.8627H28.9711C23.6592 32.8478 18.3472 32.8349 13.0353 32.824C12.659 32.824 12.3183 32.76 11.9947 32.5771C11.0559 32.0465 10.4699 31.3161 10.4729 30.1727C10.485 24.7799 10.4834 19.387 10.468 13.9942C10.468 13.4575 10.5668 12.9794 10.8541 12.54C11.359 11.7679 12.0256 11.2674 13.002 11.2662C18.3757 11.2574 23.7495 11.2449 29.1232 11.2288C29.2286 11.2288 29.3335 11.2155 29.4299 11.2089V5.85125H5.00199ZM12.4983 20.0376C12.4899 20.1161 12.4783 20.1746 12.4783 20.2326C12.4893 23.3314 12.5016 26.4303 12.5153 29.5292C12.5083 29.6088 12.5228 29.6888 12.5571 29.761C12.9529 30.3562 13.4056 30.8361 14.2153 30.8349C23.4274 30.8265 32.6375 30.8287 41.8456 30.8416C42.5692 30.8416 43.0577 30.5397 43.4517 30.0067C43.5583 29.8636 43.6505 29.6668 43.6517 29.4942C43.6777 26.4571 43.688 23.4194 43.702 20.3817C43.702 20.2742 43.702 20.1668 43.702 20.04L12.4983 20.0376ZM43.6741 15.2722C43.805 14.1681 43.1226 13.3579 42.0547 13.3199C41.4486 13.2982 40.8426 13.2813 40.2365 13.2807C32.7117 13.2807 25.1868 13.2827 17.662 13.2867C16.4002 13.2867 15.1377 13.3272 13.8771 13.3875C12.9874 13.431 12.3074 14.4023 12.5232 15.2722H43.6741ZM18.5383 42.3102C18.5347 41.4952 18.0129 40.9954 17.1705 41.0002C16.4396 41.0038 15.8808 41.5882 15.879 42.3512C15.879 43.0388 16.485 43.6588 17.1596 43.6533C18.0068 43.6467 18.5426 43.1245 18.5383 42.3102Z" fill="#005AFE"/>
<path d="M20.3887 29.4373C19.7944 29.4121 19.2301 29.1702 18.8032 28.7575C18.6541 28.6151 18.5608 28.6223 18.4038 28.7497C17.2657 29.663 15.7948 29.6727 14.7675 28.7877C13.7257 27.8864 13.5499 26.3616 14.3572 25.2116C15.1208 24.1249 16.7038 23.7313 17.8275 24.4545C18.3778 24.8089 18.7457 24.8167 19.3014 24.4751C20.4396 23.7688 21.9002 24.0718 22.7129 25.0787C23.1147 25.5775 23.3249 26.2025 23.3057 26.8417C23.2865 27.4809 23.0391 28.0923 22.6081 28.5662C22.0832 29.1554 21.4184 29.4469 20.3887 29.4373Z" fill="#005AFE"/>
<path d="M37.6048 22.0869C39.1401 22.0869 40.6739 22.0869 42.206 22.0869C42.6181 22.0869 42.9381 22.3712 42.9611 22.7811C42.9838 23.1832 42.9853 23.5862 42.9654 23.9885C42.943 24.4346 42.6236 24.7129 42.1775 24.7129L33.0951 24.7491C32.6102 24.7491 32.186 24.3616 32.1739 23.8816C32.1583 23.5106 32.1735 23.1389 32.2193 22.7703C32.2884 22.2934 32.5223 22.1117 33.0036 22.1105C34.5369 22.105 36.0708 22.1105 37.6048 22.1105V22.0869Z" fill="#005AFE"/>
</svg>
