<svg xmlns="http://www.w3.org/2000/svg" width="24" height="24" viewBox="0 0 24 24" fill="none">
  <path d="M17.51 3C16.749 3 15.986 3.29 15.408 3.87C11.59 7.707 7.99599 11.297 4.64599 14.646C4.25099 15.042 3.98099 15.546 3.87099 16.096L3.00999 20.402C2.99393 20.4827 2.99802 20.566 3.02188 20.6447C3.04575 20.7234 3.08866 20.795 3.14681 20.8532C3.20496 20.9113 3.27656 20.9542 3.35526 20.9781C3.43396 21.002 3.51733 21.0061 3.59799 20.99L7.90399 20.129C8.45324 20.0195 8.95778 19.7498 9.35399 19.354C13.07 15.619 16.928 11.79 20.132 8.592C20.6879 8.03306 20.9999 7.27681 20.9999 6.48851C20.9999 5.7002 20.6879 4.94395 20.132 4.38501L19.614 3.869C19.3379 3.59285 19.01 3.37394 18.6491 3.22481C18.2882 3.07569 17.9005 2.99929 17.51 3ZM17.51 3.994C17.7697 3.99413 18.0269 4.04562 18.2666 4.1455C18.5064 4.24539 18.724 4.39169 18.907 4.57601L19.425 5.092C19.6092 5.27493 19.7554 5.49249 19.8552 5.73217C19.955 5.97184 20.0063 6.22889 20.0063 6.48851C20.0063 6.74812 19.955 7.00517 19.8552 7.24484C19.7554 7.48452 19.6092 7.70208 19.425 7.885L18.515 8.793L15.206 5.484L16.115 4.57601C16.2979 4.39181 16.5153 4.24558 16.7549 4.1457C16.9945 4.04582 17.2504 3.99427 17.51 3.994ZM14.5 6.207L17.791 9.5L9.49999 17.793L6.20699 14.5L14.5 6.207ZM5.49999 15.207L8.79299 18.5L8.64599 18.646C8.38999 18.903 8.06399 19.077 7.70899 19.148L4.13699 19.863L4.85099 16.291C4.92299 15.936 5.09699 15.61 5.35299 15.354L5.49999 15.207Z" fill="currentColor"  fill-opacity="0.5"/>
</svg>