<svg width="19" height="18" viewBox="0 0 19 18" fill="none" xmlns="http://www.w3.org/2000/svg">
<path d="M15.0096 4.98491e-06C14.2486 4.98491e-06 13.4856 0.290005 12.9076 0.870005C9.08962 4.707 5.49562 8.297 2.14562 11.646C1.75062 12.042 1.48062 12.546 1.37062 13.096L0.509623 17.402C0.493566 17.4827 0.497652 17.566 0.521518 17.6447C0.545385 17.7234 0.588295 17.795 0.646447 17.8532C0.704598 17.9113 0.776196 17.9542 0.854896 17.9781C0.933595 18.002 1.01697 18.0061 1.09762 17.99L5.40362 17.129C5.95288 17.0195 6.45742 16.7498 6.85362 16.354C10.5696 12.619 14.4276 8.79 17.6316 5.592C18.1875 5.03306 18.4995 4.27681 18.4995 3.48851C18.4995 2.7002 18.1875 1.94395 17.6316 1.38501L17.1136 0.869005C16.8375 0.592854 16.5097 0.373936 16.1488 0.224811C15.7879 0.0756855 15.4001 -0.000710896 15.0096 4.98491e-06ZM15.0096 0.994005C15.2693 0.994135 15.5265 1.04562 15.7662 1.1455C16.006 1.24539 16.2236 1.39169 16.4066 1.57601L16.9246 2.092C17.1088 2.27493 17.2551 2.49249 17.3548 2.73217C17.4546 2.97184 17.506 3.22889 17.506 3.48851C17.506 3.74812 17.4546 4.00517 17.3548 4.24484C17.2551 4.48452 17.1088 4.70208 16.9246 4.885L16.0146 5.793L12.7056 2.484L13.6146 1.57601C13.7975 1.39181 14.015 1.24558 14.2545 1.1457C14.4941 1.04582 14.7501 0.994266 15.0096 0.994005ZM11.9996 3.207L15.2906 6.5L6.99962 14.793L3.70662 11.5L11.9996 3.207ZM2.99962 12.207L6.29262 15.5L6.14562 15.646C5.88962 15.903 5.56362 16.077 5.20862 16.148L1.63662 16.863L2.35062 13.291C2.42262 12.936 2.59662 12.61 2.85262 12.354L2.99962 12.207Z" fill="#005AFE"/>
</svg>
