<svg width="48" height="48" viewBox="0 0 48 48" fill="none" xmlns="http://www.w3.org/2000/svg">
<path d="M17.1435 24.0005C18.839 24.0005 20.4965 23.4977 21.9063 22.5556C23.3161 21.6136 24.4148 20.2747 25.0636 18.7082C25.7124 17.1417 25.8821 15.418 25.5512 13.755C25.2203 12.0921 24.4037 10.5646 23.2046 9.36577C22.0056 8.16694 20.478 7.35061 18.815 7.02001C17.152 6.68941 15.4283 6.85938 13.8619 7.50845C12.2955 8.15751 10.9568 9.2565 10.015 10.6664C9.07322 12.0764 8.5707 13.7339 8.571 15.4295C8.57338 17.7022 9.47737 19.8811 11.0845 21.488C12.6917 23.0949 14.8708 23.9985 17.1435 24.0005ZM28.3575 31.082C26.1852 28.8539 23.3981 27.3238 20.3521 26.6874C17.3061 26.0509 14.1395 26.3369 11.2568 27.5089C8.37409 28.6808 5.90618 30.6854 4.16829 33.2667C2.43039 35.8479 1.50141 38.8887 1.5 42.0005C1.5 42.3983 1.65804 42.7798 1.93934 43.0611C2.22064 43.3424 2.60218 43.5005 3 43.5005H31.29C31.6878 43.5005 32.0694 43.3424 32.3507 43.0611C32.632 42.7798 32.79 42.3983 32.79 42.0005C32.7958 40.4099 32.5503 38.8284 32.0625 37.3145C31.3362 34.9739 30.0667 32.8383 28.3575 31.082Z" fill="#005AFE"/>
<path d="M35.25 24.75C38.7708 24.75 41.625 21.8958 41.625 18.375C41.625 14.8542 38.7708 12 35.25 12C31.7292 12 28.875 14.8542 28.875 18.375C28.875 21.8958 31.7292 24.75 35.25 24.75Z" fill="#005AFE"/>
<path d="M35.25 26.5059C33.2393 26.5134 31.2676 27.061 29.541 28.0914C29.8665 28.3824 30.195 28.6689 30.5025 28.9839C32.545 31.0832 34.0622 33.6356 34.9305 36.4329C35.2279 37.3538 35.4472 38.2981 35.586 39.2559H45C45.3978 39.2559 45.7794 39.0978 46.0607 38.8165C46.342 38.5352 46.5 38.1537 46.5 37.7559C46.4968 34.7731 45.3106 31.9135 43.2015 29.8044C41.0924 27.6953 38.2327 26.509 35.25 26.5059Z" fill="#005AFE"/>
</svg>
