<svg width="56" height="56" viewBox="0 0 56 56" fill="none" xmlns="http://www.w3.org/2000/svg">
<circle cx="28" cy="28" r="28" fill="url(#paint0_linear_37077_15518)"/>
<circle cx="28" cy="28" r="21" fill="#F6F7FA"/>
<path d="M38.9939 18.6274C38.6171 19.1496 38.3607 19.6344 37.9862 20.0008C31.9231 25.9753 25.8504 31.9396 19.7681 37.8937C18.9476 38.6988 18.116 38.8239 17.5385 38.2556C16.961 37.6874 17.0346 36.8889 17.8774 36.0618C23.3964 30.6357 28.9191 25.2162 34.4456 19.8033C35.1568 19.1057 35.8235 18.351 36.6127 17.7565C36.821 17.6249 37.0549 17.5375 37.2994 17.4998C37.5439 17.462 37.7937 17.4747 38.033 17.5371C38.3964 17.6512 38.6261 18.1843 38.9939 18.6274Z" fill="url(#paint1_linear_37077_15518)"/>
<path d="M40.4975 33.7019C40.4975 36.453 38.3148 38.5986 35.4765 38.6227C34.4933 38.6153 33.5343 38.322 32.7202 37.7795C31.9062 37.237 31.2733 36.4698 30.9015 35.5742C30.5296 34.6786 30.4352 33.6949 30.6303 32.7467C30.8254 31.7985 31.3012 30.9283 31.9979 30.2456C32.6945 29.5629 33.5808 29.0982 34.5452 28.9101C35.5096 28.7219 36.509 28.8186 37.4177 29.1881C38.3263 29.5576 39.1036 30.1834 39.6516 30.9866C40.1997 31.7897 40.494 32.7345 40.4975 33.7019ZM37.822 33.6559C37.8197 33.3548 37.7567 33.0571 37.6367 32.7801C37.5167 32.5031 37.3421 32.2523 37.1229 32.0421C36.9038 31.832 36.6444 31.6667 36.3599 31.5558C36.0754 31.4449 35.7713 31.3907 35.4653 31.3962C35.1553 31.4037 34.8497 31.4712 34.5662 31.5949C34.2826 31.7186 34.0266 31.896 33.8127 32.117C33.3808 32.5634 33.1468 33.1604 33.1622 33.7765C33.1775 34.3927 33.441 34.9776 33.8947 35.4026C34.3484 35.8276 34.9551 36.0579 35.5813 36.0428C36.2001 36.0165 36.7834 35.7511 37.2046 35.3042C37.6258 34.8573 37.8509 34.265 37.8309 33.6559H37.822Z" fill="url(#paint2_linear_37077_15518)"/>
<path d="M20.4642 27.1815C19.1426 27.1765 17.8771 26.6552 16.9462 25.7322C16.0152 24.8091 15.495 23.56 15.5 22.2596C15.5051 20.9592 16.0349 19.714 16.973 18.798C17.911 17.8819 19.1805 17.3701 20.5021 17.375C21.8238 17.38 23.0893 17.9013 24.0202 18.8243C24.9512 19.7474 25.4714 20.9965 25.4664 22.2969C25.4613 23.5973 24.9315 24.8425 23.9934 25.7585C23.0553 26.6746 21.7859 27.1864 20.4642 27.1815ZM18.1232 22.355C18.1269 22.6572 18.1918 22.9556 18.3142 23.2327C18.4366 23.5099 18.614 23.7602 18.836 23.969C19.0579 24.1778 19.3201 24.3409 19.6069 24.4488C19.8938 24.5566 20.1997 24.6071 20.5066 24.5971C21.1201 24.575 21.7008 24.3186 22.1254 23.8823C22.5501 23.446 22.7853 22.8641 22.7813 22.2601C22.7772 21.656 22.5342 21.0772 22.1037 20.6465C21.6732 20.2157 21.0892 19.9669 20.4754 19.9528C20.1587 19.9519 19.845 20.0142 19.5534 20.1357C19.2617 20.2573 18.9981 20.4356 18.7783 20.6601C18.5586 20.8845 18.3873 21.1504 18.2747 21.4416C18.1621 21.7329 18.1105 22.0436 18.1232 22.355Z" fill="url(#paint3_linear_37077_15518)"/>
<defs>
<linearGradient id="paint0_linear_37077_15518" x1="28" y1="0" x2="28" y2="56" gradientUnits="userSpaceOnUse">
<stop stop-color="#005AFE"/>
<stop offset="1" stop-color="#0647BD"/>
</linearGradient>
<linearGradient id="paint1_linear_37077_15518" x1="28.079" y1="17.4785" x2="28.079" y2="38.6058" gradientUnits="userSpaceOnUse">
<stop stop-color="#005AFE"/>
<stop offset="1" stop-color="#0647BD"/>
</linearGradient>
<linearGradient id="paint2_linear_37077_15518" x1="35.5144" y1="28.8164" x2="35.5144" y2="38.6227" gradientUnits="userSpaceOnUse">
<stop stop-color="#005AFE"/>
<stop offset="1" stop-color="#0647BD"/>
</linearGradient>
<linearGradient id="paint3_linear_37077_15518" x1="20.4832" y1="17.375" x2="20.4832" y2="27.1815" gradientUnits="userSpaceOnUse">
<stop stop-color="#005AFE"/>
<stop offset="1" stop-color="#0647BD"/>
</linearGradient>
</defs>
</svg>
