<svg width="48" height="48" viewBox="0 0 48 48" fill="none" xmlns="http://www.w3.org/2000/svg">
<g clip-path="url(#clip0_7050_3493)">
<path d="M30.9287 28.1477C29.3923 28.1477 28.142 29.3976 28.142 30.934C28.142 32.4707 29.3923 33.721 30.9287 33.721C32.4654 33.721 33.7149 32.4707 33.7149 30.934C33.7145 29.3976 32.465 28.1477 30.9287 28.1477ZM17.0409 14.2607C15.5042 14.2607 14.2539 15.511 14.2539 17.0477C14.2543 18.5837 15.5045 19.8336 17.0409 19.8336C18.5773 19.8336 19.8268 18.5837 19.8268 17.0477C19.8268 15.511 18.5773 14.2607 17.0409 14.2607Z" fill="#005AFE"/>
<path d="M24.001 0C10.7669 0 0.000976562 10.7659 0.000976562 24C0.000976562 37.2334 10.7669 48 24.001 48C37.2336 48 47.9987 37.2334 47.9987 24C47.9987 10.7659 37.2336 0 24.001 0ZM17.0406 11.2586C20.2319 11.2586 22.8291 13.8551 22.8291 17.0479C22.8291 20.2391 20.2319 22.8364 17.0406 22.8364C13.8482 22.8364 11.2514 20.2391 11.2514 17.0479C11.2514 13.8551 13.8486 11.2586 17.0406 11.2586ZM15.2807 34.842C15.1416 34.9817 14.9762 35.0925 14.7941 35.1681C14.6119 35.2436 14.4167 35.2824 14.2195 35.2822C14.0222 35.2824 13.8269 35.2436 13.6447 35.168C13.4626 35.0925 13.2971 34.9817 13.1579 34.842C12.5717 34.2559 12.5717 33.3049 13.1579 32.7195L32.719 13.1576C33.3047 12.5715 34.2554 12.5715 34.8419 13.1576C35.428 13.7438 35.428 14.6948 34.8419 15.2805L15.2807 34.842ZM30.9284 36.723C27.7364 36.723 25.1391 34.1261 25.1391 30.9338C25.1391 27.7425 27.7364 25.1453 30.9284 25.1453C34.12 25.1453 36.7169 27.7425 36.7169 30.9338C36.7165 34.1261 34.1196 36.723 30.9284 36.723Z" fill="#005AFE"/>
</g>
<defs>
<clipPath id="clip0_7050_3493">
<rect width="48" height="48" fill="white"/>
</clipPath>
</defs>
</svg>
