<svg width="32" height="32" viewBox="0 0 32 32" fill="none" xmlns="http://www.w3.org/2000/svg">
<g clip-path="url(#clip0_68584_14138)">
<path d="M24.0892 29.7318H24.0891V29.8318C24.0891 30.4207 23.6098 30.8999 23.0209 30.8999H8.98062C8.39173 30.8999 7.9125 30.4207 7.9125 29.8318V2.16812C7.9125 1.57923 8.39173 1.1 8.98062 1.1H23.021C23.6099 1.1 24.0892 1.57923 24.0892 2.16812V29.7318ZM23.0209 -0.1H8.98062C7.72989 -0.1 6.7125 0.917395 6.7125 2.16812V29.8318C6.7125 31.0825 7.72989 32.0999 8.98062 32.0999H23.021C24.2717 32.0999 25.2892 31.0825 25.2892 29.8318V2.16812C25.2891 0.917392 24.2717 -0.1 23.0209 -0.1ZM18.0584 3.11376C18.1709 3.00124 18.2342 2.84863 18.2342 2.68949C18.2342 2.53036 18.1709 2.37775 18.0584 2.26523C17.9459 2.15271 17.7933 2.0895 17.6342 2.0895H14.3674C14.2082 2.0895 14.0556 2.15271 13.9431 2.26523C13.8306 2.37775 13.7674 2.53036 13.7674 2.68949C13.7674 2.84862 13.8306 3.00124 13.9431 3.11376C14.0556 3.22628 14.2082 3.28949 14.3674 3.28949H17.6342C17.7933 3.28949 17.9459 3.22628 18.0584 3.11376ZM16.0007 26.9209C15.0183 26.9209 14.2192 27.72 14.2192 28.7024C14.2192 29.6849 15.0183 30.4839 16.0007 30.4839C16.9831 30.4839 17.7822 29.6849 17.7822 28.7024C17.7822 27.72 16.9831 26.9209 16.0007 26.9209ZM16.0007 29.2839C15.6802 29.2839 15.4192 29.023 15.4192 28.7024C15.4192 28.3819 15.6802 28.1209 16.0007 28.1209C16.3213 28.1209 16.5822 28.3819 16.5822 28.7024C16.5822 29.023 16.3213 29.2839 16.0007 29.2839Z" fill="#005AFE" stroke="#005AFE" stroke-width="0.1"/>
</g>
<defs>
<clipPath id="clip0_68584_14138">
<rect width="32" height="32" fill="white"/>
</clipPath>
</defs>
</svg>
