<svg width="48" height="48" viewBox="0 0 48 48" fill="none" xmlns="http://www.w3.org/2000/svg">
<path d="M25.6854 3.12737C28.3063 3.14409 30.8982 3.67686 33.3131 4.69526C35.7281 5.71366 37.9188 7.19775 39.7602 9.06279C41.6016 10.9278 43.0576 13.1373 44.0451 15.565C45.0326 17.9928 45.5323 20.5913 45.5156 23.2121L25.5581 23.0848L25.6854 3.12737Z" fill="#005AFE"/>
<path d="M43 25.3994C43 29.2561 41.827 33.0263 39.6294 36.233C37.4318 39.4398 34.3082 41.9392 30.6537 43.4151C26.9991 44.891 22.9778 45.2771 19.0982 44.5247C15.2186 43.7723 11.6549 41.9151 8.85786 39.188C6.06081 36.4609 4.156 32.9863 3.38429 29.2037C2.61259 25.421 3.00866 21.5002 4.52241 17.9371C6.03616 14.3739 8.59961 11.3284 11.8886 9.18576C15.1776 7.04307 19.0444 5.89941 23 5.89941V25.3994H43Z" fill="#005AFE"/>
</svg>
