<svg width="65" height="64" viewBox="0 0 65 64" fill="none" xmlns="http://www.w3.org/2000/svg">
<path d="M32.167 64C49.8401 64 64.167 49.6731 64.167 32C64.167 14.3269 49.8401 0 32.167 0C14.4939 0 0.166992 14.3269 0.166992 32C0.166992 49.6731 14.4939 64 32.167 64Z" fill="#005AFE"/>
<path d="M34.9011 36.3643C33.9891 36.9723 32.9297 37.2937 31.8374 37.2937C30.7452 37.2937 29.6858 36.9723 28.7738 36.3643L13.7519 26.3494C13.669 26.2939 13.5876 26.2362 13.5078 26.1763V42.5868C13.5078 44.4683 15.0347 45.9616 16.8825 45.9616H46.7922C48.6737 45.9616 50.167 44.4347 50.167 42.5868V26.1763C50.087 26.2363 50.0055 26.2941 49.9224 26.3497L34.9011 36.3643Z" fill="#005AFE"/>
<path d="M14.9434 24.5626L29.9653 34.5776C30.5339 34.9568 31.1856 35.1463 31.8373 35.1463C32.4891 35.1463 33.1409 34.9567 33.7095 34.5776L48.7314 24.5626C49.6304 23.9637 50.167 22.9613 50.167 21.8794C50.167 20.0192 48.6536 18.5059 46.7934 18.5059H16.8814C15.0212 18.5059 13.5078 20.0193 13.5078 21.8812C13.5073 22.4119 13.6381 22.9345 13.8885 23.4024C14.139 23.8703 14.5014 24.2689 14.9434 24.5626Z" fill="#005AFE"/>
<path d="M47.2931 30.2931H34.7069V17.7069C34.7069 17.1216 34.4744 16.5603 34.0605 16.1464C33.6466 15.7325 33.0853 15.5 32.5 15.5C31.9147 15.5 31.3534 15.7325 30.9395 16.1464C30.5256 16.5603 30.2931 17.1216 30.2931 17.7069V30.2931H17.7069C17.1216 30.2931 16.5603 30.5256 16.1464 30.9395C15.7325 31.3534 15.5 31.9147 15.5 32.5C15.5 33.0853 15.7325 33.6466 16.1464 34.0605C16.5603 34.4744 17.1216 34.7069 17.7069 34.7069H30.2931V47.2931C30.2931 47.8784 30.5256 48.4397 30.9395 48.8536C31.3534 49.2675 31.9147 49.5 32.5 49.5C33.0853 49.5 33.6466 49.2675 34.0605 48.8536C34.4744 48.4397 34.7069 47.8784 34.7069 47.2931V34.7069H47.2931C47.8784 34.7069 48.4397 34.4744 48.8536 34.0605C49.2675 33.6466 49.5 33.0853 49.5 32.5C49.5 31.9147 49.2675 31.3534 48.8536 30.9395C48.4397 30.5256 47.8784 30.2931 47.2931 30.2931Z" fill="#F2F2F2" stroke="#F2F2F2"/>
</svg>
