<svg width="69" height="30" viewBox="0 0 69 30" fill="none" xmlns="http://www.w3.org/2000/svg">
<rect width="69" height="30" rx="4" fill="#D8DFEA"/>
<path d="M38.9318 7.1377H30.0444V22.8617H38.9318V7.1377Z" fill="#EAEAEA"/>
<path d="M30.6091 15C30.6077 13.4857 30.9562 11.9909 31.6283 10.6287C32.3004 9.26664 33.2785 8.07294 34.4884 7.138C32.9901 5.97846 31.1906 5.25735 29.2956 5.05711C27.4007 4.85687 25.4867 5.18556 23.7726 6.00563C22.0584 6.8257 20.6131 8.10406 19.602 9.69458C18.5909 11.2851 18.0547 13.1236 18.0547 15C18.0547 16.8764 18.5909 18.7149 19.602 20.3054C20.6131 21.8959 22.0584 23.1743 23.7726 23.9943C25.4867 24.8144 27.4007 25.1431 29.2956 24.9429C31.1906 24.7426 32.9901 24.0215 34.4884 22.862C33.2785 21.927 32.3004 20.7333 31.6283 19.3712C30.9562 18.0091 30.6077 16.5143 30.6091 15Z" fill="#F3F3F3"/>
<path d="M50.9215 15C50.9216 16.8763 50.3855 18.7148 49.3744 20.3054C48.3633 21.8959 46.9181 23.1742 45.204 23.9943C43.4898 24.8144 41.5759 25.1431 39.681 24.9429C37.7861 24.7426 35.9866 24.0215 34.4883 22.862C35.6972 21.9261 36.6745 20.7322 37.3465 19.3703C38.0185 18.0084 38.3676 16.5141 38.3676 15C38.3676 13.4859 38.0185 11.9916 37.3465 10.6297C36.6745 9.26778 35.6972 8.07388 34.4883 7.138C35.9866 5.97845 37.7861 5.25735 39.681 5.05711C41.5759 4.85687 43.4898 5.18558 45.204 6.00565C46.9181 6.82573 48.3633 8.10409 49.3744 9.69461C50.3855 11.2851 50.9216 13.1236 50.9215 15Z" fill="white"/>
<path d="M49.9525 21.1967V20.8748H50.0843V20.8092H49.7485V20.8748H49.8804V21.1967H49.9525ZM50.6043 21.1967V20.8086H50.5014L50.383 21.0756L50.2646 20.8086H50.1616V21.1967H50.2343V20.904L50.3453 21.1564H50.4207L50.5317 20.9033V21.1967H50.6043Z" fill="white"/>
</svg>
