<svg width="52" height="30" viewBox="0 0 52 30" fill="none" xmlns="http://www.w3.org/2000/svg">
<path d="M30.0646 7.1377H21.1772V22.8617H30.0646V7.1377Z" fill="#EAEAEA"/>
<path d="M21.7419 15C21.7405 13.4857 22.089 11.9909 22.7611 10.6287C23.4332 9.26664 24.4113 8.07294 25.6213 7.138C24.1229 5.97846 22.3234 5.25735 20.4284 5.05711C18.5335 4.85687 16.6196 5.18556 14.9054 6.00563C13.1912 6.8257 11.7459 8.10406 10.7348 9.69458C9.7237 11.2851 9.1875 13.1236 9.1875 15C9.1875 16.8764 9.7237 18.7149 10.7348 20.3054C11.7459 21.8959 13.1912 23.1743 14.9054 23.9943C16.6196 24.8144 18.5335 25.1431 20.4284 24.9429C22.3234 24.7426 24.1229 24.0215 25.6213 22.862C24.4113 21.927 23.4333 20.7333 22.7611 19.3712C22.089 18.0091 21.7405 16.5143 21.7419 15Z" fill="#F3F3F3"/>
<path d="M42.0544 15C42.0544 16.8763 41.5183 18.7148 40.5072 20.3054C39.4961 21.8959 38.0509 23.1742 36.3368 23.9943C34.6227 24.8144 32.7087 25.1431 30.8138 24.9429C28.9189 24.7426 27.1194 24.0215 25.6211 22.862C26.83 21.9261 27.8073 20.7322 28.4793 19.3703C29.1513 18.0084 29.5005 16.5141 29.5005 15C29.5005 13.4859 29.1513 11.9916 28.4793 10.6297C27.8073 9.26778 26.83 8.07388 25.6211 7.138C27.1194 5.97845 28.9189 5.25735 30.8138 5.05711C32.7087 4.85687 34.6227 5.18558 36.3368 6.00565C38.0509 6.82573 39.4961 8.10409 40.5072 9.69461C41.5183 11.2851 42.0544 13.1236 42.0544 15Z" fill="white"/>
<path d="M41.0853 21.1967V20.8748H41.2171V20.8092H40.8813V20.8748H41.0132V21.1967H41.0853ZM41.7372 21.1967V20.8086H41.6342L41.5159 21.0756L41.3974 20.8086H41.2945V21.1967H41.3671V20.904L41.4782 21.1564H41.5535L41.6645 20.9033V21.1967H41.7372Z" fill="white"/>
</svg>
