<svg width="53" height="16" viewBox="0 0 53 16" fill="none" xmlns="http://www.w3.org/2000/svg">
<path fill-rule="evenodd" clip-rule="evenodd" d="M13.1886 5.27684C12.0595 8.17918 11.0485 10.3942 10.9421 10.1987C10.8355 10.0036 10.3741 7.98202 9.91696 5.70654C9.4595 3.43106 8.89631 1.28026 8.66563 0.927312C8.26283 0.310721 8.08261 0.285897 4.12316 0.300164L0 0.315L1.80221 0.97325C2.79343 1.33533 3.8285 1.72309 4.10243 1.83494C4.39379 1.95363 4.80589 2.77081 5.09455 3.80113C5.36608 4.77067 6.23835 7.87502 7.03313 10.6998L8.4782 15.8356L12.9294 16L16.14 8.49932C17.9059 4.37406 19.4377 0.774092 19.5444 0.499322C19.7183 0.0519297 19.505 1.8636e-07 17.4902 9.82873e-08L15.2416 0L13.1886 5.27684ZM21.3322 0.927313C21.2381 1.43748 20.693 4.61516 20.1211 7.98916C19.5492 11.3631 19.0058 14.5408 18.9136 15.051L18.7457 15.9783H20.8564C22.7986 15.9783 22.9791 15.9272 23.1224 15.3363C23.32 14.5206 25.6815 0.608603 25.6815 0.259933C25.6815 0.116985 24.7413 4.15247e-07 23.5924 3.65027e-07L21.5037 2.73724e-07L21.3322 0.927313ZM31.2759 0.419146C28.8209 1.2503 27.1803 3.65247 27.6036 5.79585C27.8378 6.98224 29.4619 8.48648 31.6405 9.53534C33.7308 10.5414 34.1086 11.6656 32.605 12.4043C31.4101 12.9912 29.6049 12.9527 27.8006 12.3013L26.309 11.7629L26.12 13.086C26.0164 13.8135 25.8713 14.6176 25.798 14.8724C25.6169 15.503 27.6711 15.9783 30.5757 15.9783C34.2267 15.9783 36.3908 14.9217 37.4652 12.6146C38.6796 10.0067 37.6797 8.18917 33.9416 6.21071C31.8559 5.10678 31.4942 4.31586 32.7254 3.54947C33.4953 3.0704 35.6471 3.07925 37.2919 3.56887C37.9912 3.77716 38.0825 3.62308 38.4348 1.63863C38.6069 0.669664 38.5499 0.539269 37.841 0.283331C36.7074 -0.126114 32.6371 -0.041657 31.2759 0.419146ZM45.6121 0.191456C45.2577 0.260505 44.7636 0.534704 44.514 0.800629C44.1785 1.15786 39.4639 11.5326 37.7788 15.6217C37.6692 15.8879 38.2057 15.9783 39.8919 15.9783H42.1516L43.0013 13.553L48.4924 13.3893L48.6792 14.1845C49.1174 16.0522 49.0186 15.9783 51.0752 15.9783H53L52.8054 15.051C52.6984 14.5408 51.9247 10.978 51.0858 7.13318L49.5608 0.142665L47.9088 0.104146C47.0001 0.0830316 45.9666 0.122121 45.6121 0.191456ZM47.2651 7.6325L47.831 10.2718H46.0357C44.4452 10.2718 44.2641 10.2147 44.4515 9.77245C44.5675 9.49797 45.0814 8.19231 45.5932 6.87153C46.105 5.55075 46.5631 4.58777 46.6115 4.73158C46.6595 4.87538 46.9536 6.18104 47.2651 7.6325Z" fill="#FEFEFE"/>
</svg>
