<svg width="69" height="30" viewBox="0 0 69 30" fill="none" xmlns="http://www.w3.org/2000/svg">
<rect width="69" height="30" rx="4" fill="#D8DFEA"/>
<path fill-rule="evenodd" clip-rule="evenodd" d="M21.1886 12.2768C20.0595 15.1792 19.0484 17.3942 18.9421 17.1987C18.8355 17.0036 18.3741 14.982 17.917 12.7065C17.4595 10.4311 16.8963 8.28026 16.6656 7.92731C16.2628 7.31072 16.0826 7.2859 12.1232 7.30016L8 7.315L9.80221 7.97325C10.7934 8.33533 11.8285 8.72309 12.1024 8.83494C12.3938 8.95363 12.8059 9.77081 13.0945 10.8011C13.3661 11.7707 14.2384 14.875 15.0331 17.6998L16.4782 22.8356L18.7039 22.9178L20.9294 23L24.14 15.4993C25.9059 11.3741 27.4377 7.77409 27.5444 7.49932C27.7183 7.05193 27.505 7 25.4902 7L23.2416 7L21.1886 12.2768ZM29.3322 7.92731C29.2381 8.43748 28.693 11.6152 28.1211 14.9892C27.5492 18.3631 27.0058 21.5408 26.9136 22.051L26.7457 22.9783L28.8564 22.9783C30.7986 22.9783 30.9791 22.9272 31.1224 22.3363C31.32 21.5206 33.6815 7.6086 33.6815 7.25993C33.6815 7.11699 32.7413 7 31.5924 7L29.5037 7L29.3322 7.92731ZM39.2759 7.41915C36.8209 8.2503 35.1803 10.6525 35.6036 12.7958C35.8378 13.9822 37.4619 15.4865 39.6405 16.5353C41.7308 17.5414 42.1086 18.6656 40.605 19.4043C39.4101 19.9912 37.6049 19.9527 35.8006 19.3013L34.309 18.7629L34.12 20.086C34.0164 20.8135 33.8713 21.6176 33.798 21.8724C33.6169 22.503 35.6711 22.9783 38.5757 22.9783C42.2267 22.9783 44.3908 21.9217 45.4652 19.6146C46.6796 17.0067 45.6797 15.1892 41.9416 13.2107C39.8559 12.1068 39.4942 11.3159 40.7254 10.5495C41.4953 10.0704 43.6471 10.0793 45.2919 10.5689C45.9912 10.7772 46.0825 10.6231 46.4348 8.63863C46.6069 7.66966 46.5499 7.53927 45.841 7.28333C44.7074 6.87389 40.6371 6.95834 39.2759 7.41915ZM53.6121 7.19146C53.2577 7.26051 52.7636 7.5347 52.514 7.80063C52.1785 8.15786 47.4639 18.5326 45.7788 22.6217C45.6692 22.8879 46.2057 22.9783 47.8919 22.9783L50.1516 22.9783L50.5766 21.7657L51.0013 20.553L53.747 20.4711L56.4924 20.3893L56.6792 21.1845C57.1174 23.0522 57.0186 22.9783 59.0752 22.9783L61 22.9783L60.8054 22.051C60.6984 21.5408 59.9247 17.978 59.0858 14.1332L57.5608 7.14267L55.9088 7.10415C55.0001 7.08303 53.9666 7.12212 53.6121 7.19146ZM55.2651 14.6325L55.831 17.2718L54.0357 17.2718C52.4452 17.2718 52.2641 17.2147 52.4515 16.7725C52.5675 16.498 53.0814 15.1923 53.5932 13.8715C54.105 12.5508 54.5631 11.5878 54.6115 11.7316C54.6595 11.8754 54.9536 13.181 55.2651 14.6325Z" fill="#FEFEFE"/>
</svg>
