<svg width="48" height="48" viewBox="0 0 48 48" fill="none" xmlns="http://www.w3.org/2000/svg">
<path d="M26.25 15H22.5V22.5H26.25C28.35 22.5 30 20.85 30 18.75C30 16.65 28.35 15 26.25 15Z" fill="#005AFE"/>
<path d="M24 1.5C11.55 1.5 1.5 11.55 1.5 24C1.5 36.45 11.55 46.5 24 46.5C36.45 46.5 46.5 36.45 46.5 24C46.5 11.55 36.45 1.5 24 1.5ZM26.25 25.5H22.5V28.5H27C27.75 28.5 28.5 29.25 28.5 30C28.5 30.75 27.75 31.5 27 31.5H22.5V34.5C22.5 35.25 21.9 36 21 36C20.1 36 19.5 35.25 19.5 34.5V31.5H16.5C15.6 31.5 15 30.75 15 30C15 29.25 15.6 28.5 16.5 28.5H19.5V25.5H16.5C15.6 25.5 15 24.75 15 24C15 23.25 15.6 22.5 16.5 22.5H19.5V13.5C19.5 12.6 20.1 12 21 12H26.25C30 12 33 15 33 18.75C33 22.5 30 25.5 26.25 25.5Z" fill="#005AFE"/>
</svg>
