<svg width="24" height="24" viewBox="0 0 24 24" fill="none" xmlns="http://www.w3.org/2000/svg">
<path d="M13.25 12.7578H7.33594V11.2031H13.2109C13.737 11.2031 14.1615 11.1224 14.4844 10.9609C14.8073 10.7943 15.0443 10.5625 15.1953 10.2656C15.3464 9.96875 15.4219 9.6224 15.4219 9.22656C15.4219 8.8724 15.3464 8.54167 15.1953 8.23438C15.0443 7.92708 14.8099 7.67708 14.4922 7.48438C14.1745 7.28646 13.7604 7.1875 13.25 7.1875H10.8906V17H8.92969V5.625H13.25C14.125 5.625 14.8698 5.77865 15.4844 6.08594C16.099 6.39323 16.5703 6.81771 16.8984 7.35938C17.2266 7.89583 17.3906 8.51302 17.3906 9.21094C17.3906 9.95573 17.224 10.5938 16.8906 11.125C16.5625 11.651 16.0885 12.0547 15.4688 12.3359C14.8542 12.6172 14.1146 12.7578 13.25 12.7578ZM13.4375 13.5938V15.1484H7.33594V13.5938H13.4375Z" fill="#001A34" fill-opacity="0.5"/>
</svg>
