<svg width="40" height="40" viewBox="0 0 40 40" fill="none" xmlns="http://www.w3.org/2000/svg">
<circle cx="20" cy="20" r="20" fill="url(#paint0_linear_1832_739)"/>
<circle cx="20" cy="20" r="15" fill="#F6F7FA"/>
<path d="M20.6562 21.4521H15.4199V19.8525H20.6084C21.0322 19.8525 21.3695 19.7865 21.6201 19.6543C21.8753 19.5221 22.0599 19.3398 22.1738 19.1074C22.2878 18.8704 22.3447 18.6016 22.3447 18.3008C22.3447 18.0046 22.2832 17.7334 22.1602 17.4873C22.0417 17.2367 21.8571 17.0361 21.6064 16.8857C21.3604 16.7308 21.0459 16.6533 20.6631 16.6533H18.8516V25H16.8008V15.0469H20.6562C21.4401 15.0469 22.11 15.1859 22.666 15.4639C23.2266 15.7419 23.6572 16.1247 23.958 16.6123C24.2588 17.0999 24.4092 17.6582 24.4092 18.2871C24.4092 18.9479 24.2542 19.5153 23.9443 19.9893C23.639 20.4632 23.2061 20.8255 22.6455 21.0762C22.0895 21.3268 21.4264 21.4521 20.6562 21.4521ZM21.0322 22.0127V23.6123H15.4199V22.0127H21.0322Z" fill="url(#paint1_linear_1832_739)"/>
<defs>
<linearGradient id="paint0_linear_1832_739" x1="20" y1="0" x2="20" y2="40" gradientUnits="userSpaceOnUse">
<stop stop-color="#005AFE"/>
<stop offset="1" stop-color="#0647BD"/>
</linearGradient>
<linearGradient id="paint1_linear_1832_739" x1="20" y1="15" x2="20" y2="25" gradientUnits="userSpaceOnUse">
<stop stop-color="#005AFE"/>
<stop offset="1" stop-color="#0647BD"/>
</linearGradient>
</defs>
</svg>
