<svg width="56" height="56" viewBox="0 0 56 56" fill="none" xmlns="http://www.w3.org/2000/svg">
<circle cx="28" cy="28" r="28" fill="url(#paint0_linear_6102_28327)"/>
<circle cx="28" cy="28" r="21" fill="#F6F7FA"/>
<path d="M33.3332 33.3334C33.3332 33.3334 31.3332 30.6667 27.9998 30.6667C24.6665 30.6667 22.6665 33.3334 22.6665 33.3334M34.6665 24.3201C34.1398 24.9667 33.4198 25.3334 32.6665 25.3334C31.9132 25.3334 31.2132 24.9667 30.6665 24.3201M25.3332 24.3201C24.8065 24.9667 24.0865 25.3334 23.3332 25.3334C22.5798 25.3334 21.8798 24.9667 21.3332 24.3201M41.3332 28.0001C41.3332 35.3639 35.3636 41.3334 27.9998 41.3334C20.636 41.3334 14.6665 35.3639 14.6665 28.0001C14.6665 20.6363 20.636 14.6667 27.9998 14.6667C35.3636 14.6667 41.3332 20.6363 41.3332 28.0001Z" stroke="url(#paint1_linear_6102_28327)" stroke-width="2.2" stroke-linecap="round" stroke-linejoin="round"/>
<defs>
<linearGradient id="paint0_linear_6102_28327" x1="28" y1="0" x2="28" y2="56" gradientUnits="userSpaceOnUse">
<stop stop-color="#005AFE"/>
<stop offset="1" stop-color="#0647BD"/>
</linearGradient>
<linearGradient id="paint1_linear_6102_28327" x1="27.9998" y1="14.6667" x2="27.9998" y2="41.3334" gradientUnits="userSpaceOnUse">
<stop stop-color="#005AFE"/>
<stop offset="1" stop-color="#0647BD"/>
</linearGradient>
</defs>
</svg>
