<svg width="48" height="48" viewBox="0 0 48 48" fill="none" xmlns="http://www.w3.org/2000/svg">
<g clip-path="url(#clip0_7414_4225)">
<path d="M11.2 28.8C6.78881 28.8 3.20001 32.3888 3.20001 36.8C3.20001 41.2112 6.78881 44.8 11.2 44.8C15.6112 44.8 19.2 41.2112 19.2 36.8C19.2 32.3888 15.6112 28.8 11.2 28.8ZM11.2 43.2C7.67121 43.2 4.80001 40.3288 4.80001 36.8C4.80001 33.2712 7.67121 30.4 11.2 30.4C14.7288 30.4 17.6 33.2712 17.6 36.8C17.6 40.3288 14.7288 43.2 11.2 43.2Z" fill="#005AFE"/>
<path d="M36.8 25.6H11.2C5.024 25.6 0 30.624 0 36.8C0 42.976 5.024 48 11.2 48H36.8C42.976 48 48 42.976 48 36.8C48 30.624 42.976 25.6 36.8 25.6ZM36.8 46.4H11.2C5.9064 46.4 1.6 42.0936 1.6 36.8C1.6 31.5064 5.9064 27.2 11.2 27.2H36.8C42.0936 27.2 46.4 31.5064 46.4 36.8C46.4 42.0936 42.0936 46.4 36.8 46.4ZM11.2 22.4H36.8C42.976 22.4 48 17.376 48 11.2C48 5.024 42.976 0 36.8 0H11.2C5.024 0 0 5.024 0 11.2C0 17.376 5.024 22.4 11.2 22.4ZM36.8 3.2C41.2112 3.2 44.8 6.7888 44.8 11.2C44.8 15.6112 41.2112 19.2 36.8 19.2C32.3888 19.2 28.8 15.6112 28.8 11.2C28.8 6.7888 32.3888 3.2 36.8 3.2Z" fill="#005AFE"/>
</g>
<defs>
<clipPath id="clip0_7414_4225">
<rect width="48" height="48" fill="white"/>
</clipPath>
</defs>
</svg>
