<svg xmlns="http://www.w3.org/2000/svg" width="20" height="20" viewBox="0 0 20 20" fill="none">
<path d="M10 13.1245C8.275 13.1245 6.875 11.7245 6.875 9.99951C6.875 8.27451 8.275 6.87451 10 6.87451C11.725 6.87451 13.125 8.27451 13.125 9.99951C13.125 11.7245 11.725 13.1245 10 13.1245ZM10 8.12451C8.96667 8.12451 8.125 8.96618 8.125 9.99951C8.125 11.0328 8.96667 11.8745 10 11.8745C11.0333 11.8745 11.875 11.0328 11.875 9.99951C11.875 8.96618 11.0333 8.12451 10 8.12451Z"  stroke="#858585"/>
<path d="M12.6753 18.4913C12.5003 18.4913 12.3253 18.4663 12.1503 18.4246C11.6337 18.2829 11.2003 17.9579 10.9253 17.4996L10.8253 17.3329C10.3337 16.4829 9.65866 16.4829 9.16699 17.3329L9.07533 17.4913C8.80033 17.9579 8.36699 18.2913 7.85033 18.4246C7.32533 18.5663 6.78366 18.4913 6.32533 18.2163L4.89199 17.3913C4.38366 17.0996 4.01699 16.6246 3.85866 16.0496C3.70866 15.4746 3.78366 14.8829 4.07533 14.3746C4.31699 13.9496 4.38366 13.5663 4.24199 13.3246C4.10033 13.0829 3.74199 12.9413 3.25033 12.9413C2.03366 12.9413 1.04199 11.9496 1.04199 10.7329V9.26625C1.04199 8.04959 2.03366 7.05792 3.25033 7.05792C3.74199 7.05792 4.10033 6.91625 4.24199 6.67459C4.38366 6.43292 4.32533 6.04959 4.07533 5.62459C3.78366 5.11625 3.70866 4.51625 3.85866 3.94959C4.00866 3.37459 4.37533 2.89959 4.89199 2.60792L6.33366 1.78292C7.27533 1.22459 8.51699 1.54959 9.08366 2.50792L9.18366 2.67459C9.67533 3.52459 10.3503 3.52459 10.842 2.67459L10.9337 2.51625C11.5003 1.54959 12.742 1.22459 13.692 1.79125L15.1253 2.61625C15.6337 2.90792 16.0003 3.38292 16.1587 3.95792C16.3087 4.53292 16.2337 5.12459 15.942 5.63292C15.7003 6.05792 15.6337 6.44126 15.7753 6.68292C15.917 6.92459 16.2753 7.06625 16.767 7.06625C17.9837 7.06625 18.9753 8.05792 18.9753 9.27459V10.7413C18.9753 11.9579 17.9837 12.9496 16.767 12.9496C16.2753 12.9496 15.917 13.0913 15.7753 13.3329C15.6337 13.5746 15.692 13.9579 15.942 14.3829C16.2337 14.8913 16.317 15.4913 16.1587 16.0579C16.0087 16.6329 15.642 17.1079 15.1253 17.3996L13.6837 18.2246C13.367 18.3996 13.0253 18.4913 12.6753 18.4913ZM10.0003 15.4079C10.742 15.4079 11.4337 15.8746 11.9087 16.6996L12.0003 16.8579C12.1003 17.0329 12.267 17.1579 12.467 17.2079C12.667 17.2579 12.867 17.2329 13.0337 17.1329L14.4753 16.2996C14.692 16.1746 14.8587 15.9663 14.9253 15.7163C14.992 15.4663 14.9587 15.2079 14.8337 14.9913C14.3587 14.1746 14.3003 13.3329 14.667 12.6913C15.0337 12.0496 15.792 11.6829 16.742 11.6829C17.2753 11.6829 17.7003 11.2579 17.7003 10.7246V9.25792C17.7003 8.73292 17.2753 8.29959 16.742 8.29959C15.792 8.29959 15.0337 7.93292 14.667 7.29125C14.3003 6.64959 14.3587 5.80792 14.8337 4.99125C14.9587 4.77459 14.992 4.51625 14.9253 4.26625C14.8587 4.01625 14.7003 3.81625 14.4837 3.68292L13.042 2.85792C12.6837 2.64125 12.2087 2.76625 11.992 3.13292L11.9003 3.29125C11.4253 4.11625 10.7337 4.58292 9.99199 4.58292C9.25033 4.58292 8.55866 4.11625 8.08366 3.29125L7.99199 3.12459C7.78366 2.77459 7.31699 2.64959 6.95866 2.85792L5.51699 3.69125C5.30033 3.81625 5.13366 4.02459 5.06699 4.27459C5.00033 4.52459 5.03366 4.78292 5.15866 4.99959C5.63366 5.81625 5.69199 6.65792 5.32533 7.29959C4.95866 7.94126 4.20033 8.30792 3.25033 8.30792C2.71699 8.30792 2.29199 8.73292 2.29199 9.26625V10.7329C2.29199 11.2579 2.71699 11.6913 3.25033 11.6913C4.20033 11.6913 4.95866 12.0579 5.32533 12.6996C5.69199 13.3413 5.63366 14.1829 5.15866 14.9996C5.03366 15.2163 5.00033 15.4746 5.06699 15.7246C5.13366 15.9746 5.29199 16.1746 5.50866 16.3079L6.95033 17.1329C7.12533 17.2413 7.33366 17.2663 7.52533 17.2163C7.72533 17.1663 7.89199 17.0329 8.00033 16.8579L8.09199 16.6996C8.56699 15.8829 9.25866 15.4079 10.0003 15.4079Z" stroke="#858585"/>
</svg>