<svg width="44" height="44" viewBox="0 0 44 44" fill="none" xmlns="http://www.w3.org/2000/svg">
<path d="M12.6292 20.337C12.7445 20.4536 12.8318 20.5958 12.8843 20.7525C12.9368 20.9092 12.9531 21.0761 12.9319 21.2402L12.3486 25.8736C12.2968 26.2867 12.0251 26.6266 11.6398 26.7604C11.2519 26.8952 10.8313 26.7958 10.5422 26.5012L10.0478 25.9976L6.9976 29.1041C6.77496 29.3309 6.4787 29.4558 6.16323 29.4558C5.84775 29.4558 5.5515 29.3309 5.32885 29.1041L4.02131 27.7724C3.56126 27.3037 3.56126 26.5413 4.02122 26.0728L7.07139 22.9662L6.5766 22.4623C6.28755 22.1681 6.19 21.7399 6.3223 21.3448C6.45374 20.9523 6.7874 20.6757 7.19305 20.6227L11.7421 20.0288C12.0716 19.9856 12.3948 20.0981 12.6292 20.337ZM43.7565 25.2321C43.7565 31.2789 38.9264 36.1984 32.9895 36.1984C30.7775 36.1984 28.7194 35.5152 27.0074 34.3455V40.9773C27.0074 42.644 25.593 44 23.8544 44H3.15295C1.41436 44 0 42.644 0 40.9773V3.02259C0 1.35597 1.41436 0 3.15295 0H23.8544C25.593 0 27.0074 1.35597 27.0074 3.02259V8.78263C28.4103 8.28217 29.5999 8.31223 30.639 8.87674C32.6302 9.95884 34.4267 11.0362 36.3286 12.1769C36.9487 12.5487 37.5752 12.9245 38.2167 13.3052C39.4199 14.0191 40.0055 15.404 39.7847 16.7263C42.3143 18.8193 43.7565 21.8928 43.7565 25.2321ZM24.7394 11.4995C23.4157 12.305 22.0498 13.1352 19.8125 13.5222V23.3436C20.703 23.593 21.5199 23.9392 22.2557 24.3788C22.4009 22.4669 23.0368 20.6275 24.0998 19.0447C23.7913 19.0159 23.4768 18.9768 23.1543 18.9324C22.9739 18.9076 22.8106 18.8108 22.7003 18.6633C22.59 18.5158 22.5417 18.3298 22.5661 18.146C22.5781 18.055 22.6076 17.9674 22.653 17.888C22.6983 17.8086 22.7585 17.7392 22.8302 17.6835C22.9019 17.6279 22.9837 17.5872 23.0709 17.5637C23.158 17.5403 23.2488 17.5346 23.3382 17.5469C25.7328 17.8764 27.3256 17.9332 29.7924 15.071C29.8971 14.9495 30.0399 14.8687 30.1965 14.8424C30.3531 14.8161 30.5139 14.8459 30.6513 14.9267C31.3047 15.3108 32.154 15.8011 32.9753 16.2754C33.9419 16.8335 34.9414 17.4106 35.6335 17.8212C36.529 18.3525 37.6819 18.0429 38.2035 17.1309C38.7252 16.2188 38.4212 15.0445 37.5258 14.5132C36.8825 14.1314 36.2541 13.7545 35.6323 13.3817C33.7431 12.2487 31.9588 11.1786 29.9929 10.1103C29.2749 9.72019 28.4315 9.73146 27.339 10.1457C26.3446 10.5228 25.5648 10.9972 24.7394 11.4995ZM32.3031 28.8791V29.4915C32.3031 29.6769 32.3754 29.8547 32.5041 29.9858C32.6328 30.1169 32.8074 30.1906 32.9895 30.1906C33.1715 30.1906 33.3461 30.1169 33.4748 29.9858C33.6035 29.8547 33.6758 29.6769 33.6758 29.4915V28.8504C34.6105 28.612 35.3047 27.7491 35.3047 26.7243C35.3047 25.5161 34.3396 24.5331 33.1533 24.5331H32.8258C32.3964 24.5331 32.0471 24.1772 32.0471 23.7399C32.0471 23.3025 32.3964 22.9467 32.8258 22.9467H33.287C33.535 22.9467 33.7712 23.0707 33.9186 23.2785C33.9715 23.3529 34.0382 23.416 34.1149 23.4641C34.1917 23.5123 34.277 23.5445 34.366 23.5591C34.455 23.5736 34.5459 23.5702 34.6336 23.5489C34.7213 23.5277 34.8041 23.489 34.8771 23.4352C35.0246 23.3266 35.1236 23.1627 35.1525 22.9796C35.1814 22.7966 35.1377 22.6094 35.031 22.4591C34.7059 22.0017 34.2208 21.6889 33.6758 21.585V20.9726C33.6758 20.7872 33.6035 20.6094 33.4748 20.4783C33.3461 20.3472 33.1715 20.2735 32.9895 20.2735C32.8074 20.2735 32.6328 20.3472 32.5041 20.4783C32.3754 20.6094 32.3031 20.7872 32.3031 20.9726V21.6138C31.3685 21.8522 30.6743 22.715 30.6743 23.7398C30.6743 24.948 31.6395 25.9311 32.8258 25.9311H33.1533C33.5827 25.9311 33.9319 26.2869 33.9319 26.7243C33.9319 27.1616 33.5827 27.5175 33.1533 27.5175H32.692C32.444 27.5175 32.2079 27.3935 32.0605 27.1857C32.0076 27.1112 31.941 27.0482 31.8642 27C31.7875 26.9519 31.7022 26.9196 31.6132 26.905C31.5242 26.8904 31.4332 26.8938 31.3455 26.9151C31.2578 26.9363 31.1751 26.9749 31.1021 27.0287C31.029 27.0824 30.9671 27.1504 30.9198 27.2285C30.8725 27.3067 30.8408 27.3936 30.8265 27.4842C30.8122 27.5749 30.8155 27.6675 30.8364 27.7568C30.8572 27.8461 30.8951 27.9304 30.9479 28.0048C31.273 28.4623 31.7581 28.7753 32.3031 28.8791ZM11.0183 3.22034C11.0183 3.40575 11.0906 3.58357 11.2193 3.71467C11.3481 3.84578 11.5226 3.91943 11.7047 3.91943H15.3027C15.4847 3.91943 15.6593 3.84578 15.788 3.71467C15.9167 3.58357 15.989 3.40575 15.989 3.22034C15.989 3.03493 15.9167 2.85712 15.788 2.72601C15.6593 2.59491 15.4847 2.52126 15.3027 2.52126H11.7047C11.5226 2.52126 11.3481 2.59491 11.2193 2.72601C11.0906 2.85712 11.0183 3.03493 11.0183 3.22034ZM25.6346 36.1346H1.37275V40.9773C1.37275 41.873 2.17135 42.6018 3.15295 42.6018H23.8544C24.836 42.6018 25.6346 41.8731 25.6346 40.9773V36.1346ZM25.6346 33.2332C23.7199 31.4061 22.4587 28.8768 22.2526 26.0526C21.5478 25.516 20.728 25.0963 19.8051 24.7992C19.7372 25.4528 19.193 25.9638 18.5336 25.9638H16.0637C15.3584 25.9638 14.7847 25.3794 14.7847 24.6611V11.5684C14.7847 10.8501 15.3585 10.2657 16.0637 10.2657H18.5336C19.2389 10.2657 19.8125 10.8501 19.8125 11.5684V12.1018C21.6617 11.7431 22.8189 11.0395 24.0353 10.2993C24.5424 9.99074 25.0604 9.67597 25.6347 9.38218V6.4413H1.37275V34.7364H25.6346V33.2332ZM42.3837 25.2321C42.3837 22.4596 41.2446 19.8965 39.2323 18.081C38.9001 18.5596 38.4484 18.9392 37.924 19.1804C38.7969 19.9184 39.4993 20.8433 39.9812 21.8893C40.463 22.9353 40.7126 24.0766 40.712 25.2321C40.712 29.569 37.2477 33.0975 32.9895 33.0975C28.7313 33.0975 25.267 29.5691 25.267 25.2321C25.267 21.1803 28.2906 17.8348 32.1602 17.4121C31.5878 17.0821 31.016 16.7509 30.4449 16.4185C28.7481 18.2548 27.3001 18.9144 25.8104 19.061C24.3802 20.7855 23.5952 22.966 23.5952 25.2321C23.5952 30.508 27.8094 34.8002 32.9894 34.8002C38.1694 34.8002 42.3837 30.508 42.3837 25.2321ZM12.0986 41.2924H14.9088C15.9506 41.2924 16.7981 40.4292 16.7981 39.3681C16.7981 38.307 15.9506 37.4438 14.9088 37.4438H12.0986C11.0567 37.4438 10.2092 38.307 10.2092 39.3681C10.2092 40.4292 11.0567 41.2924 12.0986 41.2924Z" fill="#005AFE"/>
</svg>
