<svg width="24" height="24" viewBox="0 0 24 24" fill="none" xmlns="http://www.w3.org/2000/svg">
<path d="M9.49219 14.7188L12.0078 8.54688H13.6406L10.1328 17H8.85156L5.35156 8.54688H6.98438L9.49219 14.7188ZM6.5 8.54688V17H4.61719V8.54688H6.5ZM12.4844 17V8.54688H14.375V17H12.4844ZM20.8906 10.6562V11.7891H16.1328V10.8359L18.375 8.76562C18.5885 8.57292 18.7578 8.39583 18.8828 8.23438C19.013 8.06771 19.1068 7.91667 19.1641 7.78125C19.2266 7.64583 19.2578 7.53125 19.2578 7.4375C19.2578 7.21354 19.1849 7.03125 19.0391 6.89062C18.8932 6.74479 18.6823 6.67188 18.4062 6.67188C18.0729 6.67188 17.8229 6.76562 17.6562 6.95312C17.4948 7.13542 17.4141 7.35938 17.4141 7.625H15.9922C15.9922 7.24479 16.0859 6.89583 16.2734 6.57812C16.4661 6.26042 16.737 6.00781 17.0859 5.82031C17.4401 5.63281 17.862 5.53906 18.3516 5.53906C18.8464 5.53906 19.2656 5.61458 19.6094 5.76562C19.9583 5.91667 20.224 6.13281 20.4062 6.41406C20.5938 6.69531 20.6875 7.03385 20.6875 7.42969C20.6875 7.71615 20.625 7.98177 20.5 8.22656C20.375 8.46615 20.1927 8.70573 19.9531 8.94531C19.7188 9.1849 19.4271 9.44792 19.0781 9.73438L17.9766 10.6562H20.8906Z" fill="#001A34" fill-opacity="0.5"/>
</svg>
