<svg width="284" height="279" viewBox="0 0 284 279" fill="none" xmlns="http://www.w3.org/2000/svg">
<g clip-path="url(#clip0_53510_109352)">
<path d="M283.293 0H263.073L204.074 35.6363C204.296 35.9711 211.224 41.0255 220.361 47.5947L134.865 205.447L84.0668 172.799L63.3609 173.749L0 288.008H34.6082L78.2498 208.014L143.891 238.524L171.698 241.856L247.024 66.6247C256.487 73.3613 263.756 78.5114 263.756 78.5114H284C284 78.5114 278.105 28.8359 278.105 28.4452C278.105 28.0546 283.293 0 283.293 0Z" fill="#005AFE"/>
<path opacity="0.3" d="M283.293 0H263.073L204.074 35.6363C204.296 35.9711 211.224 41.0255 220.361 47.5947L134.865 205.447L84.106 172.693L63.3609 173.749L0 288.008H34.6082L78.2498 208.014L143.891 238.524L171.698 241.856L247.024 66.6247C256.487 73.3613 263.756 78.5114 263.756 78.5114H284C284 78.5114 278.105 28.8359 278.105 28.4452C278.105 28.0546 283.293 0 283.293 0Z" fill="black"/>
<path d="M20.4746 288L84.0659 172.8L155.34 205.479L247.263 35.6445L274.633 50.0744L171.715 241.857L98.7244 208.014L55.0828 288H20.4746Z" fill="#005AFE"/>
<path d="M224.278 35.6364C224.93 36.617 284 78.5036 284 78.5036L283.293 -0.0078125L224.278 35.6364Z" fill="#005AFE"/>
<path d="M224.278 35.636C224.278 35.7556 219.75 35.8433 214.164 35.8433C208.579 35.8433 204.074 35.7635 204.074 35.636C204.074 35.5084 208.603 35.4287 214.188 35.4287C219.773 35.4287 224.278 35.5323 224.278 35.636Z" fill="#263238"/>
<path d="M240.072 47.8977C240.072 48.0093 235.544 48.105 229.966 48.105C224.389 48.105 219.853 48.0093 219.853 47.8977C219.853 47.7861 224.373 47.6904 229.966 47.6904C235.56 47.6904 240.072 47.7781 240.072 47.8977Z" fill="#263238"/>
</g>
<defs>
<clipPath id="clip0_53510_109352">
<rect width="284" height="288" fill="white"/>
</clipPath>
</defs>
</svg>
