<svg width="49" height="48" viewBox="0 0 49 48" fill="none" xmlns="http://www.w3.org/2000/svg">
<g clip-path="url(#clip0_49711_72878)">
<path d="M48.621 18.3812C48.2513 17.2431 47.1464 16.4606 45.5901 16.2345L33.2478 14.4409L27.7281 3.25703C27.0321 1.84664 25.9466 1.03784 24.7499 1.03784C23.5533 1.03784 22.4678 1.84673 21.7718 3.25703L16.2524 14.4408L3.90998 16.2345C2.35352 16.4606 1.24885 17.243 0.878997 18.3811C0.509241 19.5193 0.943029 20.8016 2.06917 21.8992L11.0001 30.6047L8.89175 42.8974C8.61453 44.5144 9.08544 45.4813 9.52926 46.0077C10.0485 46.6235 10.8059 46.9627 11.662 46.9627C12.3094 46.9627 12.9986 46.7728 13.7105 46.3984L24.75 40.5946L35.7894 46.3983C36.5015 46.7727 37.1906 46.9626 37.8382 46.9626C38.6944 46.9626 39.4519 46.6234 39.9711 46.0076C40.4149 45.4812 40.8859 44.5143 40.6085 42.8972L38.4998 30.6047L47.4308 21.8993C48.5569 20.8016 48.9908 19.5194 48.621 18.3812ZM45.4676 19.8853L36.0071 29.1068C35.8438 29.2659 35.7217 29.4624 35.6512 29.6792C35.5808 29.8961 35.5641 30.1268 35.6027 30.3515L37.8364 43.3727C37.9083 43.792 37.8718 44.0434 37.8379 44.1499C37.7531 44.1498 37.5117 44.1261 37.0984 43.9088L25.4045 37.7611C25.2027 37.6549 24.9781 37.5995 24.7501 37.5995C24.5221 37.5995 24.2975 37.6549 24.0957 37.7611L12.4017 43.9089C11.9888 44.126 11.7476 44.1498 11.6627 44.1499C11.6286 44.0434 11.5922 43.792 11.6641 43.3727L13.8974 30.3514C13.936 30.1267 13.9193 29.896 13.8488 29.6791C13.7784 29.4623 13.6562 29.2658 13.493 29.1067L4.03252 19.8851C3.72745 19.5877 3.60923 19.3627 3.57435 19.2568C3.66482 19.1916 3.89273 19.079 4.31452 19.0177L17.3887 17.1177C17.6144 17.0849 17.8286 16.9978 18.0131 16.8638C18.1976 16.7297 18.3467 16.5529 18.4476 16.3484L24.2943 4.50149C24.4827 4.11955 24.6602 3.93758 24.7502 3.87157C24.8402 3.93758 25.0178 4.11955 25.2062 4.50159L31.053 16.3484C31.1539 16.5529 31.303 16.7297 31.4875 16.8637C31.6719 16.9978 31.8862 17.0849 32.1118 17.1177L45.1859 19.0177C45.6076 19.0789 45.8355 19.1915 45.9259 19.2568C45.8909 19.3628 45.7727 19.5879 45.4676 19.8853Z" fill="#005AFE"/>
</g>
<defs>
<clipPath id="clip0_49711_72878">
<rect width="48" height="48" fill="white" transform="translate(0.75)"/>
</clipPath>
</defs>
</svg>
