<svg width="56" height="56" viewBox="0 0 56 56" fill="none" xmlns="http://www.w3.org/2000/svg">
<circle cx="28" cy="28" r="28" fill="url(#paint0_linear_37077_8972)"/>
<circle cx="28" cy="28" r="21" fill="#F6F7FA"/>
<path d="M28.0019 15.5156L31.8727 22.5432C32.1597 23.0643 32.6639 23.4306 33.2482 23.5426L41.128 25.0522L35.6405 30.9052C35.2336 31.3392 35.041 31.9319 35.1151 32.5222L36.1143 40.4828L28.8521 37.0726C28.3135 36.8197 27.6904 36.8197 27.1518 37.0726L19.8896 40.4828L20.8888 32.5222C20.9629 31.9319 20.7703 31.3392 20.3634 30.9052L14.8759 25.0522L22.7557 23.5426C23.34 23.4306 23.8441 23.0643 24.1312 22.5432L28.0019 15.5156Z" stroke="url(#paint1_linear_37077_8972)" stroke-width="2"/>
<defs>
<linearGradient id="paint0_linear_37077_8972" x1="28" y1="0" x2="28" y2="56" gradientUnits="userSpaceOnUse">
<stop stop-color="#005AFE"/>
<stop offset="1" stop-color="#0647BD"/>
</linearGradient>
<linearGradient id="paint1_linear_37077_8972" x1="28.0019" y1="14.5156" x2="28.0019" y2="41.4845" gradientUnits="userSpaceOnUse">
<stop stop-color="#005AFE"/>
<stop offset="1" stop-color="#0647BD"/>
</linearGradient>
</defs>
</svg>
