<svg width="32" height="32" viewBox="0 0 32 32" fill="none" xmlns="http://www.w3.org/2000/svg">
<path d="M16.3584 21.4569L15.4813 21.9371L16.171 23.1967L17.1131 22.1129L16.3584 21.4569ZM30.734 5.99799C30.6955 5.44704 30.2177 5.03164 29.6667 5.07016L20.6886 5.69782C20.1377 5.73634 19.7223 6.21419 19.7608 6.76513C19.7993 7.31607 20.2772 7.73147 20.8281 7.69296L28.8086 7.13503L29.3666 15.1156C29.4051 15.6665 29.8829 16.0819 30.4339 16.0434C30.9848 16.0049 31.4002 15.527 31.3617 14.9761L30.734 5.99799ZM1.50557 25.2789C1.14509 25.6974 1.19206 26.3288 1.61048 26.6893C2.0289 27.0497 2.66032 27.0028 3.0208 26.5843L1.50557 25.2789ZM12.3792 14.1896L13.2563 13.7093L12.5633 12.4437L11.6216 13.5369L12.3792 14.1896ZM17.1131 22.1129L30.4912 6.7238L28.9818 5.41165L15.6037 20.8008L17.1131 22.1129ZM3.0208 26.5843L13.1368 14.8423L11.6216 13.5369L1.50557 25.2789L3.0208 26.5843ZM11.5021 14.6698L15.4813 21.9371L17.2356 20.9766L13.2563 13.7093L11.5021 14.6698Z" fill="#005AFE"/>
</svg>
