<svg width="24" height="20" viewBox="0 0 24 20" fill="none" xmlns="http://www.w3.org/2000/svg">
<path d="M12.0001 0.945312C5.37279 0.945312 0 6.36914 0 13.0599C0 16.6877 1.56562 19.0538 1.56562 19.0538L22.4296 19.0548C22.4296 19.0548 23.9997 16.469 23.9997 13.0596C23.9997 6.36914 18.627 0.945312 12.0001 0.945312ZM21.5495 17.5789L2.48874 17.5706C2.48874 17.5706 1.47308 15.6472 1.47308 13.0216C1.47308 7.15749 6.20413 2.4033 12.0404 2.4033C17.8763 2.4033 22.6076 7.15723 22.6076 13.0216C22.6079 15.6768 21.5495 17.5789 21.5495 17.5789Z" fill="#005AFE"/>
<path d="M15.3909 4.16221L15.2402 4.16196L12.0393 10.4342L8.72329 4.1084L4.1831 15.5362H3.00977V16.454H9.4377V15.5362H8.16227L9.4377 11.9646L12.0393 16.454L14.5391 11.9646L15.8143 15.5362H14.5391V16.454H20.9158V15.5362H19.8111L15.3909 4.16221Z" fill="#005AFE"/>
</svg>
