<svg width="56" height="56" viewBox="0 0 56 56" fill="none" xmlns="http://www.w3.org/2000/svg">
<circle cx="28" cy="28" r="28" fill="url(#paint0_linear_37077_17063)"/>
<circle cx="28" cy="28" r="21" fill="#F6F7FA"/>
<path d="M16.186 27.9528C16.223 30.5606 16.8962 32.9706 18.6271 35.0004C20.7072 37.4404 23.3229 39.0486 26.618 39.421C28.9419 39.6836 31.1781 39.2585 33.2631 38.2529C37.1229 36.394 39.1301 33.2326 39.7423 29.1778C39.9675 27.6871 39.7386 26.209 39.2992 24.7662C39.1986 24.4364 39.1758 24.1168 39.3566 23.8068C39.5467 23.486 39.841 23.3109 40.2205 23.3301C40.6463 23.3511 40.9986 23.5489 41.1066 23.9585C41.3244 24.7878 41.562 25.6225 41.6656 26.4692C41.977 28.9129 41.5687 31.3922 40.4883 33.6194C39.1061 36.5013 36.9167 38.6403 33.9814 40.0452C31.8433 41.0682 29.5614 41.5318 27.1968 41.3567C22.7855 41.0341 19.2417 39.1284 16.6692 35.5959C15.2933 33.7232 14.4696 31.5211 14.2867 29.227C13.972 25.424 15.0741 22.0384 17.6688 19.1601C19.7724 16.8215 22.4165 15.3889 25.5622 14.8217C27.7516 14.4265 29.8989 14.592 32.0204 15.2025C32.6195 15.3763 32.9157 15.8621 32.7652 16.3928C32.6072 16.9414 32.0821 17.2161 31.4743 17.0374C29.2066 16.3718 26.9346 16.3778 24.6638 16.9954C22.5516 17.5723 20.7813 18.6978 19.2954 20.2551C17.7274 21.9011 16.6957 23.8116 16.3588 26.0447C16.2656 26.6755 16.2422 27.3153 16.186 27.9528Z" fill="url(#paint1_linear_37077_17063)"/>
<path d="M37.6829 28.139C37.6428 31.6637 35.5263 35.4966 30.9212 36.9418C26.1217 38.4481 21.3981 36.0495 19.4278 32.2783C17.4465 28.4862 18.211 24.0212 21.3204 21.1519C23.3739 19.2576 25.8348 18.4109 28.6597 18.5596C29.2224 18.5896 29.668 19.0705 29.6346 19.5988C29.6001 20.1451 29.1231 20.5205 28.5239 20.4749C24.513 20.1697 20.8724 23.0756 20.3843 26.9715C19.8623 31.1522 22.7705 34.822 27.0658 35.4097C31.0964 35.9584 35.0358 33.1202 35.6287 29.2189C35.7158 28.6499 35.7102 28.0652 35.7176 27.4878C35.7287 26.6602 36.4174 26.1577 37.1319 26.4756C37.4583 26.6207 37.6558 26.8659 37.6786 27.2131C37.699 27.5189 37.6829 27.8296 37.6829 28.139Z" fill="url(#paint2_linear_37077_17063)"/>
<path d="M37.7377 18.5214C38.2875 18.5214 38.799 18.5178 39.3112 18.5214C40.0831 18.5274 40.5842 19.0886 40.3762 19.7405C40.3053 19.9377 40.1885 20.1164 40.035 20.2627C38.7712 21.5058 37.4958 22.7375 36.2259 23.9746C36.1011 24.1009 35.9502 24.2001 35.7831 24.2656C35.616 24.3311 35.4365 24.3615 35.2565 24.3547C34.6499 24.3445 34.0427 24.3367 33.4374 24.3607C33.2501 24.3699 33.0715 24.4405 32.9308 24.561C31.6349 25.8035 30.3576 27.0603 29.0735 28.3124C28.9575 28.4257 28.8403 28.5379 28.715 28.6416C28.2738 29.0068 27.6993 28.9984 27.3279 28.6272C26.9441 28.2428 26.9502 27.6774 27.3661 27.2582C27.8653 26.7551 28.38 26.2664 28.8884 25.7717C29.7603 24.9244 30.6298 24.0741 31.5066 23.2322C31.6707 23.0745 31.7534 22.9168 31.7466 22.6829C31.7275 22.1037 31.7466 21.5238 31.7392 20.9439C31.7328 20.7743 31.7631 20.6052 31.8283 20.4476C31.8934 20.2901 31.992 20.1476 32.1175 20.0295C33.3997 18.7888 34.6746 17.5421 35.9556 16.3003C36.345 15.9231 36.7732 15.8254 37.1854 16.0184C37.5556 16.1917 37.7296 16.4982 37.7358 16.8861C37.7432 17.4156 37.7377 17.9439 37.7377 18.5214ZM33.7268 22.4227C34.0933 22.4227 34.4302 22.4407 34.7634 22.4143C34.9213 22.3992 35.0702 22.3362 35.1892 22.2344C35.6606 21.8062 36.1148 21.3577 36.572 20.9152C36.7201 20.7724 36.8658 20.6279 36.9645 20.532C36.6523 20.4055 36.2919 20.3521 36.0827 20.1494C35.8735 19.9467 35.805 19.5911 35.6674 19.2853C35.0609 19.8802 34.4333 20.4936 33.8082 21.11C33.7651 21.1507 33.7377 21.2044 33.7305 21.2624C33.7255 21.6401 33.728 22.0161 33.728 22.4227H33.7268Z" fill="url(#paint3_linear_37077_17063)"/>
<path d="M27.5513 33.4583C25.6656 33.3713 23.8662 32.3411 22.8765 30.2298C21.9102 28.1682 22.2175 26.1792 23.6861 24.418C24.7678 23.1222 26.2283 22.4961 27.9438 22.4326C28.5226 22.411 28.9619 22.7714 29.0267 23.2895C29.0884 23.78 28.7373 24.2195 28.177 24.3346C27.9358 24.3838 27.6902 24.409 27.4464 24.4456C25.9371 24.6728 24.8147 25.6449 24.4666 27.0349C24.0865 28.5376 24.5839 29.9533 25.8316 30.8348C26.9799 31.6437 28.2381 31.7973 29.5339 31.2348C30.8742 30.6525 31.5924 29.6025 31.7331 28.1808C31.7429 28.0116 31.7692 27.8438 31.8115 27.6795C31.9503 27.2183 32.294 26.9845 32.7741 27.0025C33.2307 27.0193 33.5559 27.2777 33.667 27.7298C33.8058 28.2947 33.6713 28.8464 33.5257 29.3843C32.871 31.7937 30.6144 33.4613 27.5513 33.4583Z" fill="url(#paint4_linear_37077_17063)"/>
<defs>
<linearGradient id="paint0_linear_37077_17063" x1="28" y1="0" x2="28" y2="56" gradientUnits="userSpaceOnUse">
<stop stop-color="#005AFE"/>
<stop offset="1" stop-color="#0647BD"/>
</linearGradient>
<linearGradient id="paint1_linear_37077_17063" x1="28.0008" y1="14.6074" x2="28.0008" y2="41.3929" gradientUnits="userSpaceOnUse">
<stop stop-color="#005AFE"/>
<stop offset="1" stop-color="#0647BD"/>
</linearGradient>
<linearGradient id="paint2_linear_37077_17063" x1="28.0124" y1="18.543" x2="28.0124" y2="37.3977" gradientUnits="userSpaceOnUse">
<stop stop-color="#005AFE"/>
<stop offset="1" stop-color="#0647BD"/>
</linearGradient>
<linearGradient id="paint3_linear_37077_17063" x1="33.7352" y1="15.9219" x2="33.7352" y2="28.9106" gradientUnits="userSpaceOnUse">
<stop stop-color="#005AFE"/>
<stop offset="1" stop-color="#0647BD"/>
</linearGradient>
<linearGradient id="paint4_linear_37077_17063" x1="28.0228" y1="22.4316" x2="28.0228" y2="33.4583" gradientUnits="userSpaceOnUse">
<stop stop-color="#005AFE"/>
<stop offset="1" stop-color="#0647BD"/>
</linearGradient>
</defs>
</svg>
