<svg width="24" height="24" viewBox="0 0 24 24" fill="none" xmlns="http://www.w3.org/2000/svg">
<path d="M4.09978 11.6C8.39978 9.76 11.2598 8.55 12.6998 7.97C16.7698 6.3 17.6198 6 18.1798 6C18.2998 6 18.5798 6.03 18.7498 6.17C18.8632 6.27013 18.9347 6.40943 18.9498 6.56C18.9798 6.67 18.9998 6.93 18.9798 7.13C18.7598 9.41 17.7998 14.95 17.3098 17.51C17.1098 18.6 16.6998 18.96 16.3098 18.99C15.4498 19.07 14.8098 18.44 13.9698 17.91C12.6698 17.07 11.9398 16.55 10.6798 15.74C9.22978 14.8 10.1798 14.29 10.9998 13.44C11.2198 13.22 14.9898 9.86 15.0598 9.55C15.0698 9.52 15.0798 9.37 14.9898 9.3C14.9098 9.22 14.7798 9.25 14.6898 9.27C14.5598 9.3 12.4898 10.64 8.46978 13.3C7.88978 13.7 7.34978 13.88 6.86978 13.87C6.34978 13.87 5.33978 13.58 4.58978 13.34C3.65978 13.04 2.92978 12.89 2.98978 12.39C3.02978 12.13 3.38978 11.87 4.08978 11.59L4.09978 11.6Z" fill="#001A34" fill-opacity="0.5"/>
</svg>
