<svg width="64" height="64" viewBox="0 0 64 64" fill="none" xmlns="http://www.w3.org/2000/svg">
<path d="M32 64C49.6731 64 64 49.6731 64 32C64 14.3269 49.6731 0 32 0C14.3269 0 0 14.3269 0 32C0 49.6731 14.3269 64 32 64Z" fill="#005AFE"/>
<path d="M13.505 30.357C23.1791 25.9683 29.6135 23.0822 32.8532 21.6988C42.0099 17.7156 43.9222 17 45.1821 17C45.452 17 46.082 17.0716 46.4644 17.4055C46.7197 17.6443 46.8804 17.9766 46.9144 18.3357C46.9819 18.5981 47.0269 19.2182 46.9819 19.6953C46.4869 25.1335 44.3271 38.3474 43.2247 44.4534C42.7748 47.0533 41.8524 47.912 40.9749 47.9835C39.0401 48.1743 37.6003 46.6717 35.7104 45.4075C32.7857 43.404 31.1434 42.1637 28.3086 40.2317C25.0464 37.9896 27.1837 36.7732 29.0286 34.7458C29.5235 34.221 38.0052 26.2068 38.1627 25.4674C38.1852 25.3958 38.2077 25.0381 38.0052 24.8711C37.8252 24.6803 37.5328 24.7518 37.3303 24.7995C37.0378 24.8711 32.3808 28.0672 23.3366 34.4118C22.0317 35.3659 20.8168 35.7952 19.7369 35.7714C18.5671 35.7714 16.2948 35.0797 14.6074 34.5072C12.5151 33.7917 10.8728 33.4339 11.0078 32.2413C11.0978 31.6212 11.9077 31.001 13.4825 30.3332L13.505 30.357Z" fill="#F8F8F8"/>
</svg>
