<svg width="56" height="56" viewBox="0 0 56 56" fill="none" xmlns="http://www.w3.org/2000/svg">
<path d="M28 56C43.464 56 56 43.464 56 28C56 12.536 43.464 0 28 0C12.536 0 0 12.536 0 28C0 43.464 12.536 56 28 56Z" fill="#005AFE"/>
<path d="M11.8169 26.5624C20.2817 22.7222 25.9118 20.1969 28.7466 18.9865C36.7586 15.5011 38.4319 14.875 39.5343 14.875C39.7705 14.875 40.3217 14.9376 40.6564 15.2298C40.8797 15.4388 41.0204 15.7295 41.0501 16.0437C41.1092 16.2733 41.1485 16.8159 41.1092 17.2333C40.6761 21.9918 38.7862 33.554 37.8216 38.8968C37.4279 41.1716 36.6208 41.923 35.8531 41.9856C34.1601 42.1525 32.9002 40.8377 31.2466 39.7316C28.6875 37.9785 27.2505 36.8932 24.7701 35.2027C21.9156 33.2409 23.7858 32.1765 25.4 30.4025C25.8331 29.9434 33.2546 22.931 33.3924 22.284C33.4121 22.2214 33.4317 21.9083 33.2546 21.7622C33.0971 21.5952 32.8412 21.6579 32.664 21.6996C32.4081 21.7622 28.3332 24.5588 20.4195 30.1103C19.2778 30.9452 18.2147 31.3208 17.2698 31.3C16.2462 31.3 14.2579 30.6947 12.7815 30.1938C10.9507 29.5677 9.51368 29.2547 9.63179 28.2111C9.71054 27.6685 10.4192 27.1259 11.7972 26.5415L11.8169 26.5624Z" fill="#F8F8F8"/>
</svg>
