<svg width="48" height="48" viewBox="0 0 48 48" fill="none" xmlns="http://www.w3.org/2000/svg">
<path d="M4.0002 23.9632C4.04906 12.895 13.0502 3.93149 24.0519 4.00039C35.1414 4.0718 44.0786 13.0579 44.0034 24.0609C43.927 35.1303 34.9835 44.0375 23.9755 43.9999C12.9073 43.9636 3.95134 34.9787 4.0002 23.9632ZM40.0172 24.0108C40.0322 15.2076 32.8125 7.98543 24.0006 7.98794C15.1886 7.99045 8.03911 15.1412 7.98649 23.9669C7.93889 32.7501 15.1448 39.9798 23.9805 40.0148C32.7687 40.0499 40.0034 32.8302 40.0172 24.0108Z" fill="#005AFE"/>
<path d="M25.995 22.0094H26.5625C27.7502 22.0094 28.9428 21.9906 30.1241 22.0219C30.6301 22.0386 31.1094 22.253 31.4591 22.6191C31.8088 22.9852 32.001 23.4738 31.9945 23.98C32.0033 25.0662 31.2003 25.9656 30.1154 25.9844C28.0383 26.012 25.9608 26.012 23.8829 25.9844C23.3906 25.9805 22.9194 25.7835 22.5708 25.4359C22.2222 25.0882 22.024 24.6176 22.0188 24.1253C21.9954 21.3768 21.9954 18.6278 22.0188 15.8784C22.0288 14.8286 22.9283 14.0105 23.9781 13.9992C24.4936 13.9867 24.9933 14.1781 25.3686 14.5318C25.7439 14.8855 25.9645 15.373 25.9825 15.8884C26.0126 17.7162 25.9938 19.544 25.9963 21.3718L25.995 22.0094Z" fill="#005AFE"/>
</svg>
