<svg width="49" height="48" viewBox="0 0 49 48" fill="none" xmlns="http://www.w3.org/2000/svg">
<path d="M18.3746 44.985C17.3104 44.227 16.2021 43.5244 15.1903 42.6985C13.9033 41.6287 12.8419 40.3138 12.0676 38.8301C11.8622 38.4552 11.7677 38.0885 12.0471 37.7187C12.3265 37.3489 12.6911 37.3242 13.1164 37.4105C15.2819 37.8289 17.4853 38.0189 19.6904 37.9775C20.4885 37.9652 20.8552 38.4572 20.6714 39.2297C20.279 40.8732 19.8996 42.5201 19.5333 44.1705C19.4983 44.3515 19.4192 44.5212 19.3031 44.6645C19.1871 44.8078 19.0375 44.9204 18.8676 44.9922L18.3746 44.985Z" fill="#005AFE"/>
<path d="M22.8382 34.2478C25.2162 33.8842 27.5099 33.3983 29.5232 32.063C29.8069 31.8726 30.0691 31.6518 30.3049 31.4045C30.9921 30.6855 31.0557 30.102 30.613 29.2197C30.4949 29.0068 30.4297 28.7687 30.423 28.5253C30.4374 28.1309 30.7014 27.872 31.0814 27.7837C31.4851 27.6892 31.8005 27.8659 32.0316 28.1946C33.0187 29.5854 32.8246 31.3234 31.5416 32.6289C30.46 33.7291 29.1236 34.4008 27.6938 34.9083C24.8731 35.9087 21.9415 36.2303 18.9719 36.222C16.1225 36.2149 13.3223 35.8913 10.6106 34.9576C9.25776 34.4912 7.96555 33.8934 6.91268 32.9032C4.98054 31.0768 5.04114 28.8437 7.10785 27.1735C7.73854 26.6599 8.47298 26.2717 9.18585 25.8711C9.67685 25.5958 10.1863 25.7683 10.4185 26.2018C10.6506 26.6353 10.4647 27.1263 9.95316 27.4344C9.33685 27.8063 8.72054 28.1884 8.12477 28.5972C7.91922 28.756 7.74239 28.9488 7.60193 29.1673C7.13866 29.8216 7.14894 30.4503 7.62042 31.0984C8.23673 31.9479 9.13552 32.4184 10.0549 32.8529C10.2603 32.9556 10.4791 33.0316 10.7513 33.1456C10.7975 32.6187 10.8376 32.1369 10.8828 31.6552C11.0336 30.0996 11.511 28.5935 12.2839 27.2352C12.9166 26.1053 13.6192 25 13.9027 23.7129C14.3629 21.6144 14.5437 19.5179 13.6007 17.4892C12.9207 16.0265 11.8709 14.838 10.6999 13.7554C9.55461 12.6994 8.37026 11.6815 7.23214 10.6173C6.53878 9.96913 5.9574 9.2275 5.65848 8.302C5.27431 7.1156 5.5835 6.26714 6.6415 5.59947C7.97685 4.75717 9.47244 4.37917 10.9875 4.06793C13.876 3.47318 16.8076 3.22974 19.7484 3.07566C22.8 2.934 25.8576 2.9913 28.9017 3.2472C31.6443 3.46189 34.3808 3.75258 37.0289 4.55892C37.9451 4.83729 38.8418 5.16907 39.6215 5.7556C40.2583 6.23324 40.6158 6.84853 40.5542 7.64974C40.4412 9.133 40.3004 10.6132 40.1721 12.0944C40.1659 12.1622 40.1628 12.2289 40.1556 12.345C40.8901 11.929 41.5875 11.5233 42.0169 10.8125C42.1956 10.5207 42.2655 10.1571 42.3507 9.81711C42.436 9.47711 42.6342 9.20901 42.9598 9.17922C43.23 9.15354 43.5854 9.22545 43.7765 9.39493C43.9675 9.56442 44.0497 9.90853 44.0374 10.1622C43.9788 11.3949 43.2659 12.2628 42.3528 12.9901C40.7935 14.233 38.9548 14.8966 37.0699 15.4451C34.5913 16.1641 32.0531 16.5565 29.4852 16.7804C26.2777 17.059 23.0519 17.0555 19.845 16.7702C19.4773 16.7373 19.1095 16.7003 18.7418 16.6613C18.0854 16.5894 17.6478 16.8667 17.577 17.407C17.5081 17.9288 17.8954 18.3572 18.5425 18.3972C20.6195 18.5236 22.6954 18.7054 24.7735 18.7259C28.7692 18.765 32.727 18.3695 36.6108 17.3824C37.1552 17.2437 37.5209 17.3505 37.7407 17.709C37.9924 18.1127 37.8691 18.4784 37.6277 18.8512C36.1403 21.145 34.1301 22.9282 32.0367 24.6405C30.3747 25.9995 28.7158 27.3677 27.1196 28.8016C25.4617 30.29 24.1017 32.0393 22.9748 33.9633C22.9327 34.0393 22.8988 34.1235 22.8382 34.2478ZM12.5437 7.34774C18.5774 8.60708 28.876 8.40986 33.5344 7.33336C26.5813 6.22054 19.4952 6.2254 12.5437 7.34774Z" fill="#005AFE"/>
</svg>
