<svg width="24" height="24" viewBox="0 0 24 24" fill="none" xmlns="http://www.w3.org/2000/svg">
<path d="M15.3333 7.00033V6.33366C15.3333 5.40024 15.3333 4.93353 15.1517 4.57701C14.9919 4.2634 14.7369 4.00844 14.4233 3.84865C14.0668 3.66699 13.6001 3.66699 12.6667 3.66699H11.3333C10.3999 3.66699 9.9332 3.66699 9.57668 3.84865C9.26308 4.00844 9.00811 4.2634 8.84832 4.57701C8.66667 4.93353 8.66667 5.40024 8.66667 6.33366V7.00033M10.3333 11.5837V15.7503M13.6667 11.5837V15.7503M4.5 7.00033H19.5M17.8333 7.00033V16.3337C17.8333 17.7338 17.8333 18.4339 17.5608 18.9686C17.3212 19.439 16.9387 19.8215 16.4683 20.0612C15.9335 20.3337 15.2335 20.3337 13.8333 20.3337H10.1667C8.76654 20.3337 8.06647 20.3337 7.53169 20.0612C7.06129 19.8215 6.67883 19.439 6.43915 18.9686C6.16667 18.4339 6.16667 17.7338 6.16667 16.3337V7.00033" stroke="#005AFE" stroke-width="1.8" stroke-linecap="round" stroke-linejoin="round"/>
</svg>
