<svg width="56" height="56" viewBox="0 0 56 56" fill="none" xmlns="http://www.w3.org/2000/svg">
<circle cx="28" cy="28" r="28" fill="url(#paint0_linear_6102_28322)"/>
<circle cx="28" cy="28" r="21" fill="#F6F7FA"/>
<path d="M35.6621 15.7527C36.9484 14.424 39.0738 14.4069 40.3814 15.7145C41.6533 16.9863 41.677 19.041 40.4348 20.3418L36.7299 24.2215C36.4395 24.5256 36.2943 24.6776 36.2048 24.8557C36.1256 25.0133 36.0785 25.1851 36.0661 25.3611C36.0522 25.5599 36.0995 25.7648 36.194 26.1745L38.4979 36.1579C38.5949 36.5785 38.6435 36.7887 38.6278 36.9921C38.6139 37.1722 38.5637 37.3475 38.48 37.5075C38.3855 37.6883 38.2329 37.8409 37.9277 38.1461L37.4333 38.6405C36.6251 39.4486 36.221 39.8527 35.8075 39.9259C35.4463 39.9898 35.0748 39.9021 34.7803 39.6834C34.4431 39.433 34.2624 38.8909 33.901 37.8066L31.2213 29.7675L26.7609 34.228C26.4946 34.4942 26.3615 34.6273 26.2724 34.7841C26.1936 34.923 26.1403 35.0749 26.1151 35.2327C26.0867 35.4107 26.1075 35.5978 26.1491 35.9721L26.394 38.1766C26.4356 38.5508 26.4564 38.7379 26.428 38.916C26.4028 39.0737 26.3495 39.2256 26.2707 39.3645C26.1816 39.5213 26.0485 39.6544 25.7822 39.9207L25.5189 40.184C24.8881 40.8147 24.5728 41.1301 24.2223 41.2214C23.9149 41.3016 23.589 41.2693 23.3033 41.1304C22.9776 40.9722 22.7302 40.6011 22.2354 39.8589L20.1443 36.7222C20.0559 36.5896 20.0117 36.5233 19.9603 36.4632C19.9148 36.4098 19.865 36.36 19.8116 36.3144C19.7515 36.2631 19.6852 36.2189 19.5526 36.1305L16.4159 34.0394C15.6737 33.5446 15.3026 33.2972 15.1444 32.9715C15.0055 32.6858 14.9732 32.3599 15.0534 32.0525C15.1447 31.702 15.4601 31.3866 16.0908 30.7559L16.3541 30.4926C16.6204 30.2263 16.7535 30.0932 16.9103 30.0041C17.0492 29.9252 17.2011 29.872 17.3588 29.8468C17.5369 29.8184 17.724 29.8392 18.0982 29.8808L20.3027 30.1257C20.677 30.1673 20.8641 30.1881 21.0421 30.1597C21.1999 30.1345 21.3518 30.0812 21.4907 30.0024C21.6475 29.9133 21.7806 29.7802 22.0468 29.5139L26.5073 25.0535L18.4682 22.3738C17.3839 22.0124 16.8418 21.8317 16.5914 21.4945C16.3727 21.2 16.285 20.8285 16.3489 20.4673C16.4221 20.0538 16.8261 19.6497 17.6343 18.8415L18.1287 18.3471C18.4339 18.0419 18.5865 17.8893 18.7673 17.7948C18.9273 17.7111 19.1026 17.6609 19.2827 17.647C19.4861 17.6313 19.6963 17.6798 20.1169 17.7769L30.0624 20.072C30.4757 20.1674 30.6823 20.2151 30.8818 20.2009C31.0744 20.1872 31.2618 20.1318 31.4309 20.0386C31.6061 19.942 31.7536 19.7897 32.0486 19.485L35.6621 15.7527Z" stroke="url(#paint1_linear_6102_28322)" stroke-width="2.2" stroke-linecap="round" stroke-linejoin="round"/>
<defs>
<linearGradient id="paint0_linear_6102_28322" x1="28" y1="0" x2="28" y2="56" gradientUnits="userSpaceOnUse">
<stop stop-color="#005AFE"/>
<stop offset="1" stop-color="#0647BD"/>
</linearGradient>
<linearGradient id="paint1_linear_6102_28322" x1="28.1807" y1="14.7449" x2="28.1807" y2="41.2645" gradientUnits="userSpaceOnUse">
<stop stop-color="#005AFE"/>
<stop offset="1" stop-color="#0647BD"/>
</linearGradient>
</defs>
</svg>
