<svg width="24" height="24" viewBox="0 0 24 24" fill="none" xmlns="http://www.w3.org/2000/svg">
<path d="M20 7.53792C19.401 7.80352 18.7656 7.97779 18.115 8.05492C18.7999 7.64459 19.3126 6.99968 19.558 6.23992C18.9128 6.62186 18.2075 6.89136 17.472 7.03692C16.9777 6.50955 16.3232 6.16004 15.61 6.04263C14.8968 5.92522 14.1647 6.04646 13.5275 6.38754C12.8902 6.72863 12.3833 7.27049 12.0854 7.92907C11.7875 8.58764 11.7153 9.32611 11.88 10.0299C10.5749 9.9645 9.29818 9.62532 8.13271 9.0344C6.96723 8.44348 5.93907 7.61403 5.115 6.59992C4.82254 7.10054 4.66892 7.67013 4.67 8.24992C4.67 9.38992 5.25 10.3939 6.13 10.9819C5.60898 10.9646 5.09958 10.8233 4.644 10.5699V10.6109C4.64406 11.3688 4.90612 12.1034 5.38579 12.6903C5.86546 13.2771 6.53324 13.6801 7.276 13.8309C6.9943 13.907 6.7038 13.9457 6.412 13.9459C6.20449 13.946 5.99749 13.9256 5.794 13.8849C6.00329 14.5371 6.41129 15.1076 6.96088 15.5164C7.51047 15.9252 8.17415 16.152 8.859 16.1649C7.69626 17.0767 6.26061 17.5709 4.783 17.5679C4.518 17.5679 4.257 17.5519 4 17.5229C5.50006 18.4888 7.24685 19.0017 9.031 18.9999C15.069 18.9999 18.369 13.9979 18.369 9.65992L18.359 9.23392C19.0041 8.77252 19.5601 8.19787 20 7.53792Z" fill="black" fill-opacity="0.4"/>
</svg>
