<svg xmlns="http://www.w3.org/2000/svg" width="32" height="32" viewBox="0 0 32 32" fill="none">
  <mask id="mask0_4409_482" style="mask-type:alpha" maskUnits="userSpaceOnUse" x="0" y="0" width="32" height="32">
    <circle cx="16" cy="16" r="16" fill="#D9D9D9"/>
  </mask>
  <g mask="url(#mask0_4409_482)">
    <path fill-rule="evenodd" clip-rule="evenodd" d="M0 0H35V35H0V0Z" fill="white"/>
    <path fill-rule="evenodd" clip-rule="evenodd" d="M0 0H19V15H0V0Z" fill="#1A47B8"/>
    <path fill-rule="evenodd" clip-rule="evenodd" d="M0 0H19V15H0V0Z" fill="#1A47B8"/>
    <path fill-rule="evenodd" clip-rule="evenodd" d="M19.2857 0V2.13333H45V0H19.2857ZM19.2857 4.26667V6.4H45V4.26667H19.2857ZM19.2857 8.53333V10.6667H45V8.53333H19.2857ZM19.2857 12.8V14.9333H45V12.8H19.2857ZM0 17.0667V19.2H45V17.0667H0ZM0 21.3333V23.4667H45V21.3333H0ZM0 25.6V27.7333H45V25.6H0ZM0 29.8667V32H45V29.8667H0Z" fill="#F93939"/>
    <path fill-rule="evenodd" clip-rule="evenodd" d="M2 2V4.2H4.14286V2H2ZM6.28571 2V4.2H8.42857V2H6.28571ZM10.5714 2V4.2H12.7143V2H10.5714ZM14.8571 2V4.2H17V2H14.8571ZM12.7143 4.2V6.4H14.8571V4.2H12.7143ZM8.42857 4.2V6.4H10.5714V4.2H8.42857ZM4.14286 4.2V6.4H6.28571V4.2H4.14286ZM2 6.4V8.6H4.14286V6.4H2ZM6.28571 6.4V8.6H8.42857V6.4H6.28571ZM10.5714 6.4V8.6H12.7143V6.4H10.5714ZM14.8571 6.4V8.6H17V6.4H14.8571ZM2 10.8V13H4.14286V10.8H2ZM6.28571 10.8V13H8.42857V10.8H6.28571ZM10.5714 10.8V13H12.7143V10.8H10.5714ZM14.8571 10.8V13H17V10.8H14.8571ZM12.7143 8.6V10.8H14.8571V8.6H12.7143ZM8.42857 8.6V10.8H10.5714V8.6H8.42857ZM4.14286 8.6V10.8H6.28571V8.6H4.14286Z" fill="white"/>
  </g>
</svg>