<svg width="24" height="24" viewBox="0 0 24 24" fill="none" xmlns="http://www.w3.org/2000/svg">
  <path opacity="0.85" d="M3 19C3 17.4087 3.63214 15.8826 4.75736 14.7574C5.88258 13.6321 7.4087 13 9 13H15C16.5913 13 18.1174 13.6321 19.2426 14.7574C20.3679 15.8826 21 17.4087 21 19V22H3V19Z" fill="#005AFE"/>
  <path opacity="0.3" fill-rule="evenodd" clip-rule="evenodd" d="M16.2228 2.95215C16.0153 3.35024 15.7027 3.68381 15.3188 3.91655C14.935 4.14929 14.4947 4.27228 14.0458 4.27215H11.5898C10.9387 4.27215 10.3142 4.5308 9.85382 4.9912C9.39342 5.4516 9.13477 6.07604 9.13477 6.72715V10.6071C9.79296 11.1506 10.5921 11.4956 11.439 11.6019C12.2859 11.7083 13.1456 11.5716 13.9177 11.2078C14.6898 10.844 15.3426 10.2682 15.7998 9.54739C16.257 8.82662 16.4997 7.99069 16.4998 7.13715V4.27315C16.4998 3.80315 16.4008 3.35615 16.2228 2.95315V2.95215Z" fill="#005AFE"/>
  <path fill-rule="evenodd" clip-rule="evenodd" d="M16.223 2.952C15.9667 2.37119 15.547 1.87743 15.015 1.53086C14.4831 1.18429 13.8619 0.99985 13.227 1H7.5V7.136C7.49915 7.79966 7.64543 8.45526 7.92832 9.05562C8.2112 9.65597 8.62366 10.1862 9.136 10.608V6.728C9.136 6.07689 9.39465 5.45246 9.85506 4.99205C10.3155 4.53165 10.9399 4.273 11.591 4.273H14.046C14.992 4.273 15.813 3.737 16.223 2.953V2.952Z" fill="url(#paint0_linear_3570_1122)"/>
    <defs>
      <linearGradient id="paint0_linear_3570_1122" x1="13.227" y1="1" x2="12" y2="11.636" gradientUnits="userSpaceOnUse">
      <stop/>
      <stop offset="1" stop-opacity="0.5"/>
      </linearGradient>
    </defs>
</svg>
