<svg width="48" height="48" viewBox="0 0 48 48" fill="none" xmlns="http://www.w3.org/2000/svg">
<path d="M43.4129 3.00328C43.865 3.23946 44.0011 3.61014 44 4.11421C43.9876 10.7011 43.9846 17.2879 43.9912 23.8748C43.9912 24.7157 43.7289 24.9781 42.8861 24.9781H23.9603C23.1163 24.9781 22.8442 24.7091 22.8431 23.8846C22.8431 22.4092 22.8431 20.9335 22.8431 19.4573V18.9653C22.4151 19.184 22.042 19.3305 21.7984 19.7307C21.6331 20.0003 21.4093 20.2296 21.1434 20.4018C20.8776 20.574 20.5764 20.6847 20.262 20.7257C18.3273 21.0319 16.3903 21.3238 14.4534 21.6223C14.3206 21.6431 14.1878 21.6672 14.0145 21.6967C14.1154 22.3812 14.2098 23.0394 14.3097 23.6977C14.5456 25.2361 14.7947 26.7724 15.0109 28.3131C15.0526 28.6061 15.17 28.7154 15.4356 28.7439C16.3706 28.8412 17.1914 29.2173 17.9816 29.7105C19.8988 30.9056 21.8499 32.045 23.7583 33.2521C24.141 33.4854 24.4556 33.8145 24.6708 34.2067C24.886 34.5989 24.9942 35.0405 24.9846 35.4873C24.9751 35.9342 24.8481 36.3708 24.6164 36.7535C24.3846 37.1362 24.0562 37.4517 23.664 37.6685C22.7597 38.177 21.8521 38.1059 20.9687 37.5854C19.4839 36.7107 17.9871 35.8501 16.5209 34.9426C15.8929 34.5563 15.1949 34.2962 14.4666 34.1772C13.4021 33.9891 12.342 33.7693 11.2841 33.5648C11.1667 33.5419 11.0471 33.5288 10.8825 33.5047C10.844 33.9924 10.8034 34.4505 10.7727 34.9087C10.6015 37.3613 10.427 39.8138 10.2657 42.2675C10.1746 43.6649 9.49753 44.5222 8.12906 44.9322C8.09366 44.9499 8.06111 44.9727 8.03249 45H7.11616C7.05504 44.9709 6.99197 44.9461 6.9274 44.9256C5.6182 44.5801 4.7699 43.49 4.83026 42.1516C4.96524 39.1764 5.12766 36.2033 5.26922 33.2281C5.31312 32.3008 5.45468 31.3583 5.34385 30.4485C5.07169 28.2136 4.67662 25.9939 4.33643 23.7676C4.06537 21.993 4.53286 20.4436 5.77732 19.1348C5.82749 19.0742 5.87438 19.0111 5.91779 18.9456C3.13038 17.5952 2.39072 14.6046 3.48264 12.3697C4.6031 10.0767 7.31259 8.99531 9.66763 9.91599C10.8748 10.3829 11.7845 11.1822 12.3332 12.3478C13.0926 13.9541 12.9577 15.5373 12.0556 17.1053C14.1626 16.785 16.2093 16.4875 18.2483 16.1519C18.6322 16.0803 18.9982 15.9335 19.3248 15.72C20.4068 15.0256 21.4593 14.2832 22.5347 13.5768C22.6388 13.5173 22.7235 13.4294 22.7789 13.3234C22.8344 13.2174 22.8582 13.0978 22.8475 12.9787C22.8376 10.0264 22.8475 7.07415 22.8321 4.12187C22.8321 3.62107 22.9748 3.24712 23.4105 3L43.4129 3.00328ZM24.4892 23.3084H42.3111V4.66968H24.5188V12.2144C24.6747 12.116 24.7899 12.0482 24.8996 11.9738C25.9897 11.2361 27.0791 10.4984 28.1677 9.76072C28.6837 9.38857 29.3144 9.20864 29.9499 9.25227C30.2726 9.29529 30.5928 9.35551 30.909 9.43269C30.9365 9.32335 30.9639 9.23696 30.9826 9.14402C31.1746 8.15337 31.359 7.16053 31.5609 6.17097C31.6608 5.68111 32.0767 5.39353 32.5156 5.47991C32.9842 5.57286 33.2608 5.99602 33.1653 6.499C32.925 7.77394 32.6912 9.04889 32.4245 10.3184C32.3859 10.4541 32.3865 10.598 32.4263 10.7334C32.4661 10.8688 32.5435 10.9903 32.6495 11.0838C33.6745 12.1488 34.6819 13.2302 35.697 14.305C36.2633 14.9053 36.2622 15.2695 35.6849 15.8359C35.0419 16.4711 34.4021 17.1097 33.7491 17.733C33.5856 17.8882 33.545 18.0184 33.6394 18.2272C33.8128 18.6285 33.9686 19.0385 34.1135 19.4486C34.3033 19.9712 34.1135 20.4327 33.6602 20.6C33.207 20.7673 32.7823 20.542 32.5826 20.0467C32.4081 19.6159 32.294 19.1555 32.0734 18.7521C31.5905 17.8696 31.7771 17.2114 32.5551 16.587C33.1236 16.1311 33.5867 15.5461 34.1069 15.0081C33.5307 14.3969 32.9502 13.7813 32.3433 13.1394C31.9922 13.918 31.3699 14.3422 30.6775 14.7096C28.7204 15.752 26.7711 16.809 24.8294 17.8806C24.6878 17.9582 24.5101 18.1386 24.5079 18.2731C24.4826 19.9352 24.4892 21.6015 24.4892 23.3084ZM13.3856 28.6772C13.367 28.4924 13.3593 28.3579 13.3396 28.2256C12.9906 25.9323 12.6416 23.6394 12.2926 21.3468C12.173 20.5486 12.4155 20.2533 13.2188 20.1353C15.4261 19.8072 17.6326 19.4734 19.8384 19.1337C20.3575 19.0538 20.6658 18.6679 20.5879 18.2359C20.5067 17.7822 20.1237 17.5307 19.6003 17.6105C16.0414 18.1507 12.4803 18.6843 8.92359 19.243C8.00617 19.393 7.18315 19.8923 6.62826 20.6356C6.07337 21.3788 5.83003 22.3078 5.94961 23.2264C6.16361 24.8348 6.42589 26.4378 6.66841 28.043C6.74853 28.5755 6.83522 29.1069 6.92192 29.6624L13.3856 28.6772ZM11.1678 14.4625C11.169 13.6081 10.8301 12.7881 10.2255 12.1823C9.62097 11.5764 8.79997 11.2341 7.9425 11.2303C7.07701 11.2262 6.24504 11.5634 5.62822 12.1684C5.0114 12.7734 4.65984 13.5969 4.65028 14.4592C4.64949 14.8858 4.73304 15.3084 4.89616 15.7029C5.05928 16.0973 5.29877 16.4559 5.60096 16.7581C6.21127 17.3684 7.03993 17.7122 7.90464 17.7138C8.76935 17.7154 9.59929 17.3747 10.2119 16.7666C10.8244 16.1585 11.1695 15.3328 11.1711 14.4712L11.1678 14.4625ZM7.03385 31.3102C7.01739 31.4425 6.99654 31.5485 6.99215 31.6557C6.81657 35.1613 6.64317 38.6675 6.47198 42.1746C6.44125 42.8306 6.88351 43.3161 7.48159 43.3467C8.09724 43.3784 8.55156 42.9279 8.59985 42.2413C8.78202 39.652 8.96492 37.0642 9.14855 34.4779C9.22866 33.3232 9.30109 32.1685 9.38011 30.9581L7.03385 31.3102ZM10.9735 31.8241C12.2378 32.0701 13.4361 32.2877 14.6268 32.5381C15.3829 32.6966 16.1478 32.7874 16.8414 33.2215C18.4535 34.2275 20.104 35.1755 21.749 36.1279C21.9809 36.2661 22.2469 36.3373 22.5172 36.3334C22.9386 36.3072 23.2019 36.0152 23.3007 35.6041C23.3951 35.2159 23.2096 34.831 22.7948 34.5774C20.7306 33.3133 18.6664 32.0471 16.5923 30.7995C15.857 30.3622 15.0087 30.2102 14.178 30.2474C13.2123 30.29 12.2531 30.5054 11.294 30.6607C11.2425 30.6744 11.1949 30.6999 11.1551 30.7352C11.1152 30.7705 11.0843 30.8147 11.0646 30.8641C11.0141 31.1724 11.0043 31.4851 10.9779 31.8241H10.9735ZM22.1342 17.4552L24.1282 16.376C26.1496 15.2826 28.1717 14.1891 30.1946 13.0957C30.5633 12.8967 30.8388 12.6299 30.897 12.198C30.9377 11.9811 30.9108 11.7569 30.8197 11.5557C30.7287 11.3546 30.5779 11.186 30.3878 11.0728C29.9631 10.8039 29.5274 10.8356 29.1137 11.1133C28.1626 11.7541 27.2089 12.397 26.2527 13.0421C24.5924 14.1552 22.9462 15.2749 21.3067 16.3793L22.1342 17.4552Z" fill="#005AFE"/>
</svg>
