<svg width="56" height="56" viewBox="0 0 56 56" fill="none" xmlns="http://www.w3.org/2000/svg">
<path d="M28 56C43.464 56 56 43.464 56 28C56 12.536 43.464 0 28 0C12.536 0 0 12.536 0 28C0 43.464 12.536 56 28 56Z" fill="#005AFE"/>
<path d="M31.5 12.25H24.5C21.2511 12.25 18.1353 13.5407 15.8379 15.8381C13.5406 18.1356 12.25 21.2516 12.25 24.5007V29.751C12.249 32.0701 12.9063 34.3419 14.1455 36.3022C15.3846 38.2625 17.1547 39.8308 19.25 40.8247V46.6744C19.2521 46.7886 19.2874 46.8996 19.3517 46.9939C19.416 47.0882 19.5064 47.1617 19.6119 47.2054C19.7173 47.2491 19.8332 47.261 19.9453 47.2397C20.0575 47.2185 20.161 47.165 20.2431 47.0857L25.3269 42.0017H31.5C34.7489 42.0017 37.8647 40.711 40.1621 38.4135C42.4594 36.1161 43.75 33.0001 43.75 29.751V24.5007C43.75 21.2516 42.4594 18.1356 40.1621 15.8381C37.8647 13.5407 34.7489 12.25 31.5 12.25ZM36.085 35.2113L34.335 36.9614C32.4713 38.7859 27.6063 36.7033 23.3188 32.3236C19.0313 27.944 17.15 23.0306 18.9438 21.2061L20.6937 19.456C21.0367 19.1481 21.4827 18.98 21.9435 18.9849C22.4044 18.9897 22.8467 19.1672 23.1831 19.4823L25.7381 22.1074C25.941 22.3168 26.0874 22.5744 26.1634 22.856C26.2393 23.1375 26.2425 23.4337 26.1725 23.7168C26.1025 23.9999 25.9616 24.2605 25.7632 24.4742C25.5648 24.6878 25.3153 24.8475 25.0381 24.9382C24.6273 25.0643 24.2809 25.3437 24.0707 25.7185C23.8605 26.0932 23.8027 26.5346 23.9094 26.9508C24.3469 28.8934 26.8144 31.3261 28.6519 31.803C29.0661 31.9017 29.5022 31.846 29.8783 31.6462C30.2544 31.4465 30.5448 31.1164 30.695 30.7179C30.7921 30.44 30.959 30.1917 31.1798 29.997C31.4006 29.8023 31.6678 29.6677 31.9557 29.6061C32.2435 29.5446 32.5424 29.5582 32.8235 29.6456C33.1046 29.7331 33.3584 29.8914 33.5606 30.1054L36.1113 32.7305C36.4176 33.0726 36.5848 33.5169 36.5799 33.976C36.5751 34.4351 36.3985 34.8758 36.085 35.2113ZM29.5925 20.563C29.4185 20.5621 29.2446 20.5724 29.0719 20.5936C28.9181 20.6104 28.764 20.5655 28.6434 20.4687C28.5228 20.3718 28.4456 20.2311 28.4288 20.0773C28.4119 19.9236 28.4569 19.7694 28.5537 19.6488C28.6505 19.5282 28.7913 19.451 28.945 19.4342C29.1599 19.4094 29.3762 19.3977 29.5925 19.3992C31.1408 19.398 32.6262 20.0117 33.7222 21.1053C34.8182 22.1989 35.4352 23.683 35.4375 25.2314C35.4389 25.4477 35.4272 25.664 35.4025 25.8789C35.3942 25.955 35.3709 26.0288 35.3341 26.0959C35.2973 26.1631 35.2476 26.2223 35.1879 26.2702C35.1281 26.3182 35.0596 26.3539 34.986 26.3753C34.9125 26.3968 34.8355 26.4035 34.7594 26.3952C34.6832 26.3868 34.6095 26.3636 34.5424 26.3268C34.4752 26.2899 34.416 26.2402 34.3681 26.1805C34.3201 26.1208 34.2844 26.0522 34.263 25.9787C34.2415 25.9052 34.2348 25.8281 34.2431 25.752C34.2622 25.5791 34.2724 25.4053 34.2737 25.2314C34.2714 23.9917 33.7771 22.8036 32.8993 21.9282C32.0215 21.0529 30.8321 20.5618 29.5925 20.563ZM33.0925 25.2314C33.0798 25.3775 33.0128 25.5137 32.9047 25.6128C32.7966 25.712 32.6552 25.767 32.5084 25.767C32.3617 25.767 32.2203 25.712 32.1122 25.6128C32.0041 25.5137 31.937 25.3775 31.9244 25.2314C31.9244 24.6129 31.6787 24.0197 31.2414 23.5824C30.8041 23.145 30.211 22.8994 29.5925 22.8994C29.5116 22.9064 29.43 22.8965 29.3531 22.8703C29.2762 22.8441 29.2055 22.8023 29.1457 22.7473C29.0858 22.6924 29.038 22.6256 29.0052 22.5513C28.9725 22.4769 28.9557 22.3965 28.9557 22.3153C28.9557 22.234 28.9725 22.1536 29.0052 22.0792C29.038 22.0049 29.0858 21.9381 29.1457 21.8832C29.2055 21.8282 29.2762 21.7864 29.3531 21.7602C29.43 21.734 29.5116 21.7241 29.5925 21.7312C30.5208 21.7312 31.411 22.0999 32.0674 22.7563C32.7238 23.4128 33.0925 24.303 33.0925 25.2314ZM37.5419 27.1258C37.5289 27.2054 37.4997 27.2814 37.4561 27.3491C37.4125 27.4169 37.3553 27.4749 37.2883 27.5196C37.2212 27.5643 37.1457 27.5947 37.0663 27.6088C36.987 27.623 36.9056 27.6207 36.8272 27.602C36.7489 27.5833 36.6752 27.5486 36.6108 27.5002C36.5464 27.4517 36.4927 27.3905 36.453 27.3204C36.4133 27.2503 36.3885 27.1727 36.3802 27.0926C36.3718 27.0124 36.38 26.9314 36.4044 26.8546C36.5307 26.3258 36.5939 25.7838 36.5925 25.2401C36.5925 23.3835 35.855 21.6029 34.5422 20.2901C33.2295 18.9773 31.449 18.2397 29.5925 18.2397H29.05C28.9736 18.2455 28.8968 18.2361 28.824 18.2122C28.7512 18.1882 28.6838 18.1502 28.6257 18.1002C28.5084 17.9993 28.436 17.8559 28.4244 17.7016C28.4128 17.5472 28.4629 17.3946 28.5639 17.2773C28.6648 17.1599 28.8082 17.0875 28.9625 17.0759C29.1725 17.0584 29.3825 17.0496 29.5925 17.0496C31.76 17.0531 33.8376 17.9167 35.369 19.4507C36.9005 20.9846 37.7606 23.0637 37.7606 25.2314C37.7609 25.8692 37.6875 26.5049 37.5419 27.1258Z" fill="white"/>
</svg>
