<svg width="24" height="24" viewBox="0 0 24 24" fill="none" xmlns="http://www.w3.org/2000/svg">
<path d="M12.0001 9.00462C14.2093 9.00462 16.0001 10.7955 16.0001 13.0046C16.0001 15.2138 14.2093 17.0046 12.0001 17.0046C9.79098 17.0046 8.00012 15.2138 8.00012 13.0046C8.00012 10.7955 9.79098 9.00462 12.0001 9.00462ZM12.0001 5.5C16.6136 5.5 20.5962 8.65001 21.7012 13.0644C21.8018 13.4662 21.5576 13.8735 21.1558 13.9741C20.754 14.0746 20.3467 13.8305 20.2461 13.4286C19.3072 9.67796 15.9215 7 12.0001 7C8.07705 7 4.69022 9.68026 3.75298 13.4332C3.65261 13.835 3.24547 14.0794 2.8436 13.9791C2.44173 13.8787 2.19731 13.4716 2.29767 13.0697C3.40076 8.65272 7.3846 5.5 12.0001 5.5Z" fill="#001A34" fill-opacity="0.5"/>
</svg>
