<svg width="56" height="56" viewBox="0 0 56 56" fill="none" xmlns="http://www.w3.org/2000/svg">
<path d="M28 56C43.464 56 56 43.464 56 28C56 12.536 43.464 0 28 0C12.536 0 0 12.536 0 28C0 43.464 12.536 56 28 56Z" fill="#005AFE"/>
<path d="M30.3924 31.8188C29.5943 32.3508 28.6673 32.632 27.7116 32.632C26.756 32.632 25.829 32.3508 25.031 31.8188L11.8868 23.0557C11.8142 23.0072 11.743 22.9567 11.6732 22.9043V37.2635C11.6732 38.9098 13.0092 40.2164 14.6261 40.2164H40.7971C42.4434 40.2164 43.75 38.8803 43.75 37.2635V22.9042C43.68 22.9568 43.6087 23.0074 43.536 23.056L30.3924 31.8188Z" fill="#005AFE"/>
<path d="M12.9294 21.4923L26.0735 30.2554C26.5711 30.5872 27.1413 30.753 27.7116 30.753C28.2819 30.753 28.8522 30.5871 29.3497 30.2554L42.4939 21.4923C43.2805 20.9683 43.75 20.0912 43.75 19.1445C43.75 17.5168 42.4258 16.1926 40.7981 16.1926H14.6251C12.9975 16.1927 11.6732 17.5169 11.6732 19.1461C11.6727 19.6104 11.7872 20.0677 12.0064 20.4771C12.2255 20.8865 12.5426 21.2353 12.9294 21.4923Z" fill="#005AFE"/>
<path d="M46.5552 38.3223V38.9725C46.304 39.5522 45.8267 39.7677 45.2276 39.7803C45.0827 39.7803 44.9378 39.786 44.7928 39.786C43.7068 39.786 42.6169 39.7348 41.5338 39.8005C40.4324 39.8682 39.6014 39.4527 38.8874 38.6653C38.0517 37.7474 37.2227 36.816 36.3115 35.9754C35.442 35.1782 34.4951 34.472 33.5511 33.7657C33.0996 33.4301 32.5404 33.2723 31.9801 33.3222C31.497 33.3589 31.2767 33.5309 31.2071 34.012C31.1612 34.3097 31.137 34.6104 31.1346 34.9116C31.1279 36.071 31.1414 37.2247 31.1346 38.3812C31.1288 39.0469 30.8757 39.3696 30.2399 39.5725C30.0685 39.6292 29.8922 39.6703 29.7134 39.6952C28.2855 39.8827 26.8351 39.7958 25.4399 39.4392C22.0707 38.5802 19.3306 36.7039 17.1247 34.0806C14.4487 30.9045 12.2809 27.3329 10.6986 23.493C10.1874 22.2553 9.86279 20.9403 9.45312 19.6611V19.0099C9.63284 18.4244 10.0725 18.2108 10.6406 18.207C11.8841 18.1973 13.1276 18.2021 14.3711 18.1954C15.5924 18.1886 16.146 18.0678 16.7866 19.8727C17.5711 22.0949 18.5199 24.2418 19.7615 26.2419C20.4514 27.354 21.2524 28.4004 22.0591 29.4303C22.3374 29.7859 22.7567 30.0632 23.1635 30.2796C23.6215 30.5221 23.9896 30.3009 24.1046 29.7965C24.1526 29.5854 24.1772 29.3696 24.178 29.153C24.1867 27.1163 24.2002 25.0795 24.1867 23.0428C24.179 21.95 23.8495 20.9577 23.1239 20.1181C22.9878 19.9647 22.8643 19.8006 22.7548 19.6273C22.3741 19.005 22.7258 18.2949 23.4534 18.2089C23.5979 18.1965 23.7431 18.1923 23.8881 18.1963H28.1259C28.8022 18.1963 29.4786 18.1886 30.1549 18.207C30.6757 18.2214 30.9627 18.4591 31.0641 18.9674C31.1158 19.2637 31.1391 19.5642 31.1337 19.865C31.1337 22.3355 31.1337 24.8061 31.1395 27.2776C31.1347 27.5422 31.1603 27.8064 31.2158 28.0651C31.3453 28.6033 31.724 28.8062 32.2255 28.5733C32.5581 28.4316 32.8595 28.2257 33.1124 27.9675C33.8767 27.1182 34.6535 26.2709 35.3221 25.3481C36.6748 23.4892 37.726 21.4563 38.6517 19.3577C38.9695 18.6379 39.4845 18.2099 40.2874 18.2031C41.7483 18.1925 43.2092 18.1847 44.6701 18.2031C45.6228 18.2166 46.0228 18.7316 45.704 19.6244C45.3851 20.5171 45.0276 21.4128 44.532 22.2128C43.1928 24.3723 41.785 26.4892 40.3773 28.6052C39.6739 29.668 39.6778 30.0042 40.5705 30.9192L40.699 31.0468C41.4971 31.87 42.3174 32.671 43.0875 33.5193C44.4208 34.9927 45.8122 36.4256 46.5552 38.3223Z" fill="white"/>
</svg>
