<svg width="24" height="24" viewBox="0 0 24 24" fill="none" xmlns="http://www.w3.org/2000/svg">
<path d="M17.7702 13.358C18.3012 13.931 18.8612 14.469 19.3372 15.099C19.5472 15.379 19.7472 15.668 19.8992 15.993C20.1152 16.455 19.9192 16.963 19.5442 16.991L17.2142 16.989C16.6122 17.045 16.1332 16.777 15.7292 16.323C15.4072 15.96 15.1082 15.573 14.7972 15.199C14.6754 15.0442 14.5343 14.9058 14.3772 14.787C14.0602 14.559 13.7842 14.628 13.6022 14.995C13.4162 15.368 13.3742 15.781 13.3562 16.196C13.3312 16.802 13.1662 16.962 12.6142 16.989C11.4362 17.051 10.3182 16.854 9.2792 16.197C8.3632 15.619 7.6532 14.802 7.0342 13.877C5.8312 12.076 4.9102 10.097 4.0812 8.062C3.8942 7.604 4.0302 7.358 4.4892 7.35C5.24944 7.33383 6.00993 7.33317 6.7702 7.348C7.0792 7.353 7.2832 7.548 7.4032 7.871C7.8142 8.988 8.3172 10.051 8.9492 11.037C9.1182 11.299 9.2892 11.561 9.5342 11.746C9.8042 11.95 10.0102 11.882 10.1372 11.55C10.2172 11.339 10.2532 11.112 10.2712 10.886C10.3312 10.109 10.3392 9.333 10.2342 8.559C10.1692 8.076 9.9222 7.763 9.4862 7.672C9.2632 7.625 9.2962 7.533 9.4042 7.393C9.5922 7.151 9.7682 7 10.1202 7H12.7542C13.1692 7.09 13.2612 7.296 13.3182 7.757L13.3202 10.989C13.3152 11.167 13.4002 11.697 13.6922 11.815C13.9242 11.899 14.0782 11.693 14.2182 11.53C14.8482 10.79 15.2982 9.917 15.7012 9.012C15.8792 8.614 16.0332 8.202 16.1812 7.788C16.2912 7.482 16.4642 7.331 16.7772 7.338L19.3122 7.341C19.3872 7.341 19.4632 7.341 19.5362 7.355C19.9642 7.435 20.0812 7.639 19.9492 8.1C19.7412 8.823 19.3362 9.425 18.9412 10.03C18.5182 10.676 18.0662 11.3 17.6462 11.95C17.2612 12.544 17.2922 12.843 17.7702 13.358Z" fill="#001A34" fill-opacity="0.5"/>
</svg>
