<svg width="32" height="32" viewBox="0 0 32 32" fill="none" xmlns="http://www.w3.org/2000/svg">
<g clip-path="url(#clip0_68584_13746)">
<path d="M30.545 16.1342V11.6367C30.545 10.1116 29.3621 8.87133 27.8675 8.75106L23.6907 1.45572C23.3037 0.781005 22.6787 0.298763 21.9308 0.0985167C21.1865 -0.100366 20.4081 0.00408642 19.7419 0.39183L5.42378 8.7276H2.90907C1.30471 8.7276 0 10.0322 0 11.6367V29.0909C0 30.6953 1.30464 32 2.90907 32H27.636C29.2403 32 30.545 30.6954 30.545 29.0909V24.5934C31.3897 24.2922 31.9995 23.4925 31.9995 22.5456V18.182C31.9995 17.2351 31.3897 16.4354 30.545 16.1342ZM26.1774 8.7276H19.8385L24.5927 5.95974L26.1774 8.7276ZM23.8701 4.69751L16.9477 8.7276H14.0765L23.1521 3.4436L23.8701 4.69751ZM20.4741 1.64888C20.803 1.4564 21.1872 1.40527 21.5544 1.50331C21.9258 1.60272 22.2355 1.84278 22.428 2.17871L22.4295 2.18137L11.1858 8.7276H8.31464L20.4741 1.64888ZM29.0905 29.0909C29.0905 29.8927 28.4378 30.5454 27.636 30.5454H2.90907C2.10726 30.5454 1.45457 29.8927 1.45457 29.0909V11.6367C1.45457 10.8349 2.10726 10.1822 2.90907 10.1822H27.636C28.4378 10.1822 29.0905 10.8349 29.0905 11.6367V16.0002H24.7269C22.3207 16.0002 20.3633 17.9576 20.3633 20.3638C20.3633 22.77 22.3207 24.7274 24.7269 24.7274H29.0905V29.0909ZM30.545 22.5456C30.545 22.9468 30.2191 23.2729 29.8177 23.2729H24.7269C23.1225 23.2729 21.8178 21.9682 21.8178 20.3638C21.8178 18.7594 23.1225 17.4547 24.7269 17.4547H29.8177C30.219 17.4547 30.545 17.7807 30.545 18.182V22.5456Z" fill="#005AFE"/>
<path d="M24.726 18.9092C23.9242 18.9092 23.2715 19.5619 23.2715 20.3637C23.2715 21.1655 23.9242 21.8182 24.726 21.8182C25.5278 21.8182 26.1805 21.1655 26.1805 20.3637C26.1805 19.5619 25.5279 18.9092 24.726 18.9092Z" fill="#005AFE"/>
</g>
<defs>
<clipPath id="clip0_68584_13746">
<rect width="32" height="32" fill="white"/>
</clipPath>
</defs>
</svg>
