<svg width="40" height="36" viewBox="0 0 40 36" fill="none" xmlns="http://www.w3.org/2000/svg">
<g id="Group 1000000891">
<path id="Vector" d="M39.6408 26.0584C39.3662 26.752 38.8611 27.0194 38.1152 27.0082C36.1603 26.9784 34.2045 27.0163 32.2486 26.9928C29.4444 26.959 27.3041 24.7183 27.3707 21.9212C27.4311 19.3363 29.5878 17.2236 32.2506 17.1847C34.269 17.156 36.2894 17.1847 38.3078 17.1755C38.9717 17.1755 39.3611 17.5361 39.6397 18.0802L39.6408 26.0584ZM30.6503 22.078C30.6487 22.3996 30.7424 22.7145 30.9196 22.9828C31.0969 23.2512 31.3497 23.461 31.6461 23.5857C31.9426 23.7105 32.2693 23.7446 32.5851 23.6837C32.9009 23.6229 33.1916 23.4698 33.4204 23.2438C33.6493 23.0178 33.806 22.7291 33.8708 22.4141C33.9357 22.0991 33.9057 21.7719 33.7847 21.4739C33.6637 21.176 33.457 20.9205 33.1909 20.7399C32.9248 20.5593 32.6112 20.4616 32.2896 20.4592C31.8577 20.457 31.4425 20.6262 31.1352 20.9297C30.8279 21.2331 30.6535 21.6461 30.6503 22.078Z" fill="#005AFE"/>
<path id="Vector_2" d="M36.3623 14.7236C35.0488 14.7236 33.7865 14.701 32.5243 14.7328C31.8737 14.7387 31.2252 14.8073 30.5879 14.9377C27.1546 15.702 24.7735 18.8853 24.921 22.4661C25.0614 25.9015 27.7488 28.8737 31.1708 29.3614C31.6394 29.421 32.1114 29.4494 32.5837 29.4465C33.8214 29.4577 35.06 29.4465 36.3223 29.4465C36.341 29.5512 36.3537 29.6569 36.3602 29.763C36.3602 30.7343 36.3725 31.7097 36.3602 32.6779C36.3325 34.5621 34.9883 35.9288 33.1042 36.0026C33.0406 36.0026 32.9771 36.0026 32.9126 36.0026C23.7346 36.0026 14.5566 36.0026 5.37861 36.0026C2.97909 36.0026 1.00887 34.4391 0.492491 32.141C0.408756 31.7412 0.368904 31.3334 0.373642 30.9249C0.367495 22.7561 0.338807 14.5863 0.385937 6.41746C0.389892 5.19201 0.864904 4.01499 1.71264 3.13006C2.56038 2.24513 3.71594 1.72005 4.9401 1.66352C7.11113 1.5918 9.28627 1.63893 11.4583 1.63585H16.0832L16.1057 1.71167C15.8188 1.88789 15.533 2.06617 15.2441 2.23932C13.863 3.07433 12.4901 3.90627 11.0987 4.7208C10.9021 4.83166 10.681 4.89187 10.4553 4.89599C8.75555 4.91034 7.05478 4.896 5.35504 4.90727C4.13479 4.91751 3.33154 6.02301 3.74751 7.10904C3.99955 7.76681 4.50056 8.12028 5.20238 8.1797C5.34275 8.19097 5.48414 8.1797 5.6245 8.1797H32.9279C34.6635 8.1797 36.017 9.24012 36.3028 10.8681C36.3909 11.3661 36.3541 11.8876 36.3592 12.3978C36.3674 13.155 36.3623 13.908 36.3623 14.7236Z" fill="#005AFE"/>
<path id="Vector_3" d="M12.9961 6.47408C13.0985 6.40646 13.201 6.33474 13.3035 6.26917C16.6203 4.28084 19.9378 2.29047 23.256 0.298045C24.133 -0.227553 24.759 -0.0687481 25.2723 0.810322C26.3229 2.6074 27.372 4.4055 28.4198 6.20462C28.4761 6.30195 28.5222 6.40338 28.597 6.53862H13.0309L12.9961 6.47408Z" fill="#005AFE"/>
<path id="Vector_4" d="M31.401 6.445L28.6787 1.74945C30.4625 1.91133 31.8159 3.46558 31.401 6.445Z" fill="#005AFE"/>
<path id="Vector_5" d="M30.6497 22.0783C30.6556 21.7573 30.7563 21.4452 30.9392 21.1813C31.1221 20.9174 31.379 20.7135 31.6776 20.5953C31.9761 20.4771 32.3029 20.4499 32.6169 20.5171C32.9309 20.5843 33.2179 20.7428 33.442 20.9729C33.666 21.2029 33.817 21.494 33.8759 21.8096C33.9348 22.1253 33.899 22.4513 33.7729 22.7466C33.6469 23.0419 33.4364 23.2933 33.1678 23.4692C32.8991 23.6451 32.5845 23.7376 32.2634 23.735C32.0482 23.7337 31.8355 23.6896 31.6375 23.6054C31.4395 23.5211 31.2602 23.3984 31.11 23.2442C30.9599 23.0901 30.8419 22.9076 30.7629 22.7075C30.6839 22.5073 30.6454 22.2935 30.6497 22.0783Z" fill="white"/>
</g>
</svg>
