<svg width="64" height="64" viewBox="0 0 64 64" fill="none" xmlns="http://www.w3.org/2000/svg">
<path d="M32 64C49.6731 64 64 49.6731 64 32C64 14.3269 49.6731 0 32 0C14.3269 0 0 14.3269 0 32C0 49.6731 14.3269 64 32 64Z" fill="#005AFE"/>
<path d="M36 14H28C24.287 14 20.726 15.4751 18.1005 18.1007C15.475 20.7264 14 24.2875 14 28.0008V34.0011C13.9989 36.6516 14.7501 39.2479 16.1663 41.4883C17.5824 43.7286 19.6054 45.5209 22 46.6568V53.3422C22.0024 53.4726 22.0428 53.5995 22.1163 53.7073C22.1897 53.8151 22.293 53.8991 22.4136 53.949C22.5341 53.9989 22.6665 54.0126 22.7947 53.9883C22.9228 53.964 23.0411 53.9028 23.135 53.8122L28.945 48.0019H36C39.713 48.0019 43.274 46.5268 45.8995 43.9012C48.525 41.2755 50 37.7144 50 34.0011V28.0008C50 24.2875 48.525 20.7264 45.8995 18.1007C43.274 15.4751 39.713 14 36 14ZM41.24 40.2415L39.24 42.2416C37.11 44.3267 31.55 41.9466 26.65 36.9413C21.75 31.936 19.6 26.3207 21.65 24.2356L23.65 22.2355C24.042 21.8836 24.5516 21.6915 25.0783 21.697C25.605 21.7026 26.1105 21.9054 26.495 22.2655L29.415 25.2656C29.6469 25.505 29.8141 25.7993 29.901 26.1211C29.9878 26.4428 29.9914 26.7814 29.9114 27.1049C29.8314 27.4284 29.6704 27.7263 29.4437 27.9705C29.2169 28.2147 28.9317 28.3972 28.615 28.5008C28.1455 28.6449 27.7496 28.9642 27.5094 29.3925C27.2692 29.8208 27.2031 30.3252 27.325 30.8009C27.825 33.0211 30.645 35.8012 32.745 36.3463C33.2184 36.4591 33.7168 36.3954 34.1466 36.1671C34.5765 35.9388 34.9083 35.5616 35.08 35.1062C35.1909 34.7885 35.3817 34.5048 35.6341 34.2823C35.8864 34.0597 36.1917 33.9059 36.5207 33.8356C36.8497 33.7653 37.1913 33.7808 37.5126 33.8807C37.8338 33.9807 38.1239 34.1616 38.355 34.4062L41.27 37.4063C41.6201 37.7972 41.8112 38.305 41.8056 38.8297C41.8001 39.3545 41.5983 39.8581 41.24 40.2415ZM33.82 23.5005C33.6211 23.4996 33.4224 23.5113 33.225 23.5355C33.0493 23.5548 32.8731 23.5034 32.7353 23.3928C32.5975 23.2821 32.5092 23.1212 32.49 22.9455C32.4708 22.7698 32.5221 22.5936 32.6328 22.4558C32.7434 22.3179 32.9043 22.2297 33.08 22.2105C33.3256 22.1822 33.5728 22.1688 33.82 22.1705C35.5895 22.1691 37.287 22.8705 38.5396 24.1203C39.7922 25.3702 40.4973 27.0663 40.5 28.8358C40.5016 29.0831 40.4883 29.3302 40.46 29.5759C40.4505 29.6629 40.4239 29.7472 40.3818 29.8239C40.3397 29.9006 40.2829 29.9683 40.2147 30.0231C40.1464 30.0779 40.0681 30.1187 39.984 30.1432C39.9 30.1677 39.812 30.1754 39.725 30.1659C39.638 30.1564 39.5537 30.1298 39.477 30.0877C39.4003 30.0456 39.3326 29.9888 39.2778 29.9206C39.223 29.8523 39.1822 29.774 39.1577 29.6899C39.1332 29.6059 39.1255 29.5179 39.135 29.4309C39.1568 29.2332 39.1684 29.0346 39.17 28.8358C39.1673 27.419 38.6024 26.0613 37.5992 25.0608C36.596 24.0604 35.2367 23.4992 33.82 23.5005ZM37.82 28.8358C37.8055 29.0029 37.7289 29.1585 37.6054 29.2718C37.4818 29.3852 37.3202 29.448 37.1525 29.448C36.9848 29.448 36.8232 29.3852 36.6996 29.2718C36.5761 29.1585 36.4995 29.0029 36.485 28.8358C36.485 28.129 36.2042 27.4511 35.7044 26.9513C35.2047 26.4515 34.5268 26.1707 33.82 26.1707C33.7275 26.1787 33.6343 26.1674 33.5464 26.1375C33.4585 26.1076 33.3778 26.0597 33.3093 25.997C33.2409 25.9342 33.1862 25.8579 33.1489 25.7729C33.1115 25.6879 33.0922 25.596 33.0922 25.5032C33.0922 25.4103 33.1115 25.3184 33.1489 25.2334C33.1862 25.1484 33.2409 25.0721 33.3093 25.0093C33.3778 24.9466 33.4585 24.8987 33.5464 24.8688C33.6343 24.8389 33.7275 24.8276 33.82 24.8356C34.8809 24.8356 35.8983 25.2571 36.6484 26.0072C37.3986 26.7574 37.82 27.7749 37.82 28.8358ZM42.905 31.001C42.8902 31.0919 42.8568 31.1787 42.807 31.2562C42.7571 31.3336 42.6918 31.3999 42.6152 31.451C42.5385 31.502 42.4522 31.5368 42.3615 31.5529C42.2709 31.5691 42.1779 31.5665 42.0883 31.5451C41.9987 31.5238 41.9145 31.4842 41.8409 31.4288C41.7673 31.3734 41.7059 31.3035 41.6606 31.2233C41.6152 31.1432 41.5869 31.0545 41.5773 30.9629C41.5678 30.8713 41.5772 30.7787 41.605 30.6909C41.7494 30.0866 41.8216 29.4672 41.82 28.8458C41.82 26.724 40.9771 24.689 39.4769 23.1887C37.9766 21.6883 35.9417 20.8454 33.82 20.8454H33.2C33.1127 20.852 33.0249 20.8413 32.9417 20.8139C32.8585 20.7865 32.7815 20.7431 32.7151 20.686C32.581 20.5706 32.4983 20.4067 32.485 20.2304C32.4717 20.054 32.5291 19.8795 32.6444 19.7455C32.7598 19.6114 32.9236 19.5286 33.1 19.5153C33.34 19.4953 33.58 19.4853 33.82 19.4853C36.2972 19.4893 38.6715 20.4762 40.4218 22.2293C42.172 23.9824 43.155 26.3585 43.155 28.8358C43.1553 29.5648 43.0714 30.2913 42.905 31.001Z" fill="white"/>
</svg>
