<svg width="56" height="56" viewBox="0 0 56 56" fill="none" xmlns="http://www.w3.org/2000/svg">
<path d="M28 56C43.464 56 56 43.464 56 28C56 12.536 43.464 0 28 0C12.536 0 0 12.536 0 28C0 43.464 12.536 56 28 56Z" fill="#005AFE"/>
<path d="M11.8169 26.5624C20.2817 22.7222 25.9118 20.1969 28.7466 18.9865C36.7586 15.5011 38.4319 14.875 39.5343 14.875C39.7705 14.875 40.3217 14.9376 40.6564 15.2298C40.8797 15.4388 41.0204 15.7295 41.0501 16.0437C41.1092 16.2733 41.1485 16.8159 41.1092 17.2333C40.6761 21.9918 38.7862 33.554 37.8216 38.8968C37.4279 41.1716 36.6208 41.923 35.8531 41.9856C34.1601 42.1525 32.9002 40.8377 31.2466 39.7316C28.6875 37.9785 27.2505 36.8932 24.7701 35.2027C21.9156 33.2409 23.7858 32.1765 25.4 30.4025C25.8331 29.9434 33.2546 22.931 33.3924 22.284C33.4121 22.2214 33.4317 21.9083 33.2546 21.7622C33.0971 21.5952 32.8412 21.6579 32.664 21.6996C32.4081 21.7622 28.3332 24.5588 20.4195 30.1103C19.2778 30.9452 18.2147 31.3208 17.2698 31.3C16.2462 31.3 14.2579 30.6947 12.7815 30.1938C10.9507 29.5677 9.51368 29.2547 9.63179 28.2111C9.71054 27.6685 10.4192 27.1259 11.7972 26.5415L11.8169 26.5624Z" fill="#005AFE"/>
<path d="M11.9688 44.1003C12.2285 43.1476 12.4749 42.2433 12.7219 41.339C13.2339 39.4655 13.7523 37.5936 14.2499 35.7159C14.2984 35.5184 14.2765 35.3103 14.1882 35.1272C9.61464 26.7976 12.8203 16.3199 21.2718 12.006C30.6127 7.23608 41.967 12.0327 45.0445 22.0479C47.7589 30.889 42.7659 40.357 33.9158 43.0715C29.5211 44.4143 25.2567 43.9938 21.1499 41.9261C20.9752 41.8454 20.7786 41.8252 20.5911 41.8686C17.8426 42.5754 15.0983 43.2977 12.3525 44.0157C12.2429 44.0471 12.1321 44.0641 11.9688 44.1003ZM16.0053 40.1212C17.6936 39.6784 19.3116 39.2606 20.9253 38.8242C21.1994 38.7502 21.4086 38.7874 21.6503 38.9306C24.7655 40.7988 28.1229 41.4146 31.6798 40.7067C39.2233 39.2074 44.1104 31.9119 42.6893 24.3413C41.2772 16.8202 33.9009 11.7974 26.3665 13.2302C16.9458 15.0191 12.0385 25.525 16.7765 33.8498C17.2672 34.7121 17.3673 35.421 17.0613 36.3295C16.6498 37.5484 16.3624 38.8125 16.0053 40.1202V40.1212Z" fill="#F8F8F8"/>
<path d="M23.49 19.2368C24.2186 19.0563 24.5683 19.4853 24.8206 20.1315C25.2022 21.1193 25.619 22.0938 26.0379 23.0668C26.1837 23.4053 26.1709 23.7055 25.9516 23.995C25.619 24.4378 25.3002 24.8918 24.9484 25.3182C24.7104 25.6066 24.6892 25.8637 24.8797 26.1841C26.2534 28.4914 28.1706 30.1605 30.671 31.1569C31.0149 31.2937 31.2863 31.2314 31.5168 30.944C31.9293 30.4288 32.3508 29.921 32.7596 29.4005C33.0597 29.0194 33.2327 28.9246 33.6644 29.1216C34.8523 29.6641 36.0298 30.2293 37.1969 30.8173C37.3411 30.8897 37.4704 31.1558 37.4678 31.3298C37.4412 33.1235 36.9132 33.9831 35.0024 34.7868C33.9182 35.2424 32.7925 35.1354 31.6743 34.824C27.6149 33.6951 24.6258 31.1446 22.2344 27.783C21.4893 26.7387 20.8219 25.662 20.5371 24.3958C20.1273 22.5734 20.5744 20.9932 21.9156 19.6753C22.3499 19.2485 22.8747 19.1527 23.49 19.2368Z" fill="#F8F8F8"/>
</svg>
