<svg width="24" height="24" viewBox="0 0 24 24" fill="none" xmlns="http://www.w3.org/2000/svg">
<path d="M19.376 7.03C18.8 6.298 17.732 6 15.696 6H8.304C6.22 6 5.136 6.318 4.56 7.097C4 7.857 4 8.975 4 10.524V13.476C4 16.476 4.666 18 8.304 18H15.696C17.462 18 18.441 17.737 19.074 17.09C19.723 16.429 20 15.348 20 13.476V10.524C20 8.891 19.957 7.765 19.376 7.03ZM14.272 12.408L10.915 14.278C10.837 14.3214 10.7487 14.3426 10.6595 14.3394C10.5703 14.3362 10.4837 14.3088 10.409 14.26C10.3317 14.2085 10.2685 14.1386 10.225 14.0565C10.1815 13.9745 10.1592 13.8829 10.16 13.79V10.062C10.16 9.87 10.254 9.692 10.408 9.592C10.4827 9.54311 10.5693 9.51558 10.6585 9.51241C10.7477 9.50924 10.836 9.53054 10.914 9.574L14.271 11.432C14.441 11.526 14.549 11.714 14.549 11.919C14.5504 12.0178 14.5255 12.1151 14.4768 12.2011C14.4281 12.287 14.3574 12.3584 14.272 12.408Z" fill="#001A34" fill-opacity="0.5"/>
</svg>
