<svg width="15" height="13" viewBox="0 0 15 13" fill="none" xmlns="http://www.w3.org/2000/svg">
<path d="M11.2401 0.555063C11.2401 0.676938 11.1932 0.800082 11.0994 0.902914L6.10579 6.28319C5.98421 6.41395 5.8011 6.49012 5.60628 6.49012C5.41292 6.49012 5.22835 6.41395 5.10823 6.28319L0.140945 0.925766C-0.0802461 0.687094 -0.0363008 0.337973 0.23909 0.146274C0.514481 -0.0454255 0.917313 -0.00733956 1.1385 0.231332L5.60774 5.05047L10.1019 0.207211C10.3231 -0.0314607 10.7259 -0.0695466 11.0013 0.122153C11.158 0.232602 11.2401 0.392563 11.2401 0.555063Z" transform="translate(1.88037 9.74519) scale(1 -1)" fill="black" fill-opacity="0.25"/>
<mask id="mask0" mask-type="alpha" maskUnits="userSpaceOnUse" x="1" y="3" width="13" height="7">
<path d="M11.2401 0.555063C11.2401 0.676938 11.1932 0.800082 11.0994 0.902914L6.10579 6.28319C5.98421 6.41395 5.8011 6.49012 5.60628 6.49012C5.41292 6.49012 5.22835 6.41395 5.10823 6.28319L0.140945 0.925766C-0.0802461 0.687094 -0.0363008 0.337973 0.23909 0.146274C0.514481 -0.0454255 0.917313 -0.00733956 1.1385 0.231332L5.60774 5.05047L10.1019 0.207211C10.3231 -0.0314607 10.7259 -0.0695466 11.0013 0.122153C11.158 0.232602 11.2401 0.392563 11.2401 0.555063Z" transform="translate(1.88037 9.74519) scale(1 -1)" fill="white"/>
</mask>
<g mask="url(#mask0)">
</g>
</svg>
