<svg width="22" height="22" viewBox="0 0 22 22" fill="none" xmlns="http://www.w3.org/2000/svg">
<path fill-rule="evenodd" clip-rule="evenodd" d="M10 20C15.5228 20 20 15.5228 20 10C20 4.47715 15.5228 0 10 0C4.47715 0 0 4.47715 0 10C0 15.5228 4.47715 20 10 20Z" transform="translate(1 1)" stroke="#7F8285" stroke-width="2"/>
<path fill-rule="evenodd" clip-rule="evenodd" d="M0 0.909091C0 0.407014 0.407014 0 0.909091 0H18.3756C18.8777 0 19.2847 0.407014 19.2847 0.909091C19.2847 1.41117 18.8777 1.81818 18.3756 1.81818H0.909091C0.407014 1.81818 0 1.41117 0 0.909091Z" transform="translate(4.77637 18.4122) scale(1 -1) rotate(45)" fill="#7F8285"/>
</svg>
