<svg width="24" height="24" viewBox="0 0 24 24" fill="none" xmlns="http://www.w3.org/2000/svg">
<path fill-rule="evenodd" clip-rule="evenodd" d="M16.207 5.79325C16.598 6.18425 16.598 6.81625 16.207 7.20725L12.207 11.2073C12.012 11.4023 11.756 11.5002 11.5 11.5002C11.244 11.5002 10.988 11.4023 10.793 11.2073C10.402 10.8163 10.402 10.1843 10.793 9.79325L14.793 5.79325C15.184 5.40225 15.816 5.40225 16.207 5.79325V5.79325ZM19.975 10.238L10.742 19.36L4.934 13.966L14.313 4.586C15.07 3.83 16.387 3.831 17.143 4.586L19.971 7.414C20.349 7.792 20.557 8.294 20.557 8.829C20.557 9.363 20.349 9.865 19.975 10.238V10.238ZM4 15.8281L9.03 20.4991H4V15.8281ZM21.385 6L18.557 3.172C17.801 2.416 16.797 2 15.728 2C14.659 2 13.655 2.416 12.899 3.172L2.293 13.778C2.105 13.966 2 14.22 2 14.485V21.5C2 22.052 2.447 22.5 3 22.5H10C10.263 22.5 10.516 22.397 10.703 22.211L21.385 11.657C22.141 10.901 22.557 9.897 22.557 8.829C22.557 7.76 22.141 6.755 21.385 6V6Z" fill="#1F2229"/>
</svg>
