<svg width="24" height="25" viewBox="0 0 24 25" fill="none" xmlns="http://www.w3.org/2000/svg">
<path fill-rule="evenodd" clip-rule="evenodd" d="M8.95489 21.4048H19.8722V6.7381H8.95489V21.4048ZM8.95489 4.64286C7.86316 4.64286 6.96992 5.58571 6.96992 6.7381V21.4048C6.96992 22.5571 7.86316 23.5 8.95489 23.5H19.8722C20.9639 23.5 21.8571 22.5571 21.8571 21.4048V6.7381C21.8571 5.58571 20.9639 4.64286 19.8722 4.64286H8.95489ZM16.8947 2.48214C16.8947 1.93972 16.455 1.5 15.9126 1.5H4.98496C3.89323 1.5 3 2.38393 3 3.46429V16.2218C3 16.7699 3.44435 17.2143 3.99248 17.2143V17.2143C4.54061 17.2143 4.98496 16.7699 4.98496 16.2218V3.46429H15.9126C16.455 3.46429 16.8947 3.02457 16.8947 2.48214V2.48214Z" fill="#1F2229"/>
</svg>
