<svg width="24" height="24" viewBox="0 0 24 24" fill="none" xmlns="http://www.w3.org/2000/svg">
<path fill-rule="evenodd" clip-rule="evenodd" d="M5 20V3H12V8C12 8.552 12.447 9 13 9H18L18.002 20H5ZM14 4.414L16.586 7H14V4.414ZM19.707 7.293L13.707 1.293C13.52 1.105 13.266 1 13 1H5C3.896 1 3 1.897 3 3V20C3 21.103 3.896 22 5 22H18C19.104 22 20 21.103 20 20V8C20 7.735 19.895 7.48 19.707 7.293V7.293Z" fill="#1F2229"/>
<path d="M9 12.6424H15" stroke="#1F2229" stroke-width="2" stroke-linecap="round"/>
<path d="M9 16.6424H12" stroke="#1F2229" stroke-width="2" stroke-linecap="round"/>
</svg>
