<svg width="24" height="20" viewBox="0 0 24 20" fill="none" xmlns="http://www.w3.org/2000/svg">
<path d="M22.6691 7V13.9386C22.6691 14.5251 22.4321 15.0873 22.0099 15.5014L19.2672 18.2214C18.8457 18.6362 18.2735 18.8691 17.6765 18.8691H6.83813C6.06356 18.8691 5.38371 18.47 5 17.8698M1 3.13095C1 1.95421 1.97125 1 3.169 1H16.831C18.0288 1 19 1.95421 19 3.13095V10.0695C19 10.656 18.763 11.2182 18.3407 11.6323L15.5981 14.3523C15.1766 14.7672 14.6044 15 14.0074 15H3.169C1.97125 15 1 14.0458 1 12.8691V3.13095Z" stroke="#1F2229" stroke-width="2" stroke-linecap="round"/>
</svg>
