<svg width="24" height="24" viewBox="0 0 24 24" fill="none" xmlns="http://www.w3.org/2000/svg">
<path fill-rule="evenodd" clip-rule="evenodd" d="M11 22C17.0751 22 22 17.0751 22 11C22 4.92487 17.0751 0 11 0C4.92487 0 0 4.92487 0 11C0 17.0751 4.92487 22 11 22Z" transform="translate(1 1)" stroke="#F5222D" stroke-width="2"/>
<path d="M1.105 2.991C1.43433 2.913 1.78967 2.861 2.171 2.835C2.55233 2.809 2.92933 2.796 3.302 2.796C3.70067 2.796 4.10367 2.835 4.511 2.913C4.927 2.991 5.304 3.134 5.642 3.342C5.98 3.55 6.253 3.836 6.461 4.2C6.67767 4.564 6.786 5.02767 6.786 5.591C6.786 6.14567 6.68633 6.61367 6.487 6.995C6.28767 7.37633 6.02333 7.68833 5.694 7.931C5.36467 8.165 4.98767 8.334 4.563 8.438C4.13833 8.542 3.70067 8.594 3.25 8.594C3.20667 8.594 3.133 8.594 3.029 8.594C2.93367 8.594 2.82967 8.594 2.717 8.594C2.613 8.58533 2.509 8.57667 2.405 8.568C2.301 8.55933 2.22733 8.55067 2.184 8.542V12H1.105V2.991ZM3.328 3.732C3.10267 3.732 2.886 3.73633 2.678 3.745C2.47 3.75367 2.30533 3.77533 2.184 3.81V7.58C2.22733 7.59733 2.29667 7.61033 2.392 7.619C2.48733 7.619 2.587 7.62333 2.691 7.632C2.795 7.632 2.89467 7.632 2.99 7.632C3.08533 7.632 3.15467 7.632 3.198 7.632C3.49267 7.632 3.783 7.606 4.069 7.554C4.36367 7.49333 4.628 7.38933 4.862 7.242C5.096 7.09467 5.28233 6.88667 5.421 6.618C5.56833 6.34933 5.642 6.007 5.642 5.591C5.642 5.23567 5.57267 4.941 5.434 4.707C5.304 4.46433 5.12633 4.27367 4.901 4.135C4.68433 3.98767 4.43733 3.88367 4.16 3.823C3.88267 3.76233 3.60533 3.732 3.328 3.732Z" transform="translate(9 4.19995)" fill="#F5222D"/>
<path d="M0.5 1.5H5.59902" transform="translate(9 13)" stroke="#F5222D" stroke-linecap="square"/>
</svg>
