<svg xmlns="http://www.w3.org/2000/svg" width="28" height="28" fill="#71717a"><path d="M6.986 11.43H5.25a.82.82 0 0 0-.82.823l.012 6.231a.821.821 0 0 0 1.641 0v-1.892l.903-.003c1.441 0 2.614-1.157 2.614-2.58S8.427 11.43 6.986 11.43zm0 3.518l-.908.003-.003-.942-.002-.939h.913c.528 0 .973.43.973.939s-.446.939-.973.939zm6.977-3.518H12.25a.82.82 0 0 0-.82.822l.012 6.051a.82.82 0 0 0 .82.817h.003l1.762-.013c1.854-.032 3.199-1.644 3.199-3.832 0-2.3-1.311-3.845-3.263-3.845zm.036 6.036l-.919.009-.008-4.405h.892c1.506 0 1.623 1.687 1.623 2.205 0 1.077-.491 2.172-1.587 2.191zm8.634-4.459a.821.821 0 1 0 0-1.641h-2.508a.82.82 0 0 0-.82.82v6.188a.82.82 0 1 0 1.641 0v-2.332h1.489a.821.821 0 1 0 0-1.641h-1.489v-1.395h1.688zm2.414-5.077h-.602v-.234c0-1.054-.399-2.057-1.125-2.822L19.913 1.28A4.12 4.12 0 0 0 16.936 0H6.016C4.659 0 3.555 1.104 3.555 2.461V7.93h-.602C1.596 7.93.492 9.034.492 10.391v9.844c0 1.357 1.104 2.461 2.461 2.461h.602v2.844c0 1.356 1.104 2.46 2.461 2.46h15.969c1.357 0 2.461-1.104 2.461-2.461v-2.844h.602c1.357 0 2.461-1.104 2.461-2.461V10.39c0-1.357-1.104-2.461-2.461-2.461zM5.195 2.461a.82.82 0 0 1 .82-.82h10.921a2.47 2.47 0 0 1 1.786.768l3.407 3.594a2.45 2.45 0 0 1 .675 1.693v.234H5.195V2.461zm17.609 23.078a.82.82 0 0 1-.82.82H6.016a.82.82 0 0 1-.82-.82v-2.844h17.609v2.844zm3.063-5.305a.82.82 0 0 1-.82.82H2.953a.82.82 0 0 1-.82-.82V10.39a.82.82 0 0 1 .82-.82h22.094a.82.82 0 0 1 .82.82v9.844z"/></svg>