<svg width="22" height="22" viewBox="0 0 22 22" fill="none" xmlns="http://www.w3.org/2000/svg">
<path d="M12 6.99997C12 6.44768 11.5523 5.99997 11 5.99997C10.4477 5.99997 10 6.44768 10 6.99997H12ZM10 15C10 15.5522 10.4477 16 11 16C11.5523 16 12 15.5522 12 15H10ZM7 9.99997C6.44772 9.99997 6 10.4477 6 11C6 11.5523 6.44772 12 7 12V9.99997ZM15 12C15.5523 12 16 11.5523 16 11C16 10.4477 15.5523 9.99997 15 9.99997V12ZM18.7782 18.7782C23.0739 14.4824 23.0739 7.5176 18.7782 3.22183L17.364 4.63604C20.8787 8.15076 20.8787 13.8492 17.364 17.364L18.7782 18.7782ZM18.7782 3.22183C14.4824 -1.07394 7.5176 -1.07394 3.22183 3.22183L4.63604 4.63604C8.15076 1.12132 13.8492 1.12132 17.364 4.63604L18.7782 3.22183ZM3.22183 3.22183C-1.07394 7.5176 -1.07394 14.4824 3.22183 18.7782L4.63604 17.364C1.12132 13.8492 1.12132 8.15076 4.63604 4.63604L3.22183 3.22183ZM3.22183 18.7782C7.5176 23.0739 14.4824 23.0739 18.7782 18.7782L17.364 17.364C13.8492 20.8787 8.15076 20.8787 4.63604 17.364L3.22183 18.7782ZM10 6.99997V15H12V6.99997H10ZM7 12H15V9.99997H7V12Z" fill="#22C55E"/>
</svg>
