<svg xmlns="http://www.w3.org/2000/svg" width="24" height="24" fill="#60a5fa"  xmlns:v="https://vecta.io/nano"><path d="M12 18.5a1.25 1.25 0 1 0 0-2.5 1.25 1.25 0 1 0 0 2.5zM13 6a1 1 0 1 0-2 0v8a1 1 0 1 0 2 0V6z"/><path fill-rule="evenodd" d="M4.222 4.222A10.97 10.97 0 0 1 12 1a10.97 10.97 0 0 1 7.778 3.222A10.97 10.97 0 0 1 23 12a10.97 10.97 0 0 1-3.222 7.778A10.97 10.97 0 0 1 12 23a10.97 10.97 0 0 1-7.778-3.222A10.97 10.97 0 0 1 1 12a10.97 10.97 0 0 1 3.222-7.778zM12 3a8.97 8.97 0 0 0-6.364 2.636A8.97 8.97 0 0 0 3 12a8.97 8.97 0 0 0 2.636 6.364A8.97 8.97 0 0 0 12 21a8.97 8.97 0 0 0 6.364-2.636A8.97 8.97 0 0 0 21 12a8.97 8.97 0 0 0-2.636-6.364A8.97 8.97 0 0 0 12 3z"/></svg>