<svg xmlns="http://www.w3.org/2000/svg" width="17" height="16" fill="none"  xmlns:v="https://vecta.io/nano"><path fill-rule="evenodd" d="M10.208 15.525a.8.8 0 0 1-.73.475 2.96 2.96 0 0 1-2.957-2.96v-2.08H3.008c-.655.006-1.279-.275-1.709-.77a2.24 2.24 0 0 1-.524-1.806l.993-6.48A2.24 2.24 0 0 1 4.001 0h10.268a2.46 2.46 0 0 1 2.474 2.133.8.8 0 0 1 .007.107v5.04a.8.8 0 0 1-.007.107c-.16 1.182-1.178 2.231-2.474 2.213h-1.43l-2.631 5.925zm1.348-6.975l-2.558 5.762a1.36 1.36 0 0 1-.878-1.273v-2.88a.8.8 0 0 0-.799-.8H3.004h-.009a.64.64 0 0 1-.639-.736l.992-6.479v-.001a.64.64 0 0 1 .639-.544h7.568v6.95zm1.598-6.95h1.121.014c.422-.007.785.292.863.703v4.916c-.085.463-.489.788-.863.782h-.014-1.121V1.6z" fill="#ef4444"/></svg>