<svg xmlns="http://www.w3.org/2000/svg" width="17" height="16" fill="none"  xmlns:v="https://vecta.io/nano"><path fill-rule="evenodd" d="M6.792.475A.8.8 0 0 1 7.523 0a2.96 2.96 0 0 1 2.957 2.96v2.08h3.512c.655-.006 1.279.275 1.709.77a2.24 2.24 0 0 1 .524 1.806l-.992 6.48A2.24 2.24 0 0 1 12.999 16H2.731a2.46 2.46 0 0 1-2.474-2.133.8.8 0 0 1-.007-.107V8.72a.8.8 0 0 1 .007-.107C.417 7.43 1.435 6.381 2.731 6.4h1.43L6.792.475zM5.445 7.45l2.558-5.762a1.36 1.36 0 0 1 .878 1.272v2.88a.8.8 0 0 0 .799.8h4.316.009a.64.64 0 0 1 .639.736l-.992 6.479v.001a.64.64 0 0 1-.639.544H5.445V7.45zM3.846 14.4H2.725h-.014c-.422.007-.785-.292-.863-.703V8.782c.085-.463.489-.788.863-.782h.014 1.121v6.4z" fill="#16a34a"/></svg>