<svg xmlns="http://www.w3.org/2000/svg" width="113" height="24" fill="#22c55e"  fill-rule="evenodd"><path d="M13.08 13.11v3.147c0 4.445 3.497 7.334 8.109 7.334h2.938c4.612 0 7.938-2.889 7.938-7.334V13.11c0-4.445-3.411-7.417-8.024-7.417h-2.938c-4.612 0-8.023 2.972-8.023 7.417zm7.467-3.801l2.741-.001c1.271.128 1.976.479 2.486.831.337.23 1.647 1.042 1.669 3.38l.005 4.309c0 1.144-1.256 1.972-2.852 1.972l-2.742.001c-1.27-.128-1.975-.479-2.485-.831-.337-.231-1.647-1.043-1.669-3.381l-.005-4.309c0-1.143 1.256-1.971 2.852-1.971zM55.909.595h4.04c.495 0 .941.395.941.888l.002 22.111-2.876.001c-1.166 0-2.106-.926-2.106-2.08V.595zm37.938 0h3.652c.491 0 .931.409.931.888v22.051l-4.633.039.05-22.977zM9.837.587c.517 0 .939.412.939.896v15.586c0 3.47-3.057 6.526-7.066 6.526-.673 0-3.71-.001-3.71-.001v-3.292c0-.631.365-1.124.958-1.124h3.784c.635 0 1.208-.414 1.208-1.282L5.945.595 9.837.587zm95.992 5.106h6.103l-8.099 8.673 8.674 9.229s-3.42-.016-4.011.001c-1.883 0-3.264-1.439-3.908-2.08l-4.449-5.299s-1.097-1.105-1.097-1.849c0-.922 1.059-2.077 1.059-2.077l5.728-6.597zm-41.318 0l3.851-.005c.481 0 .935.384.935.892v17.015l-2.649-.005c-1.206 0-2.126-.94-2.126-2.074l-.011-15.823zm-.985-2.972c0-1.26 1.42-2.281 3.172-2.281s3.173 1.021 3.173 2.281-1.42 2.281-3.173 2.281-3.172-1.021-3.172-2.281zm9.608 2.977h3.539c.506 0 .93.389.93.881l.001 2.248 1.255-2.358c.549-.501 1.383-.776 3.022-.776l3.7-.002c3.683 0 5.79 2.781 5.826 6.372l-.036 11.532H88.7c-1.298 0-2.137-.985-2.137-2.08l.007-9.652c0-1.491-.953-2.563-2.38-2.563h-4.664c-.796 0-1.288.436-1.288 1.183l-.001 13.111h-2.956c-1.238.001-2.138-1.014-2.148-2.079V5.698zM39.419 8.866l-.001-7.384c0-.493-.445-.888-.941-.888h-4.039v15.665c0 4.444 3.497 7.334 8.109 7.334h2.939c4.611 0 7.937-2.89 7.937-7.334v-3.148c0-4.444-3.411-7.416-8.023-7.416h-2.938c-.512 0-1.272.212-1.681.607-.409.473-.941 1.696-1.361 2.563zm2.903.245l2.426-.001c1.271.128 1.976.479 2.487.831.336.231 1.646 1.043 1.668 3.381l.005 4.485c0 1.144-1.256 1.972-2.852 1.972l-2.426.001c-1.271-.128-1.976-.479-2.487-.831-.336-.231-1.646-1.043-1.668-3.38l-.005-4.485c0-1.144 1.256-1.972 2.852-1.972z"/></svg>
