<svg xmlns="http://www.w3.org/2000/svg" width="124" height="124" fill="none"  xmlns:v="https://vecta.io/nano"><rect x="2" y="2" width="120" height="120" rx="6" stroke="#d4d4d8" stroke-width="4" stroke-linejoin="round"/><path d="M8 122v-2h0v2zm62.182 0v2h0v-2zM116 122v-2h0v2zM2.263 103.862l-1.474-1.351 1.474 1.351zM46.374 57.35l-1.474 1.351 1.474-1.351zm-1.474 0l-1.474-1.352 1.474 1.352zm43.075 45.382l1.474-1.351-1.474 1.351zm15.642-12.752l-1.414 1.414 1.414-1.414zm-1.414 0l-1.414-1.414 1.414 1.414zm19.505 18.091l-1.414 1.414 1.414-1.414zM8 124h62.182v-4H8v4zm62.182 0H116v-4H70.182v4zM120 116a4 4 0 0 1-4 4v4a8 8 0 0 0 8-8h-4zm0-7.222V116h4v-7.222h-4zm3.121-2.122l-18.09-18.09-2.829 2.828 18.091 18.091 2.828-2.829zm-22.333-18.09l-12.784 12.783 2.829 2.829 12.783-12.784-2.828-2.828zm-11.34 12.815L47.848 55.998l-2.949 2.703L86.5 104.084l2.949-2.703zM43.425 55.998L.789 102.511l2.949 2.703 42.636-46.513-2.949-2.703zM4 116v-11.462H0V116h4zm4 4a4 4 0 0 1-4-4H0a8 8 0 0 0 8 8v-4zM.789 102.511A3 3 0 0 0 0 104.538h4a1 1 0 0 1-.263.676l-2.949-2.703zm47.059-46.513a3 3 0 0 0-4.423 0l2.949 2.703a1 1 0 0 1-1.474 0l2.949-2.703zm40.156 45.351a1 1 0 0 1 1.444.032l-2.949 2.703a3 3 0 0 0 4.333.094l-2.829-2.829zm17.027-12.783a3 3 0 0 0-4.243 0l2.828 2.828a1 1 0 0 1-1.414 0l2.829-2.828zM124 108.778a3 3 0 0 0-.879-2.122l-2.828 2.829a1 1 0 0 1-.293-.707h4z" fill="#d4d4d8"/><path d="M79.818 20.673a8 8 0 0 1 8 0l6.171 3.563a8 8 0 0 1 4 6.928v7.126a8 8 0 0 1-4 6.928l-6.171 3.563a8 8 0 0 1-8 0l-6.171-3.563a8 8 0 0 1-4-6.928v-7.126a8 8 0 0 1 4-6.928l6.171-3.563z" stroke="#d4d4d8" stroke-width="4" stroke-linejoin="round"/></svg>