<svg xmlns="http://www.w3.org/2000/svg" width="100" height="100" fill="none"  xmlns:v="https://vecta.io/nano"><mask id="A" mask-type="alpha" maskUnits="userSpaceOnUse" x="0" y="0" width="100" height="100"><circle cx="50" cy="50" r="50" fill="#fff"/></mask><g mask="url(#A)"><circle cx="50" cy="50" r="50" fill="#f0fdf4"/><path d="M50 42.167A15.67 15.67 0 0 0 65.667 26.5 15.67 15.67 0 0 0 50 10.833 15.67 15.67 0 0 0 34.333 26.5 15.67 15.67 0 0 0 50 42.167z" fill="#86efac" stroke="#15803d" stroke-width="3" stroke-linejoin="round"/><path d="M85.25 89.167c0-19.468-15.782-35.25-35.25-35.25s-35.25 15.782-35.25 35.25" stroke="#15803d" stroke-width="3" stroke-linecap="round" stroke-linejoin="round"/><path d="M50 89.167l7.833-9.792L50 53.917l-7.833 25.458L50 89.167z" fill="#86efac" stroke="#15803d" stroke-width="3" stroke-linejoin="round"/></g></svg>