<svg width="19" height="19" viewBox="0 0 19 19" fill="none" xmlns="http://www.w3.org/2000/svg">
<path fill-rule="evenodd" clip-rule="evenodd" d="M12.6133 11.6691L16.4307 15.4839C16.6904 15.7455 16.6904 16.1686 16.4316 16.4302C16.3008 16.5601 16.1318 16.625 15.959 16.625C15.7861 16.625 15.6152 16.5601 15.4854 16.4302L11.6689 12.6135C10.4355 13.6359 8.85254 14.25 7.125 14.25C3.18945 14.25 0 11.0604 0 7.125C0 3.18958 3.18945 0 7.125 0C11.0605 0 14.25 3.18958 14.25 7.125C14.25 8.85242 13.6357 10.4352 12.6133 11.6691ZM7.125 12.9141C7.9082 12.9141 8.66504 12.762 9.37793 12.4595C10.0674 12.1682 10.6855 11.7507 11.2178 11.2181C11.751 10.6857 12.168 10.0659 12.46 9.37756C12.7617 8.66504 12.9141 7.90796 12.9141 7.125C12.9141 6.34204 12.7617 5.58496 12.46 4.87244C12.168 4.18408 11.751 3.56433 11.2178 3.03186C10.6855 2.49927 10.0654 2.08179 9.37793 1.79053C8.66504 1.48804 7.9082 1.33594 7.125 1.33594C6.3418 1.33594 5.58496 1.48804 4.87207 1.79053C4.18359 2.08179 3.56445 2.49927 3.03223 3.03186C2.49902 3.56433 2.08203 4.18408 1.79004 4.87244C1.48828 5.58496 1.33594 6.34204 1.33594 7.125C1.33594 7.90796 1.48828 8.66504 1.79004 9.37756C2.08203 10.0659 2.49902 10.6857 3.03223 11.2181C3.56445 11.7507 4.18359 12.1682 4.87207 12.4595C5.58496 12.762 6.3418 12.9141 7.125 12.9141Z" transform="translate(1.58325 1.58325)" fill="white"/>
<mask id="mask0" mask-type="alpha" maskUnits="userSpaceOnUse" x="1" y="1" width="18" height="18">
<path fill-rule="evenodd" clip-rule="evenodd" d="M12.6133 11.6691L16.4307 15.4839C16.6904 15.7455 16.6904 16.1686 16.4316 16.4302C16.3008 16.5601 16.1318 16.625 15.959 16.625C15.7861 16.625 15.6152 16.5601 15.4854 16.4302L11.6689 12.6135C10.4355 13.6359 8.85254 14.25 7.125 14.25C3.18945 14.25 0 11.0604 0 7.125C0 3.18958 3.18945 0 7.125 0C11.0605 0 14.25 3.18958 14.25 7.125C14.25 8.85242 13.6357 10.4352 12.6133 11.6691ZM7.125 12.9141C7.9082 12.9141 8.66504 12.762 9.37793 12.4595C10.0674 12.1682 10.6855 11.7507 11.2178 11.2181C11.751 10.6857 12.168 10.0659 12.46 9.37756C12.7617 8.66504 12.9141 7.90796 12.9141 7.125C12.9141 6.34204 12.7617 5.58496 12.46 4.87244C12.168 4.18408 11.751 3.56433 11.2178 3.03186C10.6855 2.49927 10.0654 2.08179 9.37793 1.79053C8.66504 1.48804 7.9082 1.33594 7.125 1.33594C6.3418 1.33594 5.58496 1.48804 4.87207 1.79053C4.18359 2.08179 3.56445 2.49927 3.03223 3.03186C2.49902 3.56433 2.08203 4.18408 1.79004 4.87244C1.48828 5.58496 1.33594 6.34204 1.33594 7.125C1.33594 7.90796 1.48828 8.66504 1.79004 9.37756C2.08203 10.0659 2.49902 10.6857 3.03223 11.2181C3.56445 11.7507 4.18359 12.1682 4.87207 12.4595C5.58496 12.762 6.3418 12.9141 7.125 12.9141Z" transform="translate(1.58325 1.58325)" fill="white"/>
</mask>
<g mask="url(#mask0)">
</g>
</svg>
