<svg width="17" height="17" viewBox="0 0 17 17" fill="none" xmlns="http://www.w3.org/2000/svg">
<mask id="path-1-inside-1" fill="white">
<path fill-rule="evenodd" clip-rule="evenodd" d="M0 0.5C0 0.223858 0.223858 0 0.5 0C0.776142 0 1 0.223858 1 0.5V16.5C1 16.7761 0.776142 17 0.5 17C0.223858 17 0 16.7761 0 16.5V0.5Z"/>
</mask>
<path fill-rule="evenodd" clip-rule="evenodd" d="M0 0.5C0 0.223858 0.223858 0 0.5 0C0.776142 0 1 0.223858 1 0.5V16.5C1 16.7761 0.776142 17 0.5 17C0.223858 17 0 16.7761 0 16.5V0.5Z" transform="translate(17 2) rotate(90)" fill="#D8D8D8"/>
<path d="M0 0.5V16.5H2V0.5H0ZM1 16.5V0.5H-1V16.5H1ZM0.5 16C0.776142 16 1 16.2239 1 16.5H-1C-1 17.3284 -0.328427 18 0.5 18V16ZM0 16.5C0 16.2239 0.223858 16 0.5 16V18C1.32843 18 2 17.3284 2 16.5H0ZM0.5 1C0.223858 1 0 0.776142 0 0.5H2C2 -0.328427 1.32843 -1 0.5 -1V1ZM0.5 -1C-0.328427 -1 -1 -0.328427 -1 0.5H1C1 0.776142 0.776142 1 0.5 1V-1Z" transform="translate(17 2) rotate(90)" fill="white" mask="url(#path-1-inside-1)"/>
<path fill-rule="evenodd" clip-rule="evenodd" d="M1.5 3C2.32843 3 3 2.32843 3 1.5C3 0.671573 2.32843 0 1.5 0C0.671573 0 0 0.671573 0 1.5C0 2.32843 0.671573 3 1.5 3Z" transform="translate(6 1) rotate(90)" fill="white" stroke="white"/>
<mask id="path-4-inside-2" fill="white">
<path fill-rule="evenodd" clip-rule="evenodd" d="M0 0.5C0 0.223858 0.223858 0 0.5 0C0.776142 0 1 0.223858 1 0.5V16.5C1 16.7761 0.776142 17 0.5 17C0.223858 17 0 16.7761 0 16.5V0.5Z"/>
</mask>
<path fill-rule="evenodd" clip-rule="evenodd" d="M0 0.5C0 0.223858 0.223858 0 0.5 0C0.776142 0 1 0.223858 1 0.5V16.5C1 16.7761 0.776142 17 0.5 17C0.223858 17 0 16.7761 0 16.5V0.5Z" transform="translate(17 8) rotate(90)" fill="#D8D8D8"/>
<path d="M0 0.5V16.5H2V0.5H0ZM1 16.5V0.5H-1V16.5H1ZM0.5 16C0.776142 16 1 16.2239 1 16.5H-1C-1 17.3284 -0.328427 18 0.5 18V16ZM0 16.5C0 16.2239 0.223858 16 0.5 16V18C1.32843 18 2 17.3284 2 16.5H0ZM0.5 1C0.223858 1 0 0.776142 0 0.5H2C2 -0.328427 1.32843 -1 0.5 -1V1ZM0.5 -1C-0.328427 -1 -1 -0.328427 -1 0.5H1C1 0.776142 0.776142 1 0.5 1V-1Z" transform="translate(17 8) rotate(90)" fill="white" mask="url(#path-4-inside-2)"/>
<path fill-rule="evenodd" clip-rule="evenodd" d="M1.5 3C2.32843 3 3 2.32843 3 1.5C3 0.671573 2.32843 0 1.5 0C0.671573 0 0 0.671573 0 1.5C0 2.32843 0.671573 3 1.5 3Z" transform="translate(12 7) rotate(90)" fill="white" stroke="white"/>
<mask id="path-7-inside-3" fill="white">
<path fill-rule="evenodd" clip-rule="evenodd" d="M0 0.5C0 0.223858 0.223858 0 0.5 0C0.776142 0 1 0.223858 1 0.5V16.5C1 16.7761 0.776142 17 0.5 17C0.223858 17 0 16.7761 0 16.5V0.5Z"/>
</mask>
<path fill-rule="evenodd" clip-rule="evenodd" d="M0 0.5C0 0.223858 0.223858 0 0.5 0C0.776142 0 1 0.223858 1 0.5V16.5C1 16.7761 0.776142 17 0.5 17C0.223858 17 0 16.7761 0 16.5V0.5Z" transform="translate(17 14) rotate(90)" fill="#D8D8D8"/>
<path d="M0 0.5V16.5H2V0.5H0ZM1 16.5V0.5H-1V16.5H1ZM0.5 16C0.776142 16 1 16.2239 1 16.5H-1C-1 17.3284 -0.328427 18 0.5 18V16ZM0 16.5C0 16.2239 0.223858 16 0.5 16V18C1.32843 18 2 17.3284 2 16.5H0ZM0.5 1C0.223858 1 0 0.776142 0 0.5H2C2 -0.328427 1.32843 -1 0.5 -1V1ZM0.5 -1C-0.328427 -1 -1 -0.328427 -1 0.5H1C1 0.776142 0.776142 1 0.5 1V-1Z" transform="translate(17 14) rotate(90)" fill="white" mask="url(#path-7-inside-3)"/>
<path fill-rule="evenodd" clip-rule="evenodd" d="M1.5 3C2.32843 3 3 2.32843 3 1.5C3 0.671573 2.32843 0 1.5 0C0.671573 0 0 0.671573 0 1.5C0 2.32843 0.671573 3 1.5 3Z" transform="translate(8 13) rotate(90)" fill="white" stroke="white"/>
</svg>
