<svg width="24" height="24" viewBox="0 0 24 24" fill="none" xmlns="http://www.w3.org/2000/svg">
<path fill-rule="evenodd" clip-rule="evenodd" d="M12 23C18.0751 23 23 18.0751 23 12C23 5.92487 18.0751 1 12 1C5.92487 1 1 5.92487 1 12C1 18.0751 5.92487 23 12 23Z" stroke="#F5222D" stroke-width="2"/>
<path d="M10.105 7.1912C10.4343 7.1132 10.7897 7.0612 11.171 7.0352C11.5523 7.0092 11.9293 6.9962 12.302 6.9962C12.7007 6.9962 13.1037 7.0352 13.511 7.1132C13.927 7.1912 14.304 7.3342 14.642 7.5422C14.98 7.7502 15.253 8.0362 15.461 8.4002C15.6777 8.76419 15.786 9.22786 15.786 9.7912C15.786 10.3459 15.6863 10.8139 15.487 11.1952C15.2877 11.5765 15.0233 11.8885 14.694 12.1312C14.3647 12.3652 13.9877 12.5342 13.563 12.6382C13.1383 12.7422 12.7007 12.7942 12.25 12.7942C12.2067 12.7942 12.133 12.7942 12.029 12.7942C11.9337 12.7942 11.8297 12.7942 11.717 12.7942C11.613 12.7855 11.509 12.7769 11.405 12.7682C11.301 12.7595 11.2273 12.7509 11.184 12.7422V16.2002H10.105V7.1912ZM12.328 7.9322C12.1027 7.9322 11.886 7.93653 11.678 7.9452C11.47 7.95386 11.3053 7.97553 11.184 8.0102V11.7802C11.2273 11.7975 11.2967 11.8105 11.392 11.8192C11.4873 11.8192 11.587 11.8235 11.691 11.8322C11.795 11.8322 11.8947 11.8322 11.99 11.8322C12.0853 11.8322 12.1547 11.8322 12.198 11.8322C12.4927 11.8322 12.783 11.8062 13.069 11.7542C13.3637 11.6935 13.628 11.5895 13.862 11.4422C14.096 11.2949 14.2823 11.0869 14.421 10.8182C14.5683 10.5495 14.642 10.2072 14.642 9.7912C14.642 9.43586 14.5727 9.1412 14.434 8.9072C14.304 8.66453 14.1263 8.47386 13.901 8.3352C13.6843 8.18786 13.4373 8.08386 13.16 8.0232C12.8827 7.96253 12.6053 7.9322 12.328 7.9322Z" fill="#F5222D"/>
<path d="M9.5 14.5H14.599" stroke="#F5222D" stroke-linecap="square"/>
</svg>
