<svg xmlns="http://www.w3.org/2000/svg" viewBox="0 0 294.843 294.843">
  <path d="M251.663 43.225C223.836 15.414 186.818.064 147.431 0h-.236c-34.112 0-67.342 11.912-93.59 33.555a6 6 0 007.633 9.259C85.344 22.938 115.86 12 147.195 12h.217c74.677.12 135.431 60.87 135.431 135.421 0 74.671-60.75 135.421-135.421 135.421C72.833 282.843 12.083 222.09 12 147.415c-.018-15.792 2.652-31.257 7.935-45.965a6 6 0 10-11.294-4.056C2.888 113.411-.019 130.245 0 147.428c.09 81.285 66.223 147.415 147.421 147.415 81.289 0 147.421-66.133 147.421-147.421.001-39.365-15.334-76.37-43.179-104.197z"/>
  <path d="M190.804 46.997c-13.72-5.935-28.316-8.944-43.383-8.944-60.306 0-109.368 49.063-109.368 109.368S87.116 256.79 147.421 256.79 256.79 207.727 256.79 147.421a6 6 0 00-6-6h-21.943a6 6 0 000 12H244.6c-2.989 48.919-42.258 88.189-91.178 91.178v-15.753a6 6 0 00-12 0v15.753c-48.919-2.989-88.189-42.258-91.178-91.178h15.753a6 6 0 000-12H50.244c2.989-48.919 42.258-88.189 91.178-91.178v15.753a6 6 0 0012 0V50.241a96.433 96.433 0 0132.619 7.77 6 6 0 104.763-11.014z"/>
  <path d="M190.003 97.098l-53.101 21.508a30.602 30.602 0 00-11.139 7.128 30.525 30.525 0 00-6.343 9.25c-.15.255-.289.519-.404.801l-21.989 54.289a5.999 5.999 0 007.812 7.815l54.294-21.983c.262-.106.508-.234.746-.372a30.654 30.654 0 009.3-6.381 30.525 30.525 0 006.593-9.826c.018-.042.043-.078.06-.12l21.983-54.294a6.001 6.001 0 00-7.812-7.815zm-42.532 31.643c4.996 0 9.692 1.945 13.224 5.478 7.292 7.292 7.292 19.156 0 26.448a18.58 18.58 0 01-13.224 5.478 18.578 18.578 0 01-13.224-5.478c-7.292-7.292-7.292-19.156 0-26.448a18.688 18.688 0 015.893-3.983l.078-.027.432-.175a18.66 18.66 0 016.821-1.293zm-26.506 34.194a30.655 30.655 0 004.797 6.216 30.86 30.86 0 006.213 4.802l-18.507 7.494 7.497-18.512zm52.981-31.043a30.877 30.877 0 00-10.912-10.924l18.343-7.43-7.431 18.354z"/>
</svg>
