<svg width="24" height="24" viewBox="0 0 24 24" fill="none" xmlns="http://www.w3.org/2000/svg">
<path d="M18 21H6.00003C5.20438 21 4.44132 20.6839 3.87871 20.1213C3.3161 19.5587 3.00003 18.7956 3.00003 18V6C3.00003 5.20435 3.3161 4.44129 3.87871 3.87868C4.44132 3.31607 5.20438 3 6.00003 3H10C10.2652 3 10.5196 3.10536 10.7071 3.29289C10.8947 3.48043 11 3.73478 11 4C11 4.26522 10.8947 4.51957 10.7071 4.70711C10.5196 4.89464 10.2652 5 10 5H6.00003C5.73481 5 5.48046 5.10536 5.29292 5.29289C5.10539 5.48043 5.00003 5.73478 5.00003 6V18C5.00003 18.2652 5.10539 18.5196 5.29292 18.7071C5.48046 18.8946 5.73481 19 6.00003 19H18C18.2652 19 18.5196 18.8946 18.7071 18.7071C18.8947 18.5196 19 18.2652 19 18V14C19 13.7348 19.1054 13.4804 19.2929 13.2929C19.4805 13.1054 19.7348 13 20 13C20.2652 13 20.5196 13.1054 20.7071 13.2929C20.8947 13.4804 21 13.7348 21 14V18C21 18.7956 20.684 19.5587 20.1214 20.1213C19.5587 20.6839 18.7957 21 18 21Z" fill="#5F646D"/>
<path d="M21 4.05003V9.05003C20.999 9.24745 20.9396 9.44017 20.8293 9.60389C20.719 9.76761 20.5626 9.89501 20.38 9.97003C20.2613 10.026 20.1312 10.0534 20 10.05C19.8684 10.0508 19.738 10.0256 19.6161 9.9758C19.4943 9.92603 19.3835 9.85271 19.29 9.76003L17.45 8.00003L12.66 12.79C12.5671 12.8838 12.4565 12.9581 12.3346 13.0089C12.2127 13.0597 12.082 13.0858 11.95 13.0858C11.818 13.0858 11.6873 13.0597 11.5655 13.0089C11.4436 12.9581 11.333 12.8838 11.24 12.79C11.1463 12.6971 11.0719 12.5865 11.0211 12.4646C10.9704 12.3427 10.9442 12.212 10.9442 12.08C10.9442 11.948 10.9704 11.8173 11.0211 11.6955C11.0719 11.5736 11.1463 11.463 11.24 11.37L16 6.55003L14.24 4.76003C14.0962 4.62278 13.9966 4.44578 13.9538 4.25163C13.9111 4.05748 13.9272 3.85499 14 3.67003C14.0798 3.47425 14.2195 3.30878 14.3992 3.19739C14.5789 3.086 14.7892 3.03441 15 3.05003H20C20.0827 3.03565 20.1673 3.03565 20.25 3.05003C20.2963 3.04112 20.3438 3.04112 20.39 3.05003C20.51 3.09729 20.619 3.16874 20.7101 3.25992C20.8013 3.35109 20.8728 3.46006 20.92 3.58003C20.9289 3.62627 20.9289 3.67379 20.92 3.72003C20.9723 3.82221 20.9997 3.93527 21 4.05003Z" fill="#5F646D"/>
</svg>
