<svg width="26" height="26" viewBox="0 0 26 26" fill="none" xmlns="http://www.w3.org/2000/svg">
<path d="M8.10156 18.0995C6.77574 18.1262 5.49364 17.6251 4.53729 16.7064C3.58094 15.7878 3.02869 14.5269 3.00202 13.2011C2.97535 11.8753 3.47646 10.5932 4.39509 9.63681C5.31373 8.68046 6.57465 8.12821 7.90046 8.10154L10.8999 8.04121C12.2257 8.01455 13.5078 8.51565 14.4641 9.43429C15.4205 10.3529 15.9727 11.6138 15.9994 12.9397C16.0047 13.2048 15.9045 13.4612 15.7208 13.6525C15.537 13.8438 15.2849 13.9542 15.0197 13.9596C14.7545 13.9649 14.4981 13.8647 14.3068 13.6809C14.1156 13.4972 14.0051 13.245 13.9998 12.9799C13.9838 12.1844 13.6524 11.4278 13.0786 10.8767C12.5048 10.3255 11.7356 10.0248 10.9401 10.0408L7.94068 10.1011C7.14519 10.1171 6.38864 10.4485 5.83746 11.0223C5.28628 11.5961 4.98562 12.3654 5.00162 13.1609C5.01762 13.9563 5.34897 14.7129 5.92278 15.2641C6.49658 15.8153 7.26585 16.1159 8.06134 16.0999C8.3265 16.0946 8.58292 16.1948 8.77419 16.3785C8.96546 16.5623 9.07591 16.8144 9.08124 17.0796C9.08658 17.3448 8.98636 17.6012 8.80263 17.7925C8.6189 17.9837 8.36672 18.0942 8.10156 18.0995Z" fill="#5F646D"/>
<path d="M18.0995 17.8984L15.1001 17.9588C13.7743 17.9854 12.4922 17.4843 11.5359 16.5657C10.5795 15.6471 10.0273 14.3861 10.0006 13.0603C9.99527 12.7952 10.0955 12.5387 10.2792 12.3475C10.4629 12.1562 10.7151 12.0458 10.9803 12.0404C11.2455 12.0351 11.5019 12.1353 11.6931 12.319C11.8844 12.5028 11.9949 12.7549 12.0002 13.0201C12.0162 13.8156 12.3475 14.5722 12.9214 15.1233C13.4952 15.6745 14.2644 15.9752 15.0599 15.9592L18.0593 15.8988C18.8548 15.8828 19.6114 15.5515 20.1625 14.9777C20.7137 14.4039 21.0144 13.6346 20.9984 12.8391C20.9824 12.0436 20.651 11.2871 20.0772 10.7359C19.5034 10.1847 18.7341 9.88406 17.9387 9.90006C17.6735 9.9054 17.4171 9.80517 17.2258 9.62145C17.0345 9.43772 16.9241 9.18554 16.9187 8.92037C16.9134 8.65521 17.0136 8.39879 17.1974 8.20752C17.3811 8.01625 17.6333 7.9058 17.8984 7.90047C19.2243 7.8738 20.5064 8.3749 21.4627 9.29354C22.4191 10.2122 22.9713 11.4731 22.998 12.7989C23.0246 14.1247 22.5235 15.4068 21.6049 16.3632C20.6863 17.3195 19.4253 17.8718 18.0995 17.8984Z" fill="#5F646D"/>
</svg>
