<svg width="24" height="24" viewBox="0 0 24 24" fill="none" xmlns="http://www.w3.org/2000/svg">
<path d="M16.5001 3H12.0001C11.7348 3 11.4805 3.10536 11.2929 3.29289C11.1054 3.48043 11.0001 3.73478 11.0001 4C11.0001 4.26522 11.1054 4.51957 11.2929 4.70711C11.4805 4.89464 11.7348 5 12.0001 5H16.5001C17.6935 5 18.8381 5.47411 19.682 6.31802C20.5259 7.16193 21.0001 8.30653 21.0001 9.5C21.0001 10.6935 20.5259 11.8381 19.682 12.682C18.8381 13.5259 17.6935 14 16.5001 14H4.41406L7.70706 10.707C7.88921 10.5184 7.99001 10.2658 7.98773 10.0036C7.98545 9.7414 7.88028 9.49059 7.69487 9.30518C7.50947 9.11977 7.25865 9.0146 6.99646 9.01233C6.73426 9.01005 6.48166 9.11084 6.29306 9.293L1.29306 14.293C1.19993 14.3859 1.12604 14.4962 1.07563 14.6177C1.02522 14.7392 0.999268 14.8695 0.999268 15.001C0.999268 15.1325 1.02522 15.2628 1.07563 15.3843C1.12604 15.5058 1.19993 15.6161 1.29306 15.709L6.29306 20.709C6.3853 20.8045 6.49565 20.8807 6.61765 20.9331C6.73966 20.9855 6.87087 21.0131 7.00365 21.0142C7.13643 21.0154 7.26811 20.9901 7.39101 20.9398C7.51391 20.8895 7.62556 20.8153 7.71945 20.7214C7.81334 20.6275 7.8876 20.5159 7.93788 20.393C7.98816 20.2701 8.01346 20.1384 8.01231 20.0056C8.01115 19.8728 7.98357 19.7416 7.93116 19.6196C7.87875 19.4976 7.80257 19.3872 7.70706 19.295L4.41406 16H16.5001C18.224 16 19.8773 15.3152 21.0962 14.0962C22.3152 12.8772 23.0001 11.2239 23.0001 9.5C23.0001 7.77609 22.3152 6.12279 21.0962 4.90381C19.8773 3.68482 18.224 3 16.5001 3Z" fill="black"/>
</svg>
