<svg width="21" height="20" viewBox="0 0 21 20" fill="none" xmlns="http://www.w3.org/2000/svg">
<path fill-rule="evenodd" clip-rule="evenodd" d="M1.84961 0.899902H18.9932C19.5742 0.899902 20.2002 1.31909 20.2002 2.23975V13.9324C20.2002 14.853 19.5742 15.2722 18.9932 15.2722H9.68457L5.70703 19.2855C5.54492 19.4487 5.3291 19.5352 5.1084 19.5352C5 19.5352 4.89062 19.514 4.78516 19.47C4.46973 19.3381 4.26367 19.0276 4.26367 18.6826V15.2722H1.84961C1.16406 15.2722 0.400391 14.7219 0.400391 13.9324V2.23975C0.400391 1.4502 1.16406 0.899902 1.84961 0.899902ZM9.33496 13.567H18.5098L18.5107 2.6051H2.09082V13.567H5.10938C5.57617 13.567 5.9541 13.9485 5.9541 14.4197V16.6241L8.7373 13.8168C8.89551 13.657 9.11035 13.567 9.33496 13.567Z" fill="#7F8285"/>
</svg>
