<svg width="20" height="19" viewBox="0 0 20 19" fill="none" xmlns="http://www.w3.org/2000/svg">
<path d="M18.5927 0H1.44878C0.763507 0 0 0.550289 0 1.33979V13.0325C0 13.822 0.763507 14.3723 1.44878 14.3723H3.86341V17.7827C3.86341 18.1276 4.06938 18.4382 4.38522 18.57C4.48977 18.6141 4.59964 18.6353 4.7083 18.6353C4.92827 18.6353 5.14438 18.5488 5.30616 18.3856L9.28427 14.3723H18.5927C19.1741 14.3723 19.8 13.9531 19.8 13.0325V1.33979C19.8 0.419233 19.1741 0 18.5927 0Z" fill="#2EAD31"/>
<path fill-rule="evenodd" clip-rule="evenodd" d="M14.7157 3.12693C14.5125 2.94407 14.2 2.96067 14.0174 3.16331L8.785 8.97557L6.86117 6.8386C6.67856 6.63597 6.36606 6.61936 6.16293 6.80223C5.95981 6.98484 5.94321 7.29734 6.12582 7.50022L8.23617 9.843C8.37973 10.0029 8.60434 10.0469 8.79184 9.96897C8.97739 10.0408 9.19711 9.99534 9.33774 9.8386L14.7528 3.82493C14.9354 3.62205 14.9188 3.30955 14.7157 3.12693Z" fill="white"/>
</svg>
