<svg width="247" height="200" viewBox="0 0 247 200" fill="none" xmlns="http://www.w3.org/2000/svg">
<g clip-path="url(#clip0_6044_22612)">
<path d="M246.804 177.727H0.195312V177.85H246.804V177.727Z" fill="#EBEBEB"/>
<path d="M222.095 185.667H205.76V185.791H222.095V185.667Z" fill="#EBEBEB"/>
<path d="M134.953 184.119H128.596V184.242H134.953V184.119Z" fill="#EBEBEB"/>
<path d="M172.659 184.642H159.273V184.765H172.659V184.642Z" fill="#EBEBEB"/>
<path d="M205.266 181.085H177.592V181.209H205.266V181.085Z" fill="#EBEBEB"/>
<path d="M39.1554 186.792H26.0703V186.915H39.1554V186.792Z" fill="#EBEBEB"/>
<path d="M54.8889 186.792H43.5449V186.915H54.8889V186.792Z" fill="#EBEBEB"/>
<path d="M94.7992 184.06H64.8066V184.183H94.7992V184.06Z" fill="#EBEBEB"/>
<path d="M117.094 155.729H21.8534C20.2997 155.729 19.0371 154.466 19.0371 152.913V19.0384C19.0371 17.4848 20.2997 16.2222 21.8534 16.2222H117.094C118.647 16.2222 119.91 17.4848 119.91 19.0384V152.913C119.91 154.466 118.647 155.729 117.094 155.729ZM21.8534 16.3455C20.3688 16.3455 19.1604 17.5539 19.1604 19.0384V152.913C19.1604 154.397 20.3688 155.606 21.8534 155.606H117.094C118.578 155.606 119.787 154.397 119.787 152.913V19.0384C119.787 17.5539 118.578 16.3455 117.094 16.3455H21.8534Z" fill="#EBEBEB"/>
<path d="M223.775 155.729H128.535C126.981 155.729 125.719 154.466 125.719 152.913V19.0384C125.719 17.4848 126.981 16.2222 128.535 16.2222H223.775C225.329 16.2222 226.592 17.4848 226.592 19.0384V152.913C226.592 154.466 225.329 155.729 223.775 155.729ZM128.535 16.3455C127.05 16.3455 125.842 17.5539 125.842 19.0384V152.913C125.842 154.397 127.05 155.606 128.535 155.606H223.775C225.26 155.606 226.468 154.397 226.468 152.913V19.0384C226.468 17.5539 225.26 16.3455 223.775 16.3455H128.535Z" fill="#EBEBEB"/>
<path d="M230.558 84.888C232.16 79.3245 231.869 73.6624 230.069 68.5921C231.475 66.5798 232.585 64.306 233.305 61.8153C236.609 50.3628 230.587 38.4367 219.722 34.1408C217.625 19.1371 206.977 6.02737 191.485 1.55881C179.233 -1.97263 166.671 0.680881 157.122 7.66978C154.73 5.16917 151.672 3.24068 148.111 2.21479C137.369 -0.882621 126.148 5.3122 123.051 16.0545C122.533 17.8498 122.281 19.6599 122.262 21.4454C111.45 23.6254 102.193 31.5909 98.9274 42.9201C95.9928 53.0952 98.592 63.5563 104.94 71.0878C104.121 72.5724 103.445 74.1655 102.957 75.8621C99.4404 88.0594 106.474 100.794 118.671 104.311C122.691 105.47 126.77 105.475 130.558 104.538C135.041 110.718 141.537 115.512 149.438 117.791C159.613 120.725 170.025 118.9 178.311 113.643C182.02 122.269 185.068 135.211 178.508 147.902C202.35 145.564 219.574 122.693 216.062 101.736C222.868 98.6044 228.323 92.6513 230.562 84.888H230.558Z" fill="#EBEBEB"/>
<path d="M184.817 143.167C184.688 143.167 184.56 143.117 184.466 143.024C184.338 142.895 184.289 142.713 184.338 142.535C187.697 130.836 184.634 119.62 181.478 112.271L179.875 108.548L176.452 110.718C171.288 113.998 165.344 115.729 159.273 115.729C156.279 115.729 153.29 115.305 150.385 114.466C143.465 112.469 137.571 108.331 133.339 102.501L131.973 100.617L129.714 101.179C126.4 102.003 122.913 101.939 119.613 100.987C114.602 99.5415 110.454 96.232 107.929 91.6648C105.408 87.0976 104.817 81.8251 106.262 76.8091C106.666 75.4083 107.233 74.0421 107.949 72.7499L109.098 70.6685L107.564 68.8535C101.714 61.9139 99.7167 52.5723 102.227 43.867C105.039 34.126 112.97 26.8263 122.928 24.819L125.665 24.2665L125.695 21.4749C125.709 19.9558 125.931 18.4515 126.351 17.0014C128.412 9.84978 135.041 4.85841 142.474 4.85841C144.042 4.85841 145.611 5.08036 147.135 5.51932C149.981 6.34299 152.565 7.9065 154.607 10.0421L156.698 12.232L159.14 10.4466C165.315 5.92869 172.896 3.44287 180.486 3.44287C183.86 3.44287 187.228 3.92129 190.503 4.86827C204.19 8.81402 214.306 20.4885 216.279 34.6093L216.555 36.6019L218.429 37.3418C227.801 41.0458 232.762 51.1519 229.966 60.8485C229.369 62.9102 228.447 64.8436 227.219 66.6044L226.203 68.0594L226.794 69.7363C228.427 74.3282 228.57 79.2357 227.219 83.9213C225.344 90.412 220.743 95.7585 214.592 98.5896L212.195 99.6944L212.629 102.299C214.129 111.241 211.436 121.006 205.241 129.095C200.082 135.833 192.871 140.819 184.93 143.137C184.886 143.152 184.836 143.157 184.792 143.157L184.817 143.167ZM180.106 107.334C180.156 107.334 180.205 107.339 180.254 107.354C180.392 107.398 180.506 107.497 180.56 107.63L182.39 111.882C185.537 119.196 188.58 130.274 185.532 141.934C192.935 139.571 199.638 134.826 204.486 128.498C210.513 120.627 213.137 111.137 211.687 102.466L211.189 99.4922C211.154 99.2702 211.268 99.0582 211.47 98.9644L214.212 97.7018C220.106 94.9891 224.511 89.8695 226.306 83.655C227.598 79.1667 227.46 74.4712 225.897 70.0717L225.216 68.158C225.162 68.0101 225.187 67.8424 225.275 67.7092L226.439 66.0421C227.608 64.3701 228.486 62.5304 229.048 60.5773C231.702 51.3738 226.997 41.7807 218.099 38.2641L215.958 37.4207C215.796 37.3566 215.677 37.2086 215.653 37.031L215.332 34.7524C213.413 21.0162 203.574 9.65742 190.262 5.82018C187.076 4.9028 183.796 4.43424 180.516 4.43424C173.127 4.43424 165.754 6.85594 159.751 11.2456L156.96 13.2875C156.757 13.4355 156.481 13.4108 156.314 13.2283L153.921 10.7277C151.998 8.71537 149.566 7.24558 146.888 6.47123C145.453 6.05693 143.978 5.84484 142.498 5.84484C135.505 5.84484 129.261 10.5452 127.322 17.2776C126.928 18.6439 126.72 20.0594 126.706 21.4848L126.671 24.6759C126.671 24.9077 126.503 25.1099 126.277 25.1543L123.145 25.7857C113.547 27.7191 105.907 34.7524 103.199 44.1383C100.782 52.5279 102.701 61.5243 108.343 68.2123L110.094 70.2887C110.227 70.4466 110.247 70.6685 110.148 70.8461L108.831 73.2234C108.151 74.4515 107.613 75.7487 107.228 77.0804C105.857 81.8399 106.42 86.8461 108.812 91.1815C111.209 95.5169 115.145 98.6636 119.904 100.035C123.036 100.937 126.346 100.997 129.492 100.217L132.077 99.576C132.269 99.5267 132.476 99.6007 132.595 99.7635L134.158 101.919C138.257 107.571 143.968 111.581 150.676 113.514C153.492 114.328 156.392 114.738 159.293 114.738C165.177 114.738 170.933 113.056 175.944 109.879L179.855 107.398C179.934 107.349 180.027 107.32 180.121 107.32L180.106 107.334Z" fill="white"/>
<path d="M150.227 61.2233L137.008 59.1666L137.215 57.8447C137.566 55.5957 138.103 53.8102 138.833 52.4835C139.563 51.1567 140.52 49.9976 141.709 48.9915C142.897 47.9902 145.482 46.3034 149.462 43.9261C151.578 42.6882 152.737 41.4304 152.934 40.1579C153.132 38.8805 152.91 37.83 152.268 37.0063C151.622 36.1826 150.537 35.6499 149.008 35.4132C147.361 35.1567 145.916 35.4921 144.668 36.4095C143.42 37.3318 142.434 39.1271 141.709 41.7954L128.471 38.0223C129.709 33.1296 132.13 29.4157 135.746 26.8805C139.361 24.3404 144.412 23.5809 150.907 24.592C155.963 25.3811 159.879 27.0729 162.661 29.6623C166.439 33.174 167.958 37.3071 167.218 42.0568C166.912 44.0297 166.069 45.8447 164.693 47.5069C163.317 49.169 160.742 51.063 156.969 53.1789C154.335 54.6684 152.629 55.9311 151.839 56.957C151.05 57.9878 150.513 59.4033 150.232 61.2134L150.227 61.2233ZM136.007 62.6092L150.167 64.8139L148.224 77.3022L134.064 75.0975L136.007 62.6092Z" fill="white"/>
<path d="M183.963 80.5774L176.624 74.6341L177.221 73.8992C178.232 72.6514 179.194 71.7488 180.111 71.2013C181.024 70.6538 182.025 70.2839 183.105 70.0916C184.185 69.8992 186.365 69.7858 189.635 69.7512C191.367 69.7463 192.521 69.3912 193.093 68.681C193.665 67.9707 193.902 67.2506 193.803 66.5207C193.705 65.7907 193.226 65.0805 192.378 64.39C191.465 63.6501 190.464 63.3394 189.374 63.4578C188.284 63.5761 187.046 64.3209 185.66 65.697L178.918 58.6982C181.409 56.1532 184.205 54.7426 187.312 54.4763C190.42 54.2099 193.774 55.5367 197.379 58.4565C200.185 60.7303 201.976 63.152 202.755 65.7216C203.816 69.2038 203.278 72.2666 201.137 74.9054C200.25 76.0003 199.09 76.8092 197.665 77.3369C196.235 77.8647 193.996 78.1064 190.938 78.062C188.802 78.0373 187.312 78.2001 186.464 78.5502C185.616 78.9004 184.787 79.5761 183.973 80.5774H183.963ZM174.79 76.3801L182.652 82.7475L177.034 89.6822L169.172 83.3147L174.79 76.3801Z" fill="white"/>
<path d="M186.014 37.8546L182.838 33.5143L183.272 33.1987C184.012 32.6561 184.673 32.301 185.255 32.1333C185.837 31.9656 186.438 31.9064 187.065 31.9558C187.686 32.01 188.904 32.2615 190.71 32.7153C191.662 32.9619 192.347 32.9373 192.766 32.6265C193.186 32.3207 193.417 31.9558 193.472 31.5414C193.521 31.1222 193.363 30.6635 192.998 30.1604C192.604 29.6179 192.096 29.3022 191.479 29.2135C190.862 29.1197 190.073 29.3516 189.112 29.904L186.414 25.0754C188.155 24.0347 189.896 23.6648 191.647 23.9705C193.398 24.2763 195.05 25.4897 196.609 27.6204C197.822 29.2776 198.458 30.8707 198.512 32.3996C198.591 34.4712 197.851 36.0791 196.288 37.2184C195.642 37.6919 194.887 37.9681 194.024 38.0519C193.161 38.1358 191.893 37.9434 190.216 37.4749C189.043 37.1543 188.199 37.026 187.681 37.0951C187.163 37.1641 186.611 37.4157 186.014 37.8497V37.8546ZM181.575 34.2147L184.978 38.8608L180.88 41.8596L177.477 37.2135L181.575 34.2147Z" fill="white"/>
<path d="M63.4945 99.3937C59.4156 99.3937 55.312 98.2791 51.677 96.1089C46.6708 93.1249 43.1345 88.5035 41.9359 83.3888C37.8718 83.0978 34.1283 81.1003 31.6326 77.8845C29.8225 75.5565 28.7917 72.7846 28.6388 69.845C27.5685 69.1151 26.6215 68.2273 25.8225 67.2063C21.931 62.2001 22.4193 55.1718 26.9322 50.7624C25.0531 42.7427 28.0173 34.3333 34.5229 29.2778C39.6277 25.3124 46.1283 23.9165 52.4119 25.4307C53.1419 23.7636 54.2812 22.3037 55.7214 21.1841C58.0346 19.3839 60.915 18.5947 63.825 18.9597C66.735 19.3247 69.3293 20.7994 71.1246 23.1175C71.6671 23.813 72.1209 24.5775 72.4859 25.3863C78.4193 24.4147 84.3626 26.7328 88.0568 31.4924C91.3614 35.7439 92.3577 41.3173 90.7399 46.4517C91.386 47.0041 91.9729 47.6157 92.4859 48.2766C96.6832 53.6773 95.7066 61.4899 90.3009 65.6872C88.6536 66.9696 86.7004 67.813 84.6388 68.1434C83.5636 72.1681 81.2602 75.6453 77.9606 78.2051C73.7978 81.4406 68.4662 82.792 63.2676 81.9437C63.2134 86.7328 64.3281 93.2285 69.6893 97.8746C69.7978 97.9683 69.8422 98.1114 69.8126 98.2495C69.783 98.3876 69.6795 98.501 69.5414 98.5405C67.5685 99.1126 65.5266 99.3937 63.4797 99.3937H63.4945ZM47.4107 25.6083C42.9569 25.6083 38.6117 27.0781 34.9914 29.8894C28.6684 34.8068 25.8176 43.014 27.7313 50.7969C27.7658 50.9301 27.7214 51.0731 27.6228 51.1718C23.2528 55.2951 22.7399 61.9831 26.4292 66.7328C27.2134 67.7439 28.1554 68.612 29.2208 69.3124C29.3244 69.3814 29.3885 69.4948 29.3934 69.6231C29.5019 72.469 30.4884 75.1619 32.2343 77.4159C34.656 80.5331 38.3108 82.4369 42.2615 82.6391C42.4341 82.649 42.5821 82.7723 42.6215 82.9449C43.7115 87.9609 47.1542 92.5183 52.0716 95.448C57.1419 98.4665 63.1443 99.3789 68.6585 97.9831C63.3663 93.0312 62.3798 86.3136 62.5081 81.4751C62.5081 81.3617 62.5623 81.2532 62.6511 81.1841C62.7399 81.1151 62.8533 81.0855 62.9668 81.1052C68.0913 82.067 73.3835 80.7895 77.4921 77.5984C80.7177 75.0879 82.9569 71.6699 83.9581 67.7045C83.9976 67.5516 84.1258 67.4381 84.2787 67.4184C86.296 67.1422 88.2146 66.3333 89.8274 65.0805C94.8928 61.1447 95.8102 53.8204 91.8743 48.755C91.3416 48.0694 90.7251 47.4431 90.0445 46.8808C89.9212 46.7772 89.8718 46.6095 89.9212 46.4615C91.5685 41.5047 90.6413 36.0892 87.4403 31.9708C83.8595 27.3641 78.0642 25.1545 72.3133 26.2051C72.1308 26.2396 71.9532 26.141 71.8842 25.9733C71.534 25.12 71.0703 24.321 70.5081 23.596C68.8361 21.4455 66.4242 20.0694 63.7214 19.7341C61.0186 19.3937 58.3404 20.1286 56.19 21.8006C54.7695 22.9054 53.6597 24.3703 52.989 26.0374C52.915 26.2199 52.7177 26.3136 52.5352 26.2692C50.8336 25.8302 49.1123 25.6181 47.4057 25.6181L47.4107 25.6083Z" fill="#E6E6E6"/>
<path d="M49.807 58.1509L42.9956 59.7539L42.8329 59.0732C42.5616 57.9141 42.4679 56.9425 42.5616 56.1583C42.6553 55.3741 42.892 54.6194 43.2718 53.8993C43.6516 53.1793 44.5739 51.8525 46.0338 49.9191C46.8181 48.903 47.1288 48.0646 46.9759 47.4086C46.823 46.7526 46.5073 46.2841 46.0338 46.0128C45.5604 45.7415 44.929 45.6971 44.1399 45.8796C43.2915 46.0818 42.6553 46.5257 42.2311 47.2162C41.807 47.9067 41.6837 48.9721 41.8563 50.4074L34.6997 51.1866C34.3347 48.5726 34.7786 46.2939 36.0314 44.3556C37.2842 42.4123 39.5825 41.051 42.9315 40.2619C45.5357 39.6503 47.77 39.6996 49.6245 40.4098C52.1448 41.3667 53.6935 43.0732 54.2706 45.5196C54.5123 46.5356 54.458 47.5812 54.1226 48.6564C53.7823 49.7317 52.9093 51.1571 51.4938 52.9277C50.5123 54.1706 49.9303 55.1176 49.7527 55.7686C49.5702 56.4246 49.5899 57.2138 49.8119 58.146L49.807 58.1509ZM43.188 61.6231L50.4827 59.9067L51.9969 66.3432L44.7022 68.0596L43.188 61.6231Z" fill="#EBEBEB"/>
<path d="M67.1497 43.7637L62.4197 42.3284L62.5627 41.8549C62.8093 41.051 63.0954 40.4246 63.4308 39.9807C63.7662 39.5319 64.1756 39.157 64.6638 38.8512C65.1521 38.5454 66.183 38.0621 67.7613 37.4012C68.5997 37.0559 69.088 36.6564 69.2261 36.2027C69.3642 35.7489 69.3396 35.3494 69.1472 35.014C68.9548 34.6786 68.5849 34.4271 68.0375 34.2643C67.4505 34.0867 66.9031 34.1311 66.4 34.4024C65.8969 34.6737 65.4431 35.2803 65.0387 36.2175L60.3926 34.1509C61.0979 32.4246 62.178 31.1916 63.6281 30.4517C65.0831 29.7119 66.9672 29.6922 69.2902 30.3975C71.1003 30.9449 72.4419 31.7686 73.3248 32.8636C74.5233 34.3432 74.8636 35.9314 74.3507 37.633C74.1386 38.3383 73.7341 38.9597 73.1472 39.4974C72.5603 40.035 71.5196 40.5923 70.0301 41.1743C68.9894 41.5837 68.2989 41.9536 67.9585 42.289C67.6182 42.6244 67.347 43.1176 67.1497 43.7637ZM61.8772 43.5319L66.9425 45.0707L65.5862 49.5393L60.5208 48.0004L61.8772 43.5319Z" fill="#EBEBEB"/>
<path d="M123.499 200C176.314 200 219.129 197.5 219.129 194.417C219.129 191.333 176.314 188.833 123.499 188.833C70.6842 188.833 27.8691 191.333 27.8691 194.417C27.8691 197.5 70.6842 200 123.499 200Z" fill="#F5F5F5"/>
<path d="M77.9304 111.161L77.4766 110.969C77.886 110.007 78.1178 109.203 78.1918 108.523L78.6801 108.577C78.6012 109.307 78.3545 110.15 77.9254 111.161H77.9304ZM77.738 105.509C76.7812 103.408 75.0007 102.081 72.5938 101.677L72.6776 101.188C75.2571 101.623 77.161 103.048 78.1869 105.307L77.738 105.509Z" fill="#407BFF"/>
<path d="M75.1541 116.123L70.3008 118.333L70.0789 117.849C69.704 117.026 69.4919 116.311 69.4426 115.709C69.3933 115.107 69.4623 114.51 69.635 113.918C69.8125 113.327 70.3008 112.197 71.1097 110.535C71.5437 109.657 71.6522 108.986 71.4402 108.518C71.2281 108.049 70.9223 107.748 70.5277 107.615C70.1331 107.482 69.6547 107.541 69.0924 107.798C68.4858 108.074 68.0813 108.503 67.8643 109.08C67.6522 109.662 67.7164 110.476 68.0567 111.521L62.8236 113.164C62.1627 111.265 62.1578 109.499 62.8088 107.862C63.4549 106.224 64.9741 104.863 67.3563 103.778C69.2108 102.934 70.8877 102.639 72.3822 102.895C74.4093 103.235 75.8199 104.281 76.614 106.027C76.9445 106.752 77.0628 107.541 76.9691 108.394C76.8754 109.248 76.4315 110.441 75.6374 111.975C75.09 113.045 74.794 113.84 74.7546 114.357C74.7151 114.875 74.8483 115.462 75.1492 116.128L75.1541 116.123ZM70.725 119.699L75.9235 117.332L78.0098 121.914L72.8113 124.281L70.725 119.699Z" fill="#407BFF"/>
<path d="M63.1494 127.087L60.6784 130.436L60.343 130.19C59.7709 129.77 59.3566 129.366 59.0952 128.971C58.8338 128.582 58.6513 128.148 58.5477 127.674C58.4441 127.201 58.3504 126.244 58.2666 124.809C58.2271 124.044 58.0496 123.546 57.724 123.309C57.3985 123.072 57.0779 122.984 56.7573 123.038C56.4367 123.097 56.1359 123.319 55.8498 123.709C55.544 124.128 55.4256 124.572 55.4996 125.05C55.5736 125.529 55.9287 126.056 56.56 126.638L53.6155 129.751C52.4417 128.705 51.766 127.502 51.5884 126.14C51.4059 124.779 51.9238 123.275 53.1371 121.627C54.0792 120.345 55.11 119.507 56.2247 119.112C57.7339 118.574 59.0952 118.752 60.2986 119.64C60.7968 120.01 61.1766 120.503 61.438 121.119C61.6994 121.736 61.8523 122.722 61.8917 124.064C61.9263 125.006 62.0249 125.657 62.1975 126.022C62.3702 126.387 62.6809 126.737 63.1396 127.077L63.1494 127.087ZM61.4873 131.211L64.131 127.62L67.2974 129.953L64.6538 133.544L61.4873 131.211Z" fill="#407BFF"/>
<path d="M115.652 192.641C114.853 192.641 114.079 192.207 113.684 191.448C111.702 187.621 109.211 183.127 104.732 178.264C104.21 177.697 104.017 176.893 104.234 176.153C105.896 170.378 108.511 162.481 108.535 162.402C108.92 161.243 110.173 160.612 111.332 160.997C112.491 161.381 113.122 162.634 112.737 163.793C112.713 163.867 110.464 170.669 108.831 176.203C112.949 180.873 115.49 185.307 117.62 189.416C118.183 190.501 117.758 191.838 116.673 192.395C116.348 192.563 116.002 192.641 115.657 192.641H115.652Z" fill="#407BFF"/>
<path d="M119.337 194.417H102.178L111.273 189.258L118.893 189.554L119.337 194.417Z" fill="#263238"/>
<path d="M117.697 173.627C125.507 171.185 130.197 163.958 128.174 157.484C126.15 151.01 118.178 147.742 110.368 150.183C102.558 152.625 97.8672 159.852 99.8909 166.326C101.915 172.799 109.887 176.068 117.697 173.627Z" fill="#263238"/>
<path d="M74.9915 153.845C74.1235 153.845 73.2998 153.332 72.9447 152.479C72.4761 151.349 73.0137 150.057 74.1432 149.589C75.4305 149.056 75.6081 147.744 75.6081 147.729C75.7018 146.743 76.4416 145.934 77.4182 145.756C77.9459 145.663 78.4539 145.51 79.0458 145.342C82.0446 144.464 85.7536 143.379 97.4478 146.654C108.979 140.203 109.112 128.109 109.112 127.586C109.112 126.368 110.099 125.372 111.317 125.372H111.327C112.54 125.372 113.532 126.348 113.537 127.566C113.537 128.208 113.467 143.389 98.7203 150.994C98.2172 151.256 97.6352 151.31 97.0927 151.152C85.9509 147.931 82.8091 148.849 80.2887 149.589C80.0668 149.653 79.8399 149.722 79.6081 149.786C79.0606 151.192 77.9262 152.814 75.8399 153.677C75.5637 153.791 75.2776 153.845 74.9965 153.845H74.9915Z" fill="#263238"/>
<path d="M100.851 138.017C96.6538 121.337 85.4725 78.3085 121.305 75.6796C153.453 73.322 162.276 116.109 164.417 130.935C165.665 139.576 166.089 147.408 166.158 153.534C166.252 161.431 160.703 168.242 152.96 169.815C135.445 173.371 118.868 173.879 107.707 169.475C104.688 168.281 102.863 165.209 103.154 161.978C103.583 157.184 103.593 148.942 100.846 138.027L100.851 138.017Z" fill="#407BFF"/>
<path opacity="0.1" d="M164.416 130.93C162.394 116.962 154.443 78.1358 126.606 75.7091C123.366 75.428 120.17 77.0211 118.68 79.9113C117.437 82.3182 117.477 85.2332 119.336 88.1185C125.472 97.6327 140.106 130.516 137.896 148.434C136.89 156.587 131.775 163.098 136.224 172.262C141.595 171.818 147.228 170.984 152.964 169.815C160.707 168.247 166.256 161.435 166.162 153.534C166.088 147.413 165.669 139.576 164.416 130.935V130.93Z" fill="black"/>
<path d="M159.622 153.751C159.498 153.751 159.4 153.653 159.4 153.534C159.311 145.914 158.724 138.319 157.659 130.965C152.332 94.1459 137.989 75.522 116.179 77.1298C116.06 77.1446 115.952 77.046 115.942 76.9276C115.932 76.8043 116.026 76.7007 116.144 76.6909C138.216 75.0633 152.726 93.8154 158.093 130.905C159.158 138.279 159.745 145.894 159.839 153.534C159.839 153.658 159.74 153.756 159.622 153.756V153.751Z" fill="#263238"/>
<path d="M159.287 174.806C167.097 172.365 171.787 165.138 169.764 158.664C167.74 152.19 159.768 148.921 151.958 151.363C144.148 153.804 139.457 161.032 141.481 167.505C143.505 173.979 151.476 177.248 159.287 174.806Z" fill="#263238"/>
<path d="M160.639 192.641C159.84 192.641 159.065 192.207 158.671 191.448C156.688 187.621 154.197 183.127 149.719 178.264C149.196 177.697 149.004 176.893 149.221 176.153C150.883 170.378 153.497 162.481 153.521 162.402C153.906 161.243 155.154 160.612 156.318 160.997C157.477 161.381 158.108 162.634 157.724 163.793C157.699 163.867 155.45 170.669 153.817 176.203C157.936 180.873 160.476 185.307 162.607 189.416C163.169 190.501 162.745 191.838 161.66 192.395C161.334 192.563 160.989 192.641 160.644 192.641H160.639Z" fill="#407BFF"/>
<path d="M155.992 125.204C155.198 125.204 154.429 124.775 154.029 124.02C153.462 122.94 153.876 121.603 154.956 121.036C155.381 120.809 165.013 115.547 167.721 102.901C161.299 100.212 149.758 94.1508 147.233 91.1028C146.986 90.8068 146.823 90.4517 146.759 90.0769C146.7 89.7464 146.286 87.1274 147.252 84.6515L146.088 82.4024C145.526 81.3173 145.95 79.9807 147.035 79.4184C148.12 78.8561 149.457 79.2803 150.019 80.3654L151.696 83.6009C152.056 84.2914 152.022 85.12 151.612 85.7859C151.085 86.6391 151.016 87.887 151.06 88.7008C153.901 91.2704 165.383 97.3518 171.001 99.4381C171.987 99.8031 172.579 100.814 172.416 101.85C169.916 118.013 157.551 124.671 157.023 124.947C156.697 125.12 156.342 125.199 155.997 125.199L155.992 125.204Z" fill="#263238"/>
<path d="M148.935 90.7968C148.728 90.7968 148.515 90.7376 148.328 90.6143C147.815 90.2789 147.672 89.5933 148.007 89.0853C148.081 88.9669 149.911 86.2098 152.693 85.4651C153.28 85.3073 153.892 85.6574 154.049 86.2493C154.207 86.8412 153.857 87.4478 153.265 87.6057C151.322 88.1285 149.872 90.2789 149.857 90.2986C149.645 90.6242 149.29 90.8017 148.93 90.8017L148.935 90.7968Z" fill="#263238"/>
<path d="M164.323 194.417H147.164L156.259 189.258L163.879 189.554L164.323 194.417Z" fill="#263238"/>
<path d="M128.393 128.33C134.883 127.756 139.725 122.554 139.208 116.712C138.691 110.87 133.01 106.601 126.519 107.175C120.029 107.75 115.187 112.952 115.704 118.793C116.221 124.635 121.902 128.905 128.393 128.33Z" fill="white"/>
<path d="M127.691 117.909C128.584 121.041 127.913 123.98 126.187 124.469C124.465 124.957 122.344 122.816 121.452 119.684C120.559 116.552 121.23 113.613 122.956 113.125C124.682 112.636 126.798 114.777 127.691 117.909Z" fill="#263238"/>
<path d="M114.029 119.754C121.476 118.797 136.228 114.59 138.66 112.893C136.741 107.29 127.829 102.496 119.853 105.194C112.667 107.625 114.029 119.749 114.029 119.749V119.754Z" fill="#263238"/>
<path d="M115.474 123.354C124.717 121.598 136.736 118.649 140.174 116.755C139.962 122.787 138.211 128.898 128.771 130.96C121.057 132.646 115.469 123.349 115.469 123.349L115.474 123.354Z" fill="#263238"/>
<path d="M107.855 129.149C111.199 126.936 111.64 121.712 108.84 117.48C106.04 113.247 101.059 111.61 97.715 113.823C94.371 116.035 93.9302 121.26 96.7304 125.492C99.5306 129.724 104.511 131.361 107.855 129.149Z" fill="white"/>
<path d="M102.952 121.638C103.515 124.281 103.031 126.486 101.872 126.56C100.713 126.639 99.3172 124.557 98.7599 121.914C98.1976 119.27 98.681 117.065 99.8401 116.991C100.999 116.913 102.395 118.994 102.952 121.638Z" fill="#263238"/>
<path d="M93.7831 120.627C98.7794 121.219 108.703 120.558 110.35 119.655C109.132 114.871 103.223 109.46 97.8521 110.151C93.0137 110.777 93.7831 120.622 93.7831 120.622V120.627Z" fill="#263238"/>
<path d="M94.709 123.739C100.919 124.02 108.998 123.862 111.321 122.989C111.108 127.729 109.866 132.247 103.523 132.173C98.3391 132.114 94.709 123.739 94.709 123.739Z" fill="#263238"/>
<path d="M130.449 102.215C121.132 102.215 114.942 97.6131 114.636 97.3813C113.665 96.6414 113.472 95.2555 114.212 94.2789C114.947 93.3073 116.333 93.1149 117.305 93.8498C117.413 93.9287 124.767 99.295 134.982 97.3566C136.185 97.1297 137.339 97.9189 137.566 99.1174C137.793 100.316 137.004 101.475 135.805 101.702C133.926 102.057 132.136 102.21 130.449 102.21V102.215Z" fill="#263238"/>
<path d="M90.8868 98.4023C90.6402 98.4023 90.3837 98.3628 90.1371 98.2741C88.9879 97.8598 88.3911 96.5922 88.8054 95.443C89.9793 92.1779 91.9225 90.057 94.5859 89.1446C99.4145 87.4824 104.613 90.713 104.83 90.8511C105.861 91.5022 106.172 92.8684 105.521 93.9041C104.87 94.935 103.508 95.2457 102.472 94.5946C101.466 93.9683 98.3442 92.5182 96.0113 93.332C94.6698 93.8006 93.6735 94.9794 92.9682 96.9374C92.6426 97.84 91.7943 98.4023 90.8868 98.4023Z" fill="#263238"/>
<path d="M108.323 135.729C108.264 135.729 108.2 135.719 108.141 135.704C107.791 135.601 107.588 135.246 107.687 134.895C107.702 134.836 108.121 133.401 109.936 132.464C112.476 131.157 116.343 131.428 121.433 133.268C121.778 133.391 121.956 133.776 121.833 134.116C121.709 134.461 121.329 134.639 120.984 134.516C115.149 132.4 112.116 132.858 110.602 133.613C109.28 134.274 108.979 135.216 108.965 135.255C108.876 135.542 108.614 135.729 108.328 135.729H108.323Z" fill="#263238"/>
<path d="M87.435 133.297C74.562 134.451 65.3438 139.783 65.3438 139.783C69.1563 139.063 82.784 155.926 86.2858 168.927C92.747 166.53 100.283 164.898 108.323 163.625C103.455 150.22 94.5521 135.038 87.435 133.297Z" fill="#407BFF"/>
<path opacity="0.6" d="M87.435 133.297C74.562 134.451 65.3438 139.783 65.3438 139.783C69.1563 139.063 82.784 155.926 86.2858 168.927C92.747 166.53 100.283 164.898 108.323 163.625C103.455 150.22 94.5521 135.038 87.435 133.297Z" fill="white"/>
<path d="M87.435 133.297C79.0109 132.345 65.3339 139.398 65.3339 139.398C62.9122 140.942 63.5682 143.842 64.89 145.066C66.1576 143.246 80.2932 138.511 85.6101 137.874C82.9665 135.428 85.4227 133.652 87.435 133.297Z" fill="#407BFF"/>
<path opacity="0.2" d="M87.435 133.297C79.0109 132.345 65.3339 139.398 65.3339 139.398C62.9122 140.942 63.5682 143.842 64.89 145.066C66.1576 143.246 80.2932 138.511 85.6101 137.874C82.9665 135.428 85.4227 133.652 87.435 133.297Z" fill="white"/>
<path d="M74.9953 153.845C74.2703 153.845 73.565 153.49 73.1408 152.839C71.5378 150.383 72.5391 146.629 72.7561 145.904C73.1063 144.735 74.3393 144.069 75.5082 144.42C76.6772 144.77 77.343 145.998 76.9978 147.167C76.6377 148.405 76.5637 149.988 76.8498 150.422C77.5156 151.443 77.2296 152.814 76.2037 153.485C75.8288 153.727 75.4096 153.845 74.9953 153.845Z" fill="#263238"/>
<path d="M67.4351 57.1592H59.9727V53.7905L67.4351 44.9175H71.006V53.9828H72.8555V57.1641H71.006V59.9212H67.4351V57.1641V57.1592ZM67.4351 53.9779V49.3367L63.4893 53.9779H67.4351Z" fill="#407BFF"/>
<path d="M74.1328 52.4786C74.1328 49.6771 74.6359 47.7141 75.647 46.5945C76.6581 45.4749 78.192 44.9126 80.2586 44.9126C81.25 44.9126 82.0638 45.0359 82.7049 45.2776C83.3412 45.5242 83.864 45.8398 84.2635 46.2344C84.668 46.629 84.9836 47.0384 85.2154 47.4724C85.4472 47.9064 85.6347 48.4095 85.7728 48.9866C86.049 50.0865 86.1871 51.2307 86.1871 52.4292C86.1871 55.1025 85.7333 57.0655 84.8307 58.3035C83.9232 59.5464 82.3646 60.1629 80.155 60.1629C78.9121 60.1629 77.9109 59.9656 77.1464 59.571C76.3819 59.1765 75.7555 58.5945 75.2672 57.83C74.9121 57.2874 74.6359 56.5427 74.4386 55.6006C74.2413 54.6586 74.1427 53.6179 74.1427 52.4786H74.1328ZM78.1969 52.4884C78.1969 54.3676 78.3646 55.65 78.6951 56.3355C79.0255 57.0211 79.5089 57.3664 80.1402 57.3664C80.5545 57.3664 80.9146 57.2184 81.2204 56.9274C81.5262 56.6364 81.7481 56.1728 81.8961 55.5464C82.0391 54.9151 82.1131 53.9336 82.1131 52.5969C82.1131 50.6389 81.9454 49.322 81.6149 48.6463C81.2845 47.9706 80.7863 47.6352 80.1205 47.6352C79.4546 47.6352 78.9516 47.9804 78.6507 48.666C78.3498 49.3516 78.1969 50.6241 78.1969 52.4835V52.4884Z" fill="#407BFF"/>
<path d="M87.873 52.4786C87.873 49.6771 88.3761 47.7141 89.3872 46.5945C90.3983 45.4749 91.9322 44.9126 93.9988 44.9126C94.9902 44.9126 95.804 45.0359 96.4452 45.2776C97.0814 45.5242 97.6042 45.8398 98.0037 46.2344C98.4082 46.629 98.7238 47.0384 98.9557 47.4724C99.1875 47.9064 99.3749 48.4095 99.513 48.9866C99.7892 50.0865 99.9273 51.2307 99.9273 52.4292C99.9273 55.1025 99.4735 57.0655 98.571 58.3035C97.6634 59.5464 96.1049 60.1629 93.8952 60.1629C92.6523 60.1629 91.6511 59.9656 90.8866 59.571C90.1221 59.1765 89.4957 58.5945 89.0075 57.83C88.6523 57.2874 88.3761 56.5427 88.1788 55.6006C87.9816 54.6586 87.8829 53.6179 87.8829 52.4786H87.873ZM91.9372 52.4884C91.9372 54.3676 92.1049 55.65 92.4353 56.3355C92.7658 57.0211 93.2491 57.3664 93.8804 57.3664C94.2947 57.3664 94.6548 57.2184 94.9606 56.9274C95.2664 56.6364 95.4883 56.1728 95.6363 55.5464C95.7793 54.9151 95.8533 53.9336 95.8533 52.5969C95.8533 50.6389 95.6856 49.322 95.3552 48.6463C95.0247 47.9706 94.5266 47.6352 93.8607 47.6352C93.1949 47.6352 92.6918 47.9804 92.3909 48.666C92.0901 49.3516 91.9372 50.6241 91.9372 52.4835V52.4884Z" fill="#407BFF"/>
<path d="M109.141 45.1641H121.353V48.3108H113.708V50.6536H120.8V53.6623H113.708V56.5673H121.575V59.9064H109.141V45.1592V45.1641Z" fill="#263238"/>
<path d="M124.092 59.9113V45.1641H131.687C133.098 45.1641 134.173 45.2824 134.918 45.5241C135.663 45.7658 136.264 46.2146 136.718 46.8657C137.172 47.5216 137.404 48.3157 137.404 49.2528C137.404 50.0716 137.231 50.7769 136.881 51.3687C136.531 51.9606 136.052 52.444 135.441 52.8139C135.051 53.0506 134.518 53.243 133.843 53.3959C134.385 53.5784 134.78 53.7609 135.026 53.9384C135.194 54.0617 135.436 54.3182 135.756 54.7128C136.077 55.1073 136.289 55.4131 136.393 55.6302L138.597 59.9014H133.448L131.012 55.3934C130.701 54.8114 130.43 54.4316 130.188 54.259C129.858 54.0321 129.488 53.9187 129.073 53.9187H128.669V59.9064H124.092V59.9113ZM128.669 51.1369H130.592C130.8 51.1369 131.204 51.0679 131.801 50.9347C132.102 50.8755 132.348 50.7226 132.541 50.4711C132.733 50.2245 132.827 49.9384 132.827 49.6178C132.827 49.1443 132.674 48.7744 132.373 48.5229C132.072 48.2664 131.505 48.1382 130.671 48.1382H128.669V51.1369Z" fill="#263238"/>
<path d="M140.115 59.9113V45.1641H147.711C149.121 45.1641 150.197 45.2824 150.941 45.5241C151.686 45.7658 152.288 46.2146 152.742 46.8657C153.195 47.5216 153.427 48.3157 153.427 49.2528C153.427 50.0716 153.255 50.7769 152.904 51.3687C152.554 51.9606 152.076 52.444 151.464 52.8139C151.075 53.0506 150.542 53.243 149.866 53.3959C150.409 53.5784 150.803 53.7609 151.05 53.9384C151.218 54.0617 151.459 54.3182 151.78 54.7128C152.1 55.1073 152.313 55.4131 152.416 55.6302L154.621 59.9014H149.472L147.035 55.3934C146.724 54.8114 146.453 54.4316 146.211 54.259C145.881 54.0321 145.511 53.9187 145.097 53.9187H144.692V59.9064H140.115V59.9113ZM144.692 51.1369H146.616C146.823 51.1369 147.227 51.0679 147.824 50.9347C148.125 50.8755 148.372 50.7226 148.564 50.4711C148.756 50.2245 148.85 49.9384 148.85 49.6178C148.85 49.1443 148.697 48.7744 148.396 48.5229C148.096 48.2664 147.528 48.1382 146.695 48.1382H144.692V51.1369Z" fill="#263238"/>
<path d="M155.154 52.5476C155.154 50.1407 155.825 48.2665 157.167 46.9249C158.508 45.5834 160.377 44.9126 162.77 44.9126C165.162 44.9126 167.115 45.5735 168.442 46.8904C169.768 48.2073 170.434 50.0569 170.434 52.4292C170.434 54.1506 170.143 55.5661 169.566 56.6709C168.984 57.7757 168.146 58.6339 167.051 59.2455C165.956 59.8571 164.59 60.1678 162.952 60.1678C161.315 60.1678 159.914 59.9015 158.824 59.3738C157.734 58.846 156.851 58.0075 156.175 56.8583C155.5 55.7091 155.159 54.2739 155.159 52.5526L155.154 52.5476ZM159.712 52.5673C159.712 54.0569 159.988 55.1271 160.54 55.7782C161.093 56.4292 161.847 56.7548 162.799 56.7548C163.751 56.7548 164.535 56.4342 165.073 55.7979C165.611 55.1617 165.877 54.0174 165.877 52.3651C165.877 50.9792 165.596 49.9632 165.038 49.322C164.476 48.6808 163.717 48.3602 162.76 48.3602C161.803 48.3602 161.103 48.6857 160.545 49.3368C159.988 49.9878 159.712 51.063 159.712 52.5673Z" fill="#263238"/>
<path d="M172.955 59.9113V45.1641H180.551C181.961 45.1641 183.036 45.2824 183.781 45.5241C184.526 45.7658 185.128 46.2146 185.581 46.8657C186.035 47.5216 186.267 48.3157 186.267 49.2528C186.267 50.0716 186.094 50.7769 185.744 51.3687C185.394 51.9606 184.916 52.444 184.304 52.8139C183.914 53.0506 183.382 53.243 182.706 53.3959C183.249 53.5784 183.643 53.7609 183.89 53.9384C184.057 54.0617 184.299 54.3182 184.62 54.7128C184.94 55.1073 185.152 55.4131 185.256 55.6302L187.461 59.9014H182.311L179.875 55.3934C179.564 54.8114 179.293 54.4316 179.051 54.259C178.721 54.0321 178.351 53.9187 177.937 53.9187H177.532V59.9064H172.955V59.9113ZM177.532 51.1369H179.456C179.663 51.1369 180.067 51.0679 180.664 50.9347C180.965 50.8755 181.212 50.7226 181.404 50.4711C181.596 50.2245 181.69 49.9384 181.69 49.6178C181.69 49.1443 181.537 48.7744 181.236 48.5229C180.935 48.2664 180.368 48.1382 179.535 48.1382H177.532V51.1369Z" fill="#263238"/>
<path d="M80.2402 36.9767V25.9878H84.3635C85.202 25.9878 85.8777 26.1012 86.3857 26.3232C86.8938 26.5451 87.2883 26.8855 87.5793 27.3491C87.8654 27.8127 88.0084 28.2961 88.0084 28.7991C88.0084 29.2677 87.8802 29.7116 87.6237 30.1259C87.3672 30.5402 86.9825 30.8756 86.4696 31.1321C87.1354 31.3293 87.6434 31.6598 88.0035 32.1284C88.3586 32.5969 88.5411 33.1543 88.5411 33.7905C88.5411 34.3035 88.4326 34.7819 88.2156 35.2258C87.9986 35.6697 87.7273 36.01 87.4116 36.2467C87.091 36.4884 86.6915 36.666 86.2082 36.7893C85.7248 36.9126 85.133 36.9718 84.4375 36.9718H80.2452L80.2402 36.9767ZM81.6952 30.6043H84.0725C84.7187 30.6043 85.1774 30.5599 85.4585 30.4761C85.8284 30.3676 86.1046 30.1851 86.292 29.9286C86.4794 29.6721 86.5732 29.3515 86.5732 28.9668C86.5732 28.6019 86.4844 28.2813 86.3118 28.0051C86.1391 27.7289 85.8876 27.5365 85.5621 27.4329C85.2365 27.3293 84.6792 27.28 83.8901 27.28H81.6952V30.5994V30.6043ZM81.6952 35.6795H84.4326C84.9011 35.6795 85.2316 35.6598 85.424 35.6253C85.7594 35.5661 86.0405 35.4674 86.2624 35.3244C86.4893 35.1863 86.6718 34.9792 86.8148 34.7128C86.9579 34.4465 87.0319 34.1358 87.0319 33.7856C87.0319 33.3762 86.9283 33.0211 86.7162 32.7153C86.5041 32.4144 86.2131 32.2023 85.8432 32.079C85.4733 31.9557 84.9357 31.8965 84.2353 31.8965H81.6952V35.6746V35.6795Z" fill="#263238"/>
<path d="M95.5654 35.9902C95.0673 36.4144 94.5839 36.7152 94.1203 36.8878C93.6567 37.0605 93.1634 37.1493 92.6308 37.1493C91.7578 37.1493 91.0821 36.9372 90.6135 36.5081C90.145 36.079 89.9082 35.5364 89.9082 34.8706C89.9082 34.4809 89.997 34.1258 90.1745 33.8003C90.3521 33.4797 90.5839 33.2183 90.87 33.0259C91.156 32.8287 91.4816 32.6856 91.8416 32.5821C92.108 32.513 92.5075 32.444 93.0401 32.3798C94.1302 32.2516 94.9341 32.0938 95.447 31.9162C95.452 31.7337 95.4569 31.6153 95.4569 31.566C95.4569 31.0136 95.3287 30.6289 95.0771 30.402C94.7319 30.0962 94.2189 29.9433 93.5383 29.9433C92.902 29.9433 92.4335 30.0568 92.1326 30.2787C91.8318 30.5007 91.6049 30.8952 91.4618 31.4575L90.1449 31.275C90.2633 30.7128 90.4606 30.2541 90.7368 29.9088C91.013 29.5636 91.4076 29.2923 91.9304 29.1049C92.4483 28.9174 93.05 28.8237 93.7356 28.8237C94.4211 28.8237 94.9686 28.9026 95.3928 29.0654C95.817 29.2232 96.1277 29.4255 96.3299 29.6671C96.5272 29.9088 96.6702 30.2146 96.7491 30.5845C96.7935 30.8163 96.8182 31.2306 96.8182 31.8274V33.6277C96.8182 34.8805 96.8478 35.6745 96.902 36.0099C96.9612 36.3404 97.0747 36.661 97.2424 36.9668H95.8318C95.6937 36.6856 95.5999 36.3601 95.5605 35.9853L95.5654 35.9902ZM95.452 32.9766C94.9637 33.1788 94.2288 33.3465 93.2473 33.4846C92.6949 33.5636 92.3003 33.6523 92.0685 33.7559C91.8367 33.8546 91.6591 34.0025 91.5358 34.1949C91.4125 34.3872 91.3484 34.5993 91.3484 34.8361C91.3484 35.1961 91.4865 35.497 91.7578 35.7337C92.029 35.9754 92.4285 36.0938 92.9514 36.0938C93.4742 36.0938 93.9329 35.9803 94.3373 35.7534C94.7417 35.5266 95.0377 35.2158 95.23 34.8213C95.3731 34.5155 95.447 34.0666 95.447 33.4698V32.9766H95.452Z" fill="#263238"/>
<path d="M104.072 36.9767V35.9706C103.569 36.7597 102.824 37.1543 101.848 37.1543C101.212 37.1543 100.63 36.9767 100.097 36.6315C99.5642 36.2813 99.1499 35.793 98.8589 35.1666C98.5679 34.5402 98.4199 33.8201 98.4199 33.0063C98.4199 32.1925 98.5531 31.4922 98.8194 30.8411C99.0858 30.195 99.4803 29.6968 100.013 29.3516C100.541 29.0063 101.133 28.8337 101.789 28.8337C102.267 28.8337 102.696 28.9373 103.071 29.1395C103.446 29.3417 103.752 29.6081 103.983 29.9287V25.9829H105.325V36.9718H104.072V36.9767ZM99.8059 33.0014C99.8059 34.0224 100.023 34.7819 100.452 35.2899C100.881 35.793 101.389 36.0495 101.976 36.0495C102.563 36.0495 103.066 35.8078 103.48 35.3245C103.895 34.8411 104.097 34.1062 104.097 33.1148C104.097 32.0248 103.885 31.2258 103.466 30.7178C103.046 30.2098 102.528 29.9533 101.912 29.9533C101.295 29.9533 100.812 30.1999 100.408 30.6882C100.003 31.1765 99.8059 31.9509 99.8059 33.0063V33.0014Z" fill="#263238"/>
<path d="M111.904 36.9767V25.9878H116.777C117.759 25.9878 118.504 26.0864 119.012 26.2837C119.52 26.481 119.929 26.8312 120.235 27.3293C120.541 27.8275 120.693 28.3799 120.693 28.9866C120.693 29.7658 120.442 30.4218 119.934 30.9594C119.431 31.4921 118.652 31.8324 117.596 31.9804C117.981 32.1678 118.272 32.3503 118.474 32.5279C118.898 32.9175 119.303 33.4058 119.682 33.9878L121.596 36.9767H119.766L118.311 34.6882C117.887 34.0273 117.537 33.5242 117.261 33.174C116.984 32.8238 116.738 32.5772 116.521 32.4391C116.304 32.301 116.082 32.2023 115.855 32.1481C115.692 32.1136 115.421 32.0938 115.046 32.0938H113.359V36.9767H111.904ZM113.359 30.8361H116.486C117.152 30.8361 117.67 30.7671 118.045 30.629C118.42 30.4909 118.706 30.2739 118.898 29.9681C119.095 29.6672 119.189 29.3367 119.189 28.9816C119.189 28.4637 119.002 28.0346 118.622 27.6993C118.242 27.3639 117.65 27.1962 116.832 27.1962H113.354V30.8312L113.359 30.8361Z" fill="#263238"/>
<path d="M128.25 34.4122L129.646 34.5849C129.424 35.3987 129.02 36.03 128.423 36.4837C127.826 36.9326 127.067 37.1595 126.144 37.1595C124.98 37.1595 124.058 36.7994 123.373 36.0842C122.687 35.3691 122.352 34.3629 122.352 33.0657C122.352 31.7686 122.697 30.6884 123.387 29.9486C124.078 29.2088 124.971 28.8389 126.07 28.8389C127.17 28.8389 128.004 29.1989 128.68 29.9239C129.355 30.649 129.691 31.6699 129.691 32.9819C129.691 33.0608 129.691 33.1841 129.681 33.3419H123.742C123.792 34.2149 124.038 34.8857 124.482 35.3493C124.926 35.813 125.483 36.0448 126.144 36.0448C126.638 36.0448 127.062 35.9165 127.412 35.6551C127.762 35.3937 128.038 34.9794 128.246 34.4122H128.25ZM123.821 32.2322H128.265C128.206 31.5614 128.033 31.0583 127.757 30.7279C127.328 30.21 126.771 29.9486 126.085 29.9486C125.464 29.9486 124.946 30.1558 124.522 30.5701C124.098 30.9844 123.866 31.5417 123.821 32.2322Z" fill="#263238"/>
<path d="M136.413 40.0247V36.1282C136.201 36.4242 135.91 36.6658 135.53 36.8631C135.15 37.0555 134.751 37.1541 134.327 37.1541C133.38 37.1541 132.571 36.7744 131.885 36.0197C131.205 35.2651 130.859 34.2294 130.859 32.9174C130.859 32.1184 130.997 31.3983 131.274 30.767C131.55 30.1307 131.954 29.6523 132.482 29.3218C133.01 28.9963 133.587 28.8286 134.218 28.8286C135.205 28.8286 135.979 29.2429 136.541 30.0715V29.0062H137.755V40.0197H136.403L136.413 40.0247ZM132.25 32.9716C132.25 33.9975 132.467 34.767 132.896 35.275C133.325 35.7879 133.843 36.0444 134.44 36.0444C135.037 36.0444 135.51 35.8027 135.925 35.3144C136.339 34.8261 136.546 34.0863 136.546 33.09C136.546 32.0296 136.329 31.2355 135.89 30.6979C135.451 30.1652 134.938 29.894 134.351 29.894C133.764 29.894 133.271 30.1406 132.862 30.6387C132.452 31.1369 132.25 31.9112 132.25 32.9667V32.9716Z" fill="#263238"/>
<path d="M145.094 36.9767V35.8077C144.472 36.7054 143.634 37.1591 142.568 37.1591C142.1 37.1591 141.661 37.0704 141.251 36.8879C140.842 36.7103 140.541 36.4834 140.344 36.2072C140.147 35.936 140.008 35.6006 139.93 35.206C139.875 34.9397 139.846 34.5204 139.846 33.9483V29.0161H141.197V33.4304C141.197 34.1357 141.227 34.6092 141.281 34.8558C141.365 35.2109 141.547 35.4871 141.819 35.6943C142.095 35.8965 142.435 36.0001 142.84 36.0001C143.244 36.0001 143.624 35.8965 143.979 35.6894C144.334 35.4822 144.586 35.2011 144.733 34.841C144.881 34.4859 144.955 33.9631 144.955 33.2874V29.021H146.307V36.9816H145.098L145.094 36.9767Z" fill="#263238"/>
<path d="M153.868 34.4122L155.263 34.5849C155.042 35.3987 154.637 36.03 154.04 36.4837C153.443 36.9326 152.684 37.1595 151.762 37.1595C150.598 37.1595 149.675 36.7994 148.99 36.0842C148.304 35.3691 147.969 34.3629 147.969 33.0657C147.969 31.7686 148.314 30.6884 149.005 29.9486C149.695 29.2088 150.588 28.8389 151.688 28.8389C152.787 28.8389 153.621 29.1989 154.297 29.9239C154.972 30.649 155.308 31.6699 155.308 32.9819C155.308 33.0608 155.308 33.1841 155.298 33.3419H149.36C149.409 34.2149 149.656 34.8857 150.099 35.3493C150.543 35.813 151.101 36.0448 151.762 36.0448C152.255 36.0448 152.679 35.9165 153.029 35.6551C153.379 35.3937 153.656 34.9794 153.863 34.4122H153.868ZM149.439 32.2322H153.882C153.823 31.5614 153.651 31.0583 153.374 30.7279C152.945 30.21 152.388 29.9486 151.702 29.9486C151.081 29.9486 150.563 30.1558 150.139 30.5701C149.715 30.9844 149.483 31.5417 149.439 32.2322Z" fill="#263238"/>
<path d="M156.418 34.5994L157.755 34.3873C157.829 34.9249 158.041 35.3293 158.381 35.6154C158.721 35.9015 159.2 36.0445 159.816 36.0445C160.433 36.0445 160.896 35.9163 161.197 35.6647C161.498 35.4132 161.646 35.1172 161.646 34.7769C161.646 34.4711 161.513 34.2344 161.247 34.0568C161.059 33.9385 160.601 33.7856 159.866 33.5981C158.874 33.3466 158.189 33.1296 157.809 32.9471C157.424 32.7646 157.138 32.5131 156.941 32.1875C156.744 31.8669 156.645 31.5069 156.645 31.1172C156.645 30.7621 156.724 30.4366 156.887 30.1308C157.049 29.8299 157.271 29.5784 157.552 29.3762C157.765 29.2233 158.051 29.0901 158.411 28.9816C158.771 28.8731 159.16 28.8188 159.575 28.8188C160.201 28.8188 160.749 28.9076 161.222 29.0901C161.696 29.2726 162.041 29.5143 162.268 29.8201C162.495 30.1259 162.647 30.5402 162.731 31.0531L161.409 31.2307C161.35 30.8213 161.178 30.5007 160.887 30.2689C160.601 30.0371 160.191 29.9237 159.668 29.9237C159.047 29.9237 158.608 30.0272 158.342 30.2295C158.075 30.4366 157.942 30.6733 157.942 30.9496C157.942 31.1222 157.996 31.28 158.105 31.423C158.213 31.5661 158.386 31.6894 158.623 31.7831C158.756 31.8324 159.155 31.9459 159.816 32.1283C160.773 32.3848 161.439 32.592 161.814 32.7547C162.194 32.9175 162.49 33.1542 162.702 33.465C162.919 33.7757 163.022 34.1604 163.022 34.6191C163.022 35.0778 162.889 35.4921 162.628 35.8916C162.366 36.2911 161.987 36.5969 161.493 36.8139C161 37.0309 160.438 37.1394 159.816 37.1394C158.781 37.1394 157.991 36.9224 157.449 36.4933C156.906 36.0642 156.561 35.428 156.408 34.5796L156.418 34.5994Z" fill="#263238"/>
<path d="M167.579 35.7683L167.776 36.9619C167.396 37.0408 167.056 37.0803 166.755 37.0803C166.267 37.0803 165.887 37.0014 165.616 36.8485C165.345 36.6956 165.157 36.4884 165.049 36.2369C164.94 35.9853 164.886 35.4527 164.886 34.6438V30.0618H163.895V29.0112H164.886V27.0384L166.227 26.2295V29.0112H167.584V30.0618H166.227V34.7178C166.227 35.1025 166.252 35.3491 166.297 35.4576C166.346 35.5661 166.42 35.6549 166.528 35.719C166.637 35.7831 166.79 35.8177 166.987 35.8177C167.135 35.8177 167.332 35.7979 167.579 35.7634V35.7683Z" fill="#263238"/>
</g>
<defs>
<clipPath id="clip0_6044_22612">
<rect width="246.609" height="200" fill="white" transform="translate(0.195312)"/>
</clipPath>
</defs>
</svg>
