<svg width="393" height="294" viewBox="0 0 393 294" fill="none" xmlns="http://www.w3.org/2000/svg">
<g clip-path="url(#clip0_28758_12347)">
<path d="M392.081 257.989H0.0810547V258.185H392.081V257.989Z" fill="#EBEBEB"/>
<path d="M352.803 270.641H326.837V270.838H352.803V270.641Z" fill="#EBEBEB"/>
<path d="M259.757 272.78H252.944V272.977H259.757V272.78Z" fill="#EBEBEB"/>
<path d="M326.053 263.344H311.008V263.54H326.053V263.344Z" fill="#EBEBEB"/>
<path d="M75.0709 264.665H41.21V264.862H75.0709V264.665Z" fill="#EBEBEB"/>
<path d="M87.0184 264.665H82.0557V264.862H87.0184V264.665Z" fill="#EBEBEB"/>
<path d="M176.598 267.983H103.153V268.18H176.598V267.983Z" fill="#EBEBEB"/>
<path d="M185.889 222.918H34.5069C33.321 222.916 32.1843 222.442 31.3465 221.6C30.5087 220.758 30.0381 219.617 30.0381 218.428V4.99026C30.0484 3.80762 30.5235 2.67682 31.3603 1.84348C32.197 1.01015 33.3277 0.541577 34.5069 0.539551H185.889C187.077 0.539551 188.215 1.01261 189.055 1.85465C189.894 2.69669 190.366 3.83875 190.366 5.02958V218.428C190.366 219.619 189.894 220.761 189.055 221.603C188.215 222.445 187.077 222.918 185.889 222.918ZM34.5069 0.69682C33.3729 0.698903 32.2862 1.15216 31.4851 1.95712C30.684 2.76207 30.2341 3.85293 30.2341 4.99026V218.428C30.2341 219.565 30.684 220.656 31.4851 221.461C32.2862 222.266 33.3729 222.719 34.5069 222.721H185.889C187.024 222.719 188.112 222.266 188.914 221.462C189.716 220.657 190.168 219.566 190.17 218.428V4.99026C190.168 3.85221 189.716 2.76136 188.914 1.95664C188.112 1.15191 187.024 0.698899 185.889 0.69682H34.5069Z" fill="#EBEBEB"/>
<path d="M355.476 222.918H204.086C202.899 222.916 201.762 222.442 200.923 221.601C200.084 220.759 199.611 219.618 199.609 218.428V4.99026C199.622 3.8069 200.099 2.67611 200.937 1.84299C201.775 1.00987 202.906 0.541555 204.086 0.539551H355.476C356.654 0.543643 357.783 1.01313 358.618 1.84624C359.453 2.67936 359.927 3.80898 359.937 4.99026V218.428C359.937 219.616 359.468 220.756 358.632 221.597C357.796 222.439 356.661 222.914 355.476 222.918ZM204.086 0.69682C202.951 0.698899 201.864 1.15191 201.061 1.95664C200.259 2.76136 199.807 3.85221 199.805 4.99026V218.428C199.807 219.566 200.259 220.657 201.061 221.462C201.864 222.266 202.951 222.719 204.086 222.721H355.476C356.611 222.719 357.699 222.266 358.501 221.462C359.303 220.657 359.755 219.566 359.757 218.428V4.99026C359.755 3.85221 359.303 2.76136 358.501 1.95664C357.699 1.15191 356.611 0.698899 355.476 0.69682H204.086Z" fill="#EBEBEB"/>
<path d="M122.44 196.622L111.581 205.728L127.089 228.281L139.445 221.361C146.068 227.741 153.832 232.81 162.33 236.301L161.075 250.393L187.912 255.37L191.761 241.751C200.927 241.537 209.971 239.59 218.417 236.011L227.496 246.901L249.981 231.387L243.082 218.986C249.444 212.347 254.498 204.562 257.978 196.041L272.027 197.291L276.974 170.39L263.395 166.521C263.182 157.327 261.24 148.257 257.672 139.785L268.53 130.68L253.062 108.135L240.698 115.047C234.078 108.668 226.316 103.599 217.821 100.107L219.076 86.0074L192.239 81.0298L188.382 94.6493C179.216 94.8677 170.173 96.8151 161.726 100.39L152.616 89.4751L130.139 104.99L137.03 117.383C130.67 124.026 125.616 131.813 122.134 140.336L108.077 139.078L103.122 165.986L116.693 169.855C116.91 179.061 118.86 188.143 122.44 196.622ZM153.745 161.449C155.072 154.242 158.499 147.592 163.595 142.339C168.69 137.086 175.224 133.467 182.37 131.939C189.516 130.41 196.954 131.042 203.742 133.754C210.53 136.466 216.364 141.135 220.506 147.173C224.648 153.21 226.912 160.344 227.012 167.672C227.111 175 225.042 182.193 221.065 188.342C217.089 194.49 211.384 199.317 204.671 202.213C197.959 205.11 190.542 205.944 183.357 204.612C173.724 202.825 165.193 197.275 159.64 189.181C154.087 181.086 151.966 171.111 153.745 161.449Z" fill="#F0F0F0"/>
<path d="M301.835 208.001L310.31 209.573L311.533 205.264C314.433 205.199 317.295 204.585 319.969 203.456L322.838 206.892L329.941 201.993L327.762 198.061C329.768 195.961 331.364 193.502 332.466 190.811L336.903 191.204L338.471 182.696L334.183 181.477C334.116 178.568 333.501 175.697 332.372 173.016L335.805 170.138L330.929 163.014L327.009 165.2C324.91 163.19 322.456 161.59 319.773 160.482L320.173 156.031L311.69 154.458L310.467 158.76C307.566 158.828 304.704 159.444 302.031 160.576L299.161 157.132L292.058 162.039L294.238 165.971C292.227 168.07 290.63 170.533 289.534 173.229L285.089 172.828L283.521 181.336L287.809 182.562C287.881 185.472 288.495 188.341 289.62 191.024L286.241 193.886L291.125 201.01L295.045 198.824C297.14 200.84 299.595 202.44 302.282 203.542L301.835 208.001ZM299.522 179.889C299.942 177.612 301.025 175.511 302.635 173.851C304.246 172.192 306.31 171.049 308.568 170.566C310.826 170.084 313.176 170.283 315.321 171.14C317.466 171.997 319.309 173.472 320.618 175.38C321.927 177.287 322.642 179.541 322.674 181.857C322.706 184.172 322.052 186.445 320.796 188.388C319.54 190.331 317.738 191.856 315.617 192.772C313.497 193.688 311.153 193.952 308.883 193.532C307.375 193.254 305.936 192.68 304.648 191.844C303.361 191.007 302.251 189.924 301.382 188.657C300.512 187.39 299.901 185.963 299.581 184.459C299.262 182.954 299.242 181.401 299.522 179.889Z" fill="#F0F0F0"/>
<path d="M65.3487 206.939L71.8088 208.134L72.7418 204.855C74.9494 204.799 77.127 204.33 79.1628 203.471L81.3501 206.09L86.7676 202.355L85.1055 199.367C86.6352 197.775 87.8509 195.907 88.6884 193.862L92.0752 194.161L93.2669 187.682L89.9976 186.754C89.949 184.536 89.4807 182.348 88.6178 180.306L91.2363 178.112L87.5045 172.686L84.5332 174.322C82.9415 172.793 81.0806 171.575 79.0452 170.728L79.3509 167.339L72.8829 166.136L71.9578 169.415C69.7477 169.471 67.5675 169.941 65.529 170.799L63.3495 168.18L57.9085 171.963L59.5706 174.951C58.0392 176.541 56.8233 178.409 55.9877 180.455L52.6087 180.141L51.417 186.62L54.6863 187.548C54.7344 189.76 55.2 191.942 56.0583 193.98L53.4397 196.174L57.1637 201.6L60.1429 199.933C61.7308 201.468 63.5925 202.69 65.6309 203.534L65.3487 206.939ZM63.5847 185.527C63.9054 183.793 64.7314 182.194 65.9583 180.931C67.1851 179.668 68.7578 178.798 70.4775 178.431C72.1971 178.065 73.9866 178.218 75.6196 178.871C77.2526 179.524 78.6558 180.648 79.6519 182.101C80.648 183.554 81.1923 185.271 81.2158 187.034C81.2394 188.797 80.7412 190.528 79.7843 192.007C78.8274 193.486 77.4547 194.648 75.8397 195.345C74.2248 196.042 72.4401 196.243 70.7112 195.922C68.3923 195.491 66.3392 194.153 65.0029 192.204C63.6666 190.255 63.1565 187.853 63.5847 185.527Z" fill="#F0F0F0"/>
<path d="M180.715 62.5507L185.607 63.455L186.305 60.9702C187.979 60.9365 189.632 60.5815 191.173 59.9243L192.827 61.9138L196.92 59.0829L195.665 56.8261C196.823 55.6148 197.744 54.1956 198.378 52.6428L200.934 52.8708L201.836 47.9719L199.366 47.2642C199.325 45.588 198.971 43.9344 198.323 42.3888L200.299 40.7296L197.484 36.6249L195.234 37.8831C194.029 36.7132 192.613 35.7821 191.063 35.1387L191.291 32.5674L186.399 31.6631L185.701 34.1479C184.029 34.1808 182.378 34.5359 180.84 35.1938L179.186 33.2043L175.085 36.0352L176.348 38.292C175.187 39.5015 174.267 40.9211 173.635 42.4753L171.071 42.2473L170.209 47.1698L172.679 47.8775C172.72 49.5537 173.073 51.2073 173.721 52.7529L171.746 54.412L174.568 58.5168L176.818 57.2586C178.022 58.4212 179.435 59.3444 180.981 59.9794L180.715 62.5507ZM179.39 46.3441C179.632 45.0323 180.256 43.8218 181.184 42.8659C182.112 41.91 183.302 41.2516 184.603 40.9738C185.904 40.6959 187.258 40.8113 188.494 41.3052C189.73 41.7991 190.792 42.6494 191.546 43.7485C192.3 44.8477 192.712 46.1464 192.73 47.4805C192.748 48.8146 192.372 50.1241 191.648 51.2436C190.924 52.363 189.886 53.2421 188.664 53.7697C187.442 54.2972 186.092 54.4496 184.784 54.2076C183.914 54.0468 183.085 53.7158 182.344 53.2335C181.602 52.7512 180.963 52.1271 180.462 51.3969C179.961 50.6666 179.609 49.8445 179.425 48.9775C179.241 48.1106 179.229 47.2157 179.39 46.3441Z" fill="#F0F0F0"/>
<path d="M301.199 112.586L304.461 113.191L304.931 111.54C306.045 111.513 307.144 111.276 308.169 110.84L309.275 112.161L312.011 110.282L311.172 108.772C311.945 107.969 312.557 107.024 312.975 105.989L314.684 106.138L315.288 102.867L313.642 102.395C313.614 101.278 313.378 100.176 312.944 99.1473L314.261 98.0386L312.379 95.3021L310.882 96.1356C310.076 95.3626 309.132 94.749 308.099 94.327L308.255 92.6128L304.994 92.0073L304.524 93.6665C303.411 93.6905 302.312 93.9253 301.286 94.3585L300.18 93.0374L297.444 94.9247L298.283 96.4266C297.51 97.233 296.898 98.1806 296.48 99.2181L294.771 99.0687L294.167 102.332L295.813 102.804C295.84 103.923 296.077 105.028 296.511 106.059L295.194 107.16L297.076 109.905L298.573 109.063C299.379 109.839 300.323 110.455 301.356 110.88L301.199 112.586ZM300.353 101.782C300.513 100.905 300.93 100.096 301.549 99.4562C302.169 98.8169 302.963 98.3763 303.833 98.19C304.702 98.0038 305.607 98.0804 306.432 98.4101C307.258 98.7397 307.968 99.3077 308.472 100.042C308.976 100.776 309.251 101.644 309.263 102.536C309.275 103.427 309.023 104.302 308.539 105.05C308.055 105.797 307.361 106.384 306.544 106.736C305.728 107.088 304.825 107.189 303.951 107.027C302.781 106.809 301.745 106.134 301.07 105.151C300.396 104.167 300.138 102.956 300.353 101.782Z" fill="#F0F0F0"/>
<path d="M261.428 220.991C261.473 222.944 261.886 224.87 262.643 226.669L260.37 228.579L263.654 233.36L266.273 231.89C267.68 233.234 269.326 234.301 271.126 235.035L270.859 238.023L276.551 239.077L277.335 236.191C279.282 236.144 281.202 235.731 282.996 234.972L284.917 237.276L289.683 233.989L288.225 231.363C289.567 229.953 290.631 228.302 291.361 226.496L294.34 226.763L295.391 221.054L292.514 220.268C292.472 218.315 292.059 216.388 291.298 214.59L293.603 212.664L290.326 207.883L287.7 209.345C286.298 207.998 284.654 206.931 282.855 206.2L283.113 203.204L277.429 202.15L276.645 205.044C274.699 205.087 272.779 205.498 270.985 206.255L269.056 203.951L264.29 207.238L265.756 209.864C264.417 211.277 263.353 212.928 262.62 214.732L259.64 214.465L258.59 220.173L261.428 220.991ZM269.268 219.214C269.547 217.683 270.273 216.27 271.354 215.153C272.435 214.036 273.822 213.266 275.34 212.94C276.857 212.615 278.437 212.748 279.879 213.323C281.321 213.899 282.56 214.891 283.439 216.173C284.319 217.455 284.799 218.971 284.819 220.527C284.839 222.083 284.399 223.611 283.553 224.916C282.707 226.221 281.494 227.244 280.068 227.857C278.641 228.47 277.065 228.645 275.54 228.359C273.502 227.975 271.699 226.798 270.525 225.084C269.352 223.37 268.902 221.259 269.276 219.214H269.268Z" fill="#F0F0F0"/>
<path d="M119.335 116.691C120.049 120.229 115.776 124.09 109.794 125.301C103.812 126.512 98.3869 124.617 97.6735 121.078C96.9601 117.54 101.233 113.671 107.215 112.429C113.197 111.186 118.622 113.144 119.335 116.691Z" fill="#E0E0E0"/>
<path d="M121.648 103.975C122.125 103.303 122.319 102.47 122.189 101.656C121.492 98.1721 113.565 96.8511 104.44 98.6911C95.3138 100.531 88.5244 104.856 89.2222 108.332C89.4264 109.131 89.9288 109.82 90.6255 110.258C90.5178 110.637 90.4991 111.035 90.5706 111.422C90.7729 112.214 91.2806 112.893 91.9818 113.309C91.8615 113.699 91.8373 114.112 91.9113 114.512C92.0143 114.904 92.1952 115.272 92.443 115.592C92.6909 115.912 93.0007 116.179 93.3538 116.376C93.2187 116.767 93.1863 117.187 93.2598 117.595C93.3644 117.987 93.5486 118.354 93.8009 118.672C94.0531 118.99 94.368 119.252 94.7258 119.443C94.5718 119.838 94.5311 120.268 94.6082 120.685C95.1884 123.579 101.798 124.68 109.363 123.146C116.929 121.613 122.597 118.027 122.017 115.134C121.921 114.719 121.715 114.339 121.421 114.033C121.679 113.721 121.868 113.358 121.978 112.968C122.087 112.578 122.114 112.169 122.056 111.768C121.97 111.361 121.778 110.984 121.499 110.675C121.747 110.355 121.928 109.988 122.031 109.596C122.135 109.204 122.159 108.796 122.103 108.395C122.017 107.998 121.837 107.629 121.578 107.317C122.063 106.66 122.269 105.838 122.15 105.029C122.064 104.644 121.893 104.284 121.648 103.975Z" fill="#EBEBEB"/>
<path d="M129.088 70.3042C128.11 65.3544 125.898 60.7336 122.659 56.8728C119.419 53.0119 115.258 50.0368 110.562 48.2248C105.867 46.4129 100.79 45.8231 95.8058 46.5105C90.8217 47.1979 86.0923 49.1401 82.0586 52.156C78.025 55.1719 74.8186 59.1632 72.7383 63.7577C70.6581 68.3523 69.7718 73.4004 70.1621 78.4313C70.5524 83.4621 72.2066 88.312 74.9704 92.5284C77.7343 96.7449 81.5177 100.191 85.9679 102.544C86.681 102.913 87.2924 103.453 87.7478 104.115C88.2032 104.778 88.4886 105.543 88.5786 106.342C88.5786 106.421 88.5786 106.5 88.5786 106.578C89.2921 110.117 97.3673 111.462 106.611 109.59C115.854 107.719 122.769 103.299 122.055 99.8C122.055 99.7214 122.055 99.6506 122.001 99.572C121.776 98.7921 121.746 97.9686 121.914 97.1744C122.083 96.3803 122.443 95.64 122.965 95.0191C125.741 91.6082 127.73 87.6232 128.789 83.35C129.847 79.0769 129.949 74.6217 129.088 70.3042Z" fill="#F5F5F5"/>
<path d="M110.774 103.81H110.703C110.609 103.815 110.516 103.782 110.446 103.718C110.376 103.655 110.333 103.567 110.327 103.472C110.327 102.89 109.598 89.7425 115.242 83.4439L110.915 84.3167C110.847 84.3336 110.775 84.3283 110.71 84.3014C110.645 84.2745 110.59 84.2276 110.554 84.1673L108.406 81.022L106.509 88.6102C106.491 88.6753 106.456 88.7344 106.408 88.7814C106.36 88.8285 106.3 88.8617 106.234 88.8775C106.168 88.8917 106.098 88.8866 106.035 88.8629C105.971 88.8393 105.915 88.798 105.874 88.7439L101.17 82.4531L99.0998 89.2078C99.0854 89.2722 99.0511 89.3304 99.0018 89.3741C98.9526 89.4178 98.8909 89.445 98.8254 89.4516C98.7627 89.4621 98.6983 89.4568 98.6381 89.4363C98.5779 89.4157 98.5237 89.3804 98.4805 89.3336L93.9646 83.8921L93.1806 87.6666C93.1698 87.7357 93.1375 87.7996 93.0881 87.849C93.0388 87.8985 92.9751 87.931 92.9062 87.9418L88.2022 88.8854C90.5542 90.5761 98.0885 96.5601 99.9074 105.603C99.9166 105.649 99.9168 105.696 99.9078 105.742C99.8988 105.788 99.8809 105.832 99.8551 105.871C99.8292 105.91 99.796 105.944 99.7572 105.97C99.7184 105.996 99.6748 106.015 99.629 106.024C99.5832 106.033 99.536 106.033 99.4901 106.024C99.4443 106.015 99.4006 105.997 99.3617 105.971C99.3227 105.945 99.2892 105.912 99.2632 105.873C99.2371 105.834 99.2189 105.791 99.2096 105.745C97.1085 95.3334 87.2144 89.0663 87.1125 89.0112C87.0515 88.9729 87.0034 88.9172 86.9743 88.8513C86.9451 88.7853 86.9363 88.7122 86.949 88.6411C86.9616 88.5701 86.9951 88.5045 87.0452 88.4528C87.0953 88.401 87.1597 88.3655 87.2301 88.3507L92.4907 87.2891L93.3688 83.0271C93.3806 82.961 93.4114 82.8998 93.4573 82.8509C93.5033 82.8021 93.5624 82.7677 93.6275 82.7519C93.6925 82.733 93.7616 82.7342 93.8259 82.7552C93.8903 82.7762 93.9468 82.8162 93.9882 82.8699L98.5354 88.3192L100.668 81.5331C100.686 81.4687 100.721 81.4108 100.771 81.3659C100.82 81.3211 100.881 81.2912 100.947 81.2797C101.012 81.2682 101.08 81.2755 101.142 81.3009C101.203 81.3262 101.256 81.3686 101.295 81.423L105.999 87.7138L107.912 80.1098C107.929 80.0439 107.965 79.9843 108.015 79.9383C108.065 79.8923 108.127 79.8617 108.194 79.8503C108.261 79.8364 108.331 79.8432 108.394 79.8699C108.457 79.8966 108.51 79.9419 108.547 79.9997L111.009 83.5854L116.262 82.5239C116.339 82.5054 116.42 82.5141 116.491 82.5485C116.562 82.5829 116.62 82.6408 116.654 82.7126C116.688 82.7824 116.699 82.8614 116.685 82.9379C116.67 83.0144 116.632 83.0843 116.575 83.1372C110.264 88.7753 111.032 103.299 111.04 103.449C111.043 103.53 111.018 103.61 110.97 103.676C110.921 103.742 110.852 103.789 110.774 103.81Z" fill="#E0E0E0"/>
<path d="M196.081 293.5C280.034 293.5 348.091 289.515 348.091 284.599C348.091 279.683 280.034 275.697 196.081 275.697C112.128 275.697 44.0713 279.683 44.0713 284.599C44.0713 289.515 112.128 293.5 196.081 293.5Z" fill="#F5F5F5"/>
<path d="M289.675 75.6746C289.675 71.0744 287.276 66.9147 283.403 63.9266C283.531 63.319 283.597 62.6997 283.599 62.0786C283.599 55.9452 277.382 50.9597 269.643 50.8182C267.291 44.8813 260.298 40.5957 252.003 40.5957C245.402 40.5957 239.608 43.3322 236.323 47.4448C235.495 47.331 234.659 47.2732 233.823 47.2718C225.936 47.2718 219.538 52.3201 219.538 58.548C219.537 59.6025 219.723 60.6488 220.087 61.6383C215.061 64.2883 211.745 68.8019 211.745 73.9289C211.745 78.8671 214.818 83.2313 219.538 85.9128V86.07C219.538 92.117 225.559 97.0789 233.133 97.3305C237.304 101.419 243.701 104.038 250.875 104.038C255.585 104.079 260.223 102.88 264.328 100.562C264.974 100.635 265.623 100.672 266.272 100.672C274.159 100.672 280.557 95.6241 280.557 89.3963V89.2862C286.076 86.2981 289.675 81.3205 289.675 75.6746Z" fill="#407BFF"/>
<path d="M211.126 108.787C211.126 109.818 209.934 110.651 208.468 110.651C207.002 110.651 205.811 109.818 205.811 108.787C205.811 107.757 207.002 106.924 208.468 106.924C209.934 106.924 211.126 107.757 211.126 108.787Z" fill="#407BFF"/>
<path d="M229.535 104.337C229.535 107.317 226.077 109.731 221.812 109.731C217.547 109.731 214.113 107.333 214.113 104.337C214.113 101.341 217.571 98.9424 221.836 98.9424C226.101 98.9424 229.535 101.38 229.535 104.337Z" fill="#407BFF"/>
<path opacity="0.7" d="M289.675 75.6746C289.675 71.0744 287.276 66.9147 283.403 63.9266C283.531 63.319 283.597 62.6997 283.599 62.0786C283.599 55.9452 277.382 50.9597 269.643 50.8182C267.291 44.8813 260.298 40.5957 252.003 40.5957C245.402 40.5957 239.608 43.3322 236.323 47.4448C235.495 47.331 234.659 47.2732 233.823 47.2718C225.936 47.2718 219.538 52.3201 219.538 58.548C219.537 59.6025 219.723 60.6488 220.087 61.6383C215.061 64.2883 211.745 68.8019 211.745 73.9289C211.745 78.8671 214.818 83.2313 219.538 85.9128V86.07C219.538 92.117 225.559 97.0789 233.133 97.3305C237.304 101.419 243.701 104.038 250.875 104.038C255.585 104.079 260.223 102.88 264.328 100.562C264.974 100.635 265.623 100.672 266.272 100.672C274.159 100.672 280.557 95.6241 280.557 89.3963V89.2862C286.076 86.2981 289.675 81.3205 289.675 75.6746Z" fill="white"/>
<path opacity="0.7" d="M211.126 108.787C211.126 109.818 209.934 110.651 208.468 110.651C207.002 110.651 205.811 109.818 205.811 108.787C205.811 107.757 207.002 106.924 208.468 106.924C209.934 106.924 211.126 107.757 211.126 108.787Z" fill="white"/>
<path opacity="0.7" d="M229.535 104.337C229.535 107.317 226.077 109.731 221.812 109.731C217.547 109.731 214.113 107.333 214.113 104.337C214.113 101.341 217.571 98.9424 221.836 98.9424C226.101 98.9424 229.535 101.38 229.535 104.337Z" fill="white"/>
<path d="M251.103 51.9819C258.731 51.9819 263.451 55.5755 263.451 61.9685C263.451 70.6183 254.685 71.7271 254.685 78.4031H247.12C247.12 69.6197 254.121 69.1007 254.121 63.6277C254.121 61.2687 252.639 60.1442 250.138 60.1442C247.347 60.1442 245.865 61.7955 245.811 65.224H238.018C238.072 56.8337 242.965 51.9819 251.103 51.9819ZM255.665 87.6584C255.665 88.9535 255.152 90.1956 254.239 91.1114C253.326 92.0271 252.088 92.5416 250.797 92.5416C249.506 92.5416 248.267 92.0271 247.354 91.1114C246.441 90.1956 245.928 88.9535 245.928 87.6584C245.928 86.3633 246.441 85.1212 247.354 84.2055C248.267 83.2897 249.506 82.7752 250.797 82.7752C252.088 82.7752 253.326 83.2897 254.239 84.2055C255.152 85.1212 255.665 86.3633 255.665 87.6584Z" fill="#407BFF"/>
<path d="M210.93 169.446C217.876 178.497 225.285 188.004 234.254 194.884C235.847 196.136 237.642 197.107 239.561 197.755C239.695 197.794 239.561 197.865 239.404 197.975C239.248 198.085 239.31 198.069 239.31 198.132C239.31 198.195 239.067 198.352 239.005 198.407C238.198 199.166 237.698 200.196 237.601 201.301C237.601 201.521 237.648 201.505 237.648 201.364C237.17 197.747 234.983 194.185 233.132 190.811C225.645 178.127 216.229 166.277 207.19 154.482L214.246 147.546C222.189 154.322 229.679 161.614 236.668 169.375C242.062 175.43 247.331 181.784 251.423 189.089C255.492 196.08 257.923 205.995 250.678 212.152C247.471 214.846 243.423 216.324 239.24 216.328C225.52 216.139 212.976 203.165 204.564 193.839C200.977 189.739 197.629 185.436 194.536 180.95L210.906 169.446H210.93Z" fill="#DC897C"/>
<path d="M190.985 139.235L199.256 138.834C200.176 138.793 201.085 139.041 201.859 139.542L214.669 147.869L212.545 156.825C204.564 161.874 197.751 157.234 195.665 155.512C195.183 155.11 194.618 154.82 194.011 154.663L189.479 153.444C188.468 153.173 187.585 152.549 186.99 151.685C186.396 150.82 186.127 149.771 186.234 148.726L186.798 143.222C186.901 142.163 187.381 141.177 188.15 140.445C188.919 139.713 189.925 139.283 190.985 139.235Z" fill="#E4897B"/>
<path d="M235.217 194.869L226.923 221.377C226.923 221.377 225.99 220.881 224.469 220.024C220.463 217.767 212.356 213.033 206.366 208.339C202.885 205.618 200.094 202.913 199.31 200.711C196.527 193.32 213.093 167.111 213.093 167.111C218.299 168.416 224.618 177.884 224.618 177.884C224.618 177.884 233.218 190.049 235.217 194.869Z" fill="#407BFF"/>
<path opacity="0.2" d="M224.469 220.024C220.463 217.767 212.356 213.033 206.366 208.339C206.213 204.601 206.5 200.859 207.221 197.188C207.221 197.188 220.533 204.753 224.469 220.024Z" fill="black"/>
<path d="M213.086 167.119C213.086 167.119 229.142 208.606 213.611 285.77L140.417 285.589C139.939 274.321 145.027 221.557 134.317 168.424C134.317 168.424 137.32 164.744 160.934 163.179C170.279 162.558 183.835 162.487 192.051 163.258C199.152 163.992 206.186 165.282 213.086 167.119Z" fill="#263238"/>
<path opacity="0.6" d="M220.22 231.41C220.118 234.217 219.977 237.103 219.789 240.06C219.624 242.474 219.444 244.951 219.225 247.483C218.95 250.503 218.637 253.609 218.245 256.793C217.947 259.414 217.607 262.067 217.225 264.751C216.76 268.017 216.238 271.356 215.657 274.769C215.046 278.339 214.372 282.004 213.611 285.778L140.417 285.597C140.307 283.144 140.464 278.724 140.668 272.772C140.754 270.413 140.84 267.755 140.927 264.908C140.981 262.84 141.036 260.639 141.083 258.35C141.13 255.803 141.177 253.121 141.193 250.314C141.193 248.138 141.193 245.889 141.193 243.567C141.193 240.886 141.154 238.118 141.091 235.279C141.091 233.172 140.997 231.033 140.927 228.854C140.668 221.109 140.205 212.907 139.437 204.423C138.376 192.339 136.662 180.321 134.302 168.424C134.302 168.424 137.312 164.744 160.958 163.179C170.303 162.558 183.851 162.479 192.083 163.258C199.183 163.997 206.216 165.288 213.117 167.119C213.117 167.119 221.679 189.301 220.22 231.41Z" fill="#FAFAFA"/>
<path opacity="0.2" d="M148.554 201.057C148.554 201.057 147.904 218.577 140.926 228.87C140.667 221.125 140.205 212.923 139.437 204.439C142.298 202.245 145.411 200.947 148.554 201.057Z" fill="black"/>
<g opacity="0.6">
<path d="M220.22 231.41C220.118 234.217 219.977 237.103 219.789 240.06L212.106 249.134L201.067 236.112L190.044 249.158L179.013 236.136L167.982 249.158L156.951 236.136L145.905 249.158L141.201 243.567C141.201 240.886 141.161 238.118 141.099 235.279L145.936 240.988L156.959 227.958L167.99 240.988L179.021 227.958L190.052 240.988L201.075 227.958L212.113 240.988L220.22 231.41Z" fill="#FAFAFA"/>
</g>
<g opacity="0.6">
<path d="M219.224 247.507C218.95 250.526 218.636 253.632 218.244 256.817L212.106 264.083L201.067 251.053L190.044 264.083L179.013 251.053L167.982 264.083L156.951 251.053L145.905 264.083L141.052 258.35C141.099 255.802 141.146 253.121 141.162 250.314L145.905 255.905L156.928 242.883L167.959 255.905L178.99 242.883L190.02 255.905L201.043 242.883L212.082 255.905L219.224 247.507Z" fill="#FAFAFA"/>
</g>
<g opacity="0.6">
<path d="M217.248 264.751C216.783 268.017 216.26 271.356 215.68 274.769L212.129 278.968L201.09 265.954L190.043 278.992L179.013 265.978L167.982 278.992L156.951 265.978L145.904 278.992L140.636 272.772C140.722 270.413 140.808 267.755 140.894 264.908L145.904 270.83L156.927 257.8L167.958 270.83L178.989 257.8L190.02 270.83L201.043 257.8L212.082 270.83L217.248 264.751Z" fill="#FAFAFA"/>
</g>
<path d="M160.017 130.79C162.902 140.611 166.563 158.744 160.213 166.073C170.146 169.218 177.296 171.341 186.085 177.868C188.39 171.459 191.204 163.148 191.204 163.148C179.836 161.528 179.35 153.232 180.565 145.282L160.017 130.79Z" fill="#E4897B"/>
<path opacity="0.2" d="M168.358 136.711L180.518 145.29C180.203 147.139 180.056 149.013 180.079 150.889C175.775 150.676 169.503 146.548 168.633 142.129C168.214 140.355 168.121 138.519 168.358 136.711Z" fill="black"/>
<path d="M151.667 163.926L158.684 157.305L177.484 163.785L185.7 176.453L188.766 163.612L193.015 159.766L200.455 164.335L199.303 172.474L193.925 169.832L187.425 180.502L172.898 171.947L168.844 175.839L151.667 163.926Z" fill="#407BFF"/>
<path opacity="0.2" d="M187.425 180.502L191.219 167.166L199.302 172.474L193.924 169.832L187.425 180.502Z" fill="black"/>
<path opacity="0.2" d="M187.426 180.502L174.623 167.921L168.845 175.839L172.898 171.947L187.426 180.502Z" fill="black"/>
<path d="M156.457 189.655C161.161 195.341 167.59 203.235 172.356 208.661C178.04 214.999 183.693 221.73 190.569 226.59C190.835 226.755 190.529 226.59 190.396 226.59C190.323 226.563 190.246 226.547 190.169 226.543C190.106 226.543 190.169 226.543 190.169 226.582C193.258 227.266 196.731 226.543 200.031 226.094C210.09 224.396 219.984 221.542 230.059 218.939L234.018 228.037C230.2 230.396 226.397 232.401 222.446 234.328C212.544 238.983 194.512 247.389 183.583 243.268C179.545 241.388 175.781 238.965 172.395 236.065C167.189 231.721 162.266 227.045 157.656 222.068C153.133 217.248 148.852 212.318 144.728 207.175C143.34 205.461 142.039 203.778 140.659 201.938L156.457 189.655Z" fill="#DC897C"/>
<path d="M127.826 177.514C119.805 203.008 155.838 227.966 155.838 227.966L175.093 206.012C175.093 206.012 166.61 190.285 156.998 176.303C146.94 161.677 132.051 164.099 127.826 177.514Z" fill="#407BFF"/>
<path d="M228.483 220.118L242.031 206.011L252.27 219.709C252.27 219.709 244.187 230.938 233.187 228.013L228.483 220.118Z" fill="#E4897B"/>
<path d="M255.242 201.687L260.44 213.725L252.27 219.702L242.031 206.011L255.242 201.687Z" fill="#E4897B"/>
<path d="M186.163 94.311C193.133 97.0554 197.923 116.116 189.448 120.709C180.973 125.301 172.953 89.1212 186.163 94.311Z" fill="#263238"/>
<path d="M156.097 116.746C159.703 130.113 161.146 138.048 169.425 143.796C181.843 152.446 197.257 143.403 197.704 129.398C198.111 116.816 192.137 97.0869 177.79 94.0123C163.662 90.9692 152.506 103.409 156.097 116.746Z" fill="#E4897B"/>
<path d="M167.997 99.556L166.524 87.8237C163.639 89.3985 160.333 90.0204 157.076 89.6009C142.964 87.1711 132.89 96.7566 139.828 104.18C133.447 107.427 137.617 116.219 142.353 121.692C148.931 129.311 155.681 132.7 159.914 128.769C163.834 126.559 163.615 112.594 161.976 107.537C159.499 99.8784 167.997 99.556 167.997 99.556Z" fill="#263238"/>
<path d="M153.744 130.979C156.052 133.503 159.16 135.148 162.541 135.634C166.814 136.145 167.566 132.15 165.222 128.454C163.105 125.128 158.331 120.858 154.599 122.054C150.867 123.249 150.82 127.81 153.744 130.979Z" fill="#E4897B"/>
<path d="M176.52 116.997C176.747 118.09 177.516 118.884 178.237 118.759C178.958 118.633 179.358 117.642 179.131 116.549C178.903 115.456 178.135 114.662 177.414 114.78C176.692 114.898 176.3 115.896 176.52 116.997Z" fill="#263238"/>
<path d="M188.969 114.858C189.197 115.959 189.957 116.745 190.678 116.62C191.4 116.494 191.8 115.511 191.572 114.41C191.345 113.309 190.577 112.523 189.863 112.648C189.15 112.774 188.742 113.773 188.969 114.858Z" fill="#263238"/>
<path d="M186.006 116.085C186.006 116.085 189.816 121.983 193.203 124.57C191.635 126.716 188.146 126.457 188.146 126.457L186.006 116.085Z" fill="#DE5753"/>
<path d="M180.51 111.241C180.615 111.282 180.707 111.35 180.777 111.438C180.83 111.506 180.869 111.585 180.892 111.668C180.915 111.752 180.921 111.84 180.91 111.926C180.899 112.012 180.871 112.095 180.828 112.171C180.785 112.246 180.728 112.312 180.659 112.365C179.859 113.02 178.911 113.467 177.897 113.666C176.884 113.865 175.837 113.81 174.85 113.506C174.768 113.478 174.693 113.433 174.628 113.375C174.564 113.317 174.512 113.247 174.475 113.168C174.439 113.09 174.418 113.005 174.415 112.918C174.412 112.832 174.427 112.745 174.458 112.664C174.518 112.501 174.64 112.368 174.797 112.295C174.954 112.221 175.133 112.213 175.297 112.271C176.075 112.498 176.897 112.531 177.691 112.367C178.485 112.202 179.227 111.845 179.852 111.327C179.943 111.253 180.053 111.206 180.169 111.191C180.285 111.176 180.403 111.193 180.51 111.241Z" fill="#263238"/>
<path d="M192.561 108.874C192.457 108.902 192.349 108.904 192.245 108.879C192.141 108.854 192.044 108.804 191.965 108.733C191.351 108.158 190.614 107.732 189.812 107.485C189.009 107.239 188.161 107.178 187.331 107.309C187.245 107.341 187.152 107.354 187.06 107.348C186.968 107.342 186.879 107.316 186.797 107.273C186.716 107.23 186.644 107.17 186.587 107.097C186.53 107.025 186.489 106.941 186.466 106.851C186.444 106.761 186.44 106.668 186.456 106.577C186.471 106.486 186.506 106.399 186.557 106.322C186.609 106.245 186.675 106.18 186.753 106.13C186.831 106.081 186.919 106.049 187.01 106.035C188.044 105.848 189.108 105.906 190.117 106.203C191.125 106.501 192.051 107.03 192.819 107.75C192.95 107.865 193.029 108.027 193.041 108.201C193.053 108.374 192.996 108.546 192.882 108.677C192.795 108.772 192.684 108.84 192.561 108.874Z" fill="#263238"/>
<path d="M156.332 91.1342C156.332 91.1342 166.069 72.2619 184.195 76.1229C184.195 76.1229 180.73 76.9092 179.256 78.2224C179.256 78.2224 195.077 76.8384 200.009 87.9888L196.982 86.2038C196.982 86.2038 201.012 95.4434 196.293 101.53L195.407 98.4708C195.407 98.4708 188.931 106.531 179.264 104.243L182.604 102.544C182.604 102.544 165.952 102.033 161.828 97.7709C157.704 93.509 156.332 91.1342 156.332 91.1342Z" fill="#263238"/>
<path d="M189.809 132.221C189.736 132.221 189.663 132.206 189.596 132.178C189.529 132.149 189.468 132.108 189.417 132.055C186.963 129.39 182.659 130.412 182.619 130.42C182.49 130.437 182.358 130.406 182.25 130.332C182.142 130.258 182.065 130.147 182.033 130.02C182.001 129.893 182.017 129.759 182.077 129.642C182.138 129.526 182.238 129.436 182.361 129.39C182.565 129.343 187.308 128.21 190.201 131.332C190.298 131.432 190.352 131.566 190.352 131.705C190.352 131.845 190.298 131.979 190.201 132.079C190.148 132.127 190.086 132.165 190.019 132.189C189.952 132.213 189.88 132.224 189.809 132.221Z" fill="#263238"/>
<path d="M326.052 273.346H60.292V285.77H326.052V273.346Z" fill="#407BFF"/>
<path opacity="0.2" d="M326.052 273.346H60.292V285.77H326.052V273.346Z" fill="#FAFAFA"/>
<path d="M330.027 273.346H57.0774C56.2524 273.346 55.4607 273.672 54.8737 274.254C54.2867 274.835 53.9517 275.625 53.9414 276.452C53.9517 277.28 54.2867 278.07 54.8737 278.651C55.4607 279.232 56.2524 279.558 57.0774 279.558H330.027C330.845 279.548 331.627 279.218 332.206 278.637C332.784 278.057 333.114 277.273 333.124 276.452C333.114 275.632 332.784 274.848 332.206 274.267C331.627 273.687 330.845 273.356 330.027 273.346Z" fill="#407BFF"/>
<path opacity="0.4" d="M330.027 273.346H57.0774C56.2524 273.346 55.4607 273.672 54.8737 274.254C54.2867 274.835 53.9517 275.625 53.9414 276.452C53.9517 277.28 54.2867 278.07 54.8737 278.651C55.4607 279.232 56.2524 279.558 57.0774 279.558H330.027C330.845 279.548 331.627 279.218 332.206 278.637C332.784 278.057 333.114 277.273 333.124 276.452C333.114 275.632 332.784 274.848 332.206 274.267C331.627 273.687 330.845 273.356 330.027 273.346Z" fill="#FAFAFA"/>
</g>
<defs>
<clipPath id="clip0_28758_12347">
<rect width="392" height="293" fill="white" transform="translate(0.0810547 0.5)"/>
</clipPath>
</defs>
</svg>
