<svg width="269" height="200" viewBox="0 0 269 200" fill="none" xmlns="http://www.w3.org/2000/svg">
<g clip-path="url(#clip0_6073_22898)">
<path d="M268.688 175.76H0.310547V175.894H268.688V175.76Z" fill="#EBEBEB"/>
<path d="M46.2461 180.87H28.4688V181.004H46.2461V180.87Z" fill="#EBEBEB"/>
<path d="M96.8344 179.416H78.3164V179.55H96.8344V179.416Z" fill="#EBEBEB"/>
<path d="M70.8934 183.462H41.1465V183.597H70.8934V183.462Z" fill="#EBEBEB"/>
<path d="M241.221 183.951H218.039V184.085H241.221V183.951Z" fill="#EBEBEB"/>
<path d="M211.432 180.596H199.141V180.73H211.432V180.596Z" fill="#EBEBEB"/>
<path d="M155.6 182.754H105.316V182.888H155.6V182.754Z" fill="#EBEBEB"/>
<path d="M127.527 151.821H23.8793C22.1885 151.821 20.8145 150.447 20.8145 148.756V3.06487C20.8145 1.37409 22.1885 0 23.8793 0H127.527C129.217 0 130.591 1.37409 130.591 3.06487V148.756C130.591 150.447 129.217 151.821 127.527 151.821ZM23.8793 0.134189C22.2637 0.134189 20.9486 1.44924 20.9486 3.06487V148.756C20.9486 150.372 22.2637 151.687 23.8793 151.687H127.527C129.142 151.687 130.457 150.372 130.457 148.756V3.06487C130.457 1.44924 129.142 0.134189 127.527 0.134189H23.8793Z" fill="#EBEBEB"/>
<path d="M243.626 151.821H139.979C138.288 151.821 136.914 150.447 136.914 148.756V3.06487C136.914 1.37409 138.288 0 139.979 0H243.626C245.317 0 246.691 1.37409 246.691 3.06487V148.756C246.691 150.447 245.317 151.821 243.626 151.821ZM139.979 0.134189C138.363 0.134189 137.048 1.44924 137.048 3.06487V148.756C137.048 150.372 138.363 151.687 139.979 151.687H243.626C245.242 151.687 246.557 150.372 246.557 148.756V3.06487C246.557 1.44924 245.242 0.134189 243.626 0.134189H139.979Z" fill="#EBEBEB"/>
<path d="M109.132 174.096H80.0723V175.76H109.132V174.096Z" fill="#E0E0E0"/>
<path d="M91.9888 137.753L83.959 174.096H105.241L97.2114 137.753C96.5942 134.956 92.6061 134.956 91.9888 137.753Z" fill="#E0E0E0"/>
<path d="M98.81 144.967H90.3937L88.3594 154.178H100.844L98.81 144.967Z" fill="#F5F5F5"/>
<path d="M101.198 155.798H88.0047L86.9688 160.457H102.229L101.198 155.798Z" fill="#F5F5F5"/>
<path d="M39.2363 175.76H43.5518L56.2622 104.694H51.9413L39.2363 175.76Z" fill="#E0E0E0"/>
<path d="M152.299 175.76H156.614L169.325 104.694H165.004L152.299 175.76Z" fill="#E0E0E0"/>
<path d="M182.034 108.15H39.2363V133.979H182.034V108.15Z" fill="#EBEBEB"/>
<path d="M54.7158 132.841H39.9121L48.1245 109.293H62.9281L54.7158 132.841Z" fill="#FAFAFA"/>
<path d="M84.3232 132.841H69.5195L77.7319 109.293H92.5356L84.3232 132.841Z" fill="#FAFAFA"/>
<path d="M113.931 132.841H99.127L107.334 109.293H122.138L113.931 132.841Z" fill="#FAFAFA"/>
<path d="M143.533 132.841H128.734L136.941 109.293H151.745L143.533 132.841Z" fill="#FAFAFA"/>
<path d="M173.14 132.841H158.336L166.548 109.293H181.352L173.14 132.841Z" fill="#FAFAFA"/>
<path d="M68.9726 175.76H64.6517L51.9414 104.694H56.2623L68.9726 175.76Z" fill="#E0E0E0"/>
<path d="M182.03 175.76H177.714L165.004 104.694H169.325L182.03 175.76Z" fill="#E0E0E0"/>
<path d="M240.238 173.576H202.129V175.76H240.238V173.576Z" fill="#E0E0E0"/>
<path d="M217.507 127.05L207.229 173.576H235.14L224.861 127.05C223.991 123.116 218.382 123.116 217.513 127.05H217.507Z" fill="#E0E0E0"/>
<path d="M226.701 135.38H215.666L212.998 147.457H229.369L226.701 135.38Z" fill="#F5F5F5"/>
<path d="M229.835 149.583H212.53L211.178 155.697H231.188L229.835 149.583Z" fill="#F5F5F5"/>
<path d="M248.827 100.346V116.073C248.827 117.125 247.802 117.877 246.798 117.56L19.7673 45.6081C19.1179 45.4042 18.6777 44.803 18.6777 44.1213V28.3944C18.6777 27.3424 19.7029 26.5909 20.7067 26.9076L247.738 98.8595C248.387 99.0635 248.827 99.6647 248.827 100.346Z" fill="#EBEBEB"/>
<path d="M230.959 111.339L243.46 115.3L236.525 96.5032L224.029 92.542L230.959 111.339Z" fill="#FAFAFA"/>
<path d="M205.963 103.417L218.464 107.378L211.529 88.5809L199.033 84.6196L205.963 103.417Z" fill="#FAFAFA"/>
<path d="M180.965 95.4944L193.466 99.4556L186.531 80.6585L174.035 76.6973L180.965 95.4944Z" fill="#FAFAFA"/>
<path d="M155.968 87.5715L168.469 91.5328L161.534 72.7357L149.033 68.7798L155.968 87.5715Z" fill="#FAFAFA"/>
<path d="M130.972 79.6492L143.468 83.6104L136.538 64.8187L124.037 60.8574L130.972 79.6492Z" fill="#FAFAFA"/>
<path d="M105.976 71.7268L118.472 75.6881L111.542 56.8963L99.041 52.9351L105.976 71.7268Z" fill="#FAFAFA"/>
<path d="M80.9744 63.8098L93.4754 67.7657L86.5406 48.9739L74.0449 45.0127L80.9744 63.8098Z" fill="#FAFAFA"/>
<path d="M55.9764 55.887L68.4774 59.8482L61.5425 41.0511L49.0469 37.0898L55.9764 55.887Z" fill="#FAFAFA"/>
<path d="M30.9803 47.9646L43.4813 51.9259L36.5464 33.1287L24.0508 29.1675L30.9803 47.9646Z" fill="#FAFAFA"/>
<path d="M134.499 200C191.976 200 238.57 197.279 238.57 193.924C238.57 190.568 191.976 187.848 134.499 187.848C77.022 187.848 30.4277 190.568 30.4277 193.924C30.4277 197.279 77.022 200 134.499 200Z" fill="#F5F5F5"/>
<path d="M175.546 189.27H169.357V2.77489C169.357 1.76579 175.546 1.76579 175.546 2.77489V189.27Z" fill="#263238"/>
<path d="M175.546 72.8052L169.357 74.0559V65.4946H175.546V72.8052Z" fill="black"/>
<path d="M218.38 9.03249L131.537 2.5789C127.989 2.31527 124.9 4.97739 124.636 8.5249L121.012 57.2941C120.748 60.8416 123.41 63.9312 126.958 64.1948L213.801 70.6484C217.349 70.912 220.438 68.2499 220.702 64.7024L224.326 15.9332C224.59 12.3857 221.928 9.29612 218.38 9.03249Z" fill="white"/>
<path d="M214.277 71.4848C214.095 71.4848 213.912 71.4794 213.735 71.4633L126.888 65.0061C124.967 64.8612 123.206 63.9756 121.94 62.5049C120.673 61.0342 120.056 59.1663 120.195 57.2447L123.824 8.47518C123.969 6.5536 124.854 4.79305 126.325 3.52631C127.796 2.25957 129.664 1.63693 131.585 1.78186L218.432 8.23901C220.354 8.38394 222.114 9.26958 223.381 10.7403C224.648 12.211 225.265 14.0789 225.125 16.0005L221.497 64.77C221.352 66.6916 220.466 68.4521 218.996 69.7135C217.664 70.8621 216.006 71.474 214.277 71.474V71.4848ZM131.048 3.37065C129.706 3.37065 128.413 3.84836 127.377 4.74474C126.234 5.73237 125.541 7.09573 125.429 8.59327L121.8 57.3628C121.569 60.4598 123.904 63.1704 127.001 63.4012L213.848 69.8584C215.34 69.9711 216.795 69.488 217.938 68.5004C219.081 67.5128 219.774 66.1494 219.887 64.6572L223.515 15.8878C223.746 12.7907 221.411 10.0801 218.314 9.84927L131.472 3.38675C131.333 3.37602 131.193 3.37065 131.048 3.37065Z" fill="#407BFF"/>
<path d="M154.596 28.496L143.684 27.6855L144.049 22.7581L155.922 10.6006L161.144 10.987L160.157 24.2341L162.862 24.4381L162.518 29.0864L159.813 28.8824L159.512 32.9135L154.29 32.527L154.59 28.496H154.596ZM154.939 23.8477L155.444 17.0631L149.175 23.4183L154.939 23.8477Z" fill="#407BFF"/>
<path d="M164.901 22.3878C165.207 18.2923 166.157 15.4797 167.751 13.95C169.35 12.4202 171.658 11.7708 174.675 11.9962C176.124 12.1035 177.305 12.3719 178.207 12.8013C179.114 13.2307 179.838 13.7514 180.381 14.3686C180.928 14.9859 181.347 15.6247 181.637 16.2795C181.926 16.9397 182.146 17.6965 182.286 18.5553C182.571 20.1924 182.646 21.8832 182.517 23.6277C182.227 27.5406 181.352 30.3532 179.892 32.0654C178.432 33.783 176.087 34.5184 172.85 34.2769C171.036 34.1427 169.592 33.7455 168.518 33.0853C167.445 32.4251 166.591 31.5072 165.958 30.3371C165.496 29.5051 165.174 28.3887 164.986 26.9877C164.799 25.5922 164.766 24.0571 164.89 22.3878H164.901ZM170.842 22.844C170.638 25.5868 170.74 27.4816 171.154 28.5229C171.562 29.5642 172.227 30.117 173.15 30.1868C173.757 30.2297 174.299 30.058 174.777 29.6661C175.255 29.2743 175.63 28.6248 175.915 27.7177C176.194 26.8106 176.409 25.3828 176.554 23.4344C176.768 20.5735 176.666 18.6305 176.253 17.6106C175.84 16.5908 175.147 16.0433 174.181 15.9682C173.193 15.893 172.437 16.3439 171.921 17.3154C171.406 18.287 171.046 20.1334 170.842 22.844Z" fill="#407BFF"/>
<path d="M191.127 19.8597L185.539 18.4212C186.146 16.6553 187.15 15.3402 188.561 14.4761C189.973 13.6173 191.9 13.2737 194.353 13.4562C197.165 13.6656 199.162 14.3419 200.338 15.4852C201.513 16.6285 202.044 17.9918 201.926 19.5806C201.857 20.5146 201.54 21.3358 200.971 22.055C200.407 22.7743 199.586 23.3755 198.513 23.8693C199.329 24.1376 199.951 24.4221 200.37 24.7334C201.051 25.2273 201.567 25.8499 201.91 26.6013C202.254 27.3528 202.388 28.2277 202.313 29.2261C202.222 30.4821 201.803 31.6576 201.057 32.7633C200.316 33.869 199.302 34.6849 198.019 35.2163C196.736 35.7476 195.094 35.9355 193.081 35.7852C191.122 35.6403 189.592 35.2914 188.491 34.7493C187.391 34.2018 186.511 33.4611 185.845 32.5217C185.18 31.5824 184.702 30.423 184.412 29.0543L190.456 28.7054C190.601 29.9292 190.907 30.7934 191.363 31.2926C191.825 31.7971 192.437 32.0762 193.199 32.1299C194.004 32.189 194.696 31.9474 195.271 31.3946C195.85 30.8471 196.172 30.0795 196.248 29.1026C196.323 28.1043 196.124 27.3099 195.646 26.7248C195.174 26.1397 194.492 25.8123 193.612 25.7479C193.14 25.7103 192.485 25.7801 191.642 25.9572L192.27 21.7008C192.598 21.7759 192.855 21.8189 193.043 21.835C193.827 21.894 194.498 21.69 195.061 21.2284C195.625 20.7668 195.931 20.1925 195.979 19.5055C196.027 18.8506 195.872 18.3085 195.507 17.8898C195.142 17.4712 194.621 17.2296 193.934 17.1813C193.231 17.1276 192.641 17.2994 192.168 17.6912C191.696 18.0831 191.342 18.8077 191.105 19.8651L191.127 19.8597Z" fill="#407BFF"/>
<path d="M146.346 36.9604L154.676 37.5777L154.515 39.7247L149.298 39.3383L149.18 40.9378L154.016 41.2974L153.866 43.3478L149.029 42.9882L148.885 44.9742L154.252 45.3714L154.08 47.6472L145.6 47.0139L146.346 36.9551V36.9604Z" fill="#407BFF"/>
<path d="M155.793 47.7814L156.54 37.7227L161.719 38.1091C162.68 38.1789 163.41 38.3185 163.904 38.5224C164.398 38.7264 164.784 39.0592 165.063 39.5315C165.342 39.9985 165.455 40.5567 165.407 41.1955C165.364 41.7537 165.208 42.226 164.94 42.6125C164.671 42.999 164.322 43.3049 163.882 43.525C163.603 43.6645 163.233 43.7719 162.761 43.8417C163.12 43.9919 163.383 44.1369 163.544 44.2711C163.652 44.3623 163.807 44.5502 164 44.84C164.199 45.1245 164.328 45.3446 164.387 45.4949L165.675 48.5222L162.165 48.2591L160.732 45.0601C160.549 44.6468 160.383 44.373 160.227 44.2442C160.012 44.0725 159.765 43.9758 159.481 43.9544L159.207 43.9329L158.901 48.0176L155.777 47.7868L155.793 47.7814ZM159.363 42.0274L160.673 42.124C160.812 42.1348 161.091 42.1079 161.505 42.0489C161.714 42.0221 161.891 41.9308 162.031 41.7698C162.175 41.6088 162.256 41.4209 162.272 41.2008C162.294 40.8734 162.213 40.6211 162.02 40.4279C161.827 40.24 161.445 40.1219 160.882 40.079L159.519 39.977L159.368 42.0221L159.363 42.0274Z" fill="#407BFF"/>
<path d="M166.727 48.592L167.473 38.5332L172.653 38.9197C173.614 38.9894 174.344 39.129 174.837 39.333C175.331 39.5369 175.718 39.8697 175.997 40.3421C176.276 40.809 176.389 41.3673 176.34 42.006C176.297 42.5642 176.142 43.0366 175.873 43.423C175.605 43.8095 175.256 44.1154 174.816 44.3355C174.537 44.4751 174.166 44.5824 173.694 44.6522C174.054 44.8025 174.317 44.9474 174.478 45.0816C174.585 45.1729 174.741 45.3607 174.934 45.6506C175.133 45.935 175.261 46.1551 175.32 46.3054L176.609 49.3327L173.098 49.0697L171.665 45.8706C171.483 45.4573 171.316 45.1836 171.161 45.0548C170.946 44.883 170.699 44.7864 170.415 44.7649L170.141 44.7435L169.835 48.8282L166.711 48.5973L166.727 48.592ZM170.296 42.838L171.606 42.9346C171.746 42.9453 172.025 42.9185 172.438 42.8594C172.647 42.8326 172.825 42.7414 172.964 42.5803C173.109 42.4193 173.184 42.2314 173.206 42.0114C173.227 41.6839 173.147 41.4317 172.953 41.2384C172.76 41.0506 172.379 40.9325 171.815 40.8896L170.452 40.7876L170.302 42.8326L170.296 42.838Z" fill="#407BFF"/>
<path d="M177.359 44.3302C177.482 42.6877 178.035 41.4425 179.017 40.5944C180 39.7463 181.309 39.3867 182.941 39.5048C184.616 39.6282 185.872 40.1757 186.709 41.1419C187.546 42.108 187.906 43.4016 187.788 45.0226C187.702 46.1981 187.434 47.1482 186.977 47.8728C186.527 48.5974 185.909 49.1395 185.131 49.4991C184.353 49.8641 183.403 50.0037 182.286 49.9178C181.154 49.8319 180.225 49.585 179.511 49.1664C178.792 48.7477 178.234 48.1358 177.831 47.3146C177.429 46.4987 177.268 45.5003 177.359 44.3248V44.3302ZM180.467 44.5771C180.391 45.5916 180.526 46.3377 180.869 46.81C181.213 47.2824 181.712 47.54 182.361 47.5883C183.027 47.6366 183.564 47.4595 183.961 47.0515C184.358 46.6436 184.6 45.8761 184.685 44.7542C184.755 43.8096 184.616 43.101 184.267 42.6341C183.918 42.1671 183.413 41.9094 182.759 41.8611C182.131 41.8128 181.61 42.0007 181.202 42.414C180.789 42.8273 180.547 43.5519 180.467 44.5717V44.5771Z" fill="#407BFF"/>
<path d="M189.124 50.256L189.871 40.1973L195.05 40.5837C196.011 40.6535 196.741 40.7931 197.235 40.997C197.729 41.201 198.115 41.5338 198.394 42.0061C198.673 42.4731 198.786 43.0313 198.738 43.6701C198.695 44.2283 198.539 44.7006 198.271 45.0871C198.002 45.4736 197.654 45.7795 197.219 45.9996C196.94 46.1391 196.569 46.2465 196.097 46.3163C196.457 46.4666 196.72 46.6115 196.881 46.7457C196.988 46.8369 197.144 47.0248 197.337 47.3146C197.535 47.5991 197.664 47.8192 197.729 47.9695L199.017 50.9968L195.507 50.7338L194.073 47.5347C193.891 47.1214 193.724 46.8477 193.569 46.7188C193.354 46.5471 193.107 46.4505 192.823 46.429L192.549 46.4075L192.243 50.4922L189.119 50.2614L189.124 50.256ZM192.694 44.502L194.004 44.5986C194.143 44.6094 194.422 44.5825 194.836 44.5235C195.045 44.4967 195.222 44.4054 195.362 44.2444C195.507 44.0834 195.587 43.8955 195.603 43.6754C195.625 43.348 195.544 43.0957 195.351 42.9025C195.158 42.7146 194.777 42.5966 194.213 42.5536L192.85 42.4516L192.699 44.4967L192.694 44.502Z" fill="#407BFF"/>
<path d="M135.977 58.1785L136.658 49L142.852 49.4616L142.772 50.5459L137.796 50.1755L137.587 53.0203L141.897 53.3423L141.816 54.4266L137.506 54.1045L137.195 58.2751L135.982 58.1839L135.977 58.1785Z" fill="#263238"/>
<path d="M143.712 54.2601C143.825 52.7357 144.324 51.5763 145.204 50.7712C146.084 49.9714 147.174 49.6172 148.468 49.7138C149.316 49.7782 150.062 50.0358 150.717 50.4921C151.366 50.9483 151.844 51.5495 152.144 52.3009C152.445 53.0524 152.563 53.8844 152.499 54.8022C152.429 55.7308 152.182 56.552 151.747 57.2605C151.318 57.9691 150.744 58.4843 150.024 58.8118C149.305 59.1392 148.548 59.2734 147.754 59.2143C146.89 59.1499 146.133 58.8815 145.483 58.4146C144.834 57.9476 144.362 57.3411 144.066 56.5896C143.771 55.8435 143.653 55.0652 143.712 54.2601ZM144.963 54.3728C144.882 55.4785 145.113 56.3749 145.66 57.0512C146.208 57.7329 146.933 58.1032 147.829 58.173C148.741 58.2428 149.52 57.9744 150.158 57.3786C150.797 56.7775 151.162 55.8918 151.248 54.711C151.302 53.9649 151.227 53.3047 151.017 52.725C150.808 52.1506 150.47 51.689 150.003 51.3455C149.541 51.002 149.004 50.8088 148.398 50.7658C147.539 50.7014 146.777 50.9429 146.111 51.4851C145.446 52.0326 145.065 52.9933 144.963 54.3728Z" fill="#263238"/>
<path d="M153.738 59.4988L154.419 50.3203L158.488 50.6209C159.304 50.6799 159.921 50.8088 160.335 51.0074C160.748 51.206 161.064 51.5226 161.29 51.9574C161.515 52.3922 161.607 52.8645 161.569 53.3691C161.521 54.0185 161.268 54.5553 160.812 54.9686C160.356 55.3819 159.685 55.6181 158.794 55.6771C159.105 55.8543 159.336 56.026 159.492 56.187C159.825 56.5413 160.131 56.9707 160.41 57.486L161.821 60.1053L160.292 59.9926L159.218 57.9905C158.901 57.4108 158.644 56.9707 158.434 56.6594C158.225 56.3481 158.037 56.128 157.865 55.9992C157.694 55.8704 157.517 55.7737 157.329 55.7147C157.194 55.6771 156.969 55.6449 156.658 55.6181L155.251 55.5107L154.945 59.5847L153.732 59.4934L153.738 59.4988ZM155.332 54.4587L157.941 54.6519C158.493 54.6949 158.934 54.668 159.256 54.5768C159.578 54.4855 159.83 54.3191 160.012 54.0776C160.195 53.8361 160.297 53.5677 160.318 53.2725C160.351 52.8377 160.222 52.4673 159.927 52.1667C159.631 51.8608 159.143 51.689 158.467 51.6354L155.563 51.4207L155.337 54.4587H155.332Z" fill="#263238"/>
<path d="M162.932 60.1858L163.613 51.0073L167.059 51.265C167.762 51.3186 168.315 51.4528 168.729 51.6675C169.137 51.8876 169.448 52.1936 169.663 52.6015C169.872 53.0041 169.963 53.4174 169.931 53.8414C169.904 54.2332 169.77 54.5928 169.528 54.9256C169.292 55.2584 168.949 55.5107 168.503 55.6932C169.045 55.8972 169.453 56.2085 169.722 56.6218C169.99 57.0351 170.108 57.5128 170.065 58.0442C170.033 58.4736 169.915 58.8654 169.705 59.225C169.496 59.5793 169.249 59.8477 168.97 60.0302C168.686 60.2127 168.342 60.3361 167.929 60.4113C167.516 60.481 167.022 60.4971 166.437 60.4542L162.937 60.1912L162.932 60.1858ZM164.225 59.1928L166.512 59.3646C166.904 59.3914 167.183 59.4022 167.344 59.3807C167.628 59.3539 167.864 59.2841 168.063 59.1821C168.262 59.0801 168.428 58.9191 168.562 58.7044C168.702 58.4897 168.782 58.2374 168.804 57.9422C168.831 57.5987 168.761 57.2981 168.605 57.0297C168.449 56.7613 168.219 56.5681 167.913 56.4446C167.607 56.3212 167.167 56.2353 166.582 56.1924L164.461 56.0367L164.225 59.1928ZM164.542 54.9525L166.528 55.0974C167.065 55.1403 167.456 55.1296 167.693 55.0759C168.009 55.0061 168.251 54.872 168.423 54.6734C168.594 54.4694 168.691 54.2117 168.718 53.8897C168.739 53.5837 168.686 53.31 168.557 53.0685C168.428 52.8269 168.229 52.6498 167.966 52.5478C167.703 52.4405 167.236 52.3653 166.582 52.317L164.746 52.1828L164.542 54.9578V54.9525Z" fill="#263238"/>
<path d="M171.74 60.8406L172.422 51.6621L173.635 51.7534L172.953 60.9319L171.74 60.8406Z" fill="#263238"/>
<path d="M175.096 61.0877L175.777 51.9092L178.939 52.1454C179.653 52.199 180.195 52.2849 180.565 52.3976C181.081 52.5587 181.515 52.8109 181.864 53.1544C182.32 53.6 182.642 54.1474 182.836 54.8023C183.029 55.4571 183.093 56.1925 183.034 57.0083C182.981 57.7061 182.857 58.318 182.653 58.844C182.449 59.3701 182.208 59.7995 181.929 60.1323C181.649 60.465 181.349 60.7227 181.032 60.9052C180.716 61.0877 180.34 61.2111 179.9 61.2863C179.465 61.3561 178.971 61.3722 178.413 61.3346L175.101 61.0877H175.096ZM176.389 60.0947L178.348 60.2396C178.955 60.2825 179.433 60.2611 179.787 60.1752C180.141 60.0893 180.426 59.9498 180.646 59.7619C180.957 59.4935 181.209 59.1232 181.403 58.6508C181.601 58.1785 181.725 57.5934 181.773 56.901C181.843 55.9402 181.741 55.1887 181.467 54.652C181.188 54.1152 180.834 53.7395 180.393 53.5302C180.077 53.3799 179.556 53.2779 178.837 53.2242L176.91 53.0793L176.389 60.0947Z" fill="#263238"/>
<path d="M184.359 61.7747L185.041 52.5962L188.203 52.8324C188.916 52.886 189.459 52.9719 189.829 53.0846C190.344 53.2457 190.779 53.4979 191.128 53.8415C191.584 54.287 191.906 54.8345 192.099 55.4893C192.293 56.1441 192.357 56.8795 192.298 57.6954C192.244 58.3931 192.121 59.005 191.917 59.5311C191.713 60.0571 191.471 60.4865 191.192 60.8193C190.913 61.1521 190.613 61.4097 190.296 61.5922C189.979 61.7747 189.603 61.8981 189.169 61.9733C188.734 62.0431 188.24 62.0592 187.682 62.0216L184.37 61.7747H184.359ZM185.653 60.7817L187.612 60.9266C188.219 60.9696 188.696 60.9481 189.051 60.8622C189.405 60.7763 189.689 60.6368 189.909 60.4489C190.221 60.1805 190.473 59.8102 190.672 59.3378C190.87 58.8655 190.994 58.2804 191.042 57.588C191.112 56.6272 191.01 55.8758 190.736 55.339C190.457 54.8023 190.103 54.4265 189.662 54.2172C189.346 54.0669 188.825 53.9649 188.106 53.9112L186.179 53.7663L185.658 60.7817H185.653Z" fill="#263238"/>
<path d="M193.645 62.4671L194.326 53.2886L200.96 53.7824L200.88 54.8666L195.459 54.4641L195.249 57.2767L200.327 57.6524L200.247 58.7313L195.169 58.3555L194.938 61.4794L200.574 61.8981L200.494 62.9824L193.645 62.4724V62.4671Z" fill="#263238"/>
<path d="M202.158 63.1004L202.84 53.9219L204.085 54.0131L208.368 61.576L208.905 54.3674L210.07 54.4533L209.388 63.6318L208.143 63.5405L203.86 55.9669L203.323 63.1809L202.158 63.095V63.1004Z" fill="#263238"/>
<path d="M91.5155 59.0108L91.6926 60.0628L91.8966 61.1846C92.0415 61.9307 92.1864 62.6822 92.3582 63.4283C92.6856 64.9151 93.0667 66.3858 93.4961 67.8135C93.7108 68.5274 93.9416 69.2252 94.1993 69.9069C94.4462 70.5886 94.7092 71.2595 94.999 71.8875C95.5787 73.1542 96.2389 74.3136 96.9689 75.2315L95.4982 74.2653C95.8417 74.4371 96.1692 74.582 96.7274 74.5498C97.2641 74.523 97.9888 74.3244 98.7295 73.954C99.4809 73.5997 100.265 73.1006 101.038 72.5262C101.424 72.2418 101.81 71.9412 102.192 71.6191C102.385 71.4635 102.573 71.3024 102.76 71.136C102.943 70.9858 103.147 70.7925 103.292 70.6798L103.582 70.449C104.441 69.762 105.702 69.9015 106.389 70.7603C106.877 71.3722 106.947 72.1827 106.641 72.8483C106.486 73.1864 106.373 73.4387 106.228 73.7232C106.088 73.997 105.943 74.2653 105.793 74.5283C105.482 75.0544 105.154 75.575 104.795 76.0742C104.07 77.0833 103.222 78.0441 102.186 78.9243C101.671 79.3645 101.086 79.7724 100.452 80.1482C99.8191 80.5239 99.1106 80.8567 98.3162 81.0875C97.5271 81.3236 96.6737 81.4793 95.7773 81.49C94.8809 81.5008 93.9738 81.3558 93.115 81.1089C92.6212 80.964 92.1918 80.701 91.8537 80.3575L91.6443 80.1428C90.1629 78.6291 89.0518 76.992 88.1608 75.3335C87.2537 73.6803 86.5398 71.9949 85.944 70.3041C85.3321 68.6187 84.8651 66.9118 84.4572 65.2049C84.2639 64.3461 84.0761 63.4927 83.9258 62.6285C83.8506 62.1937 83.7755 61.7643 83.7111 61.3242C83.6467 60.8733 83.593 60.4707 83.534 59.9447C83.2924 57.7333 84.8866 55.7473 87.098 55.5058C89.2236 55.275 91.1451 56.7457 91.4994 58.8283L91.5262 59L91.5155 59.0108Z" fill="#263238"/>
<path d="M103.189 70.3848C102.056 70.7444 100.73 72.0541 101.144 73.5892C101.562 75.1243 106.152 76.2891 106.302 73.514C104.976 70.8732 103.183 70.3848 103.183 70.3848H103.189Z" fill="white"/>
<path d="M102.583 71.8819L103.071 71.1358L108.085 69.7832C108.085 69.7832 108.815 72.9769 105.191 74.1953C104.934 74.2812 104.655 74.249 104.413 74.1202L102.969 73.3687C102.427 73.0842 102.245 72.3972 102.583 71.8873V71.8819Z" fill="#B55B52"/>
<path d="M64.7638 53.5627C71.1726 52.4033 79.8573 52.1778 86.1534 53.2567C89.3525 53.8042 91.6122 56.708 91.3277 59.9447C90.9681 64.0831 90.5065 67.7384 90.2703 70.61C90.5548 77.8884 89.9375 90.0512 89.9375 92.5901L63.2662 92.9658C62.08 89.6433 62.4665 74.6732 60.3839 59.6065C59.9867 56.7403 61.9136 54.0726 64.7584 53.5573L64.7638 53.5627Z" fill="#263238"/>
<path opacity="0.2" d="M78.4552 92.6276L77.9238 92.5632C79.4375 80.6204 77.9399 60.6102 77.9238 60.4116L78.4606 60.3687C78.4767 60.5726 79.9796 80.6311 78.4606 92.6329L78.4552 92.6276Z" fill="black"/>
<path d="M80.8764 53.8741C79.8244 53.5896 80.7744 52.5054 80.7744 52.5054C80.7744 52.5054 85.5462 52.5054 88.8419 53.1548C89.3464 53.5467 88.8043 54.0405 88.8043 54.0405C88.8043 54.0405 84.0003 54.7275 80.8818 53.8795L80.8764 53.8741Z" fill="#407BFF"/>
<path opacity="0.2" d="M79.3688 52.3443C79.3688 52.3443 80.9522 55.5219 78.832 58.4097C80.5121 58.4204 82.0526 59.4832 82.0526 59.4832C82.0526 59.4832 82.8094 56.7618 80.6785 52.6181C80.4477 52.2263 79.3688 52.3443 79.3688 52.3443Z" fill="black"/>
<path d="M81.0598 53.8848C81.4731 55.8224 77.8715 59.4831 77.8715 59.4831C77.8715 59.4831 71.5056 56.1445 71.0977 54.2283L81.0598 53.8848Z" fill="#407BFF"/>
<path opacity="0.2" d="M64.3772 63.0205C65.075 64.3678 64.2269 70.0251 61.6988 72.8055C61.5324 70.3472 61.3231 67.7815 61.0547 65.1622L64.3772 63.0205Z" fill="black"/>
<path d="M71.7841 43.939L79.0035 47.401C78.2359 49.4461 77.8709 51.5716 80.0126 52.5861C81.2256 53.1604 81.7785 54.7438 81.0539 55.9462C80.4366 56.9767 79.3899 57.8731 77.7689 58.0341C75.2623 58.2864 72.7932 56.6761 71.3601 55.1625C70.7697 54.5399 71.3494 53.8099 71.4245 52.9403C71.6982 49.8701 72.176 46.6549 71.7841 43.9336V43.939Z" fill="#B55B52"/>
<path opacity="0.2" d="M75.106 44.6313L78.9974 47.401C78.772 47.9914 78.5895 48.5819 78.4929 49.1562C76.8933 49.6822 74.3545 48.2866 74.3169 46.8965C74.2955 46.204 74.9503 44.9695 75.1113 44.6367L75.106 44.6313Z" fill="black"/>
<path d="M80.1625 32.2752C81.5366 33.397 83.1147 38.4103 81.0911 40.4393C78.1068 36.9718 77.7686 31.7599 80.1625 32.2752Z" fill="#263238"/>
<path d="M69.7866 38.0827C70.3341 42.3607 70.4307 44.8941 72.7495 46.9392C76.2331 50.0148 81.4127 47.6531 82.1588 43.2839C82.8298 39.3548 81.826 33.0158 77.5052 31.6202C73.2487 30.2407 69.2391 33.8048 69.7866 38.0827Z" fill="#B55B52"/>
<path d="M69.9221 41.7701C71.951 41.9204 72.6541 37.0145 71.3928 34.2395C72.273 34.6045 74.7797 34.2448 75.4828 33.0962C79.5246 34.2502 81.0382 34.2717 81.5589 32.597C82.0795 30.9277 75.7083 29.457 72.0261 30.246C68.344 31.035 69.4283 33.7027 69.4283 33.7027C69.4283 33.7027 63.1965 35.7155 69.9274 41.7648L69.9221 41.7701Z" fill="#263238"/>
<path d="M68.44 42.1028C69.0572 43.0743 69.9912 43.6755 70.8178 43.8741C72.0684 44.1747 72.4978 42.9187 71.9933 41.6573C71.537 40.5247 70.3347 39.0003 69.1592 39.2634C67.9998 39.5264 67.7368 40.9917 68.44 42.0974V42.1028Z" fill="#B55B52"/>
<path d="M75.5097 38.802C75.5311 39.1509 75.7351 39.4246 75.9659 39.4032C76.1967 39.3871 76.3631 39.0865 76.3416 38.7376C76.3202 38.3887 76.1162 38.115 75.8854 38.1364C75.6546 38.1525 75.4882 38.4531 75.5097 38.802Z" fill="#263238"/>
<path d="M80.2538 38.4153C80.2753 38.7642 80.4792 39.0326 80.7101 39.0165C80.9409 39.0003 81.1073 38.6998 81.0858 38.3509C81.0643 38.002 80.8603 37.7336 80.6295 37.7497C80.3987 37.7658 80.2323 38.0664 80.2538 38.4153Z" fill="#263238"/>
<path d="M79.4863 38.7754C79.4863 38.7754 80.4149 40.7345 81.3542 41.647C80.7745 42.2697 79.701 42.0872 79.701 42.0872L79.4863 38.7808V38.7754Z" fill="#A02724"/>
<path d="M77.3118 36.027C77.3118 36.027 77.3548 36.0807 77.3602 36.1183C77.387 36.231 77.3172 36.3384 77.2045 36.3652C76.088 36.6282 75.3903 35.9841 75.3581 35.9573C75.2775 35.8767 75.2722 35.7479 75.3527 35.6674C75.4332 35.5869 75.562 35.5815 75.6425 35.6567C75.6425 35.6567 76.2169 36.172 77.1079 35.9626C77.183 35.9465 77.2582 35.968 77.3065 36.0217L77.3118 36.027Z" fill="#263238"/>
<path d="M78.1829 37.0466C78.1507 37.0305 78.1292 37.0036 78.1078 36.9714C78.0487 36.8748 78.0809 36.746 78.1775 36.6869C79.1598 36.1019 80.024 36.5044 80.0615 36.5206C80.1635 36.5689 80.2065 36.6923 80.1582 36.7943C80.1098 36.8963 79.9864 36.9392 79.8844 36.8909C79.8576 36.8802 79.1813 36.5689 78.3976 37.0358C78.3332 37.0734 78.2527 37.0734 78.1883 37.0358L78.1829 37.0466Z" fill="#263238"/>
<path d="M82.2028 35.0929C82.1384 35.1144 82.0687 35.1036 82.0096 35.0553C81.3118 34.4756 80.5979 34.6903 80.5711 34.6957C80.4638 34.7279 80.3457 34.6689 80.3135 34.5615C80.2813 34.4542 80.3403 34.3361 80.4477 34.3039C80.4852 34.2931 81.3977 34.014 82.2726 34.7386C82.3585 34.8084 82.3746 34.9426 82.2995 35.0285C82.2726 35.0607 82.2404 35.0822 82.2028 35.0929Z" fill="#263238"/>
<path d="M105.599 88.5698C105.362 88.135 104.82 87.974 104.386 88.2101L97.8211 91.7581L94.7186 86.0148C94.4825 85.5801 93.9403 85.419 93.5056 85.6552C93.0708 85.8914 92.9098 86.4335 93.146 86.8683L96.2484 92.6115L73.6188 104.839C73.1841 105.075 73.023 105.617 73.2592 106.052C73.4954 106.487 74.0375 106.648 74.4723 106.411L105.239 89.7828C105.674 89.5467 105.835 89.0045 105.599 88.5698Z" fill="#263238"/>
<path d="M105.116 118.746C94.392 110.695 61.3333 107.453 72.7555 92.7509L89.937 92.5898C89.937 92.5898 114.112 104.994 115.406 117.962C116.753 131.445 119.142 152.685 119.142 152.685L112.486 155.047C112.486 155.047 102.771 129.003 105.111 118.741L105.116 118.746Z" fill="#407BFF"/>
<path opacity="0.2" d="M73.3464 100.131C72.9492 100.996 72.5789 101.903 72.2461 102.847C74.9191 105.88 80.1901 108.215 85.9011 110.389C84.162 107.276 80.2598 103.84 73.3518 100.131H73.3464Z" fill="black"/>
<path d="M112.561 157.403L119.442 155.632C119.86 155.525 120.338 155.509 120.757 155.696C123.161 156.781 124.697 156.459 127.074 156.308C129.925 156.131 129.28 159.185 127.284 159.706C123.977 160.565 124.224 160.377 121.406 161.112C120.768 161.279 119.452 161.617 119.452 161.617L118.336 160.935L117.789 162.025C117.789 162.025 115.615 162.556 114.165 162.91C113.763 163.007 113.36 162.755 113.301 162.347L112.571 157.403H112.561Z" fill="#263238"/>
<path d="M112.738 158.085C112.84 158.037 120.58 155.868 120.58 155.868L119.383 149.916L110.779 152.245L112.738 158.085Z" fill="#263238"/>
<path d="M64.5982 136.802C64.9257 117.243 60.8141 97.3348 63.2671 92.971L83.1914 92.6919C83.1914 92.6919 77.2334 125.3 75.6607 138.327C74.029 151.874 65.9992 187.096 65.9992 187.096L59.5742 187.198C59.5742 187.198 60.3364 150.849 64.5982 136.808V136.802Z" fill="#407BFF"/>
<path d="M59.3372 188.229L65.2523 188.137C65.687 188.132 66.1594 188.229 66.5244 188.513C68.6499 190.134 68.8968 190.188 71.2532 190.606C74.0765 191.106 72.8098 193.924 70.7433 193.956C67.3295 194.01 67.6086 193.886 64.6994 193.929C64.0446 193.94 61.5379 193.956 61.5379 193.956L61.0763 193.027L60.5557 193.956H59.7237C59.3211 193.956 58.9884 193.607 59.0152 193.204L59.3372 188.229Z" fill="#263238"/>
<path d="M59.3105 188.932C59.4125 188.91 66.7446 189.27 66.7446 189.27L67.233 182.571L59.2676 182.797L59.3159 188.932H59.3105Z" fill="#263238"/>
<path d="M79.1058 51.9579C79.1058 51.9579 80.9522 55.5166 78.832 58.4043C80.5121 58.4151 82.3478 59.1343 82.3478 59.1343C82.3478 59.1343 83.8453 55.5112 80.5443 52.2692C80.3135 51.8774 79.1058 51.9526 79.1058 51.9526V51.9579Z" fill="white"/>
<path d="M62.5354 95.0165C72.0628 95.5854 82.9857 95.7625 89.8186 95.0165C89.8937 95.0057 89.9635 94.9574 90.0064 94.8662C90.4359 93.9913 90.6452 92.4776 90.5969 91.2216C90.5915 91.0284 90.4734 90.8834 90.3392 90.8888C81.3218 91.2377 72.3633 91.2216 62.9433 90.8888C62.8359 90.8888 62.7393 90.9747 62.7018 91.1196C62.4012 92.22 62.2401 93.4169 62.2992 94.6783C62.3099 94.8662 62.4173 95.0111 62.5407 95.0218L62.5354 95.0165Z" fill="#263238"/>
<path opacity="0.2" d="M62.5354 95.0165C72.0628 95.5854 82.9857 95.7625 89.8186 95.0165C89.8937 95.0057 89.9635 94.9574 90.0064 94.8662C90.4359 93.9913 90.6452 92.4776 90.5969 91.2216C90.5915 91.0284 90.4734 90.8834 90.3392 90.8888C81.3218 91.2377 72.3633 91.2216 62.9433 90.8888C62.8359 90.8888 62.7393 90.9747 62.7018 91.1196C62.4012 92.22 62.2401 93.4169 62.2992 94.6783C62.3099 94.8662 62.4173 95.0111 62.5407 95.0218L62.5354 95.0165Z" fill="black"/>
<path d="M78.7879 96.4923C77.7573 96.4923 76.8341 96.3742 76.7697 96.3689L76.3134 96.3098L76.3027 95.8482C76.3027 95.7301 76.2329 92.9605 76.3886 90.7276L76.4208 90.2767L76.8663 90.2284C78.8899 90.0137 80.8597 90.1479 80.9403 90.1533L81.418 90.1855L81.4394 90.6632C81.4394 90.792 81.5629 93.8085 81.2569 95.7945L81.2086 96.1112L80.9081 96.2186C80.3337 96.4225 79.534 96.4816 78.7932 96.4816L78.7879 96.4923ZM77.3655 95.3544C78.1491 95.4242 79.4159 95.4832 80.2371 95.3007C80.4089 93.9052 80.3928 92.0695 80.3767 91.2053C79.754 91.1838 78.6215 91.1623 77.4245 91.259C77.344 92.8048 77.3494 94.5385 77.3601 95.3544H77.3655Z" fill="white"/>
<path d="M68.434 90.8781C68.434 90.8781 68.2783 93.8893 68.0583 95.8055C67.6342 96.2457 66.8398 95.9075 66.8398 95.9075C66.8398 95.9075 66.9955 93.1218 67.1887 90.9372C67.8275 90.7332 68.434 90.8728 68.434 90.8728V90.8781Z" fill="#407BFF"/>
<path d="M88.102 90.8781C88.102 90.8781 87.9463 93.8893 87.7262 95.8055C87.3022 96.2457 86.5078 95.9075 86.5078 95.9075C86.5078 95.9075 86.6635 93.1218 86.8567 90.9372C87.4954 90.7332 88.102 90.8728 88.102 90.8728V90.8781Z" fill="#407BFF"/>
<path d="M81.875 63.7019C82.1648 67.5826 84.6393 68.4575 84.9882 68.4468C85.3371 68.436 87.6719 67.4645 87.3821 63.5838C86.3945 63.6106 85.4605 63.1812 84.548 62.5371C83.7912 63.2778 82.9109 63.6911 81.875 63.6965V63.7019Z" fill="#407BFF"/>
<path d="M81.3594 31.921C84.1183 32.3826 85.1596 33.6708 78.944 34.4223C72.7284 35.1738 68.123 34.6048 68.123 34.6048C68.123 34.6048 76.4052 31.8996 81.354 31.921H81.3594Z" fill="#263238"/>
<path d="M67.624 34.9266C67.624 34.9266 73.0292 33.0963 81.5474 32.1033C81.687 30.3857 80.3451 29.135 80.3451 29.135C80.3451 29.135 83.4905 28.5715 81.9285 27.659C80.855 27.031 78.2893 26.9612 75.4553 25.1362C74.2905 26.199 71.1022 27.9274 68.923 28.1474C68.3809 29.0706 66.9746 31.3787 64.6934 32.2751C64.7256 33.2842 66.996 33.5418 66.996 33.5418C66.996 33.5418 66.8887 34.2181 67.6294 34.932L67.624 34.9266Z" fill="#407BFF"/>
<path opacity="0.8" d="M66.997 33.5366C71.6185 30.5362 76.052 29.2319 80.3514 29.1299C80.3514 29.1299 81.6933 30.3859 81.5538 32.0981C73.0355 33.0911 67.6304 34.9215 67.6304 34.9215C66.895 34.2076 66.997 33.5313 66.997 33.5313V33.5366Z" fill="#263238"/>
<path d="M75.1934 28.3138C75.7247 30.9547 77.5927 31.4324 77.8449 31.4163C78.0972 31.3948 79.7075 30.6219 79.1761 27.9811C78.4622 28.0455 77.7483 27.7986 77.0344 27.396C76.546 27.9381 75.9448 28.2602 75.1934 28.3138Z" fill="white"/>
<path d="M78.3267 36.5636C78.9386 36.6495 79.9423 41.2548 76.7433 41.5017C74.0541 41.7111 73.2168 39.242 73.2168 38.3832C73.2168 37.095 77.4572 36.4401 78.3213 36.5636H78.3267Z" fill="#263238"/>
<path d="M79.6795 36.5047C79.2984 36.7356 80.1519 41.6415 82.3847 41.1262C84.2634 40.6914 83.9467 38.0238 83.6408 37.165C83.1845 35.8767 80.2163 36.1773 79.6795 36.5047Z" fill="#263238"/>
<g opacity="0.2">
<path d="M77.1933 36.6118L78.8626 39.6552C78.7231 40.2349 78.4386 40.7663 77.9394 41.1098L75.6367 36.8963C76.1735 36.7675 76.7263 36.6709 77.1933 36.6118Z" fill="white"/>
<path d="M74.9614 37.0845L77.3231 41.4C77.1513 41.4536 76.9527 41.4859 76.7434 41.502C76.6092 41.5127 76.4857 41.5181 76.3569 41.5127L74.1133 37.4173C74.3602 37.2938 74.65 37.1865 74.9614 37.0791V37.0845Z" fill="white"/>
<path d="M82.3845 36.3115L83.8659 39.0113C83.8337 39.4783 83.7318 39.9453 83.4956 40.321L81.252 36.2148C81.633 36.2148 82.0249 36.2363 82.3845 36.3061V36.3115Z" fill="white"/>
<path d="M83.206 40.6914C83.0772 40.8202 82.9162 40.9276 82.7283 41.0135L80.168 36.3383C80.3397 36.3007 80.5437 36.2739 80.7638 36.2471L83.2006 40.6914H83.206Z" fill="white"/>
</g>
<path d="M112.518 66.0101C112.792 65.892 112.336 64.7971 112.057 64.9151L74.5216 80.6581C74.425 80.5132 74.2478 80.4488 74.0814 80.5186L72.5141 81.1788C72.3531 81.2486 72.2726 81.4203 72.3048 81.5867L67.372 83.6586C66.2663 84.1202 65.2787 84.8234 64.4789 85.7197L62.2675 88.1888C62.1816 89.375 61.1832 90.2875 59.9916 90.2607H59.6642L48.3172 97.1204C47.4638 97.6357 47.0451 98.6555 47.2974 99.627C47.7858 101.516 48.4568 103.035 49.2727 104.27C50.0456 105.445 51.7042 105.612 52.7186 104.64L64.2052 93.5993C64.6882 93.1323 64.9942 92.5097 65.0586 91.8387L65.1982 90.4217L67.678 87.6521C68.3811 88.8544 69.8787 89.3911 71.1991 88.8329C72.6376 88.2317 73.3193 86.5678 72.7127 85.1293C72.6966 85.0971 72.6751 85.0703 72.659 85.0381L73.5769 84.6516C73.6681 84.8019 73.856 84.8717 74.0224 84.8019L75.5897 84.1417C75.7561 84.0719 75.8366 83.8894 75.7937 83.7176L97.6879 74.5338C97.9402 74.4264 98.0636 74.1366 97.9563 73.8789L109.76 68.9301C109.942 68.8549 109.663 68.184 109.48 68.2591L108.605 68.6241L108.563 67.6687L112.508 66.0155L112.518 66.0101ZM70.9736 88.2801C69.8733 88.7417 68.6066 88.2478 68.102 87.1797L68.4294 86.8093L68.5958 86.7396C68.7407 86.9274 68.9018 87.1099 69.095 87.2602C69.6908 87.7272 70.4315 87.9312 71.183 87.8453L71.1132 87.2549C70.5228 87.3246 69.9377 87.1636 69.4654 86.7932C69.3526 86.7074 69.256 86.6108 69.1648 86.5034L72.1223 85.2635C72.1384 85.2957 72.1599 85.3225 72.176 85.3547C72.6537 86.4927 72.1169 87.8023 70.979 88.2801H70.9736ZM107.543 69.0696L97.6825 73.2026L97.3336 72.376L107.494 68.1142L107.537 69.0696H107.543Z" fill="#407BFF"/>
<path opacity="0.2" d="M112.518 66.0101C112.792 65.892 112.336 64.7971 112.057 64.9151L74.5216 80.6581C74.425 80.5132 74.2478 80.4488 74.0814 80.5186L72.5141 81.1788C72.3531 81.2486 72.2726 81.4203 72.3048 81.5867L67.372 83.6586C66.2663 84.1202 65.2787 84.8234 64.4789 85.7197L62.2675 88.1888C62.1816 89.375 61.1832 90.2875 59.9916 90.2607H59.6642L48.3172 97.1204C47.4638 97.6357 47.0451 98.6555 47.2974 99.627C47.7858 101.516 48.4568 103.035 49.2727 104.27C50.0456 105.445 51.7042 105.612 52.7186 104.64L64.2052 93.5993C64.6882 93.1323 64.9942 92.5097 65.0586 91.8387L65.1982 90.4217L67.678 87.6521C68.3811 88.8544 69.8787 89.3911 71.1991 88.8329C72.6376 88.2317 73.3193 86.5678 72.7127 85.1293C72.6966 85.0971 72.6751 85.0703 72.659 85.0381L73.5769 84.6516C73.6681 84.8019 73.856 84.8717 74.0224 84.8019L75.5897 84.1417C75.7561 84.0719 75.8366 83.8894 75.7937 83.7176L97.6879 74.5338C97.9402 74.4264 98.0636 74.1366 97.9563 73.8789L109.76 68.9301C109.942 68.8549 109.663 68.184 109.48 68.2591L108.605 68.6241L108.563 67.6687L112.508 66.0155L112.518 66.0101ZM70.9736 88.2801C69.8733 88.7417 68.6066 88.2478 68.102 87.1797L68.4294 86.8093L68.5958 86.7396C68.7407 86.9274 68.9018 87.1099 69.095 87.2602C69.6908 87.7272 70.4315 87.9312 71.183 87.8453L71.1132 87.2549C70.5228 87.3246 69.9377 87.1636 69.4654 86.7932C69.3526 86.7074 69.256 86.6108 69.1648 86.5034L72.1223 85.2635C72.1384 85.2957 72.1599 85.3225 72.176 85.3547C72.6537 86.4927 72.1169 87.8023 70.979 88.2801H70.9736ZM107.543 69.0696L97.6825 73.2026L97.3336 72.376L107.494 68.1142L107.537 69.0696H107.543Z" fill="black"/>
<path d="M98.0377 72.2902L87.6354 76.654C87.2758 76.8043 87.0986 77.2122 87.2275 77.5772L87.6515 78.7581C87.7964 79.1553 88.2366 79.3485 88.6284 79.1875L99.0307 74.8237C99.3903 74.6734 99.5674 74.2655 99.4386 73.9005L99.0146 72.7196C98.8697 72.3224 98.4295 72.1292 98.0377 72.2902Z" fill="#407BFF"/>
<path d="M104.656 68.2217L105.016 68.125C105.944 67.8728 106.937 68.1733 107.565 68.898L107.887 69.263C108.258 69.687 108.102 70.3418 107.581 70.5565L104.044 72.0165C103.62 72.1936 103.137 71.9843 102.97 71.5549C102.434 70.1647 103.217 68.6135 104.656 68.2217Z" fill="#B55B52"/>
<path d="M67.1893 60.8142L66.9209 61.1362L66.6096 61.5173L65.9763 62.3064C65.5576 62.8485 65.1336 63.396 64.7203 63.9488C63.8937 65.0653 63.0939 66.2139 62.321 67.3787C61.5319 68.5381 60.8234 69.7458 60.0934 70.9481C59.3957 72.1665 58.7193 73.3957 58.0806 74.6517L57.6083 75.5964L57.4902 75.8272C57.4902 75.8272 57.4633 75.8809 57.4526 75.9024C57.4204 75.9453 57.3936 76.0151 57.3667 76.0902C57.254 76.3801 57.152 76.8202 57.1198 77.3409C57.05 78.3822 57.1842 79.6704 57.4258 80.9693C57.9035 83.5833 58.8106 86.3905 59.7123 89.0582L59.7445 89.1602C60.0988 90.2122 59.5352 91.3555 58.4832 91.7098C57.6566 91.9889 56.7709 91.699 56.2556 91.0496C55.2358 89.756 54.3985 88.4731 53.5987 87.0883C52.8043 85.7089 52.0904 84.265 51.4946 82.7138C50.9096 81.1518 50.3996 79.4986 50.2386 77.5502C50.1635 76.5787 50.1581 75.5159 50.4104 74.3565C50.4694 74.0667 50.5392 73.7768 50.6466 73.4709L50.7968 73.02L50.9042 72.7355L51.3336 71.6298C52.493 68.683 53.9154 65.8436 55.5418 63.1222C56.363 61.7642 57.2272 60.4331 58.1719 59.1449C58.6442 58.5008 59.1273 57.862 59.6372 57.234C59.9002 56.9227 60.1471 56.606 60.4262 56.2947L60.8449 55.8224L61.3226 55.3071C62.8309 53.6754 65.3751 53.5734 67.0068 55.0817C68.5903 56.5416 68.7298 58.9839 67.3611 60.6156L67.1947 60.8142H67.1893Z" fill="#263238"/>
<path d="M71.393 54.2876C72.4718 53.9065 71.1031 52.7578 71.1031 52.7578C71.1031 52.7578 65.4135 52.9349 62.0266 53.8313C61.5221 54.3144 62.1018 54.8941 62.1018 54.8941C62.1018 54.8941 68.1939 55.4255 71.393 54.2929V54.2876Z" fill="#407BFF"/>
<path opacity="0.2" d="M71.307 52.6448C71.307 52.6448 72.1443 55.817 75.9821 58.4149C74.302 58.4256 71.935 60.0896 71.935 60.0896C71.935 60.0896 69.7021 57.2823 70.4911 52.8863C70.7219 52.4945 71.307 52.6501 71.307 52.6501V52.6448Z" fill="black"/>
<path d="M71.4185 52.0708C71.4185 52.0708 72.4168 55.5114 75.9809 58.4152C74.3009 58.426 71.7996 59.2526 71.7996 59.2526C71.7996 59.2526 69.7009 57.2827 70.4899 52.8867C70.7207 52.4948 71.4185 52.0762 71.4185 52.0762V52.0708Z" fill="white"/>
<path d="M59.1487 88.8115L62.4873 91.6832L58.0591 94.5602C58.0591 94.5602 55.3539 91.5919 56.6958 89.9011L59.1487 88.8115Z" fill="#B55B52"/>
<path d="M56.2352 91.2267C56.2352 91.2267 55.5428 90.6792 55.3281 90.0459C56.3909 88.9455 58.5379 88.0384 59.5094 87.7915C60.0999 88.3497 60.1267 89.5091 60.1267 89.5091C60.1267 89.5091 57.298 89.9976 56.2352 91.2267Z" fill="white"/>
<path d="M62.8625 96.2402L61.1396 96.9862C60.4525 97.2815 59.6528 97.0399 59.2502 96.4119L58.0586 94.5601L62.4868 91.6831L63.6462 94.2058C64.0005 94.9841 63.6462 95.902 62.8679 96.2402H62.8625Z" fill="#B55B52"/>
<path d="M76.2655 43.5202C78.112 42.3823 79.7383 43.123 79.8081 43.1552C79.8779 43.1874 79.9047 43.2679 79.8725 43.3377C79.8403 43.4075 79.7598 43.4343 79.69 43.4021C79.6739 43.3967 78.1227 42.6882 76.4051 43.751C76.3407 43.7886 76.2602 43.7725 76.2172 43.7081C76.1797 43.6437 76.1958 43.5631 76.2602 43.5256L76.2655 43.5202Z" fill="#263238"/>
<path d="M67.4844 63.6376L74.7252 63.3639L74.6983 62.7788L67.4629 63.0526L67.4844 63.6376Z" fill="white"/>
<path d="M130.145 194.573H116.088L126.302 113.432H140.36L130.145 194.573Z" fill="#407BFF"/>
<path opacity="0.4" d="M130.145 194.573H116.088L126.302 113.432H140.36L130.145 194.573Z" fill="black"/>
<path d="M114.832 194.573H116.088L126.302 113.432H125.046L114.832 194.573Z" fill="#263238"/>
<path d="M182.554 194.573H168.502L178.716 113.432H192.774L182.554 194.573Z" fill="#407BFF"/>
<path opacity="0.4" d="M182.554 194.573H168.502L178.716 113.432H192.774L182.554 194.573Z" fill="black"/>
<path d="M167.246 194.573H168.502L178.717 113.432H177.461L167.246 194.573Z" fill="#263238"/>
<path d="M143.152 184.922H194.122L191.9 167.258H140.93L143.152 184.922Z" fill="#407BFF"/>
<path d="M143.151 184.922H142.319L140.092 167.258H140.929L143.151 184.922Z" fill="#263238"/>
<path d="M191.313 168.031L193.342 184.149H190.331L182.242 168.031H191.313Z" fill="white"/>
<path d="M177.106 168.031L185.195 184.149H174.138L166.049 168.031H177.106Z" fill="white"/>
<path d="M160.913 168.031L169.001 184.149H157.939L149.855 168.031H160.913Z" fill="white"/>
<path d="M144.724 168.031L152.807 184.149H143.736L141.707 168.031H144.724Z" fill="white"/>
<path d="M189.242 194.573H203.299L193.08 113.432H179.027L189.242 194.573Z" fill="#407BFF"/>
<path opacity="0.2" d="M183.578 149.583L198.366 155.39L194.12 121.693H180.062L183.578 149.583Z" fill="black"/>
<path d="M189.241 194.573H187.985L177.766 113.432H179.027L189.241 194.573Z" fill="#263238"/>
<path d="M136.828 194.573H150.885L140.666 113.432H126.613L136.828 194.573Z" fill="#407BFF"/>
<path opacity="0.2" d="M131.165 149.583L145.952 155.39L141.707 121.693H127.654L131.165 149.583Z" fill="black"/>
<path d="M136.828 194.573H135.572L125.357 113.432H126.613L136.828 194.573Z" fill="#263238"/>
<path d="M125.551 145.836H202.301L198.957 119.24H122.201L125.551 145.836Z" fill="#407BFF"/>
<path d="M125.551 145.836H124.295L120.945 119.24H122.201L125.551 145.836Z" fill="#263238"/>
<path d="M198.071 120.404L201.131 144.676H196.595L184.416 120.404H198.071Z" fill="white"/>
<path d="M176.681 120.404L188.86 144.676H172.205L160.031 120.404H176.681Z" fill="white"/>
<path d="M152.298 120.404L164.477 144.676H147.822L135.643 120.404H152.298Z" fill="white"/>
<path d="M127.918 120.404L140.091 144.676H126.431L123.377 120.404H127.918Z" fill="white"/>
</g>
<defs>
<clipPath id="clip0_6073_22898">
<rect width="268.377" height="200" fill="white" transform="translate(0.310547)"/>
</clipPath>
</defs>
</svg>
