<svg width="269" height="200" viewBox="0 0 269 200" fill="none" xmlns="http://www.w3.org/2000/svg">
<g clip-path="url(#clip0_6073_23271)">
<path d="M268.688 175.76H0.310547V175.894H268.688V175.76Z" fill="#EBEBEB"/>
<path d="M241.797 184.396H230.16V184.531H241.797V184.396Z" fill="#EBEBEB"/>
<path d="M185.315 181.611H167.006V181.745H185.315V181.611Z" fill="#EBEBEB"/>
<path d="M237.083 179.416H213.182V179.55H237.083V179.416Z" fill="#EBEBEB"/>
<path d="M93.1806 182.121H87.2012V182.255H93.1806V182.121Z" fill="#EBEBEB"/>
<path d="M82.4185 182.121H61.8125V182.255H82.4185V182.121Z" fill="#EBEBEB"/>
<path d="M50.7704 179.855H35.9023V179.99H50.7704V179.855Z" fill="#EBEBEB"/>
<path d="M127.527 151.821H23.8793C22.1885 151.821 20.8145 150.447 20.8145 148.756V3.06487C20.8145 1.37409 22.1885 0 23.8793 0H127.527C129.217 0 130.591 1.37409 130.591 3.06487V148.756C130.591 150.447 129.217 151.821 127.527 151.821ZM23.8793 0.134189C22.2637 0.134189 20.9486 1.44924 20.9486 3.06487V148.756C20.9486 150.372 22.2637 151.687 23.8793 151.687H127.527C129.142 151.687 130.457 150.372 130.457 148.756V3.06487C130.457 1.44924 129.142 0.134189 127.527 0.134189H23.8793Z" fill="#EBEBEB"/>
<path d="M243.626 151.821H139.979C138.288 151.821 136.914 150.447 136.914 148.756V3.06487C136.914 1.37409 138.288 0 139.979 0H243.626C245.317 0 246.691 1.37409 246.691 3.06487V148.756C246.691 150.447 245.317 151.821 243.626 151.821ZM139.979 0.134189C138.363 0.134189 137.048 1.44924 137.048 3.06487V148.756C137.048 150.372 138.363 151.687 139.979 151.687H243.626C245.242 151.687 246.557 150.372 246.557 148.756V3.06487C246.557 1.44924 245.242 0.134189 243.626 0.134189H139.979Z" fill="#EBEBEB"/>
<path d="M116.288 78.3283L116.529 71.2754L112.198 69.8583C112.02 67.4483 111.618 65.0705 111.044 62.7732L114.715 60.068L112.224 53.4444L107.683 53.8094C106.599 51.6677 105.327 49.6281 103.905 47.7172L106.256 43.7936L101.42 38.6354L97.3617 40.7126C95.5313 39.1614 93.6044 37.7497 91.5433 36.5098L92.1981 32.0064L85.757 29.0811L82.8049 32.5378C80.5559 31.8078 78.2264 31.2604 75.8164 30.9007L74.7214 26.4832L67.647 26.2417L66.2514 30.5733C63.8199 30.7719 61.4636 31.153 59.1662 31.7273L56.4395 28.0774L49.816 30.5518L50.181 35.0928C48.0393 36.1931 45.9997 37.4652 44.0888 38.8876L40.1812 36.5366L35.0016 41.3513L37.0788 45.4307C35.5276 47.2395 34.1159 49.1879 32.8921 51.2491L28.3888 50.5728L25.4473 57.0138L28.9255 59.966C28.1955 62.215 27.6319 64.5606 27.2884 66.9545L22.8548 68.071L22.6133 75.1239L26.961 76.5409C27.1381 78.9671 27.5407 81.3288 28.115 83.6207L24.4436 86.326L26.9342 92.9495L31.4751 92.5845C32.5593 94.7262 33.8314 96.7658 35.2538 98.6767L32.9029 102.6L37.739 107.759L41.7969 105.681C43.6057 107.233 45.5542 108.644 47.6153 109.889L46.939 114.393L53.38 117.318L56.3483 113.861C58.5973 114.591 60.9268 115.139 63.3368 115.499L64.4318 119.916L71.5062 120.158L72.9018 115.826C75.3279 115.627 77.6896 115.246 79.9816 114.672L82.6868 118.322L89.3104 115.847L88.9615 111.307C91.1031 110.206 93.1213 108.934 95.0536 107.506L98.9612 109.857L104.141 105.043L102.064 100.963C103.615 99.1544 105.027 97.206 106.25 95.1448L110.754 95.8212L113.695 89.3801L110.217 86.428C110.947 84.179 111.511 81.8494 111.854 79.4394L116.272 78.323L116.288 78.3283ZM68.6239 101.178C53.1761 100.647 41.083 87.6947 41.609 72.2469C42.1404 56.783 55.0923 44.6846 70.5401 45.216C85.9879 45.7473 98.0809 58.6992 97.5549 74.1631C97.0235 89.6109 84.0716 101.704 68.6239 101.178Z" fill="#EBEBEB"/>
<path d="M236.998 55.001L238.775 53.3424L238.066 51.9415C238.608 51.3081 239.092 50.6318 239.51 49.934L241.067 50.1702L242.076 47.948L240.879 46.9282C241.137 46.1445 241.324 45.334 241.443 44.5235L242.972 44.1424L243.053 41.7055L241.555 41.2225C241.491 40.3959 241.362 39.5854 241.163 38.7802L242.425 37.8409L241.566 35.5597L240.004 35.6832C239.634 34.9586 239.199 34.2554 238.7 33.5791L239.51 32.2372L237.846 30.4552L236.451 31.1691C235.812 30.6269 235.141 30.1439 234.443 29.7252L234.669 28.1686L232.452 27.1541L231.432 28.3511C230.643 28.0988 229.833 27.911 229.022 27.7929L228.641 26.2685L226.204 26.1826L225.716 27.6855C224.894 27.7499 224.079 27.8788 223.273 28.0827L222.339 26.8214L220.053 27.6748L220.182 29.2421C219.457 29.6125 218.743 30.0472 218.078 30.5464L216.725 29.7359L214.948 31.3945L215.662 32.8008C215.115 33.4342 214.637 34.1105 214.218 34.8083L212.662 34.5721L211.653 36.7943L212.85 37.8141C212.592 38.5977 212.404 39.4082 212.286 40.2187L210.756 40.5998L210.676 43.0367L212.173 43.5198C212.238 44.341 212.367 45.1569 212.565 45.962L211.304 46.896L212.163 49.1772L213.73 49.0591C214.1 49.7837 214.535 50.4869 215.034 51.1632L214.224 52.505L215.888 54.2871L217.283 53.5732C217.922 54.1153 218.593 54.5984 219.291 55.0171L219.06 56.5683L221.277 57.5827L222.297 56.3911C223.086 56.6434 223.891 56.8259 224.707 56.9494L225.088 58.4738L227.524 58.5596L228.013 57.0567C228.834 56.9923 229.65 56.8635 230.455 56.6595L231.389 57.9209L233.676 57.0675L233.547 55.5001C234.271 55.1298 234.98 54.7004 235.651 54.1958L236.998 55.001ZM224.32 44.7328C223.01 43.3319 223.086 41.1312 224.486 39.8269C225.887 38.5172 228.088 38.5924 229.398 39.9933C230.707 41.3942 230.632 43.5949 229.226 44.9046C227.825 46.2143 225.624 46.1391 224.32 44.7382V44.7328Z" fill="#EBEBEB"/>
<path d="M172.067 127.415L166.517 123.582V123.571C165.969 121.553 165.212 119.616 164.284 117.791L165.706 112.208L157.655 103.588L151.987 104.624C150.232 103.577 148.348 102.686 146.378 102.005C146.378 102.005 146.367 102.005 146.362 102.005L142.916 96.2024L131.128 95.7998L127.296 101.35C127.296 101.35 127.28 101.35 127.275 101.35C125.262 101.897 123.319 102.654 121.499 103.577L115.922 102.155L107.302 110.206L108.338 115.864C107.27 117.64 106.4 119.524 105.719 121.494L99.9162 124.94L99.5137 136.733L105.069 140.57C105.617 142.599 106.352 144.537 107.297 146.378L105.88 151.944L113.931 160.565L119.561 159.534C121.338 160.586 123.227 161.472 125.224 162.159L128.665 167.95L140.452 168.353L144.284 162.808C146.324 162.261 148.267 161.504 150.108 160.575L155.664 161.992L164.284 153.941L163.248 148.284C164.316 146.507 165.186 144.623 165.867 142.648L171.67 139.202L172.072 127.409L172.067 127.415ZM135.326 145.337C127.999 145.085 122.272 138.933 122.524 131.623C122.777 124.296 128.906 118.569 136.238 118.821C143.565 119.073 149.292 125.203 149.04 132.535C148.788 139.84 142.658 145.589 135.326 145.337Z" fill="#EBEBEB"/>
<path d="M184.713 93.9318C184.713 93.9318 184.686 93.9318 184.676 93.9318L175.379 93.6151C174.993 93.6044 174.638 93.3951 174.445 93.0623L171.944 88.8488C170.613 88.3657 169.303 87.7591 168.036 87.0345L164.005 87.7699C163.624 87.8397 163.238 87.7108 162.975 87.4264L156.625 80.6311C156.362 80.3466 156.26 79.9494 156.357 79.579L157.371 75.6017C156.754 74.3403 156.238 72.9984 155.836 71.5921L151.794 68.801C151.477 68.5809 151.29 68.2159 151.306 67.8295L151.622 58.5329C151.633 58.1464 151.842 57.7922 152.175 57.5989L156.399 55.0923C156.899 53.7236 157.505 52.4139 158.208 51.2008L157.468 47.1591C157.398 46.778 157.527 46.3915 157.811 46.1285L164.612 39.7787C164.896 39.5157 165.293 39.4137 165.664 39.5103L169.652 40.5301C170.945 39.9021 172.282 39.3869 173.651 38.9897L176.442 34.9479C176.662 34.6312 177.022 34.4326 177.413 34.4595L186.71 34.7761C187.096 34.7869 187.451 34.9962 187.644 35.329L190.151 39.5533C191.482 40.0417 192.786 40.6482 194.031 41.3621L198.084 40.6214C198.465 40.5516 198.851 40.6804 199.114 40.9649L205.464 47.7656C205.727 48.0501 205.829 48.4473 205.733 48.8176L204.713 52.8111C205.341 54.1047 205.856 55.4412 206.253 56.8099L210.29 59.601C210.606 59.8211 210.789 60.1861 210.778 60.5725L210.461 69.8691C210.451 70.2556 210.241 70.6099 209.908 70.8031L205.684 73.3097C205.185 74.6785 204.579 75.9828 203.875 77.1958L204.616 81.243C204.686 81.6241 204.557 82.0105 204.273 82.2735L197.477 88.618C197.193 88.881 196.801 88.983 196.425 88.8863L192.453 87.8719C191.144 88.5052 189.796 89.0205 188.433 89.4124L185.647 93.4487C185.432 93.7547 185.089 93.9372 184.713 93.9372V93.9318ZM176.077 91.3661L184.134 91.6399L186.801 87.7753C186.951 87.5552 187.182 87.3942 187.44 87.3244C188.921 86.9272 190.397 86.3636 191.814 85.6443C191.814 85.6443 191.814 85.6443 191.82 85.6443C192.056 85.5263 192.335 85.494 192.604 85.5638L196.382 86.5246L202.276 81.0229L201.573 77.1744C201.524 76.9006 201.573 76.6215 201.718 76.3853C202.496 75.0971 203.156 73.6801 203.677 72.1825C203.763 71.9142 203.945 71.6941 204.181 71.5545L208.218 69.1552L208.491 61.0986L204.627 58.4309C204.423 58.2913 204.273 58.0874 204.197 57.8566C204.187 57.8297 204.181 57.7975 204.171 57.7653C203.768 56.2839 203.204 54.8293 202.501 53.4445C202.378 53.1975 202.346 52.9184 202.415 52.6501L203.382 48.8498L197.88 42.9563L194.021 43.6648C193.752 43.7131 193.473 43.6648 193.237 43.5252C191.895 42.7255 190.478 42.0653 189.023 41.5553C188.943 41.5285 188.857 41.4909 188.787 41.4426C188.632 41.346 188.503 41.2118 188.406 41.0562L186.007 37.0144L177.95 36.7407L175.282 40.6053C175.121 40.8361 174.885 40.9971 174.617 41.0615C173.125 41.4695 171.675 42.0277 170.296 42.7308C170.049 42.8543 169.77 42.8865 169.502 42.8167L165.701 41.8506L159.808 47.3523L160.511 51.2008C160.554 51.4424 160.522 51.6946 160.409 51.9093C160.393 51.9415 160.377 51.9684 160.355 52.0006C159.577 53.2942 158.917 54.7166 158.396 56.2195C158.31 56.4717 158.133 56.6864 157.902 56.8206L153.861 59.2199L153.587 67.2766L157.457 69.9496C157.677 70.0999 157.838 70.3254 157.908 70.5884C158.326 72.1342 158.885 73.5996 159.577 74.9468C159.615 75.022 159.647 75.1079 159.668 75.1884C159.711 75.3709 159.711 75.5587 159.668 75.7412L158.702 79.5253L164.204 85.4189L168.036 84.7158C168.305 84.6674 168.584 84.7158 168.815 84.8553C170.183 85.6604 171.606 86.326 173.05 86.8252C173.313 86.9057 173.538 87.0828 173.678 87.3244L176.071 91.3608L176.077 91.3661ZM181.053 81.1893C180.854 81.1893 180.655 81.1893 180.457 81.1785C171.09 80.8565 163.737 72.9769 164.054 63.6159C164.376 54.2496 172.266 46.896 181.616 47.2127C190.983 47.5348 198.336 55.4143 198.019 64.7753C197.864 69.3055 195.953 73.5083 192.636 76.6054C189.464 79.5737 185.368 81.1839 181.047 81.1839L181.053 81.1893ZM181.031 49.4725C173.141 49.4725 166.592 55.7525 166.319 63.6965C166.04 71.8122 172.416 78.6397 180.532 78.9188C184.466 79.053 188.213 77.6467 191.09 74.9576C193.962 72.2738 195.62 68.6292 195.754 64.7056C196.033 56.5898 189.657 49.7623 181.541 49.4832C181.369 49.4778 181.197 49.4725 181.031 49.4725Z" fill="#EBEBEB"/>
<path d="M206.125 27.0363L202.276 26.0004L201.24 22.1518L202.749 20.6436L204.337 23.9392L207.633 25.528L206.125 27.0363Z" fill="#E0E0E0"/>
<path d="M206.361 24.4598C207.064 23.7566 207.064 22.6134 206.361 21.9156C205.658 21.2124 204.52 21.2178 203.822 21.9156L205.738 19.0439L208.31 20.3429L208.873 23.0428L206.366 24.4598H206.361Z" fill="#E0E0E0"/>
<path d="M202.443 20.9493L205.267 18.126L209.115 19.1619L210.151 23.0104L207.328 25.8338L203.479 24.7978L202.443 20.9493ZM207.569 23.2573C208.273 22.5542 208.273 21.4109 207.569 20.7131C206.866 20.01 205.728 20.0154 205.031 20.7131C204.327 21.4163 204.327 22.5488 205.031 23.2466C205.734 23.9498 206.872 23.9551 207.569 23.2466V23.2573Z" fill="#F0F0F0"/>
<path d="M48.7382 129.765L50.8047 129.207L51.3576 127.141L50.5525 126.335L49.699 128.101L47.9277 128.955L48.7382 129.765Z" fill="#E0E0E0"/>
<path d="M48.6095 128.38C48.2337 128.005 48.2337 127.393 48.6095 127.012C48.9852 126.631 49.5971 126.636 49.9728 127.012L48.9476 125.471L47.5682 126.169L47.2676 127.618L48.6095 128.38Z" fill="#E0E0E0"/>
<path d="M50.7131 126.497L49.1994 124.983L47.1329 125.536L46.5801 127.602L48.0937 129.116L50.1602 128.563L50.7131 126.497ZM47.9649 127.736C47.5892 127.361 47.5892 126.749 47.9649 126.368C48.3406 125.987 48.9525 125.992 49.3283 126.368C49.704 126.743 49.704 127.35 49.3283 127.731C48.9525 128.112 48.3406 128.112 47.9649 127.731V127.736Z" fill="#F0F0F0"/>
<path d="M41.297 16.4834L43.0093 18.1957C43.4548 18.6412 44.1848 18.6412 44.6303 18.1957C45.0758 17.7502 45.0758 17.0202 44.6303 16.5747L42.918 14.8624C42.4725 14.4169 41.7425 14.4169 41.297 14.8624C40.8515 15.308 40.8515 16.0379 41.297 16.4834Z" fill="#F0F0F0"/>
<path d="M40.0897 12.2109C41.4101 11.7386 42.8432 12.3559 43.2887 13.5958C43.7342 14.8357 43.0257 16.2259 41.7053 16.7036C40.3849 17.1759 38.9517 16.5586 38.5062 15.3187C38.0607 14.0788 38.7692 12.6886 40.0897 12.2109Z" fill="#E0E0E0"/>
<path d="M38.2182 15.0301L38.4668 15.7222L43.5688 13.8894L43.3202 13.1973L38.2182 15.0301Z" fill="#F0F0F0"/>
<path d="M134.499 200C191.976 200 238.57 197.279 238.57 193.924C238.57 190.568 191.976 187.848 134.499 187.848C77.022 187.848 30.4277 190.568 30.4277 193.924C30.4277 197.279 77.022 200 134.499 200Z" fill="#F5F5F5"/>
<path d="M46.8579 35.2594C46.3212 32.8977 46.5627 30.9063 47.5772 29.2907C48.597 27.675 50.2771 26.6015 52.628 26.0648C55.0381 25.5173 57.0402 25.7427 58.6397 26.7411C60.2392 27.7395 61.302 29.4034 61.8334 31.7329C62.2198 33.4237 62.2467 34.8783 61.9246 36.0913C61.6026 37.3044 60.9692 38.335 60.0299 39.1831C59.0906 40.0311 57.8185 40.6377 56.2082 41.0026C54.5765 41.373 53.1648 41.4213 51.9786 41.1422C50.7923 40.8631 49.7349 40.2405 48.8171 39.2636C47.8939 38.2867 47.2444 36.9555 46.8579 35.2647V35.2594ZM51.3345 34.261C51.6672 35.721 52.1772 36.714 52.8642 37.2239C53.5513 37.7392 54.3618 37.8895 55.3011 37.6748C56.2619 37.4547 56.9328 36.977 57.3193 36.2309C57.7057 35.4848 57.7111 34.304 57.3461 32.683C57.0348 31.3196 56.5356 30.3856 55.8432 29.8811C55.1508 29.3766 54.3349 29.2316 53.3902 29.4463C52.4885 29.6503 51.8336 30.1334 51.4364 30.8956C51.0339 31.6578 51.0017 32.7796 51.3398 34.2503L51.3345 34.261Z" fill="#263238"/>
<path d="M63.9637 33.4883C63.5987 31.8888 63.8403 30.4449 64.683 29.1621C65.5257 27.8792 66.8675 27.0311 68.7032 26.6125C70.802 26.1348 72.5303 26.3817 73.8776 27.3586C74.9618 28.1422 75.6703 29.2533 75.9977 30.6918C76.3627 32.3074 76.1319 33.7513 75.2946 35.0234C74.4573 36.2955 73.0939 37.149 71.2045 37.5784C69.5191 37.9595 68.0591 37.8467 66.8246 37.2241C65.3056 36.4565 64.3502 35.2113 63.9583 33.4937L63.9637 33.4883ZM67.9894 32.5651C68.2041 33.499 68.5476 34.1485 69.0307 34.5081C69.5084 34.8678 70.0398 34.9858 70.6087 34.857C71.1884 34.7228 71.6125 34.3954 71.8862 33.8694C72.1599 33.3434 72.1814 32.5919 71.9613 31.6204C71.752 30.7133 71.4139 30.0745 70.9361 29.7203C70.4584 29.3607 69.9431 29.2426 69.3903 29.3714C68.8052 29.5056 68.3705 29.8384 68.0913 30.3805C67.8122 30.9172 67.7747 31.6472 67.9894 32.5704V32.5651Z" fill="#263238"/>
<path d="M80.0618 39.5107L76.7715 25.029L80.5341 24.1756L80.8884 25.7268C81.2587 24.9593 81.6398 24.4064 82.0209 24.079C82.5362 23.6388 83.1481 23.3329 83.862 23.1719C85.2629 22.8552 86.4706 23.145 87.4797 24.0414C88.4888 24.9378 89.1759 26.1777 89.5355 27.7611C89.9327 29.5056 89.8146 30.9333 89.192 32.039C88.564 33.1501 87.6139 33.8479 86.3364 34.1378C85.7192 34.2773 85.1287 34.2988 84.5705 34.2075C84.0123 34.1109 83.4863 33.9016 82.9871 33.5795L84.125 38.5874L80.0672 39.5107H80.0618ZM81.9995 29.3875C82.1873 30.2194 82.504 30.7938 82.9442 31.1158C83.3843 31.4379 83.8727 31.5399 84.4041 31.4164C84.8711 31.3091 85.22 31.0299 85.4508 30.5737C85.6816 30.1175 85.687 29.4251 85.4776 28.5072C85.2844 27.6591 84.9785 27.0741 84.5598 26.7466C84.1411 26.4246 83.6956 26.3172 83.2179 26.4246C82.7026 26.5427 82.3215 26.8379 82.0693 27.321C81.817 27.7987 81.7955 28.4911 81.9995 29.3928V29.3875Z" fill="#263238"/>
<path d="M91.2528 29.7094L95.155 28.4265C95.4288 28.8613 95.7347 29.1511 96.0783 29.2853C96.4218 29.4195 96.8405 29.4356 97.3343 29.3229C97.8764 29.1995 98.2682 28.9901 98.5098 28.6949C98.703 28.4695 98.7674 28.2333 98.7084 27.9757C98.644 27.6858 98.44 27.4979 98.1018 27.4067C97.8603 27.3423 97.2538 27.3369 96.2769 27.3852C94.8276 27.4604 93.8024 27.455 93.212 27.3691C92.6216 27.2832 92.0848 27.0363 91.6017 26.6284C91.1187 26.2205 90.802 25.6998 90.6624 25.0664C90.5068 24.374 90.5712 23.7353 90.861 23.1449C91.1509 22.5544 91.6178 22.0553 92.2673 21.6473C92.9168 21.2394 93.8346 20.9012 95.0155 20.6329C96.2661 20.3484 97.2108 20.2357 97.8496 20.2893C98.4883 20.343 99.0519 20.5309 99.5403 20.8368C100.029 21.1481 100.485 21.6151 100.904 22.2431L97.1786 23.483C97.0015 23.1717 96.7814 22.9624 96.5184 22.855C96.1534 22.7155 95.7508 22.6994 95.3 22.8013C94.8437 22.9033 94.5324 23.059 94.3607 23.2683C94.1889 23.4777 94.1298 23.6977 94.1835 23.9285C94.2426 24.1862 94.4197 24.3472 94.7095 24.4223C95.0048 24.4921 95.6006 24.4814 96.5077 24.3848C97.8764 24.2345 98.9231 24.2184 99.6316 24.3365C100.345 24.4599 100.931 24.7283 101.392 25.1523C101.854 25.5764 102.149 26.0863 102.283 26.6821C102.423 27.2886 102.369 27.9166 102.138 28.5715C101.902 29.2263 101.43 29.8114 100.721 30.332C100.013 30.8473 98.9767 31.2606 97.6241 31.5719C95.7079 32.0067 94.2801 32.0442 93.3462 31.6846C92.4069 31.325 91.7091 30.6648 91.2528 29.7094Z" fill="#263238"/>
<path d="M104.361 16.4302L108.768 16.4033L108.79 19.7849L107.979 26.5855L105.252 26.6017L104.383 19.8117L104.361 16.4302ZM104.576 27.643L108.688 27.6215L108.709 31.2553L104.597 31.2768L104.576 27.643Z" fill="#263238"/>
<path d="M69.3805 62.6017C69.3483 62.6017 69.3161 62.5963 69.2839 62.5856C66.8685 61.6516 65.4246 60.7338 64.6732 59.6388C64.1257 59.7461 63.5192 59.6764 62.9395 59.4026C62.3759 59.1342 61.8337 58.6673 61.4473 57.9963C61.0823 58.2754 60.6368 58.3506 60.143 58.2003C59.5955 58.0285 59.0319 57.5723 58.5595 56.9067C58.259 57.1214 57.953 57.1536 57.7276 57.1375C56.1334 57.0087 53.9703 53.8311 53.8146 50.4442C53.8093 50.2939 53.922 50.1704 54.0723 50.1651C54.2172 50.1543 54.346 50.2724 54.3514 50.4227C54.4963 53.6379 56.5575 56.5041 57.7705 56.6008C57.9691 56.6222 58.1301 56.5578 58.2697 56.4505C57.5397 55.173 57.164 53.348 57.7222 51.3996C58.1838 49.7893 58.5917 49.156 59.0802 49.2741C60.0034 49.5049 59.8853 53.0152 59.3915 55.334C59.2788 55.86 59.1178 56.2358 58.9353 56.5041C59.3593 57.1321 59.8585 57.5508 60.2986 57.6904C60.6905 57.8138 60.9803 57.7118 61.195 57.5025C60.771 56.4612 60.6851 55.0495 61.2594 53.2407C62.0109 50.8629 62.3168 50.7984 62.4993 50.7609C62.6281 50.734 62.757 50.777 62.8428 50.879C63.3367 51.4372 62.7462 55.1301 62.1236 56.955C62.0431 57.1912 61.9411 57.4005 61.823 57.5776C62.1558 58.2325 62.6496 58.678 63.1595 58.9195C63.5728 59.1181 63.9969 59.1879 64.378 59.1503C64.3297 59.0484 64.2867 58.9464 64.2491 58.839C63.8251 57.685 64.0291 56.3539 64.8825 54.7704C65.4515 53.7184 65.9131 53.2299 66.3371 53.2299C66.4659 53.2299 66.6967 53.2782 66.8685 53.5842C67.3355 54.4484 66.9973 57.2985 66.0741 58.7102C65.854 59.043 65.5535 59.2953 65.2046 59.4617C65.9238 60.4063 67.2872 61.2383 69.4718 62.0864C69.6113 62.1401 69.6811 62.2957 69.6274 62.4353C69.5845 62.5426 69.4825 62.607 69.3751 62.607L69.3805 62.6017ZM66.3478 53.7613C66.3478 53.7613 66.0419 53.7613 65.3656 55.0227C64.5873 56.4612 64.3941 57.6474 64.7591 58.6512C64.802 58.7746 64.8557 58.8927 64.9201 59.0108C65.2046 58.8873 65.4515 58.6887 65.6286 58.4204C66.3801 57.2717 66.7397 54.91 66.4606 53.9868C66.4015 53.7989 66.3425 53.7667 66.3425 53.7667L66.3478 53.7613ZM62.4993 51.5016C62.3598 51.7646 62.129 52.296 61.7801 53.3963C61.3185 54.8509 61.3185 56.0157 61.5761 56.9121C61.5922 56.8691 61.6083 56.8208 61.6244 56.7779C62.2578 54.9315 62.5637 52.3926 62.4993 51.5016ZM58.9621 49.8108C58.8709 49.8967 58.6132 50.2349 58.2375 51.5392C57.7437 53.2621 58.0496 54.8348 58.6293 55.9674C58.742 55.7366 58.8172 55.4682 58.8709 55.2159C59.4291 52.5805 59.2681 50.1973 58.9621 49.8162V49.8108Z" fill="#263238"/>
<path d="M89.7882 90.733C88.9724 90.733 88.1082 90.5451 87.3406 90.0942C87.2118 90.0191 87.1689 89.8527 87.244 89.7292C87.3192 89.6004 87.4855 89.5575 87.609 89.6326C89.5252 90.7544 91.9997 89.9708 92.5096 89.1549C92.5686 89.0583 92.6223 88.9348 92.5901 88.7953C91.8333 88.8758 90.8993 88.6772 89.8365 88.0063C88.4732 87.1528 88.3658 86.9005 88.3712 86.6966C88.3712 86.5785 88.4463 86.4711 88.5537 86.4175C89.0904 86.1491 91.5112 87.2602 92.5203 87.9257C92.6545 88.0116 92.7618 88.1082 92.8531 88.2049C93.2986 88.0975 93.6475 87.8667 93.8729 87.5876C94.0286 87.3997 94.1359 87.1904 94.1896 86.9864C94.152 86.9864 94.1198 86.9972 94.0823 86.9972C93.2234 87.083 92.3646 86.7127 91.4468 85.87C90.8188 85.2849 90.5719 84.8877 90.6524 84.5657C90.6792 84.4637 90.7651 84.2812 91.0389 84.2168C91.7796 84.0343 93.6153 84.8126 94.3614 85.6338C94.5278 85.8163 94.6458 86.0364 94.7049 86.2672C95.4027 85.9398 96.1488 85.199 97.0237 83.9752C97.1095 83.8571 97.2759 83.8249 97.3994 83.9108C97.5175 83.9967 97.5497 84.1631 97.4638 84.2866C96.4493 85.7036 95.6066 86.5087 94.7532 86.8361C94.721 87.2119 94.5653 87.5983 94.2862 87.9311C94.0125 88.2585 93.6153 88.5376 93.1161 88.6879C93.1698 88.9295 93.1161 89.1871 92.9658 89.434C92.5149 90.164 91.216 90.733 89.7882 90.733ZM89.3105 87.0079C89.493 87.1421 89.7507 87.3192 90.121 87.55C90.851 88.0063 91.5005 88.2156 92.0533 88.2585C91.1623 87.7057 90.0029 87.2172 89.3105 87.0079ZM91.1838 84.7267C91.216 84.8126 91.3341 85.0326 91.8118 85.4728C92.6115 86.2081 93.3362 86.5409 94.0286 86.4604C94.0876 86.455 94.1413 86.4443 94.2003 86.4336C94.1628 86.2725 94.0823 86.1223 93.9695 85.9881C93.2127 85.1615 91.5541 84.6354 91.1891 84.7213L91.1838 84.7267Z" fill="#263238"/>
<path d="M96.894 89.9975L88.5314 91.5165L80.9363 50.0737L64.8014 53.0044L38.5059 99.702L41.3292 115.112L75.0588 108.988L77.3669 121.591L93.5017 118.66L91.1937 106.057L99.5563 104.538L96.894 90.0029V89.9975ZM54.5709 97.6838L68.5051 73.2239L72.3912 94.4472L54.5709 97.6838Z" fill="#407BFF"/>
<path d="M164.252 47.2557C163.941 44.3948 163.366 41.8505 162.534 39.623C161.702 37.4008 160.452 35.2163 158.782 33.08C157.113 30.9437 154.837 29.0865 151.966 27.5138C149.089 25.9411 145.294 24.8462 140.576 24.2343C130.759 22.9568 123.104 24.6959 117.613 29.4622C112.122 34.2286 108.51 43.3534 106.771 56.8421C106.062 62.3277 105.891 67.4 106.245 72.0537C106.599 76.7127 107.458 80.4539 108.811 83.288C110.662 87.2707 113.282 90.4483 116.674 92.8261C120.061 95.2039 124.704 96.7766 130.603 97.5442C141.123 98.9129 148.917 96.8947 153.989 91.4842C159.062 86.0737 162.427 76.9328 164.086 64.0561C164.826 58.3128 164.88 52.7091 164.257 47.2449L164.252 47.2557Z" fill="#407BFF"/>
<path d="M135.449 92.0426C134.161 91.9997 132.787 91.8816 131.364 91.6991C126.453 91.0604 122.647 89.8151 120.065 88.0009C117.516 86.2135 115.584 83.8571 114.167 80.803L114.14 80.7493C113.109 78.5916 112.433 75.516 112.138 71.6084C111.81 67.3734 111.977 62.6607 112.631 57.5991C114.548 42.7203 118.504 36.5101 121.488 33.9229C124.966 30.9063 129.657 29.543 135.835 29.7523C137.102 29.7953 138.444 29.908 139.818 30.0905C143.785 30.6058 146.919 31.486 149.141 32.6991C151.294 33.8746 152.974 35.2272 154.139 36.7194C155.427 38.3726 156.393 40.0419 157.01 41.6951C157.665 43.4503 158.132 45.5383 158.39 47.9C158.964 52.8972 158.905 58.0715 158.234 63.3156C156.747 74.8773 153.87 82.9983 149.689 87.4588C146.587 90.7705 141.933 92.2681 135.46 92.048L135.449 92.0426Z" fill="#263238"/>
<path d="M145.954 47.4115L146.024 45.3772L144.773 44.9692C144.719 44.2768 144.607 43.5898 144.44 42.9296L145.498 42.1513L144.778 40.2404L143.469 40.3478C143.157 39.7305 142.792 39.1454 142.379 38.5926L143.055 37.46L141.66 35.9732L140.49 36.5744C139.964 36.1289 139.405 35.7209 138.815 35.3613L139.003 34.0624L137.146 33.2197L136.298 34.218C135.648 34.0087 134.977 33.853 134.285 33.7457L133.968 32.4736L131.928 32.4038L131.526 33.6544C130.828 33.7135 130.146 33.8208 129.486 33.9872L128.703 32.9352L126.792 33.6491L126.899 34.9588C126.282 35.2754 125.697 35.6404 125.144 36.0537L124.017 35.3774L122.524 36.7676L123.126 37.9431C122.68 38.4638 122.272 39.0274 121.918 39.6178L120.619 39.4246L119.771 41.2817L120.775 42.1298C120.565 42.7793 120.399 43.4556 120.302 44.1426L119.025 44.4647L118.955 46.499L120.211 46.9069C120.265 47.6047 120.377 48.2864 120.544 48.9466L119.486 49.7249L120.206 51.6357L121.515 51.5284C121.827 52.1456 122.192 52.7307 122.605 53.2835L121.929 54.4161L123.324 55.9029L124.494 55.3017C125.015 55.7473 125.579 56.1552 126.169 56.5148L125.976 57.8138L127.833 58.6565L128.686 57.6581C129.336 57.8674 130.007 58.0231 130.699 58.1304L131.016 59.4025L133.056 59.4723L133.458 58.2217C134.156 58.1626 134.838 58.0553 135.498 57.8889L136.276 58.9409L138.187 58.2271L138.085 56.9174C138.702 56.6007 139.287 56.2357 139.84 55.8224L140.967 56.4987L142.46 55.1085L141.858 53.933C142.304 53.4124 142.712 52.8488 143.066 52.2583L144.365 52.4516L145.213 50.5944L144.209 49.7463C144.419 49.0969 144.58 48.4259 144.682 47.7335L145.954 47.4115ZM132.213 53.9974C127.758 53.8471 124.274 50.1113 124.425 45.6563C124.575 41.1958 128.311 37.7123 132.766 37.8626C137.221 38.0129 140.704 41.7487 140.554 46.2091C140.404 50.6642 136.668 54.1477 132.213 53.9974Z" fill="#407BFF"/>
<path opacity="0.3" d="M154.423 84.7584L154.568 83.3897L153.747 83.0516C153.747 82.5792 153.704 82.1122 153.623 81.6614L154.375 81.1837L153.994 79.8579H153.103C152.92 79.4338 152.711 79.0152 152.459 78.6233L152.968 77.8934L152.104 76.8198L151.283 77.1634C150.956 76.8359 150.601 76.5354 150.215 76.267L150.413 75.3921L149.206 74.7265L148.572 75.3652C148.138 75.1827 147.692 75.0486 147.241 74.9412L147.091 74.0609L145.722 73.9053L145.384 74.7265C144.912 74.7265 144.45 74.7748 143.994 74.8553L143.516 74.0985L142.19 74.485V75.376C141.772 75.5585 141.353 75.7678 140.956 76.0201L140.226 75.5048L139.152 76.369L139.496 77.1902C139.179 77.5176 138.868 77.8719 138.6 78.2584L137.735 78.0651L137.07 79.2728L137.703 79.8955C137.526 80.3356 137.386 80.7757 137.279 81.232L136.399 81.3769L136.254 82.7456L137.075 83.0891C137.075 83.5561 137.118 84.0177 137.199 84.474L136.442 84.9517L136.828 86.2775H137.719C137.902 86.7015 138.111 87.1202 138.363 87.512L137.848 88.242L138.707 89.3209L139.533 88.972C139.861 89.2994 140.215 89.6 140.602 89.8683L140.403 90.7433L141.611 91.4088L142.244 90.7755C142.679 90.9526 143.124 91.0868 143.575 91.1941L143.726 92.0744L145.094 92.2301L145.432 91.4035C145.899 91.4035 146.366 91.3552 146.823 91.2746L147.3 92.0315L148.621 91.645V90.754C149.045 90.5715 149.463 90.3622 149.861 90.1099L150.585 90.6252L151.664 89.7664L151.315 88.9451C151.643 88.6177 151.943 88.2635 152.217 87.877L153.081 88.0702L153.747 86.8625L153.113 86.2399C153.29 85.7997 153.425 85.3596 153.532 84.9087L154.418 84.7584H154.423ZM147.515 84.2271C146.876 85.3864 145.422 85.8159 144.262 85.1771C143.103 84.5384 142.684 83.0838 143.318 81.9244C143.956 80.765 145.406 80.3463 146.565 80.9797C147.724 81.6184 148.154 83.0677 147.515 84.2271Z" fill="#407BFF"/>
<path d="M162.029 61.5657L160.43 60.46C160.274 59.8803 160.054 59.3167 159.785 58.7961L160.193 57.1858L157.875 54.7007L156.243 55.0012C155.738 54.7007 155.196 54.443 154.627 54.2444L153.634 52.5697L150.237 52.4517L149.131 54.0512C149.131 54.0512 149.131 54.0512 149.126 54.0512C148.546 54.2068 147.988 54.4269 147.462 54.6953L145.851 54.2874L143.366 56.6061L143.667 58.2379C143.361 58.7478 143.109 59.2953 142.91 59.8589L141.235 60.8519L141.117 64.2495L142.717 65.3552C142.872 65.9403 143.087 66.4985 143.361 67.0299L142.953 68.6348L145.272 71.12L146.893 70.8248C147.403 71.1253 147.95 71.383 148.524 71.5816L149.517 73.2509L152.915 73.369L154.021 71.7694C154.606 71.6138 155.169 71.3937 155.701 71.1253L157.3 71.5333L159.785 69.2145L159.485 67.5828C159.791 67.0728 160.043 66.5254 160.242 65.9564L161.916 64.9634L162.035 61.5657H162.029ZM151.439 66.7293C149.324 66.6595 147.676 64.8829 147.746 62.7788C147.816 60.664 149.587 59.0162 151.697 59.0859C153.811 59.1557 155.459 60.927 155.389 63.0365C155.32 65.1405 153.548 66.7991 151.439 66.7293Z" fill="white"/>
<path d="M173.705 34.4432L173.984 33.7668C174.182 33.6649 174.375 33.536 174.547 33.4019L175.17 33.4233L175.9 32.3767L175.664 31.8023C175.733 31.593 175.787 31.3729 175.814 31.1475L176.351 30.6537L176.125 29.3977L175.449 29.1186C175.347 28.92 175.224 28.7321 175.084 28.5603L175.105 27.9377L174.059 27.2077L173.484 27.4439C173.27 27.3687 173.055 27.3204 172.83 27.2936L172.336 26.7568L171.08 26.9823L170.801 27.6586C170.597 27.7606 170.409 27.884 170.237 28.0236L169.614 28.0021L168.884 29.0488L169.121 29.6231C169.051 29.8324 168.997 30.0525 168.97 30.2833L168.434 30.7771L168.659 32.0331L169.335 32.3122C169.437 32.5162 169.566 32.7041 169.706 32.8758L169.684 33.4931L170.731 34.2231L171.305 33.9869C171.52 34.0621 171.735 34.1104 171.96 34.1372L172.459 34.674L173.715 34.4485L173.705 34.4432ZM170.972 30.9596C170.833 30.176 171.354 29.4352 172.132 29.2957C172.915 29.1561 173.656 29.6768 173.796 30.4551C173.935 31.2334 173.415 31.9795 172.636 32.119C171.858 32.2586 171.112 31.7379 170.972 30.9596Z" fill="#407BFF"/>
<path d="M158.98 30.8847L158.572 30.5412C159.286 29.6985 160.295 28.6303 161.798 27.8413L162.045 28.319C160.446 29.1564 159.42 30.3694 158.98 30.8901V30.8847Z" fill="#407BFF"/>
<path d="M163.264 27.8305L163.055 27.3367C165.084 26.4672 167.204 26.129 169.356 26.3276L169.308 26.8644C167.247 26.6658 165.218 26.9985 163.269 27.8305H163.264Z" fill="#407BFF"/>
<path d="M162.25 31.5449L161.805 31.2443C162.905 29.6233 165.084 28.217 167.102 27.8145L167.204 28.3405C165.315 28.7162 163.275 30.0312 162.245 31.5449H162.25Z" fill="#407BFF"/>
<path d="M126.631 83.1966C126.562 83.1966 126.492 83.1697 126.438 83.116L125.311 81.9567C124.737 81.903 124.173 81.7956 123.62 81.64L121.865 82.4129C121.779 82.4505 121.682 82.4397 121.607 82.3914L118.666 80.443C118.591 80.3947 118.542 80.3088 118.548 80.2176L118.575 78.3067C118.215 77.8612 117.898 77.3781 117.625 76.8682L116.116 76.2832C116.03 76.251 115.966 76.1758 115.95 76.0846L115.247 72.6279C115.231 72.5366 115.257 72.4454 115.322 72.381L116.481 71.2538C116.535 70.6848 116.642 70.1159 116.793 69.563L116.02 67.8132C115.982 67.7273 115.993 67.6307 116.041 67.5555L117.99 64.6141C118.038 64.539 118.113 64.4907 118.215 64.496L120.126 64.5229C120.577 64.1632 121.06 63.8466 121.564 63.5782L122.149 62.0699C122.182 61.984 122.257 61.9196 122.348 61.9035L125.805 61.2004C125.896 61.1843 125.987 61.2111 126.052 61.2755L127.173 62.4349C127.742 62.4886 128.311 62.5959 128.864 62.7462L130.614 61.9733C130.7 61.9357 130.797 61.9465 130.872 61.9948L133.813 63.9432C133.888 63.9915 133.937 64.0774 133.931 64.1686L133.904 66.0848C134.264 66.5303 134.581 67.0134 134.849 67.518L136.357 68.103C136.443 68.1352 136.508 68.2104 136.524 68.3016L137.227 71.7583C137.243 71.8496 137.216 71.9408 137.152 72.0052L135.992 73.1324C135.939 73.696 135.831 74.265 135.676 74.8178L136.449 76.573C136.486 76.6589 136.475 76.7555 136.427 76.8307L134.479 79.7667C134.43 79.8418 134.35 79.8794 134.253 79.8848L132.342 79.8579C131.897 80.2122 131.414 80.5289 130.904 80.8026L130.319 82.3109C130.287 82.3968 130.211 82.4612 130.12 82.4773L126.664 83.1805C126.664 83.1805 126.626 83.1805 126.61 83.1805L126.631 83.1966ZM123.604 81.0871C123.604 81.0871 123.652 81.0871 123.679 81.0978C124.253 81.2642 124.849 81.377 125.456 81.4306C125.52 81.4306 125.579 81.4628 125.628 81.5111L126.723 82.6383L129.889 81.9942L130.458 80.5289C130.48 80.4698 130.528 80.4162 130.587 80.3893C131.124 80.1102 131.634 79.7774 132.101 79.3963C132.149 79.3588 132.203 79.3319 132.273 79.3373L134.135 79.3641L135.923 76.6696L135.171 74.9627C135.144 74.9037 135.144 74.8393 135.16 74.7803C135.332 74.1952 135.439 73.594 135.493 73.0036C135.493 72.9392 135.525 72.8801 135.574 72.8318L136.701 71.7369L136.057 68.57L134.591 68.001C134.527 67.9796 134.479 67.9313 134.446 67.8722C134.167 67.3355 133.835 66.8309 133.453 66.3639C133.411 66.3156 133.389 66.2512 133.394 66.1868L133.421 64.3243L130.727 62.5369L129.02 63.2883C128.961 63.3152 128.896 63.3152 128.837 63.2991C128.258 63.1273 127.657 63.02 127.055 62.9663C126.991 62.9663 126.932 62.9341 126.884 62.8858L125.794 61.7586L122.627 62.4027L122.058 63.868C122.037 63.9271 121.988 63.9808 121.929 64.0076C121.393 64.2867 120.888 64.6195 120.416 65.0006C120.367 65.0382 120.303 65.0704 120.239 65.0596L118.376 65.0328L116.589 67.7273L117.34 69.4342C117.372 69.5093 117.372 69.5898 117.335 69.665C117.184 70.2017 117.072 70.7975 117.023 71.3987C117.023 71.4631 116.991 71.5222 116.943 71.5705L115.816 72.6654L116.46 75.8323L117.925 76.4012C117.99 76.4281 118.043 76.4764 118.07 76.5408C118.349 77.0722 118.682 77.5767 119.058 78.0383C119.101 78.0867 119.122 78.1511 119.122 78.2155L119.095 80.078L121.79 81.8654L123.497 81.1139C123.529 81.0978 123.566 81.0925 123.604 81.0925V81.0871ZM126.245 79.348C124.887 79.348 123.518 78.9616 122.305 78.1618C120.711 77.1044 119.627 75.4941 119.246 73.6209C118.864 71.7476 119.235 69.8421 120.292 68.248C122.477 64.963 126.921 64.0559 130.206 66.2351C133.491 68.4143 134.393 72.864 132.214 76.149C130.839 78.2208 128.564 79.348 126.245 79.348ZM120.738 68.5432C119.761 70.0139 119.417 71.7798 119.772 73.5135C120.126 75.2472 121.13 76.734 122.6 77.7109C125.644 79.7238 129.755 78.8918 131.768 75.8538C133.781 72.8157 132.949 68.6988 129.911 66.6806C126.873 64.6678 122.756 65.4998 120.738 68.5432Z" fill="white"/>
<path d="M228.877 94.8442L220.455 93.7063L226.027 51.9414L209.774 49.7461L170.349 86.0468L168.277 101.575L202.249 106.159L200.552 118.859L216.805 121.054L218.501 108.354L226.923 109.492L228.877 94.8442ZM186.248 89.0902L207.052 70.1266L204.197 91.5109L186.248 89.0902Z" fill="#407BFF"/>
<path d="M211.861 120.657C211.861 120.657 211.829 120.657 211.813 120.657C211.668 120.63 211.571 120.49 211.598 120.345L224.121 51.6783C224.148 51.5333 224.287 51.4421 224.432 51.4636C224.577 51.4904 224.674 51.63 224.647 51.7749L212.124 120.442C212.103 120.571 211.99 120.662 211.861 120.662V120.657Z" fill="#263238"/>
<path d="M222.974 52.8273C222.964 53.0688 222.765 53.2621 222.518 53.2513C222.271 53.2406 222.083 53.042 222.094 52.7951C222.105 52.5482 222.304 52.3603 222.55 52.371C222.792 52.3818 222.985 52.5804 222.974 52.8273Z" fill="#263238"/>
<path d="M221.185 62.1129C221.175 62.3545 220.976 62.5477 220.729 62.537C220.482 62.5262 220.294 62.3276 220.305 62.0807C220.316 61.8338 220.514 61.646 220.761 61.6567C221.003 61.6674 221.196 61.866 221.185 62.1129Z" fill="#263238"/>
<path d="M219.398 71.3991C219.388 71.6406 219.189 71.8338 218.942 71.8231C218.695 71.8124 218.507 71.6138 218.518 71.3669C218.529 71.12 218.727 70.9321 218.974 70.9428C219.216 70.9536 219.409 71.1522 219.398 71.3991Z" fill="#263238"/>
<path d="M215.877 81.0661C215.866 81.3076 215.667 81.5008 215.421 81.4901C215.174 81.4794 214.986 81.2808 214.997 81.0339C215.007 80.7869 215.206 80.5991 215.453 80.6098C215.7 80.6205 215.888 80.8192 215.877 81.0661Z" fill="#263238"/>
<path d="M215.818 89.9708C215.807 90.2124 215.609 90.4056 215.362 90.3949C215.115 90.3841 214.927 90.1855 214.938 89.9386C214.949 89.6917 215.147 89.5039 215.394 89.5146C215.641 89.5253 215.829 89.7239 215.818 89.9708Z" fill="#263238"/>
<path d="M214.031 99.2565C214.02 99.498 213.822 99.6912 213.575 99.6805C213.328 99.6698 213.14 99.4712 213.151 99.2243C213.162 98.9827 213.36 98.7895 213.607 98.8002C213.854 98.811 214.042 99.0096 214.031 99.2565Z" fill="#263238"/>
<path d="M212.244 108.543C212.233 108.784 212.035 108.977 211.788 108.967C211.541 108.956 211.353 108.757 211.364 108.51C211.374 108.264 211.573 108.076 211.82 108.086C212.067 108.097 212.255 108.296 212.244 108.543Z" fill="#263238"/>
<path d="M210.451 117.828C210.44 118.07 210.242 118.263 209.995 118.252C209.748 118.242 209.56 118.043 209.571 117.796C209.581 117.549 209.78 117.361 210.027 117.372C210.274 117.383 210.462 117.581 210.451 117.828Z" fill="#263238"/>
<path d="M215.437 81.3178C215.314 81.3178 215.201 81.2319 215.174 81.1031C215.142 80.9582 215.233 80.8133 215.378 80.7864L216.71 80.502C216.854 80.4751 216.999 80.561 217.026 80.7059C217.058 80.8509 216.967 80.9958 216.822 81.0226L215.491 81.3071C215.491 81.3071 215.454 81.3125 215.432 81.3125L215.437 81.3178Z" fill="#263238"/>
<path d="M219.886 76.3745C219.886 76.3745 218.684 79.5038 218.281 81.3985C217.878 83.2933 217.852 87.5283 217.852 87.5283" fill="#263238"/>
<path d="M217.852 87.7968C217.702 87.7968 217.584 87.6733 217.584 87.5284C217.584 87.3566 217.611 83.2451 218.019 81.3396C218.421 79.4449 219.586 76.4015 219.634 76.2727C219.688 76.1331 219.844 76.0687 219.983 76.117C220.123 76.1707 220.193 76.3263 220.139 76.4659C220.128 76.4981 218.942 79.5952 218.545 81.4523C218.153 83.2988 218.121 87.4908 218.121 87.5284C218.121 87.6787 217.997 87.7968 217.852 87.7968Z" fill="#263238"/>
<path d="M119.712 134.13C120.458 122.106 119.084 100.244 141.687 103.137C165.916 106.24 158.981 134.57 158.981 134.57L119.707 134.13H119.712Z" fill="#263238"/>
<path d="M135.311 126.905C140.759 126.905 145.176 122.488 145.176 117.039C145.176 111.591 140.759 107.174 135.311 107.174C129.862 107.174 125.445 111.591 125.445 117.039C125.445 122.488 129.862 126.905 135.311 126.905Z" fill="white"/>
<path d="M136.61 107.19C131.94 106.39 126.943 109.836 126.449 113.325L144.973 115.027C144.318 111.049 140.319 107.823 136.61 107.19Z" fill="#263238"/>
<path d="M142.862 116.793C142.728 119.369 141.327 121.393 139.722 121.312C138.117 121.232 136.931 119.074 137.065 116.492C137.199 113.916 138.6 111.892 140.205 111.973C141.81 112.053 142.996 114.211 142.862 116.793Z" fill="#263238"/>
<path d="M135.31 127.436C129.578 127.436 124.908 122.772 124.908 117.034C124.908 111.296 129.573 106.632 135.31 106.632C141.048 106.632 145.713 111.296 145.713 117.034C145.713 122.772 141.048 127.436 135.31 127.436ZM135.31 107.711C130.168 107.711 125.982 111.892 125.982 117.04C125.982 122.187 130.163 126.368 135.31 126.368C140.458 126.368 144.639 122.187 144.639 117.04C144.639 111.892 140.458 107.711 135.31 107.711Z" fill="#407BFF"/>
<path opacity="0.3" d="M156.234 133.824C156.234 133.824 156.191 133.824 156.17 133.818C156.025 133.786 155.939 133.641 155.971 133.496C155.987 133.427 157.699 126.148 155.923 118.789C155.891 118.644 155.976 118.499 156.121 118.467C156.261 118.435 156.411 118.521 156.443 118.666C158.252 126.154 156.508 133.55 156.492 133.625C156.46 133.749 156.352 133.829 156.229 133.829L156.234 133.824Z" fill="white"/>
<path opacity="0.3" d="M154.735 114.763C154.633 114.763 154.537 114.704 154.494 114.608C153.801 113.099 152.948 111.72 151.95 110.496C151.858 110.383 151.874 110.212 151.987 110.12C152.1 110.024 152.272 110.045 152.363 110.158C153.388 111.414 154.274 112.836 154.982 114.382C155.047 114.516 154.982 114.677 154.848 114.736C154.811 114.753 154.773 114.763 154.735 114.763Z" fill="white"/>
<path d="M69.408 190.532C69.3436 190.532 69.2738 190.532 69.2094 190.532C67.7279 190.489 66.5578 189.254 66.6008 187.773C66.6437 186.291 67.8621 185.148 69.3597 185.164C69.3758 185.164 69.3919 185.164 69.4133 185.164C70.9646 185.164 74.695 183.28 82.4994 170.978C82.9181 170.318 83.6051 169.872 84.3781 169.759C85.151 169.647 85.94 169.878 86.5251 170.393C96.1544 178.788 106.358 184.016 106.46 184.069C107.781 184.74 108.307 186.356 107.636 187.676C106.965 188.997 105.349 189.528 104.029 188.857C103.621 188.653 94.7052 184.091 85.3496 176.431C78.8065 186.265 73.9543 190.532 69.408 190.532Z" fill="#263238"/>
<path d="M86.0157 169.909C85.9405 169.909 85.8654 169.909 85.7849 169.893C84.9046 169.77 84.2927 168.954 84.4162 168.074C84.7973 165.401 84.3249 155.39 80.9434 147.607C80.6374 146.899 80.8736 146.072 81.5123 145.632C88.8659 140.624 104.528 140.023 105.189 140.001C106.074 139.98 106.82 140.667 106.852 141.553C106.885 142.444 106.187 143.184 105.301 143.217C105.156 143.217 91.4638 143.748 84.4269 147.618C87.422 155.369 88.1037 165.03 87.6045 168.525C87.4918 169.33 86.7994 169.909 86.0103 169.909H86.0157Z" fill="#263238"/>
<path d="M88.7197 167.822C87.6462 165.294 82.8208 165.583 79.9867 167.746C78.4731 168.906 76.4227 172.384 76.208 173.645C75.9933 174.907 76.8682 176.05 78.3657 175.921C80.2175 175.76 82.7564 173.071 82.7564 173.071C81.0656 174.73 83.2448 175.9 86.5029 173.5C88.3064 172.169 89.9167 170.65 88.7197 167.822Z" fill="#407BFF"/>
<path d="M181.043 134.838C181.043 134.838 180.994 134.838 180.967 134.827C180.823 134.785 180.742 134.64 180.785 134.495C181.499 132.004 182.283 130.485 183.308 129.637C183.152 129.1 183.168 128.488 183.388 127.887C183.603 127.302 184.022 126.722 184.655 126.277C184.344 125.939 184.231 125.499 184.338 124.999C184.462 124.441 184.864 123.835 185.487 123.303C185.245 123.024 185.186 122.718 185.181 122.493C185.165 120.893 188.138 118.451 191.493 117.995C191.638 117.968 191.778 118.075 191.794 118.226C191.815 118.371 191.713 118.51 191.563 118.526C188.375 118.961 185.702 121.269 185.712 122.487C185.712 122.686 185.788 122.842 185.906 122.971C187.113 122.128 188.895 121.586 190.887 121.972C192.535 122.289 193.205 122.638 193.125 123.137C192.98 124.076 189.47 124.275 187.119 123.99C186.587 123.926 186.195 123.803 185.911 123.642C185.326 124.119 184.95 124.656 184.854 125.107C184.768 125.509 184.897 125.789 185.122 125.987C186.12 125.472 187.521 125.257 189.373 125.67C191.81 126.207 191.901 126.502 191.955 126.68C191.992 126.808 191.96 126.937 191.869 127.034C191.354 127.576 187.623 127.318 185.75 126.862C185.508 126.803 185.288 126.722 185.106 126.62C184.483 127.012 184.086 127.538 183.887 128.075C183.732 128.504 183.694 128.929 183.764 129.31C183.861 129.251 183.957 129.197 184.059 129.154C185.17 128.628 186.512 128.714 188.165 129.422C189.26 129.895 189.792 130.308 189.829 130.732C189.84 130.855 189.819 131.097 189.523 131.29C188.707 131.832 185.836 131.752 184.344 130.957C183.989 130.77 183.716 130.49 183.517 130.158C182.642 130.957 181.934 132.396 181.284 134.645C181.252 134.763 181.145 134.838 181.027 134.838H181.043ZM183.957 129.83C184.107 130.104 184.328 130.329 184.612 130.485C185.825 131.129 188.208 131.28 189.099 130.915C189.282 130.839 189.309 130.78 189.309 130.78C189.309 130.78 189.282 130.48 187.967 129.916C186.464 129.272 185.261 129.181 184.301 129.637C184.183 129.691 184.07 129.755 183.957 129.83ZM185.745 126.304C185.793 126.32 185.836 126.331 185.884 126.341C187.779 126.803 190.339 126.883 191.214 126.739C190.94 126.626 190.387 126.438 189.26 126.191C187.773 125.864 186.609 125.966 185.739 126.298L185.745 126.304ZM186.421 123.287C186.662 123.378 186.936 123.432 187.194 123.459C189.867 123.776 192.229 123.4 192.583 123.067C192.492 122.987 192.132 122.756 190.795 122.498C189.035 122.165 187.494 122.606 186.421 123.282V123.287Z" fill="#263238"/>
<path d="M111.168 189.635C111.522 189.523 111.404 189.179 111.007 189.179H103.739C89.9018 187.714 80.2348 189.678 86.327 190.14C92.4192 190.602 85.8976 190.505 81.4479 192.19C76.9982 193.876 114.539 194.3 117.958 192.19C121.109 190.247 106.267 191.208 111.168 189.635Z" fill="#263238"/>
<path d="M163.2 191.777L99.9704 189.678L97.3457 128.37L172.014 130.039L163.2 191.777Z" fill="#407BFF"/>
<path d="M119.713 190.602C119.573 190.602 119.455 190.494 119.445 190.355L114.378 128.778C114.367 128.628 114.474 128.499 114.625 128.489C114.775 128.478 114.904 128.585 114.914 128.735L119.981 190.312C119.992 190.462 119.885 190.591 119.735 190.602C119.729 190.602 119.718 190.602 119.713 190.602Z" fill="#263238"/>
<path d="M163.201 191.777L180.195 189.19L185.546 132.181L172.015 130.04L163.201 191.777Z" fill="#407BFF"/>
<path opacity="0.2" d="M163.201 191.777L180.195 189.19L185.546 132.181L172.015 130.04L163.201 191.777Z" fill="black"/>
<path d="M105.371 177.859L103.815 141.435C103.654 137.634 106.735 134.484 110.54 134.57L157.807 135.627C161.752 135.713 164.736 139.234 164.178 143.142L158.939 179.85C158.467 183.178 155.563 185.615 152.203 185.502L111.737 184.16C108.297 184.048 105.522 181.299 105.377 177.859H105.371Z" fill="#263238"/>
<path d="M110.48 145.75L117.791 145.981L117.732 147.865L113.153 147.72L113.11 149.121L117.356 149.255L117.297 151.059L113.051 150.925L112.998 152.664L117.71 152.814L117.646 154.816L110.201 154.58L110.48 145.75Z" fill="white"/>
<path d="M119.148 154.865L119.427 146.035L123.973 146.18C124.816 146.207 125.46 146.298 125.9 146.459C126.34 146.62 126.695 146.899 126.952 147.297C127.215 147.699 127.333 148.177 127.317 148.74C127.301 149.229 127.183 149.648 126.963 149.996C126.743 150.345 126.448 150.624 126.072 150.834C125.836 150.968 125.514 151.075 125.101 151.15C125.423 151.269 125.653 151.387 125.798 151.499C125.895 151.574 126.035 151.735 126.222 151.977C126.41 152.219 126.528 152.406 126.587 152.535L127.827 155.139L124.746 155.042L123.372 152.299C123.2 151.945 123.039 151.714 122.9 151.601C122.707 151.456 122.487 151.381 122.24 151.376H121.998L121.885 154.951L119.143 154.865H119.148ZM122.057 149.701L123.206 149.739C123.329 149.739 123.571 149.712 123.93 149.642C124.113 149.61 124.263 149.524 124.381 149.379C124.499 149.234 124.564 149.068 124.569 148.875C124.58 148.59 124.494 148.37 124.317 148.209C124.14 148.048 123.802 147.962 123.308 147.946L122.111 147.908L122.052 149.701H122.057Z" fill="white"/>
<path d="M128.746 155.17L129.025 146.341L133.571 146.486C134.414 146.513 135.058 146.604 135.498 146.765C135.938 146.926 136.292 147.205 136.55 147.602C136.813 148.005 136.931 148.482 136.915 149.046C136.899 149.534 136.781 149.953 136.561 150.302C136.341 150.651 136.045 150.93 135.67 151.139C135.434 151.274 135.112 151.381 134.698 151.456C135.02 151.574 135.251 151.692 135.396 151.805C135.493 151.88 135.632 152.041 135.82 152.283C136.003 152.524 136.126 152.712 136.185 152.841L137.425 155.444L134.344 155.348L132.97 152.605C132.798 152.25 132.637 152.02 132.498 151.907C132.304 151.762 132.084 151.687 131.837 151.682H131.596L131.483 155.256L128.74 155.17H128.746ZM131.655 150.007L132.803 150.044C132.927 150.044 133.168 150.018 133.528 149.948C133.711 149.916 133.861 149.83 133.979 149.685C134.097 149.54 134.161 149.373 134.167 149.18C134.178 148.896 134.092 148.676 133.915 148.515C133.737 148.354 133.399 148.268 132.905 148.252L131.708 148.214L131.649 150.007H131.655Z" fill="white"/>
<path d="M137.892 151.048C137.94 149.604 138.375 148.499 139.202 147.72C140.028 146.942 141.161 146.577 142.594 146.62C144.065 146.668 145.181 147.098 145.954 147.914C146.722 148.73 147.087 149.846 147.044 151.268C147.011 152.299 146.807 153.142 146.442 153.791C146.072 154.441 145.557 154.94 144.886 155.283C144.215 155.632 143.394 155.788 142.411 155.756C141.413 155.723 140.597 155.541 139.953 155.203C139.309 154.865 138.799 154.344 138.413 153.646C138.026 152.948 137.854 152.079 137.887 151.048H137.892ZM140.619 151.145C140.592 152.036 140.737 152.68 141.053 153.083C141.37 153.485 141.816 153.689 142.385 153.711C142.97 153.727 143.431 153.555 143.764 153.179C144.097 152.809 144.279 152.127 144.312 151.14C144.338 150.308 144.188 149.696 143.866 149.304C143.544 148.912 143.093 148.703 142.519 148.687C141.966 148.67 141.52 148.848 141.177 149.229C140.833 149.61 140.646 150.249 140.613 151.145H140.619Z" fill="white"/>
<path d="M148.408 155.793L148.687 146.963L153.233 147.108C154.076 147.135 154.72 147.226 155.16 147.387C155.6 147.548 155.954 147.828 156.212 148.225C156.475 148.627 156.593 149.105 156.577 149.669C156.561 150.157 156.443 150.576 156.223 150.925C156.003 151.274 155.708 151.553 155.332 151.762C155.096 151.896 154.774 152.004 154.36 152.079C154.682 152.197 154.913 152.315 155.058 152.428C155.155 152.503 155.294 152.664 155.482 152.905C155.665 153.147 155.788 153.335 155.847 153.463L157.087 156.067L154.006 155.97L152.632 153.227C152.46 152.873 152.299 152.642 152.16 152.53C151.966 152.385 151.746 152.309 151.499 152.304H151.258L151.145 155.879L148.402 155.793H148.408ZM151.317 150.629L152.466 150.667C152.589 150.667 152.831 150.64 153.19 150.57C153.373 150.538 153.523 150.452 153.641 150.307C153.759 150.162 153.824 149.996 153.829 149.803C153.84 149.518 153.754 149.298 153.577 149.137C153.4 148.976 153.061 148.89 152.568 148.874L151.371 148.837L151.312 150.629H151.317Z" fill="white"/>
<path d="M152.75 170.801C152.556 170.801 152.368 170.725 152.229 170.57L147.634 165.54L142.675 170.071C142.385 170.334 141.939 170.312 141.682 170.028L137.087 164.998L132.127 169.528C131.838 169.791 131.392 169.77 131.134 169.486L126.54 164.456L121.58 168.986C121.441 169.115 121.258 169.18 121.076 169.169C120.888 169.158 120.711 169.078 120.587 168.938L115.993 163.909L111.033 168.439C110.749 168.702 110.298 168.68 110.04 168.396C109.777 168.106 109.798 167.661 110.083 167.403L115.563 162.395C115.848 162.132 116.299 162.153 116.556 162.438L121.151 167.467L126.11 162.937C126.25 162.808 126.432 162.744 126.615 162.755C126.803 162.765 126.98 162.846 127.103 162.985L131.698 168.015L136.658 163.485C136.942 163.222 137.393 163.243 137.651 163.528L142.245 168.557L147.205 164.027C147.489 163.764 147.935 163.785 148.198 164.07L153.27 169.62C153.533 169.91 153.512 170.355 153.227 170.613C153.093 170.736 152.921 170.795 152.755 170.795L152.75 170.801Z" fill="white"/>
<path d="M67.8083 193.076L64.4482 191.476L61.4531 176.893L63.0795 175.105L67.8083 193.076Z" fill="#407BFF"/>
<path d="M67.8089 193.076L72.2639 190.473L68.4476 178.46L63.0801 175.105L67.8089 193.076Z" fill="#407BFF"/>
<path opacity="0.2" d="M67.8089 193.076L72.2639 190.473L68.4476 178.46L63.0801 175.105L67.8089 193.076Z" fill="black"/>
<path d="M140.914 195.728C140.785 195.728 140.661 195.728 140.543 195.728C139.062 195.685 137.892 194.45 137.935 192.969C137.978 191.487 139.201 190.323 140.694 190.36C144.827 190.494 153.581 187.955 158.578 183.103C158.89 182.803 159.265 182.583 159.679 182.459C168.154 179.915 171.305 185.052 171.439 185.272L166.817 188.004C166.817 188.004 166.834 188.041 166.882 188.1C166.828 188.031 165.631 186.469 161.81 187.435C155.535 193.162 145.906 195.728 140.924 195.728H140.914Z" fill="#263238"/>
<path d="M140.614 199.297L130.84 198.679L130.072 180.661L143.207 181.149L140.614 199.297Z" fill="#407BFF"/>
<path d="M140.613 199.297L142.9 197.021L144.317 185.786L143.206 181.149L140.613 199.297Z" fill="#407BFF"/>
<path opacity="0.2" d="M140.613 199.297L142.9 197.021L144.317 185.786L143.206 181.149L140.613 199.297Z" fill="black"/>
<path d="M197.252 192.47C196.914 192.47 196.57 192.362 196.281 192.142C190.704 187.902 183.157 180.371 180.264 173.109C180.221 173.001 180.189 172.894 180.173 172.781C178.761 164.392 177.414 146.727 177.355 145.981C177.285 145.096 177.95 144.323 178.836 144.253C179.722 144.188 180.495 144.849 180.564 145.734C180.581 145.917 181.939 163.753 183.318 172.073C186.206 179.137 194.032 186.388 198.229 189.576C198.938 190.113 199.077 191.122 198.535 191.831C198.218 192.249 197.735 192.464 197.252 192.464V192.47Z" fill="#263238"/>
<path d="M204.697 193.285C203.452 193.285 202.04 192.722 200.505 191.61C199.786 191.09 199.625 190.081 200.145 189.361C200.666 188.642 201.675 188.481 202.394 189.002C203.725 189.963 204.45 190.07 204.702 190.07C205.593 190.07 206.313 190.789 206.313 191.68C206.313 192.571 205.593 193.29 204.702 193.29L204.697 193.285Z" fill="#263238"/>
<path d="M200.95 191.562C202.673 186.441 209.737 187.456 212.168 188.213C214.6 188.975 216.79 189.93 218.11 190.789C219.425 191.648 219.446 193.092 217.691 193.913C215.523 194.928 210.091 194.026 210.091 194.026C212.903 195.255 210.085 197.23 205.147 195.293C203.542 194.659 200.338 193.435 200.945 191.557L200.95 191.562Z" fill="#407BFF"/>
<path d="M183.806 148.187C183.167 152.535 179.566 155.745 176.635 155.31C173.705 154.88 173.586 150.994 174.225 146.647C174.864 142.299 176.023 139.132 178.954 139.561C181.885 139.991 184.45 143.834 183.806 148.182V148.187Z" fill="#263238"/>
<path d="M112.966 130.829C113.209 130.829 113.406 130.631 113.406 130.388C113.406 130.145 113.209 129.948 112.966 129.948C112.722 129.948 112.525 130.145 112.525 130.388C112.525 130.631 112.722 130.829 112.966 130.829Z" fill="#263238"/>
<path d="M117.437 133.561C117.437 133.802 117.238 134.001 116.997 134.001C116.755 134.001 116.557 133.802 116.557 133.561C116.557 133.319 116.755 133.121 116.997 133.121C117.238 133.121 117.437 133.319 117.437 133.561Z" fill="#263238"/>
<path d="M117.925 185.572C117.925 185.814 117.727 186.012 117.485 186.012C117.244 186.012 117.045 185.814 117.045 185.572C117.045 185.33 117.244 185.132 117.485 185.132C117.727 185.132 117.925 185.33 117.925 185.572Z" fill="#263238"/>
<path d="M121.962 188.739C121.962 188.981 121.764 189.179 121.522 189.179C121.281 189.179 121.082 188.981 121.082 188.739C121.082 188.497 121.281 188.299 121.522 188.299C121.764 188.299 121.962 188.497 121.962 188.739Z" fill="#263238"/>
<path d="M44.5979 194.021C43.3204 194.021 41.592 193.248 40.6635 191.9C40.5776 191.777 40.6098 191.611 40.7332 191.525C40.8567 191.439 41.0231 191.471 41.109 191.594C42.1127 193.038 44.3188 193.811 45.301 193.355C45.403 193.307 45.4889 193.248 45.5533 193.173C44.6784 192.77 43.8786 191.976 43.6585 190.768C43.5351 190.086 43.4385 189.168 44.0021 189.04C44.7696 188.868 45.7787 190.73 46.1652 192.142C46.235 192.405 46.2618 192.647 46.235 192.861C46.5731 192.952 46.9059 192.979 47.1958 192.936C47.4266 192.904 47.7593 192.808 47.9311 192.534C47.2816 192.094 46.8415 191.315 46.6966 190.285C46.4872 188.819 46.6429 188.562 46.8093 188.438C46.9166 188.358 47.0508 188.342 47.1797 188.395C47.754 188.642 48.4518 190.72 48.5806 191.9C48.5967 192.029 48.5967 192.153 48.5806 192.271C48.8007 192.357 49.0422 192.405 49.3052 192.41C49.7722 192.437 50.2284 192.287 50.5988 192.072C50.5236 192.024 50.4485 191.97 50.3841 191.911C49.8259 191.433 49.6004 190.677 49.697 189.587C49.7722 188.744 49.96 188.288 50.2982 188.143C50.4163 188.089 50.6578 188.041 50.9477 188.272C51.5274 188.734 52.0695 190.204 51.8763 191.256C51.8333 191.476 51.7421 191.68 51.6079 191.874C52.5901 192.045 53.9803 191.766 55.1719 191.471C55.3168 191.433 55.4618 191.525 55.4993 191.67C55.5369 191.815 55.4457 191.959 55.3007 191.997C53.8461 192.357 52.2788 192.647 51.1731 192.33C50.6793 192.722 49.9869 192.958 49.2945 192.952C48.9778 192.947 48.6826 192.888 48.4142 192.786C48.2049 193.146 47.8077 193.387 47.2763 193.468C46.922 193.521 46.498 193.489 46.0739 193.366C45.9505 193.57 45.7734 193.731 45.5318 193.843C45.2742 193.962 44.9575 194.021 44.6086 194.021H44.5979ZM44.1363 189.576C44.1041 189.657 44.0504 189.931 44.1792 190.671C44.3563 191.659 44.9951 192.314 45.7036 192.663C45.7036 192.55 45.6767 192.421 45.6392 192.282C45.2151 190.746 44.4154 189.689 44.1309 189.576H44.1363ZM47.126 189.109C47.126 189.313 47.1421 189.651 47.2226 190.215C47.3299 190.983 47.6144 191.568 48.0385 191.943C47.915 190.864 47.4373 189.619 47.126 189.109ZM50.5022 188.642C50.5022 188.642 50.2982 188.744 50.223 189.641C50.1425 190.542 50.3089 191.154 50.7222 191.509C50.8188 191.589 50.9262 191.659 51.0443 191.713C51.1946 191.546 51.3019 191.358 51.3341 191.16C51.4791 190.381 51.1087 189.243 50.69 188.782C50.5827 188.664 50.5129 188.637 50.4968 188.637L50.5022 188.642Z" fill="#263238"/>
<path d="M123.158 198.079L124.613 195.556L123.158 193.033H121.602L122.482 195.556L121.602 198.079H123.158Z" fill="#263238"/>
<path d="M121.703 196.871C120.979 196.871 120.388 196.281 120.388 195.556C120.388 194.831 120.979 194.246 121.703 194.246L119.229 193.752L118.574 195.749L119.68 197.435L121.703 196.871Z" fill="#263238"/>
<path d="M121.918 193.033H119.003L117.549 195.556L119.003 198.079H121.918L123.373 195.556L121.918 193.033ZM120.463 196.871C119.739 196.871 119.148 196.281 119.148 195.556C119.148 194.831 119.739 194.246 120.463 194.246C121.188 194.246 121.773 194.831 121.773 195.556C121.773 196.281 121.188 196.871 120.463 196.871Z" fill="#407BFF"/>
<path d="M224.614 192.861L223.535 190.988L224.614 189.115H225.768L225.119 190.988L225.768 192.861H224.614Z" fill="#407BFF"/>
<path d="M225.693 191.965C226.23 191.965 226.67 191.525 226.67 190.988C226.67 190.451 226.23 190.016 225.693 190.016L227.529 189.651L228.018 191.133L227.196 192.383L225.693 191.965Z" fill="#407BFF"/>
<path d="M225.538 189.115H227.701L228.78 190.988L227.701 192.861H225.538L224.459 190.988L225.538 189.115ZM226.617 191.965C227.153 191.965 227.594 191.525 227.594 190.988C227.594 190.451 227.153 190.017 226.617 190.017C226.08 190.017 225.645 190.451 225.645 190.988C225.645 191.525 226.08 191.965 226.617 191.965Z" fill="#263238"/>
<path d="M184.389 195.352H186.815C187.448 195.352 187.964 194.836 187.964 194.203C187.964 193.569 187.448 193.054 186.815 193.054H184.389C183.756 193.054 183.24 193.569 183.24 194.203C183.24 194.836 183.756 195.352 184.389 195.352Z" fill="#263238"/>
<path d="M180.514 193.183C181.116 191.911 182.565 191.337 183.756 191.9C184.948 192.464 185.431 193.945 184.83 195.217C184.229 196.489 182.78 197.064 181.588 196.5C180.396 195.937 179.913 194.455 180.514 193.183Z" fill="#407BFF"/>
<path d="M181.175 196.496L181.84 196.81L184.152 191.906L183.486 191.593L181.175 196.496Z" fill="#263238"/>
</g>
<defs>
<clipPath id="clip0_6073_23271">
<rect width="268.377" height="200" fill="white" transform="translate(0.310547)"/>
</clipPath>
</defs>
</svg>
