<svg width="284" height="244" viewBox="0 0 284 244" fill="none" xmlns="http://www.w3.org/2000/svg">
<g clip-path="url(#clip0_27517_10144)">
<path d="M251.759 165.254H149.454C148.575 165.253 147.732 164.902 147.111 164.278C146.489 163.654 146.139 162.809 146.137 161.927V12.4144C146.137 11.5313 146.487 10.6842 147.109 10.0592C147.73 9.4342 148.574 9.08232 149.454 9.08081H251.759C252.639 9.08232 253.482 9.4342 254.104 10.0592C254.726 10.6842 255.075 11.5313 255.075 12.4144V161.927C255.074 162.809 254.724 163.654 254.102 164.278C253.481 164.902 252.638 165.253 251.759 165.254ZM149.454 9.22279C148.612 9.22429 147.804 9.56122 147.209 10.1596C146.613 10.758 146.279 11.5689 146.279 12.4144V161.927C146.28 162.771 146.615 163.581 147.211 164.178C147.806 164.775 148.613 165.111 149.454 165.112H251.759C252.601 165.112 253.408 164.777 254.004 164.179C254.599 163.582 254.934 162.772 254.934 161.927V12.4144C254.934 11.5689 254.6 10.758 254.004 10.1596C253.409 9.56122 252.601 9.22429 251.759 9.22279H149.454Z" fill="#E0E0E0"/>
<path d="M133.787 165.254H31.4884C30.6083 165.254 29.764 164.904 29.1411 164.28C28.5182 163.656 28.1675 162.81 28.166 161.927V12.4144C28.166 11.5303 28.5161 10.6824 29.1391 10.0572C29.7622 9.43203 30.6073 9.08081 31.4884 9.08081H133.787C134.223 9.08081 134.655 9.16708 135.058 9.33468C135.461 9.50227 135.827 9.74792 136.135 10.0575C136.443 10.3672 136.687 10.7347 136.853 11.1391C137.02 11.5435 137.105 11.9769 137.104 12.4144V161.927C137.104 162.809 136.755 163.656 136.133 164.28C135.511 164.904 134.667 165.254 133.787 165.254ZM31.4884 9.22279C30.6448 9.22279 29.8357 9.55905 29.2392 10.1576C28.6426 10.7561 28.3075 11.5679 28.3075 12.4144V161.927C28.309 162.772 28.6448 163.582 29.2412 164.18C29.8376 164.777 30.6458 165.113 31.4884 165.113H133.787C134.204 165.113 134.617 165.03 135.002 164.87C135.388 164.71 135.738 164.475 136.033 164.179C136.327 163.883 136.561 163.532 136.721 163.146C136.88 162.759 136.963 162.345 136.963 161.927V12.4144C136.963 11.5689 136.628 10.758 136.033 10.1596C135.438 9.56122 134.63 9.22429 133.787 9.22279H31.4884Z" fill="#E0E0E0"/>
<path d="M283.5 199.936H0.5V200.078H283.5V199.936Z" fill="#E0E0E0"/>
<path d="M38.8351 208.04H29.7451V208.182H38.8351V208.04Z" fill="#E0E0E0"/>
<path d="M127.216 206.501H96.9182V206.643H127.216V206.501Z" fill="#E0E0E0"/>
<path d="M59.9186 213.316H39.4011V213.458H59.9186V213.316Z" fill="#E0E0E0"/>
<path d="M239.092 206.427H214.646V206.569H239.092V206.427Z" fill="#E0E0E0"/>
<path d="M247.718 206.427H244.135V206.569H247.718V206.427Z" fill="#E0E0E0"/>
<path d="M209.977 209.966H179.475V210.107H209.977V209.966Z" fill="#E0E0E0"/>
<path d="M213.525 28.7587H178.733V43.2516H213.525V28.7587Z" fill="#E0E0E0"/>
<path d="M234.009 43.2516H199.217V57.7445H234.009V43.2516Z" fill="#F5F5F5"/>
<path d="M51.689 179.611H16.897V194.104H51.689V179.611Z" fill="#E0E0E0"/>
<path d="M263.848 182.064H229.056V196.557H263.848V182.064Z" fill="#F5F5F5"/>
<path d="M157.814 136.138H123.022V150.631H157.814V136.138Z" fill="#E0E0E0"/>
<path d="M178.303 150.631H143.511V165.124H178.303V150.631Z" fill="#F5F5F5"/>
<path d="M54.6604 67.308H19.8684V81.8009H54.6604V67.308Z" fill="#F5F5F5"/>
<path d="M266.661 94.4311H231.869V108.924H266.661V94.4311Z" fill="#F5F5F5"/>
<path d="M129.463 0H94.6711V14.4929H129.463V0Z" fill="#F5F5F5"/>
<path d="M73.6272 89.5755H38.8352V104.068H73.6272V89.5755Z" fill="#E0E0E0"/>
<path d="M148.051 244C205.896 244 252.789 241.569 252.789 238.571C252.789 235.572 205.896 233.142 148.051 233.142C90.2052 233.142 43.3123 235.572 43.3123 238.571C43.3123 241.569 90.2052 244 148.051 244Z" fill="#F5F5F5"/>
<path d="M82.819 72.8848L117.469 56.9835L122.388 54.7119C125.376 53.3433 127.94 49.4247 128.778 46.3808C129.695 43.0415 129.276 38.5948 127.374 35.636C125.473 32.6772 122.614 30.0365 119.071 29.2244L115.398 28.7587C112.933 28.7538 110.512 29.4107 108.385 30.6612L73.7403 46.5625L68.8161 48.8341C65.8333 50.2028 63.2637 54.1213 62.4316 57.1653C61.5147 60.5045 61.9279 64.9512 63.8297 67.91C65.7314 70.8688 68.5897 73.5095 72.1385 74.3216L75.8289 74.8157C78.2938 74.8214 80.7153 74.1645 82.8416 72.9132L82.819 72.8848Z" fill="#407BFF"/>
<g opacity="0.4">
<path d="M82.819 72.8848L117.469 56.9835L122.388 54.7119C125.376 53.3433 127.94 49.4247 128.778 46.3808C129.695 43.0415 129.276 38.5948 127.374 35.636C125.473 32.6772 122.614 30.0365 119.071 29.2244L115.398 28.7587C112.933 28.7538 110.512 29.4107 108.385 30.6612L73.7403 46.5625L68.8161 48.8341C65.8333 50.2028 63.2637 54.1213 62.4316 57.1653C61.5147 60.5045 61.9279 64.9512 63.8297 67.91C65.7314 70.8688 68.5897 73.5095 72.1385 74.3216L75.8289 74.8157C78.2938 74.8214 80.7153 74.1645 82.8416 72.9132L82.819 72.8848Z" fill="white"/>
</g>
<path d="M80.906 131.89L102.244 122.105L136 106.624L143.817 103.041C146.8 101.672 149.364 97.7533 150.201 94.7094C151.118 91.3701 150.705 86.9234 148.803 83.9646C146.902 81.0058 144.038 78.3651 140.494 77.553L136.798 77.0589C134.332 77.0592 131.911 77.722 129.786 78.9784L108.448 88.7634L74.6913 104.244L66.8805 107.828C63.8977 109.197 61.328 113.115 60.4904 116.159C59.5791 119.498 59.9923 123.945 61.894 126.904C63.7958 129.863 66.6541 132.503 70.1973 133.315L73.8932 133.81C76.3581 133.814 78.7794 133.158 80.906 131.907V131.89Z" fill="#407BFF"/>
<g opacity="0.4">
<path d="M80.906 131.89L102.244 122.105L136 106.624L143.817 103.041C146.8 101.672 149.364 97.7533 150.201 94.7094C151.118 91.3701 150.705 86.9234 148.803 83.9646C146.902 81.0058 144.038 78.3651 140.494 77.553L136.798 77.0589C134.332 77.0592 131.911 77.722 129.786 78.9784L108.448 88.7634L74.6913 104.244L66.8805 107.828C63.8977 109.197 61.328 113.115 60.4904 116.159C59.5791 119.498 59.9923 123.945 61.894 126.904C63.7958 129.863 66.6541 132.503 70.1973 133.315L73.8932 133.81C76.3581 133.814 78.7794 133.158 80.906 131.907V131.89Z" fill="white"/>
</g>
<path d="M77.991 149.966V169.275H105.776V168.707C105.73 165.019 104.273 161.489 101.706 158.848C100.49 157.516 98.9489 156.524 97.235 155.969C95.5892 155.096 93.7405 154.68 91.8806 154.765C88.2865 154.93 84.5622 156.111 82.0548 158.848C79.5006 161.497 78.0475 165.022 77.991 168.707V169.275C78.0382 172.963 79.4949 176.492 82.0605 179.134C83.2778 180.467 84.8182 181.461 86.5319 182.019C88.1793 182.887 90.0272 183.301 91.8863 183.217C95.4804 183.058 99.2103 181.871 101.712 179.134C104.266 176.485 105.719 172.96 105.776 169.275V149.966C105.732 146.278 104.275 142.747 101.706 140.108C100.492 138.772 98.9503 137.777 97.235 137.223C95.5888 136.351 93.74 135.937 91.8806 136.024C88.2865 136.183 84.5622 137.37 82.0548 140.108C79.4996 142.756 78.0464 146.281 77.991 149.966Z" fill="#407BFF"/>
<g opacity="0.4">
<path d="M77.991 149.966V169.275H105.776V168.707C105.73 165.019 104.273 161.489 101.706 158.848C100.49 157.516 98.9489 156.524 97.235 155.969C95.5892 155.096 93.7405 154.68 91.8806 154.765C88.2865 154.93 84.5622 156.111 82.0548 158.848C79.5006 161.497 78.0475 165.022 77.991 168.707V169.275C78.0382 172.963 79.4949 176.492 82.0605 179.134C83.2778 180.467 84.8182 181.461 86.5319 182.019C88.1793 182.887 90.0272 183.301 91.8863 183.217C95.4804 183.058 99.2103 181.871 101.712 179.134C104.266 176.485 105.719 172.96 105.776 169.275V149.966C105.732 146.278 104.275 142.747 101.706 140.108C100.492 138.772 98.9503 137.777 97.235 137.223C95.5888 136.351 93.74 135.937 91.8806 136.024C88.2865 136.183 84.5622 137.37 82.0548 140.108C79.4996 142.756 78.0464 146.281 77.991 149.966Z" fill="white"/>
</g>
<path d="M116.53 127.727V174.131H144.326V166.248C144.28 162.559 142.821 159.028 140.251 156.389C137.846 153.97 133.889 152.147 130.425 152.301C126.831 152.465 123.107 153.646 120.6 156.389C118.041 159.036 116.586 162.562 116.53 166.248V174.131C116.577 177.819 118.034 181.348 120.6 183.99C123.011 186.409 126.967 188.232 130.425 188.073C134.019 187.914 137.749 186.727 140.251 183.99C142.81 181.343 144.267 177.818 144.326 174.131V127.727C144.28 124.036 142.821 120.505 140.251 117.863C137.846 115.449 133.889 113.626 130.425 113.78C126.831 113.944 123.107 115.126 120.6 117.863C118.042 120.512 116.587 124.039 116.53 127.727Z" fill="#407BFF"/>
<g opacity="0.4">
<path d="M116.53 127.727V174.131H144.326V166.248C144.28 162.559 142.821 159.028 140.251 156.389C137.846 153.97 133.889 152.147 130.425 152.301C126.831 152.465 123.107 153.646 120.6 156.389C118.041 159.036 116.586 162.562 116.53 166.248V174.131C116.577 177.819 118.034 181.348 120.6 183.99C123.011 186.409 126.967 188.232 130.425 188.073C134.019 187.914 137.749 186.727 140.251 183.99C142.81 181.343 144.267 177.818 144.326 174.131V127.727C144.28 124.036 142.821 120.505 140.251 117.863C137.846 115.449 133.889 113.626 130.425 113.78C126.831 113.944 123.107 115.126 120.6 117.863C118.042 120.512 116.587 124.039 116.53 127.727Z" fill="white"/>
</g>
<path d="M85.4623 158.428L106.8 148.643L140.557 133.162L148.373 129.579C151.356 128.21 153.92 124.291 154.758 121.248C155.675 117.908 155.261 113.467 153.354 110.503C151.447 107.538 148.594 104.903 145.051 104.097L141.355 103.597C138.89 103.592 136.469 104.249 134.342 105.5L113.004 115.285L79.2476 130.766L71.4368 134.349C68.4483 135.718 65.8843 139.636 65.0467 142.68C64.1297 146.02 64.5429 150.466 66.4503 153.425C68.3578 156.384 71.2104 159.025 74.7536 159.837L78.4495 160.331C80.9144 160.336 83.3357 159.679 85.4623 158.428Z" fill="#407BFF"/>
<path d="M79.5758 102.683L100.914 92.8977L134.67 77.4167L142.481 73.8332C145.464 72.4646 148.033 68.546 148.866 65.5021C149.782 62.1628 149.369 57.7218 147.467 54.7573C145.566 51.7928 142.707 49.1578 139.164 48.3513L135.468 47.8516C133.003 47.8467 130.582 48.5036 128.456 49.7541L107.112 59.5447L73.3611 75.0031L65.5446 78.5866C62.5618 79.9552 59.9922 83.8737 59.1602 86.9234C58.2432 90.257 58.6564 94.7037 60.5582 97.6681C62.4599 100.633 65.3239 103.262 68.8671 104.074L72.5574 104.574C75.0242 104.575 77.4468 103.916 79.5758 102.666V102.683Z" fill="#407BFF"/>
<g opacity="0.4">
<path d="M85.4623 158.428L106.8 148.643L140.557 133.162L148.373 129.579C151.356 128.21 153.92 124.291 154.758 121.248C155.675 117.908 155.261 113.467 153.354 110.503C151.447 107.538 148.594 104.903 145.051 104.097L141.355 103.597C138.89 103.592 136.469 104.249 134.342 105.5L113.004 115.285L79.2476 130.766L71.4368 134.349C68.4483 135.718 65.8843 139.636 65.0467 142.68C64.1297 146.02 64.5429 150.466 66.4503 153.425C68.3578 156.384 71.2104 159.025 74.7536 159.837L78.4495 160.331C80.9144 160.336 83.3357 159.679 85.4623 158.428Z" fill="white"/>
</g>
<g opacity="0.4">
<path d="M79.5758 102.683L100.914 92.8977L134.67 77.4167L142.481 73.8332C145.464 72.4646 148.033 68.546 148.866 65.5021C149.782 62.1628 149.369 57.7218 147.467 54.7573C145.566 51.7928 142.707 49.1578 139.164 48.3513L135.468 47.8516C133.003 47.8467 130.582 48.5036 128.456 49.7541L107.112 59.5447L73.3611 75.0031L65.5446 78.5866C62.5618 79.9552 59.9922 83.8737 59.1602 86.9234C58.2432 90.257 58.6564 94.7037 60.5582 97.6681C62.4599 100.633 65.3239 103.262 68.8671 104.074L72.5574 104.574C75.0242 104.575 77.4468 103.916 79.5758 102.666V102.683Z" fill="white"/>
</g>
<path d="M92.5427 225.77C93.188 226.338 100.031 235.379 103.24 237.378C105.6 238.843 114.028 238.633 118.307 238.418C119.898 238.338 122.02 236.793 122.988 235.714L130.397 225.77H92.5427Z" fill="#263238"/>
<path d="M149.211 169.258H73.6781C73.0591 169.258 72.5574 169.762 72.5574 170.383V196.938C72.5574 197.559 73.0591 198.062 73.6781 198.062H149.211C149.83 198.062 150.331 197.559 150.331 196.938V170.383C150.331 169.762 149.83 169.258 149.211 169.258Z" fill="#263238"/>
<path d="M113.004 198.062H74.5156C74.759 198.062 76.6211 211.47 78.8399 212.958C81.0586 214.446 86.113 216.542 87.1035 217.78C88.094 219.018 92.271 227.201 92.271 227.201C92.271 227.201 106.297 228.201 111.272 227.735C116.252 228.201 130.272 227.201 130.272 227.201C130.272 227.201 134.472 219.024 135.457 217.786C136.442 216.548 141.496 214.446 143.72 212.964C145.945 211.482 147.801 198.068 148.05 198.068L113.004 198.062Z" fill="#263238"/>
<path opacity="0.4" d="M149.211 169.258H73.6781C73.0591 169.258 72.5574 169.762 72.5574 170.383V196.938C72.5574 197.559 73.0591 198.062 73.6781 198.062H149.211C149.83 198.062 150.331 197.559 150.331 196.938V170.383C150.331 169.762 149.83 169.258 149.211 169.258Z" fill="white"/>
<path opacity="0.2" d="M113.004 198.062H74.5156C74.759 198.062 76.6211 211.47 78.8399 212.958C81.0586 214.446 86.113 216.542 87.1035 217.78C88.094 219.018 92.271 227.201 92.271 227.201C92.271 227.201 106.297 228.201 111.272 227.735C116.252 228.201 130.272 227.201 130.272 227.201C130.272 227.201 134.472 219.024 135.457 217.786C136.442 216.548 141.496 214.446 143.72 212.964C145.945 211.482 147.801 198.068 148.05 198.068L113.004 198.062Z" fill="white"/>
<g opacity="0.4">
<path d="M72.948 134.02L96.154 124.042L132.944 108.203L141.394 104.568C142.306 104.176 141.519 102.864 140.613 103.228L117.407 113.206L80.6173 129.045L72.1669 132.679C71.2613 133.071 72.0424 134.383 72.948 134.02Z" fill="black"/>
</g>
<g opacity="0.4">
<path d="M72.7612 105.397L94.1729 96.1802L128.269 81.5113L136.034 78.1663C136.946 77.7745 136.159 76.4626 135.259 76.8261L113.841 86.0432L79.74 100.718L71.9688 104.057C71.0575 104.449 71.8443 105.761 72.7499 105.397H72.7612Z" fill="black"/>
</g>
<g opacity="0.4">
<path d="M73.814 74.6397L92.226 66.53L121.55 53.6158L128.241 50.6741C129.146 50.2709 128.359 48.9363 127.459 49.3338L109.042 57.4435L79.74 70.3577L73.0329 73.2994C72.1273 73.7026 72.9084 75.0372 73.814 74.6397Z" fill="black"/>
</g>
<g opacity="0.4">
<path d="M70.2424 50.2823C68.4612 51.9234 66.972 53.8574 65.839 56.001C64.7862 58.1818 64.373 60.7601 65.1654 63.0487C65.9578 65.3374 68.1199 67.2001 70.5368 67.2115C72.4442 67.2115 74.1705 66.1438 75.7779 65.1046L93.5503 53.6272C98.7349 50.2823 103.025 47.2326 107.219 42.7007C108.153 41.6899 110.179 36.8854 108.595 36.1301C107.01 35.3748 105.199 34.3071 100.778 36.5333C100.778 36.5333 87.5903 42.0476 70.2424 50.2823Z" fill="white"/>
</g>
<g opacity="0.4">
<path d="M72.7499 80.0404C70.4859 81.3636 68.2729 82.8061 66.6032 84.8108C64.9335 86.8155 63.8864 89.4903 64.3392 92.0573C64.792 94.6242 67.1182 96.9015 69.7218 96.822C71.6915 96.7538 73.3895 95.4704 74.9347 94.238C83.136 87.7469 94.2579 80.6821 96.0408 70.0226C87.8906 72.3724 80.0659 75.7379 72.7499 80.0404Z" fill="white"/>
</g>
<g opacity="0.4">
<path d="M72.7499 109.929C70.4859 111.247 68.2729 112.689 66.6032 114.7C64.9335 116.71 63.8864 119.379 64.3392 121.946C64.792 124.513 67.1182 126.79 69.7218 126.705C71.6915 126.643 73.3895 125.353 74.9347 124.127C83.0907 117.636 94.2296 110.582 96.0125 99.9114C87.8711 102.261 80.0559 105.627 72.7499 109.929Z" fill="white"/>
</g>
<g opacity="0.4">
<path d="M76.9552 136.729C74.6912 138.052 72.4782 139.489 70.8085 141.499C69.1388 143.509 68.0917 146.179 68.5445 148.745C68.9973 151.312 71.3235 153.59 73.9271 153.504C75.9025 153.442 77.5948 152.153 79.14 150.926C87.2961 144.435 98.4406 137.382 100.218 126.711C92.0773 129.063 84.2624 132.428 76.9552 136.729Z" fill="white"/>
</g>
<path opacity="0.2" d="M77.9514 164.811L77.9175 160.37L105.855 149.001V154.748L77.9514 164.811Z" fill="black"/>
<path opacity="0.2" d="M116.541 148.564L116.507 144.117L144.281 131.47V137.887L116.541 148.564Z" fill="black"/>
<path d="M65.2503 80.8866C63.2235 82.6409 61.8396 85.0249 61.3186 87.6592C60.7976 90.2935 61.1694 93.027 62.375 95.4249C62.6014 95.8736 63.2636 95.4817 63.0429 95.0331C61.9141 92.7798 61.5723 90.2115 62.0721 87.74C62.5719 85.2685 63.8845 83.037 65.7993 81.4034C66.1785 81.0797 65.6295 80.5345 65.2333 80.8355L65.2503 80.8866Z" fill="white"/>
<path d="M65.2561 63.821C64.8339 61.5471 65.0442 59.2004 65.8639 57.0385C66.6837 54.8766 68.0811 52.983 69.9029 51.5657C70.2935 51.2704 69.9029 50.6002 69.5124 50.9012C67.548 52.4097 66.0403 54.4364 65.1578 56.7551C64.2752 59.0737 64.0525 61.5929 64.5146 64.0312C64.6108 64.5195 65.3523 64.3094 65.2561 63.821Z" fill="white"/>
<path d="M63.507 124.615C62.5324 122.339 62.2445 119.826 62.6791 117.387C63.1137 114.948 64.2517 112.691 65.9521 110.895C66.2974 110.537 65.754 109.992 65.3861 110.327C63.5716 112.247 62.3608 114.662 61.9049 117.268C61.4489 119.875 61.7679 122.558 62.8222 124.984C63.0259 125.439 63.6938 125.047 63.49 124.593L63.507 124.615Z" fill="white"/>
<path d="M69.6086 137.836C67.788 139.559 66.5426 141.804 66.0431 144.264C65.5435 146.724 65.8143 149.279 66.8182 151.579C67.0163 152.034 67.6785 151.636 67.4861 151.187C66.5603 149.038 66.3196 146.653 66.7968 144.361C67.2741 142.068 68.4459 139.98 70.1519 138.381C70.5198 138.04 69.9708 137.49 69.5859 137.813L69.6086 137.836Z" fill="white"/>
<path d="M105.448 65.2295L134.161 51.8269C134.614 51.6168 134.217 50.9467 133.77 51.1568L105.057 64.5593C104.61 64.7695 105 65.4339 105.448 65.2295Z" fill="white"/>
<path d="M107.774 93.1306L136.074 81.0626C136.532 80.8639 136.136 80.1994 135.683 80.3925L107.383 92.4662C106.931 92.6592 107.321 93.3237 107.774 93.1306Z" fill="white"/>
<path d="M114.096 119.601L134.75 110.514C135.202 110.31 134.812 109.645 134.359 109.844L113.706 118.93C113.253 119.129 113.643 119.794 114.096 119.595V119.601Z" fill="white"/>
<path opacity="0.1" d="M83.136 198.062C83.136 198.062 83.136 209.676 85.2302 211.351C87.3244 213.027 94.0881 214.98 94.9258 217.076C95.7634 219.171 98.6048 227.576 98.6048 227.576L104.106 227.781C104.106 227.781 101.423 216.616 100.608 215.588C99.001 213.572 96.9181 212.266 95.8936 210.17C94.8692 208.074 97.1784 198.062 97.1784 198.062H83.136Z" fill="white"/>
<path opacity="0.1" d="M82.7625 169.258L83.1586 198.062H97.2011V169.258H82.7625Z" fill="white"/>
<path d="M75.0081 174.335V193.366C75.0081 193.468 75.0486 193.566 75.1208 193.639C75.193 193.711 75.2909 193.752 75.3929 193.752C75.495 193.752 75.5929 193.711 75.6651 193.639C75.7373 193.566 75.7778 193.468 75.7778 193.366V174.335C75.7778 174.233 75.7373 174.135 75.6651 174.062C75.5929 173.99 75.495 173.949 75.3929 173.949C75.2909 173.949 75.193 173.99 75.1208 174.062C75.0486 174.135 75.0081 174.233 75.0081 174.335Z" fill="white"/>
<path d="M77.0117 202.429C77.5381 204.003 78.0588 205.581 78.5852 207.154C78.738 207.626 79.4851 207.427 79.3266 206.95C78.8059 205.377 78.2795 203.798 77.7588 202.219C77.6003 201.748 76.8532 201.952 77.0117 202.429Z" fill="white"/>
<path opacity="0.2" d="M74.4988 198.062L75.2629 201.731H147.286L147.988 198.062H74.4988Z" fill="black"/>
<path d="M104.542 18.8431V11.909C104.503 11.7974 104.431 11.7006 104.335 11.6321C104.239 11.5636 104.125 11.5268 104.007 11.5268C103.889 11.5268 103.775 11.5636 103.679 11.6321C103.583 11.7006 103.511 11.7974 103.472 11.909V18.8431C103.511 18.9547 103.583 19.0514 103.679 19.1199C103.775 19.1884 103.889 19.2252 104.007 19.2252C104.125 19.2252 104.239 19.1884 104.335 19.1199C104.431 19.0514 104.503 18.9547 104.542 18.8431Z" fill="#263238"/>
<path d="M135.774 34.3242L142.685 30.6214C143.296 30.292 142.753 29.3607 142.119 29.6901L135.208 33.3928C134.597 33.7165 135.14 34.6479 135.746 34.3242H135.774Z" fill="#263238"/>
<path d="M68.154 34.4093L61.8827 29.7014C61.8222 29.6657 61.7553 29.6424 61.6857 29.6328C61.6162 29.6232 61.5455 29.6275 61.4776 29.6454C61.4097 29.6634 61.3461 29.6946 61.2903 29.7374C61.2345 29.7801 61.1877 29.8335 61.1526 29.8945C61.0892 30.0189 61.0738 30.1625 61.1093 30.2977C61.1448 30.4328 61.2287 30.5501 61.345 30.6271L67.6163 35.3407C67.7404 35.4043 67.8834 35.4198 68.0182 35.3841C68.1529 35.3485 68.2698 35.2643 68.3465 35.1476C68.4115 35.0225 68.4278 34.8776 68.3922 34.7412C68.3567 34.6047 68.2717 34.4864 68.154 34.4093Z" fill="#263238"/>
<path d="M88.2298 217.82H135.57C135.672 217.82 135.77 217.779 135.842 217.707C135.914 217.634 135.955 217.536 135.955 217.433C135.955 217.331 135.914 217.233 135.842 217.16C135.77 217.088 135.672 217.047 135.57 217.047H88.2298C88.1278 217.047 88.0299 217.088 87.9577 217.16C87.8855 217.233 87.845 217.331 87.845 217.433C87.845 217.536 87.8855 217.634 87.9577 217.707C88.0299 217.779 88.1278 217.82 88.2298 217.82Z" fill="#263238"/>
<path opacity="0.2" d="M72.5573 173.444C72.5573 173.444 83.6678 179.418 88.9713 191.617C92.1182 198.869 96.55 216.797 96.55 222.573H93.6804C93.6804 222.573 89.1524 213.793 88.6713 213.487C84.4489 210.931 80.3058 209.727 79.3096 207.864C78.3135 206.002 76.5193 194.45 76.5193 194.45H76.4004C75.4325 194.45 72.5403 193.025 72.5403 192.054L72.5573 173.444Z" fill="black"/>
<path d="M78.1042 160.757C87.6073 157.44 96.9124 153.556 106.07 149.399C106.568 149.171 106.138 148.439 105.64 148.66C96.5501 152.806 87.313 156.656 77.9061 159.95C77.391 160.132 77.6118 160.955 78.1325 160.774L78.1042 160.757Z" fill="#263238"/>
<path d="M116.62 144.742C125.835 140.732 134.885 136.342 144.1 132.333C144.603 132.117 144.168 131.379 143.675 131.595C134.455 135.61 125.405 139.994 116.19 144.009C115.692 144.225 116.122 144.958 116.62 144.742Z" fill="#263238"/>
<path d="M217.861 61.7708H183.358C182.36 61.7708 181.552 62.5818 181.552 63.5824V125.501C181.552 126.501 182.36 127.313 183.358 127.313H217.861C218.858 127.313 219.666 126.501 219.666 125.501V63.5824C219.666 62.5818 218.858 61.7708 217.861 61.7708Z" fill="#407BFF"/>
<path d="M211.703 70.386H189.51V118.221H211.703V70.386Z" fill="#407BFF"/>
<path opacity="0.6" d="M211.703 70.0851H189.51V118.221H211.703V70.0851Z" fill="white"/>
<path d="M195.125 109.645C194.735 109.441 194.41 109.132 194.185 108.754C193.963 108.367 193.845 107.928 193.845 107.482C193.845 107.035 193.963 106.596 194.185 106.209C194.41 105.831 194.735 105.522 195.125 105.318C195.54 105.105 196 104.994 196.466 104.994C196.933 104.994 197.392 105.105 197.808 105.318C198.198 105.527 198.525 105.839 198.752 106.22C198.98 106.601 199.1 107.037 199.1 107.482C199.1 107.926 198.98 108.362 198.752 108.743C198.525 109.124 198.198 109.436 197.808 109.645C197.392 109.858 196.933 109.969 196.466 109.969C196 109.969 195.54 109.858 195.125 109.645ZM197.236 108.827C197.476 108.698 197.673 108.5 197.802 108.26C197.928 108.014 197.995 107.741 197.995 107.464C197.995 107.188 197.928 106.915 197.802 106.669C197.672 106.429 197.475 106.232 197.236 106.102C197.001 105.969 196.736 105.901 196.466 105.903C196.198 105.9 195.935 105.968 195.702 106.102C195.473 106.236 195.287 106.433 195.164 106.669C195.038 106.915 194.972 107.188 194.972 107.464C194.972 107.741 195.038 108.014 195.164 108.26C195.286 108.496 195.473 108.693 195.702 108.827C195.935 108.959 196.199 109.025 196.466 109.021C196.736 109.023 197.001 108.955 197.236 108.822V108.827Z" fill="white"/>
<path d="M201.034 105.965V107.237H203.252V108.129H201.034V109.878H199.902V105.102H203.524V105.994L201.034 105.965Z" fill="white"/>
<path d="M205.392 105.965V107.237H207.605V108.129H205.392V109.878H204.26V105.102H207.877V105.994L205.392 105.965Z" fill="white"/>
<path opacity="0.1" d="M203.185 106.806C203.925 107.56 204.507 108.456 204.896 109.44C205.285 110.425 205.473 111.477 205.449 112.536C205.386 116.153 205.449 118.879 205.449 118.879H192.374C192.374 118.879 193.325 108.123 199.528 106.329L203.185 106.806Z" fill="black"/>
<path opacity="0.4" d="M211.703 70.0851H189.51V94.84H211.703V70.0851Z" fill="#407BFF"/>
<path opacity="0.6" d="M211.686 70.0851H189.493V74.5545H211.686V70.0851Z" fill="white"/>
<path d="M196.364 82.4426C195.975 82.2408 195.65 81.934 195.425 81.5567C195.256 81.2731 195.145 80.958 195.101 80.6304C195.057 80.3028 195.079 79.9697 195.167 79.6511C195.255 79.3325 195.406 79.0351 195.612 78.777C195.818 78.5188 196.074 78.3053 196.364 78.1493C196.781 77.9364 197.241 77.8254 197.709 77.8254C198.176 77.8254 198.637 77.9364 199.053 78.1493C199.438 78.3546 199.761 78.6607 199.987 79.0352C200.155 79.3189 200.264 79.6336 200.308 79.9606C200.351 80.2876 200.329 80.62 200.242 80.9381C200.155 81.2563 200.004 81.5535 199.8 81.812C199.596 82.0705 199.342 82.285 199.053 82.4426C198.637 82.6556 198.176 82.7665 197.709 82.7665C197.241 82.7665 196.781 82.6556 196.364 82.4426ZM198.476 81.6249C198.715 81.4942 198.911 81.297 199.042 81.057C199.168 80.8102 199.234 80.5366 199.234 80.259C199.234 79.9815 199.168 79.7079 199.042 79.4611C198.911 79.2211 198.715 79.0239 198.476 78.8932C198.242 78.762 197.979 78.6953 197.711 78.7001C197.442 78.6951 197.177 78.7617 196.942 78.8932C196.713 79.0282 196.527 79.225 196.404 79.4611C196.277 79.7079 196.211 79.9815 196.211 80.259C196.211 80.5366 196.277 80.8102 196.404 81.057C196.527 81.2931 196.713 81.4899 196.942 81.6249C197.177 81.7564 197.442 81.823 197.711 81.8179C197.979 81.8228 198.242 81.7561 198.476 81.6249Z" fill="white"/>
<path d="M205.556 77.8767V82.6869H204.65L202.262 79.7678V82.6869H201.164V77.8767H202.081L204.464 80.7957V77.8767H205.556Z" fill="white"/>
<path opacity="0.3" d="M211.709 69.6875H189.47C189.17 69.6875 188.927 69.9316 188.927 70.2327V118.328C188.927 118.63 189.17 118.874 189.47 118.874H211.709C212.009 118.874 212.252 118.63 212.252 118.328V70.2327C212.252 69.9316 212.009 69.6875 211.709 69.6875Z" stroke="black" stroke-miterlimit="10"/>
<path d="M189.697 95.3284H211.522C211.572 95.3201 211.618 95.2942 211.651 95.2552C211.684 95.2161 211.702 95.1666 211.702 95.1154C211.702 95.0642 211.684 95.0147 211.651 94.9757C211.618 94.9367 211.572 94.9107 211.522 94.9025H189.697C189.646 94.9107 189.601 94.9367 189.568 94.9757C189.534 95.0147 189.516 95.0642 189.516 95.1154C189.516 95.1666 189.534 95.2161 189.568 95.2552C189.601 95.2942 189.646 95.3201 189.697 95.3284Z" fill="black"/>
<path opacity="0.2" d="M218.682 62.2991C218.243 61.9573 217.704 61.7697 217.148 61.7653H184.116C183.591 61.7654 183.079 61.9295 182.651 62.2348C182.223 62.5401 181.9 62.9714 181.728 63.469C183.675 65.7803 187.325 69.7557 189.606 70.1532C192.731 70.687 211.007 70.5337 212.275 70.5223V70.4599L218.682 62.2991Z" fill="white"/>
<path opacity="0.2" d="M188.853 118.028C188.853 118.028 185.644 122.912 183.012 127.029C183.331 127.163 183.674 127.233 184.02 127.233H217.051C217.419 127.231 217.782 127.15 218.116 126.995L211.414 118.8C208.131 118.8 188.853 118.028 188.853 118.028Z" fill="white"/>
<path opacity="0.2" d="M212.252 70.4599L211.488 118.806C212.009 118.806 215.863 123.746 218.28 126.938C218.694 126.723 219.041 126.397 219.282 125.996C219.523 125.595 219.648 125.134 219.644 124.666V64.2413C219.636 63.8641 219.543 63.4936 219.372 63.1574C219.202 62.8211 218.958 62.5277 218.659 62.2991C216.089 65.9166 212.325 70.4599 212.325 70.4599H212.252Z" fill="black"/>
<path opacity="0.2" d="M211.414 118.8L218.116 126.995L218.229 126.932C215.789 123.741 211.935 118.8 211.414 118.8Z" fill="white"/>
<path opacity="0.2" d="M211.414 118.8L218.116 126.995L218.229 126.932C215.789 123.741 211.935 118.8 211.414 118.8Z" fill="black"/>
<path d="M182.299 220.631C182.299 220.631 175.473 191.628 176.469 182.581C177.466 173.534 185.724 158.241 187.976 156.986L190.24 155.731C190.24 155.731 193.28 112.462 197.032 108.197C200.785 103.932 207.249 103.79 207.498 109.06C207.747 114.33 206.75 155.628 206.75 155.628C206.75 155.628 206.473 162.193 207.611 161.733C208.748 161.273 211.573 152.903 217.708 153.079C223.713 153.255 225.004 159.768 224.257 167.043C224.257 167.043 230.007 167.043 232.005 175.562C232.005 175.562 242.012 173.552 243.512 188.107C245.012 202.662 227.257 231.767 227.257 231.767L229.645 241.598H184.32C184.32 241.598 184.976 233.022 184.473 230.013C183.969 227.003 182.299 220.631 182.299 220.631Z" fill="#FDBBB5"/>
<path d="M189.391 155.645C188.291 163.849 186.447 171.936 183.884 179.804C183.714 180.327 184.535 180.554 184.705 180.031C187.278 172.076 189.123 163.903 190.218 155.611C190.291 155.043 189.442 155.072 189.369 155.611L189.391 155.645Z" fill="#D7504D"/>
<path d="M224.07 166.714C223.81 168.883 223.545 171.055 223.278 173.228C223.278 173.341 223.322 173.449 223.402 173.529C223.482 173.609 223.59 173.654 223.702 173.654C223.815 173.654 223.923 173.609 224.002 173.529C224.082 173.449 224.127 173.341 224.127 173.228C224.394 171.055 224.659 168.883 224.919 166.714C224.918 166.601 224.872 166.494 224.793 166.414C224.714 166.335 224.607 166.289 224.494 166.288C224.383 166.292 224.278 166.338 224.199 166.417C224.12 166.496 224.074 166.602 224.07 166.714Z" fill="#D7504D"/>
<path d="M231.994 175.619L232.317 178.952C232.321 179.064 232.367 179.17 232.446 179.249C232.524 179.328 232.63 179.374 232.741 179.378C232.853 179.377 232.961 179.331 233.04 179.252C233.119 179.172 233.164 179.065 233.166 178.952L232.843 175.619C232.84 175.507 232.795 175.4 232.716 175.321C232.637 175.241 232.53 175.196 232.419 175.193C232.306 175.193 232.198 175.238 232.118 175.317C232.039 175.397 231.994 175.506 231.994 175.619Z" fill="#D7504D"/>
<path d="M206.665 161.325C206.309 164.073 206.298 166.862 205.947 169.61C205.873 170.15 206.722 170.144 206.796 169.61C207.147 166.862 207.158 164.073 207.514 161.325C207.588 160.785 206.739 160.791 206.665 161.325Z" fill="#D7504D"/>
<g opacity="0.3">
<path d="M189.08 159.081C186.341 162.19 184.358 165.894 183.286 169.901C182.215 173.909 182.084 178.111 182.905 182.178C187.274 175.295 188.933 167.231 189.08 159.081Z" fill="#D7504D"/>
</g>
<g opacity="0.2">
<path d="M205.777 108.703C205.725 108.438 205.621 108.186 205.47 107.963C205.32 107.739 205.126 107.548 204.9 107.402L204.045 107.039C202.517 106.704 200.932 107.606 199.998 108.862C199.064 110.117 198.64 111.701 198.238 113.195C198.057 113.645 198.057 114.147 198.238 114.597C198.532 115.091 199.194 115.199 199.772 115.245L203.168 115.54C203.488 115.61 203.818 115.615 204.14 115.554C204.462 115.494 204.768 115.369 205.041 115.188C205.439 114.732 205.651 114.142 205.635 113.535C205.737 112.462 205.811 111.389 205.873 110.315C205.918 109.776 205.885 109.233 205.777 108.703Z" fill="white"/>
</g>
</g>
<defs>
<clipPath id="clip0_27517_10144">
<rect width="283" height="244" fill="white" transform="translate(0.5)"/>
</clipPath>
</defs>
</svg>
