<svg width="324" height="280" viewBox="0 0 324 280" fill="none" xmlns="http://www.w3.org/2000/svg">
<g clip-path="url(#clip0_28758_12796)">
<path d="M171.383 277.139L165.02 180.827H165.234L172.459 277.074L171.383 277.139ZM151.645 277.074L150.706 277.003L158.514 180.795H158.871L151.645 277.074ZM192.34 274.187L170.956 180.001L171.416 179.897L193.124 274.012L192.34 274.187ZM130.981 274.038L130.054 273.825L152.28 179.846L152.624 179.923L130.981 274.038ZM212.259 268.27L177.086 178.205L177.345 178.108L213.212 267.895L212.259 268.27ZM110.951 267.966L110.07 267.624L146.358 177.979L146.688 178.102L110.951 267.966ZM231.239 259.401L182.639 175.602L182.97 175.414L232.023 258.949L231.239 259.401ZM92.0488 258.994L91.1805 258.497L140.817 175.298L141.07 175.447L92.0488 258.994ZM248.47 247.968L187.972 172.088L188.16 171.939L249.292 247.328L248.47 247.968ZM74.8055 247.418L73.8983 246.701L135.724 171.849L135.821 171.926L74.8055 247.418ZM263.931 234.028L192.56 167.973L192.787 167.741L264.585 233.369L263.931 234.028ZM59.4933 233.421L58.8453 232.775L130.955 167.43L131.22 167.708L59.4933 233.421ZM277.001 218.125L196.604 163.025L196.72 162.851L277.617 217.24C277.416 217.537 277.208 217.828 277.001 218.125ZM46.4685 217.362C46.2741 217.085 46.0797 216.807 45.8918 216.523L127.125 162.625L127.274 162.844L46.4685 217.362ZM287.712 200.206L199.701 157.838L199.902 157.438L288.03 199.457L287.712 200.206ZM36.0033 199.56L35.5562 198.636L124.054 157.296L124.164 157.522L36.0033 199.56ZM295.456 181.189L202.079 151.999L202.15 151.773L295.748 180.156C295.644 180.492 295.54 180.821 295.43 181.157L295.456 181.189ZM28.2921 180.285L28.0005 179.348L121.773 151.54L121.863 151.824L28.2921 180.285ZM300.251 160.939L203.472 146.134L203.531 145.778L300.387 160.028L300.251 160.939ZM23.6394 160.222C23.5876 159.892 23.5358 159.576 23.4904 159.24L120.425 145.552L120.47 145.836L23.6394 160.222ZM301.923 140.643L204.004 139.784V139.39H301.93V139.551C301.93 139.9 301.93 140.255 301.923 140.611V140.643ZM119.997 139.668H22.0713V138.783L119.991 139.28L119.997 139.668ZM203.589 133.499V133.292L300.394 118.771C300.452 119.12 300.504 119.475 300.556 119.83L203.589 133.499ZM120.496 133.357L23.5876 119.236C23.6394 118.9 23.6848 118.59 23.7431 118.235L120.528 133.092L120.496 133.357ZM202.287 127.666L202.15 127.227L295.702 98.7208L295.948 99.5024L202.287 127.666ZM121.824 127.382L28.2208 99.0373L28.5059 98.1265L121.922 127.072L121.824 127.382ZM200.006 121.865L199.837 121.523L287.965 79.4456L288.36 80.2466L200.006 121.865ZM124.086 121.678L35.8737 79.7751L36.269 78.9676L124.261 121.336L124.086 121.678ZM196.928 116.51L196.675 116.149L277.48 61.6303L277.96 62.315L196.928 116.51ZM127.248 116.297L46.3065 61.9598C46.4944 61.682 46.6888 61.4107 46.8767 61.1394L127.41 116.045L127.248 116.297ZM192.878 111.498L192.754 111.362L264.384 45.5655L265.136 46.3665L192.878 111.498ZM131.182 111.433L59.3183 45.8885C59.5451 45.6495 59.7719 45.4041 60.0052 45.1651L131.376 111.207L131.182 111.433ZM188.322 107.299L188.102 107.125L249.098 31.6066L249.895 32.2525L188.322 107.299ZM135.834 107.196L74.5852 31.852L75.4146 31.2061L136.003 107.028L135.834 107.196ZM183.209 103.804L182.924 103.643L231.816 20.0053L232.658 20.4898L183.209 103.804ZM141.012 103.701L91.8285 20.212L92.7033 19.7146L141.264 103.54L141.012 103.701ZM177.552 101.053L177.3 100.949L212.94 11.0718L213.892 11.44L177.552 101.053ZM146.662 100.995L110.672 11.2075C110.99 11.0847 111.32 10.9555 111.638 10.8393L146.908 100.872L146.662 100.995ZM171.636 99.2246L171.377 99.1665L192.845 5.00633L193.85 5.23242L171.636 99.2246ZM152.572 99.2246L130.702 5.10968L131.719 4.8836L152.779 99.1342L152.572 99.2246ZM165.415 98.3074H165.143L172.219 2.0608C172.563 2.0608 172.867 2.10602 173.237 2.13831L165.415 98.3074ZM158.78 98.3074L151.399 2.0608L152.416 1.98975L159.059 98.2815L158.78 98.3074Z" fill="#F0F0F0"/>
<path d="M287.661 191.357H170.535C169.528 191.355 168.563 190.955 167.851 190.246C167.14 189.536 166.739 188.575 166.737 187.571V17.5055C166.739 16.5021 167.14 15.5403 167.851 14.8308C168.563 14.1213 169.528 13.7219 170.535 13.7202H287.661C288.667 13.7219 289.632 14.1213 290.344 14.8308C291.056 15.5403 291.456 16.5021 291.458 17.5055V187.571C291.456 188.575 291.056 189.536 290.344 190.246C289.632 190.955 288.667 191.355 287.661 191.357ZM170.535 13.8817C169.571 13.8834 168.647 14.2657 167.966 14.945C167.285 15.6242 166.901 16.5449 166.899 17.5055V187.571C166.901 188.532 167.285 189.453 167.966 190.132C168.647 190.811 169.571 191.193 170.535 191.195H287.661C288.625 191.195 289.549 190.813 290.231 190.134C290.913 189.454 291.296 188.532 291.296 187.571V17.5055C291.296 16.5444 290.913 15.6227 290.231 14.9431C289.549 14.2635 288.625 13.8817 287.661 13.8817H170.535Z" fill="#E0E0E0"/>
<path d="M152.597 191.357H35.4776C34.4699 191.357 33.5034 190.958 32.7902 190.248C32.0771 189.539 31.6755 188.576 31.6738 187.571V17.5055C31.6755 16.501 32.0771 15.5382 32.7902 14.8285C33.5034 14.1188 34.4699 13.7202 35.4776 13.7202H152.597C153.604 13.7202 154.57 14.119 155.282 14.8289C155.994 15.5388 156.394 16.5016 156.394 17.5055V187.571C156.394 188.575 155.994 189.538 155.282 190.248C154.57 190.958 153.604 191.357 152.597 191.357ZM35.4776 13.8817C34.5129 13.8817 33.5875 14.2633 32.9048 14.9427C32.222 15.6221 31.8375 16.5438 31.8358 17.5055V187.571C31.8324 188.05 31.9241 188.525 32.1056 188.968C32.287 189.412 32.5548 189.815 32.8933 190.155C33.2318 190.495 33.6344 190.764 34.0779 190.949C34.5215 191.133 34.9972 191.227 35.4776 191.227H152.597C153.075 191.227 153.547 191.134 153.988 190.951C154.429 190.769 154.83 190.502 155.168 190.166C155.505 189.829 155.773 189.43 155.956 188.99C156.138 188.551 156.232 188.079 156.232 187.604V17.5055C156.232 17.0296 156.138 16.5584 155.956 16.1187C155.773 15.6791 155.505 15.2796 155.168 14.9431C154.83 14.6066 154.429 14.3397 153.988 14.1575C153.547 13.9754 153.075 13.8817 152.597 13.8817H35.4776Z" fill="#E0E0E0"/>
<path d="M324 230.805H0V230.966H324V230.805Z" fill="#E0E0E0"/>
<path d="M43.8893 240.016H33.4824V240.178H43.8893V240.016Z" fill="#E0E0E0"/>
<path d="M145.074 238.266H110.387V238.427H145.074V238.266Z" fill="#E0E0E0"/>
<path d="M68.0271 246.017H44.5371V246.178H68.0271V246.017Z" fill="#E0E0E0"/>
<path d="M273.158 238.182H245.171V238.343H273.158V238.182Z" fill="#E0E0E0"/>
<path d="M283.033 238.182H278.932V238.343H283.033V238.182Z" fill="#E0E0E0"/>
<path d="M239.825 242.206H204.904V242.367H239.825V242.206Z" fill="#E0E0E0"/>
<path d="M28.0068 119.23L60.2254 125.612L55.4885 118.338L73.2372 117.473L45.6065 112.932L50.1684 119.023L28.0068 119.23Z" fill="#E0E0E0"/>
<path d="M53.9854 88.0757L68.7598 106.291L69.4985 100.129L79.6526 107.758L66.5566 92.649L66.2585 98.075L53.9854 88.0757Z" fill="#E0E0E0"/>
<path d="M286.572 135.449L255.098 133.434L260.535 139.758L243.752 142.82L270.618 143.659L265.512 138.44L286.572 135.449Z" fill="#E0E0E0"/>
<path d="M271.473 171.338L256.595 155.125L256.258 160.932L246.317 154.369L259.446 167.773L259.407 162.67L271.473 171.338Z" fill="#E0E0E0"/>
<path d="M258.293 268.857C258.293 275.013 215.181 280 162 280C108.818 280 65.707 275.013 65.707 268.857C65.707 262.701 108.818 257.721 162 257.721C215.181 257.721 258.293 262.708 258.293 268.857Z" fill="#F5F5F5"/>
<path d="M197.802 0L174.96 34.3839L185.723 32.3492L178.265 53.3878L196.759 23.4545L187.466 25.8445L197.802 0Z" fill="#407BFF"/>
<path opacity="0.8" d="M197.802 0L174.96 34.3839L185.723 32.3492L178.265 53.3878L196.759 23.4545L187.466 25.8445L197.802 0Z" fill="white"/>
<path d="M151.379 10.29L156.796 42.6909L161.961 35.6823L169.076 51.9797L163.548 24.5268L159.434 30.9475L151.379 10.29Z" fill="#407BFF"/>
<path opacity="0.8" d="M151.379 10.29L156.796 42.6909L161.961 35.6823L169.076 51.9797L163.548 24.5268L159.434 30.9475L151.379 10.29Z" fill="white"/>
<path d="M219.555 31.1348L196.519 43.7566L203.18 45.7785L192.754 55.416L212.019 44.0215L206.083 42.6327L219.555 31.1348Z" fill="#407BFF"/>
<path opacity="0.8" d="M219.555 31.1348L196.519 43.7566L203.18 45.7785L192.754 55.416L212.019 44.0215L206.083 42.6327L219.555 31.1348Z" fill="white"/>
<path d="M262.492 93.8047C264.38 98.0248 265.044 102.688 264.409 107.265C263.773 111.843 261.863 116.151 258.896 119.701" stroke="#263238" stroke-linecap="round" stroke-linejoin="round"/>
<path d="M82.7165 120.386C77.7912 129.569 74.8359 139.673 74.0383 150.056C73.2406 160.439 74.6182 170.874 78.0833 180.698" stroke="#263238" stroke-linecap="round" stroke-linejoin="round"/>
<path d="M184.511 57.625C184.934 59.1814 185.03 60.8083 184.793 62.4035C184.555 63.9986 183.989 65.5276 183.131 66.8944" stroke="#263238" stroke-linecap="round" stroke-linejoin="round"/>
<path d="M70.6317 138.634C69.1918 144.486 68.4887 150.495 68.5386 156.52" stroke="#263238" stroke-linecap="round" stroke-linejoin="round"/>
<path d="M101.567 208.81C101.567 208.81 87.4211 229.106 92.4107 230.63C97.4003 232.155 113.309 217.711 113.309 217.711L101.567 208.81Z" fill="#407BFF"/>
<path opacity="0.3" d="M98.6641 213.189C98.6641 213.189 103.958 220.999 108.086 222.142L113.309 217.711L101.567 208.791L98.6641 213.189Z" fill="black"/>
<path d="M197.964 222.233C197.964 222.233 205.416 245.823 200.232 245.823C195.048 245.823 184.129 227.297 184.129 227.297L197.964 222.233Z" fill="#407BFF"/>
<path opacity="0.3" d="M199.422 227.323C199.422 227.323 192.035 233.208 187.758 233.079L184.097 227.265L197.964 222.227L199.422 227.323Z" fill="black"/>
<path d="M128.524 88.4629L124.966 89.968L107.237 48.4011C107.04 47.9305 107.037 47.4015 107.229 46.9287C107.42 46.4559 107.791 46.0775 108.261 45.8754C108.734 45.677 109.266 45.673 109.742 45.8641C110.218 46.0553 110.598 46.4262 110.801 46.896L128.524 88.4629Z" fill="#263238"/>
<path opacity="0.3" d="M128.524 88.4629L124.966 89.968L107.237 48.4011C107.04 47.9305 107.037 47.4015 107.229 46.9287C107.42 46.4559 107.791 46.0775 108.261 45.8754C108.734 45.677 109.266 45.673 109.742 45.8641C110.218 46.0553 110.598 46.4262 110.801 46.896L128.524 88.4629Z" fill="white"/>
<path d="M87.0973 96.4924C87.0973 96.4924 75.5823 67.9026 98.1522 56.2691C118.946 45.5528 123.301 45.43 123.301 45.43C123.301 45.43 150.938 36.1994 159.719 63.9753L87.0973 96.4924Z" fill="#407BFF"/>
<path opacity="0.3" d="M121.234 81.2154L121.805 82.5525L125.271 80.8407L124.759 79.6328L121.234 81.2154Z" fill="black"/>
<g opacity="0.3">
<path d="M108.261 51.2627C98.9682 55.3709 94.335 60.306 91.5292 67.1918C88.7234 74.0777 91.1598 86.5703 93.849 93.4691L105.513 88.2434C105.513 88.2434 95.4107 76.6162 98.6118 66.6751C100.466 60.8058 103.787 55.5025 108.261 51.2627Z" fill="white"/>
</g>
<path d="M214.74 106.369L211.935 103.72L243.071 70.9061C243.424 70.5385 243.909 70.3244 244.419 70.3099C244.93 70.2954 245.425 70.4817 245.799 70.8286C246.17 71.181 246.386 71.6651 246.4 72.1756C246.415 72.686 246.227 73.1815 245.877 73.5545L214.74 106.369Z" fill="#263238"/>
<path opacity="0.3" d="M214.74 106.369L211.935 103.72L243.071 70.9061C243.424 70.5385 243.909 70.3244 244.419 70.3099C244.93 70.2954 245.425 70.4817 245.799 70.8286C246.17 71.181 246.386 71.6651 246.4 72.1756C246.415 72.686 246.227 73.1815 245.877 73.5545L214.74 106.369Z" fill="white"/>
<path d="M190.797 71.7265C190.797 71.7265 212.479 49.7642 232.198 65.745C250.342 80.4662 252.227 84.3872 252.227 84.3872C252.227 84.3872 271.752 105.962 249.726 125.082L190.797 71.7265Z" fill="#407BFF"/>
<path opacity="0.3" d="M218.492 96.8086L217.494 97.8615L220.449 100.355L221.356 99.3989L218.492 96.8086Z" fill="black"/>
<g opacity="0.3">
<path d="M240.849 72.9799C233.351 66.1328 226.949 63.8784 219.51 64.0593C212.071 64.2401 201.56 71.4683 196.279 76.6876L205.747 85.2917C205.747 85.2917 212.415 71.4102 222.815 70.3638C228.951 69.7007 235.156 70.6009 240.849 72.9799Z" fill="white"/>
</g>
<path d="M181.297 61.0427L169.328 59.2275L168.615 63.8913L171.797 64.3693L169.795 77.5273L175.4 78.38L177.402 65.222L180.584 65.7L181.297 61.0427Z" fill="#263238"/>
<path opacity="0.3" d="M181.297 61.0427L169.328 59.2275L168.615 63.8913L171.797 64.3693L169.795 77.5273L175.4 78.38L177.402 65.222L180.584 65.7L181.297 61.0427Z" fill="white"/>
<path opacity="0.3" d="M177.407 65.2124L171.802 64.3633L171.577 65.8385L177.183 66.6876L177.407 65.2124Z" fill="black"/>
<path d="M215.474 211.752C246.568 180.757 246.568 130.504 215.474 99.5093C184.381 68.5142 133.968 68.5142 102.875 99.5093C71.7814 130.504 71.7814 180.757 102.875 211.752C133.968 242.748 184.381 242.748 215.474 211.752Z" fill="#407BFF"/>
<path opacity="0.8" d="M209.139 205.425C236.629 178.022 236.629 133.593 209.139 106.19C181.649 78.7869 137.079 78.7869 109.589 106.19C82.0994 133.593 82.0994 178.022 109.589 205.425C137.079 232.827 181.649 232.827 209.139 205.425Z" fill="white"/>
<g opacity="0.3">
<path d="M107.186 202.926C113.737 210.078 121.698 215.807 130.572 219.753C136.877 210.018 145.314 201.666 154.114 193.999C165.13 184.432 176.865 175.679 186.922 165.144C189.047 162.915 191.134 160.551 192.333 157.709C193.532 154.867 193.713 151.45 192.106 148.821C189.955 145.288 185.412 144.176 181.343 143.375L165.888 140.333C162.343 139.635 157.989 138.066 157.775 134.474C157.6 131.451 160.6 129.307 163.25 127.821C177.8 119.639 192.618 111.965 207.703 104.799C206.148 103.327 204.528 101.925 202.843 100.594L195.359 95.4266C192.685 93.8313 189.91 92.4115 187.052 91.1763C173.586 101.266 161.507 113.281 151.943 127.104C149.617 130.463 147.407 134.042 146.636 138.053C145.865 142.064 146.856 146.644 150.031 149.228C152.792 151.476 156.576 151.812 160.043 152.645C163.51 153.478 167.275 155.229 168.208 158.685C169.07 161.876 167.119 165.112 165 167.65C150.459 185.078 125.958 190.233 107.186 202.926Z" fill="white"/>
</g>
<path opacity="0.3" d="M157.159 155.325L134.576 164.046L114.56 177.204L138.704 169.433L157.159 155.325Z" fill="black"/>
<path d="M160.373 154.408L133.397 162.082L113.387 175.24L137.531 167.469L160.373 154.408Z" fill="#263238"/>
<path opacity="0.3" d="M160.224 157.296L173.048 138.35L179.871 119.805L167.028 135.986L160.224 157.296Z" fill="black"/>
<path d="M159.148 155.829L171.966 136.884L178.796 118.338L165.946 134.519L159.148 155.829Z" fill="#263238"/>
<path d="M165.454 92.1127L164.158 100.568L162.959 100.387L164.087 92.9847L162.143 92.694L162.305 91.6411L165.454 92.1127Z" fill="#263238"/>
<path d="M172.141 100.704L171.979 101.757L165.888 100.833L166.017 100.012L169.977 97.209C171.007 96.4791 171.273 95.9688 171.337 95.4392C171.467 94.5736 170.929 93.947 169.743 93.7661C169.339 93.6815 168.921 93.6905 168.521 93.7924C168.121 93.8943 167.75 94.0864 167.436 94.3539L166.717 93.5207C167.172 93.1499 167.704 92.8845 168.274 92.7438C168.845 92.603 169.44 92.5904 170.015 92.7068C171.784 92.9781 172.789 94.0568 172.569 95.5037C172.439 96.3241 172.089 97.0217 170.767 97.9519L167.793 100.045L172.141 100.704Z" fill="#263238"/>
<path d="M198.935 105.846L197.639 114.301L196.44 114.12L197.568 106.711L195.624 106.427L195.786 105.374L198.935 105.846Z" fill="#263238"/>
<path d="M217.222 138.944L217.06 139.991L210.969 139.067L211.092 138.247L215.051 135.45C216.081 134.713 216.347 134.209 216.412 133.68C216.548 132.808 216.01 132.181 214.824 132.007C214.419 131.92 214 131.928 213.598 132.03C213.197 132.132 212.825 132.325 212.511 132.594L211.798 131.755C212.253 131.384 212.785 131.12 213.356 130.98C213.926 130.84 214.521 130.829 215.097 130.947C216.866 131.212 217.863 132.291 217.643 133.744C217.52 134.565 217.164 135.262 215.842 136.186L212.874 138.259L217.222 138.944Z" fill="#263238"/>
<path d="M219.626 166.035C219.412 167.463 218.181 168.464 216.023 168.135C214.893 167.995 213.847 167.465 213.068 166.636L213.768 165.764C214.39 166.473 215.249 166.932 216.185 167.056C217.481 167.243 218.278 166.778 218.414 165.861C218.55 164.944 218 164.285 216.542 164.065L215.894 163.962L216.017 163.116L218.55 160.836L214.468 160.19L214.63 159.137L220.222 159.983L220.099 160.81L217.468 163.2C219.114 163.633 219.827 164.744 219.626 166.035Z" fill="#263238"/>
<path d="M209.952 195.445L208.339 195.2L208.021 197.28L206.848 197.099L207.166 195.019L202.448 194.309L202.578 193.462L207.762 188.585L209.058 188.786L204.12 193.495L207.36 193.986L207.639 192.151L208.779 192.326L208.501 194.16L210.108 194.405L209.952 195.445Z" fill="#263238"/>
<path d="M184.324 211.73C184.103 213.196 182.885 214.21 180.714 213.881C179.583 213.736 178.537 213.207 177.753 212.382L178.459 211.51C179.074 212.221 179.93 212.681 180.863 212.802C182.159 212.996 182.969 212.518 183.105 211.594C183.241 210.67 182.736 209.96 180.773 209.656L178.829 209.365L179.95 205.012L184.738 205.735L184.576 206.788L180.805 206.213L180.222 208.5L181.168 208.642C183.721 209.036 184.557 210.237 184.324 211.73Z" fill="#263238"/>
<path d="M153.731 216.632C153.485 218.26 152.007 219.1 150.322 218.848C148.041 218.499 146.992 216.781 147.4 214.087C147.84 211.206 149.713 209.908 152.091 210.263C152.828 210.349 153.529 210.63 154.12 211.077L153.517 211.949C153.07 211.587 152.528 211.363 151.955 211.303C150.232 211.039 148.968 211.949 148.644 214.062C148.644 214.158 148.644 214.255 148.644 214.365C148.981 214.037 149.394 213.798 149.846 213.668C150.298 213.538 150.776 213.523 151.236 213.622C152.927 213.887 153.971 215.076 153.731 216.632ZM152.551 216.503C152.7 215.509 152.046 214.759 150.86 214.565C149.674 214.372 148.8 214.979 148.657 215.909C148.514 216.839 149.111 217.647 150.42 217.847C151.528 218.028 152.396 217.504 152.551 216.503Z" fill="#263238"/>
<path d="M128.045 197.151L127.915 197.971L123.327 205.076L122.031 204.883L126.516 197.99L122.628 197.403L122.401 198.914L121.234 198.733L121.623 196.149L128.045 197.151Z" fill="#263238"/>
<path d="M109.415 179.891C109.181 181.428 107.73 182.184 105.656 181.868C103.583 181.551 102.416 180.408 102.675 178.87C102.739 178.414 102.949 177.991 103.273 177.664C103.598 177.337 104.02 177.123 104.477 177.055C104.14 176.852 103.873 176.552 103.711 176.195C103.549 175.837 103.5 175.439 103.57 175.053C103.783 173.638 105.144 172.941 106.972 173.218C108.799 173.496 109.914 174.568 109.7 175.983C109.65 176.374 109.482 176.74 109.218 177.033C108.954 177.326 108.607 177.532 108.222 177.624C108.641 177.821 108.984 178.149 109.199 178.558C109.414 178.967 109.49 179.435 109.415 179.891ZM108.209 179.671C108.352 178.741 107.613 178.037 106.265 177.837C104.917 177.637 104.03 178.089 103.887 179.019C103.745 179.949 104.451 180.685 105.799 180.892C107.147 181.099 108.06 180.627 108.216 179.671H108.209ZM104.762 175.285C104.632 176.119 105.248 176.739 106.408 176.913C107.568 177.088 108.352 176.681 108.507 175.847C108.663 175.014 107.963 174.368 106.823 174.2C105.682 174.032 104.892 174.433 104.762 175.285Z" fill="#263238"/>
<path d="M105.3 146.095C104.859 148.982 102.986 150.281 100.615 149.919C99.8755 149.835 99.1726 149.554 98.5801 149.105L99.1827 148.233C99.6366 148.591 100.182 148.815 100.757 148.879C102.481 149.137 103.732 148.233 104.056 146.114L104.101 145.817C103.763 146.142 103.349 146.38 102.897 146.508C102.445 146.637 101.969 146.652 101.509 146.554C99.8242 146.302 98.768 145.113 99.0078 143.556C99.2475 142 100.718 141.082 102.403 141.341C104.658 141.683 105.708 143.427 105.3 146.095ZM104.056 144.26C104.185 143.395 103.602 142.523 102.28 142.323C102.051 142.26 101.81 142.246 101.575 142.282C101.34 142.318 101.115 142.403 100.915 142.532C100.715 142.66 100.544 142.829 100.414 143.028C100.285 143.227 100.198 143.451 100.161 143.685C100.012 144.674 100.654 145.43 101.84 145.623C103.025 145.817 103.913 145.191 104.056 144.26Z" fill="#263238"/>
<path d="M112.415 115.49L111.119 123.945L109.92 123.764L111.054 116.355L109.11 116.065L109.272 115.018L112.415 115.49Z" fill="#263238"/>
<path d="M113.627 119.999C114.048 117.24 115.765 115.897 117.754 116.2C119.744 116.504 120.994 118.293 120.547 121.045C120.1 123.797 118.409 125.147 116.432 124.843C114.456 124.54 113.205 122.757 113.627 119.999ZM119.335 120.864C119.666 118.7 118.908 117.473 117.586 117.273C116.264 117.072 115.169 118.015 114.838 120.179C114.508 122.343 115.266 123.571 116.601 123.771C117.936 123.971 119.005 123.022 119.335 120.864Z" fill="#263238"/>
<path d="M136.585 96.3954L135.289 104.851L134.09 104.67L135.224 97.2674L133.28 96.9767L133.442 95.9238L136.585 96.3954Z" fill="#263238"/>
<path d="M141.069 97.0736L139.773 105.529L138.568 105.348L139.702 97.9456L137.758 97.655L137.92 96.6021L141.069 97.0736Z" fill="#263238"/>
<path d="M116.594 125.721C127.448 132.827 138.147 140.184 148.936 147.399C152.344 149.682 155.764 151.945 159.194 154.188C160.244 154.879 161.216 153.2 160.172 152.515C149.318 145.41 138.62 138.052 127.837 130.837C124.429 128.555 121.009 126.29 117.579 124.042C116.529 123.357 115.557 125.037 116.594 125.721Z" fill="#D7504D"/>
<path d="M193.81 201.769C193.773 201.986 193.673 202.187 193.522 202.348C193.371 202.508 193.175 202.62 192.96 202.67C192.745 202.721 192.52 202.706 192.313 202.629C192.107 202.553 191.927 202.416 191.797 202.238C191.668 202.06 191.594 201.848 191.585 201.628C191.576 201.408 191.632 201.19 191.747 201.002C191.862 200.814 192.029 200.664 192.229 200.57C192.429 200.477 192.652 200.445 192.871 200.477C193.018 200.499 193.16 200.55 193.287 200.627C193.414 200.704 193.525 200.806 193.613 200.926C193.7 201.047 193.763 201.183 193.797 201.328C193.831 201.473 193.835 201.623 193.81 201.769Z" fill="#263238"/>
<path d="M165.803 213.429C165.765 213.644 165.665 213.843 165.514 214.001C165.363 214.159 165.169 214.27 164.956 214.319C164.743 214.368 164.519 214.354 164.314 214.277C164.109 214.2 163.932 214.065 163.803 213.889C163.674 213.712 163.601 213.501 163.592 213.283C163.583 213.065 163.638 212.849 163.751 212.662C163.864 212.476 164.03 212.326 164.228 212.233C164.426 212.139 164.647 212.106 164.864 212.137C165.011 212.158 165.153 212.208 165.281 212.285C165.409 212.362 165.52 212.464 165.608 212.584C165.695 212.705 165.758 212.842 165.791 212.987C165.825 213.132 165.829 213.282 165.803 213.429Z" fill="#263238"/>
<path d="M211.773 179.084C211.753 179.231 211.704 179.373 211.629 179.501C211.554 179.63 211.454 179.742 211.335 179.831C211.215 179.92 211.08 179.985 210.935 180.021C210.79 180.058 210.64 180.065 210.493 180.043C210.345 180.02 210.204 179.969 210.076 179.891C209.949 179.814 209.839 179.712 209.752 179.591C209.664 179.471 209.602 179.334 209.569 179.189C209.535 179.044 209.531 178.894 209.556 178.748C209.606 178.459 209.768 178.202 210.006 178.031C210.244 177.86 210.54 177.789 210.83 177.833C211.12 177.877 211.381 178.033 211.557 178.266C211.734 178.5 211.811 178.794 211.773 179.084Z" fill="#263238"/>
<path d="M214.909 148.511C215.433 148.181 215.589 147.491 215.259 146.969C214.929 146.447 214.236 146.291 213.713 146.62C213.189 146.95 213.032 147.64 213.363 148.162C213.693 148.684 214.386 148.84 214.909 148.511Z" fill="#263238"/>
<path d="M205.234 119.378C205.196 119.593 205.095 119.792 204.945 119.951C204.794 120.109 204.6 120.22 204.387 120.269C204.173 120.318 203.95 120.303 203.745 120.227C203.54 120.15 203.362 120.015 203.234 119.838C203.105 119.662 203.032 119.451 203.022 119.233C203.013 119.015 203.069 118.799 203.182 118.612C203.295 118.425 203.461 118.276 203.659 118.182C203.856 118.089 204.077 118.055 204.294 118.086C204.442 118.108 204.584 118.158 204.712 118.235C204.84 118.312 204.951 118.414 205.038 118.534C205.126 118.655 205.189 118.791 205.222 118.936C205.256 119.081 205.26 119.232 205.234 119.378Z" fill="#263238"/>
<path d="M184.032 101.989C183.995 102.206 183.895 102.408 183.744 102.568C183.592 102.728 183.397 102.841 183.182 102.891C182.967 102.941 182.742 102.927 182.535 102.85C182.328 102.773 182.149 102.637 182.019 102.458C181.89 102.28 181.816 102.068 181.807 101.848C181.798 101.628 181.854 101.41 181.969 101.222C182.083 101.034 182.251 100.884 182.451 100.791C182.651 100.697 182.874 100.665 183.092 100.697C183.24 100.719 183.381 100.77 183.509 100.847C183.636 100.925 183.747 101.026 183.834 101.147C183.922 101.267 183.984 101.403 184.018 101.548C184.052 101.693 184.057 101.843 184.032 101.989Z" fill="#263238"/>
<path d="M110.47 189.147C110.438 189.365 110.47 189.587 110.564 189.787C110.658 189.986 110.808 190.153 110.997 190.267C111.186 190.382 111.404 190.438 111.625 190.429C111.845 190.42 112.058 190.346 112.237 190.217C112.416 190.088 112.552 189.909 112.629 189.703C112.707 189.496 112.721 189.272 112.671 189.058C112.62 188.844 112.508 188.649 112.347 188.498C112.186 188.347 111.984 188.247 111.766 188.211C111.619 188.187 111.469 188.192 111.324 188.226C111.18 188.26 111.043 188.323 110.923 188.41C110.802 188.497 110.7 188.607 110.623 188.733C110.545 188.86 110.493 189.001 110.47 189.147Z" fill="#263238"/>
<path d="M133.734 208.565C133.701 208.782 133.734 209.005 133.828 209.204C133.921 209.403 134.072 209.571 134.261 209.685C134.449 209.799 134.668 209.855 134.888 209.846C135.109 209.837 135.322 209.764 135.501 209.635C135.679 209.505 135.816 209.326 135.893 209.12C135.97 208.914 135.985 208.69 135.934 208.475C135.884 208.261 135.771 208.066 135.611 207.916C135.45 207.765 135.248 207.665 135.03 207.628C134.883 207.603 134.733 207.608 134.587 207.642C134.442 207.675 134.305 207.738 134.185 207.825C134.064 207.912 133.962 208.023 133.885 208.15C133.807 208.277 133.756 208.418 133.734 208.565Z" fill="#263238"/>
<path d="M100.077 162.159C100.043 162.377 100.074 162.6 100.167 162.8C100.26 163 100.41 163.168 100.598 163.283C100.787 163.399 101.005 163.456 101.226 163.448C101.447 163.439 101.66 163.366 101.84 163.238C102.019 163.109 102.156 162.93 102.234 162.724C102.312 162.518 102.327 162.293 102.277 162.079C102.227 161.864 102.114 161.669 101.954 161.518C101.793 161.367 101.591 161.266 101.373 161.229C101.226 161.204 101.076 161.209 100.932 161.242C100.787 161.276 100.65 161.337 100.529 161.424C100.409 161.511 100.307 161.62 100.229 161.746C100.151 161.873 100.1 162.013 100.077 162.159Z" fill="#263238"/>
<path d="M107.702 132.23C108.205 131.87 108.32 131.172 107.958 130.671C107.597 130.169 106.897 130.055 106.394 130.415C105.891 130.775 105.776 131.473 106.137 131.974C106.498 132.475 107.199 132.59 107.702 132.23Z" fill="#263238"/>
<path d="M124.118 107.086C124.087 107.302 124.12 107.522 124.214 107.719C124.308 107.917 124.458 108.082 124.645 108.195C124.833 108.307 125.049 108.363 125.268 108.353C125.487 108.344 125.698 108.271 125.875 108.143C126.052 108.015 126.188 107.837 126.265 107.633C126.342 107.429 126.356 107.206 126.307 106.994C126.258 106.781 126.147 106.587 125.988 106.437C125.829 106.287 125.629 106.187 125.414 106.149C125.267 106.123 125.116 106.127 124.97 106.161C124.825 106.194 124.688 106.256 124.567 106.344C124.446 106.431 124.344 106.542 124.267 106.669C124.19 106.797 124.139 106.938 124.118 107.086Z" fill="#263238"/>
<path d="M149.564 96.7702C149.533 96.9862 149.566 97.2066 149.66 97.4039C149.754 97.6011 149.904 97.7664 150.091 97.8791C150.279 97.9919 150.496 98.0471 150.714 98.0379C150.933 98.0287 151.144 97.9555 151.322 97.8274C151.499 97.6993 151.634 97.522 151.711 97.3176C151.788 97.1132 151.803 96.8908 151.753 96.6781C151.704 96.4654 151.593 96.2719 151.434 96.1217C151.275 95.9715 151.076 95.8713 150.86 95.8336C150.713 95.8088 150.563 95.8134 150.417 95.8472C150.272 95.8811 150.135 95.9434 150.015 96.0306C149.894 96.1178 149.792 96.2282 149.715 96.3552C149.637 96.4821 149.586 96.6232 149.564 96.7702Z" fill="#263238"/>
<path d="M163.989 153.762C164.063 154.634 163.875 155.508 163.451 156.274C163.026 157.04 162.384 157.663 161.604 158.064C160.824 158.466 159.943 158.629 159.071 158.531C158.198 158.433 157.375 158.08 156.704 157.516C156.033 156.952 155.545 156.202 155.301 155.362C155.058 154.521 155.07 153.628 155.335 152.794C155.601 151.96 156.109 151.224 156.795 150.677C157.48 150.131 158.313 149.8 159.187 149.725C159.769 149.675 160.354 149.739 160.911 149.915C161.467 150.091 161.983 150.374 162.429 150.749C162.876 151.125 163.243 151.584 163.511 152.101C163.778 152.618 163.941 153.183 163.989 153.762Z" fill="#263238"/>
<g opacity="0.3">
<path d="M92.1837 177.185C89.38 178.524 86.5893 179.882 83.8115 181.261C87.2747 191.333 92.7257 200.612 99.843 208.552C103.005 207.505 106.206 206.416 109.446 205.283C101.542 197.412 95.625 187.781 92.1837 177.185Z" fill="white"/>
</g>
<g opacity="0.3">
<path d="M174.85 87.2293C183.733 89.2487 192.135 92.9789 199.584 98.2105C200.109 95.181 201.709 92.4551 203.887 89.9875C196.711 85.1203 188.779 81.4668 180.409 79.1743C178.04 81.4663 176.15 84.2042 174.85 87.2293Z" fill="white"/>
</g>
<g opacity="0.3">
<path d="M121.733 215.057C119.08 213.397 116.543 211.561 114.138 209.56C111.246 211.021 108.453 212.671 105.779 214.501C107.894 216.414 110.111 218.21 112.421 219.882C115.428 218.131 118.545 216.536 121.733 215.057Z" fill="white"/>
</g>
<g opacity="0.3">
<path d="M224.797 130.204C226.443 126.568 228.173 122.983 230.072 119.501C228.062 115.595 225.734 111.86 223.112 108.333C221.751 111.763 220.378 115.18 218.952 118.577C221.254 122.266 223.21 126.158 224.797 130.204Z" fill="white"/>
</g>
<g opacity="0.3">
<path d="M159.323 224.559C149.358 224.561 139.51 222.42 130.452 218.28C121.393 214.141 113.338 208.102 106.835 200.575C100.333 193.048 95.5367 184.211 92.7744 174.667C90.012 165.123 89.3486 155.098 90.8294 145.275C92.8221 132.249 98.5197 120.067 107.247 110.172C115.974 100.276 127.364 93.0827 140.068 89.444C152.771 85.8054 166.255 85.8741 178.921 89.642C191.586 93.41 202.902 100.719 211.527 110.703C220.152 120.687 225.725 132.927 227.584 145.971C229.443 159.016 227.51 172.319 222.016 184.302C216.521 196.286 207.695 206.447 196.583 213.582C185.472 220.717 172.541 224.527 159.323 224.559ZM159.031 87.9917C146.054 88.0177 133.357 91.7531 122.445 98.7549C111.533 105.757 102.865 115.731 97.4677 127.495C92.0706 139.26 90.1714 152.32 91.9953 165.128C93.8191 177.935 99.2896 189.953 107.758 199.755C116.226 209.558 127.337 216.733 139.772 220.431C152.208 224.129 165.447 224.195 177.918 220.619C190.39 217.044 201.571 209.978 210.136 200.26C218.702 190.542 224.291 178.579 226.242 165.79C227.582 157.01 227.174 148.053 225.041 139.431C222.908 130.808 219.091 122.689 213.81 115.537C208.528 108.385 201.885 102.34 194.259 97.7479C186.634 93.1558 178.175 90.1062 169.367 88.7734C165.946 88.254 162.491 87.9928 159.031 87.9917Z" fill="black"/>
</g>
</g>
<defs>
<clipPath id="clip0_28758_12796">
<rect width="324" height="280" fill="white"/>
</clipPath>
</defs>
</svg>
