<svg width="252" height="220" viewBox="0 0 252 220" fill="none" xmlns="http://www.w3.org/2000/svg">
<path d="M107.928 26.2982C101.355 20.2158 93.5824 15.5903 85.1145 12.722C76.6466 9.85379 67.6728 8.80694 58.776 9.64949C30.9299 12.1982 8.76493 32.8069 2.32003 62.1785C-3.61337 89.2275 4.41376 126.389 43.6697 151.876L40.4779 157.104L56.1298 156.747L49.3439 142.558L46.5273 147.224C9.69926 123.244 2.12225 88.5698 7.65327 63.3775C13.573 36.397 33.8352 17.4737 59.2807 15.1305C67.4212 14.3584 75.6324 15.3161 83.3804 17.9413C91.1283 20.5665 98.2396 24.8004 104.252 30.3679C112.968 38.3565 118.574 48.6061 118.574 56.4645H124.03C124.05 46.9686 117.871 35.4173 107.928 26.2982Z" fill="#407BFF"/>
<path opacity="0.7" d="M107.928 26.2982C101.355 20.2158 93.5824 15.5903 85.1145 12.722C76.6466 9.85379 67.6728 8.80694 58.776 9.64949C30.9299 12.1982 8.76493 32.8069 2.32003 62.1785C-3.61337 89.2275 4.41376 126.389 43.6697 151.876L40.4779 157.104L56.1298 156.747L49.3439 142.558L46.5273 147.224C9.69926 123.244 2.12225 88.5698 7.65327 63.3775C13.573 36.397 33.8352 17.4737 59.2807 15.1305C67.4212 14.3584 75.6324 15.3161 83.3804 17.9413C91.1283 20.5665 98.2396 24.8004 104.252 30.3679C112.968 38.3565 118.574 48.6061 118.574 56.4645H124.03C124.05 46.9686 117.871 35.4173 107.928 26.2982Z" fill="white"/>
<path d="M234.8 107.363C231.861 129.075 218.371 149.04 198.422 158.248C188.698 162.673 178.142 164.949 167.466 164.921C163.458 164.922 159.456 164.604 155.497 163.969C139.954 161.461 126.539 154.027 117.721 143.031C97.9432 118.366 105.329 84.9797 118.847 61.9798L123.546 64.7683C110.956 86.1855 103.904 117.078 121.97 139.592C140.179 162.304 173.802 163.571 196.144 153.294C213.945 145.073 226.118 127.478 229.201 108.165C229.828 104.249 230.07 100.282 229.924 96.3186C229.766 91.7978 229.079 87.3114 227.878 82.9517C225.15 73.1612 216.42 64.4532 206.422 66.8443C202.784 67.7592 199.608 69.9885 197.502 73.1063C195.397 76.2241 194.508 80.012 195.005 83.7465C195.926 90.4334 201.594 95.3937 206.599 97.7574L204.24 102.69C196.11 98.792 190.634 91.9886 189.604 84.4727C188.931 79.3911 190.146 74.2386 193.015 69.9996C195.885 65.7606 200.209 62.7323 205.16 61.4934C218.357 58.3349 229.712 69.1737 233.122 81.465C234.215 85.4261 234.916 89.4857 235.216 93.585C235.562 98.1795 235.423 102.798 234.8 107.363Z" fill="#263238"/>
<g opacity="0.8">
<path d="M234.8 107.363C231.861 129.075 218.371 149.04 198.422 158.248C188.698 162.673 178.142 164.949 167.466 164.921C163.458 164.922 159.456 164.604 155.497 163.969C139.954 161.461 126.539 154.027 117.721 143.031C97.9432 118.366 105.329 84.9797 118.847 61.9798L123.546 64.7683C110.956 86.1855 103.904 117.078 121.97 139.592C140.179 162.304 173.802 163.571 196.144 153.294C213.945 145.073 226.118 127.478 229.201 108.165C229.828 104.249 230.07 100.282 229.924 96.3186C229.766 91.7978 229.079 87.3114 227.878 82.9517C225.15 73.1612 216.42 64.4532 206.422 66.8443C202.784 67.7592 199.608 69.9885 197.502 73.1063C195.397 76.2241 194.508 80.012 195.005 83.7465C195.926 90.4334 201.594 95.3937 206.599 97.7574L204.24 102.69C196.11 98.792 190.634 91.9886 189.604 84.4727C188.931 79.3911 190.146 74.2386 193.015 69.9996C195.885 65.7606 200.209 62.7323 205.16 61.4934C218.357 58.3349 229.712 69.1737 233.122 81.465C234.215 85.4261 234.916 89.4857 235.216 93.585C235.562 98.1795 235.423 102.798 234.8 107.363Z" fill="white"/>
</g>
<path opacity="0.2" d="M234.8 107.363C232.956 107.763 231.084 108.021 229.201 108.137C229.828 104.222 230.07 100.254 229.924 96.2912C231.754 95.5025 233.527 94.5867 235.23 93.5507C235.574 98.157 235.43 102.787 234.8 107.363Z" fill="black"/>
<path d="M251.468 89.4947L235.823 88.9877L238.769 93.9275C231.983 97.6409 218.343 103.389 206.586 97.7574C201.594 95.3663 195.926 90.4333 194.992 83.7465L189.59 84.4933C190.62 92.0297 196.097 98.8125 204.226 102.704C208.349 104.647 212.855 105.633 217.409 105.588C227.203 105.588 236.321 101.512 241.559 98.6275L244.546 103.629L251.468 89.4947Z" fill="#263238"/>
<path opacity="0.8" d="M251.468 89.4947L235.823 88.9877L238.769 93.9275C231.983 97.6409 218.343 103.389 206.586 97.7574C201.594 95.3663 195.926 90.4333 194.992 83.7465L189.59 84.4933C190.62 92.0297 196.097 98.8125 204.226 102.704C208.349 104.647 212.855 105.633 217.409 105.588C227.203 105.588 236.321 101.512 241.559 98.6275L244.546 103.629L251.468 89.4947Z" fill="white"/>
<path d="M238.899 13.3766L229.712 0.646851L221.931 14.3084L227.714 14.0001C228.171 24.277 214.756 27.6136 211.953 28.2028C207.161 29.095 202.322 29.7172 197.461 30.0664C186.194 31.1215 174.545 32.2177 164.847 39.3979C161.085 42.2302 157.95 45.8182 155.643 49.9335C153.336 54.0489 151.907 58.6017 151.446 63.3021C150.689 72.5103 154.713 81.4033 161.676 85.9594C164.743 87.9935 168.333 89.0884 172.008 89.111C174.621 89.1171 177.202 88.5316 179.558 87.3982C182.337 86.0327 184.716 83.9678 186.465 81.4045C188.213 78.8411 189.271 75.8667 189.536 72.7707C190.286 65.4466 186.726 57.2456 180.472 51.8878L176.953 56.1014C181.809 60.2601 184.694 66.7484 184.128 72.25C183.971 74.4151 183.252 76.501 182.04 78.2986C180.829 80.0963 179.169 81.5426 177.226 82.4927C173.236 84.411 168.66 84.0137 164.67 81.4033C159.425 77.9776 156.302 70.9071 156.882 63.7886C157.271 59.8672 158.467 56.0699 160.395 52.6377C162.323 49.2055 164.94 46.2134 168.08 43.8512C176.557 37.5754 186.958 36.5957 197.965 35.568C203.034 35.1877 208.077 34.5244 213.072 33.5811C222.913 31.5257 233.729 25.0992 233.163 13.7123L238.899 13.3766Z" fill="#407BFF"/>
<path opacity="0.5" d="M233.163 13.6849C233.729 25.065 222.933 31.4983 213.072 33.5537C208.077 34.497 203.034 35.1603 197.965 35.5406C186.992 36.5683 176.626 37.5412 168.162 43.7622L168.08 43.8239C164.811 46.277 162.112 49.4142 160.169 53.0183C158.338 56.3294 157.219 59.9889 156.882 63.7612C156.302 70.8797 159.426 77.9571 164.67 81.3759C168.66 83.9863 173.236 84.3836 177.226 82.4653C179.169 81.5152 180.829 80.0689 182.04 78.2712C183.252 76.4736 183.971 74.3877 184.128 72.2226C184.55 68.1118 183.03 63.3981 180.179 59.5545C182.334 58.6707 184.087 57.3621 183.937 55.4437C188.029 60.5137 190.156 66.9196 189.556 72.7638C189.296 75.8593 188.243 78.8344 186.499 81.4C184.756 83.9655 182.381 86.0343 179.606 87.4051C177.248 88.5354 174.669 89.1207 172.056 89.1179C168.381 89.0941 164.792 87.9993 161.724 85.9663C154.74 81.4102 150.716 72.5103 151.494 63.309C151.844 59.3296 152.926 55.4501 154.686 51.8673C156.488 48.1196 158.954 44.7325 161.963 41.8712C162.888 40.988 163.867 40.1642 164.895 39.4048C174.593 32.2246 186.242 31.1284 197.508 30.0733C202.373 29.7157 207.214 29.0821 212.008 28.1755C214.797 27.5931 228.219 24.2291 227.762 13.9727L221.979 14.2878L229.76 0.640015L238.947 13.3766L233.163 13.6849Z" fill="white"/>
<path opacity="0.2" d="M168.162 43.769L168.08 43.8307C164.811 46.2838 162.112 49.421 160.169 53.0251C158.365 52.4704 156.513 52.0874 154.638 51.881C156.44 48.1333 158.906 44.7461 161.915 41.8849C164.036 42.3761 166.123 43.0055 168.162 43.769Z" fill="black"/>
<path d="M189.556 72.7775L184.1 72.2157C184.666 66.7346 181.781 60.2259 176.926 56.0671C163.286 44.4199 138.856 47.9963 125.441 58.5336L122.086 54.2104C137.479 42.1247 164.609 38.3085 180.465 51.8947C186.746 57.2524 190.306 65.4534 189.556 72.7775Z" fill="#407BFF"/>
<g opacity="0.5">
<path d="M189.556 72.7775L184.1 72.2157C184.666 66.7346 181.781 60.2259 176.926 56.0671C163.286 44.4199 138.856 47.9963 125.441 58.5336L122.086 54.2104C137.479 42.1247 164.609 38.3085 180.465 51.8947C186.746 57.2524 190.306 65.4534 189.556 72.7775Z" fill="white"/>
</g>
<path d="M148.056 198.294C122.557 198.294 97.0975 187.277 80.5794 168.086C67.4032 152.773 59.9216 131.952 60.0512 110.946C60.0851 103.288 61.1589 95.6695 63.243 88.3025C65.5686 80.1563 69.3264 75.0384 74.2436 69.8657C79.6497 64.1894 86.3074 59.8682 93.6804 57.2501C101.053 54.632 108.935 53.7903 116.691 54.7928L116.009 60.2259C109.105 59.3291 102.087 60.0733 95.5212 62.3985C88.9553 64.7237 83.0244 68.5651 78.2061 73.6133C72.9137 79.1903 70.2812 83.5683 68.508 89.7824C66.5622 96.6683 65.5596 103.788 65.5277 110.946C65.4049 130.644 72.4022 150.149 84.726 164.469C104.299 187.215 137.295 197.711 166.832 190.579C181.706 186.982 194.985 179.267 204.212 168.847C214.238 157.535 219.544 142.997 218.766 128.965C217.73 110.268 205.126 92.1187 187.456 83.8081C170.501 75.84 149.086 76.6211 131.532 85.8635C129.261 87.0556 126.983 88.419 124.78 89.7413C119.781 92.7285 114.618 95.8253 108.78 97.497L107.28 92.2284C112.436 90.7485 117.073 87.9737 121.99 85.0345C124.255 83.6642 126.601 82.2939 128.995 81.0127C148.002 70.9961 171.279 70.1671 189.74 78.8477C209.198 87.9942 223.042 108.014 224.188 128.671C225.041 144.134 219.237 160.111 208.263 172.519C198.299 183.769 184.025 192.079 168.08 195.937C161.521 197.508 154.8 198.3 148.056 198.294Z" fill="#263238"/>
<g opacity="0.5">
<path d="M208.25 172.526C198.286 183.776 184.012 192.086 168.06 195.937C161.499 197.513 154.775 198.304 148.029 198.294C122.536 198.294 97.0704 187.277 80.5523 168.079C67.3829 152.774 59.9014 131.946 60.031 110.946C60.0644 103.776 61.0063 96.6387 62.834 89.7072C62.9567 89.2504 63.0863 88.7777 63.2227 88.2889C64.3408 84.2382 66.1026 80.3955 68.44 76.9089C70.1656 74.3986 72.1003 72.0401 74.2234 69.8589C79.6341 64.189 86.2947 59.8749 93.6687 57.264C101.043 54.6531 108.924 53.8184 116.678 54.8271L115.996 60.2602C109.092 59.364 102.076 60.1085 95.5112 62.4337C88.9464 64.759 83.0168 68.6 78.1994 73.6477C76.0621 75.8279 74.1412 78.212 72.4638 80.7662C70.6953 83.5639 69.355 86.6124 68.4878 89.8099C68.0581 91.3241 67.6694 92.8519 67.3352 94.4003C66.1467 99.8447 65.5341 105.4 65.5074 110.974C65.3847 130.664 72.382 150.17 84.7057 164.489C104.279 187.243 137.274 197.739 166.805 190.6C181.686 187.01 194.965 179.295 204.192 168.874C214.218 157.563 219.523 143.024 218.746 128.993C217.709 110.295 205.106 92.1462 187.429 83.8287C170.481 75.8607 149.066 76.6486 131.505 85.8841C129.233 87.0763 126.956 88.4397 124.753 89.762C119.754 92.7492 114.591 95.8459 108.753 97.5177L107.253 92.249C112.409 90.7691 117.046 87.9943 121.957 85.0483C124.228 83.678 126.574 82.3078 128.968 81.0266C147.975 71.0168 171.252 70.1878 189.706 78.8684C209.171 88.0149 223.015 108.034 224.161 128.684C225.048 144.161 219.244 160.139 208.25 172.526Z" fill="white"/>
</g>
<path opacity="0.2" d="M72.4636 80.7661C70.6951 83.5638 69.3549 86.6123 68.4876 89.8098C68.0579 91.324 67.6692 92.8518 67.335 94.4002C65.7535 92.9254 64.2575 91.3607 62.8542 89.7139C62.977 89.2572 63.1066 88.7844 63.243 88.2957C64.3541 84.2439 66.1089 80.3988 68.4398 76.9088C69.7153 78.2621 71.0583 79.5496 72.4636 80.7661Z" fill="black"/>
<path d="M129.001 81.0402C126.608 82.3008 124.227 83.7054 121.997 85.0619C117.08 88.0012 112.449 90.7759 107.287 92.2558C96.6951 95.3047 83.7303 92.2216 73.4662 84.2124C65.0094 77.6214 57.8689 67.8172 51.6422 54.2379C48.771 47.9895 46.2681 41.4054 43.847 35.0542C42.4284 31.3134 40.9553 27.4424 39.4208 23.6604C35.9562 15.1374 30.4934 9.36175 23.7348 6.92954L26.2718 1.72253L10.7427 3.58609L18.8244 17.0489L21.341 11.8899C28.6588 14.233 32.5871 21.331 34.3672 25.7227C35.8812 29.4498 37.3407 33.2591 38.7524 37C41.2008 43.447 43.7378 50.1134 46.6841 56.5331C53.2927 70.9208 60.9583 81.3965 70.1176 88.5424C78.8063 95.3184 88.9476 98.929 98.6456 98.929C102.073 98.9486 105.486 98.4874 108.787 97.5587C114.625 95.887 119.788 92.7628 124.787 89.803C126.99 88.4807 129.267 87.1173 131.539 85.9252L129.001 81.0402Z" fill="#263238"/>
<path opacity="0.5" d="M129.001 81.0402C126.608 82.3008 124.227 83.7054 121.997 85.0619C117.08 88.0012 112.449 90.7759 107.287 92.2558C96.6951 95.3047 83.7303 92.2216 73.4662 84.2124C65.0094 77.6214 57.8689 67.8172 51.6422 54.2379C48.771 47.9895 46.2681 41.4054 43.847 35.0542C42.4284 31.3134 40.9553 27.4424 39.4208 23.6604C35.9562 15.1374 30.4934 9.36175 23.7348 6.92954L26.2718 1.72253L10.7427 3.58609L18.8244 17.0489L21.341 11.8899C28.6588 14.233 32.5871 21.331 34.3672 25.7227C35.8812 29.4498 37.3407 33.2591 38.7524 37C41.2008 43.447 43.7378 50.1134 46.6841 56.5331C53.2927 70.9208 60.9583 81.3965 70.1176 88.5424C78.8063 95.3184 88.9476 98.929 98.6456 98.929C102.073 98.9486 105.486 98.4874 108.787 97.5587C114.625 95.887 119.788 92.7628 124.787 89.803C126.99 88.4807 129.267 87.1173 131.539 85.9252L129.001 81.0402Z" fill="white"/>
<path d="M131.377 60.5376C132.641 55.1572 129.324 49.7661 123.968 48.4962C118.612 47.2263 113.246 50.5585 111.982 55.9389C110.718 61.3193 114.035 66.7105 119.39 67.9804C124.746 69.2503 130.113 65.918 131.377 60.5376Z" fill="#407BFF"/>
<path opacity="0.5" d="M131.377 60.5376C132.641 55.1572 129.324 49.7661 123.968 48.4962C118.612 47.2263 113.246 50.5585 111.982 55.9389C110.718 61.3193 114.035 66.7105 119.39 67.9804C124.746 69.2503 130.113 65.918 131.377 60.5376Z" fill="white"/>
<path d="M229.944 182.166C224.925 182.522 219.714 182.782 214.429 182.782C192.08 182.782 169.062 178.199 158.137 157.796C154.055 149.999 151.727 141.396 151.317 132.596C151.096 128.465 151.29 124.322 151.896 120.23C152.155 118.503 152.49 116.797 152.899 115.112C154.263 109.446 156.875 104.739 160.401 101.498C162.257 99.8319 164.438 98.5722 166.805 97.7995C169.172 97.0269 171.674 96.7582 174.15 97.0107C176.909 97.2366 179.594 98.0207 182.043 99.3158C184.493 100.611 186.656 102.39 188.404 104.547L184.128 107.973C182.848 106.402 181.267 105.107 179.477 104.165C177.688 103.223 175.727 102.654 173.713 102.492C171.986 102.313 170.241 102.497 168.588 103.031C166.935 103.565 165.41 104.438 164.111 105.595C161.383 108.096 159.337 111.857 158.218 116.468C157.732 118.463 157.365 120.486 157.12 122.525C156.619 126.606 156.564 130.73 156.957 134.823C157.595 141.964 159.64 148.906 162.972 155.247C174.989 177.685 204.881 178.541 229.583 176.746L229.944 182.166Z" fill="#407BFF"/>
<path d="M117.994 51.929L112.77 53.5665C112.332 52.0989 111.554 50.7564 110.5 49.6489C109.447 48.5414 108.147 47.7004 106.707 47.1948C100.999 44.9818 93.4079 46.5507 88.8522 49.2501C84.107 52.0888 80.6483 56.6716 79.2087 62.0278C78.384 64.9784 78.1522 68.0644 78.5267 71.1058C78.6514 72.0869 78.8359 73.0593 79.0791 74.0177C80.0056 77.2675 81.1822 80.4401 82.5982 83.5067C85.8991 91.3309 89.6433 100.197 84.8147 109.542C79.918 119.017 69.2378 122.278 60.6924 122.278C59.9217 122.278 59.1715 122.278 58.4418 122.203C45.4838 121.299 30.1183 112.056 22.78 100.697C17.6923 92.8314 16.5192 84.5276 19.37 76.6691L24.4986 78.5464C21.6683 86.35 24.4986 93.2767 27.363 97.7301C33.8557 107.781 47.3866 115.961 58.8237 116.756C66.0052 117.256 75.8737 115.009 79.9657 107.034C83.6144 99.9773 80.8114 93.3315 77.5651 85.658C75.6896 81.2115 73.7459 76.6143 73.1525 71.7773C73.1525 71.5101 73.0911 71.236 73.0639 70.9688C72.7173 67.4115 73.0412 63.8204 74.0187 60.3835C75.8604 53.7291 80.1869 48.0451 86.0969 44.5159C91.6074 41.2615 101.026 39.1102 108.685 42.0768C110.893 42.8772 112.885 44.1848 114.501 45.8953C116.117 47.6058 117.313 49.6719 117.994 51.929Z" fill="#407BFF"/>
<path d="M238.572 179.432L225.034 171.546L225.852 188.592L238.572 179.432Z" fill="#407BFF"/>
<path opacity="0.2" d="M78.5744 71.099C78.6991 72.08 78.8836 73.0525 79.1268 74.0108C77.2009 72.8203 75.1743 71.8024 73.0707 70.9688C72.7241 67.4115 73.048 63.8204 74.0255 60.3835C75.6896 60.822 77.4355 61.3633 79.2291 62.021C78.4137 64.9734 78.1911 68.0593 78.5744 71.099Z" fill="black"/>
<path opacity="0.2" d="M156.929 134.802C154.999 134.234 153.119 133.506 151.31 132.624C151.089 128.492 151.283 124.349 151.889 120.257C153.576 121.114 155.314 121.865 157.093 122.504C156.592 126.585 156.537 130.709 156.929 134.802Z" fill="black"/>
<path d="M115.171 170.772C108.275 170.886 101.446 169.392 95.2222 166.408C84.1397 160.824 74.7144 147.786 78.1722 133.679C79.1499 129.764 81.0321 126.135 83.6661 123.086C86.3 120.038 89.6118 117.656 93.333 116.133L95.379 121.23C92.4542 122.415 89.8489 124.277 87.7751 126.664C85.7013 129.051 84.2174 131.895 83.444 134.967C80.6819 146.292 88.5044 156.891 97.6569 161.495C105.473 165.428 115.689 166.346 126.43 164.078C145.131 160.125 166.832 146.457 166.437 120.915C166.293 111.625 163.245 101.855 157.632 92.6532C151.494 82.5681 140.827 69.3039 125.053 63.3501L126.969 58.2185C144.197 64.7204 155.681 78.9711 162.283 89.7825C168.421 99.8266 171.736 110.563 171.893 120.833C172.026 126.865 170.92 132.861 168.643 138.445C166.367 144.029 162.969 149.082 158.662 153.287C150.846 161.105 139.798 166.832 127.549 169.415C123.481 170.298 119.332 170.753 115.171 170.772Z" fill="#263238"/>
<g opacity="0.2">
<path d="M171.906 120.853C172.039 126.886 170.933 132.881 168.657 138.465C166.38 144.049 162.983 149.102 158.675 153.308C151.944 160.043 142.819 165.222 132.589 168.182C130.938 168.662 129.263 169.08 127.563 169.436C123.489 170.313 119.336 170.761 115.171 170.772C112.006 170.779 108.849 170.488 105.739 169.902C102.091 169.226 98.5521 168.05 95.2222 166.408C84.1397 160.824 74.7144 147.786 78.1722 133.679C79.1499 129.764 81.0321 126.135 83.6661 123.086C86.3 120.038 89.6118 117.656 93.333 116.133L95.379 121.23C92.4542 122.415 89.8489 124.277 87.7751 126.664C85.7013 129.051 84.2174 131.895 83.444 134.967C80.6819 146.292 88.5044 156.891 97.6569 161.495C101.721 163.477 106.114 164.691 110.615 165.078C115.916 165.553 121.258 165.216 126.458 164.078C129.756 163.378 132.994 162.418 136.142 161.207C151.903 155.13 166.791 142.113 166.464 120.935C166.321 111.645 163.272 101.875 157.659 92.6737C151.521 82.5886 140.855 69.3244 125.08 63.3707L126.997 58.239C144.224 64.7409 155.709 78.9917 162.31 89.803C168.421 99.8471 171.749 110.583 171.906 120.853Z" fill="white"/>
</g>
<path opacity="0.2" d="M136.128 161.207C135.331 163.709 134.135 166.064 132.589 168.182C130.938 168.662 129.263 169.08 127.563 169.436C123.489 170.313 119.336 170.761 115.171 170.772C112.006 170.779 108.848 170.488 105.739 169.902C107.562 168.525 109.197 166.912 110.601 165.106C115.902 165.581 121.244 165.243 126.444 164.106C129.743 163.396 132.981 162.427 136.128 161.207Z" fill="black"/>
<path d="M123.525 210.489C123.414 210.489 123.305 210.456 123.213 210.394C123.121 210.331 123.049 210.243 123.007 210.139C122.966 210.066 122.942 209.984 122.934 209.901C122.927 209.817 122.938 209.732 122.966 209.653C123.164 209.265 123.464 208.938 123.832 208.708C123.314 208.838 122.802 208.886 122.584 208.708C122.366 208.529 122.427 208.372 122.536 208.111C122.584 207.992 122.658 207.884 122.753 207.797C122.847 207.709 122.959 207.643 123.082 207.604C123.88 207.33 125.128 207.974 125.21 208.002C125.231 208.014 125.249 208.03 125.264 208.05C125.268 208.068 125.268 208.087 125.264 208.105C125.268 208.12 125.268 208.137 125.264 208.153C124.96 208.925 124.519 209.635 123.962 210.249C123.845 210.374 123.692 210.458 123.525 210.489ZM123.259 209.742C123.24 209.782 123.231 209.825 123.231 209.869C123.231 209.913 123.24 209.956 123.259 209.996C123.368 210.201 123.464 210.194 123.498 210.194C123.846 210.194 124.419 209.256 124.807 208.44C124.241 208.762 123.409 209.304 123.259 209.742ZM122.823 208.194C122.789 208.276 122.741 208.413 122.823 208.468C123.014 208.646 123.934 208.427 124.787 208.098C124.299 207.855 123.749 207.771 123.211 207.858C123.135 207.88 123.065 207.92 123.007 207.974C122.925 208.03 122.861 208.109 122.823 208.201V208.194Z" fill="#407BFF"/>
<path d="M129.629 203.501C129.302 203.165 125.257 207.207 125.257 207.207C125.257 207.207 125.066 212.12 123.048 214.956C121.029 217.792 123.873 218.019 126.744 215.497L133.837 209.263C135.876 207.468 133.019 206.913 129.629 203.501Z" fill="#407BFF"/>
<path opacity="0.3" d="M129.629 203.501C129.302 203.165 125.257 207.207 125.257 207.207C125.257 207.207 125.066 212.12 123.048 214.956C121.029 217.792 123.873 218.019 126.744 215.497L133.837 209.263C135.876 207.468 133.019 206.913 129.629 203.501Z" fill="white"/>
<path opacity="0.2" d="M129.629 203.501C129.302 203.165 125.257 207.207 125.257 207.207C125.257 207.207 125.066 212.12 123.048 214.956C121.029 217.792 123.873 218.019 126.744 215.497L133.837 209.263C135.876 207.468 133.019 206.913 129.629 203.501Z" fill="black"/>
<path d="M125.441 213.894C125.358 213.823 125.299 213.727 125.273 213.619C125.248 213.512 125.256 213.4 125.298 213.298C125.32 213.217 125.359 213.142 125.412 213.077C125.465 213.012 125.53 212.959 125.605 212.921C126.015 212.753 126.463 212.698 126.901 212.764C126.43 212.531 126.008 212.236 125.987 211.941C125.987 211.75 126.103 211.592 126.362 211.469C126.482 211.416 126.61 211.39 126.741 211.39C126.871 211.39 127 211.416 127.119 211.469C127.91 211.777 128.415 213.072 128.435 213.134C128.443 213.156 128.443 213.18 128.435 213.202L128.401 213.25C128.39 213.253 128.378 213.253 128.367 213.25C127.608 213.631 126.789 213.879 125.946 213.983C125.773 214.01 125.595 213.979 125.441 213.894ZM125.755 213.175C125.715 213.194 125.68 213.222 125.652 213.256C125.623 213.29 125.603 213.33 125.592 213.373C125.537 213.593 125.592 213.647 125.639 213.668C125.912 213.88 127.003 213.558 127.828 213.202C127.144 213 126.417 212.99 125.728 213.175H125.755ZM126.499 211.736C126.424 211.736 126.287 211.846 126.294 211.921C126.294 212.174 127.146 212.606 128.013 212.908C127.815 212.41 127.46 211.991 127.003 211.715C126.93 211.683 126.851 211.667 126.771 211.667C126.676 211.668 126.583 211.692 126.499 211.736Z" fill="#407BFF"/>
<path d="M134.826 212.585C134.826 212.133 129.001 212.585 129.001 212.585C129.001 212.585 125.469 216.128 122.004 216.957C118.54 217.786 120.504 219.773 124.384 219.697L133.994 219.588C136.756 219.553 135.003 217.313 134.826 212.585Z" fill="#407BFF"/>
<path opacity="0.3" d="M134.826 212.585C134.826 212.133 129.001 212.585 129.001 212.585C129.001 212.585 125.469 216.128 122.004 216.957C118.54 217.786 120.504 219.773 124.384 219.697L133.994 219.588C136.756 219.553 135.003 217.313 134.826 212.585Z" fill="white"/>
<path d="M106.407 166.942C108.528 171.012 110.662 175.396 112.708 179.774C115.436 185.557 117.933 191.353 120.081 196.533C121.615 200.233 123.62 204.898 124.678 207.721C126.934 207.55 129.081 206.673 130.816 205.213C130.031 200.13 127.924 186.941 123.941 175.335C121.847 169.223 119.242 163.201 116.03 158.296C131.034 120.956 128.149 106.691 128.149 106.691L112.204 105.513C112.204 105.513 109.326 119.51 106.911 133.878C105.657 141.414 104.531 149.039 104.013 154.815V154.87C103.637 159.042 104.468 163.234 106.407 166.942Z" fill="#263238"/>
<path opacity="0.2" d="M120.272 147.183C122.502 140.825 124.146 135.309 125.332 130.575C124.432 126.814 123.089 123.573 121.179 121.593C121.145 121.593 117.967 131.898 120.272 147.183Z" fill="black"/>
<path opacity="0.2" d="M120.081 196.553C121.616 200.253 123.621 204.919 124.678 207.742C126.934 207.571 129.081 206.694 130.816 205.234C130.031 200.15 127.924 186.961 123.941 175.355C122.57 181.549 121.002 189.414 120.081 196.553Z" fill="black"/>
<path d="M118.628 104.013C118.628 104.013 123.28 138.68 125.946 155.363C128.742 172.889 129.097 201 128.401 212.462C129.418 213.031 133.135 213.723 135.14 213.113C135.14 213.113 144.619 177.678 138.325 157.097C144.06 116.557 135.76 106.63 135.76 106.63L118.628 104.013Z" fill="#263238"/>
<path d="M117.871 75.4016C111.515 76.9363 100.821 79.3068 94.6832 76.4704C87.454 72.3596 93.5033 64.7615 97.5135 60.9796C100.316 58.2896 103.349 55.8526 106.577 53.6966C106.959 53.4415 107.421 53.338 107.874 53.406C108.328 53.4741 108.74 53.7089 109.03 54.0649C109.321 54.4209 109.47 54.8727 109.447 55.3326C109.425 55.7925 109.233 56.2277 108.91 56.5536C106.4 59.2188 103.89 61.9867 101.667 64.7752C100.214 66.673 98.591 68.6942 97.9772 70.8044C97.8818 71.236 97.9772 71.2017 97.9363 70.8729C97.8772 70.6559 97.7673 70.4562 97.6158 70.2905C97.6158 70.2905 97.6158 70.2905 97.6703 70.2905C100.112 70.8866 102.833 70.4686 105.466 70.1672C108.944 69.6807 112.579 68.9477 116.016 68.1598C120.79 67.1184 122.57 73.9902 117.858 75.3947L117.871 75.4016Z" fill="#E8BCBD"/>
<path d="M119.699 67.8515C115.989 67.7555 100.746 70.1261 100.746 70.1261L102.213 78.3477L113.063 77.9161L119.699 67.8515Z" fill="#407BFF"/>
<path opacity="0.7" d="M119.706 67.8515L114.816 75.2852L113.07 77.9435L109.96 78.0873L102.213 78.3751L100.746 70.1535C100.746 70.1535 115.989 67.7487 119.706 67.8515Z" fill="white"/>
<path opacity="0.2" d="M114.816 75.2851L113.07 77.9434L109.96 78.0873C110.315 76.8734 110.982 75.775 111.895 74.9029C112.807 74.0308 113.933 73.4159 115.157 73.1201C115.239 73.3942 114.761 74.9974 114.816 75.2851Z" fill="black"/>
<path d="M105.902 55.0532L106.652 49.1199L109.442 45.0092L111.658 48.7226L110.894 51.3055C110.894 51.3055 111.733 54.6695 109.026 56.492L105.902 55.0532Z" fill="#E8BCBD"/>
<path d="M111.89 97.9424C111.645 92.9135 111.542 89.3851 111.529 85.8087C111.437 82.76 111.553 79.7086 111.876 76.6759C112.129 72.7364 115.205 68.283 119.16 67.8719C120.258 67.7555 121.404 67.6527 122.502 67.591C125.882 67.4676 129.266 67.5844 132.63 67.9405C133.591 68.0158 134.526 68.1254 135.405 68.2488C136.175 68.3503 136.912 68.6237 137.563 69.0489C138.214 69.4742 138.761 70.0404 139.166 70.7061C139.57 71.3718 139.82 72.12 139.899 72.8958C139.978 73.6716 139.883 74.4552 139.62 75.1892C136.422 85.2195 135.003 91.7351 134.539 96.9489C135.112 98.5453 138.113 107.178 136.885 108.151C135.521 109.233 113.015 110.042 111.242 108.151C109.885 106.685 111.222 100.594 111.89 97.9424Z" fill="#407BFF"/>
<path opacity="0.7" d="M139.62 75.1892C139.041 77.0116 138.516 78.7176 138.052 80.3208C137.99 80.5264 137.936 80.725 137.868 80.9237C137.649 81.7185 137.431 82.4858 137.227 83.2258C136.722 85.0688 136.306 86.7679 135.958 88.3368C135.292 91.1744 134.818 94.0539 134.539 96.9558C135.112 98.5522 138.113 107.178 136.886 108.158C135.522 109.233 113.016 110.042 111.242 108.158C109.878 106.692 111.242 100.621 111.924 97.9424C111.679 92.9135 111.57 89.3851 111.556 85.8087C111.455 82.7537 111.564 79.6952 111.883 76.6554C112.136 72.709 115.205 68.2556 119.167 67.8446C120.258 67.7212 121.404 67.6185 122.502 67.5637C125.88 67.4367 129.262 67.5535 132.623 67.9131C133.585 67.9884 134.526 68.0981 135.399 68.2145C136.172 68.3163 136.913 68.5911 137.566 69.0187C138.219 69.4462 138.769 70.0157 139.174 70.6851C139.579 71.3544 139.83 72.1066 139.907 72.8862C139.984 73.6657 139.886 74.4527 139.62 75.1892Z" fill="white"/>
<path opacity="0.2" d="M137.868 80.9237C137.649 81.7184 137.431 82.4858 137.227 83.2257C135.085 82.061 136.013 78.6148 136.013 78.6148C136.504 77.4432 136.013 76.8129 136.913 76.9773C137.148 78.3117 137.467 79.6297 137.868 80.9237Z" fill="black"/>
<path d="M138.127 100.751L139.491 106.575L138.318 111.405L134.949 108.706L134.765 106.047C134.765 106.047 132.807 103.197 134.696 100.566L138.127 100.751Z" fill="#E8BCBD"/>
<path d="M139.675 69.9753C144.79 73.401 155.947 81.369 153.274 88.6109C150.791 94.7771 142.587 99.8607 137.042 102.999C136.639 103.207 136.174 103.259 135.736 103.145C135.297 103.031 134.915 102.76 134.663 102.382C134.41 102.004 134.305 101.546 134.366 101.095C134.428 100.644 134.652 100.232 134.996 99.9361C139.02 96.2158 143.371 92.5572 146.358 87.9943C146.701 87.5104 146.923 86.9513 147.006 86.3636C147.006 86.4253 147.006 86.3636 146.911 86.2403C146.086 84.6919 144.558 83.2874 143.078 81.9583C140.677 79.9083 138.173 77.9829 135.576 76.1894C131.743 73.305 135.576 67.5362 139.702 69.9821L139.675 69.9753Z" fill="#E8BCBD"/>
<path d="M135.405 68.2488C140.725 68.9339 148.616 74.6137 151.678 79.4164L145.063 85.0756C145.063 85.0756 139.368 81.3828 133.973 79.7247C132.747 77.5388 132.154 75.0515 132.261 72.5446C132.548 68.6462 135.405 68.2488 135.405 68.2488Z" fill="#407BFF"/>
<path opacity="0.7" d="M135.405 68.2488C140.725 68.9339 148.616 74.6137 151.678 79.4164L145.063 85.0756C145.063 85.0756 139.368 81.3828 133.973 79.7247C132.747 77.5388 132.154 75.0515 132.261 72.5446C132.548 68.6462 135.405 68.2488 135.405 68.2488Z" fill="white"/>
<path d="M115.737 73.6271C115.737 73.6271 115.88 67.5363 123.32 66.6593C130.761 65.7824 131.675 68.4612 131.122 72.017C129.951 71.4968 128.737 71.0796 127.494 70.7701C125.707 70.3522 120.715 76.121 120.715 76.121C120.715 76.121 118.444 71.7087 118.055 71.3251C117.667 70.9414 115.737 73.6271 115.737 73.6271Z" fill="#407BFF"/>
<path d="M110.083 53.4295C111.515 56.677 113.452 57.9787 113.179 62.7198C112.906 67.4609 113.943 68.749 122.802 67.2691C131.661 65.7892 134.076 63.1583 133.973 59.1983C133.871 55.2382 131.975 54.4023 130.222 52.0386C128.47 49.6749 128.074 43.9815 120.77 44.42C113.466 44.8584 107.859 48.3869 110.083 53.4295Z" fill="#263238"/>
<path d="M123.811 57.7046C124.262 61.0617 125.585 67.0155 128.381 68.2008C128.381 68.2008 125.36 68.975 120.879 75.2851C119.88 73.6665 119.16 71.8898 118.751 70.0301C121.827 67.7829 121.158 67.3718 119.76 65.1999L123.811 57.7046Z" fill="#E8BCBD"/>
<path opacity="0.2" d="M122.168 60.7603L119.781 65.1931C120.114 65.6987 120.401 66.2329 120.64 66.7894C121.854 66.0563 123.13 63.8571 122.795 62.4114C122.685 61.828 122.473 61.2689 122.168 60.7603Z" fill="black"/>
<path d="M125.312 51.7508C125.571 57.1222 125.789 59.3832 123.457 62.5485C119.938 67.3444 113.438 66.7963 111.617 61.6852C109.981 57.0948 109.837 49.0788 114.707 46.119C115.732 45.4456 116.917 45.0603 118.14 45.0031C119.364 44.9459 120.58 45.2189 121.662 45.7938C122.745 46.3687 123.654 47.2244 124.296 48.2721C124.938 49.3197 125.289 50.5209 125.312 51.7508Z" fill="#E8BCBD"/>
<path d="M115.225 55.6082C114.931 56.6999 114.5 57.7498 113.943 58.7324C114.184 58.8588 114.45 58.9288 114.722 58.9371C114.993 58.9454 115.263 58.8918 115.511 58.7803L115.225 55.6082Z" fill="#D4827D"/>
<path d="M127.515 55.8479C127.095 56.9101 126.273 57.7622 125.23 58.2185C123.866 58.7666 123.095 57.458 123.375 55.985C123.627 54.6627 124.63 52.7785 126.035 52.8608C127.44 52.943 128.054 54.5051 127.515 55.8479Z" fill="#E8BCBD"/>
<path d="M113.275 52.1893C113.305 52.1761 113.337 52.1693 113.37 52.1693C113.403 52.1693 113.435 52.1761 113.466 52.1893C113.524 52.2249 113.566 52.2823 113.583 52.3491C113.6 52.4159 113.589 52.4865 113.554 52.5456C113.359 52.9223 113.08 53.249 112.74 53.5008C112.399 53.7526 112.006 53.9227 111.59 53.9981C111.557 54.002 111.523 53.9986 111.49 53.9883C111.458 53.978 111.429 53.961 111.403 53.9383C111.378 53.9157 111.358 53.8879 111.345 53.8569C111.331 53.8258 111.324 53.7922 111.324 53.7583C111.322 53.6882 111.346 53.6198 111.391 53.5665C111.437 53.5133 111.5 53.4791 111.57 53.4705C111.898 53.4053 112.208 53.266 112.475 53.063C112.742 52.8601 112.959 52.5988 113.111 52.299C113.153 52.2467 113.21 52.2085 113.275 52.1893Z" fill="#263238"/>
<path d="M116.944 51.744C116.911 51.7429 116.878 51.7498 116.849 51.7641C116.819 51.7785 116.793 51.7997 116.773 51.8262C116.731 51.88 116.712 51.9483 116.72 52.0162C116.727 52.0841 116.761 52.1463 116.814 52.1893C117.125 52.4789 117.499 52.6916 117.907 52.8105C118.314 52.9294 118.743 52.9513 119.16 52.8745C119.193 52.8668 119.224 52.8522 119.251 52.8317C119.278 52.8112 119.3 52.7852 119.316 52.7554C119.332 52.7256 119.342 52.6927 119.344 52.6589C119.347 52.6251 119.342 52.5912 119.331 52.5593C119.307 52.4926 119.26 52.4369 119.199 52.4028C119.137 52.3687 119.065 52.3585 118.997 52.3743C118.666 52.4292 118.328 52.4084 118.007 52.3135C117.685 52.2186 117.39 52.052 117.142 51.8262C117.116 51.7998 117.085 51.7789 117.051 51.7648C117.017 51.7507 116.981 51.7436 116.944 51.744Z" fill="#263238"/>
<path d="M119.14 54.3269C119.16 54.3757 119.176 54.4262 119.188 54.4776C119.283 54.923 119.147 55.3477 118.874 55.4231C118.601 55.4985 118.294 55.2176 118.192 54.7791C118.172 54.6657 118.172 54.5498 118.192 54.4365C118.192 54.1419 118.328 53.8952 118.533 53.8404C118.737 53.7856 119.01 53.9775 119.14 54.3269Z" fill="#263238"/>
<path d="M118.69 53.8679H117.612C117.612 53.8679 118.321 54.5393 118.69 53.8679Z" fill="#263238"/>
<path d="M120.074 60.9453C119.29 61.3152 117.08 61.7811 117.155 61.9661C117.102 61.8417 117.033 61.7243 116.951 61.6167C116.812 61.3853 116.609 61.2001 116.366 61.0843C116.124 60.9685 115.853 60.9273 115.587 60.9658C115.171 60.7945 118.431 57.6087 120.054 60.1026C120.272 60.5136 120.272 60.7808 120.074 60.9453Z" fill="#263238"/>
<path d="M120.074 60.9453C119.29 61.3153 117.08 61.7812 117.155 61.9661C117.102 61.8417 117.033 61.7244 116.951 61.6167C117.068 61.3222 117.255 61.0612 117.497 60.8568C117.738 60.6523 118.026 60.5106 118.334 60.4443C118.643 60.3779 118.963 60.3889 119.267 60.4763C119.57 60.5637 119.847 60.7247 120.074 60.9453Z" fill="#A02724"/>
<path opacity="0.2" d="M119.106 56.1015C118.342 56.1015 117.974 55.1971 117.974 55.1834C117.965 55.1616 117.965 55.137 117.973 55.1152C117.982 55.0934 118 55.076 118.021 55.0669C118.044 55.06 118.068 55.0617 118.09 55.0719C118.111 55.082 118.128 55.0998 118.137 55.1217C118.137 55.156 118.526 56.0672 119.283 55.8959C119.307 55.8919 119.332 55.8975 119.353 55.9115C119.373 55.9256 119.387 55.947 119.392 55.9713C119.396 55.9939 119.391 56.0173 119.379 56.0365C119.366 56.0556 119.346 56.0691 119.324 56.0741C119.253 56.0925 119.179 56.1017 119.106 56.1015Z" fill="black"/>
<path d="M113.063 55.4162L111.911 55.2587C111.911 55.2587 112.572 56.0603 113.063 55.4162Z" fill="#263238"/>
<path d="M112.456 55.3135C112.705 54.9937 113.07 54.7855 113.471 54.7342C113.872 54.6829 114.277 54.7925 114.598 55.0394C114.296 54.956 113.976 54.9607 113.677 55.0529C113.377 55.1451 113.11 55.321 112.906 55.5601L112.456 55.3135Z" fill="#263238"/>
<path opacity="0.2" d="M113.391 56.5741C113.373 56.5741 113.356 56.5689 113.341 56.5592C113.327 56.5494 113.315 56.5355 113.309 56.5193C113.304 56.5081 113.302 56.4961 113.303 56.4841C113.303 56.4721 113.306 56.4602 113.311 56.4494C113.316 56.4385 113.324 56.4287 113.332 56.4207C113.341 56.4127 113.352 56.4067 113.363 56.4028C113.624 56.3185 113.862 56.1761 114.061 55.9863C114.259 55.7965 114.412 55.5642 114.509 55.3066C114.515 55.2839 114.53 55.2647 114.551 55.2531C114.571 55.2416 114.596 55.2386 114.618 55.245C114.641 55.2514 114.661 55.2662 114.673 55.2865C114.686 55.3068 114.691 55.3311 114.686 55.3546C114.582 55.6397 114.413 55.8971 114.195 56.1073C113.976 56.3174 113.713 56.4747 113.425 56.5673L113.391 56.5741Z" fill="black"/>
<path d="M117.06 47.0783C117.06 47.0783 119.106 54.7586 124.05 56.444C128.995 58.1294 128.742 63.3775 126.942 64.4601C126.942 64.4601 131.034 65.1452 132.043 61.2673C133.053 57.3895 130.154 53.9296 129.424 48.4896C128.695 43.0497 120.817 42.3988 116.112 43.6046C111.406 44.8105 108.153 47.551 110.083 53.4294C110.083 53.4294 110.833 47.5099 117.06 47.0783Z" fill="#263238"/>
<path d="M170.74 131.993C166.922 131.905 163.121 131.446 159.391 130.623C147.634 128.307 138.29 125.464 130.004 121.662C119.774 116.962 111.297 110.789 104.866 103.314C101.292 99.203 98.7958 94.4756 96.3747 89.94C92.9237 83.4793 89.6706 77.3747 83.669 73.2502C72.2114 65.3712 57.9781 64.5902 48.055 65.3233C43.5401 65.659 28.502 67.5979 24.526 78.56L19.3359 76.6896C22.7459 67.2074 33.3442 60.9316 47.5912 59.8628C58.3804 59.068 73.9232 59.9587 86.6903 68.7352C93.7899 73.6134 97.5136 80.6017 101.121 87.3571C103.502 91.831 105.759 96.0514 108.93 99.7374C114.843 106.589 122.679 112.31 132.207 116.681C140.098 120.298 149.052 123.025 160.38 125.252C165.332 126.225 171.04 127.156 176.175 125.896C178.346 125.376 180.356 124.33 182.03 122.849C183.704 121.368 184.991 119.497 185.778 117.4C186.348 115.812 186.49 114.101 186.191 112.439C185.892 110.778 185.161 109.225 184.073 107.938L188.349 104.513C190.006 106.521 191.115 108.926 191.569 111.493C192.024 114.061 191.807 116.703 190.941 119.161C189.865 122.13 188.071 124.785 185.721 126.886C183.371 128.987 180.539 130.469 177.478 131.199C175.271 131.732 173.009 131.999 170.74 131.993Z" fill="#407BFF"/>
<path d="M133.591 140.112C132.146 128.273 122.161 117.715 109.851 115.009C104.354 113.714 98.5963 114.101 93.3193 116.119L95.3244 121.216C99.5951 119.619 104.24 119.321 108.678 120.36C118.799 122.587 126.996 131.171 128.17 140.777C128.886 146.6 127.242 152.89 123.552 158.481C117.114 168.237 106.018 173.834 98.2229 177.198C69.8585 189.442 40.7098 191.682 19.2541 183.447L21.3001 178.199L5.96875 181.357L15.1348 194.101L17.2899 188.558C26.4083 192.059 36.7952 193.792 47.8777 193.792C64.4707 193.792 82.6187 189.908 100.392 182.234C108.828 178.596 120.852 172.485 128.115 161.509C132.548 154.829 134.464 147.224 133.591 140.112Z" fill="#263238"/>
<path opacity="0.2" d="M133.591 140.112C132.146 128.273 122.161 117.715 109.851 115.009C104.354 113.714 98.5963 114.101 93.3193 116.119L95.3244 121.216C99.5951 119.619 104.24 119.321 108.678 120.36C118.799 122.587 126.996 131.171 128.17 140.777C128.886 146.6 127.242 152.89 123.552 158.481C117.114 168.237 106.018 173.834 98.2229 177.198C69.8585 189.442 40.7098 191.682 19.2541 183.447L21.3001 178.199L5.96875 181.357L15.1348 194.101L17.2899 188.558C26.4083 192.059 36.7952 193.792 47.8777 193.792C64.4707 193.792 82.6187 189.908 100.392 182.234C108.828 178.596 120.852 172.485 128.115 161.509C132.548 154.829 134.464 147.224 133.591 140.112Z" fill="white"/>
</svg>
