<svg width="265" height="200" viewBox="0 0 265 200" fill="none" xmlns="http://www.w3.org/2000/svg">
<g clip-path="url(#clip0_6073_23546)">
<path d="M264.625 176.133H0.375V176.265H264.625V176.133Z" fill="#EBEBEB"/>
<path d="M41.8406 181.165H28.0996V181.297H41.8406V181.165Z" fill="#EBEBEB"/>
<path d="M106.303 179.732H77.7109V179.865H106.303V179.732Z" fill="#EBEBEB"/>
<path d="M56.2792 186.074H42.3691V186.206H56.2792V186.074Z" fill="#EBEBEB"/>
<path d="M238.147 185.187H227.984V185.319H238.147V185.187Z" fill="#EBEBEB"/>
<path d="M223.276 185.187H207.268V185.319H223.276V185.187Z" fill="#EBEBEB"/>
<path d="M165.685 182.956H136.85V183.088H165.685V182.956Z" fill="#EBEBEB"/>
<path d="M125.635 152.562H23.5822C21.9174 152.562 20.5645 151.209 20.5645 149.544V6.0939C20.5645 4.42913 21.9174 3.07617 23.5822 3.07617H125.635C127.3 3.07617 128.653 4.42913 128.653 6.0939V149.544C128.653 151.209 127.3 152.562 125.635 152.562ZM23.5822 3.2083C21.9914 3.2083 20.6966 4.50312 20.6966 6.0939V149.544C20.6966 151.135 21.9914 152.43 23.5822 152.43H125.635C127.226 152.43 128.521 151.135 128.521 149.544V6.0939C128.521 4.50312 127.226 3.2083 125.635 3.2083H23.5822Z" fill="#EBEBEB"/>
<path d="M239.95 152.562H137.897C136.232 152.562 134.879 151.209 134.879 149.544V6.0939C134.879 4.42913 136.232 3.07617 137.897 3.07617H239.95C241.615 3.07617 242.968 4.42913 242.968 6.0939V149.544C242.968 151.209 241.615 152.562 239.95 152.562ZM137.897 3.2083C136.306 3.2083 135.011 4.50312 135.011 6.0939V149.544C135.011 151.135 136.306 152.43 137.897 152.43H239.95C241.541 152.43 242.835 151.135 242.835 149.544V6.0939C242.835 4.50312 241.541 3.2083 239.95 3.2083H137.897Z" fill="#EBEBEB"/>
<path d="M202.362 53.1035H165.668L160.6 58.1718V171.065C162.581 173.046 163.691 174.156 165.668 176.133H202.362C204.343 174.151 205.453 173.041 207.43 171.065V58.1718L202.362 53.1035Z" fill="#E0E0E0"/>
<path d="M160.6 171.064L165.668 176.133H177.047L171.978 171.064H160.6Z" fill="#EBEBEB"/>
<path d="M160.6 58.1718L165.668 53.1035H177.047L171.978 58.1718H160.6Z" fill="#EBEBEB"/>
<path d="M222.562 53.1035H177.053L171.984 58.1718V171.065C173.966 173.046 175.076 174.156 177.053 176.133H222.562C224.544 174.151 225.653 173.041 227.63 171.065V58.1718C225.648 56.1899 224.538 55.0801 222.562 53.1035Z" fill="#EBEBEB"/>
<path d="M177.696 173.765L174.346 170.42V58.8166L177.696 55.4712H221.916L225.261 58.8166V170.42L221.916 173.765H177.696Z" fill="white"/>
<path d="M225.261 61.4805H176.713V71.2577H225.261V61.4805Z" fill="#EBEBEB"/>
<path d="M222.518 160.553C222.518 160.785 222.708 160.975 222.94 160.975C223.173 160.975 223.363 160.785 223.363 160.553C223.363 160.32 223.173 160.13 222.94 160.13C222.708 160.13 222.518 160.32 222.518 160.553Z" fill="#F5F5F5"/>
<path d="M220.482 160.553C220.482 160.785 220.673 160.975 220.905 160.975C221.138 160.975 221.328 160.785 221.328 160.553C221.328 160.32 221.138 160.13 220.905 160.13C220.673 160.13 220.482 160.32 220.482 160.553Z" fill="white"/>
<path d="M218.443 160.553C218.443 160.785 218.634 160.975 218.866 160.975C219.099 160.975 219.289 160.785 219.289 160.553C219.289 160.32 219.099 160.13 218.866 160.13C218.634 160.13 218.443 160.32 218.443 160.553Z" fill="#F5F5F5"/>
<path d="M225.261 65.4175H176.713V67.3201H225.261V65.4175Z" fill="#F5F5F5"/>
<path d="M174.345 71.2524H176.713V61.4752H174.345V71.2524Z" fill="#E0E0E0"/>
<path d="M225.261 72.1982H176.713V81.9755H225.261V72.1982Z" fill="#EBEBEB"/>
<path d="M222.518 149.83C222.518 150.062 222.708 150.252 222.94 150.252C223.173 150.252 223.363 150.062 223.363 149.83C223.363 149.597 223.173 149.407 222.94 149.407C222.708 149.407 222.518 149.597 222.518 149.83Z" fill="#F5F5F5"/>
<path d="M220.482 149.83C220.482 150.062 220.673 150.252 220.905 150.252C221.138 150.252 221.328 150.062 221.328 149.83C221.328 149.597 221.138 149.407 220.905 149.407C220.673 149.407 220.482 149.597 220.482 149.83Z" fill="white"/>
<path d="M218.443 149.83C218.443 150.062 218.634 150.252 218.866 150.252C219.099 150.252 219.289 150.062 219.289 149.83C219.289 149.597 219.099 149.407 218.866 149.407C218.634 149.407 218.443 149.597 218.443 149.83Z" fill="white"/>
<path d="M225.261 76.1406H176.713V78.0432H225.261V76.1406Z" fill="#F5F5F5"/>
<path d="M174.345 81.981H176.713V72.2037H174.345V81.981Z" fill="#E0E0E0"/>
<path d="M225.261 82.9214H176.713V92.6986H225.261V82.9214Z" fill="#EBEBEB"/>
<path d="M222.518 139.106C222.518 139.339 222.708 139.529 222.94 139.529C223.173 139.529 223.363 139.339 223.363 139.106C223.363 138.874 223.173 138.684 222.94 138.684C222.708 138.684 222.518 138.874 222.518 139.106Z" fill="#F5F5F5"/>
<path d="M220.482 139.106C220.482 139.339 220.673 139.529 220.905 139.529C221.138 139.529 221.328 139.339 221.328 139.106C221.328 138.874 221.138 138.684 220.905 138.684C220.673 138.684 220.482 138.874 220.482 139.106Z" fill="#F5F5F5"/>
<path d="M218.443 139.106C218.443 139.339 218.634 139.529 218.866 139.529C219.099 139.529 219.289 139.339 219.289 139.106C219.289 138.874 219.099 138.684 218.866 138.684C218.634 138.684 218.443 138.874 218.443 139.106Z" fill="#F5F5F5"/>
<path d="M225.261 86.8638H176.713V88.7664H225.261V86.8638Z" fill="#F5F5F5"/>
<path d="M174.345 92.7041H176.713V82.9269H174.345V92.7041Z" fill="#E0E0E0"/>
<path d="M225.261 93.645H176.713V103.422H225.261V93.645Z" fill="#EBEBEB"/>
<path d="M222.518 128.383C222.518 128.616 222.708 128.806 222.94 128.806C223.173 128.806 223.363 128.616 223.363 128.383C223.363 128.151 223.173 127.96 222.94 127.96C222.708 127.96 222.518 128.151 222.518 128.383Z" fill="white"/>
<path d="M220.482 128.383C220.482 128.616 220.673 128.806 220.905 128.806C221.138 128.806 221.328 128.616 221.328 128.383C221.328 128.151 221.138 127.96 220.905 127.96C220.673 127.96 220.482 128.151 220.482 128.383Z" fill="white"/>
<path d="M218.443 128.383C218.443 128.616 218.634 128.806 218.866 128.806C219.099 128.806 219.289 128.616 219.289 128.383C219.289 128.151 219.099 127.96 218.866 127.96C218.634 127.96 218.443 128.151 218.443 128.383Z" fill="#F5F5F5"/>
<path d="M225.261 97.5825H176.713V99.4851H225.261V97.5825Z" fill="#F5F5F5"/>
<path d="M174.345 103.422H176.713V93.6451H174.345V103.422Z" fill="#E0E0E0"/>
<path d="M225.261 104.368H176.713V114.145H225.261V104.368Z" fill="#EBEBEB"/>
<path d="M222.518 117.66C222.518 117.893 222.708 118.083 222.94 118.083C223.173 118.083 223.363 117.893 223.363 117.66C223.363 117.428 223.173 117.237 222.94 117.237C222.708 117.237 222.518 117.428 222.518 117.66Z" fill="white"/>
<path d="M220.482 117.66C220.482 117.893 220.673 118.083 220.905 118.083C221.138 118.083 221.328 117.893 221.328 117.66C221.328 117.428 221.138 117.237 220.905 117.237C220.673 117.237 220.482 117.428 220.482 117.66Z" fill="white"/>
<path d="M218.443 117.66C218.443 117.893 218.634 118.083 218.866 118.083C219.099 118.083 219.289 117.893 219.289 117.66C219.289 117.428 219.099 117.237 218.866 117.237C218.634 117.237 218.443 117.428 218.443 117.66Z" fill="white"/>
<path d="M225.261 108.306H176.713V110.208H225.261V108.306Z" fill="#F5F5F5"/>
<path d="M174.345 114.146H176.713V104.368H174.345V114.146Z" fill="#E0E0E0"/>
<path d="M225.261 115.091H176.713V124.869H225.261V115.091Z" fill="#EBEBEB"/>
<path d="M222.518 106.936C222.518 107.169 222.708 107.359 222.94 107.359C223.173 107.359 223.363 107.169 223.363 106.936C223.363 106.704 223.173 106.514 222.94 106.514C222.708 106.514 222.518 106.704 222.518 106.936Z" fill="#F5F5F5"/>
<path d="M220.482 106.936C220.482 107.169 220.673 107.359 220.905 107.359C221.138 107.359 221.328 107.169 221.328 106.936C221.328 106.704 221.138 106.514 220.905 106.514C220.673 106.514 220.482 106.704 220.482 106.936Z" fill="white"/>
<path d="M218.443 106.936C218.443 107.169 218.634 107.359 218.866 107.359C219.099 107.359 219.289 107.169 219.289 106.936C219.289 106.704 219.099 106.514 218.866 106.514C218.634 106.514 218.443 106.704 218.443 106.936Z" fill="#F5F5F5"/>
<path d="M225.261 119.028H176.713V120.931H225.261V119.028Z" fill="#F5F5F5"/>
<path d="M174.345 124.869H176.713V115.091H174.345V124.869Z" fill="#E0E0E0"/>
<path d="M225.261 125.814H176.713V135.592H225.261V125.814Z" fill="#EBEBEB"/>
<path d="M222.518 96.2133C222.518 96.4459 222.708 96.6361 222.94 96.6361C223.173 96.6361 223.363 96.4459 223.363 96.2133C223.363 95.9808 223.173 95.7905 222.94 95.7905C222.708 95.7905 222.518 95.9808 222.518 96.2133Z" fill="white"/>
<path d="M220.482 96.2133C220.482 96.4459 220.673 96.6361 220.905 96.6361C221.138 96.6361 221.328 96.4459 221.328 96.2133C221.328 95.9808 221.138 95.7905 220.905 95.7905C220.673 95.7905 220.482 95.9808 220.482 96.2133Z" fill="white"/>
<path d="M218.443 96.2133C218.443 96.4459 218.634 96.6361 218.866 96.6361C219.099 96.6361 219.289 96.4459 219.289 96.2133C219.289 95.9808 219.099 95.7905 218.866 95.7905C218.634 95.7905 218.443 95.9808 218.443 96.2133Z" fill="#F5F5F5"/>
<path d="M225.261 129.752H176.713V131.655H225.261V129.752Z" fill="#F5F5F5"/>
<path d="M174.345 135.592H176.713V125.815H174.345V135.592Z" fill="#E0E0E0"/>
<path d="M225.261 136.538H176.713V146.315H225.261V136.538Z" fill="#EBEBEB"/>
<path d="M222.518 85.4902C222.518 85.7227 222.708 85.913 222.94 85.913C223.173 85.913 223.363 85.7227 223.363 85.4902C223.363 85.2576 223.173 85.0674 222.94 85.0674C222.708 85.0674 222.518 85.2576 222.518 85.4902Z" fill="white"/>
<path d="M220.482 85.4902C220.482 85.7227 220.673 85.913 220.905 85.913C221.138 85.913 221.328 85.7227 221.328 85.4902C221.328 85.2576 221.138 85.0674 220.905 85.0674C220.673 85.0674 220.482 85.2576 220.482 85.4902Z" fill="#F5F5F5"/>
<path d="M218.443 85.4902C218.443 85.7227 218.634 85.913 218.866 85.913C219.099 85.913 219.289 85.7227 219.289 85.4902C219.289 85.2576 219.099 85.0674 218.866 85.0674C218.634 85.0674 218.443 85.2576 218.443 85.4902Z" fill="white"/>
<path d="M225.261 140.475H176.713V142.378H225.261V140.475Z" fill="#F5F5F5"/>
<path d="M174.345 146.315H176.713V136.538H174.345V146.315Z" fill="#E0E0E0"/>
<path d="M225.261 147.261H176.713V157.038H225.261V147.261Z" fill="#EBEBEB"/>
<path d="M222.518 74.767C222.518 74.9996 222.708 75.1898 222.94 75.1898C223.173 75.1898 223.363 74.9996 223.363 74.767C223.363 74.5345 223.173 74.3442 222.94 74.3442C222.708 74.3442 222.518 74.5345 222.518 74.767Z" fill="#F5F5F5"/>
<path d="M220.482 74.767C220.482 74.9996 220.673 75.1898 220.905 75.1898C221.138 75.1898 221.328 74.9996 221.328 74.767C221.328 74.5345 221.138 74.3442 220.905 74.3442C220.673 74.3442 220.482 74.5345 220.482 74.767Z" fill="white"/>
<path d="M218.443 74.767C218.443 74.9996 218.634 75.1898 218.866 75.1898C219.099 75.1898 219.289 74.9996 219.289 74.767C219.289 74.5345 219.099 74.3442 218.866 74.3442C218.634 74.3442 218.443 74.5345 218.443 74.767Z" fill="#F5F5F5"/>
<path d="M225.261 151.199H176.713V153.101H225.261V151.199Z" fill="#F5F5F5"/>
<path d="M174.345 157.039H176.713V147.261H174.345V157.039Z" fill="#E0E0E0"/>
<path d="M225.261 157.984H176.713V167.762H225.261V157.984Z" fill="#EBEBEB"/>
<path d="M222.518 64.0434C222.518 64.2759 222.708 64.4662 222.94 64.4662C223.173 64.4662 223.363 64.2759 223.363 64.0434C223.363 63.8109 223.173 63.6206 222.94 63.6206C222.708 63.6206 222.518 63.8109 222.518 64.0434Z" fill="#F5F5F5"/>
<path d="M220.482 64.0434C220.482 64.2759 220.673 64.4662 220.905 64.4662C221.138 64.4662 221.328 64.2759 221.328 64.0434C221.328 63.8109 221.138 63.6206 220.905 63.6206C220.673 63.6206 220.482 63.8109 220.482 64.0434Z" fill="#F5F5F5"/>
<path d="M218.443 64.0434C218.443 64.2759 218.634 64.4662 218.866 64.4662C219.099 64.4662 219.289 64.2759 219.289 64.0434C219.289 63.8109 219.099 63.6206 218.866 63.6206C218.634 63.6206 218.443 63.8109 218.443 64.0434Z" fill="white"/>
<path d="M225.261 161.921H176.713V163.824H225.261V161.921Z" fill="#F5F5F5"/>
<path d="M174.345 167.761H176.713V157.984H174.345V167.761Z" fill="#E0E0E0"/>
<path d="M140.75 53.1035H104.057C102.075 55.0854 100.965 56.1952 98.9883 58.1718V171.065C100.97 173.046 102.08 174.156 104.057 176.133H140.75C142.732 174.151 143.842 173.041 145.819 171.065V58.1718C143.837 56.1899 142.727 55.0801 140.75 53.1035Z" fill="#E0E0E0"/>
<path d="M98.9824 171.064L104.056 176.133H115.435L110.366 171.064H98.9824Z" fill="#EBEBEB"/>
<path d="M98.9824 58.1718L104.056 53.1035H115.435L110.366 58.1718H98.9824Z" fill="#EBEBEB"/>
<path d="M160.944 53.1035H115.43L110.361 58.1718V171.065C112.343 173.046 113.453 174.156 115.43 176.133H160.944C162.926 174.151 164.036 173.041 166.012 171.065V58.1718C164.03 56.1899 162.921 55.0801 160.944 53.1035Z" fill="#EBEBEB"/>
<path d="M116.08 173.765L112.734 170.42V58.8166L116.08 55.4712H160.299L163.65 58.8166V170.42L160.299 173.765H116.08Z" fill="white"/>
<path d="M163.65 61.4805H115.102V71.2577H163.65V61.4805Z" fill="#EBEBEB"/>
<path d="M160.906 64.0434C160.906 63.8109 161.097 63.6206 161.329 63.6206C161.562 63.6206 161.752 63.8109 161.752 64.0434C161.752 64.2759 161.562 64.4662 161.329 64.4662C161.097 64.4662 160.906 64.2759 160.906 64.0434Z" fill="#F5F5F5"/>
<path d="M158.865 64.0434C158.865 63.8109 159.055 63.6206 159.288 63.6206C159.521 63.6206 159.711 63.8109 159.711 64.0434C159.711 64.2759 159.521 64.4662 159.288 64.4662C159.055 64.4662 158.865 64.2759 158.865 64.0434Z" fill="white"/>
<path d="M156.826 64.0434C156.826 63.8109 157.016 63.6206 157.249 63.6206C157.482 63.6206 157.672 63.8109 157.672 64.0434C157.672 64.2759 157.482 64.4662 157.249 64.4662C157.016 64.4662 156.826 64.2759 156.826 64.0434Z" fill="#F5F5F5"/>
<path d="M163.65 65.4175H115.102V67.3201H163.65V65.4175Z" fill="#F5F5F5"/>
<path d="M112.728 71.2524H115.096V61.4752H112.728V71.2524Z" fill="#E0E0E0"/>
<path d="M163.65 72.1982H115.102V81.9755H163.65V72.1982Z" fill="#EBEBEB"/>
<path d="M160.906 74.7666C160.906 74.534 161.097 74.3438 161.329 74.3438C161.562 74.3438 161.752 74.534 161.752 74.7666C161.752 74.9991 161.562 75.1894 161.329 75.1894C161.097 75.1894 160.906 74.9991 160.906 74.7666Z" fill="#F5F5F5"/>
<path d="M158.865 74.7666C158.865 74.534 159.055 74.3438 159.288 74.3438C159.521 74.3438 159.711 74.534 159.711 74.7666C159.711 74.9991 159.521 75.1894 159.288 75.1894C159.055 75.1894 158.865 74.9991 158.865 74.7666Z" fill="white"/>
<path d="M156.826 74.7666C156.826 74.534 157.016 74.3438 157.249 74.3438C157.482 74.3438 157.672 74.534 157.672 74.7666C157.672 74.9991 157.482 75.1894 157.249 75.1894C157.016 75.1894 156.826 74.9991 156.826 74.7666Z" fill="white"/>
<path d="M163.65 76.1406H115.102V78.0432H163.65V76.1406Z" fill="#F5F5F5"/>
<path d="M112.728 81.981H115.096V72.2037H112.728V81.981Z" fill="#E0E0E0"/>
<path d="M163.65 82.9214H115.102V92.6986H163.65V82.9214Z" fill="#EBEBEB"/>
<path d="M160.906 85.4897C160.906 85.2571 161.097 85.0669 161.329 85.0669C161.562 85.0669 161.752 85.2571 161.752 85.4897C161.752 85.7222 161.562 85.9125 161.329 85.9125C161.097 85.9125 160.906 85.7222 160.906 85.4897Z" fill="#F5F5F5"/>
<path d="M158.865 85.4897C158.865 85.2571 159.055 85.0669 159.288 85.0669C159.521 85.0669 159.711 85.2571 159.711 85.4897C159.711 85.7222 159.521 85.9125 159.288 85.9125C159.055 85.9125 158.865 85.7222 158.865 85.4897Z" fill="#F5F5F5"/>
<path d="M156.826 85.4897C156.826 85.2571 157.016 85.0669 157.249 85.0669C157.482 85.0669 157.672 85.2571 157.672 85.4897C157.672 85.7222 157.482 85.9125 157.249 85.9125C157.016 85.9125 156.826 85.7222 156.826 85.4897Z" fill="#F5F5F5"/>
<path d="M163.65 86.8638H115.102V88.7664H163.65V86.8638Z" fill="#F5F5F5"/>
<path d="M112.728 92.7041H115.096V82.9269H112.728V92.7041Z" fill="#E0E0E0"/>
<path d="M163.65 93.645H115.102V103.422H163.65V93.645Z" fill="#EBEBEB"/>
<path d="M160.906 96.2133C160.906 95.9808 161.097 95.7905 161.329 95.7905C161.562 95.7905 161.752 95.9808 161.752 96.2133C161.752 96.4459 161.562 96.6361 161.329 96.6361C161.097 96.6361 160.906 96.4459 160.906 96.2133Z" fill="white"/>
<path d="M158.865 96.2133C158.865 95.9808 159.055 95.7905 159.288 95.7905C159.521 95.7905 159.711 95.9808 159.711 96.2133C159.711 96.4459 159.521 96.6361 159.288 96.6361C159.055 96.6361 158.865 96.4459 158.865 96.2133Z" fill="white"/>
<path d="M156.826 96.2133C156.826 95.9808 157.016 95.7905 157.249 95.7905C157.482 95.7905 157.672 95.9808 157.672 96.2133C157.672 96.4459 157.482 96.6361 157.249 96.6361C157.016 96.6361 156.826 96.4459 156.826 96.2133Z" fill="#F5F5F5"/>
<path d="M163.65 97.5825H115.102V99.4851H163.65V97.5825Z" fill="#F5F5F5"/>
<path d="M112.728 103.422H115.096V93.6451H112.728V103.422Z" fill="#E0E0E0"/>
<path d="M163.65 104.368H115.102V114.145H163.65V104.368Z" fill="#EBEBEB"/>
<path d="M160.906 106.936C160.906 106.704 161.097 106.514 161.329 106.514C161.562 106.514 161.752 106.704 161.752 106.936C161.752 107.169 161.562 107.359 161.329 107.359C161.097 107.359 160.906 107.169 160.906 106.936Z" fill="white"/>
<path d="M158.865 106.936C158.865 106.704 159.055 106.514 159.288 106.514C159.521 106.514 159.711 106.704 159.711 106.936C159.711 107.169 159.521 107.359 159.288 107.359C159.055 107.359 158.865 107.169 158.865 106.936Z" fill="white"/>
<path d="M156.826 106.936C156.826 106.704 157.016 106.514 157.249 106.514C157.482 106.514 157.672 106.704 157.672 106.936C157.672 107.169 157.482 107.359 157.249 107.359C157.016 107.359 156.826 107.169 156.826 106.936Z" fill="white"/>
<path d="M163.65 108.306H115.102V110.208H163.65V108.306Z" fill="#F5F5F5"/>
<path d="M112.728 114.146H115.096V104.368H112.728V114.146Z" fill="#E0E0E0"/>
<path d="M163.65 115.091H115.102V124.869H163.65V115.091Z" fill="#EBEBEB"/>
<path d="M160.906 117.66C160.906 117.427 161.097 117.237 161.329 117.237C161.562 117.237 161.752 117.427 161.752 117.66C161.752 117.892 161.562 118.082 161.329 118.082C161.097 118.082 160.906 117.892 160.906 117.66Z" fill="#F5F5F5"/>
<path d="M158.865 117.66C158.865 117.427 159.055 117.237 159.288 117.237C159.521 117.237 159.711 117.427 159.711 117.66C159.711 117.892 159.521 118.082 159.288 118.082C159.055 118.082 158.865 117.892 158.865 117.66Z" fill="white"/>
<path d="M156.826 117.66C156.826 117.427 157.016 117.237 157.249 117.237C157.482 117.237 157.672 117.427 157.672 117.66C157.672 117.892 157.482 118.082 157.249 118.082C157.016 118.082 156.826 117.892 156.826 117.66Z" fill="#F5F5F5"/>
<path d="M163.65 119.029H115.102V120.931H163.65V119.029Z" fill="#F5F5F5"/>
<path d="M112.728 124.869H115.096V115.091H112.728V124.869Z" fill="#E0E0E0"/>
<path d="M163.65 125.814H115.102V135.592H163.65V125.814Z" fill="#EBEBEB"/>
<path d="M160.906 128.383C160.906 128.15 161.097 127.96 161.329 127.96C161.562 127.96 161.752 128.15 161.752 128.383C161.752 128.615 161.562 128.806 161.329 128.806C161.097 128.806 160.906 128.615 160.906 128.383Z" fill="white"/>
<path d="M158.865 128.383C158.865 128.15 159.055 127.96 159.288 127.96C159.521 127.96 159.711 128.15 159.711 128.383C159.711 128.615 159.521 128.806 159.288 128.806C159.055 128.806 158.865 128.615 158.865 128.383Z" fill="white"/>
<path d="M156.826 128.383C156.826 128.15 157.016 127.96 157.249 127.96C157.482 127.96 157.672 128.15 157.672 128.383C157.672 128.615 157.482 128.806 157.249 128.806C157.016 128.806 156.826 128.615 156.826 128.383Z" fill="#F5F5F5"/>
<path d="M163.65 129.752H115.102V131.655H163.65V129.752Z" fill="#F5F5F5"/>
<path d="M112.728 135.592H115.096V125.815H112.728V135.592Z" fill="#E0E0E0"/>
<path d="M163.65 136.538H115.102V146.315H163.65V136.538Z" fill="#EBEBEB"/>
<path d="M160.906 139.106C160.906 138.874 161.097 138.684 161.329 138.684C161.562 138.684 161.752 138.874 161.752 139.106C161.752 139.339 161.562 139.529 161.329 139.529C161.097 139.529 160.906 139.339 160.906 139.106Z" fill="white"/>
<path d="M158.865 139.106C158.865 138.874 159.055 138.684 159.288 138.684C159.521 138.684 159.711 138.874 159.711 139.106C159.711 139.339 159.521 139.529 159.288 139.529C159.055 139.529 158.865 139.339 158.865 139.106Z" fill="#F5F5F5"/>
<path d="M156.826 139.106C156.826 138.874 157.016 138.684 157.249 138.684C157.482 138.684 157.672 138.874 157.672 139.106C157.672 139.339 157.482 139.529 157.249 139.529C157.016 139.529 156.826 139.339 156.826 139.106Z" fill="white"/>
<path d="M163.65 140.476H115.102V142.378H163.65V140.476Z" fill="#F5F5F5"/>
<path d="M112.728 146.315H115.096V136.538H112.728V146.315Z" fill="#E0E0E0"/>
<path d="M163.65 147.261H115.102V157.038H163.65V147.261Z" fill="#EBEBEB"/>
<path d="M160.906 149.83C160.906 149.597 161.097 149.407 161.329 149.407C161.562 149.407 161.752 149.597 161.752 149.83C161.752 150.062 161.562 150.252 161.329 150.252C161.097 150.252 160.906 150.062 160.906 149.83Z" fill="#F5F5F5"/>
<path d="M158.865 149.83C158.865 149.597 159.055 149.407 159.288 149.407C159.521 149.407 159.711 149.597 159.711 149.83C159.711 150.062 159.521 150.252 159.288 150.252C159.055 150.252 158.865 150.062 158.865 149.83Z" fill="white"/>
<path d="M156.826 149.83C156.826 149.597 157.016 149.407 157.249 149.407C157.482 149.407 157.672 149.597 157.672 149.83C157.672 150.062 157.482 150.252 157.249 150.252C157.016 150.252 156.826 150.062 156.826 149.83Z" fill="#F5F5F5"/>
<path d="M163.65 151.199H115.102V153.101H163.65V151.199Z" fill="#F5F5F5"/>
<path d="M112.728 157.039H115.096V147.261H112.728V157.039Z" fill="#E0E0E0"/>
<path d="M163.65 157.984H115.102V167.762H163.65V157.984Z" fill="#EBEBEB"/>
<path d="M160.906 160.553C160.906 160.32 161.097 160.13 161.329 160.13C161.562 160.13 161.752 160.32 161.752 160.553C161.752 160.785 161.562 160.975 161.329 160.975C161.097 160.975 160.906 160.785 160.906 160.553Z" fill="#F5F5F5"/>
<path d="M158.865 160.553C158.865 160.32 159.055 160.13 159.288 160.13C159.521 160.13 159.711 160.32 159.711 160.553C159.711 160.785 159.521 160.975 159.288 160.975C159.055 160.975 158.865 160.785 158.865 160.553Z" fill="#F5F5F5"/>
<path d="M156.826 160.553C156.826 160.32 157.016 160.13 157.249 160.13C157.482 160.13 157.672 160.32 157.672 160.553C157.672 160.785 157.482 160.975 157.249 160.975C157.016 160.975 156.826 160.785 156.826 160.553Z" fill="white"/>
<path d="M163.65 161.922H115.102V163.824H163.65V161.922Z" fill="#F5F5F5"/>
<path d="M112.728 167.762H115.096V157.984H112.728V167.762Z" fill="#E0E0E0"/>
<path d="M79.1312 53.1035H42.4374C40.4556 55.0854 39.3457 56.1952 37.3691 58.1718V171.065C39.351 173.046 40.4609 174.156 42.4374 176.133H79.1312C81.113 174.151 82.2229 173.041 84.1995 171.065V58.1718C82.2176 56.1899 81.1077 55.0801 79.1312 53.1035Z" fill="#E0E0E0"/>
<path d="M37.3691 171.064L42.4374 176.133H53.816L48.7477 171.064H37.3691Z" fill="#EBEBEB"/>
<path d="M37.3691 58.1718L42.4374 53.1035H53.816L48.7477 58.1718H37.3691Z" fill="#EBEBEB"/>
<path d="M99.3313 53.1035H53.8222L48.7539 58.1718V171.065C50.7358 173.046 51.8456 174.156 53.8222 176.133H99.3313C101.313 174.151 102.423 173.041 104.4 171.065V58.1718L99.3313 53.1035Z" fill="#EBEBEB"/>
<path d="M54.4659 173.765L51.1152 170.42V58.8166L54.4659 55.4712H98.6855L102.031 58.8166V170.42L98.6855 173.765H54.4659Z" fill="white"/>
<path d="M102.03 61.4805H53.4824V71.2577H102.03V61.4805Z" fill="#EBEBEB"/>
<path d="M99.2871 160.553C99.2871 160.785 99.4774 160.975 99.7099 160.975C99.9425 160.975 100.133 160.785 100.133 160.553C100.133 160.32 99.9425 160.13 99.7099 160.13C99.4774 160.13 99.2871 160.32 99.2871 160.553Z" fill="#F5F5F5"/>
<path d="M97.252 160.553C97.252 160.785 97.4422 160.975 97.6748 160.975C97.9073 160.975 98.0976 160.785 98.0976 160.553C98.0976 160.32 97.9073 160.13 97.6748 160.13C97.4422 160.13 97.252 160.32 97.252 160.553Z" fill="white"/>
<path d="M95.2129 160.553C95.2129 160.785 95.4032 160.975 95.6357 160.975C95.8682 160.975 96.0585 160.785 96.0585 160.553C96.0585 160.32 95.8682 160.13 95.6357 160.13C95.4032 160.13 95.2129 160.32 95.2129 160.553Z" fill="#F5F5F5"/>
<path d="M102.03 65.4175H53.4824V67.3201H102.03V65.4175Z" fill="#F5F5F5"/>
<path d="M51.1147 71.2524H53.4824V61.4752H51.1147V71.2524Z" fill="#E0E0E0"/>
<path d="M102.03 72.1982H53.4824V81.9755H102.03V72.1982Z" fill="#EBEBEB"/>
<path d="M99.2871 149.83C99.2871 150.062 99.4774 150.252 99.7099 150.252C99.9425 150.252 100.133 150.062 100.133 149.83C100.133 149.597 99.9425 149.407 99.7099 149.407C99.4774 149.407 99.2871 149.597 99.2871 149.83Z" fill="#F5F5F5"/>
<path d="M97.252 149.83C97.252 150.062 97.4422 150.252 97.6748 150.252C97.9073 150.252 98.0976 150.062 98.0976 149.83C98.0976 149.597 97.9073 149.407 97.6748 149.407C97.4422 149.407 97.252 149.597 97.252 149.83Z" fill="white"/>
<path d="M95.2129 149.83C95.2129 150.062 95.4032 150.252 95.6357 150.252C95.8682 150.252 96.0585 150.062 96.0585 149.83C96.0585 149.597 95.8682 149.407 95.6357 149.407C95.4032 149.407 95.2129 149.597 95.2129 149.83Z" fill="white"/>
<path d="M102.03 76.1406H53.4824V78.0432H102.03V76.1406Z" fill="#F5F5F5"/>
<path d="M51.1147 81.981H53.4824V72.2037H51.1147V81.981Z" fill="#E0E0E0"/>
<path d="M102.03 82.9214H53.4824V92.6986H102.03V82.9214Z" fill="#EBEBEB"/>
<path d="M99.2871 139.106C99.2871 139.339 99.4774 139.529 99.7099 139.529C99.9425 139.529 100.133 139.339 100.133 139.106C100.133 138.874 99.9425 138.684 99.7099 138.684C99.4774 138.684 99.2871 138.874 99.2871 139.106Z" fill="#F5F5F5"/>
<path d="M97.252 139.106C97.252 139.339 97.4422 139.529 97.6748 139.529C97.9073 139.529 98.0976 139.339 98.0976 139.106C98.0976 138.874 97.9073 138.684 97.6748 138.684C97.4422 138.684 97.252 138.874 97.252 139.106Z" fill="#F5F5F5"/>
<path d="M95.2129 139.106C95.2129 139.339 95.4032 139.529 95.6357 139.529C95.8682 139.529 96.0585 139.339 96.0585 139.106C96.0585 138.874 95.8682 138.684 95.6357 138.684C95.4032 138.684 95.2129 138.874 95.2129 139.106Z" fill="#F5F5F5"/>
<path d="M102.03 86.8638H53.4824V88.7664H102.03V86.8638Z" fill="#F5F5F5"/>
<path d="M51.1147 92.7041H53.4824V82.9269H51.1147V92.7041Z" fill="#E0E0E0"/>
<path d="M102.03 93.645H53.4824V103.422H102.03V93.645Z" fill="#EBEBEB"/>
<path d="M99.2871 128.383C99.2871 128.616 99.4774 128.806 99.7099 128.806C99.9425 128.806 100.133 128.616 100.133 128.383C100.133 128.151 99.9425 127.96 99.7099 127.96C99.4774 127.96 99.2871 128.151 99.2871 128.383Z" fill="white"/>
<path d="M97.252 128.383C97.252 128.616 97.4422 128.806 97.6748 128.806C97.9073 128.806 98.0976 128.616 98.0976 128.383C98.0976 128.151 97.9073 127.96 97.6748 127.96C97.4422 127.96 97.252 128.151 97.252 128.383Z" fill="white"/>
<path d="M95.2129 128.383C95.2129 128.616 95.4032 128.806 95.6357 128.806C95.8682 128.806 96.0585 128.616 96.0585 128.383C96.0585 128.151 95.8682 127.96 95.6357 127.96C95.4032 127.96 95.2129 128.151 95.2129 128.383Z" fill="#F5F5F5"/>
<path d="M102.03 97.5825H53.4824V99.4851H102.03V97.5825Z" fill="#F5F5F5"/>
<path d="M51.1147 103.422H53.4824V93.6451H51.1147V103.422Z" fill="#E0E0E0"/>
<path d="M102.03 104.368H53.4824V114.145H102.03V104.368Z" fill="#EBEBEB"/>
<path d="M99.2871 117.66C99.2871 117.893 99.4774 118.083 99.7099 118.083C99.9425 118.083 100.133 117.893 100.133 117.66C100.133 117.428 99.9425 117.237 99.7099 117.237C99.4774 117.237 99.2871 117.428 99.2871 117.66Z" fill="white"/>
<path d="M97.252 117.66C97.252 117.893 97.4422 118.083 97.6748 118.083C97.9073 118.083 98.0976 117.893 98.0976 117.66C98.0976 117.428 97.9073 117.237 97.6748 117.237C97.4422 117.237 97.252 117.428 97.252 117.66Z" fill="white"/>
<path d="M95.2129 117.66C95.2129 117.893 95.4032 118.083 95.6357 118.083C95.8682 118.083 96.0585 117.893 96.0585 117.66C96.0585 117.428 95.8682 117.237 95.6357 117.237C95.4032 117.237 95.2129 117.428 95.2129 117.66Z" fill="white"/>
<path d="M102.03 108.306H53.4824V110.208H102.03V108.306Z" fill="#F5F5F5"/>
<path d="M51.1147 114.146H53.4824V104.368H51.1147V114.146Z" fill="#E0E0E0"/>
<path d="M102.03 115.091H53.4824V124.869H102.03V115.091Z" fill="#EBEBEB"/>
<path d="M99.2871 106.936C99.2871 107.169 99.4774 107.359 99.7099 107.359C99.9425 107.359 100.133 107.169 100.133 106.936C100.133 106.704 99.9425 106.514 99.7099 106.514C99.4774 106.514 99.2871 106.704 99.2871 106.936Z" fill="#F5F5F5"/>
<path d="M97.252 106.936C97.252 107.169 97.4422 107.359 97.6748 107.359C97.9073 107.359 98.0976 107.169 98.0976 106.936C98.0976 106.704 97.9073 106.514 97.6748 106.514C97.4422 106.514 97.252 106.704 97.252 106.936Z" fill="white"/>
<path d="M95.2129 106.936C95.2129 107.169 95.4032 107.359 95.6357 107.359C95.8682 107.359 96.0585 107.169 96.0585 106.936C96.0585 106.704 95.8682 106.514 95.6357 106.514C95.4032 106.514 95.2129 106.704 95.2129 106.936Z" fill="#F5F5F5"/>
<path d="M102.03 119.028H53.4824V120.931H102.03V119.028Z" fill="#F5F5F5"/>
<path d="M51.1147 124.869H53.4824V115.091H51.1147V124.869Z" fill="#E0E0E0"/>
<path d="M102.03 125.814H53.4824V135.592H102.03V125.814Z" fill="#EBEBEB"/>
<path d="M99.2871 96.2133C99.2871 96.4459 99.4774 96.6361 99.7099 96.6361C99.9425 96.6361 100.133 96.4459 100.133 96.2133C100.133 95.9808 99.9425 95.7905 99.7099 95.7905C99.4774 95.7905 99.2871 95.9808 99.2871 96.2133Z" fill="white"/>
<path d="M97.252 96.2133C97.252 96.4459 97.4422 96.6361 97.6748 96.6361C97.9073 96.6361 98.0976 96.4459 98.0976 96.2133C98.0976 95.9808 97.9073 95.7905 97.6748 95.7905C97.4422 95.7905 97.252 95.9808 97.252 96.2133Z" fill="white"/>
<path d="M95.2129 96.2133C95.2129 96.4459 95.4032 96.6361 95.6357 96.6361C95.8682 96.6361 96.0585 96.4459 96.0585 96.2133C96.0585 95.9808 95.8682 95.7905 95.6357 95.7905C95.4032 95.7905 95.2129 95.9808 95.2129 96.2133Z" fill="#F5F5F5"/>
<path d="M102.03 129.752H53.4824V131.655H102.03V129.752Z" fill="#F5F5F5"/>
<path d="M51.1147 135.592H53.4824V125.815H51.1147V135.592Z" fill="#E0E0E0"/>
<path d="M102.03 136.538H53.4824V146.315H102.03V136.538Z" fill="#EBEBEB"/>
<path d="M99.2871 85.4902C99.2871 85.7227 99.4774 85.913 99.7099 85.913C99.9425 85.913 100.133 85.7227 100.133 85.4902C100.133 85.2576 99.9425 85.0674 99.7099 85.0674C99.4774 85.0674 99.2871 85.2576 99.2871 85.4902Z" fill="white"/>
<path d="M97.252 85.4902C97.252 85.7227 97.4422 85.913 97.6748 85.913C97.9073 85.913 98.0976 85.7227 98.0976 85.4902C98.0976 85.2576 97.9073 85.0674 97.6748 85.0674C97.4422 85.0674 97.252 85.2576 97.252 85.4902Z" fill="#F5F5F5"/>
<path d="M95.2129 85.4902C95.2129 85.7227 95.4032 85.913 95.6357 85.913C95.8682 85.913 96.0585 85.7227 96.0585 85.4902C96.0585 85.2576 95.8682 85.0674 95.6357 85.0674C95.4032 85.0674 95.2129 85.2576 95.2129 85.4902Z" fill="white"/>
<path d="M102.03 140.475H53.4824V142.378H102.03V140.475Z" fill="#F5F5F5"/>
<path d="M51.1147 146.315H53.4824V136.538H51.1147V146.315Z" fill="#E0E0E0"/>
<path d="M102.03 147.261H53.4824V157.038H102.03V147.261Z" fill="#EBEBEB"/>
<path d="M99.2871 74.767C99.2871 74.9996 99.4774 75.1898 99.7099 75.1898C99.9425 75.1898 100.133 74.9996 100.133 74.767C100.133 74.5345 99.9425 74.3442 99.7099 74.3442C99.4774 74.3442 99.2871 74.5345 99.2871 74.767Z" fill="#F5F5F5"/>
<path d="M97.252 74.767C97.252 74.9996 97.4422 75.1898 97.6748 75.1898C97.9073 75.1898 98.0976 74.9996 98.0976 74.767C98.0976 74.5345 97.9073 74.3442 97.6748 74.3442C97.4422 74.3442 97.252 74.5345 97.252 74.767Z" fill="white"/>
<path d="M95.2129 74.767C95.2129 74.9996 95.4032 75.1898 95.6357 75.1898C95.8682 75.1898 96.0585 74.9996 96.0585 74.767C96.0585 74.5345 95.8682 74.3442 95.6357 74.3442C95.4032 74.3442 95.2129 74.5345 95.2129 74.767Z" fill="#F5F5F5"/>
<path d="M102.03 151.199H53.4824V153.101H102.03V151.199Z" fill="#F5F5F5"/>
<path d="M51.1147 157.039H53.4824V147.261H51.1147V157.039Z" fill="#E0E0E0"/>
<path d="M102.03 157.984H53.4824V167.762H102.03V157.984Z" fill="#EBEBEB"/>
<path d="M99.2871 64.0434C99.2871 64.2759 99.4774 64.4662 99.7099 64.4662C99.9425 64.4662 100.133 64.2759 100.133 64.0434C100.133 63.8109 99.9425 63.6206 99.7099 63.6206C99.4774 63.6206 99.2871 63.8109 99.2871 64.0434Z" fill="#F5F5F5"/>
<path d="M97.252 64.0434C97.252 64.2759 97.4422 64.4662 97.6748 64.4662C97.9073 64.4662 98.0976 64.2759 98.0976 64.0434C98.0976 63.8109 97.9073 63.6206 97.6748 63.6206C97.4422 63.6206 97.252 63.8109 97.252 64.0434Z" fill="#F5F5F5"/>
<path d="M95.2129 64.0434C95.2129 64.2759 95.4032 64.4662 95.6357 64.4662C95.8682 64.4662 96.0585 64.2759 96.0585 64.0434C96.0585 63.8109 95.8682 63.6206 95.6357 63.6206C95.4032 63.6206 95.2129 63.8109 95.2129 64.0434Z" fill="white"/>
<path d="M102.03 161.921H53.4824V163.824H102.03V161.921Z" fill="#F5F5F5"/>
<path d="M51.1147 167.761H53.4824V157.984H51.1147V167.761Z" fill="#E0E0E0"/>
<path d="M97.0006 24.3374C96.9689 20.0354 93.4702 16.5578 89.1576 16.5578C88.1218 16.5578 87.1282 16.764 86.2245 17.1286C84.6865 13.9788 81.4468 11.8066 77.7051 11.8066C73.1811 11.8066 69.3971 14.9829 68.4563 19.2268C64.2019 19.5016 60.8301 23.0373 60.8301 27.3657C60.8301 31.6941 64.482 35.5204 68.9848 35.5204H94.9394C98.1316 35.5204 100.721 32.9308 100.721 29.7386C100.721 27.2705 99.1727 25.1724 97.0006 24.3426V24.3374Z" fill="#F5F5F5"/>
<path d="M223.544 16.5844C223.502 10.8925 218.873 6.28923 213.17 6.28923C211.796 6.28923 210.485 6.55876 209.286 7.04498C207.246 2.87512 202.965 0.00537109 198.013 0.00537109C192.025 0.00537109 187.02 4.20694 185.773 9.8196C180.139 10.1843 175.684 14.8615 175.684 20.5851C175.684 26.3088 180.514 31.3771 186.476 31.3771H220.817C225.04 31.3771 228.47 27.9524 228.47 23.7244C228.47 20.4583 226.42 17.6837 223.544 16.5844Z" fill="#F5F5F5"/>
<path d="M132.5 200C189.093 200 234.971 197.321 234.971 194.017C234.971 190.713 189.093 188.035 132.5 188.035C75.907 188.035 30.0293 190.713 30.0293 194.017C30.0293 197.321 75.907 200 132.5 200Z" fill="#F5F5F5"/>
<path d="M46.0999 186.212V185.409H41.3645C41.1426 185.409 40.9629 185.588 40.9629 185.81C40.9629 186.032 41.1426 186.212 41.3645 186.212H46.0999Z" fill="#407BFF"/>
<path d="M46.0999 189.647V188.844H41.3645C41.1426 188.844 40.9629 189.023 40.9629 189.245C40.9629 189.467 41.1426 189.647 41.3645 189.647H46.0999Z" fill="#407BFF"/>
<path d="M44.3983 183.448C44.0284 183.448 43.7324 183.749 43.7324 184.114V191.1C43.7324 191.47 44.0337 191.766 44.3983 191.766C44.7683 191.766 45.0642 191.465 45.0642 191.1V184.114C45.0642 183.744 44.763 183.448 44.3983 183.448Z" fill="#263238"/>
<path d="M46.2905 184.426H44.3984V190.794H46.2905C48.0504 190.794 49.4773 189.367 49.4773 187.607C49.4773 185.847 48.0504 184.42 46.2905 184.42V184.426Z" fill="#263238"/>
<path d="M61.2141 191.967C59.8241 191.967 58.5135 191.809 57.1341 191.645L54.8087 191.365C54.4387 191.381 54.0635 191.407 53.6883 191.444C53.1492 191.497 52.6048 191.587 52.0763 191.671C51.0775 191.83 50.0469 191.994 49.0058 191.957C48.8102 191.952 48.583 191.936 48.3716 191.83C48.1073 191.698 47.9382 191.449 47.9435 191.19C47.9488 190.947 48.1073 190.715 48.3504 190.588C48.5407 190.488 48.7521 190.461 48.9371 190.445C50.1209 190.345 51.2994 190.482 52.441 190.62L54.8193 190.905C55.7811 190.863 56.7113 190.884 57.615 190.905C58.7671 190.932 59.9616 190.958 61.2088 190.858C62.2658 190.773 63.0216 190.419 63.0586 190.26C62.8313 189.985 62.2447 189.901 61.045 189.748C60.1571 189.637 59.0261 189.605 57.8264 189.573C56.8804 189.547 55.9027 189.52 54.9038 189.457C52.9114 189.325 50.3429 189.008 48.1549 187.729C48.0439 187.665 48.0069 187.523 48.0703 187.412C48.1337 187.301 48.2764 187.264 48.3874 187.327C50.4856 188.559 52.9906 188.865 54.9302 188.992C55.9185 189.055 56.891 189.082 57.8317 189.108C59.042 189.14 60.1835 189.172 61.0978 189.288C61.8007 189.378 62.2975 189.441 62.6569 189.542C62.6358 189.515 62.6146 189.489 62.5935 189.462C62.4191 189.24 62.2447 189.008 62.0861 188.765C61.8906 188.458 61.6686 188.099 61.5788 187.687C61.4731 187.216 61.5735 186.746 61.843 186.434C62.176 186.043 62.7203 185.948 63.0956 185.905C64.2107 185.789 65.3205 185.953 66.3934 186.112C66.5202 186.133 66.6048 186.249 66.5889 186.376C66.5678 186.503 66.4568 186.593 66.3247 186.571C65.2783 186.418 64.2001 186.26 63.1431 186.371C62.8472 186.402 62.4244 186.476 62.1918 186.741C62.0174 186.941 61.9593 187.264 62.028 187.597C62.102 187.935 62.2975 188.252 62.4719 188.522C62.6199 188.749 62.7943 188.976 62.9581 189.187C63.0638 189.325 63.1748 189.468 63.2752 189.61L63.3281 189.684C63.5659 190.007 63.8883 190.445 63.8196 190.916C63.6716 191.93 62.2394 191.957 61.5471 191.973C61.4255 191.973 61.3092 191.973 61.193 191.973L61.2141 191.967ZM59.0578 191.397C59.8823 191.476 60.6962 191.518 61.5312 191.502C62.1231 191.492 63.2911 191.471 63.3809 190.842C63.3915 190.773 63.3809 190.704 63.3651 190.63C62.9687 191.042 61.9329 191.27 61.2511 191.323C60.5006 191.386 59.7713 191.397 59.0578 191.397ZM49.7879 190.873C49.5184 190.873 49.2489 190.884 48.9793 190.905C48.8366 190.916 48.6834 190.937 48.5671 190.995C48.472 191.042 48.4086 191.127 48.4086 191.201C48.4086 191.28 48.4773 191.37 48.5777 191.418C48.7045 191.481 48.8684 191.492 49.0216 191.497C50.0152 191.534 51.0246 191.37 52.0024 191.217C52.2243 191.18 52.4516 191.148 52.6735 191.111L52.3934 191.079C51.5426 190.979 50.6653 190.873 49.7932 190.873H49.7879Z" fill="#263238"/>
<path d="M116.702 64.4189H69.2479C67.1815 66.4854 66.0293 67.6375 63.9629 69.7039V187.411C66.0293 189.478 67.1815 190.63 69.2479 192.696H116.702C118.768 190.63 119.92 189.478 121.987 187.411V69.7039L116.702 64.4189Z" fill="black"/>
<path d="M55.4227 74.6665L54.3552 76.1199L51.6387 72.2407L53.6734 79.8458L54.7462 78.3872L57.4575 82.2664L55.4227 74.6665Z" fill="#407BFF"/>
<path d="M96.0634 49.1877L94.4567 50.0122L93.7538 45.335L92.1895 53.0458L93.7961 52.2213L94.499 56.9038L96.0634 49.1877Z" fill="#407BFF"/>
<path d="M109.583 51.3016L107.146 50.7361L110.608 45.1499L102.02 51.9094L104.462 52.4749L101 58.0611L109.583 51.3016Z" fill="#407BFF"/>
<path opacity="0.7" d="M63.9629 187.411L69.2479 192.696H90.3086L85.0236 187.411H63.9629Z" fill="#263238"/>
<path opacity="0.7" d="M63.9629 69.7039L69.2479 64.4189H90.3086L85.0236 69.7039H63.9629Z" fill="#263238"/>
<path d="M137.762 64.4189H90.3084C88.242 66.4854 87.0899 67.6375 85.0234 69.7039V187.411C87.0899 189.478 88.242 190.63 90.3084 192.696H137.762C139.829 190.63 140.981 189.478 143.047 187.411V69.7039C140.981 67.6375 139.829 66.4854 137.762 64.4189Z" fill="#263238"/>
<path opacity="0.6" d="M90.9803 190.228L87.4922 186.735V70.3753L90.9803 66.8872H137.092L140.58 70.3753V186.735L137.092 190.228H90.9803Z" fill="#407BFF"/>
<path d="M140.581 73.1499H89.9609V83.3447H140.581V73.1499Z" fill="#263238"/>
<path d="M137.721 75.8238C137.721 75.5807 137.916 75.3799 138.165 75.3799C138.413 75.3799 138.609 75.5754 138.609 75.8238C138.609 76.0722 138.413 76.2678 138.165 76.2678C137.916 76.2678 137.721 76.0722 137.721 75.8238Z" fill="#407BFF"/>
<path d="M135.596 75.8238C135.596 75.5807 135.791 75.3799 136.04 75.3799C136.288 75.3799 136.484 75.5754 136.484 75.8238C136.484 76.0722 136.288 76.2678 136.04 76.2678C135.791 76.2678 135.596 76.0722 135.596 75.8238Z" fill="white"/>
<path d="M133.467 75.8238C133.467 75.5807 133.662 75.3799 133.911 75.3799C134.159 75.3799 134.355 75.5754 134.355 75.8238C134.355 76.0722 134.159 76.2678 133.911 76.2678C133.662 76.2678 133.467 76.0722 133.467 75.8238Z" fill="#407BFF"/>
<path d="M140.581 77.2563H89.9609V79.2382H140.581V77.2563Z" fill="#407BFF"/>
<path d="M87.4928 83.3394H89.9609V73.1446H87.4928V83.3394Z" fill="black"/>
<path d="M140.581 84.3276H89.9609V94.5224H140.581V84.3276Z" fill="#263238"/>
<path d="M138.165 87.4509C138.41 87.4509 138.609 87.2521 138.609 87.0069C138.609 86.7618 138.41 86.563 138.165 86.563C137.919 86.563 137.721 86.7618 137.721 87.0069C137.721 87.2521 137.919 87.4509 138.165 87.4509Z" fill="#407BFF"/>
<path d="M136.036 87.4509C136.281 87.4509 136.48 87.2521 136.48 87.0069C136.48 86.7618 136.281 86.563 136.036 86.563C135.791 86.563 135.592 86.7618 135.592 87.0069C135.592 87.2521 135.791 87.4509 136.036 87.4509Z" fill="white"/>
<path d="M133.911 87.4509C134.156 87.4509 134.355 87.2521 134.355 87.0069C134.355 86.7618 134.156 86.563 133.911 86.563C133.666 86.563 133.467 86.7618 133.467 87.0069C133.467 87.2521 133.666 87.4509 133.911 87.4509Z" fill="white"/>
<path d="M140.581 88.4341H89.9609V90.416H140.581V88.4341Z" fill="#407BFF"/>
<path d="M87.4928 94.5225H89.9609V84.3277H87.4928V94.5225Z" fill="black"/>
<path d="M140.581 95.5107H89.9609V105.705H140.581V95.5107Z" fill="#263238"/>
<path d="M138.165 98.6286C138.41 98.6286 138.609 98.4298 138.609 98.1847C138.609 97.9395 138.41 97.7407 138.165 97.7407C137.919 97.7407 137.721 97.9395 137.721 98.1847C137.721 98.4298 137.919 98.6286 138.165 98.6286Z" fill="#407BFF"/>
<path d="M136.036 98.6286C136.281 98.6286 136.48 98.4298 136.48 98.1847C136.48 97.9395 136.281 97.7407 136.036 97.7407C135.791 97.7407 135.592 97.9395 135.592 98.1847C135.592 98.4298 135.791 98.6286 136.036 98.6286Z" fill="#407BFF"/>
<path d="M133.911 98.6286C134.156 98.6286 134.355 98.4298 134.355 98.1847C134.355 97.9395 134.156 97.7407 133.911 97.7407C133.666 97.7407 133.467 97.9395 133.467 98.1847C133.467 98.4298 133.666 98.6286 133.911 98.6286Z" fill="#407BFF"/>
<path d="M140.581 99.6172H89.9609V101.599H140.581V99.6172Z" fill="#407BFF"/>
<path d="M87.4928 105.7H89.9609V95.5054H87.4928V105.7Z" fill="black"/>
<path d="M140.581 106.688H89.9609V116.883H140.581V106.688Z" fill="#263238"/>
<path d="M138.165 109.812C138.41 109.812 138.609 109.613 138.609 109.368C138.609 109.123 138.41 108.924 138.165 108.924C137.919 108.924 137.721 109.123 137.721 109.368C137.721 109.613 137.919 109.812 138.165 109.812Z" fill="white"/>
<path d="M136.036 109.812C136.281 109.812 136.48 109.613 136.48 109.368C136.48 109.123 136.281 108.924 136.036 108.924C135.791 108.924 135.592 109.123 135.592 109.368C135.592 109.613 135.791 109.812 136.036 109.812Z" fill="white"/>
<path d="M133.911 109.812C134.156 109.812 134.355 109.613 134.355 109.368C134.355 109.123 134.156 108.924 133.911 108.924C133.666 108.924 133.467 109.123 133.467 109.368C133.467 109.613 133.666 109.812 133.911 109.812Z" fill="#407BFF"/>
<path d="M140.581 110.795H89.9609V112.777H140.581V110.795Z" fill="#407BFF"/>
<path d="M87.4928 116.883H89.9609V106.689H87.4928V116.883Z" fill="black"/>
<path d="M140.581 117.872H89.9609V128.066H140.581V117.872Z" fill="#263238"/>
<path d="M137.721 120.546C137.721 120.302 137.916 120.102 138.165 120.102C138.413 120.102 138.609 120.297 138.609 120.546C138.609 120.794 138.413 120.989 138.165 120.989C137.916 120.989 137.721 120.794 137.721 120.546Z" fill="white"/>
<path d="M135.596 120.546C135.596 120.302 135.791 120.102 136.04 120.102C136.288 120.102 136.484 120.297 136.484 120.546C136.484 120.794 136.288 120.989 136.04 120.989C135.791 120.989 135.596 120.794 135.596 120.546Z" fill="white"/>
<path d="M133.467 120.546C133.467 120.302 133.662 120.102 133.911 120.102C134.159 120.102 134.355 120.297 134.355 120.546C134.355 120.794 134.159 120.989 133.911 120.989C133.662 120.989 133.467 120.794 133.467 120.546Z" fill="white"/>
<path d="M140.581 121.978H89.9609V123.96H140.581V121.978Z" fill="#407BFF"/>
<path d="M87.4928 128.061H89.9609V117.866H87.4928V128.061Z" fill="black"/>
<path d="M140.581 129.049H89.9609V139.244H140.581V129.049Z" fill="#263238"/>
<path d="M137.721 131.729C137.721 131.485 137.916 131.285 138.165 131.285C138.413 131.285 138.609 131.48 138.609 131.729C138.609 131.977 138.413 132.173 138.165 132.173C137.916 132.173 137.721 131.977 137.721 131.729Z" fill="#407BFF"/>
<path d="M135.596 131.729C135.596 131.485 135.791 131.285 136.04 131.285C136.288 131.285 136.484 131.48 136.484 131.729C136.484 131.977 136.288 132.173 136.04 132.173C135.791 132.173 135.596 131.977 135.596 131.729Z" fill="white"/>
<path d="M133.467 131.729C133.467 131.485 133.662 131.285 133.911 131.285C134.159 131.285 134.355 131.48 134.355 131.729C134.355 131.977 134.159 132.173 133.911 132.173C133.662 132.173 133.467 131.977 133.467 131.729Z" fill="#407BFF"/>
<path d="M140.581 133.156H89.9609V135.138H140.581V133.156Z" fill="#407BFF"/>
<path d="M87.4928 139.244H89.9609V129.049H87.4928V139.244Z" fill="black"/>
<path d="M140.581 140.232H89.9609V150.427H140.581V140.232Z" fill="#263238"/>
<path d="M138.165 143.35C138.41 143.35 138.609 143.152 138.609 142.906C138.609 142.661 138.41 142.462 138.165 142.462C137.919 142.462 137.721 142.661 137.721 142.906C137.721 143.152 137.919 143.35 138.165 143.35Z" fill="white"/>
<path d="M136.036 143.35C136.281 143.35 136.48 143.152 136.48 142.906C136.48 142.661 136.281 142.462 136.036 142.462C135.791 142.462 135.592 142.661 135.592 142.906C135.592 143.152 135.791 143.35 136.036 143.35Z" fill="white"/>
<path d="M133.911 143.35C134.156 143.35 134.355 143.152 134.355 142.906C134.355 142.661 134.156 142.462 133.911 142.462C133.666 142.462 133.467 142.661 133.467 142.906C133.467 143.152 133.666 143.35 133.911 143.35Z" fill="#407BFF"/>
<path d="M140.581 144.339H89.9609V146.321H140.581V144.339Z" fill="#407BFF"/>
<path d="M87.4928 150.422H89.9609V140.227H87.4928V150.422Z" fill="black"/>
<path d="M140.581 151.41H89.9609V161.605H140.581V151.41Z" fill="#263238"/>
<path d="M138.165 154.533C138.41 154.533 138.609 154.335 138.609 154.089C138.609 153.844 138.41 153.646 138.165 153.646C137.919 153.646 137.721 153.844 137.721 154.089C137.721 154.335 137.919 154.533 138.165 154.533Z" fill="white"/>
<path d="M136.036 154.533C136.281 154.533 136.48 154.335 136.48 154.089C136.48 153.844 136.281 153.646 136.036 153.646C135.791 153.646 135.592 153.844 135.592 154.089C135.592 154.335 135.791 154.533 136.036 154.533Z" fill="#407BFF"/>
<path d="M133.911 154.533C134.156 154.533 134.355 154.335 134.355 154.089C134.355 153.844 134.156 153.646 133.911 153.646C133.666 153.646 133.467 153.844 133.467 154.089C133.467 154.335 133.666 154.533 133.911 154.533Z" fill="white"/>
<path d="M140.581 155.517H89.9609V157.498H140.581V155.517Z" fill="#407BFF"/>
<path d="M87.4928 161.605H89.9609V151.41H87.4928V161.605Z" fill="black"/>
<path d="M140.581 162.593H89.9609V172.788H140.581V162.593Z" fill="#263238"/>
<path d="M138.165 165.711C138.41 165.711 138.609 165.512 138.609 165.267C138.609 165.022 138.41 164.823 138.165 164.823C137.919 164.823 137.721 165.022 137.721 165.267C137.721 165.512 137.919 165.711 138.165 165.711Z" fill="#407BFF"/>
<path d="M136.036 165.711C136.281 165.711 136.48 165.512 136.48 165.267C136.48 165.022 136.281 164.823 136.036 164.823C135.791 164.823 135.592 165.022 135.592 165.267C135.592 165.512 135.791 165.711 136.036 165.711Z" fill="white"/>
<path d="M133.911 165.711C134.156 165.711 134.355 165.512 134.355 165.267C134.355 165.022 134.156 164.823 133.911 164.823C133.666 164.823 133.467 165.022 133.467 165.267C133.467 165.512 133.666 165.711 133.911 165.711Z" fill="#407BFF"/>
<path d="M140.581 166.694H89.9609V168.676H140.581V166.694Z" fill="#407BFF"/>
<path d="M87.4928 172.783H89.9609V162.588H87.4928V172.783Z" fill="black"/>
<path d="M140.581 173.771H89.9609V183.966H140.581V173.771Z" fill="#263238"/>
<path d="M138.165 176.894C138.41 176.894 138.609 176.695 138.609 176.45C138.609 176.205 138.41 176.006 138.165 176.006C137.919 176.006 137.721 176.205 137.721 176.45C137.721 176.695 137.919 176.894 138.165 176.894Z" fill="#407BFF"/>
<path d="M136.036 176.894C136.281 176.894 136.48 176.695 136.48 176.45C136.48 176.205 136.281 176.006 136.036 176.006C135.791 176.006 135.592 176.205 135.592 176.45C135.592 176.695 135.791 176.894 136.036 176.894Z" fill="#407BFF"/>
<path d="M133.911 176.894C134.156 176.894 134.355 176.695 134.355 176.45C134.355 176.205 134.156 176.006 133.911 176.006C133.666 176.006 133.467 176.205 133.467 176.45C133.467 176.695 133.666 176.894 133.911 176.894Z" fill="white"/>
<path d="M140.581 177.877H89.9609V179.859H140.581V177.877Z" fill="#407BFF"/>
<path d="M87.4928 183.966H89.9609V173.771H87.4928V183.966Z" fill="black"/>
<path opacity="0.7" d="M90.9803 190.228L87.4922 186.735V70.3753L90.9803 66.8872H118.293L121.781 70.3753V186.735L118.293 190.228H90.9803Z" fill="#407BFF"/>
<path d="M118.293 190.228L121.781 186.735V70.3753L118.293 66.8872H119.662L122.658 69.8838V187.232L119.662 190.228H118.293Z" fill="#407BFF"/>
<path d="M189.673 69.0117C190.825 71.2631 191.845 73.4987 192.78 75.8347C193.251 76.9974 193.689 78.1865 194.091 79.402C194.503 80.6176 194.868 81.8648 195.143 83.2706L195.196 83.5349L195.222 83.6776L195.248 83.8731C195.264 84.0052 195.285 84.1427 195.291 84.2642L195.307 84.613C195.317 85.0728 195.291 85.4639 195.248 85.8497C195.159 86.6055 195.021 87.2819 194.863 87.9373C194.556 89.248 194.133 90.4582 193.7 91.6526C192.807 94.0362 191.771 96.2823 190.561 98.502C190.18 99.2049 189.298 99.4639 188.595 99.0833C188.008 98.7662 187.728 98.095 187.876 97.4767L187.886 97.445C188.441 95.109 189.002 92.7413 189.472 90.4371C189.715 89.285 189.911 88.1328 190.048 87.0441C190.111 86.4998 190.154 85.966 190.154 85.5062C190.154 85.2789 190.143 85.0622 190.122 84.9143L190.106 84.8033L190.085 84.7399L190.053 84.6289L190 84.4439C189.715 83.4767 189.313 82.3986 188.875 81.3258C188.431 80.2529 187.966 79.1748 187.479 78.0913C186.507 75.9351 185.482 73.7418 184.478 71.6119L184.462 71.5802C183.78 70.1269 184.404 68.3934 185.857 67.7116C187.279 67.0404 188.97 67.6323 189.683 69.017L189.673 69.0117Z" fill="#FFB573"/>
<path d="M187.109 98.1744L188.917 95.5108L190.703 94.9717C191.533 95.9758 191.29 97.5243 191.047 98.4122L190.529 101.721C190.433 102.344 189.942 102.82 189.313 102.91L188.134 103.074C187.262 103.195 186.464 102.561 186.39 101.678L186.343 101.102C186.253 100.066 186.528 99.0306 187.109 98.1691V98.1744Z" fill="#FFB573"/>
<path d="M184.166 105.314C184.61 104.791 184.811 104.146 184.79 103.512L193.679 99.3843C193.679 99.3843 193.721 99.4265 193.748 99.4424C194.874 100.388 196.554 100.246 197.506 99.12C197.706 98.8822 197.86 98.6127 197.965 98.3378L196.031 98.5968C195.518 98.6655 195.053 98.2903 195.006 97.7776L194.948 97.1117C194.905 96.5991 195.302 96.1498 195.814 96.1287L197.764 96.06C197.616 95.801 197.421 95.5685 197.178 95.3677C196.052 94.4216 194.372 94.5643 193.42 95.69C192.976 96.2133 192.775 96.858 192.797 97.4922L183.907 101.62C183.907 101.62 183.865 101.578 183.839 101.562C182.713 100.616 181.032 100.758 180.081 101.884C179.88 102.122 179.727 102.391 179.621 102.666L181.555 102.407C182.068 102.339 182.533 102.714 182.581 103.226L182.639 103.892C182.681 104.405 182.285 104.854 181.772 104.875L179.822 104.944C179.97 105.203 180.165 105.436 180.409 105.636C181.534 106.582 183.215 106.44 184.166 105.314Z" fill="#263238"/>
<path opacity="0.1" d="M184.616 102.444C184.489 102.175 184.605 101.857 184.875 101.731L191.988 98.4275C192.258 98.3006 192.575 98.4222 192.702 98.6864C192.829 98.9559 192.712 99.273 192.443 99.3999L185.329 102.703C185.06 102.83 184.743 102.708 184.616 102.444Z" fill="white"/>
<path d="M183.41 63.4995C186.597 64.2024 188.15 65.8302 191.226 70.9514C189.482 73.5357 185.217 75.7713 185.217 75.7713L183.373 73.6467C181.058 69.35 183.41 63.4995 183.41 63.4995Z" fill="#263238"/>
<path opacity="0.2" d="M182.357 69.3501C182.373 70.7823 182.643 72.2938 183.372 73.6468L185.217 75.7714C185.217 75.7714 185.888 75.4173 186.813 74.8306C185.301 71.8182 184.123 70.3014 182.357 69.3501Z" fill="black"/>
<path d="M168.728 68.4198L168.67 68.7527L168.617 69.0064L168.506 69.4768C168.422 69.7833 168.326 70.074 168.226 70.3647C168.02 70.9407 167.777 71.4956 167.502 72.04C166.942 73.1181 166.228 74.1329 165.372 75.0207C164.521 75.9139 163.528 76.6802 162.465 77.2827C161.403 77.8852 160.267 78.3133 159.131 78.5987L158.946 78.6462C157.577 78.9898 156.187 78.16 155.838 76.7859C155.806 76.6644 155.785 76.527 155.775 76.4001C155.664 75.2374 155.775 74.1857 155.965 73.2133C156.16 72.2408 156.43 71.3318 156.742 70.4651C157.371 68.7369 158.174 67.162 159.03 65.6557C159.902 64.1548 160.838 62.7226 161.842 61.3432C162.862 59.9691 163.887 58.6478 165.05 57.3583C165.584 56.7664 166.498 56.7188 167.09 57.2526C167.608 57.7177 167.708 58.4734 167.37 59.0495L167.349 59.0865C166.551 60.4553 165.737 61.8822 165.008 63.3145C164.262 64.7414 163.554 66.1789 162.936 67.627C162.302 69.0698 161.768 70.5285 161.382 71.9502C161.007 73.3507 160.811 74.7882 160.991 75.7659L157.635 73.5727C158.348 73.2978 158.993 72.949 159.585 72.5526C160.166 72.1404 160.684 71.6701 161.134 71.1416C161.578 70.6078 161.974 70.0159 162.296 69.3764C162.46 69.0593 162.608 68.7263 162.724 68.3934C162.788 68.2295 162.835 68.0604 162.888 67.9018L162.957 67.6693L162.983 67.5689C162.983 67.5689 162.999 67.4843 162.994 67.5478C163.237 65.9623 164.722 64.8736 166.308 65.1167C167.893 65.3598 168.982 66.8449 168.739 68.4303L168.728 68.4198Z" fill="#FFB573"/>
<path d="M170.07 68.0234C170.402 66.0363 169.002 63.6475 169.002 63.6475C165.852 63.806 162.813 64.5723 159.891 70.5444C160.594 73.8739 165.007 76.2205 165.007 76.2205L168.125 72.1827C168.125 72.1827 169.742 70.0106 170.07 68.0181V68.0234Z" fill="#263238"/>
<path d="M165.917 55.8888L166.794 54.9375C167.175 54.5253 167.645 54.2135 168.174 54.0285L169.009 53.7326C169.949 53.3943 170.964 53.981 171.149 54.9587L171.355 56.0527C171.514 56.8718 171.017 57.6805 170.214 57.913L168.929 58.2882C168.929 58.2882 167.397 60.8514 164.416 59.6887C164.416 58.2935 164.95 56.93 165.912 55.8888H165.917Z" fill="#FFB573"/>
<path d="M188.96 184.425H184.562C184.562 184.425 184.779 187.649 184.763 189.557L188.637 190.022C188.31 187.908 188.96 184.431 188.96 184.431V184.425Z" fill="#FFB573"/>
<path d="M169.584 93.9727C169.584 93.9727 177.474 127.411 179.937 140.999C182.522 155.273 184.282 183.897 184.276 184.943C185.693 184.668 187.997 184.6 189.112 184.943C189.112 184.943 194.545 151.283 189.625 138.784C187.759 115.086 190.174 101.678 185.418 93.9727H169.584Z" fill="#407BFF"/>
<path opacity="0.2" d="M179.631 104.337C178.342 99.0674 173.966 99.5748 171.117 100.542C172.893 108.179 175.837 121.037 177.988 131.237C181.042 123.912 181.375 111.45 179.631 104.337Z" fill="black"/>
<path d="M160.953 183.875C160.557 188.986 156.408 194.482 156.408 194.482L162.808 192.844L165.504 188.838C165.609 187.263 165.615 185.974 166.101 184.319L160.959 183.881L160.953 183.875Z" fill="#FFB573"/>
<path d="M163.162 93.9727C163.162 93.9727 164.277 129.546 163.987 139.942C163.58 154.354 160.557 184.943 160.557 184.943C162.85 184.711 164.832 184.637 166.101 184.943C166.101 184.943 175.598 160.183 174.498 140.079C176.877 121.449 184.894 104.337 179.937 93.9727H163.162Z" fill="#407BFF"/>
<path d="M180.101 53.8174C179.477 56.5127 178.78 61.4542 180.603 63.2564C180.603 63.2564 178.568 66.8238 173.912 68.7475C170.382 66.4855 172.221 63.2564 172.221 63.2564C175.255 62.5376 175.255 60.3074 174.805 58.2092L180.106 53.8174H180.101Z" fill="#FFB573"/>
<path d="M180.63 60.4816C180.63 60.4816 174.5 59.6466 171.487 62.1464C171.418 63.1875 170.758 63.8164 170.758 63.8164C174.05 64.5405 177.385 64.6937 180.762 64.3079C181.56 62.9391 180.635 60.4816 180.635 60.4816H180.63Z" fill="#407BFF"/>
<path d="M163.798 69.5927C164.126 78.054 162.26 90.9018 163.164 93.9724C172.233 94.892 179.32 94.7334 185.419 93.9724C186.486 90.627 183.955 80.6912 186.851 68.8687C187.496 66.242 185.731 63.7264 183.072 63.4516C182.29 63.3723 181.455 63.3036 180.599 63.2613C177.497 63.1133 174.955 63.0129 172.217 63.2613C171.149 63.3564 170.039 63.4991 168.998 63.6524C166.049 64.0805 163.682 66.6384 163.798 69.598V69.5927Z" fill="#263238"/>
<path d="M170.149 49.2882C170.112 49.6581 169.895 49.9435 169.657 49.9277C169.419 49.9118 169.255 49.6053 169.287 49.2353C169.324 48.8654 169.541 48.58 169.779 48.5958C170.016 48.6117 170.18 48.9182 170.149 49.2882Z" fill="#263238"/>
<path d="M169.886 48.622L169.035 48.3154C169.035 48.3154 169.421 49.0342 169.886 48.622Z" fill="#263238"/>
<path d="M169.679 46.8728C169.626 46.8622 169.584 46.8305 169.552 46.7777C169.494 46.6772 169.526 46.5451 169.626 46.4764C170.646 45.8316 171.54 46.228 171.577 46.2439C171.682 46.2914 171.725 46.4183 171.677 46.5293C171.624 46.6402 171.497 46.6878 171.392 46.6402C171.355 46.6244 170.657 46.3284 169.848 46.8411C169.796 46.8728 169.737 46.8834 169.679 46.8675V46.8728Z" fill="#263238"/>
<path d="M170.075 50.2974C170.075 50.2974 169.309 51.8406 168.559 52.5646C168.997 53.0456 169.832 52.8923 169.832 52.8923L170.075 50.3026V50.2974Z" fill="#ED893E"/>
<path d="M182.564 48.5268C181.867 53.0243 181.666 54.9375 179.193 57.1149C175.472 60.3916 170.171 58.7321 169.526 54.1606C168.95 50.0489 170.187 43.3898 174.727 41.8572C179.203 40.3509 183.262 44.0293 182.564 48.5215V48.5268Z" fill="#FFB573"/>
<path d="M171.354 43.4694C170.451 45.2505 172.232 48.5536 173.431 49.9065C171.302 52.1949 169.177 56.1428 171.989 58.5052C174.552 60.6615 188.33 60.6404 185.65 56.0001C188.013 53.0934 184.081 52.6812 185.957 47.0368C187.326 42.9304 184.747 41.7888 182.437 42.1852C179.805 38.8556 173.231 39.7646 171.354 43.4694Z" fill="#263238"/>
<path d="M172.363 45.3349C172.363 45.3349 176.617 48.823 181.522 49.3938C184.148 49.7003 185.485 49.6633 185.607 49.2616C185.728 48.86 185.956 47.5017 185.956 47.5017L172.357 45.3296L172.363 45.3349Z" fill="#E0E0E0"/>
<path d="M168.748 44.4205C170.038 45.4406 179.783 48.2257 186.352 47.6127C186.416 47.2216 186.204 47.174 186.204 47.174C186.204 47.174 187.716 42.1057 184.244 40.2031C182.605 37.5236 177.659 37.6875 175.471 38.4432L175.159 38.8343C175.159 38.8343 170.873 39.8332 170.809 43.39C169.118 43.5855 167.326 43.3054 168.748 44.4258V44.4205Z" fill="#407BFF"/>
<path opacity="0.2" d="M175.158 38.8341L175.47 38.443C175.47 38.443 178.905 38.0467 181.833 40.5359C180.168 39.574 177.425 38.6439 175.163 38.8341H175.158Z" fill="black"/>
<path d="M172.781 48.4794C171.846 48.3526 170.958 49.7161 170.641 50.6886C170.287 51.772 170.673 52.7814 171.64 52.4326C172.285 52.2001 172.998 51.624 173.447 50.7731C173.96 49.7954 173.701 48.6063 172.781 48.4794Z" fill="#FFB573"/>
<path d="M186.094 186.603C188.79 186.127 188.742 187.517 188.917 189.018C189.017 189.879 188.932 190.847 188.473 191.661C187.521 193.331 188.335 195.804 185.307 195.804C182.279 195.804 182.004 195.101 182.823 193.605C183.642 192.11 184.054 190.53 184.419 188.801C184.604 187.935 184.895 186.814 186.094 186.603Z" fill="#263238"/>
<path d="M188.743 189.795C188.743 191.608 188.775 195.804 188.775 195.804L188.294 195.788C188.294 195.788 187.881 191.322 187.617 190.117L188.738 189.795H188.743Z" fill="#263238"/>
<path d="M165.848 187.195C166.059 187.67 166.122 188.194 166.091 188.717C165.98 190.635 165.567 195.714 165.567 195.714H165.129C165.129 195.714 165.256 192.295 165.087 191.037C164.917 189.779 164.294 192.004 163.422 193.267C162.55 194.53 160.874 195.677 158.02 195.767C154.68 195.873 153.333 195.73 154.337 194.895C155.341 194.06 157.577 193.51 157.577 193.51C157.577 193.51 160.129 192.564 161.778 189.732C162.846 187.892 164.415 187.057 165.272 186.624C165.546 186.672 165.726 186.909 165.853 187.2L165.848 187.195Z" fill="#263238"/>
<path d="M51.4966 10.7656H58.3565V13.0699H53.711L53.4626 14.629C53.785 14.4757 54.1021 14.3647 54.4192 14.2907C54.7363 14.2167 55.0428 14.1797 55.3546 14.1797C56.3958 14.1797 57.2414 14.4968 57.8861 15.1257C58.5309 15.7547 58.8586 16.5474 58.8586 17.504C58.8586 18.1752 58.6894 18.82 58.3565 19.4436C58.0235 20.0619 57.5479 20.5376 56.9401 20.86C56.3271 21.1876 55.5449 21.3515 54.5883 21.3515C53.9012 21.3515 53.3146 21.288 52.8231 21.1559C52.3316 21.0238 51.9194 20.8335 51.5758 20.5746C51.2323 20.3156 50.9575 20.0249 50.7408 19.6973C50.5294 19.3696 50.3497 18.9626 50.207 18.4764L53.1296 18.1593C53.1983 18.6297 53.3675 18.9838 53.6264 19.2269C53.8854 19.47 54.1972 19.5916 54.5566 19.5916C54.9582 19.5916 55.2912 19.4383 55.5554 19.1318C55.8197 18.8252 55.9518 18.3707 55.9518 17.7682C55.9518 17.1658 55.8197 16.6954 55.5554 16.4047C55.2912 16.114 54.9371 15.9713 54.4984 15.9713C54.2183 15.9713 53.9488 16.04 53.6898 16.1775C53.4943 16.2779 53.2829 16.4576 53.0504 16.7165L50.5876 16.3624L51.5019 10.7709L51.4966 10.7656Z" fill="#407BFF"/>
<path d="M60.0156 15.9239C60.0156 13.9473 60.3697 12.5626 61.0832 11.7751C61.7967 10.9877 62.8801 10.5913 64.3387 10.5913C65.0364 10.5913 65.6124 10.6759 66.0617 10.8503C66.5109 11.0247 66.8755 11.2466 67.1609 11.5268C67.4463 11.8016 67.6683 12.0922 67.8321 12.3988C67.996 12.7053 68.1281 13.0594 68.2285 13.4663C68.424 14.2432 68.5192 15.0518 68.5192 15.8922C68.5192 17.7789 68.2021 19.1583 67.5626 20.0356C66.9231 20.9129 65.8238 21.3463 64.2648 21.3463C63.3875 21.3463 62.6845 21.2089 62.1455 20.9288C61.6064 20.6487 61.1625 20.2417 60.8189 19.7026C60.5706 19.3221 60.375 18.7936 60.2323 18.133C60.0949 17.4671 60.0209 16.7325 60.0209 15.9292L60.0156 15.9239ZM62.8801 15.9292C62.8801 17.2557 62.9964 18.1594 63.2289 18.6404C63.4614 19.1266 63.805 19.3697 64.2489 19.3697C64.5396 19.3697 64.7985 19.2693 65.0099 19.0632C65.2266 18.857 65.3852 18.5347 65.4856 18.0854C65.586 17.6415 65.6389 16.9492 65.6389 16.0084C65.6389 14.629 65.5226 13.6989 65.2901 13.2232C65.0575 12.7476 64.7034 12.5098 64.2383 12.5098C63.7733 12.5098 63.4139 12.7529 63.2025 13.2391C62.9911 13.7253 62.8854 14.6238 62.8854 15.9292H62.8801Z" fill="#407BFF"/>
<path d="M69.709 15.9239C69.709 13.9473 70.0631 12.5626 70.7766 11.7751C71.49 10.9877 72.5734 10.5913 74.0321 10.5913C74.7297 10.5913 75.3058 10.6759 75.755 10.8503C76.2042 11.0247 76.5689 11.2466 76.8543 11.5268C77.1397 11.8016 77.3617 12.0922 77.5255 12.3988C77.6893 12.7053 77.8214 13.0594 77.9219 13.4663C78.1174 14.2432 78.2125 15.0518 78.2125 15.8922C78.2125 17.7789 77.8954 19.1583 77.256 20.0356C76.6165 20.9129 75.5172 21.3463 73.9581 21.3463C73.0808 21.3463 72.3779 21.2089 71.8388 20.9288C71.2998 20.6487 70.8558 20.2417 70.5123 19.7026C70.2639 19.3221 70.0684 18.7936 69.9257 18.133C69.7883 17.4671 69.7143 16.7325 69.7143 15.9292L69.709 15.9239ZM72.5734 15.9292C72.5734 17.2557 72.6897 18.1594 72.9223 18.6404C73.1548 19.1266 73.4983 19.3697 73.9423 19.3697C74.2329 19.3697 74.4919 19.2693 74.7033 19.0632C74.92 18.857 75.0785 18.5347 75.1789 18.0854C75.2794 17.6415 75.3322 16.9492 75.3322 16.0084C75.3322 14.629 75.2159 13.6989 74.9834 13.2232C74.7509 12.7476 74.3968 12.5098 73.9317 12.5098C73.4666 12.5098 73.1072 12.7529 72.8958 13.2391C72.6844 13.7253 72.5787 14.6238 72.5787 15.9292H72.5734Z" fill="#407BFF"/>
<path d="M85.0039 21.1665V10.7656H86.378V21.1665H85.0039Z" fill="#263238"/>
<path d="M88.6445 21.1665V13.6301H89.7914V14.7029C90.3463 13.8732 91.1443 13.4609 92.1908 13.4609C92.6453 13.4609 93.0628 13.5402 93.4433 13.704C93.8238 13.8679 94.1092 14.0793 94.2995 14.3435C94.4897 14.6078 94.6219 14.9249 94.6958 15.2895C94.7434 15.5274 94.7646 15.9396 94.7646 16.5315V21.1665H93.4856V16.5844C93.4856 16.0664 93.438 15.6753 93.3376 15.4164C93.2372 15.1574 93.0628 14.9513 92.8091 14.798C92.5554 14.6448 92.2595 14.5655 91.9212 14.5655C91.3769 14.5655 90.9065 14.7399 90.5154 15.0834C90.1243 15.427 89.9235 16.0823 89.9235 17.0494V21.1665H88.6445Z" fill="#263238"/>
<path d="M99.511 20.0248L99.6959 21.1505C99.3365 21.2245 99.0142 21.2615 98.7288 21.2615C98.2637 21.2615 97.9043 21.1875 97.6506 21.0395C97.397 20.8916 97.2173 20.7013 97.1116 20.4635C97.0059 20.2256 96.953 19.7236 96.953 18.9572V14.6236H96.0176V13.63H96.953V11.7644L98.2214 10.998V13.63H99.5057V14.6236H98.2214V19.0312C98.2214 19.3959 98.2426 19.6284 98.2901 19.7341C98.3324 19.8398 98.4064 19.9191 98.5121 19.9825C98.6125 20.046 98.7605 20.0724 98.9508 20.0724C99.0934 20.0724 99.2784 20.0565 99.511 20.0248Z" fill="#263238"/>
<path d="M105.921 18.7407L107.242 18.9046C107.036 19.6762 106.65 20.2734 106.085 20.7015C105.519 21.1295 104.8 21.341 103.928 21.341C102.824 21.341 101.952 21.0027 101.307 20.3209C100.662 19.6445 100.34 18.6932 100.34 17.467C100.34 16.2409 100.668 15.2156 101.318 14.518C101.968 13.8151 102.819 13.4663 103.86 13.4663C104.901 13.4663 105.688 13.8098 106.328 14.4969C106.967 15.1839 107.284 16.1458 107.284 17.3931C107.284 17.467 107.284 17.5833 107.279 17.7313H101.661C101.709 18.561 101.941 19.1952 102.364 19.6339C102.787 20.0726 103.31 20.2945 103.939 20.2945C104.409 20.2945 104.806 20.173 105.139 19.9246C105.472 19.6762 105.731 19.2851 105.926 18.746L105.921 18.7407ZM101.73 16.6743H105.937C105.879 16.0401 105.72 15.5645 105.456 15.2474C105.049 14.7558 104.52 14.5075 103.876 14.5075C103.289 14.5075 102.797 14.703 102.396 15.0941C101.994 15.4852 101.777 16.0137 101.735 16.669L101.73 16.6743Z" fill="#263238"/>
<path d="M108.828 21.1665V13.6301H109.975V14.7716C110.266 14.2378 110.54 13.8837 110.789 13.7146C111.037 13.5455 111.312 13.4609 111.608 13.4609C112.036 13.4609 112.475 13.5983 112.919 13.8732L112.48 15.057C112.168 14.872 111.856 14.7822 111.545 14.7822C111.265 14.7822 111.016 14.8667 110.794 15.0359C110.572 15.205 110.414 15.4375 110.318 15.7335C110.176 16.188 110.107 16.6848 110.107 17.2239V21.1665H108.828Z" fill="#263238"/>
<path d="M113.68 21.1665V13.6301H114.827V14.7029C115.381 13.8732 116.179 13.4609 117.226 13.4609C117.68 13.4609 118.098 13.5402 118.478 13.704C118.859 13.8679 119.144 14.0793 119.335 14.3435C119.525 14.6078 119.657 14.9249 119.731 15.2895C119.779 15.5274 119.8 15.9396 119.8 16.5315V21.1665H118.521V16.5844C118.521 16.0664 118.473 15.6753 118.373 15.4164C118.272 15.1574 118.098 14.9513 117.844 14.798C117.591 14.6448 117.295 14.5655 116.956 14.5655C116.412 14.5655 115.942 14.7399 115.551 15.0834C115.159 15.427 114.959 16.0823 114.959 17.0494V21.1665H113.68Z" fill="#263238"/>
<path d="M126.681 20.2364C126.205 20.638 125.751 20.9234 125.317 21.0873C124.879 21.2511 124.408 21.3357 123.912 21.3357C123.082 21.3357 122.448 21.1348 122.004 20.7279C121.56 20.3209 121.338 19.8083 121.338 19.1794C121.338 18.8094 121.422 18.4712 121.592 18.17C121.761 17.8634 121.977 17.6203 122.252 17.4353C122.522 17.2504 122.828 17.113 123.172 17.0178C123.42 16.9544 123.801 16.8857 124.308 16.8276C125.339 16.706 126.1 16.558 126.586 16.3889C126.586 16.2145 126.591 16.1035 126.591 16.056C126.591 15.538 126.47 15.1681 126.227 14.9567C125.899 14.666 125.418 14.5233 124.773 14.5233C124.171 14.5233 123.727 14.629 123.441 14.8404C123.156 15.0518 122.945 15.4218 122.807 15.9555L121.56 15.7864C121.671 15.2526 121.861 14.8193 122.12 14.4916C122.379 14.1639 122.754 13.9102 123.246 13.7306C123.737 13.5509 124.308 13.4663 124.958 13.4663C125.608 13.4663 126.126 13.5403 126.528 13.6936C126.929 13.8468 127.225 14.0371 127.416 14.2643C127.606 14.4916 127.738 14.7823 127.812 15.1311C127.854 15.3478 127.875 15.7389 127.875 16.3096V18.0114C127.875 19.2005 127.902 19.951 127.955 20.2628C128.008 20.5799 128.119 20.8812 128.277 21.1665H126.945C126.813 20.9023 126.729 20.5905 126.692 20.2364H126.681ZM126.575 17.3825C126.11 17.5727 125.418 17.7313 124.488 17.8634C123.965 17.9374 123.589 18.022 123.373 18.1171C123.156 18.2122 122.987 18.3496 122.871 18.5346C122.754 18.7143 122.691 18.9204 122.691 19.1424C122.691 19.4806 122.818 19.766 123.077 19.9933C123.336 20.2205 123.711 20.3315 124.208 20.3315C124.704 20.3315 125.138 20.2258 125.518 20.0091C125.904 19.7924 126.184 19.5018 126.364 19.1265C126.501 18.8359 126.57 18.4131 126.57 17.8476V17.3772L126.575 17.3825Z" fill="#263238"/>
<path d="M129.814 21.1665V10.7656H131.093V21.1665H129.814Z" fill="#263238"/>
<path d="M136.596 18.9154L137.859 18.7145C137.928 19.2219 138.128 19.6077 138.451 19.8772C138.773 20.1468 139.228 20.2789 139.809 20.2789C140.39 20.2789 140.829 20.1573 141.114 19.9195C141.4 19.6817 141.542 19.4016 141.542 19.0792C141.542 18.7885 141.416 18.5613 141.167 18.3974C140.993 18.2865 140.559 18.1385 139.862 17.9641C138.926 17.7262 138.276 17.5254 137.912 17.351C137.552 17.1766 137.277 16.9388 137.087 16.6322C136.902 16.3257 136.807 15.9928 136.807 15.6228C136.807 15.2846 136.886 14.978 137.04 14.6874C137.193 14.402 137.404 14.1642 137.669 13.9739C137.869 13.8259 138.139 13.7044 138.482 13.6039C138.826 13.5035 139.191 13.4507 139.587 13.4507C140.179 13.4507 140.697 13.5352 141.146 13.7044C141.595 13.8735 141.923 14.106 142.134 14.3967C142.346 14.6874 142.494 15.0785 142.573 15.5647L141.326 15.7338C141.268 15.348 141.104 15.0415 140.834 14.8248C140.565 14.6081 140.179 14.4971 139.682 14.4971C139.096 14.4971 138.678 14.5922 138.424 14.7878C138.176 14.9833 138.049 15.2106 138.049 15.4696C138.049 15.6334 138.102 15.7814 138.208 15.9188C138.313 16.0562 138.477 16.1672 138.699 16.257C138.826 16.3046 139.201 16.4103 139.825 16.5847C140.729 16.8278 141.357 17.0233 141.717 17.1766C142.076 17.3299 142.356 17.5518 142.557 17.8478C142.758 18.1438 142.864 18.5031 142.864 18.9418C142.864 19.3804 142.742 19.7663 142.494 20.1468C142.245 20.522 141.886 20.8127 141.421 21.0188C140.951 21.2249 140.422 21.3253 139.83 21.3253C138.852 21.3253 138.107 21.1245 137.589 20.7175C137.077 20.3106 136.749 19.7081 136.606 18.9101L136.596 18.9154Z" fill="#263238"/>
<path d="M149.534 18.7407L150.855 18.9046C150.649 19.6762 150.263 20.2734 149.698 20.7015C149.132 21.1295 148.414 21.341 147.542 21.341C146.437 21.341 145.565 21.0027 144.92 20.3209C144.276 19.6445 143.953 18.6932 143.953 17.467C143.953 16.2409 144.281 15.2156 144.931 14.518C145.581 13.8151 146.432 13.4663 147.473 13.4663C148.514 13.4663 149.302 13.8098 149.941 14.4969C150.58 15.1839 150.898 16.1458 150.898 17.3931C150.898 17.467 150.898 17.5833 150.892 17.7313H145.274C145.322 18.561 145.554 19.1952 145.977 19.6339C146.4 20.0726 146.923 20.2945 147.552 20.2945C148.023 20.2945 148.419 20.173 148.752 19.9246C149.085 19.6762 149.344 19.2851 149.539 18.746L149.534 18.7407ZM145.343 16.6743H149.55C149.492 16.0401 149.333 15.5645 149.069 15.2474C148.662 14.7558 148.134 14.5075 147.489 14.5075C146.902 14.5075 146.411 14.703 146.009 15.0941C145.607 15.4852 145.391 16.0137 145.348 16.669L145.343 16.6743Z" fill="#263238"/>
<path d="M152.439 21.1665V13.6301H153.586V14.7716C153.877 14.2378 154.152 13.8837 154.4 13.7146C154.649 13.5455 154.923 13.4609 155.219 13.4609C155.647 13.4609 156.086 13.5983 156.53 13.8732L156.091 15.057C155.78 14.872 155.468 14.7822 155.156 14.7822C154.876 14.7822 154.627 14.8667 154.405 15.0359C154.184 15.205 154.025 15.4375 153.93 15.7335C153.787 16.188 153.718 16.6848 153.718 17.2239V21.1665H152.439Z" fill="#263238"/>
<path d="M159.384 21.1668L156.52 13.6304H157.867L159.484 18.1438C159.659 18.63 159.823 19.1373 159.965 19.6605C160.076 19.2642 160.235 18.7832 160.441 18.2283L162.116 13.6304H163.427L160.573 21.1668H159.379H159.384Z" fill="#263238"/>
<path d="M169.716 18.7407L171.037 18.9046C170.831 19.6762 170.445 20.2734 169.88 20.7015C169.314 21.1295 168.595 21.341 167.723 21.341C166.619 21.341 165.747 21.0027 165.102 20.3209C164.457 19.6445 164.135 18.6932 164.135 17.467C164.135 16.2409 164.462 15.2156 165.112 14.518C165.763 13.8151 166.613 13.4663 167.655 13.4663C168.696 13.4663 169.483 13.8098 170.123 14.4969C170.762 15.1839 171.079 16.1458 171.079 17.3931C171.079 17.467 171.079 17.5833 171.074 17.7313H165.456C165.504 18.561 165.736 19.1952 166.159 19.6339C166.582 20.0726 167.105 20.2945 167.734 20.2945C168.204 20.2945 168.601 20.173 168.934 19.9246C169.267 19.6762 169.525 19.2851 169.721 18.746L169.716 18.7407ZM165.525 16.6743H169.732C169.673 16.0401 169.515 15.5645 169.251 15.2474C168.844 14.7558 168.315 14.5075 167.67 14.5075C167.084 14.5075 166.592 14.703 166.191 15.0941C165.789 15.4852 165.572 16.0137 165.53 16.669L165.525 16.6743Z" fill="#263238"/>
<path d="M172.623 21.1665V13.6301H173.77V14.7716C174.061 14.2378 174.335 13.8837 174.584 13.7146C174.832 13.5455 175.107 13.4609 175.403 13.4609C175.831 13.4609 176.27 13.5983 176.714 13.8732L176.275 15.057C175.963 14.872 175.651 14.7822 175.34 14.7822C175.059 14.7822 174.811 14.8667 174.589 15.0359C174.367 15.205 174.209 15.4375 174.113 15.7335C173.971 16.188 173.902 16.6848 173.902 17.2239V21.1665H172.623Z" fill="#263238"/>
<path d="M186.671 18.7407L187.992 18.9046C187.786 19.6762 187.4 20.2734 186.835 20.7015C186.269 21.1295 185.55 21.341 184.678 21.341C183.574 21.341 182.702 21.0027 182.057 20.3209C181.412 19.6392 181.09 18.6932 181.09 17.467C181.09 16.2409 181.418 15.2156 182.068 14.518C182.718 13.8151 183.569 13.4663 184.61 13.4663C185.651 13.4663 186.438 13.8098 187.078 14.4969C187.717 15.1839 188.034 16.1458 188.034 17.3931C188.034 17.467 188.034 17.5833 188.029 17.7313H182.411C182.459 18.561 182.691 19.1952 183.114 19.6339C183.537 20.0726 184.06 20.2945 184.689 20.2945C185.159 20.2945 185.556 20.173 185.889 19.9246C186.222 19.6762 186.481 19.2851 186.676 18.746L186.671 18.7407ZM182.48 16.6743H186.687C186.629 16.0401 186.47 15.5645 186.206 15.2474C185.799 14.7558 185.27 14.5075 184.626 14.5075C184.039 14.5075 183.547 14.703 183.146 15.0941C182.744 15.4852 182.527 16.0137 182.485 16.669L182.48 16.6743Z" fill="#263238"/>
<path d="M189.582 21.1665V13.6301H190.729V14.7716C191.02 14.2378 191.294 13.8837 191.543 13.7146C191.791 13.5455 192.066 13.4609 192.362 13.4609C192.79 13.4609 193.229 13.5983 193.673 13.8732L193.234 15.057C192.922 14.872 192.61 14.7822 192.299 14.7822C192.018 14.7822 191.77 14.8667 191.548 15.0359C191.326 15.205 191.168 15.4375 191.072 15.7335C190.93 16.188 190.861 16.6848 190.861 17.2239V21.1665H189.582Z" fill="#263238"/>
<path d="M194.418 21.1665V13.6301H195.565V14.7716C195.855 14.2378 196.13 13.8837 196.379 13.7146C196.627 13.5455 196.902 13.4609 197.198 13.4609C197.626 13.4609 198.065 13.5983 198.509 13.8732L198.07 15.057C197.758 14.872 197.446 14.7822 197.134 14.7822C196.854 14.7822 196.606 14.8667 196.384 15.0359C196.162 15.205 196.003 15.4375 195.908 15.7335C195.766 16.188 195.697 16.6848 195.697 17.2239V21.1665H194.418Z" fill="#263238"/>
<path d="M198.801 17.3983C198.801 16.003 199.187 14.9724 199.963 14.296C200.614 13.7358 201.401 13.4609 202.331 13.4609C203.367 13.4609 204.213 13.7992 204.873 14.4809C205.529 15.1574 205.862 16.0982 205.862 17.2926C205.862 18.265 205.714 19.026 205.423 19.581C205.132 20.1359 204.709 20.5693 204.154 20.8758C203.6 21.1823 202.992 21.3356 202.336 21.3356C201.279 21.3356 200.429 20.9973 199.778 20.3209C199.128 19.6444 198.801 18.6719 198.801 17.3983ZM200.111 17.3983C200.111 18.3654 200.323 19.0842 200.74 19.5651C201.163 20.046 201.692 20.2839 202.331 20.2839C202.971 20.2839 203.494 20.0408 203.911 19.5598C204.329 19.0789 204.54 18.3443 204.54 17.356C204.54 16.4258 204.329 15.7176 203.906 15.2367C203.483 14.7558 202.955 14.5179 202.326 14.5179C201.697 14.5179 201.158 14.7558 200.735 15.2367C200.312 15.7123 200.106 16.4364 200.106 17.3983H200.111Z" fill="#263238"/>
<path d="M207.34 21.1665V13.6301H208.487V14.7716C208.777 14.2378 209.052 13.8837 209.301 13.7146C209.549 13.5455 209.824 13.4609 210.12 13.4609C210.548 13.4609 210.987 13.5983 211.43 13.8732L210.992 15.057C210.68 14.872 210.368 14.7822 210.056 14.7822C209.776 14.7822 209.528 14.8667 209.306 15.0359C209.084 15.205 208.925 15.4375 208.83 15.7335C208.688 16.188 208.619 16.6848 208.619 17.2239V21.1665H207.34Z" fill="#263238"/>
</g>
<defs>
<clipPath id="clip0_6073_23546">
<rect width="264.25" height="200" fill="white" transform="translate(0.375)"/>
</clipPath>
</defs>
</svg>
