<svg width="380" height="240" viewBox="0 0 380 240" fill="none" xmlns="http://www.w3.org/2000/svg">
<g clip-path="url(#clip0_3548_548)">
<path d="M275.456 49.98C279.243 50.8309 283.658 56.1751 279.301 61.6352C274.944 67.0954 282.242 64.7102 283.369 74.2639C284.497 83.8241 275.847 82.2125 278.564 88.4785C281.28 94.7445 262.43 104.672 250.66 97.149C238.89 89.6259 237.794 73.4259 241.472 67.7014C245.15 61.9769 250.519 61.6159 248.091 55.4853C245.662 49.3482 248.526 42.9791 256.119 42.9211C261.847 42.8759 258.413 38.8469 266.294 38.8791C272.861 38.9113 278.679 43.5528 275.456 49.98Z" fill="#263238"/>
<path d="M254.37 57.9673C255.401 57.9673 256.234 58.8053 256.234 59.8497C256.234 60.894 255.401 61.7256 254.37 61.7256C253.338 61.7256 252.499 60.8875 252.499 59.8497C252.499 58.8118 253.338 57.9673 254.37 57.9673ZM254.37 61.2872C255.158 61.2872 255.799 60.6426 255.799 59.8497C255.799 59.0567 255.158 58.4056 254.37 58.4056C253.582 58.4056 252.934 59.0503 252.934 59.8497C252.934 60.649 253.575 61.2872 254.37 61.2872Z" fill="white"/>
<path d="M238.595 76.3075C238.595 76.3075 238.614 76.3075 238.627 76.3075C238.717 76.2881 238.768 76.2043 238.755 76.1205C238.178 73.1165 240.504 70.2091 242.965 67.1277C245.835 63.5305 249.09 59.4628 247.943 54.6086C246.963 50.4699 247.399 47.0146 249.173 44.8743C250.621 43.1209 252.883 42.3151 255.888 42.4698C258.643 42.6116 259.464 41.8638 260.329 41.0645C261.264 40.2071 262.34 39.2272 266.294 39.253C266.383 39.253 266.454 39.1821 266.454 39.0918C266.454 39.0016 266.383 38.9307 266.294 38.9307C266.249 38.9307 266.198 38.9307 266.153 38.9307C262.167 38.9307 261.072 39.9363 260.111 40.8259C259.258 41.606 258.528 42.2828 255.907 42.141C252.8 41.9799 250.448 42.8243 248.93 44.6616C247.091 46.8792 246.63 50.4377 247.636 54.6795C248.744 59.379 245.681 63.2146 242.715 66.9214C240.203 70.0608 237.839 73.0262 238.441 76.1721C238.454 76.2495 238.524 76.301 238.601 76.301L238.595 76.3075Z" fill="#263238"/>
<path d="M223.531 63.9945L224.396 65.6835C224.723 66.3152 224.723 67.0695 224.396 67.7077L222.878 70.6731C222.269 71.8592 221.129 72.6779 219.815 72.8649L219.001 72.9809C217.38 70.2798 217.605 66.1541 217.605 66.1541L217.54 64.9744C217.483 63.9236 218.213 63.0533 219.226 62.9824L221.551 62.8212C222.352 62.7632 223.147 63.2338 223.531 63.9945Z" fill="#FFC3BD"/>
<path d="M242.606 75.2762C242.638 75.2504 242.574 75.3471 242.542 75.3987L242.407 75.5921L242.1 76.0111C241.882 76.2948 241.645 76.572 241.401 76.8492C240.914 77.4036 240.395 77.9451 239.851 78.4672C238.768 79.5116 237.57 80.4334 236.32 81.2586C233.828 82.9218 231.041 84.0499 228.145 84.514L227.6 84.5914L227.324 84.6301C227.324 84.6301 227.369 84.6301 227.389 84.643C227.536 84.6559 227.722 84.7332 227.779 84.7912C227.901 84.9073 227.606 84.7332 227.324 84.3078C226.716 83.4568 226.158 81.9935 225.742 80.5172C225.332 79.0087 225.018 77.4035 224.8 75.7661C224.685 74.9474 224.614 74.1223 224.537 73.2907C224.467 72.4784 224.416 71.6017 224.409 70.8604L217.028 71.2214C217.124 72.2335 217.22 73.1037 217.323 74.0385C217.432 74.9603 217.573 75.8693 217.701 76.7911C217.983 78.6284 218.303 80.4785 218.783 82.3674C219.021 83.315 219.296 84.2755 219.648 85.2554C220.014 86.2353 220.43 87.2538 221.071 88.3175C221.724 89.3618 222.602 90.5738 224.275 91.5214C225.108 91.9791 226.152 92.2885 227.171 92.3336C227.408 92.3401 227.702 92.3336 227.888 92.3272L228.266 92.3014L229.022 92.2498C231.041 92.0629 233.033 91.6697 234.975 91.0959C236.903 90.4964 238.781 89.755 240.562 88.8396C242.35 87.9371 244.035 86.8541 245.656 85.6873C246.47 85.1007 247.258 84.4818 248.027 83.8178C248.411 83.489 248.789 83.1409 249.173 82.7864L249.75 82.232L250.045 81.9354C250.154 81.8194 250.231 81.7485 250.397 81.5487L242.567 75.2762H242.606Z" fill="#407BFF"/>
<path opacity="0.5" d="M242.606 75.2762C242.638 75.2504 242.574 75.3471 242.542 75.3987L242.407 75.5921L242.1 76.0111C241.882 76.2948 241.645 76.572 241.401 76.8492C240.914 77.4036 240.395 77.9451 239.851 78.4672C238.768 79.5116 237.57 80.4334 236.32 81.2586C233.828 82.9218 231.041 84.0499 228.145 84.514L227.6 84.5914L227.324 84.6301C227.324 84.6301 227.369 84.6301 227.389 84.643C227.536 84.6559 227.722 84.7332 227.779 84.7912C227.901 84.9073 227.606 84.7332 227.324 84.3078C226.716 83.4568 226.158 81.9935 225.742 80.5172C225.332 79.0087 225.018 77.4035 224.8 75.7661C224.685 74.9474 224.614 74.1223 224.537 73.2907C224.467 72.4784 224.416 71.6017 224.409 70.8604L217.028 71.2214C217.124 72.2335 217.22 73.1037 217.323 74.0385C217.432 74.9603 217.573 75.8693 217.701 76.7911C217.983 78.6284 218.303 80.4785 218.783 82.3674C219.021 83.315 219.296 84.2755 219.648 85.2554C220.014 86.2353 220.43 87.2538 221.071 88.3175C221.724 89.3618 222.602 90.5738 224.275 91.5214C225.108 91.9791 226.152 92.2885 227.171 92.3336C227.408 92.3401 227.702 92.3336 227.888 92.3272L228.266 92.3014L229.022 92.2498C231.041 92.0629 233.033 91.6697 234.975 91.0959C236.903 90.4964 238.781 89.755 240.562 88.8396C242.35 87.9371 244.035 86.8541 245.656 85.6873C246.47 85.1007 247.258 84.4818 248.027 83.8178C248.411 83.489 248.789 83.1409 249.173 82.7864L249.75 82.232L250.045 81.9354C250.154 81.8194 250.231 81.7485 250.397 81.5487L242.567 75.2762H242.606Z" fill="white"/>
<path d="M257.99 231.088C258.925 228.98 258.278 220.136 258.15 218.685C259.771 217.834 265.345 218.885 265.345 218.885C265.345 218.885 263.788 228.187 264.724 231.088C262.577 232.281 257.996 231.088 257.996 231.088H257.99Z" fill="#FFC3BD"/>
<path d="M189.201 222.604C190.956 221.128 194.647 213.051 195.166 211.69C196.999 211.645 201.131 214.894 201.131 214.894C201.131 214.894 195.672 222.559 195.243 225.583C192.789 225.705 189.201 222.604 189.201 222.604Z" fill="#FFC3BD"/>
<path d="M252.281 236.219C256.965 236.219 257.766 236.148 260.405 236.058C262.661 235.974 263.199 236.258 265.012 236.219C266.524 236.187 266.473 234.73 266.005 233.054C265.839 232.454 265.608 231.765 265.371 230.92C265.185 230.269 264.589 229.818 263.917 229.818H258.772C258.297 229.818 257.868 230.05 257.567 230.417C256.324 231.971 253.639 233.106 251.294 233.421C248.776 233.763 250.416 236.219 252.287 236.219H252.281Z" fill="#407BFF"/>
<path d="M179.949 226.201C184.991 228.496 187.637 227.329 190.168 227.91C192.34 228.406 192.27 228.812 194.436 229.437C195.871 229.85 196.601 228.303 196.48 226.949C196.403 226.072 196.307 225.054 196.326 223.99C196.332 223.597 196.121 223.236 195.768 223.075L190.751 220.786C190.418 220.638 190.04 220.683 189.752 220.909C187.753 222.514 183.364 224.538 180.288 223.494C177.905 222.694 178.27 225.434 179.949 226.195V226.201Z" fill="#407BFF"/>
<path d="M235.564 111.234C235.564 111.234 223.724 138.574 217.214 158.732C209.262 176.963 193.327 215.21 193.327 215.21C193.02 216.183 198.049 217.963 199.145 217.782C199.145 217.782 220.167 192.409 228.734 163.586C251 135.486 257.554 112.923 257.554 112.923L235.564 111.241V111.234Z" fill="#263238"/>
<path opacity="0.2" d="M245.06 126.204C241.799 129.801 239.492 142.313 238.319 150.488C242.933 143.654 246.54 137.401 249.321 132.044C248.994 128.989 247.661 126.739 245.053 126.204H245.06Z" fill="black"/>
<path d="M242.157 111.737C242.157 111.737 241.312 149.714 244.599 168.421C248.046 188.07 258.714 211.761 257.958 224.661C259.054 225.305 262.917 225.344 265.076 224.661C265.076 224.661 268.761 186.375 257.676 167.686C260.072 148.979 266.473 124.746 260.79 113.168L242.157 111.744V111.737Z" fill="#263238"/>
<path d="M257.42 221.972C257.4 222.623 257.343 223.758 257.17 224.622C257.112 224.931 257.317 225.221 257.631 225.273C260.239 225.692 264.006 225.086 265.205 224.867C265.435 224.828 265.608 224.641 265.647 224.409L266.037 221.934C266.089 221.592 265.826 221.289 265.486 221.296L257.958 221.444C257.663 221.444 257.432 221.682 257.42 221.972Z" fill="#263238"/>
<path opacity="0.1" d="M257.42 221.972C257.4 222.623 257.343 223.758 257.17 224.622C257.112 224.931 257.317 225.221 257.631 225.273C260.239 225.692 264.006 225.086 265.205 224.867C265.435 224.828 265.608 224.641 265.647 224.409L266.037 221.934C266.089 221.592 265.826 221.289 265.486 221.296L257.958 221.444C257.663 221.444 257.432 221.682 257.42 221.972Z" fill="white"/>
<path d="M193.904 212.4C193.584 213.012 193 214.095 192.539 214.888C192.385 215.152 192.475 215.475 192.731 215.636C194.654 216.828 198.056 218.021 199.183 218.401C199.408 218.479 199.651 218.401 199.792 218.208L201.324 216.177C201.535 215.9 201.439 215.5 201.125 215.352L194.628 212.161C194.365 212.032 194.045 212.129 193.904 212.393V212.4Z" fill="#263238"/>
<path opacity="0.1" d="M193.904 212.4C193.584 213.012 193 214.095 192.539 214.888C192.385 215.152 192.475 215.475 192.731 215.636C194.654 216.828 198.056 218.021 199.183 218.401C199.408 218.479 199.651 218.401 199.792 218.208L201.324 216.177C201.535 215.9 201.439 215.5 201.125 215.352L194.628 212.161C194.365 212.032 194.045 212.129 193.904 212.393V212.4Z" fill="white"/>
<path d="M240.6 79.0539C239.972 81.4777 238.96 84.1401 237.743 90C236.621 94.9316 235.801 103.602 235.564 111.235C238.858 114.187 249.808 113.684 260.79 113.169C260.822 105.981 263.756 99.3474 271.74 84.6301C273.592 81.2199 272.092 77.1908 268.517 75.9789C267.562 75.6565 266.544 75.3342 265.493 75.0377C261.399 73.8902 258.041 72.9812 254.293 72.4784C253.05 72.3108 251.756 72.1754 250.506 72.0723C246.015 71.6855 241.715 74.7154 240.594 79.0603L240.6 79.0539Z" fill="#407BFF"/>
<path opacity="0.5" d="M240.6 79.0539C239.972 81.4777 238.96 84.1401 237.743 90C236.621 94.9316 235.801 103.602 235.564 111.235C238.858 114.187 249.808 113.684 260.79 113.169C260.822 105.981 263.756 99.3474 271.74 84.6301C273.592 81.2199 272.092 77.1908 268.517 75.9789C267.562 75.6565 266.544 75.3342 265.493 75.0377C261.399 73.8902 258.041 72.9812 254.293 72.4784C253.05 72.3108 251.756 72.1754 250.506 72.0723C246.015 71.6855 241.715 74.7154 240.594 79.0603L240.6 79.0539Z" fill="white"/>
<path d="M253.569 72.459L264.884 74.8958C264.884 74.8958 255.728 78.7379 248.398 84.6622C246.399 74.5348 253.569 72.459 253.569 72.459Z" fill="white"/>
<path d="M267.575 62.1704C265.781 65.5742 263.084 71.9433 264.878 74.9022C264.878 74.9022 254.664 77.8741 249.218 82.58C248.494 74.9667 253.562 72.4655 253.562 72.4655C257.875 72.4332 258.778 69.3389 258.925 66.4058L267.575 62.1704Z" fill="#FFC3BD"/>
<path d="M257.983 75.8756C261.226 75.8756 264.724 75.0956 264.916 75.0569C264.999 75.0376 265.057 74.9538 265.038 74.8635C265.019 74.7797 264.929 74.7217 264.846 74.741C264.788 74.7539 258.74 76.1013 255.222 75.2954C254.101 75.0376 253.447 74.625 253.274 74.0642C253.043 73.3099 253.774 72.517 253.78 72.5106C253.838 72.4461 253.838 72.3429 253.774 72.2849C253.71 72.2269 253.607 72.2269 253.55 72.2914C253.511 72.3301 252.685 73.2326 252.967 74.1609C253.172 74.8377 253.908 75.3277 255.151 75.6113C256.004 75.8047 256.978 75.8821 257.983 75.8821V75.8756Z" fill="white"/>
<path d="M253.428 75.9657C253.697 76.172 254.088 76.114 254.293 75.8432L254.645 75.3726C254.85 75.1019 254.793 74.7086 254.524 74.5088C254.254 74.3025 253.864 74.3605 253.659 74.6313L253.306 75.1019C253.101 75.3726 253.159 75.7658 253.428 75.9657Z" fill="#407BFF"/>
<path opacity="0.2" d="M264.051 63.8979L258.932 66.4056C258.9 67.1019 258.829 67.7916 258.675 68.4492C260.277 68.5781 262.898 67.3984 263.545 65.8448C263.865 65.0712 264.064 64.2976 264.051 63.8979Z" fill="black"/>
<path d="M272.74 57.0066C270.106 62.512 269.107 64.8907 265.076 66.7795C259.009 69.6224 252.806 65.5676 253.742 59.4821C254.581 54.0026 258.752 45.9187 265.198 45.6157C271.554 45.3127 275.379 51.5013 272.74 57.0066Z" fill="#FFC3BD"/>
<path d="M270.426 49.0132C267.562 53.1067 267.71 59.824 271.086 60.7329C276.231 59.9335 277.327 58.5991 277.327 58.5991C277.327 58.5991 275.668 45.9704 270.426 49.0132Z" fill="#263238"/>
<path d="M274.463 50.6957C266.883 51.6692 260.854 48.4846 259.726 46.6989C266.588 42.0316 273.713 46.0027 274.463 50.6957Z" fill="#263238"/>
<path d="M258.643 53.8223C258.643 53.8223 256.984 55.5757 255.69 56.2462C256.061 57.0455 257.221 57.1487 257.221 57.1487L258.643 53.8223Z" fill="#ED847E"/>
<path d="M259.009 59.6947C258.746 59.6496 258.477 59.5851 258.195 59.4884C258.118 59.4626 258.086 59.3788 258.118 59.3014C258.15 59.2241 258.233 59.1854 258.317 59.2112C260.367 59.9332 261.95 58.8244 261.962 58.818C262.033 58.7664 262.123 58.7793 262.167 58.8437C262.212 58.9082 262.193 58.9985 262.129 59.05C262.071 59.0952 260.796 59.9848 259.009 59.7011V59.6947Z" fill="#263238"/>
<path d="M272.4 62.6604C271.208 63.3308 269.952 63.3888 269.049 63.0729C267.697 62.5895 268.094 60.9263 269.369 59.869C270.523 58.915 272.611 58.0124 273.54 59.0697C274.45 60.1076 273.765 61.8932 272.4 62.6604Z" fill="#FFC3BD"/>
<path d="M269.984 63.002C271.016 63.002 271.849 63.84 271.849 64.8843C271.849 65.9287 271.016 66.7603 269.984 66.7603C268.953 66.7603 268.113 65.9222 268.113 64.8843C268.113 63.8464 268.953 63.002 269.984 63.002ZM269.984 66.3219C270.773 66.3219 271.413 65.6772 271.413 64.8843C271.413 64.0914 270.773 63.4403 269.984 63.4403C269.196 63.4403 268.549 64.085 268.549 64.8843C268.549 65.6837 269.19 66.3219 269.984 66.3219Z" fill="white"/>
<path d="M265.813 53.3966C265.749 53.3514 265.704 53.287 265.691 53.2032C265.512 51.9397 264.513 51.5077 264.5 51.5013C264.352 51.4368 264.282 51.2692 264.359 51.121C264.429 50.9727 264.615 50.9082 264.762 50.9727C264.814 50.992 266.076 51.5335 266.294 53.1065C266.313 53.2612 266.198 53.4095 266.031 53.4417C265.948 53.4546 265.871 53.4417 265.813 53.3966Z" fill="#263238"/>
<path d="M256.715 49.9799C256.644 49.9735 256.574 49.9348 256.529 49.8768C256.433 49.7543 256.465 49.5673 256.599 49.4642C257.951 48.4328 259.239 48.826 259.297 48.8453C259.451 48.8969 259.528 49.0581 259.464 49.2128C259.406 49.3675 259.233 49.4513 259.079 49.4062C259.028 49.3933 258.022 49.1032 256.952 49.9219C256.881 49.9735 256.798 49.9928 256.721 49.9864L256.715 49.9799Z" fill="#263238"/>
<path d="M256.805 52.1526C256.638 52.6296 256.76 53.1067 257.074 53.2098C257.388 53.313 257.772 53.01 257.939 52.5329C258.105 52.0559 257.983 51.5789 257.67 51.4757C257.356 51.3726 256.971 51.6756 256.805 52.1526Z" fill="#263238"/>
<path d="M262.36 54.4539C262.193 54.9309 262.315 55.408 262.629 55.5111C262.943 55.6142 263.327 55.3113 263.494 54.8342C263.66 54.3572 263.539 53.8801 263.225 53.777C262.911 53.6738 262.526 53.9768 262.36 54.4539Z" fill="#263238"/>
<path d="M263.494 54.0604L262.975 52.9258C262.975 52.9258 262.674 54.0023 263.494 54.0604Z" fill="#263238"/>
<path d="M257.977 51.8236L257.458 50.689C257.458 50.689 257.157 51.7655 257.977 51.8236Z" fill="#263238"/>
<path opacity="0.5" d="M264.679 85.3198L270.234 87.4214C267.947 91.689 266.134 95.2216 264.743 98.2902C265.32 91.5085 264.673 85.3198 264.673 85.3198H264.679Z" fill="#407BFF"/>
<path d="M229.836 236.232H222.525V130.246H229.836V236.232Z" fill="#407BFF"/>
<path opacity="0.2" d="M229.843 130.239H222.525V148.064L229.843 146.169V130.239Z" fill="black"/>
<path d="M187.093 143.441H252.307V131.154C252.307 121.859 244.81 114.316 235.571 114.316H203.829C194.589 114.316 187.093 121.859 187.093 131.154V143.441Z" fill="#407BFF"/>
<path d="M247.501 123.303L248.584 121.749C248.994 121.162 249.654 120.814 250.365 120.808L253.684 120.782C255.01 120.769 256.26 121.407 257.035 122.49L257.516 123.161C255.895 125.862 252.166 127.583 252.166 127.583L251.153 128.189C250.256 128.73 249.148 128.479 248.616 127.615L247.392 125.617C246.969 124.927 247.014 124.005 247.501 123.309V123.303Z" fill="#FFC3BD"/>
<path d="M262.603 83.734C262.77 84.0821 262.988 84.6043 263.18 85.0556L263.75 86.4802C264.122 87.4408 264.468 88.4142 264.794 89.394C265.442 91.3473 265.967 93.3264 266.371 95.2861C266.563 96.266 266.729 97.2394 266.845 98.2C266.947 99.154 267.005 100.095 267.011 101.004C267.011 102.809 266.736 104.472 266.198 105.626L265.961 106.142C265.941 106.181 265.922 106.232 265.916 106.277C265.653 107.309 264.948 108.592 264.051 109.823C263.154 111.061 262.078 112.286 260.912 113.465C259.733 114.632 258.477 115.76 257.163 116.843C256.51 117.385 255.831 117.907 255.151 118.416C254.485 118.919 253.755 119.441 253.12 119.86L256.753 125.636C257.618 125.082 258.361 124.585 259.143 124.05C259.918 123.522 260.675 122.967 261.431 122.413C262.943 121.298 264.423 120.125 265.864 118.848C267.306 117.578 268.729 116.224 270.055 114.651C270.721 113.871 271.362 113.02 271.964 112.092C272.56 111.157 273.137 110.139 273.592 108.953L273.303 109.604C274.873 106.845 275.399 104.028 275.616 101.43C275.809 98.8124 275.68 96.324 275.411 93.9002C275.136 91.4827 274.7 89.1297 274.181 86.809C273.925 85.6486 273.637 84.5012 273.329 83.3537C273.175 82.7799 273.009 82.2062 272.836 81.6325C272.656 81.0394 272.496 80.5172 272.265 79.8403L262.603 83.7469V83.734Z" fill="#407BFF"/>
<path opacity="0.5" d="M262.603 83.734C262.77 84.0821 262.988 84.6043 263.18 85.0556L263.75 86.4802C264.122 87.4408 264.468 88.4142 264.794 89.394C265.442 91.3473 265.967 93.3264 266.371 95.2861C266.563 96.266 266.729 97.2394 266.845 98.2C266.947 99.154 267.005 100.095 267.011 101.004C267.011 102.809 266.736 104.472 266.198 105.626L265.961 106.142C265.941 106.181 265.922 106.232 265.916 106.277C265.653 107.309 264.948 108.592 264.051 109.823C263.154 111.061 262.078 112.286 260.912 113.465C259.733 114.632 258.477 115.76 257.163 116.843C256.51 117.385 255.831 117.907 255.151 118.416C254.485 118.919 253.755 119.441 253.12 119.86L256.753 125.636C257.618 125.082 258.361 124.585 259.143 124.05C259.918 123.522 260.675 122.967 261.431 122.413C262.943 121.298 264.423 120.125 265.864 118.848C267.306 117.578 268.729 116.224 270.055 114.651C270.721 113.871 271.362 113.02 271.964 112.092C272.56 111.157 273.137 110.139 273.592 108.953L273.303 109.604C274.873 106.845 275.399 104.028 275.616 101.43C275.809 98.8124 275.68 96.324 275.411 93.9002C275.136 91.4827 274.7 89.1297 274.181 86.809C273.925 85.6486 273.637 84.5012 273.329 83.3537C273.175 82.7799 273.009 82.2062 272.836 81.6325C272.656 81.0394 272.496 80.5172 272.265 79.8403L262.603 83.7469V83.734Z" fill="white"/>
<path opacity="0.1" d="M252.307 139.799H220.565V131.683H252.307V139.799Z" fill="white"/>
<path opacity="0.2" d="M220.565 143.442V131.155C220.565 121.852 213.068 114.316 203.829 114.316C194.589 114.316 187.093 121.859 187.093 131.155V143.442" fill="black"/>
<path d="M220.565 145.601H174.765V143.441H220.565V145.601Z" fill="#407BFF"/>
<path opacity="0.2" d="M208.237 145.601H174.765V143.441H208.237V145.601Z" fill="black"/>
<path d="M226.177 134.623H224.992V106.181H226.177V134.623Z" fill="#E0E0E0"/>
<path d="M232.931 111.693H224.64V107.612C224.64 107.309 224.883 107.064 225.184 107.064H232.937L231.579 109.378L232.937 111.693H232.931Z" fill="#407BFF"/>
<path d="M96 6.45264L141.088 16.7928L146.868 20.3835L96 6.45264Z" fill="#407BFF"/>
<path opacity="0.2" d="M141.088 16.7928L146.868 20.3835L96 6.45264" fill="black"/>
<path d="M96 6.45264L141.088 16.7928L136.847 19.9387L96 6.45264Z" fill="#407BFF"/>
<path d="M118.668 0.929415L141.293 -0.00472927C142.431 -0.0517367 143.392 0.83873 143.439 1.98418L143.859 12.2899C143.906 13.4354 143.021 14.402 141.882 14.4491L119.258 15.3832C118.119 15.4302 117.159 14.5397 117.112 13.3943L116.692 3.08856C116.645 1.9431 117.53 0.976422 118.668 0.929415Z" fill="#407BFF"/>
<path opacity="0.8" d="M118.668 0.929415L141.293 -0.00472927C142.431 -0.0517367 143.392 0.83873 143.439 1.98418L143.859 12.2899C143.906 13.4354 143.021 14.402 141.882 14.4491L119.258 15.3832C118.119 15.4302 117.159 14.5397 117.112 13.3943L116.692 3.08856C116.645 1.9431 117.53 0.976422 118.668 0.929415Z" fill="white"/>
<path opacity="0.4" d="M130.375 10.4562C130.439 10.4562 130.503 10.4369 130.555 10.3982L142.248 2.28205C142.395 2.1789 142.427 1.97906 142.331 1.83079C142.229 1.68252 142.03 1.65029 141.883 1.74699L130.356 9.74709L118.214 2.72041C118.06 2.63016 117.868 2.68173 117.778 2.83644C117.689 2.99116 117.74 3.18456 117.894 3.27481L130.209 10.3982C130.26 10.424 130.311 10.4433 130.369 10.4433L130.375 10.4562Z" fill="#407BFF"/>
<path opacity="0.4" d="M118.483 13.5955C118.547 13.5955 118.611 13.5762 118.663 13.5375L125.365 8.85089C125.512 8.74775 125.544 8.54791 125.448 8.39964C125.346 8.25137 125.147 8.21914 125 8.31583L118.297 13.0024C118.15 13.1056 118.118 13.3054 118.214 13.4537C118.278 13.5439 118.374 13.5891 118.477 13.5891L118.483 13.5955Z" fill="#407BFF"/>
<path opacity="0.4" d="M142.492 12.6026C142.6 12.6026 142.709 12.5446 142.767 12.4414C142.857 12.2867 142.805 12.0933 142.652 12.0031L135.591 7.88376C135.437 7.79351 135.245 7.84509 135.155 7.9998C135.065 8.15452 135.117 8.34791 135.27 8.43816L142.331 12.5575C142.383 12.5897 142.44 12.6026 142.492 12.6026Z" fill="#407BFF"/>
<path d="M96 6.45264L134.655 14.4012L136.847 19.9387L96 6.45264Z" fill="#407BFF"/>
<path opacity="0.2" d="M96 6.45264L134.655 14.4012L136.847 19.9387L96 6.45264Z" fill="black"/>
<path d="M96 6.45264L134.655 14.4012L122.481 18.8428L96 6.45264Z" fill="#407BFF"/>
<path d="M149.591 24.8385C149.738 24.8385 149.866 24.7353 149.905 24.5871C149.943 24.413 149.841 24.239 149.668 24.2003C148.95 24.0327 148.245 23.807 147.579 23.5363C147.412 23.4718 147.227 23.5492 147.162 23.7168C147.098 23.8844 147.175 24.0714 147.342 24.1358C148.04 24.4195 148.771 24.6515 149.52 24.832C149.546 24.832 149.572 24.8385 149.597 24.8385H149.591Z" fill="#407BFF"/>
<path d="M173.67 136.202C173.836 136.202 173.984 136.066 173.99 135.892C173.996 135.712 173.862 135.563 173.682 135.557C172.202 135.486 170.69 135.344 169.191 135.151C169.018 135.125 168.858 135.254 168.832 135.428C168.806 135.602 168.935 135.763 169.108 135.789C170.62 135.989 172.151 136.131 173.65 136.202H173.663H173.67ZM164.687 135.015C164.834 135.015 164.968 134.912 165 134.764C165.039 134.59 164.93 134.416 164.757 134.384C163.251 134.055 161.784 133.668 160.4 133.23C160.233 133.178 160.054 133.268 159.996 133.443C159.945 133.61 160.035 133.791 160.208 133.849C161.611 134.293 163.091 134.687 164.622 135.022C164.648 135.022 164.667 135.028 164.693 135.028L164.687 135.015ZM156.062 132.231C156.184 132.231 156.299 132.16 156.351 132.044C156.421 131.882 156.351 131.689 156.19 131.618C155.024 131.083 153.967 130.503 153.057 129.903C152.801 129.736 152.551 129.568 152.295 129.394C152.147 129.291 151.949 129.33 151.846 129.478C151.744 129.626 151.782 129.826 151.93 129.923C152.186 130.097 152.442 130.271 152.698 130.438C153.634 131.057 154.717 131.65 155.915 132.198C155.96 132.218 156.005 132.231 156.049 132.231H156.062ZM148.521 127.209C148.611 127.209 148.7 127.17 148.764 127.099C148.88 126.964 148.867 126.764 148.732 126.641C147.541 125.604 146.483 124.527 145.586 123.438C145.471 123.302 145.272 123.283 145.138 123.399C145.003 123.515 144.984 123.715 145.099 123.85C146.022 124.965 147.105 126.068 148.322 127.125C148.38 127.177 148.457 127.202 148.534 127.202L148.521 127.209ZM142.825 120.182C142.876 120.182 142.921 120.169 142.972 120.15C143.132 120.066 143.19 119.873 143.113 119.718C142.908 119.312 142.716 118.893 142.543 118.48C142.152 117.545 141.832 116.546 141.582 115.515C141.537 115.341 141.364 115.238 141.197 115.276C141.024 115.321 140.922 115.495 140.96 115.663C141.216 116.727 141.556 117.758 141.953 118.725C142.133 119.157 142.331 119.583 142.543 120.008C142.6 120.118 142.709 120.182 142.831 120.182H142.825ZM140.601 111.402C140.601 111.402 140.614 111.402 140.621 111.402C140.8 111.389 140.928 111.234 140.922 111.06C140.864 110.184 140.832 109.255 140.832 108.224C140.832 107.657 140.838 107.096 140.858 106.528C140.858 106.348 140.723 106.2 140.544 106.2C140.364 106.18 140.217 106.335 140.217 106.516C140.204 107.089 140.191 107.657 140.191 108.23C140.191 109.275 140.223 110.216 140.281 111.105C140.294 111.273 140.435 111.408 140.601 111.408V111.402ZM140.723 102.28C140.896 102.28 141.037 102.145 141.044 101.971C141.101 100.662 141.159 99.2503 141.159 97.845V97.3937C141.159 97.2132 141.031 97.0585 140.832 97.0714C140.653 97.0714 140.512 97.2197 140.512 97.3937V97.8385C140.512 99.231 140.46 100.63 140.403 101.932C140.396 102.113 140.531 102.261 140.71 102.267H140.723V102.28ZM113.325 98.3091C113.908 98.3091 114.479 98.2962 115.023 98.2704C115.203 98.264 115.337 98.1093 115.331 97.9352C115.325 97.7612 115.171 97.6193 114.998 97.6258C114.46 97.6516 113.896 97.6645 113.325 97.6645C112.319 97.6645 111.378 97.6193 110.513 97.5226C110.34 97.5033 110.179 97.6322 110.16 97.8063C110.141 97.9803 110.269 98.1415 110.442 98.1609C111.326 98.2575 112.294 98.3027 113.319 98.3027L113.325 98.3091ZM119.534 97.9803C119.534 97.9803 119.553 97.9803 119.56 97.9803C121.059 97.8643 122.584 97.7289 124.083 97.5678C124.256 97.5484 124.384 97.3937 124.372 97.2132C124.352 97.0392 124.199 96.9038 124.019 96.9231C122.526 97.0778 121.008 97.2132 119.508 97.3292C119.329 97.3421 119.201 97.4969 119.214 97.6774C119.227 97.845 119.368 97.9739 119.534 97.9739V97.9803ZM106.098 97.0585C106.22 97.0585 106.335 96.9876 106.393 96.8716C106.463 96.7104 106.393 96.517 106.233 96.4461C104.791 95.7885 103.695 94.8538 102.978 93.6612C102.888 93.5065 102.689 93.4613 102.535 93.5516C102.382 93.6418 102.337 93.8417 102.427 93.9964C103.221 95.2986 104.406 96.3236 105.97 97.0327C106.015 97.052 106.06 97.0585 106.104 97.0585H106.098ZM128.556 97.0456C128.556 97.0456 128.581 97.0456 128.594 97.0456C130.087 96.8522 131.599 96.633 133.092 96.4009C133.265 96.3752 133.387 96.2076 133.361 96.0335C133.336 95.8594 133.169 95.737 132.996 95.7627C131.509 95.9948 130.004 96.214 128.517 96.4074C128.344 96.4332 128.216 96.5943 128.242 96.7684C128.261 96.9296 128.402 97.052 128.562 97.052L128.556 97.0456ZM137.519 95.6403C137.519 95.6403 137.558 95.6403 137.577 95.6403C139.057 95.3695 140.557 95.073 142.037 94.7635C142.21 94.7249 142.319 94.5573 142.287 94.3832C142.248 94.2091 142.081 94.0996 141.908 94.1318C140.435 94.4412 138.942 94.7378 137.468 95.0085C137.295 95.0407 137.18 95.2084 137.212 95.3824C137.238 95.5371 137.372 95.6467 137.526 95.6467L137.519 95.6403ZM146.394 93.7708C146.394 93.7708 146.445 93.7708 146.471 93.7643C147.938 93.4162 149.418 93.0423 150.879 92.6555C151.052 92.6104 151.154 92.4363 151.109 92.2623C151.065 92.0882 150.892 91.9851 150.719 92.0302C149.264 92.417 147.79 92.7845 146.33 93.1326C146.157 93.1713 146.048 93.3453 146.092 93.5194C146.125 93.6676 146.259 93.7708 146.406 93.7708H146.394ZM140.512 93.1648C140.512 93.1648 140.544 93.1648 140.557 93.1648C140.73 93.139 140.851 92.9714 140.826 92.7974C140.589 91.2051 140.211 89.6966 139.704 88.317C139.64 88.1494 139.461 88.0656 139.294 88.1236C139.128 88.1881 139.044 88.3686 139.102 88.5362C139.595 89.8771 139.961 91.3404 140.191 92.8876C140.217 93.0488 140.352 93.1648 140.505 93.1648H140.512ZM155.165 91.4436C155.165 91.4436 155.223 91.4436 155.255 91.4307C156.703 91.0052 158.164 90.554 159.599 90.0963C159.766 90.0447 159.862 89.8578 159.804 89.6901C159.753 89.5225 159.567 89.4258 159.4 89.4839C157.972 89.9416 156.511 90.3928 155.069 90.8183C154.896 90.8699 154.8 91.0439 154.851 91.218C154.89 91.3598 155.018 91.45 155.159 91.45L155.165 91.4436ZM101.786 89.7804C101.933 89.7804 102.068 89.6708 102.1 89.5225C102.343 88.2719 103.106 87.0535 104.368 85.906C104.496 85.79 104.509 85.5837 104.394 85.4483C104.278 85.313 104.073 85.3065 103.939 85.4226C102.568 86.6667 101.735 88.0012 101.465 89.3936C101.433 89.5677 101.542 89.7353 101.722 89.7739C101.741 89.7739 101.76 89.7739 101.786 89.7739V89.7804ZM163.802 88.6523C163.841 88.6523 163.873 88.6523 163.911 88.6329C165.372 88.1108 166.801 87.5692 168.172 87.0277C168.339 86.9633 168.416 86.7763 168.352 86.6087C168.287 86.4411 168.102 86.3638 167.935 86.4282C166.577 86.9697 165.148 87.5112 163.7 88.0269C163.533 88.085 163.443 88.2719 163.508 88.4395C163.552 88.5749 163.681 88.6523 163.809 88.6523H163.802ZM172.228 85.2807C172.273 85.2807 172.318 85.2743 172.356 85.255C173.766 84.6232 175.15 83.9592 176.463 83.2888C176.623 83.2114 176.681 83.0116 176.604 82.8569C176.527 82.6957 176.329 82.6377 176.175 82.715C174.868 83.379 173.497 84.0366 172.093 84.6683C171.933 84.7392 171.856 84.9326 171.933 85.0938C171.984 85.2163 172.106 85.2872 172.228 85.2872V85.2807ZM137.295 84.7263C137.359 84.7263 137.43 84.707 137.487 84.6619C137.628 84.5587 137.66 84.3524 137.558 84.2106C136.687 83.0245 135.661 82.0253 134.508 81.2517C134.399 81.1808 134.29 81.1034 134.175 81.0325C134.027 80.9358 133.829 80.9874 133.733 81.1356C133.637 81.2839 133.688 81.4838 133.835 81.5804C133.938 81.6449 134.047 81.7158 134.149 81.7867C135.238 82.5216 136.212 83.4693 137.039 84.5974C137.103 84.6812 137.199 84.7263 137.295 84.7263ZM107.905 83.437C107.956 83.437 108.007 83.4241 108.059 83.3984C108.597 83.1083 109.122 82.8375 109.622 82.5861C110.436 82.18 111.275 81.8061 112.127 81.4709C112.294 81.4064 112.371 81.2195 112.307 81.0518C112.243 80.8842 112.057 80.8069 111.89 80.8713C111.025 81.213 110.167 81.5933 109.34 82.0059C108.834 82.2573 108.302 82.5281 107.757 82.8246C107.604 82.9084 107.546 83.1083 107.629 83.263C107.687 83.3726 107.796 83.4306 107.911 83.4306L107.905 83.437ZM180.308 81.1485C180.365 81.1485 180.416 81.1356 180.468 81.1034C181.807 80.3234 183.108 79.5047 184.331 78.6795C184.479 78.5828 184.517 78.383 184.421 78.2347C184.325 78.0864 184.126 78.0478 183.979 78.1445C182.762 78.9632 181.474 79.7754 180.147 80.549C179.994 80.6393 179.942 80.8327 180.032 80.9874C180.09 81.0905 180.199 81.1485 180.308 81.1485ZM116.33 80.1364C116.33 80.1364 116.382 80.1364 116.407 80.13C117.862 79.7819 119.355 79.5369 120.835 79.4015C121.014 79.3822 121.142 79.2275 121.123 79.0534C121.104 78.8729 120.95 78.744 120.777 78.7633C119.265 78.9052 117.746 79.1566 116.26 79.5111C116.087 79.5498 115.984 79.7239 116.023 79.8979C116.055 80.0462 116.19 80.1429 116.337 80.1429L116.33 80.1364ZM129.818 79.9237C129.965 79.9237 130.093 79.827 130.132 79.6787C130.177 79.5047 130.068 79.3306 129.895 79.2919C128.844 79.0341 127.729 78.86 126.473 78.744C126.102 78.7118 125.724 78.686 125.352 78.6666C125.173 78.6537 125.025 78.7956 125.012 78.9696C125.006 79.1501 125.141 79.2984 125.314 79.3113C125.679 79.3306 126.05 79.3564 126.416 79.3886C127.639 79.4982 128.722 79.6723 129.741 79.9173C129.767 79.9173 129.792 79.9237 129.818 79.9237ZM187.823 76.0558C187.894 76.0558 187.964 76.0365 188.022 75.9849C189.239 75.0244 190.406 74.0252 191.488 73.0066C191.616 72.8841 191.623 72.6843 191.508 72.5489C191.386 72.42 191.187 72.4135 191.053 72.5296C189.976 73.5352 188.829 74.528 187.625 75.4756C187.484 75.5852 187.458 75.785 187.573 75.9269C187.638 76.0107 187.734 76.0494 187.823 76.0494V76.0558ZM194.436 69.8349C194.525 69.8349 194.615 69.7962 194.679 69.7253C195.692 68.565 196.64 67.3466 197.492 66.1024C197.595 65.9541 197.556 65.7543 197.409 65.6511C197.261 65.548 197.063 65.5867 196.96 65.735C196.121 66.9598 195.192 68.1588 194.192 69.2999C194.077 69.4352 194.09 69.6351 194.224 69.7576C194.288 69.8091 194.359 69.8349 194.436 69.8349ZM199.562 62.3376C199.677 62.3376 199.792 62.2732 199.843 62.1636C200.555 60.7776 201.163 59.3529 201.657 57.9347C201.714 57.7671 201.625 57.5801 201.458 57.5221C201.292 57.4641 201.106 57.5543 201.048 57.722C200.568 59.1144 199.972 60.5068 199.273 61.8671C199.19 62.0282 199.254 62.2216 199.408 62.299C199.453 62.3248 199.504 62.3376 199.555 62.3376H199.562ZM202.509 53.7445C202.663 53.7445 202.797 53.6349 202.823 53.4802C202.887 53.1385 202.938 52.7904 202.989 52.4487C203.143 51.327 203.227 50.1731 203.227 49.0192V48.8902C203.227 48.7097 203.079 48.5615 202.906 48.5679C202.727 48.5679 202.586 48.7162 202.586 48.8902V49.0192C202.586 50.1473 202.509 51.269 202.355 52.3585C202.31 52.6937 202.253 53.0353 202.195 53.3706C202.163 53.5446 202.278 53.7122 202.451 53.7445C202.47 53.7445 202.49 53.7445 202.509 53.7445ZM202.477 44.6678C202.477 44.6678 202.515 44.6678 202.535 44.6678C202.708 44.6356 202.823 44.4679 202.791 44.2939C202.515 42.7854 202.105 41.2898 201.58 39.8458C201.516 39.6782 201.336 39.5944 201.17 39.6524C201.003 39.7169 200.92 39.8974 200.978 40.065C201.497 41.4768 201.894 42.9337 202.163 44.4035C202.189 44.5582 202.323 44.6678 202.477 44.6678ZM199.35 36.152C199.408 36.152 199.459 36.1391 199.51 36.1068C199.664 36.0166 199.715 35.8232 199.626 35.6685C198.85 34.3276 197.953 33.0576 196.967 31.9037C196.851 31.7683 196.646 31.7554 196.518 31.8715C196.384 31.9875 196.371 32.1938 196.486 32.3292C197.447 33.4509 198.319 34.6886 199.075 35.9972C199.132 36.1004 199.241 36.1584 199.35 36.1584V36.152ZM193.455 29.2929C193.552 29.2929 193.648 29.2478 193.705 29.1704C193.814 29.0286 193.789 28.8287 193.648 28.7191C192.469 27.7973 191.168 26.9657 189.771 26.2501C189.611 26.1663 189.419 26.2308 189.342 26.392C189.259 26.5531 189.323 26.7465 189.483 26.8239C190.841 27.5201 192.116 28.3259 193.257 29.222C193.314 29.2671 193.385 29.2929 193.455 29.2929ZM154.082 25.2961C155.441 25.2767 156.889 25.1478 158.638 24.8899C158.811 24.8641 158.933 24.703 158.907 24.5225C158.881 24.342 158.721 24.2259 158.542 24.2517C156.818 24.5031 155.402 24.6321 154.07 24.6514C153.89 24.6514 153.749 24.7997 153.756 24.9802C153.756 25.1542 153.903 25.2961 154.076 25.2961H154.082ZM185.44 25.1284C185.574 25.1284 185.703 25.0446 185.747 24.9093C185.805 24.7417 185.709 24.5612 185.542 24.5031C184.171 24.0519 182.685 23.6651 181.121 23.3492C180.948 23.317 180.782 23.4266 180.743 23.6006C180.711 23.7747 180.82 23.9423 180.993 23.981C182.531 24.2904 183.998 24.6772 185.344 25.1156C185.376 25.1284 185.408 25.1284 185.446 25.1284H185.44ZM163.065 24.1163C163.065 24.1163 163.104 24.1163 163.123 24.1163C164.501 23.8585 166.058 23.5684 167.583 23.3492C167.756 23.3234 167.877 23.1623 167.858 22.9818C167.833 22.8077 167.672 22.6852 167.493 22.7046C165.955 22.9237 164.392 23.2138 163.008 23.4781C162.835 23.5104 162.719 23.678 162.752 23.852C162.777 24.0068 162.912 24.1163 163.065 24.1163ZM176.572 23.2847C176.732 23.2847 176.873 23.1623 176.892 23.0011C176.912 22.827 176.784 22.6659 176.611 22.6465C175.797 22.5498 174.925 22.466 174.028 22.3951C173.458 22.35 172.862 22.3242 172.26 22.3242H172.049C171.869 22.3242 171.728 22.4725 171.728 22.653C171.728 22.8335 171.895 22.9689 172.049 22.9753H172.254C172.843 22.9753 173.42 22.9947 173.971 23.0398C174.861 23.1107 175.72 23.1945 176.527 23.2847C176.54 23.2847 176.553 23.2847 176.566 23.2847H176.572Z" fill="#407BFF"/>
<path d="M178.27 136.221C178.27 136.221 178.276 136.221 178.283 136.221C179.045 136.189 179.801 136.137 180.538 136.066C180.711 136.047 180.846 135.892 180.827 135.712C180.807 135.538 180.654 135.402 180.474 135.422C179.757 135.493 179.007 135.544 178.257 135.576C178.078 135.583 177.943 135.738 177.95 135.912C177.956 136.086 178.097 136.221 178.27 136.221Z" fill="#407BFF"/>
<g opacity="0.6">
<path d="M149.591 24.8385C149.738 24.8385 149.866 24.7353 149.905 24.5871C149.943 24.413 149.841 24.239 149.668 24.2003C148.95 24.0327 148.245 23.807 147.579 23.5363C147.412 23.4718 147.227 23.5492 147.162 23.7168C147.098 23.8844 147.175 24.0714 147.342 24.1358C148.04 24.4195 148.771 24.6515 149.52 24.832C149.546 24.832 149.572 24.8385 149.597 24.8385H149.591Z" fill="white"/>
<path d="M173.67 136.202C173.836 136.202 173.984 136.066 173.99 135.892C173.996 135.712 173.862 135.563 173.682 135.557C172.202 135.486 170.69 135.344 169.191 135.151C169.018 135.125 168.858 135.254 168.832 135.428C168.806 135.602 168.935 135.763 169.108 135.789C170.62 135.989 172.151 136.131 173.65 136.202H173.663H173.67ZM164.687 135.015C164.834 135.015 164.968 134.912 165 134.764C165.039 134.59 164.93 134.416 164.757 134.384C163.251 134.055 161.784 133.668 160.4 133.23C160.233 133.178 160.054 133.268 159.996 133.443C159.945 133.61 160.035 133.791 160.208 133.849C161.611 134.293 163.091 134.687 164.622 135.022C164.648 135.022 164.667 135.028 164.693 135.028L164.687 135.015ZM156.062 132.231C156.184 132.231 156.299 132.16 156.351 132.044C156.421 131.882 156.351 131.689 156.19 131.618C155.024 131.083 153.967 130.503 153.057 129.903C152.801 129.736 152.551 129.568 152.295 129.394C152.147 129.291 151.949 129.33 151.846 129.478C151.744 129.626 151.782 129.826 151.93 129.923C152.186 130.097 152.442 130.271 152.698 130.438C153.634 131.057 154.717 131.65 155.915 132.198C155.96 132.218 156.005 132.231 156.049 132.231H156.062ZM148.521 127.209C148.611 127.209 148.7 127.17 148.764 127.099C148.88 126.964 148.867 126.764 148.732 126.641C147.541 125.604 146.483 124.527 145.586 123.438C145.471 123.302 145.272 123.283 145.138 123.399C145.003 123.515 144.984 123.715 145.099 123.85C146.022 124.965 147.105 126.068 148.322 127.125C148.38 127.177 148.457 127.202 148.534 127.202L148.521 127.209ZM142.825 120.182C142.876 120.182 142.921 120.169 142.972 120.15C143.132 120.066 143.19 119.873 143.113 119.718C142.908 119.312 142.716 118.893 142.543 118.48C142.152 117.545 141.832 116.546 141.582 115.515C141.537 115.341 141.364 115.238 141.197 115.276C141.024 115.321 140.922 115.495 140.96 115.663C141.216 116.727 141.556 117.758 141.953 118.725C142.133 119.157 142.331 119.583 142.543 120.008C142.6 120.118 142.709 120.182 142.831 120.182H142.825ZM140.601 111.402C140.601 111.402 140.614 111.402 140.621 111.402C140.8 111.389 140.928 111.234 140.922 111.06C140.864 110.184 140.832 109.255 140.832 108.224C140.832 107.657 140.838 107.096 140.858 106.528C140.858 106.348 140.723 106.2 140.544 106.2C140.364 106.18 140.217 106.335 140.217 106.516C140.204 107.089 140.191 107.657 140.191 108.23C140.191 109.275 140.223 110.216 140.281 111.105C140.294 111.273 140.435 111.408 140.601 111.408V111.402ZM140.723 102.28C140.896 102.28 141.037 102.145 141.044 101.971C141.101 100.662 141.159 99.2503 141.159 97.845V97.3937C141.159 97.2132 141.031 97.0585 140.832 97.0714C140.653 97.0714 140.512 97.2197 140.512 97.3937V97.8385C140.512 99.231 140.46 100.63 140.403 101.932C140.396 102.113 140.531 102.261 140.71 102.267H140.723V102.28ZM113.325 98.3091C113.908 98.3091 114.479 98.2962 115.023 98.2704C115.203 98.264 115.337 98.1093 115.331 97.9352C115.325 97.7612 115.171 97.6193 114.998 97.6258C114.46 97.6516 113.896 97.6645 113.325 97.6645C112.319 97.6645 111.378 97.6193 110.513 97.5226C110.34 97.5033 110.179 97.6322 110.16 97.8063C110.141 97.9803 110.269 98.1415 110.442 98.1609C111.326 98.2575 112.294 98.3027 113.319 98.3027L113.325 98.3091ZM119.534 97.9803C119.534 97.9803 119.553 97.9803 119.56 97.9803C121.059 97.8643 122.584 97.7289 124.083 97.5678C124.256 97.5484 124.384 97.3937 124.372 97.2132C124.352 97.0392 124.199 96.9038 124.019 96.9231C122.526 97.0778 121.008 97.2132 119.508 97.3292C119.329 97.3421 119.201 97.4969 119.214 97.6774C119.227 97.845 119.368 97.9739 119.534 97.9739V97.9803ZM106.098 97.0585C106.22 97.0585 106.335 96.9876 106.393 96.8716C106.463 96.7104 106.393 96.517 106.233 96.4461C104.791 95.7885 103.695 94.8538 102.978 93.6612C102.888 93.5065 102.689 93.4613 102.535 93.5516C102.382 93.6418 102.337 93.8417 102.427 93.9964C103.221 95.2986 104.406 96.3236 105.97 97.0327C106.015 97.052 106.06 97.0585 106.104 97.0585H106.098ZM128.556 97.0456C128.556 97.0456 128.581 97.0456 128.594 97.0456C130.087 96.8522 131.599 96.633 133.092 96.4009C133.265 96.3752 133.387 96.2076 133.361 96.0335C133.336 95.8594 133.169 95.737 132.996 95.7627C131.509 95.9948 130.004 96.214 128.517 96.4074C128.344 96.4332 128.216 96.5943 128.242 96.7684C128.261 96.9296 128.402 97.052 128.562 97.052L128.556 97.0456ZM137.519 95.6403C137.519 95.6403 137.558 95.6403 137.577 95.6403C139.057 95.3695 140.557 95.073 142.037 94.7635C142.21 94.7249 142.319 94.5573 142.287 94.3832C142.248 94.2091 142.081 94.0996 141.908 94.1318C140.435 94.4412 138.942 94.7378 137.468 95.0085C137.295 95.0407 137.18 95.2084 137.212 95.3824C137.238 95.5371 137.372 95.6467 137.526 95.6467L137.519 95.6403ZM146.394 93.7708C146.394 93.7708 146.445 93.7708 146.471 93.7643C147.938 93.4162 149.418 93.0423 150.879 92.6555C151.052 92.6104 151.154 92.4363 151.109 92.2623C151.065 92.0882 150.892 91.9851 150.719 92.0302C149.264 92.417 147.79 92.7845 146.33 93.1326C146.157 93.1713 146.048 93.3453 146.092 93.5194C146.125 93.6676 146.259 93.7708 146.406 93.7708H146.394ZM140.512 93.1648C140.512 93.1648 140.544 93.1648 140.557 93.1648C140.73 93.139 140.851 92.9714 140.826 92.7974C140.589 91.2051 140.211 89.6966 139.704 88.317C139.64 88.1494 139.461 88.0656 139.294 88.1236C139.128 88.1881 139.044 88.3686 139.102 88.5362C139.595 89.8771 139.961 91.3404 140.191 92.8876C140.217 93.0488 140.352 93.1648 140.505 93.1648H140.512ZM155.165 91.4436C155.165 91.4436 155.223 91.4436 155.255 91.4307C156.703 91.0052 158.164 90.554 159.599 90.0963C159.766 90.0447 159.862 89.8578 159.804 89.6901C159.753 89.5225 159.567 89.4258 159.4 89.4839C157.972 89.9416 156.511 90.3928 155.069 90.8183C154.896 90.8699 154.8 91.0439 154.851 91.218C154.89 91.3598 155.018 91.45 155.159 91.45L155.165 91.4436ZM101.786 89.7804C101.933 89.7804 102.068 89.6708 102.1 89.5225C102.343 88.2719 103.106 87.0535 104.368 85.906C104.496 85.79 104.509 85.5837 104.394 85.4483C104.278 85.313 104.073 85.3065 103.939 85.4226C102.568 86.6667 101.735 88.0012 101.465 89.3936C101.433 89.5677 101.542 89.7353 101.722 89.7739C101.741 89.7739 101.76 89.7739 101.786 89.7739V89.7804ZM163.802 88.6523C163.841 88.6523 163.873 88.6523 163.911 88.6329C165.372 88.1108 166.801 87.5692 168.172 87.0277C168.339 86.9633 168.416 86.7763 168.352 86.6087C168.287 86.4411 168.102 86.3638 167.935 86.4282C166.577 86.9697 165.148 87.5112 163.7 88.0269C163.533 88.085 163.443 88.2719 163.508 88.4395C163.552 88.5749 163.681 88.6523 163.809 88.6523H163.802ZM172.228 85.2807C172.273 85.2807 172.318 85.2743 172.356 85.255C173.766 84.6232 175.15 83.9592 176.463 83.2888C176.623 83.2114 176.681 83.0116 176.604 82.8569C176.527 82.6957 176.329 82.6377 176.175 82.715C174.868 83.379 173.497 84.0366 172.093 84.6683C171.933 84.7392 171.856 84.9326 171.933 85.0938C171.984 85.2163 172.106 85.2872 172.228 85.2872V85.2807ZM137.295 84.7263C137.359 84.7263 137.43 84.707 137.487 84.6619C137.628 84.5587 137.66 84.3524 137.558 84.2106C136.687 83.0245 135.661 82.0253 134.508 81.2517C134.399 81.1808 134.29 81.1034 134.175 81.0325C134.027 80.9358 133.829 80.9874 133.733 81.1356C133.637 81.2839 133.688 81.4838 133.835 81.5804C133.938 81.6449 134.047 81.7158 134.149 81.7867C135.238 82.5216 136.212 83.4693 137.039 84.5974C137.103 84.6812 137.199 84.7263 137.295 84.7263ZM107.905 83.437C107.956 83.437 108.007 83.4241 108.059 83.3984C108.597 83.1083 109.122 82.8375 109.622 82.5861C110.436 82.18 111.275 81.8061 112.127 81.4709C112.294 81.4064 112.371 81.2195 112.307 81.0518C112.243 80.8842 112.057 80.8069 111.89 80.8713C111.025 81.213 110.167 81.5933 109.34 82.0059C108.834 82.2573 108.302 82.5281 107.757 82.8246C107.604 82.9084 107.546 83.1083 107.629 83.263C107.687 83.3726 107.796 83.4306 107.911 83.4306L107.905 83.437ZM180.308 81.1485C180.365 81.1485 180.416 81.1356 180.468 81.1034C181.807 80.3234 183.108 79.5047 184.331 78.6795C184.479 78.5828 184.517 78.383 184.421 78.2347C184.325 78.0864 184.126 78.0478 183.979 78.1445C182.762 78.9632 181.474 79.7754 180.147 80.549C179.994 80.6393 179.942 80.8327 180.032 80.9874C180.09 81.0905 180.199 81.1485 180.308 81.1485ZM116.33 80.1364C116.33 80.1364 116.382 80.1364 116.407 80.13C117.862 79.7819 119.355 79.5369 120.835 79.4015C121.014 79.3822 121.142 79.2275 121.123 79.0534C121.104 78.8729 120.95 78.744 120.777 78.7633C119.265 78.9052 117.746 79.1566 116.26 79.5111C116.087 79.5498 115.984 79.7239 116.023 79.8979C116.055 80.0462 116.19 80.1429 116.337 80.1429L116.33 80.1364ZM129.818 79.9237C129.965 79.9237 130.093 79.827 130.132 79.6787C130.177 79.5047 130.068 79.3306 129.895 79.2919C128.844 79.0341 127.729 78.86 126.473 78.744C126.102 78.7118 125.724 78.686 125.352 78.6666C125.173 78.6537 125.025 78.7956 125.012 78.9696C125.006 79.1501 125.141 79.2984 125.314 79.3113C125.679 79.3306 126.05 79.3564 126.416 79.3886C127.639 79.4982 128.722 79.6723 129.741 79.9173C129.767 79.9173 129.792 79.9237 129.818 79.9237ZM187.823 76.0558C187.894 76.0558 187.964 76.0365 188.022 75.9849C189.239 75.0244 190.406 74.0252 191.488 73.0066C191.616 72.8841 191.623 72.6843 191.508 72.5489C191.386 72.42 191.187 72.4135 191.053 72.5296C189.976 73.5352 188.829 74.528 187.625 75.4756C187.484 75.5852 187.458 75.785 187.573 75.9269C187.638 76.0107 187.734 76.0494 187.823 76.0494V76.0558ZM194.436 69.8349C194.525 69.8349 194.615 69.7962 194.679 69.7253C195.692 68.565 196.64 67.3466 197.492 66.1024C197.595 65.9541 197.556 65.7543 197.409 65.6511C197.261 65.548 197.063 65.5867 196.96 65.735C196.121 66.9598 195.192 68.1588 194.192 69.2999C194.077 69.4352 194.09 69.6351 194.224 69.7576C194.288 69.8091 194.359 69.8349 194.436 69.8349ZM199.562 62.3376C199.677 62.3376 199.792 62.2732 199.843 62.1636C200.555 60.7776 201.163 59.3529 201.657 57.9347C201.714 57.7671 201.625 57.5801 201.458 57.5221C201.292 57.4641 201.106 57.5543 201.048 57.722C200.568 59.1144 199.972 60.5068 199.273 61.8671C199.19 62.0282 199.254 62.2216 199.408 62.299C199.453 62.3248 199.504 62.3376 199.555 62.3376H199.562ZM202.509 53.7445C202.663 53.7445 202.797 53.6349 202.823 53.4802C202.887 53.1385 202.938 52.7904 202.989 52.4487C203.143 51.327 203.227 50.1731 203.227 49.0192V48.8902C203.227 48.7097 203.079 48.5615 202.906 48.5679C202.727 48.5679 202.586 48.7162 202.586 48.8902V49.0192C202.586 50.1473 202.509 51.269 202.355 52.3585C202.31 52.6937 202.253 53.0353 202.195 53.3706C202.163 53.5446 202.278 53.7122 202.451 53.7445C202.47 53.7445 202.49 53.7445 202.509 53.7445ZM202.477 44.6678C202.477 44.6678 202.515 44.6678 202.535 44.6678C202.708 44.6356 202.823 44.4679 202.791 44.2939C202.515 42.7854 202.105 41.2898 201.58 39.8458C201.516 39.6782 201.336 39.5944 201.17 39.6524C201.003 39.7169 200.92 39.8974 200.978 40.065C201.497 41.4768 201.894 42.9337 202.163 44.4035C202.189 44.5582 202.323 44.6678 202.477 44.6678ZM199.35 36.152C199.408 36.152 199.459 36.1391 199.51 36.1068C199.664 36.0166 199.715 35.8232 199.626 35.6685C198.85 34.3276 197.953 33.0576 196.967 31.9037C196.851 31.7683 196.646 31.7554 196.518 31.8715C196.384 31.9875 196.371 32.1938 196.486 32.3292C197.447 33.4509 198.319 34.6886 199.075 35.9972C199.132 36.1004 199.241 36.1584 199.35 36.1584V36.152ZM193.455 29.2929C193.552 29.2929 193.648 29.2478 193.705 29.1704C193.814 29.0286 193.789 28.8287 193.648 28.7191C192.469 27.7973 191.168 26.9657 189.771 26.2501C189.611 26.1663 189.419 26.2308 189.342 26.392C189.259 26.5531 189.323 26.7465 189.483 26.8239C190.841 27.5201 192.116 28.3259 193.257 29.222C193.314 29.2671 193.385 29.2929 193.455 29.2929ZM154.082 25.2961C155.441 25.2767 156.889 25.1478 158.638 24.8899C158.811 24.8641 158.933 24.703 158.907 24.5225C158.881 24.342 158.721 24.2259 158.542 24.2517C156.818 24.5031 155.402 24.6321 154.07 24.6514C153.89 24.6514 153.749 24.7997 153.756 24.9802C153.756 25.1542 153.903 25.2961 154.076 25.2961H154.082ZM185.44 25.1284C185.574 25.1284 185.703 25.0446 185.747 24.9093C185.805 24.7417 185.709 24.5612 185.542 24.5031C184.171 24.0519 182.685 23.6651 181.121 23.3492C180.948 23.317 180.782 23.4266 180.743 23.6006C180.711 23.7747 180.82 23.9423 180.993 23.981C182.531 24.2904 183.998 24.6772 185.344 25.1156C185.376 25.1284 185.408 25.1284 185.446 25.1284H185.44ZM163.065 24.1163C163.065 24.1163 163.104 24.1163 163.123 24.1163C164.501 23.8585 166.058 23.5684 167.583 23.3492C167.756 23.3234 167.877 23.1623 167.858 22.9818C167.833 22.8077 167.672 22.6852 167.493 22.7046C165.955 22.9237 164.392 23.2138 163.008 23.4781C162.835 23.5104 162.719 23.678 162.752 23.852C162.777 24.0068 162.912 24.1163 163.065 24.1163ZM176.572 23.2847C176.732 23.2847 176.873 23.1623 176.892 23.0011C176.912 22.827 176.784 22.6659 176.611 22.6465C175.797 22.5498 174.925 22.466 174.028 22.3951C173.458 22.35 172.862 22.3242 172.26 22.3242H172.049C171.869 22.3242 171.728 22.4725 171.728 22.653C171.728 22.8335 171.895 22.9689 172.049 22.9753H172.254C172.843 22.9753 173.42 22.9947 173.971 23.0398C174.861 23.1107 175.72 23.1945 176.527 23.2847C176.54 23.2847 176.553 23.2847 176.566 23.2847H176.572Z" fill="white"/>
<path d="M178.27 136.221C178.27 136.221 178.276 136.221 178.283 136.221C179.045 136.189 179.801 136.137 180.538 136.066C180.711 136.047 180.846 135.892 180.827 135.712C180.807 135.538 180.654 135.402 180.474 135.422C179.757 135.493 179.007 135.544 178.257 135.576C178.078 135.583 177.943 135.738 177.95 135.912C177.956 136.086 178.097 136.221 178.27 136.221Z" fill="white"/>
</g>
</g>
<defs>
<clipPath id="clip0_3548_548">
<rect width="380" height="240" fill="white" transform="matrix(-1 0 0 1 380 0)"/>
</clipPath>
</defs>
</svg>
