<svg width="380" height="240" viewBox="0 0 380 240" fill="none" xmlns="http://www.w3.org/2000/svg">
<path d="M191.573 53.8047C191.573 53.8047 195.945 56.4013 203.26 54.4114C210.582 52.4295 214.082 62.8079 220.337 57.9221" stroke="#263238" stroke-width="0.708" stroke-miterlimit="10" stroke-linecap="round" stroke-linejoin="round"/>
<path d="M184.38 31.2359C184.38 31.2359 175.861 28.162 174.794 37.6425C173.727 47.1231 178.916 51.1595 183.782 50.9411" stroke="#263238" stroke-width="0.708" stroke-miterlimit="10" stroke-linecap="round" stroke-linejoin="round"/>
<path d="M182.44 46.9209C185.689 48.7571 182.416 49.3719 186.61 51.6611C190.805 53.9504 199.041 58.8848 203.923 52.7532C207.818 47.8592 213.645 54.9939 217.759 55.7057C222.56 56.5389 227.11 52.6318 227.458 47.8997C227.555 46.5407 227.547 45.1332 228.072 43.8794C228.638 42.5123 229.753 41.5092 230.949 40.6922C232.283 39.7781 234.675 39.0825 234.101 36.9793C233.875 36.1542 233.229 35.4909 232.485 35.0541C231.168 34.2937 229.616 33.9701 228.104 34.1723C225.348 34.5444 223.36 36.7043 220.782 34.3099C219.796 33.3958 219.149 32.1824 218.422 31.0499C217.177 29.1085 215.133 27.7819 212.781 27.7819C210.598 27.7819 209.176 28.8901 207.349 29.8365C203.777 31.689 199.437 30.1116 196.374 28.243C191.355 25.1691 187.516 25.3066 183.62 28.3158C179.579 31.4382 175.207 42.5042 179.514 46.023C179.773 46.2333 182.157 46.7591 182.44 46.9209Z" fill="#263238"/>
<path d="M182.828 29.7474C182.828 29.7474 186.788 24.2873 193.658 24.7483C200.528 25.2094 199.493 31.1145 205.959 27.2398C212.417 23.3732 216.838 25.2903 219.739 29.7474" stroke="#263238" stroke-width="0.708" stroke-miterlimit="10" stroke-linecap="round" stroke-linejoin="round"/>
<path d="M206.929 61.7642C206.929 61.7642 220.968 64.5793 223.328 64.1182C225.688 63.6571 240.769 46.7588 240.769 46.7588C240.769 46.7588 241.852 43.0055 242.612 42.8841C243.372 42.7628 252.973 39.6161 253.054 41.42C253.135 43.2158 251.3 47.9399 250.848 48.4009C250.387 48.862 242.766 50.0754 242.766 50.0754C242.766 50.0754 228.888 68.2437 227.062 69.4651C225.235 70.6866 208.61 69.4651 208.61 69.4651L206.929 61.7642Z" fill="#E4897B"/>
<path d="M177.453 63.188C174.649 64.5631 164.732 89.8984 164.732 89.8984C164.732 89.8984 146.773 106.319 146.264 107.881C145.731 109.498 147.46 116.043 147.816 116.617C148.067 117.021 152.35 117.458 152.35 116.924C152.35 116.366 150.265 108.997 150.265 108.997L169.759 92.8024L179.514 70.1932L177.453 63.188Z" fill="#E4897B"/>
<path d="M177.453 63.188C174.907 63.3579 163.52 76.8668 163.52 76.8668L171.869 83.1925L177.453 63.188Z" fill="#407BFF"/>
<path opacity="0.5" d="M177.453 63.188C174.907 63.3579 163.52 76.8668 163.52 76.8668L171.869 83.1925L177.453 63.188Z" fill="white"/>
<path d="M169.153 80.6202C166.542 83.4676 179.369 95.8441 196.293 92.7945C213.217 89.7448 220.386 79.6091 220.386 79.6091C220.386 79.6091 189.132 58.828 169.153 80.6202Z" fill="#407BFF"/>
<path opacity="0.6" d="M169.153 80.6202C166.542 83.4676 179.369 95.8441 196.293 92.7945C213.217 89.7448 220.386 79.6091 220.386 79.6091C220.386 79.6091 189.132 58.828 169.153 80.6202Z" fill="white"/>
<path d="M148.551 98.1735C150.645 92.8104 159.487 91.0065 168.959 90.7072C170.794 90.6505 172.313 92.1066 172.313 93.9347C170.608 95.0268 169.347 96.4262 168.684 98.1492C165.564 106.141 176.193 117.765 192.438 124.107C208.675 130.449 224.362 129.115 227.482 121.122C230.028 114.578 244.188 123.169 240.001 133.903C234.449 148.14 209.483 151.683 184.226 141.823C158.977 131.946 142.999 112.41 148.551 98.1735Z" fill="#407BFF"/>
<path opacity="0.4" d="M184.218 141.807C209.467 151.667 234.449 148.124 239.993 133.887C244.172 123.153 230.02 114.562 227.474 121.107C226.731 122.999 225.3 124.512 223.32 125.645C216.911 129.301 204.836 128.937 192.43 124.091C178.641 118.712 168.902 109.523 168.183 101.984C168.054 100.641 168.207 99.3548 168.676 98.1414C169.347 96.4265 170.6 95.0271 172.305 93.9269C172.305 92.0988 170.786 90.6427 168.951 90.6994C159.479 90.9987 150.637 92.7944 148.535 98.1657C143.007 112.411 158.969 131.946 184.218 141.807Z" fill="white"/>
<path opacity="0.2" d="M166.405 118.955C166.405 118.955 165.492 114.312 167.165 112.03C167.165 112.03 171.812 121.64 187.095 128.961C202.379 136.29 212.902 134.47 214.882 133.24C214.882 133.24 215.036 135.982 213.363 137.819C213.363 137.819 222.988 134.907 223.312 125.653C216.902 129.309 204.828 128.945 192.422 124.099C178.633 118.72 168.894 109.531 168.175 101.992C158.84 106.756 166.405 118.955 166.405 118.955Z" fill="black"/>
<path d="M177.453 136.589C177.793 138.708 178.714 141.709 179.975 145.172C184.162 156.642 192.001 172.982 194.135 177.666C195.808 181.355 203.179 182.22 212.15 183.797C229.438 186.847 252.699 191.426 252.699 191.426L253.054 185.933C253.054 185.933 206.363 171.979 205.749 169.374C204.884 165.702 204.634 148.464 204.351 133.96C204.31 132.342 204.278 130.757 204.254 129.228C204.197 126.712 204.157 124.382 204.116 122.368C204.028 117.749 203.971 114.756 203.971 114.756L179.724 95.3828C179.716 95.3909 173.865 114.158 177.453 136.589Z" fill="#E4897B"/>
<path opacity="0.2" d="M179.975 145.164C184.162 156.634 192.001 172.974 194.135 177.658C195.808 181.347 203.179 182.212 212.15 183.79C229.438 186.839 252.699 191.418 252.699 191.418L253.054 185.925C253.054 185.925 206.363 171.971 205.749 169.367C204.884 165.694 204.634 148.456 204.351 133.952L192.09 127.683L179.975 145.164Z" fill="black"/>
<path d="M205.361 92.7944C205.361 92.7944 214.761 112.629 211.439 131.347C208.117 150.066 191.379 162.402 188.671 168.234C185.964 174.066 167.593 224.753 167.593 224.753L163.52 223.079C163.52 223.079 174.859 173.193 177.308 161.261C178.464 155.623 192.09 127.699 192.09 127.699C192.09 127.699 178.173 112.807 179.377 93.0209L205.361 92.7944Z" fill="#E4897B"/>
<path d="M208.626 61.4568C208.626 61.4568 191.549 57.6873 177.453 63.1879C177.453 63.1879 176.483 78.0882 179.539 93.3524L205.636 93.5385C205.636 93.5385 204.222 86.4281 210.016 72.6684L208.626 61.4568Z" fill="#407BFF"/>
<path d="M189.536 65.4853C195.533 64.005 197.069 61.1899 197.069 61.1899C194.313 59.1272 194.369 55.6165 194.757 53.3758C194.967 52.1382 195.283 51.2969 195.283 51.2969L188.114 53.5052C188.445 54.6943 188.647 55.7055 188.752 56.5629C188.873 57.5013 188.873 58.2536 188.801 58.8522C188.55 61.101 187.306 61.2708 187.306 61.2708C186.295 63.8351 189.536 65.4853 189.536 65.4853Z" fill="#E4897B"/>
<path opacity="0.2" d="M188.744 56.5632C188.865 57.5016 188.865 58.2538 188.793 58.8524C191.662 58.1325 193.602 55.5521 194.757 53.368C194.967 52.1303 195.283 51.2891 195.283 51.2891L188.114 53.4974C188.437 54.6946 188.639 55.7058 188.744 56.5632Z" fill="black"/>
<path d="M187.281 33.0316C180.937 33.9942 179.409 37.7071 179.943 44.3241C180.605 52.5912 183.297 58.1242 190.967 55.1717C201.377 51.1594 197.82 31.4219 187.281 33.0316Z" fill="#E4897B"/>
<path d="M183.984 43.3452C183.984 43.3452 183.353 45.141 182.537 46.2573C182.537 46.2573 183.208 47.042 184.323 46.7184L183.984 43.3452Z" fill="#DE5753"/>
<path d="M187.79 42.2287C187.855 42.7545 188.195 43.1428 188.542 43.0942C188.89 43.0457 189.116 42.5927 189.051 42.0669C188.987 41.5411 188.647 41.1528 188.3 41.2014C187.952 41.2499 187.726 41.711 187.79 42.2287Z" fill="#263238"/>
<path d="M188.453 41.2095L187.257 40.9102C187.257 40.9102 187.944 41.7919 188.453 41.2095Z" fill="#263238"/>
<path d="M181.276 42.9567C181.341 43.4825 181.68 43.8708 182.028 43.8223C182.375 43.7737 182.602 43.3207 182.537 42.7949C182.472 42.2691 182.133 41.8809 181.785 41.9294C181.438 41.9698 181.203 42.4309 181.276 42.9567Z" fill="#263238"/>
<path d="M181.931 41.9375L180.735 41.6382C180.735 41.6382 181.43 42.5199 181.931 41.9375Z" fill="#263238"/>
<path d="M187.192 37.8363C187.192 37.8363 188.938 37.3348 190.094 38.3783" stroke="#263238" stroke-width="0.708" stroke-miterlimit="10" stroke-linecap="round" stroke-linejoin="round"/>
<path d="M182.537 38.2734C182.537 38.2734 181.357 38.0307 180.088 39.1793" stroke="#263238" stroke-width="0.708" stroke-miterlimit="10" stroke-linecap="round" stroke-linejoin="round"/>
<path d="M185.681 48.2632C186.36 48.789 187.346 49.9214 187.346 49.9214C187.467 49.8486 187.58 49.7758 187.702 49.703C189.286 48.7 189.69 47.705 189.657 46.9123C189.641 46.4755 189.48 46.1034 189.318 45.8202C189.132 45.4886 188.922 45.2944 188.922 45.2944C188.397 46.3298 186.99 47.3814 186.214 47.9153C185.891 48.1418 185.681 48.2632 185.681 48.2632Z" fill="#263238"/>
<path d="M186.214 47.9153L186.716 48.3926C188.211 47.4381 189.132 46.5725 189.31 45.8202C189.124 45.4886 188.914 45.2944 188.914 45.2944C188.397 46.3298 186.99 47.3814 186.214 47.9153Z" fill="white"/>
<path d="M187.702 49.7112C189.286 48.7081 189.69 47.7131 189.657 46.9204C189.132 47.2844 188.534 47.7779 188.114 48.3845C187.79 48.8456 187.702 49.3067 187.702 49.7112Z" fill="#DE5753"/>
<path d="M195.84 42.682C195.84 42.682 192.082 37.9174 191.92 33.8162C191.92 33.8162 178.561 30.5887 179.886 43.4585C179.886 43.4585 176.936 32.3036 187.807 30.3864C198.661 28.4774 201.061 44.4535 196.147 50.0674C196.139 50.0674 198.176 45.6588 195.84 42.682Z" fill="#263238"/>
<path d="M195.008 44.1781C194.895 43.1508 195.687 41.2579 197.618 41.177C199.615 41.0961 201.166 44.987 196.422 46.71C195.743 46.9527 195.242 46.3217 195.008 44.1781Z" fill="#E4897B"/>
<path d="M193.658 29.0354C193.658 29.0354 189.779 26.8109 186.707 27.3124C183.636 27.8139 182.828 29.7472 182.828 29.7472C182.828 29.7472 181.195 28.728 179.054 29.7472C176.92 30.7665 174.584 34.8839 174.883 40.1499C175.19 45.416 179.506 46.0227 179.506 46.0227C179.506 46.0227 176.306 37.3592 183.418 34.5684C183.418 34.5684 185.988 32.902 187.75 34.9324C189.52 36.9709 189.326 43.1187 195.266 40.9022C201.223 38.702 197.465 31.3974 193.658 29.0354Z" fill="#263238"/>
<path d="M197.069 40.9103L190.522 39.0013C190.522 39.0013 187.564 38.7101 184.711 39.9396C184.711 39.9396 183.798 39.883 183.321 40.1499C183.321 40.1499 180.864 39.8749 178.86 40.7728V41.4038L179.159 41.7112C179.159 41.7112 179.409 44.3887 180.403 44.6718C180.921 44.8174 182.004 44.688 182.537 44.1298C183.418 43.2076 183.693 41.1934 183.693 41.1934C183.693 41.1934 183.854 40.789 184.671 41.153C184.671 41.153 184.978 44.0894 187.508 43.9599C190.708 43.7982 190.272 40.3603 190.272 40.3603L190.749 40.1419L196.503 41.1934L197.069 40.9103Z" fill="#263238"/>
<path d="M192.09 127.691C192.09 127.691 200.059 112.888 212.15 115.331C212.15 115.331 212.15 103.933 205.636 93.5386L179.539 93.3525C179.539 93.3525 176.201 105.559 176.289 115.743L192.09 127.691Z" fill="#407BFF"/>
<path d="M147.452 82.4077C147.452 82.4077 144.001 77.8373 145.367 71.4307C146.741 65.0241 152.609 64.8704 156.803 69.4488C161.58 74.6664 158.177 81.9628 158.783 84.6727C159.341 87.1641 164.433 86.0802 165.249 85.8941C175.885 83.4027 190.062 84.6888 204.327 90.2623C229.575 100.131 245.546 119.666 239.993 133.903C237.65 139.914 231.838 144.023 224.007 146.013C215.884 148.076 217.387 140.278 219.861 133.936C222.98 125.944 212.352 114.319 196.107 107.978C179.87 101.636 164.182 102.97 161.063 110.962C159.373 115.306 157.862 125.377 154.686 121.462C149.893 115.541 147.274 109.328 147.452 103.601C142.409 96.2968 147.452 82.4077 147.452 82.4077Z" fill="#407BFF"/>
<path opacity="0.4" d="M147.46 103.585C147.283 109.32 149.901 115.533 154.694 121.454C157.87 125.377 159.382 115.306 161.079 110.954C164.19 102.962 179.878 101.628 196.123 107.969C212.368 114.311 222.997 125.927 219.869 133.92C217.404 140.27 215.892 148.067 224.015 146.005C231.847 144.015 237.658 139.914 240.001 133.903C245.554 119.658 229.583 100.131 204.327 90.2623C190.07 84.6888 175.893 83.4027 165.257 85.8941C164.449 86.0883 159.349 87.1722 158.792 84.6727C158.185 81.9628 161.588 74.6744 156.811 69.4488C152.617 64.8704 146.749 65.0241 145.383 71.4307C144.632 74.9171 145.319 77.8616 146.094 79.8192C146.749 81.4613 147.468 82.4077 147.468 82.4077C147.468 82.4077 142.401 96.2968 147.46 103.585Z" fill="white"/>
<path d="M148.705 68.3327C148.705 68.3327 143.435 67.0222 142.183 66.2699C140.93 65.5095 141.035 71.8514 145.86 74.1649C145.86 74.1649 146.668 73.1053 149.303 73.7605C151.938 74.4076 151.404 69.5299 148.705 68.3327Z" fill="#407BFF"/>
<path opacity="0.2" d="M147.46 103.585C155.13 106.529 159.503 97.8337 159.503 97.8337C159.503 97.8337 156.084 103.019 151.025 99.9692C145.618 96.7173 148.115 83.1842 148.115 83.1842C148.115 83.1842 149.634 84.082 151.671 82.4157C153.498 80.9192 149.238 78.9697 146.086 79.8271C146.741 81.4692 147.46 82.4157 147.46 82.4157C147.46 82.4157 142.401 96.2967 147.46 103.585Z" fill="black"/>
<path d="M153.651 70.2257C153.684 70.6868 153.983 71.0427 154.322 71.0265C154.662 71.0023 154.92 70.614 154.888 70.1529C154.856 69.6918 154.556 69.3359 154.217 69.3521C153.878 69.3683 153.627 69.7566 153.651 70.2257Z" fill="#263238"/>
<path d="M250.225 184.857C249.668 184.93 250.88 191.749 250.88 191.749C250.88 191.749 255.649 195.486 257.071 199.482C258.493 203.479 260.7 200.906 260.183 196.32C259.665 191.733 259.269 188.239 258.906 184.979C258.534 181.719 255.996 184.073 250.225 184.857Z" fill="#263238"/>
<path d="M251.85 192.412C251.834 192.388 251.818 192.372 251.801 192.364C251.785 192.356 251.769 192.348 251.745 192.34C251.729 192.332 251.704 192.332 251.688 192.332C251.664 192.332 251.64 192.34 251.616 192.348C251.535 192.388 250.015 193.14 249.732 194.111C249.643 194.419 249.684 194.718 249.854 194.993C250.039 195.292 250.25 195.422 250.484 195.381C250.84 195.316 251.147 194.791 251.381 194.2C251.389 194.783 251.47 195.381 251.721 195.721C251.85 195.899 252.02 196.004 252.23 196.036C252.65 196.093 252.844 195.931 252.941 195.786C253.038 195.632 253.062 195.414 253.038 195.163C252.933 194.2 252.06 192.752 251.85 192.412ZM251.801 193.051C252.343 194.014 252.86 195.227 252.634 195.583C252.618 195.616 252.553 195.705 252.278 195.672C252.173 195.656 252.092 195.6 252.02 195.502C251.89 195.325 251.818 195.041 251.777 194.71C251.721 194.176 251.753 193.537 251.801 193.051ZM250.08 194.208C250.242 193.642 250.977 193.132 251.422 192.865C251.147 193.925 250.726 194.969 250.419 195.017C250.322 195.033 250.217 194.888 250.161 194.799C250.096 194.702 250.064 194.596 250.048 194.491C250.048 194.402 250.056 194.305 250.08 194.208Z" fill="#407BFF"/>
<path d="M169.5 223.006C169.711 222.48 163.188 220.183 163.188 220.183C163.188 220.183 157.587 222.488 153.417 221.768C149.247 221.04 150.394 224.227 154.629 226.031C158.864 227.843 162.105 229.218 165.112 230.504C168.127 231.782 167.343 228.417 169.5 223.006Z" fill="#263238"/>
<path d="M162.13 220.692C162.154 220.692 162.178 220.684 162.202 220.676C162.218 220.668 162.235 220.66 162.251 220.644C162.267 220.627 162.275 220.611 162.283 220.595C162.291 220.571 162.299 220.547 162.299 220.522C162.307 220.433 162.396 218.735 161.693 218.015C161.467 217.788 161.192 217.675 160.861 217.683C160.513 217.699 160.295 217.821 160.214 218.039C160.093 218.379 160.4 218.913 160.796 219.406C160.279 219.123 159.729 218.904 159.309 218.953C159.083 218.977 158.913 219.074 158.783 219.236C158.525 219.568 158.565 219.827 158.646 219.98C158.735 220.142 158.913 220.272 159.139 220.369C160.044 220.757 161.725 220.708 162.13 220.692ZM161.596 220.344C160.489 220.344 159.18 220.199 158.986 219.819C158.969 219.786 158.921 219.689 159.083 219.463C159.147 219.382 159.236 219.333 159.357 219.317C159.576 219.293 159.858 219.366 160.166 219.495C160.659 219.705 161.192 220.053 161.596 220.344ZM161.434 218.274C161.847 218.694 161.927 219.584 161.944 220.102C161.16 219.341 160.456 218.46 160.562 218.168C160.594 218.079 160.772 218.055 160.877 218.055C160.998 218.047 161.103 218.071 161.2 218.112C161.289 218.144 161.362 218.201 161.434 218.274Z" fill="#407BFF"/>
<path d="M194.111 62.5249C194.111 62.5249 194.119 74.4402 204.052 81.6315C213.985 88.8228 227.401 88.8309 230.141 94.6308C230.141 94.6308 230.295 87.0593 228.161 80.6204C226.027 74.1814 210.008 68.6727 210.008 68.6727L208.626 61.4652C208.626 61.4571 199.542 57.5905 194.111 62.5249Z" fill="#407BFF"/>
<path d="M186.214 61.3035C186.214 61.3035 180.193 75.9449 176.128 78.493C172.054 81.0411 169.161 80.6124 169.161 80.6124C169.161 80.6124 171.731 69.1257 177.461 63.1802C177.453 63.1883 183.757 59.4268 186.214 61.3035Z" fill="#407BFF"/>
<path opacity="0.7" d="M194.103 62.5248C194.103 62.5248 194.119 74.4482 204.044 81.6314C213.977 88.8227 227.393 88.8389 230.133 94.6226C230.133 94.6226 230.287 87.0511 228.153 80.6122C227.587 78.9053 226.06 77.2632 224.096 75.7748C221.76 74.0033 218.818 72.4259 216.232 71.2206C212.813 69.6352 210 68.6564 210 68.6564L208.61 61.4489C208.626 61.457 199.55 57.5985 194.103 62.5248Z" fill="white"/>
<path opacity="0.7" d="M186.214 61.3035C186.214 61.3035 180.193 75.9449 176.128 78.493C172.054 81.0411 169.161 80.6124 169.161 80.6124C169.161 80.6124 171.731 69.1257 177.461 63.1802C177.453 63.1883 183.757 59.4268 186.214 61.3035Z" fill="white"/>
<path d="M198.378 58.3911L194.111 62.5247L198.378 67.5157L201.07 59.7825L198.378 58.3911Z" fill="#407BFF"/>
<path opacity="0.5" d="M198.378 58.3911L194.111 62.5247L198.378 67.5157L201.07 59.7825L198.378 58.3911Z" fill="white"/>
<path d="M186.627 58.8604L183.434 60.1951L180.088 64.6603L186.214 61.3033L186.627 58.8604Z" fill="#407BFF"/>
<path opacity="0.5" d="M186.627 58.8604L183.434 60.1951L180.088 64.6603L186.214 61.3033L186.627 58.8604Z" fill="white"/>
<path opacity="0.2" d="M211.302 73.1864C211.302 73.1864 217.331 78.6466 224.104 75.7749C221.768 74.0034 218.826 72.426 216.24 71.2207C213.775 71.5685 211.754 72.2238 211.302 73.1864Z" fill="black"/>
<path d="M207.139 60.9312C207.139 60.9312 207.139 67.5077 211.302 73.1863L222.689 73.526L222.641 62.9534L207.139 60.9312Z" fill="#407BFF"/>
<path opacity="0.5" d="M207.139 60.9312C207.139 60.9312 207.139 67.5077 211.302 73.1863L222.689 73.526L222.641 62.9534L207.139 60.9312Z" fill="white"/>
<path d="M278.465 16.3433C278.465 16.3433 279.434 22.2322 272.645 26.6893C265.856 31.1464 258.008 27.1019 256.715 23.5912L278.465 16.3433Z" fill="#407BFF"/>
<path opacity="0.2" d="M278.465 16.3433C278.465 16.3433 279.434 22.2322 272.645 26.6893C265.856 31.1464 258.008 27.1019 256.715 23.5912L278.465 16.3433Z" fill="black"/>
<path d="M280.574 5.01855C273.179 5.01855 264.911 7.31588 258.114 10.2523C253.28 12.3393 248.722 15.2999 245.239 19.2798C241.982 23.0008 238.854 29.4236 241.585 34.269C244.374 39.2277 252.092 34.447 255.164 32.3923C266.543 24.8128 278.739 20.5417 293.069 16.8773C295.17 16.3434 300.076 15.0977 299.624 12.0319C299.195 9.17639 294.58 7.63136 292.334 6.87907C288.503 5.59289 284.542 5.01855 280.574 5.01855Z" fill="#407BFF"/>
<path opacity="0.2" d="M278.465 11.3848C280.606 8.35131 269.598 6.80628 261.977 11.3848C254.355 15.9632 253.515 18.8591 255.422 20.0806C256.756 20.9381 272.54 19.7813 278.465 11.3848Z" fill="black"/>
</svg>
