<svg width="380" height="240" viewBox="0 0 380 240" fill="none" xmlns="http://www.w3.org/2000/svg">
<path d="M194.004 62.1078C191.47 61.8409 191.727 58.7374 192.036 56.3614C192.162 55.5135 192.357 54.6709 192.619 53.8493L188.2 50.1701L184.201 46.7944C184.448 48.2755 184.621 49.7723 184.71 51.2796C184.931 53.8807 184.637 55.9531 184.296 58.4548C183.981 59.5695 183.304 60.4331 182.758 61.1344C182.758 61.1344 187.298 64.5571 190.415 64.4734C193.532 64.3844 194.004 62.1078 194.004 62.1078Z" fill="#FDBBB5"/>
<path opacity="0.2" d="M184.642 53.2632C184.642 53.2632 187.266 59.5434 191.963 57.0941L192.031 56.0003L184.642 53.2632Z" fill="black"/>
<path d="M182.286 39.1012C183.776 34.7574 188.662 32.2714 193.191 33.5589C199.436 35.3383 200.827 44.0417 199.803 49.4689C198.664 55.5136 191.129 58.9364 186.117 54.8176C182.774 52.0752 182.659 48.5896 181.919 42.7176C181.761 41.5034 181.882 40.2683 182.286 39.1012Z" fill="#FDBBB5"/>
<path d="M196.655 30.1361C193.962 27.1478 185.146 30.9996 185.146 30.9996C185.146 30.9996 183.036 29.2098 179.683 32.24C176.991 34.6684 179.101 38.829 179.347 40.9643C180.329 43.0211 180.213 45.8054 183.346 46.8154C184.884 45.0727 184.994 42.4402 184.836 40.6189C185.298 40.4881 185.734 40.2526 186.085 39.9124C187.46 38.5988 186.773 35.354 186.773 35.354C187.744 34.7626 190.63 34.8515 192.671 36.1076C194.33 37.1229 197.342 40.4305 199.971 39.4571C204.127 37.9184 202.107 34.951 202.107 34.951C202.06 34.7521 200.853 33.4228 199.625 33.7839C199.625 33.7839 199.473 32.465 198.895 31.4236C198.166 30.1047 196.655 30.1361 196.655 30.1361Z" fill="#263238"/>
<path d="M190.997 43.885C191.066 44.5549 191.58 45.0207 192.047 44.9318C192.514 44.8428 192.782 44.2305 192.671 43.5658C192.561 42.9011 192.078 42.4301 191.622 42.5191C191.165 42.6028 190.882 43.2099 190.997 43.885Z" fill="#263238"/>
<path d="M196.896 43.5447C196.964 44.2146 197.489 44.6804 197.946 44.5914C198.402 44.5025 198.68 43.8901 198.57 43.2255C198.46 42.5608 197.977 42.0898 197.52 42.1788C197.064 42.2625 196.786 42.9115 196.896 43.5447Z" fill="#263238"/>
<path d="M199.263 40.593C199.163 40.661 199.032 40.6767 198.922 40.6296C198.182 40.2842 197.311 40.2947 196.56 40.6558C196.408 40.7447 196.208 40.7029 196.114 40.5616C196.02 40.4203 196.072 40.2266 196.224 40.1377C197.158 39.6614 198.266 39.6352 199.2 40.0696C199.362 40.1377 199.436 40.3156 199.362 40.4726C199.362 40.4726 199.362 40.4778 199.357 40.4778C199.341 40.5197 199.305 40.5563 199.263 40.593Z" fill="#263238"/>
<path d="M190.368 41.3727C190.305 41.357 190.247 41.3204 190.205 41.2733C190.121 41.1215 190.179 40.9383 190.341 40.8598C190.341 40.8598 190.347 40.8598 190.347 40.8546C191.276 40.394 192.388 40.3888 193.338 40.8441C193.495 40.9278 193.548 41.1162 193.459 41.2628C193.364 41.4041 193.17 41.4512 193.013 41.3727C192.257 41.0325 191.375 41.0482 190.646 41.4146C190.551 41.4407 190.452 41.425 190.368 41.3727Z" fill="#263238"/>
<path d="M178.67 47.7993C179.342 49.2804 180.617 50.4318 182.207 51.0023C184.322 51.7402 185.618 49.9556 185.241 47.9459C184.884 46.1665 183.367 43.5811 181.137 43.7276C178.906 43.8794 177.867 45.9676 178.67 47.7993Z" fill="#FDBBB5"/>
<path opacity="0.1" d="M183.698 48.3487C183.572 47.2549 182.916 46.2395 181.945 45.6586C181.53 45.4126 180.964 45.2504 180.565 45.5435" stroke="black" stroke-width="0.5" stroke-miterlimit="10"/>
<path d="M195.274 42.8433C196.208 44.3034 197.352 45.6275 198.675 46.7789C198.003 47.4383 197.069 47.789 196.124 47.7366L195.274 42.8433Z" fill="#D7504D"/>
<path d="M193.543 49.9816C192.325 49.767 191.239 49.0867 190.488 48.1132C190.425 48.0295 190.478 47.8934 190.557 47.8463C190.656 47.7835 190.761 47.8306 190.824 47.9143C191.512 48.804 192.535 49.4059 193.642 49.5995C193.894 49.6467 193.789 50.0287 193.543 49.9816Z" fill="#263238"/>
<path d="M202.191 219.046L209.911 218.214L208.215 230.77L203.398 231.691L202.191 219.046Z" fill="#263238"/>
<path d="M209.328 228.608L207.497 228.571C207.082 228.561 206.688 228.755 206.426 229.069C205.298 230.419 204.531 229.885 203.45 228.577C202.726 228.482 202.485 229.273 202.411 229.487L200.79 234.197C200.648 234.59 200.869 235.009 201.278 235.129C201.351 235.15 201.425 235.16 201.503 235.16C203.729 235.202 204.783 235.223 207.549 235.276L216.019 235.438C218.328 235.48 218.926 233.276 217.987 233.057C213.757 232.078 210.792 230.822 209.533 229.613C209.297 229.409 209.559 229.257 209.328 228.608Z" fill="#263238"/>
<path d="M211.973 230.278C211.396 230.252 210.824 230.173 210.267 230.032C210.215 230.011 210.189 229.959 210.215 229.906C210.225 229.88 210.252 229.859 210.278 229.849C210.54 229.734 212.886 228.76 213.442 229.158C213.547 229.226 213.6 229.346 213.573 229.467C213.558 229.692 213.432 229.901 213.232 230.032C212.844 230.241 212.403 230.325 211.973 230.278ZM210.629 229.912C211.301 230.042 212.545 230.226 213.085 229.87C213.227 229.77 213.316 229.624 213.337 229.456C213.353 229.404 213.332 229.352 213.285 229.325C212.98 229.106 211.606 229.53 210.629 229.912Z" fill="#407BFF"/>
<path d="M210.288 230.037C210.262 230.042 210.241 230.042 210.215 230.037C210.183 230.011 210.178 229.969 210.189 229.932C210.194 229.843 210.845 227.708 212.094 227.87C212.403 227.917 212.487 228.059 212.492 228.179C212.54 228.749 211.039 229.796 210.341 230.058L210.288 230.037ZM211.968 228.038C211.17 228.022 210.645 229.262 210.462 229.765C211.228 229.404 212.325 228.53 212.277 228.184C212.277 228.158 212.283 228.074 212.052 228.048L211.968 228.038Z" fill="#407BFF"/>
<path d="M210.525 229.979C209.89 230.048 209.286 230.398 208.919 230.901" stroke="#407BFF" stroke-width="0.5" stroke-miterlimit="10" stroke-linecap="round" stroke-linejoin="round"/>
<path d="M211.621 230.817C210.986 230.885 210.383 231.236 210.015 231.738" stroke="#407BFF" stroke-width="0.5" stroke-miterlimit="10" stroke-linecap="round" stroke-linejoin="round"/>
<path d="M213.001 231.528C212.367 231.596 211.763 231.947 211.396 232.449" stroke="#407BFF" stroke-width="0.5" stroke-miterlimit="10" stroke-linecap="round" stroke-linejoin="round"/>
<path d="M201.036 227.499L202.92 181.402L192.54 137.722L193.994 110.272L209.958 111.146C209.958 111.146 215.94 146.64 217.698 178.9C218.438 192.455 212.141 227.462 212.141 227.462L201.036 227.499Z" fill="#263238"/>
<path d="M196.376 112.088C196.376 112.088 192.745 170.432 192.199 183.919C191.601 198.698 188.589 228.776 188.589 228.776L178.707 228.106C178.707 228.106 177.589 189.66 176.792 175.195C175.994 160.729 173.701 134.174 173.968 128.03C174.236 121.88 177.537 107.111 177.537 107.111L196.376 112.088Z" fill="#263238"/>
<path opacity="0.3" d="M194.44 144.919C194.44 144.919 194.729 135.168 194.734 135.09C194.739 135.011 198.57 130.364 198.654 130.333C198.738 130.301 196.287 136.984 196.324 136.984C196.361 136.984 196.009 152.214 196.009 152.214L194.44 144.919Z" fill="black"/>
<path d="M180.035 220.234L187.56 219.784L185.377 232.005L180.496 233.004L180.035 220.234Z" fill="#263238"/>
<path d="M186.474 229.796L184.611 229.786C184.191 229.786 183.792 229.985 183.53 230.304C182.401 231.691 181.614 231.162 180.502 229.843C179.762 229.759 179.531 230.565 179.463 230.785L177.883 235.59C177.747 235.993 177.972 236.411 178.392 236.526C178.466 236.547 178.544 236.558 178.623 236.558C180.885 236.568 181.95 236.574 184.763 236.589L193.364 236.636C195.71 236.647 196.282 234.402 195.327 234.192C191.018 233.255 187.99 232.026 186.699 230.817C186.453 230.607 186.715 230.45 186.474 229.796Z" fill="#263238"/>
<path d="M189.182 231.45C188.594 231.434 188.011 231.361 187.445 231.225C187.392 231.204 187.366 231.151 187.387 231.099C187.397 231.073 187.424 231.052 187.45 231.041C187.717 230.921 190.084 229.9 190.651 230.293C190.756 230.361 190.814 230.481 190.793 230.607C190.782 230.837 190.656 231.052 190.457 231.183C190.069 231.402 189.622 231.491 189.182 231.45ZM187.817 231.099C188.499 231.225 189.769 231.392 190.31 231.02C190.452 230.921 190.541 230.764 190.557 230.602C190.567 230.549 190.546 230.497 190.499 230.471C190.189 230.251 188.799 230.696 187.817 231.099Z" fill="#407BFF"/>
<path d="M187.471 231.235C187.445 231.24 187.424 231.24 187.397 231.235C187.366 231.209 187.355 231.167 187.371 231.13C187.376 231.036 188.006 228.864 189.276 229.006C189.591 229.047 189.675 229.194 189.685 229.314C189.743 229.89 188.237 230.979 187.523 231.251L187.471 231.235ZM189.145 229.178C188.337 229.173 187.817 230.445 187.644 230.953C188.421 230.576 189.518 229.676 189.465 229.32C189.465 229.288 189.47 229.21 189.234 229.184L189.145 229.178Z" fill="#407BFF"/>
<path d="M187.707 231.167C187.062 231.245 186.453 231.607 186.091 232.125" stroke="#407BFF" stroke-width="0.5" stroke-miterlimit="10" stroke-linecap="round" stroke-linejoin="round"/>
<path d="M188.835 232.004C188.19 232.083 187.581 232.444 187.219 232.962" stroke="#407BFF" stroke-width="0.5" stroke-miterlimit="10" stroke-linecap="round" stroke-linejoin="round"/>
<path d="M190.247 232.706C189.601 232.785 188.993 233.146 188.631 233.664" stroke="#407BFF" stroke-width="0.5" stroke-miterlimit="10" stroke-linecap="round" stroke-linejoin="round"/>
<path d="M195.573 61.6733C195.337 61.4535 192.063 58.6117 192.063 58.6117L189.276 61.6733L183.887 57.9575L181.236 60.2184L195.017 86.9514L197.174 83.963L195.573 61.6733Z" fill="#407BFF"/>
<path opacity="0.8" d="M195.573 61.6733C195.337 61.4535 192.063 58.6117 192.063 58.6117L189.276 61.6733L183.887 57.9575L181.236 60.2184L195.017 86.9514L197.174 83.963L195.573 61.6733Z" fill="white"/>
<path d="M189.628 62.7671C189.832 62.8875 191.638 64.2796 191.638 64.2796L191.181 66.6923L189.386 67.022L187.455 64.1121L189.628 62.7671Z" fill="#407BFF"/>
<path d="M191.181 66.6973L195.038 76.9236L194.849 86.9511L189.801 76.4526L189.381 67.027L191.181 66.6973Z" fill="#407BFF"/>
<path opacity="0.5" d="M191.181 66.6973L195.038 76.9236L194.849 86.9511L189.801 76.4526L189.381 67.027L191.181 66.6973Z" fill="black"/>
<path opacity="0.5" d="M189.628 62.7671C189.832 62.8875 191.638 64.2796 191.638 64.2796L191.181 66.6923L189.386 67.022L187.455 64.1121L189.628 62.7671Z" fill="black"/>
<path d="M197.316 117.348H193.836L194.849 113.747L195.427 111.497L196.14 113.747L197.316 117.348Z" fill="black"/>
<path d="M194.398 60.2183L197.961 62.2227C197.961 62.2227 207.224 64.0021 207.659 65.0488C207.911 65.6454 207.759 87.7781 207.759 87.7781C207.759 87.7781 209.039 103.437 209.102 104.682C209.255 107.598 216.171 129.097 215.552 130.17C214.933 131.243 205.229 136.911 203.067 135.377C200.905 133.844 195.794 117.41 195.794 117.41L194.849 86.6215L194.398 60.2183Z" fill="#407BFF"/>
<path opacity="0.3" d="M201.005 71.842C200.506 72.627 199.294 73.7731 199.294 73.7731C199.294 73.7731 201.336 75.2385 201.462 76.1963C201.587 77.154 196.334 95.0528 195.799 94.6707C195.615 94.5399 195.306 92.8547 194.98 90.7037L194.855 86.6215L194.398 60.2183L197.961 62.2227C197.961 62.2175 201.504 71.0569 201.005 71.842Z" fill="black"/>
<path d="M188.19 135.236C188.19 135.236 190.73 135.639 192.54 129.102C194.351 122.55 195.799 117.405 195.799 117.405L195.022 86.9461L182.527 58.5122L178.455 61.0243L172.861 62.5787L178.455 96.6177C178.455 96.6177 170.331 130.128 170.505 130.583C170.667 131.033 188.19 135.236 188.19 135.236Z" fill="#407BFF"/>
<path opacity="0.3" d="M195.022 86.9514L195.091 89.5892L194.844 90.348C194.844 90.348 181.578 74.3595 181.242 72.9883C180.906 71.6119 182.228 71.3398 182.228 71.3398C182.228 71.3398 180.077 70.1465 179.804 69.1417C179.526 68.1316 178.455 61.0297 178.455 61.0297L182.527 58.5176L195.022 86.9514Z" fill="black"/>
<g opacity="0.3">
<path d="M195.6 117.405C195.804 106.959 195.736 96.4867 194.645 86.0825C194.618 85.8312 195.012 85.8312 195.038 86.0825C196.13 96.4867 196.198 106.954 195.993 117.405C195.988 117.662 195.594 117.662 195.6 117.405Z" fill="black"/>
</g>
<path opacity="0.3" d="M187.287 112.69L177.122 110.701L175.448 113.716L185.807 115.893L187.287 112.69Z" fill="black"/>
<path opacity="0.3" d="M202.417 112.135L210.483 110.555L211.38 113.768L203.897 115.343L202.417 112.135Z" fill="black"/>
<path d="M208.268 94.9853C208.142 94.4985 205.885 83.0632 205.885 83.0632L203.713 80.5459L188.226 85.6486L194.115 108.901C194.115 108.901 196.313 111.33 197.447 111.12C198.58 110.911 209.533 107.169 209.879 106.677C210.225 106.19 208.268 94.9853 208.268 94.9853Z" fill="#263238"/>
<path d="M204.878 83.1263L203.335 81.2788C203.335 81.2788 188.94 85.9628 189.008 86.2245C189.077 86.4862 194.534 108.959 194.534 108.959L197.19 110.759L191.774 87.8155L204.878 83.1263Z" fill="white"/>
<path d="M207.428 65.0439C207.428 65.0439 209.134 65.5464 210.068 68.3515C212.351 75.1761 217.704 91.0494 218.213 94.7286C218.869 99.4231 220.175 104.248 216.643 106.075C213.112 107.901 203.697 110.508 203.697 110.508L200.832 101.407L208.667 97.2093C208.667 97.2093 207.622 96.037 209.323 95.3828L207.071 87.543L207.428 65.0439Z" fill="#407BFF"/>
<g opacity="0.3">
<path d="M210.042 108.917C207.948 109.508 205.849 110.105 203.755 110.696C203.65 110.728 203.545 110.66 203.513 110.56C202.679 107.912 201.845 105.264 201.01 102.616C200.89 102.228 200.769 101.846 200.648 101.459C200.575 101.218 200.953 101.114 201.026 101.354C201.86 104.002 202.695 106.651 203.529 109.299C203.65 109.686 203.771 110.068 203.891 110.455C203.813 110.408 203.729 110.366 203.65 110.319C205.744 109.728 207.843 109.131 209.937 108.54C210.183 108.467 210.288 108.849 210.042 108.917Z" fill="black"/>
</g>
<path d="M203.015 103.542C203.015 103.542 201.965 103.385 200.842 102.642C199.725 101.899 198.497 101.26 197.484 101.098C196.471 100.941 193.165 100.192 193.165 100.192C193.165 100.192 192.472 101.469 193.642 101.919C194.813 102.37 196.308 102.636 196.786 103.17C197.263 103.704 196.891 104.552 195.4 104.447C193.91 104.343 192.682 103.652 192.094 103.971C191.506 104.29 191.617 106.525 192.094 107.32L192.414 107.854C192.414 107.854 192.257 108.707 192.734 109.079C193.212 109.451 193.212 109.451 193.212 109.451C193.212 109.451 192.519 110.22 193.369 110.738C194.225 111.256 196.303 112.214 197.368 111.999C198.434 111.785 201.808 109.445 202.815 109.288C203.818 109.131 204.138 107.216 203.928 105.672C203.723 104.133 203.015 103.542 203.015 103.542Z" fill="#FDBBB5"/>
<g opacity="0.3">
<path d="M207.486 91.1438C207.176 84.6961 206.998 78.2431 206.809 71.7954C206.793 71.1726 206.772 70.5498 206.757 69.9218C206.751 69.6706 207.145 69.6706 207.15 69.9218C207.297 75.2548 207.465 80.5878 207.664 85.9155C207.727 87.6583 207.796 89.4011 207.88 91.1438C207.89 91.3951 207.497 91.3951 207.486 91.1438Z" fill="black"/>
</g>
<path opacity="0.3" d="M176.408 104.128L176.839 125.282L171.381 125.345L171.071 126.69L177.579 126.323L177.064 101.406L176.408 104.128Z" fill="black"/>
<path opacity="0.3" d="M178.219 79.8179L176.802 87.9927L178.219 96.6176C178.219 96.6176 179.032 82.1259 178.219 79.8179Z" fill="black"/>
<path d="M172.63 62.5788C172.63 62.5788 170.762 62.0764 169.319 66.4883C167.881 70.8949 166.364 100.035 166.511 104.662C166.689 110.277 169.13 125.345 169.13 125.345L176.839 125.282C176.839 125.282 176.183 97.7116 176.314 92.656C176.445 87.6004 178.796 78.2114 178.796 78.2114C178.796 78.2114 176.812 62.5788 172.63 62.5788Z" fill="#407BFF"/>
<path d="M176.377 73.0774C176.309 69.4348 175.249 65.965 172.971 63.0813C172.814 62.8824 173.092 62.6051 173.249 62.8039C175.595 65.7713 176.697 69.3197 176.765 73.0774C176.776 73.3286 176.382 73.3286 176.377 73.0774Z" fill="#263238"/>
<path d="M189.796 162.613C189.796 162.613 188.62 139.711 188.258 138.031C187.985 136.759 187.366 135.603 185.267 135.603C183.168 135.603 163.719 136.607 162.964 136.775C162.208 136.942 160.786 138.115 160.996 139.7C161.205 141.291 160.119 146.473 160.996 147.143C161.872 147.812 161.872 147.812 161.872 147.812C161.872 147.812 161.62 161.524 161.872 162.278C162.124 163.032 189.796 162.613 189.796 162.613Z" fill="#407BFF"/>
<path opacity="0.3" d="M189.796 162.613C189.796 162.613 188.62 139.711 188.258 138.031C187.985 136.759 187.366 135.603 185.267 135.603C183.168 135.603 163.719 136.607 162.964 136.775C162.208 136.942 160.786 138.115 160.996 139.7C161.205 141.291 160.119 146.473 160.996 147.143C161.872 147.812 161.872 147.812 161.872 147.812C161.872 147.812 161.62 161.524 161.872 162.278C162.124 163.032 189.796 162.613 189.796 162.613Z" fill="black"/>
<path opacity="0.3" d="M188.258 138.031C188.352 138.46 188.442 139.449 188.604 141.92L181.987 142.103L182.045 139.664C182.422 137.126 183.451 136.042 184.474 135.624C184.831 135.613 185.099 135.608 185.262 135.608C187.361 135.603 187.98 136.759 188.258 138.031Z" fill="black"/>
<path d="M184.59 135.938C182.806 136.524 182.291 138.481 182.207 140.151C182.118 141.899 182.171 143.662 182.155 145.415C182.15 145.986 182.176 146.614 181.919 147.143C181.641 147.708 181.116 147.964 180.544 148.158C179.216 148.608 177.852 148.995 176.487 149.346C174.44 149.869 172.142 150.403 170.038 149.937C168.626 149.623 167.219 149.278 165.813 148.948C164.48 148.634 163.147 148.325 161.814 148.011C161.568 147.954 161.673 147.577 161.919 147.634C164.538 148.247 167.162 148.864 169.78 149.477C171.738 149.937 173.737 149.597 175.668 149.147C177.038 148.828 178.387 148.42 179.736 148.006C180.549 147.755 181.446 147.582 181.682 146.63C181.892 145.771 181.766 144.772 181.772 143.898C181.787 141.218 181.179 136.66 184.485 135.571C184.726 135.477 184.831 135.854 184.59 135.938Z" fill="#263238"/>
<path d="M173.407 149.786C173.485 149.927 173.931 153.193 173.407 153.433C172.882 153.674 170.148 154.114 169.948 153.433C169.749 152.753 170.027 149.89 170.027 149.89C170.027 149.89 170.305 149.916 170.993 149.89C171.68 149.859 173.254 149.67 173.254 149.67" fill="#263238"/>
<path d="M175.186 131.892C177.699 131.845 180.161 133.488 181.068 135.828L178.933 135.917C178.151 134.786 176.655 133.97 175.28 133.991C173.905 134.012 172.331 135.106 171.586 136.262L169.166 136.382C169.98 134.006 172.672 131.939 175.186 131.892Z" fill="#407BFF"/>
<g opacity="0.3">
<path d="M175.186 131.892C177.699 131.845 180.161 133.488 181.068 135.828L178.933 135.917C178.151 134.786 176.655 133.97 175.28 133.991C173.905 134.012 172.331 135.106 171.586 136.262L169.166 136.382C169.98 134.006 172.672 131.939 175.186 131.892Z" fill="black"/>
</g>
<g opacity="0.3">
<path d="M181.541 162.734C181.378 157.526 181.703 152.324 181.541 147.117C181.536 146.865 181.929 146.865 181.934 147.117C182.097 152.319 181.772 157.526 181.934 162.734C181.945 162.985 181.551 162.985 181.541 162.734Z" fill="black"/>
</g>
<path opacity="0.3" d="M181.541 147.368C181.541 147.368 181.404 147.933 179.851 148.749C178.298 149.566 171.843 150.869 170.253 150.707C168.657 150.544 162.559 147.98 162.559 147.98C162.559 147.98 169.45 149.524 171.176 149.89C172.803 150.23 181.378 147.75 181.541 147.368Z" fill="black"/>
<path opacity="0.3" d="M181.032 135.76L178.896 135.864C178.786 135.713 178.639 135.55 178.487 135.383L180.717 135.09C180.853 135.336 180.964 135.561 181.032 135.76Z" fill="black"/>
<path opacity="0.3" d="M171.58 136.262L169.161 136.382C169.161 136.382 169.324 135.927 169.397 135.807L171.853 135.885L171.58 136.262Z" fill="black"/>
<path d="M175.653 125.136C175.941 125.167 176.025 126.345 176.025 126.345C176.025 126.345 178.166 129.04 178.324 129.657C178.476 130.275 179.793 132.436 179.331 132.782C178.87 133.127 177.909 133.054 177.385 132.358C176.86 131.662 175.543 129.359 174.887 129.49C174.231 129.621 174.603 132.206 175.249 133.206C175.894 134.211 177.537 134.451 177.537 134.451C177.537 134.451 176.241 135.357 174.545 135.022C174.545 135.022 173.884 136 172.53 135.55C171.176 135.1 170.636 134.446 170.211 133.556C169.786 132.667 170.4 125.329 170.4 125.329C170.4 125.329 171.99 124.727 175.653 125.136Z" fill="#FDBBB5"/>
</svg>
