<svg xmlns="http://www.w3.org/2000/svg" width="156" height="46" viewBox="0 0 156 46" fill="none">
  <g clip-path="url(#clip0_19240_33808)">
    <path d="M150.477 46H6.18835C3.1903 46 0.75 43.5528 0.75 40.557V5.4349C0.75 2.438 3.1903 0 6.18835 0H150.477C153.473 0 156 2.438 156 5.4349V40.557C156 43.5528 153.473 46 150.477 46Z" fill="white"/>
    <path d="M154.886 40.5581C154.886 42.9915 152.915 44.9626 150.477 44.9626H6.1878C3.75095 44.9626 1.77295 42.9915 1.77295 40.5581V5.43369C1.77295 3.00144 3.75095 1.02344 6.1878 1.02344H150.476C152.915 1.02344 154.885 3.00144 154.885 5.43369L154.886 40.5581Z" fill="#212529"/>
    <path d="M35.397 22.7516C35.3636 19.0452 38.4318 17.242 38.5721 17.158C36.8345 14.6246 34.1412 14.2784 33.1947 14.2508C30.9327 14.0128 28.7385 15.6044 27.5862 15.6044C26.4109 15.6044 24.6364 14.2738 22.724 14.3129C20.263 14.3509 17.9607 15.7757 16.698 17.9883C14.0921 22.4998 16.0356 29.1295 18.5322 32.7762C19.7811 34.5621 21.2405 36.5562 23.1506 36.4861C25.0194 36.409 25.7174 35.2947 27.9726 35.2947C30.207 35.2947 30.8625 36.4861 32.8106 36.4412C34.8162 36.409 36.0789 34.6472 37.2841 32.8452C38.7274 30.7982 39.307 28.7822 39.33 28.6787C39.2828 28.6626 35.4349 27.1941 35.397 22.7516Z" fill="white"/>
    <path d="M31.7171 11.852C32.7222 10.5951 33.4099 8.88501 33.219 7.14966C31.7642 7.21406 29.9449 8.15591 28.8973 9.38526C27.9704 10.4686 27.1424 12.2442 27.3563 13.914C28.9904 14.0359 30.6683 13.0894 31.7171 11.852Z" fill="white"/>
    <path d="M62.4417 36.2297H59.8301L58.3995 31.7344H53.4269L52.0641 36.2297H49.5215L54.4481 20.9255H57.491L62.4417 36.2297ZM57.9682 29.8484L56.6745 25.8521C56.5376 25.4439 56.2812 24.4825 55.9028 22.9691H55.8568C55.7062 23.62 55.4635 24.5814 55.13 25.8521L53.8593 29.8484H57.9682Z" fill="white"/>
    <path d="M75.111 30.5763C75.111 32.4531 74.6039 33.9366 73.5896 35.0257C72.6811 35.9951 71.5529 36.4793 70.2063 36.4793C68.7527 36.4793 67.7085 35.9572 67.0725 34.913H67.0265V40.7262H64.5747V28.8272C64.5747 27.6473 64.5437 26.4363 64.4839 25.1943H66.6401L66.777 26.9435H66.823C67.6406 25.6256 68.8815 24.9678 70.5467 24.9678C71.8485 24.9678 72.9352 25.4818 73.8046 26.5111C74.6763 27.5415 75.111 28.8962 75.111 30.5763ZM72.6132 30.666C72.6132 29.5919 72.3717 28.7064 71.8864 28.0095C71.3563 27.2827 70.6444 26.9193 69.752 26.9193C69.1471 26.9193 68.5974 27.1217 68.1064 27.5208C67.6142 27.9233 67.2922 28.4488 67.1415 29.0997C67.0656 29.4033 67.0277 29.6517 67.0277 29.8472V31.6872C67.0277 32.4899 67.2738 33.1673 67.766 33.7204C68.2582 34.2736 68.8976 34.5496 69.6842 34.5496C70.6076 34.5496 71.3264 34.1931 71.8404 33.4824C72.3556 32.7705 72.6132 31.8321 72.6132 30.666Z" fill="white"/>
    <path d="M87.8037 30.5763C87.8037 32.4531 87.2966 33.9366 86.2811 35.0257C85.3738 35.9951 84.2456 36.4793 82.899 36.4793C81.4454 36.4793 80.4012 35.9572 79.7664 34.913H79.7204V40.7262H77.2686V28.8272C77.2686 27.6473 77.2375 26.4363 77.1777 25.1943H79.334L79.4708 26.9435H79.5168C80.3333 25.6256 81.5742 24.9678 83.2405 24.9678C84.5412 24.9678 85.6279 25.4818 86.4996 26.5111C87.3679 27.5415 87.8037 28.8962 87.8037 30.5763ZM85.3059 30.666C85.3059 29.5919 85.0633 28.7064 84.578 28.0095C84.0478 27.2827 83.3383 26.9193 82.4447 26.9193C81.8387 26.9193 81.2901 27.1217 80.7979 27.5208C80.3057 27.9233 79.9849 28.4488 79.8342 29.0997C79.7595 29.4033 79.7204 29.6517 79.7204 29.8472V31.6872C79.7204 32.4899 79.9665 33.1673 80.4564 33.7204C80.9486 34.2724 81.588 34.5496 82.3769 34.5496C83.3003 34.5496 84.0191 34.1931 84.5331 33.4824C85.0483 32.7705 85.3059 31.8321 85.3059 30.666Z" fill="white"/>
    <path d="M101.995 31.9378C101.995 33.2396 101.543 34.2988 100.636 35.1164C99.6385 36.01 98.2505 36.4562 96.4668 36.4562C94.82 36.4562 93.4998 36.1388 92.5005 35.5028L93.0686 33.4593C94.145 34.1102 95.326 34.4368 96.6129 34.4368C97.5363 34.4368 98.2551 34.2275 98.7714 33.8112C99.2855 33.3949 99.5419 32.836 99.5419 32.1391C99.5419 31.5181 99.3303 30.9948 98.906 30.5705C98.4839 30.1461 97.779 29.7517 96.7946 29.3871C94.1151 28.3878 92.7765 26.9238 92.7765 24.9987C92.7765 23.7406 93.2457 22.7091 94.1852 21.9064C95.1213 21.1025 96.3702 20.7012 97.9319 20.7012C99.3246 20.7012 100.481 20.9438 101.405 21.428L100.792 23.4267C99.9295 22.9575 98.9543 22.7229 97.8629 22.7229C97.0004 22.7229 96.3265 22.9356 95.8435 23.3588C95.4353 23.7372 95.2306 24.1983 95.2306 24.7446C95.2306 25.3495 95.464 25.8497 95.9332 26.243C96.3415 26.6064 97.0832 26.9997 98.1596 27.4241C99.4764 27.9542 100.444 28.5741 101.066 29.2848C101.686 29.9932 101.995 30.8798 101.995 31.9378Z" fill="white"/>
    <path d="M110.101 27.0342H107.398V32.3921C107.398 33.7548 107.875 34.4356 108.829 34.4356C109.267 34.4356 109.631 34.3977 109.918 34.3218L109.986 36.1836C109.503 36.3642 108.867 36.455 108.079 36.455C107.111 36.455 106.354 36.1595 105.808 35.5695C105.264 34.9784 104.99 33.9871 104.99 32.5945V27.0319H103.38V25.1919H104.99V23.1714L107.398 22.4446V25.1919H110.101V27.0342Z" fill="white"/>
    <path d="M122.295 30.621C122.295 32.3173 121.809 33.7099 120.841 34.799C119.826 35.9202 118.478 36.4791 116.798 36.4791C115.178 36.4791 113.889 35.942 112.928 34.8679C111.967 33.7938 111.486 32.438 111.486 30.8038C111.486 29.0938 111.98 27.6931 112.973 26.6041C113.963 25.5139 115.299 24.9688 116.979 24.9688C118.599 24.9688 119.902 25.5058 120.885 26.5811C121.825 27.6241 122.295 28.9708 122.295 30.621ZM119.751 30.7003C119.751 29.6826 119.534 28.8098 119.093 28.0818C118.579 27.2009 117.844 26.7616 116.892 26.7616C115.906 26.7616 115.158 27.2021 114.644 28.0818C114.203 28.8109 113.986 29.6976 113.986 30.7464C113.986 31.7641 114.203 32.6369 114.644 33.3637C115.174 34.2446 115.914 34.6839 116.87 34.6839C117.806 34.6839 118.541 34.2355 119.071 33.3408C119.523 32.599 119.751 31.7169 119.751 30.7003Z" fill="white"/>
    <path d="M130.264 27.3506C130.021 27.3057 129.763 27.2827 129.491 27.2827C128.629 27.2827 127.962 27.6082 127.492 28.2602C127.084 28.8352 126.88 29.562 126.88 30.4395V36.2297H124.429L124.452 28.6696C124.452 27.3977 124.421 26.2397 124.36 25.1955H126.495L126.585 27.3069H126.653C126.912 26.5812 127.32 25.997 127.879 25.5589C128.425 25.1644 129.015 24.9678 129.651 24.9678C129.878 24.9678 130.082 24.9839 130.264 25.0126V27.3506Z" fill="white"/>
    <path d="M141.23 30.1899C141.23 30.6292 141.201 30.9995 141.14 31.3019H133.784C133.813 32.3921 134.169 33.2259 134.852 33.8009C135.472 34.3149 136.273 34.5725 137.257 34.5725C138.347 34.5725 139.34 34.3989 140.234 34.0504L140.618 35.7524C139.574 36.2078 138.341 36.4344 136.918 36.4344C135.207 36.4344 133.864 35.9307 132.886 34.9244C131.911 33.9182 131.422 32.5669 131.422 30.8718C131.422 29.2078 131.877 27.822 132.786 26.7169C133.738 25.537 135.025 24.947 136.645 24.947C138.235 24.947 139.439 25.537 140.257 26.7169C140.904 27.6541 141.23 28.8133 141.23 30.1899ZM138.892 29.5539C138.908 28.8271 138.748 28.1992 138.416 27.6691C137.991 26.9871 137.339 26.6467 136.462 26.6467C135.66 26.6467 135.008 26.9791 134.51 27.6461C134.102 28.1762 133.859 28.8122 133.784 29.5528H138.892V29.5539Z" fill="white"/>
    <path d="M57.1576 11.5103C57.1576 12.8638 56.7517 13.8827 55.9409 14.567C55.19 15.1983 54.1228 15.5146 52.7405 15.5146C52.0551 15.5146 51.4686 15.4847 50.9775 15.4249V8.0292C51.6181 7.9257 52.3081 7.8728 53.0533 7.8728C54.37 7.8728 55.3625 8.15915 56.0318 8.73185C56.7816 9.3793 57.1576 10.3051 57.1576 11.5103ZM55.8869 11.5436C55.8869 10.6662 55.6546 9.9934 55.19 9.5242C54.7254 9.05615 54.0469 8.82155 53.1533 8.82155C52.7738 8.82155 52.4507 8.84685 52.1827 8.89975V14.5221C52.3311 14.5451 52.6025 14.5555 52.9969 14.5555C53.9192 14.5555 54.6311 14.299 55.1325 13.7861C55.6339 13.2732 55.8869 12.5257 55.8869 11.5436Z" fill="white"/>
    <path d="M63.8955 12.6924C63.8955 13.5261 63.6574 14.2092 63.1813 14.7451C62.6822 15.296 62.021 15.5708 61.1953 15.5708C60.3995 15.5708 59.7658 15.3075 59.2932 14.7785C58.8217 14.2506 58.5859 13.5848 58.5859 12.7821C58.5859 11.9426 58.8286 11.2537 59.3162 10.719C59.8038 10.1842 60.4593 9.91626 61.285 9.91626C62.0808 9.91626 62.7202 10.1796 63.2043 10.7075C63.6643 11.2204 63.8955 11.8828 63.8955 12.6924ZM62.6454 12.7315C62.6454 12.2312 62.5373 11.8023 62.3223 11.4446C62.0693 11.0122 61.7093 10.796 61.2413 10.796C60.7571 10.796 60.3891 11.0122 60.1361 11.4446C59.9199 11.8023 59.813 12.2381 59.813 12.7533C59.813 13.2536 59.9211 13.6825 60.1361 14.0402C60.3972 14.4726 60.7606 14.6888 61.2298 14.6888C61.6898 14.6888 62.0509 14.4691 62.3108 14.0287C62.5339 13.6641 62.6454 13.2317 62.6454 12.7315Z" fill="white"/>
    <path d="M72.9297 10.0269L71.2334 15.448H70.1294L69.4268 13.0939C69.2485 12.5063 69.1036 11.9221 68.9909 11.3425H68.9691C68.8644 11.9382 68.7195 12.5212 68.5332 13.0939L67.7869 15.448H66.6702L65.0752 10.0269H66.3137L66.9267 12.604C67.075 13.2135 67.1969 13.7943 67.2947 14.344H67.3165C67.4062 13.8909 67.5546 13.3136 67.7639 12.6155L68.5332 10.028H69.5153L70.2525 12.5603C70.4307 13.1779 70.5756 13.7724 70.6872 14.3451H70.7205C70.8022 13.7874 70.9252 13.1928 71.0885 12.5603L71.7463 10.028H72.9297V10.0269Z" fill="white"/>
    <path d="M79.1776 15.4478H77.9724V12.3428C77.9724 11.386 77.609 10.9076 76.8799 10.9076C76.5222 10.9076 76.2336 11.0387 76.0093 11.302C75.7874 11.5654 75.6747 11.8759 75.6747 12.2312V15.4466H74.4695V11.5757C74.4695 11.0996 74.4545 10.5833 74.4258 10.0244H75.4849L75.5413 10.8719H75.5746C75.7149 10.6086 75.9242 10.3912 76.1991 10.2176C76.5257 10.0152 76.8914 9.91284 77.2916 9.91284C77.7976 9.91284 78.2185 10.0761 78.5531 10.4039C78.9694 10.8052 79.1776 11.4044 79.1776 12.2002V15.4478Z" fill="white"/>
    <path d="M82.5014 15.4479H81.2974V7.53931H82.5014V15.4479Z" fill="white"/>
    <path d="M89.5967 12.6924C89.5967 13.5261 89.3586 14.2092 88.8825 14.7451C88.3834 15.296 87.721 15.5708 86.8965 15.5708C86.0995 15.5708 85.4659 15.3075 84.9944 14.7785C84.5229 14.2506 84.2871 13.5848 84.2871 12.7821C84.2871 11.9426 84.5298 11.2537 85.0174 10.719C85.505 10.1842 86.1605 9.91626 86.985 9.91626C87.782 9.91626 88.4202 10.1796 88.9055 10.7075C89.3655 11.2204 89.5967 11.8828 89.5967 12.6924ZM88.3455 12.7315C88.3455 12.2312 88.2374 11.8023 88.0223 11.4446C87.7705 11.0122 87.4094 10.796 86.9425 10.796C86.4572 10.796 86.0892 11.0122 85.8373 11.4446C85.6211 11.8023 85.5142 12.2381 85.5142 12.7533C85.5142 13.2536 85.6223 13.6825 85.8373 14.0402C86.0984 14.4726 86.4618 14.6888 86.931 14.6888C87.391 14.6888 87.7509 14.4691 88.0108 14.0287C88.2351 13.6641 88.3455 13.2317 88.3455 12.7315Z" fill="white"/>
    <path d="M95.4295 15.4478H94.3474L94.2577 14.8233H94.2243C93.854 15.3213 93.3262 15.5708 92.6408 15.5708C92.129 15.5708 91.715 15.4064 91.4034 15.0798C91.1205 14.7831 90.979 14.4139 90.979 13.9758C90.979 13.3134 91.255 12.8085 91.8105 12.4589C92.3648 12.1093 93.1445 11.938 94.1484 11.946V11.8448C94.1484 11.1307 93.7735 10.7742 93.0226 10.7742C92.4878 10.7742 92.0163 10.9087 91.6092 11.1755L91.3643 10.3843C91.868 10.0727 92.4901 9.91626 93.2238 9.91626C94.6406 9.91626 95.3513 10.6638 95.3513 12.1588V14.1552C95.3513 14.6968 95.3778 15.1281 95.4295 15.4478ZM94.1783 13.5848V12.7487C92.8489 12.7257 92.1842 13.0903 92.1842 13.8412C92.1842 14.1241 92.2601 14.3357 92.4154 14.4772C92.5706 14.6186 92.7684 14.6888 93.0042 14.6888C93.2687 14.6888 93.5159 14.6048 93.7413 14.4381C93.9679 14.2702 94.107 14.0574 94.1588 13.7964C94.1714 13.7377 94.1783 13.6664 94.1783 13.5848Z" fill="white"/>
    <path d="M102.279 15.4479H101.209L101.153 14.5773H101.119C100.778 15.2397 100.196 15.5709 99.3782 15.5709C98.725 15.5709 98.1811 15.3145 97.7498 14.8016C97.3186 14.2887 97.1035 13.6228 97.1035 12.8052C97.1035 11.9277 97.337 11.217 97.8062 10.6742C98.2604 10.1682 98.817 9.91521 99.4794 9.91521C100.207 9.91521 100.717 10.1602 101.007 10.6512H101.03V7.53931H102.236V13.9874C102.236 14.5152 102.25 15.0017 102.279 15.4479ZM101.03 13.1617V12.2578C101.03 12.1014 101.018 11.9749 100.996 11.8783C100.928 11.5885 100.782 11.3447 100.56 11.148C100.336 10.9514 100.066 10.8525 99.7543 10.8525C99.3046 10.8525 98.9527 11.0307 98.694 11.3884C98.4375 11.746 98.3076 12.2026 98.3076 12.7603C98.3076 13.2962 98.4306 13.7309 98.6779 14.0656C98.9389 14.4221 99.2908 14.6003 99.7313 14.6003C100.127 14.6003 100.443 14.452 100.683 14.1541C100.916 13.8793 101.03 13.5481 101.03 13.1617Z" fill="white"/>
    <path d="M112.585 12.6924C112.585 13.5261 112.347 14.2092 111.871 14.7451C111.372 15.296 110.712 15.5708 109.885 15.5708C109.091 15.5708 108.457 15.3075 107.983 14.7785C107.512 14.2506 107.276 13.5848 107.276 12.7821C107.276 11.9426 107.519 11.2537 108.006 10.719C108.494 10.1842 109.149 9.91626 109.976 9.91626C110.771 9.91626 111.411 10.1796 111.894 10.7075C112.354 11.2204 112.585 11.8828 112.585 12.6924ZM111.337 12.7315C111.337 12.2312 111.228 11.8023 111.013 11.4446C110.759 11.0122 110.4 10.796 109.931 10.796C109.448 10.796 109.08 11.0122 108.826 11.4446C108.61 11.8023 108.503 12.2381 108.503 12.7533C108.503 13.2536 108.611 13.6825 108.826 14.0402C109.087 14.4726 109.451 14.6888 109.92 14.6888C110.38 14.6888 110.742 14.4691 111.002 14.0287C111.224 13.6641 111.337 13.2317 111.337 12.7315Z" fill="white"/>
    <path d="M119.066 15.4478H117.862V12.3428C117.862 11.386 117.498 10.9076 116.768 10.9076C116.41 10.9076 116.122 11.0387 115.898 11.302C115.675 11.5654 115.564 11.8759 115.564 12.2312V15.4466H114.357V11.5757C114.357 11.0996 114.344 10.5833 114.315 10.0244H115.373L115.429 10.8719H115.463C115.604 10.6086 115.813 10.3912 116.087 10.2176C116.415 10.0152 116.779 9.91284 117.181 9.91284C117.686 9.91284 118.106 10.0761 118.441 10.4039C118.859 10.8052 119.066 11.4044 119.066 12.2002V15.4478Z" fill="white"/>
    <path d="M127.176 10.9296H125.849V13.5631C125.849 14.2324 126.085 14.5671 126.552 14.5671C126.768 14.5671 126.947 14.5487 127.089 14.5107L127.12 15.425C126.882 15.5147 126.569 15.5595 126.184 15.5595C125.708 15.5595 125.337 15.4146 125.069 15.1248C124.8 14.835 124.667 14.3474 124.667 13.6632V10.9296H123.875V10.0269H124.667V9.03326L125.848 8.67676V10.0257H127.175V10.9296H127.176Z" fill="white"/>
    <path d="M133.557 15.4479H132.35V12.3659C132.35 11.3941 131.987 10.9077 131.259 10.9077C130.7 10.9077 130.318 11.1894 130.109 11.7529C130.073 11.8714 130.053 12.0163 130.053 12.1865V15.4467H128.849V7.53931H130.053V10.8065H130.076C130.455 10.2119 130.999 9.91521 131.704 9.91521C132.203 9.91521 132.616 10.0785 132.944 10.4063C133.352 10.8145 133.557 11.4217 133.557 12.2244V15.4479Z" fill="white"/>
    <path d="M140.138 12.4809C140.138 12.6971 140.122 12.8788 140.093 13.0271H136.479C136.495 13.563 136.667 13.9713 137.002 14.2542C137.308 14.5072 137.702 14.6337 138.185 14.6337C138.72 14.6337 139.208 14.5486 139.647 14.3772L139.836 15.2144C139.322 15.4375 138.717 15.5491 138.016 15.5491C137.177 15.5491 136.516 15.3018 136.037 14.8073C135.556 14.3128 135.318 13.6493 135.318 12.8167C135.318 11.999 135.54 11.3182 135.988 10.7754C136.455 10.1958 137.086 9.90601 137.883 9.90601C138.663 9.90601 139.255 10.1958 139.655 10.7754C139.978 11.2354 140.138 11.8047 140.138 12.4809ZM138.988 12.1692C138.997 11.8116 138.918 11.5034 138.755 11.2435C138.545 10.9088 138.227 10.7409 137.795 10.7409C137.402 10.7409 137.081 10.9042 136.836 11.232C136.636 11.493 136.518 11.8047 136.479 12.1692H138.988Z" fill="white"/>
  </g>
  <defs>
    <clipPath id="clip0_19240_33808">
      <rect width="155.25" height="46" fill="white" transform="translate(0.75)"/>
    </clipPath>
  </defs>
</svg>