<svg width="50" height="30" viewBox="0 0 50 30" fill="none" xmlns="http://www.w3.org/2000/svg">
<rect width="50" height="30" rx="4" fill="url(#paint0_linear_69615_1462)"/>
<path d="M9.77246 22L7.5459 24.3633C7.74121 24.3177 7.9528 24.2949 8.18066 24.2949C8.62988 24.2949 9.01074 24.3926 9.32324 24.5879C9.77246 24.8743 9.99707 25.291 9.99707 25.8379C9.99707 26.248 9.86686 26.6191 9.60645 26.9512C9.16374 27.5046 8.49967 27.7812 7.61426 27.7812C7.21712 27.7812 6.85905 27.7227 6.54004 27.6055C5.96061 27.3841 5.6709 27.0293 5.6709 26.541C5.6709 26.4824 5.67741 26.4238 5.69043 26.3652C5.75553 26.0983 5.94108 25.9648 6.24707 25.9648C6.39681 25.9648 6.51725 26.0007 6.6084 26.0723C6.71257 26.1634 6.77767 26.3717 6.80371 26.6973C6.81673 26.86 6.83301 26.9772 6.85254 27.0488C6.92415 27.3678 7.14225 27.5273 7.50684 27.5273C8.37923 27.5013 8.83496 26.9837 8.87402 25.9746C8.87402 25.7663 8.85124 25.5742 8.80566 25.3984C8.65592 24.8711 8.33691 24.6074 7.84863 24.6074C7.63379 24.6074 7.40918 24.6562 7.1748 24.7539L6.94043 24.5586L8.64941 22.5859H7.08691C6.94368 22.5859 6.83301 22.5924 6.75488 22.6055C6.55957 22.638 6.41634 22.7715 6.3252 23.0059L6.14941 23.4844H5.91504L5.93457 21.7559H9.77246V22ZM15.0557 25.8867C15.0557 26.3685 14.8896 26.7786 14.5576 27.1172C14.1084 27.5599 13.4867 27.7812 12.6924 27.7812C12.3083 27.7812 11.9697 27.7129 11.6768 27.5762C11.182 27.3483 10.9346 27.0065 10.9346 26.5508C10.9346 26.4987 10.9411 26.4434 10.9541 26.3848C11.0127 26.1113 11.195 25.9746 11.501 25.9746C11.6637 25.9746 11.7907 26.0137 11.8818 26.0918C11.9925 26.1829 12.0609 26.3945 12.0869 26.7266C12.0934 26.8828 12.1064 26.9967 12.126 27.0684C12.1911 27.3743 12.3929 27.5273 12.7314 27.5273C12.9072 27.5273 13.0667 27.4948 13.21 27.4297C13.6917 27.2214 13.9326 26.7135 13.9326 25.9062C13.9326 25.6523 13.8968 25.4212 13.8252 25.2129C13.6429 24.6986 13.2848 24.4414 12.751 24.4414C12.3799 24.4414 12.0186 24.5814 11.667 24.8613L11.335 24.6074V21.7461C12.6696 21.8047 13.3434 21.834 13.3564 21.834C13.6234 21.834 13.8252 21.8145 13.9619 21.7754C14.1572 21.7233 14.2907 21.5866 14.3623 21.3652H14.6162C14.6097 21.8861 14.5218 22.2474 14.3525 22.4492C14.1637 22.6315 13.721 22.7227 13.0244 22.7227C12.6273 22.7227 12.1748 22.6934 11.667 22.6348V24.4805C12.0902 24.2135 12.5654 24.0768 13.0928 24.0703C13.5225 24.0703 13.9001 24.1647 14.2256 24.3535C14.779 24.6725 15.0557 25.1836 15.0557 25.8867ZM20.0557 27.6543H17.0088V27.3906H18.1025V26.1504L15.5146 26.1406L15.4561 25.8477C15.6514 25.6914 15.8369 25.5319 16.0127 25.3691C16.8005 24.6204 17.3571 23.7741 17.6826 22.8301C17.8584 22.3223 17.9528 22.0488 17.9658 22.0098C18.096 21.7559 18.3011 21.6289 18.5811 21.6289C18.6462 21.6289 18.7048 21.6354 18.7568 21.6484C19.0693 21.707 19.2256 21.8926 19.2256 22.2051C19.2191 22.5957 18.8675 23.1458 18.1709 23.8555C17.8063 24.2201 17.0479 24.8841 15.8955 25.8477L18.1025 25.8574V24.6953H18.2002C18.3044 24.6953 18.3923 24.6888 18.4639 24.6758C18.6527 24.6367 18.7829 24.4967 18.8545 24.2559L18.9814 23.8457H19.1963V25.8672H20.0557V26.1602H19.1963V27.3906H19.8213C19.8604 27.3906 19.8962 27.3939 19.9287 27.4004C20.0133 27.4134 20.0557 27.498 20.0557 27.6543ZM25.3389 25.1641C25.3389 25.5807 25.2152 25.9551 24.9678 26.2871C24.5576 26.8275 23.9456 27.0977 23.1318 27.0977C22.7021 27.0977 22.3213 26.987 21.9893 26.7656C21.2796 26.2839 20.9248 25.3984 20.9248 24.1094C20.9248 23.3997 21.0583 22.7845 21.3252 22.2637C21.7679 21.4043 22.4808 20.9746 23.4639 20.9746C23.9066 20.9746 24.2907 21.0527 24.6162 21.209C25.0329 21.4108 25.2412 21.6777 25.2412 22.0098C25.2412 22.0749 25.2314 22.14 25.2119 22.2051C25.1403 22.472 24.958 22.6055 24.665 22.6055C24.5088 22.6055 24.3851 22.5729 24.2939 22.5078C24.1768 22.4297 24.1019 22.2441 24.0693 21.9512C24.0563 21.8275 24.04 21.7331 24.0205 21.668C23.9489 21.3815 23.7275 21.2383 23.3564 21.2383C23.2002 21.2383 23.057 21.2708 22.9268 21.3359C22.4255 21.5833 22.152 22.3906 22.1064 23.7578C22.4906 23.5039 22.9235 23.3737 23.4053 23.3672C23.874 23.3672 24.2744 23.4811 24.6064 23.709C25.0947 24.041 25.3389 24.526 25.3389 25.1641ZM22.0967 25.3105C22.1032 26.3132 22.4548 26.821 23.1514 26.834C23.848 26.8275 24.1995 26.2806 24.2061 25.1934C24.1995 24.1908 23.861 23.6829 23.1904 23.6699C23.1579 23.6699 23.1253 23.6699 23.0928 23.6699C22.4287 23.7285 22.0967 24.2754 22.0967 25.3105Z" fill="#FEFEFE"/>
<path fill-rule="evenodd" clip-rule="evenodd" d="M36.2349 22.3192C35.958 23.0448 35.71 23.5985 35.6839 23.5497C35.6578 23.5009 35.5446 22.9955 35.4325 22.4266C35.3203 21.8578 35.1821 21.3201 35.1255 21.2318C35.0267 21.0777 34.9825 21.0715 34.0113 21.075L33 21.0788L33.4421 21.2433C33.6852 21.3338 33.9391 21.4308 34.0063 21.4587C34.0777 21.4884 34.1788 21.6927 34.2496 21.9503C34.3162 22.1927 34.5302 22.9688 34.7251 23.6749L35.0796 24.9589L35.6255 24.9795L36.1714 25L36.9589 23.1248C37.392 22.0935 37.7677 21.1935 37.7939 21.1248C37.8366 21.013 37.7843 21 37.29 21L36.7385 21L36.2349 22.3192ZM38.2324 21.2318C38.2094 21.3594 38.0756 22.1538 37.9354 22.9973C37.7951 23.8408 37.6618 24.6352 37.6392 24.7628L37.598 24.9946L38.1157 24.9946C38.5921 24.9946 38.6364 24.9818 38.6715 24.8341C38.72 24.6301 39.2992 21.1522 39.2992 21.065C39.2992 21.0292 39.0686 21 38.7868 21L38.2745 21L38.2324 21.2318ZM40.6714 21.1048C40.0693 21.3126 39.6669 21.9131 39.7707 22.449C39.8281 22.7456 40.2265 23.1216 40.7609 23.3838C41.2736 23.6354 41.3663 23.9164 40.9974 24.1011C40.7044 24.2478 40.2616 24.2382 39.819 24.0753L39.4531 23.9407L39.4068 24.2715C39.3814 24.4534 39.3458 24.6544 39.3278 24.7181C39.2834 24.8757 39.7873 24.9946 40.4997 24.9946C41.3952 24.9946 41.9261 24.7304 42.1896 24.1536C42.4875 23.5017 42.2422 23.0473 41.3253 22.5527C40.8137 22.2767 40.725 22.079 41.027 21.8874C41.2158 21.7676 41.7436 21.7698 42.1471 21.8922C42.3186 21.9443 42.341 21.9058 42.4274 21.4097C42.4696 21.1674 42.4556 21.1348 42.2818 21.0708C42.0037 20.9685 41.0053 20.9896 40.6714 21.1048ZM44.1879 21.0479C44.1009 21.0651 43.9798 21.1337 43.9185 21.2002C43.8362 21.2895 42.6798 23.8832 42.2665 24.9054C42.2396 24.972 42.3712 24.9946 42.7848 24.9946L43.3391 24.9946L43.4433 24.6914L43.5475 24.3883L44.221 24.3678L44.8944 24.3473L44.9402 24.5461C45.0477 25.0131 45.0234 24.9946 45.5279 24.9946L46 24.9946L45.9523 24.7628C45.926 24.6352 45.7362 23.7445 45.5305 22.7833L45.1564 21.0357L44.7512 21.026C44.5283 21.0208 44.2748 21.0305 44.1879 21.0479ZM44.5933 22.9081L44.7321 23.5679L44.2918 23.5679C43.9017 23.5679 43.8572 23.5537 43.9032 23.4431C43.9316 23.3745 44.0577 23.0481 44.1832 22.7179C44.3088 22.3877 44.4211 22.1469 44.433 22.1829C44.4448 22.2188 44.5169 22.5453 44.5933 22.9081Z" fill="#FEFEFE"/>
<path d="M6.04348 8.82609V8.17391H6.82609V8.82609H6.04348Z" fill="#FEFEFE"/>
<path d="M6.04348 5.82609V5.04348H6.82609V5.82609H6.04348Z" fill="#FEFEFE"/>
<path d="M2.64383 5.95871H3.14722V8.06171H2.64383V5.95871Z" fill="#FEFEFE"/>
<path d="M3.18462 6.0919H2.60643C2.52727 6.0919 2.4631 6.02958 2.4631 5.9527V5.64926H3.32795V5.9527C3.32795 6.02958 3.26378 6.0919 3.18462 6.0919ZM3.18462 7.84039H2.60643C2.52727 7.84039 2.4631 7.90271 2.4631 7.97959V8.28304H3.32795V7.97959C3.32795 7.90271 3.26378 7.84039 3.18462 7.84039Z" fill="#FEFEFE"/>
<path d="M6.06988 5.95871H6.57328V8.06171H6.06988V5.95871Z" fill="#FEFEFE"/>
<path d="M6.61068 6.0919H6.03248C5.95333 6.0919 5.88916 6.02958 5.88916 5.9527V5.64926H6.754V5.9527C6.754 6.02958 6.68983 6.0919 6.61068 6.0919ZM6.61068 7.84039H6.03248C5.95333 7.84039 5.88916 7.90271 5.88916 7.97959V8.28304H6.754V7.97959C6.754 7.90271 6.68983 7.84039 6.61068 7.84039Z" fill="#FEFEFE"/>
<path d="M4.35685 5.95871H4.86025V8.06171H4.35685V5.95871Z" fill="#FEFEFE"/>
<path d="M4.89765 6.0919H4.31946C4.2403 6.0919 4.17613 6.02958 4.17613 5.9527V5.64926H5.04097V5.9527C5.04096 6.02958 4.9768 6.0919 4.89765 6.0919ZM4.89765 7.84039H4.31946C4.2403 7.84039 4.17613 7.90271 4.17613 7.97959V8.28304H5.04097V7.97959C5.04096 7.90271 4.9768 7.84039 4.89765 7.84039Z" fill="#FEFEFE"/>
<path d="M6.37112 5.59594V5.30669H2.20095V5.59594C2.20095 5.68433 2.27473 5.75598 2.36573 5.75598H6.22733C6.31834 5.75598 6.37112 5.68433 6.37112 5.59594Z" fill="#FEFEFE"/>
<path d="M6.37112 5.30669V5.59594C6.37112 5.68433 6.29735 5.75598 6.20635 5.75598H6.85138C6.94239 5.75598 7.01615 5.68432 7.01615 5.59594V5.30669H6.37112Z" fill="#FEFEFE"/>
<path d="M6.49211 5.38783C6.5601 5.35669 6.59408 5.29689 6.59428 5.23451V4.86978C6.59428 4.86322 6.59233 4.8568 6.58865 4.85129C6.58498 4.84578 6.57975 4.84142 6.57358 4.83874L4.68385 4.01516C4.66093 4.00518 4.63609 4.00001 4.61097 4C4.58585 3.99999 4.56101 4.00514 4.53808 4.01511L2.10533 5.07355C1.96639 5.13401 1.96448 5.3249 2.10217 5.38796C2.12593 5.39885 2.15188 5.40449 2.17816 5.40449H6.41583C6.44216 5.40449 6.46815 5.39882 6.49196 5.38789L6.49211 5.38783Z" fill="#FEFEFE"/>
<path d="M7.11217 5.07346L6.57328 4.83861V5.23452C6.57307 5.2969 6.5391 5.35669 6.47111 5.38783L6.47081 5.38797C6.44705 5.39886 6.3974 5.40449 6.37112 5.40449L7.03894 5.4045C7.06522 5.4045 7.09116 5.39886 7.11493 5.38797L7.11522 5.38783C7.25287 5.32478 7.25102 5.13398 7.11217 5.07346Z" fill="#FEFEFE"/>
<path d="M6.29206 8.16537H2.29227C2.26805 8.16537 2.24483 8.17472 2.2277 8.19135C2.21058 8.20798 2.20096 8.23053 2.20096 8.25405V8.66325H6.37111V8.25405C6.37111 8.23053 6.37375 8.20797 6.35662 8.19134C6.3395 8.17472 6.31627 8.16537 6.29206 8.16537Z" fill="#FEFEFE"/>
<path d="M6.92484 8.16537H6.27981C6.30402 8.16537 6.32725 8.17472 6.34437 8.19135C6.36149 8.20798 6.37111 8.23053 6.37111 8.25405V8.66325H7.01614V8.25405C7.01614 8.23053 7.00652 8.20798 6.9894 8.19135C6.97228 8.17472 6.94905 8.16537 6.92484 8.16537Z" fill="#FEFEFE"/>
<path d="M6.37111 8.49729H2.17531C2.08094 8.49729 2.00443 8.5716 2.00443 8.66325V8.78236C2.00443 8.80113 2.01211 8.81914 2.02578 8.83241C2.03254 8.83898 2.04058 8.84419 2.04942 8.84775C2.05826 8.85131 2.06773 8.85314 2.0773 8.85314H6.5846V8.69044C6.58461 8.58377 6.48094 8.49729 6.37111 8.49729Z" fill="#FEFEFE"/>
<path d="M7.04651 8.49729H6.37111C6.48094 8.49729 6.57235 8.58376 6.57235 8.69043V8.85313H7.14451C7.16384 8.85313 7.18237 8.84567 7.19604 8.8324C7.2097 8.81913 7.21738 8.80112 7.21738 8.78235V8.66324C7.21739 8.5716 7.14088 8.49729 7.04651 8.49729Z" fill="#FEFEFE"/>
<path d="M4.60855 5.10351C4.78812 5.10351 4.93369 4.96213 4.93369 4.78773C4.93369 4.61332 4.78812 4.47194 4.60855 4.47194C4.42898 4.47194 4.28341 4.61332 4.28341 4.78773C4.28341 4.96213 4.42898 5.10351 4.60855 5.10351Z" fill="#001A34"/>
<path d="M2 10V9.11857H2.23486V9.8198H2.6169V10H2Z" fill="#FEFEFE"/>
<path d="M2.72441 10V9.11857H2.95926V10H2.72441Z" fill="#FEFEFE"/>
<path d="M3.09941 10V9.11857H3.5288C3.71183 9.11857 3.82254 9.20286 3.82254 9.3403V9.34152C3.82254 9.44109 3.74254 9.5205 3.63759 9.53332V9.5376C3.76366 9.54371 3.86285 9.63106 3.86285 9.7465V9.74773C3.86285 9.90104 3.73806 10 3.54032 10H3.09941ZM3.46673 9.27677H3.33426V9.48079H3.44945C3.54352 9.48079 3.59344 9.4417 3.59344 9.37573V9.37451C3.59344 9.31342 3.54608 9.27677 3.46673 9.27677ZM3.46673 9.62189H3.33426V9.84179H3.47377C3.56976 9.84179 3.62416 9.80331 3.62416 9.73184V9.73062C3.62416 9.66038 3.56976 9.62189 3.46673 9.62189Z" fill="#FEFEFE"/>
<path d="M3.96204 10V9.11857H4.59494V9.29876H4.1969V9.47285H4.57126V9.64144H4.1969V9.8198H4.59494V10H3.96204Z" fill="#FEFEFE"/>
<path d="M4.7274 10V9.11857H5.12736C5.3507 9.11857 5.47677 9.22424 5.47677 9.41116V9.41238C5.47677 9.52538 5.41533 9.62312 5.31934 9.66282L5.50428 10H5.24063L5.08193 9.69641H4.96226V10H4.7274ZM4.96226 9.53393H5.10113C5.18432 9.53393 5.23743 9.48629 5.23743 9.41177V9.41055C5.23743 9.33663 5.1824 9.28777 5.09985 9.28777H4.96226V9.53393Z" fill="#FEFEFE"/>
<path d="M5.80953 10V9.29876H5.55484V9.11857H6.29844V9.29876H6.04375V10H5.80953Z" fill="#FEFEFE"/>
<path d="M6.66449 10V9.69703L6.34644 9.11857H6.59601L6.77968 9.48507H6.78415L6.96782 9.11857H7.21739L6.89934 9.69703V10H6.66449Z" fill="#FEFEFE"/>
<defs>
<linearGradient id="paint0_linear_69615_1462" x1="7.40497" y1="17.1603" x2="42.2621" y2="16.2821" gradientUnits="userSpaceOnUse">
<stop stop-color="#78A5A2"/>
<stop offset="1" stop-color="#80AEAC"/>
</linearGradient>
</defs>
</svg>
