<svg width="340" height="203" viewBox="0 0 340 203" fill="none" xmlns="http://www.w3.org/2000/svg">
<g clip-path="url(#clip0_1_362)">
<rect width="340" height="203" rx="8" fill="url(#paint0_linear_1_362)"/>
<path d="M22.0664 180.287H23.1914C23.1328 180.826 22.9785 181.309 22.7285 181.734C22.4785 182.16 22.125 182.498 21.668 182.748C21.2109 182.994 20.6406 183.117 19.957 183.117C19.457 183.117 19.002 183.023 18.5918 182.836C18.1855 182.648 17.8359 182.383 17.543 182.039C17.25 181.691 17.0234 181.275 16.8633 180.791C16.707 180.303 16.6289 179.76 16.6289 179.162V178.312C16.6289 177.715 16.707 177.174 16.8633 176.689C17.0234 176.201 17.252 175.783 17.5488 175.436C17.8496 175.088 18.2109 174.82 18.6328 174.633C19.0547 174.445 19.5293 174.352 20.0566 174.352C20.7012 174.352 21.2461 174.473 21.6914 174.715C22.1367 174.957 22.4824 175.293 22.7285 175.723C22.9785 176.148 23.1328 176.643 23.1914 177.205H22.0664C22.0117 176.807 21.9102 176.465 21.7617 176.18C21.6133 175.891 21.4023 175.668 21.1289 175.512C20.8555 175.355 20.498 175.277 20.0566 175.277C19.6777 175.277 19.3438 175.35 19.0547 175.494C18.7695 175.639 18.5293 175.844 18.334 176.109C18.1426 176.375 17.998 176.693 17.9004 177.064C17.8027 177.436 17.7539 177.848 17.7539 178.301V179.162C17.7539 179.58 17.7969 179.973 17.8828 180.34C17.9727 180.707 18.1074 181.029 18.2871 181.307C18.4668 181.584 18.6953 181.803 18.9727 181.963C19.25 182.119 19.5781 182.197 19.957 182.197C20.4375 182.197 20.8203 182.121 21.1055 181.969C21.3906 181.816 21.6055 181.598 21.75 181.312C21.8984 181.027 22.0039 180.686 22.0664 180.287Z" fill="#F8F8F8"/>
<path d="M27.8906 175.225L25.0664 183H23.9121L27.1641 174.469H27.9082L27.8906 175.225ZM30.2578 183L27.4277 175.225L27.4102 174.469H28.1543L31.418 183H30.2578ZM30.1113 179.842V180.768H25.3184V179.842H30.1113Z" fill="#F8F8F8"/>
<path d="M32.5605 174.469H35.3848C36.0254 174.469 36.5664 174.566 37.0078 174.762C37.4531 174.957 37.791 175.246 38.0215 175.629C38.2559 176.008 38.373 176.475 38.373 177.029C38.373 177.42 38.293 177.777 38.1328 178.102C37.9766 178.422 37.75 178.695 37.4531 178.922C37.1602 179.145 36.8086 179.311 36.3984 179.42L36.082 179.543H33.4277L33.416 178.623H35.4199C35.8262 178.623 36.1641 178.553 36.4336 178.412C36.7031 178.268 36.9062 178.074 37.043 177.832C37.1797 177.59 37.248 177.322 37.248 177.029C37.248 176.701 37.1836 176.414 37.0547 176.168C36.9258 175.922 36.7227 175.732 36.4453 175.6C36.1719 175.463 35.8184 175.395 35.3848 175.395H33.6914V183H32.5605V174.469ZM37.5469 183L35.4727 179.133L36.6504 179.127L38.7539 182.93V183H37.5469Z" fill="#F8F8F8"/>
<path d="M42.2637 183H40.4824L40.4941 182.08H42.2637C42.873 182.08 43.3809 181.953 43.7871 181.699C44.1934 181.441 44.498 181.082 44.7012 180.621C44.9082 180.156 45.0117 179.613 45.0117 178.992V178.471C45.0117 177.982 44.9531 177.549 44.8359 177.17C44.7188 176.787 44.5469 176.465 44.3203 176.203C44.0938 175.938 43.8164 175.736 43.4883 175.6C43.1641 175.463 42.791 175.395 42.3691 175.395H40.4473V174.469H42.3691C42.9277 174.469 43.4375 174.562 43.8984 174.75C44.3594 174.934 44.7559 175.201 45.0879 175.553C45.4238 175.9 45.6816 176.322 45.8613 176.818C46.041 177.311 46.1309 177.865 46.1309 178.482V178.992C46.1309 179.609 46.041 180.166 45.8613 180.662C45.6816 181.154 45.4219 181.574 45.082 181.922C44.7461 182.27 44.3398 182.537 43.8633 182.725C43.3906 182.908 42.8574 183 42.2637 183ZM41.0859 174.469V183H39.9551V174.469H41.0859Z" fill="#F8F8F8"/>
<path d="M53.4023 178.137V179.057H48.7852V178.137H53.4023ZM48.9609 174.469V183H47.8301V174.469H48.9609ZM54.3867 174.469V183H53.2617V174.469H54.3867Z" fill="#F8F8F8"/>
<path d="M62.9648 178.465V179.004C62.9648 179.645 62.8848 180.219 62.7246 180.727C62.5645 181.234 62.334 181.666 62.0332 182.021C61.7324 182.377 61.3711 182.648 60.9492 182.836C60.5312 183.023 60.0625 183.117 59.543 183.117C59.0391 183.117 58.5762 183.023 58.1543 182.836C57.7363 182.648 57.373 182.377 57.0645 182.021C56.7598 181.666 56.5234 181.234 56.3555 180.727C56.1875 180.219 56.1035 179.645 56.1035 179.004V178.465C56.1035 177.824 56.1855 177.252 56.3496 176.748C56.5176 176.24 56.7539 175.809 57.0586 175.453C57.3633 175.094 57.7246 174.82 58.1426 174.633C58.5645 174.445 59.0273 174.352 59.5312 174.352C60.0508 174.352 60.5195 174.445 60.9375 174.633C61.3594 174.82 61.7207 175.094 62.0215 175.453C62.3262 175.809 62.5586 176.24 62.7188 176.748C62.8828 177.252 62.9648 177.824 62.9648 178.465ZM61.8457 179.004V178.453C61.8457 177.945 61.793 177.496 61.6875 177.105C61.5859 176.715 61.4355 176.387 61.2363 176.121C61.0371 175.855 60.793 175.654 60.5039 175.518C60.2188 175.381 59.8945 175.312 59.5312 175.312C59.1797 175.312 58.8613 175.381 58.5762 175.518C58.2949 175.654 58.0527 175.855 57.8496 176.121C57.6504 176.387 57.4961 176.715 57.3867 177.105C57.2773 177.496 57.2227 177.945 57.2227 178.453V179.004C57.2227 179.516 57.2773 179.969 57.3867 180.363C57.4961 180.754 57.6523 181.084 57.8555 181.354C58.0625 181.619 58.3066 181.82 58.5879 181.957C58.873 182.094 59.1914 182.162 59.543 182.162C59.9102 182.162 60.2363 182.094 60.5215 181.957C60.8066 181.82 61.0469 181.619 61.2422 181.354C61.4414 181.084 61.5918 180.754 61.6934 180.363C61.7949 179.969 61.8457 179.516 61.8457 179.004Z" fill="#F8F8F8"/>
<path d="M69.832 182.08V183H65.5664V182.08H69.832ZM65.7891 174.469V183H64.6582V174.469H65.7891Z" fill="#F8F8F8"/>
<path d="M73.4355 183H71.6543L71.666 182.08H73.4355C74.0449 182.08 74.5527 181.953 74.959 181.699C75.3652 181.441 75.6699 181.082 75.873 180.621C76.0801 180.156 76.1836 179.613 76.1836 178.992V178.471C76.1836 177.982 76.125 177.549 76.0078 177.17C75.8906 176.787 75.7188 176.465 75.4922 176.203C75.2656 175.938 74.9883 175.736 74.6602 175.6C74.3359 175.463 73.9629 175.395 73.541 175.395H71.6191V174.469H73.541C74.0996 174.469 74.6094 174.562 75.0703 174.75C75.5312 174.934 75.9277 175.201 76.2598 175.553C76.5957 175.9 76.8535 176.322 77.0332 176.818C77.2129 177.311 77.3027 177.865 77.3027 178.482V178.992C77.3027 179.609 77.2129 180.166 77.0332 180.662C76.8535 181.154 76.5938 181.574 76.2539 181.922C75.918 182.27 75.5117 182.537 75.0352 182.725C74.5625 182.908 74.0293 183 73.4355 183ZM72.2578 174.469V183H71.127V174.469H72.2578Z" fill="#F8F8F8"/>
<path d="M84.4219 182.08V183H79.9043V182.08H84.4219ZM80.1328 174.469V183H79.002V174.469H80.1328ZM83.8242 178.137V179.057H79.9043V178.137H83.8242ZM84.3633 174.469V175.395H79.9043V174.469H84.3633Z" fill="#F8F8F8"/>
<path d="M85.8223 174.469H88.6465C89.2871 174.469 89.8281 174.566 90.2695 174.762C90.7148 174.957 91.0527 175.246 91.2832 175.629C91.5176 176.008 91.6348 176.475 91.6348 177.029C91.6348 177.42 91.5547 177.777 91.3945 178.102C91.2383 178.422 91.0117 178.695 90.7148 178.922C90.4219 179.145 90.0703 179.311 89.6602 179.42L89.3438 179.543H86.6895L86.6777 178.623H88.6816C89.0879 178.623 89.4258 178.553 89.6953 178.412C89.9648 178.268 90.168 178.074 90.3047 177.832C90.4414 177.59 90.5098 177.322 90.5098 177.029C90.5098 176.701 90.4453 176.414 90.3164 176.168C90.1875 175.922 89.9844 175.732 89.707 175.6C89.4336 175.463 89.0801 175.395 88.6465 175.395H86.9531V183H85.8223V174.469ZM90.8086 183L88.7344 179.133L89.9121 179.127L92.0156 182.93V183H90.8086Z" fill="#F8F8F8"/>
<path d="M102.756 174.469V183H101.619L97.3242 176.42V183H96.1934V174.469H97.3242L101.637 181.066V174.469H102.756Z" fill="#F8F8F8"/>
<path d="M108.023 175.225L105.199 183H104.045L107.297 174.469H108.041L108.023 175.225ZM110.391 183L107.561 175.225L107.543 174.469H108.287L111.551 183H110.391ZM110.244 179.842V180.768H105.451V179.842H110.244Z" fill="#F8F8F8"/>
<path d="M113.051 174.469H114.146L116.941 181.424L119.73 174.469H120.832L117.363 183H116.508L113.051 174.469ZM112.693 174.469H113.66L113.818 179.672V183H112.693V174.469ZM120.217 174.469H121.184V183H120.059V179.672L120.217 174.469Z" fill="#F8F8F8"/>
<path d="M128.59 182.08V183H124.072V182.08H128.59ZM124.301 174.469V183H123.17V174.469H124.301ZM127.992 178.137V179.057H124.072V178.137H127.992ZM128.531 174.469V175.395H124.072V174.469H128.531Z" fill="#F8F8F8"/>
<g clip-path="url(#clip1_1_362)">
<rect x="15" y="94" width="30" height="22" rx="4" fill="#F8F8F8"/>
<path d="M15 100.5H45" stroke="#005AFE"/>
<path d="M22.5 94L22.5 100" stroke="#005AFE"/>
<path d="M37.5 94L37.5 100" stroke="#005AFE"/>
<path d="M22.5 110L22.5 116" stroke="#005AFE"/>
<path d="M37.5 110L37.5 116" stroke="#005AFE"/>
<path d="M15 109.5L45 109.5" stroke="#005AFE"/>
<path d="M34.5 105C34.5 107.485 32.4853 109.5 30 109.5C27.5147 109.5 25.5 107.485 25.5 105C25.5 102.515 27.5147 100.5 30 100.5C32.4853 100.5 34.5 102.515 34.5 105Z" fill="#FEFEFE" stroke="#005AFE"/>
</g>
<g opacity="0.2">
<path d="M208.955 190.383C235.316 190.383 256.686 187.772 256.686 184.551C256.686 181.331 235.316 178.72 208.955 178.72C182.594 178.72 161.224 181.331 161.224 184.551C161.224 187.772 182.594 190.383 208.955 190.383Z" fill="#000072"/>
</g>
<path d="M236.319 125.674C236.319 125.674 237.134 127.544 237.474 128.569C237.474 128.569 240.577 134.827 239.206 146.924C238.935 149.332 239.571 151.75 240.964 153.733C243.084 156.749 245.859 162.123 245.738 169.475C245.705 171.421 246.459 173.302 247.808 174.706C248.716 175.65 249.673 176.864 250.227 178.222C250.717 179.42 250.896 180.728 250.451 182.058C249.777 184.079 247.816 185.389 245.686 185.389H229.645C226.599 185.389 223.92 183.346 223.138 180.404C221.88 175.661 219.453 168.88 215.439 166.351C215.439 166.351 211.6 166.881 207.586 166.881C203.571 166.881 199.733 166.351 199.733 166.351C195.702 168.891 194.438 175.718 194.057 180.465C193.832 183.242 191.526 185.389 188.74 185.389H174.037C172.674 185.389 171.369 184.794 170.494 183.747C168.701 181.597 168.613 179.403 169.162 177.544C169.543 176.225 170.248 175.074 170.884 174.224C171.698 173.141 172.107 171.805 172.011 170.456C171.476 162.949 173.239 157.393 174.72 154.166C175.814 151.786 176.201 149.145 175.921 146.54C174.66 134.695 177.698 128.569 177.698 128.569C182.241 114.854 195.126 112.293 202.376 111.98C208.773 111.706 215.123 110.793 221.301 109.12C232.003 106.219 247.071 100.867 259.615 91.6043C260.676 90.8201 261.861 90.2113 263.139 89.8796C265.047 89.3805 267.627 89.2708 269.519 91.3246C269.739 91.5659 269.953 91.8346 270.153 92.139C273.413 97.0746 268.763 118.753 236.319 125.674Z" fill="white"/>
<g opacity="0.3">
<path d="M250.473 181.993C249.818 184.046 247.843 185.389 245.688 185.389H229.645C226.599 185.389 223.92 183.346 223.138 180.404C221.88 175.661 219.453 168.88 215.439 166.351C215.439 166.351 211.6 166.881 207.586 166.881C203.571 166.881 199.733 166.351 199.733 166.351C195.702 168.891 194.438 175.718 194.057 180.465C193.832 183.242 191.526 185.389 188.74 185.389H174.037C172.674 185.389 171.369 184.794 170.494 183.747C168.701 181.597 168.613 179.403 169.162 177.544C169.281 177.629 172.685 180.054 177.591 180.607C182.403 181.149 186.92 178.269 188.643 173.743C188.945 172.949 189.329 172.101 189.814 171.23C190.71 169.622 190.573 167.658 189.493 166.168C188.775 165.178 188.061 163.839 187.65 162.112C187.418 161.133 188.27 160.242 189.254 160.457C194.956 161.703 212.345 164.775 227.779 159.989C228.931 159.632 229.95 160.83 229.394 161.9C228.843 162.962 227.96 164.265 226.55 165.692C225.148 167.11 224.779 169.253 225.618 171.063C225.872 171.611 226.138 172.202 226.4 172.811C228.066 176.686 231.672 179.378 235.854 179.916C241.005 180.579 247.384 180.751 250.226 178.222C250.709 179.401 250.89 180.686 250.473 181.993Z" fill="#000072"/>
</g>
<path d="M263.65 102.949C264.698 101.134 264.453 99.0294 263.103 98.2497C261.752 97.4699 259.808 98.3098 258.759 100.126C257.711 101.941 257.956 104.046 259.306 104.825C260.657 105.605 262.601 104.765 263.65 102.949Z" fill="#D3D3DD"/>
<path d="M263.091 95.8227C263.602 94.937 263.483 93.9106 262.824 93.5302C262.165 93.1497 261.216 93.5594 260.705 94.4452C260.193 95.3309 260.313 96.3573 260.972 96.7377C261.631 97.1182 262.579 96.7085 263.091 95.8227Z" fill="#D3D3DD"/>
<path d="M267.993 100.072C268.505 99.1865 268.385 98.16 267.726 97.7796C267.067 97.3992 266.119 97.8089 265.607 98.6946C265.096 99.5804 265.215 100.607 265.874 100.987C266.533 101.368 267.482 100.958 267.993 100.072Z" fill="#D3D3DD"/>
<path d="M266.691 96.5422C267.202 95.6565 267.082 94.63 266.424 94.2496C265.765 93.8692 264.816 94.2789 264.305 95.1646C263.793 96.0504 263.913 97.0768 264.572 97.4572C265.23 97.8376 266.179 97.428 266.691 96.5422Z" fill="#D3D3DD"/>
<g opacity="0.3">
<path d="M236.317 125.674C236.317 125.674 235.32 123.514 234.039 121.039C233.626 120.241 234.368 119.331 235.231 119.581C235.882 119.769 236.608 120.041 237.303 120.433C238.395 121.049 239.694 121.185 240.888 120.804C247.867 118.577 269.063 110.264 269.517 91.3252C269.736 91.5665 269.95 91.8352 270.15 92.1395C273.411 97.0746 268.761 118.753 236.317 125.674Z" fill="#000072"/>
</g>
<path d="M245.685 186.485H229.644C226.096 186.485 222.985 184.1 222.079 180.686C220.328 174.085 217.885 169.426 215.171 167.491C214.058 167.628 210.903 167.976 207.586 167.976C204.27 167.976 201.118 167.629 200.003 167.492C196.498 170.039 195.457 176.724 195.15 180.553C194.882 183.879 192.066 186.485 188.74 186.485H174.038C172.331 186.485 170.732 185.742 169.652 184.448C167.04 181.316 167.17 177.35 170.007 173.566C170.669 172.683 170.992 171.606 170.916 170.534C170.37 162.865 172.141 157.151 173.723 153.708C174.71 151.56 175.093 149.123 174.831 146.657C173.609 135.193 176.31 128.945 176.678 128.158C181.446 113.885 194.791 111.208 202.329 110.884C208.846 110.603 215.133 109.653 221.014 108.06C231.441 105.235 246.488 99.9339 258.963 90.7213C260.196 89.8115 261.507 89.1704 262.861 88.8167C266.386 87.896 269.3 88.8617 271.066 91.5352C272.649 93.93 272.431 98.6688 270.525 103.327C269.127 106.744 266.164 111.82 259.989 116.599C254.177 121.097 246.731 124.411 237.84 126.459C238.069 127.017 238.324 127.662 238.492 128.157C238.863 128.948 241.624 135.331 240.297 147.048C240.057 149.173 240.612 151.323 241.862 153.101C244.199 156.426 246.958 161.97 246.834 169.493C246.807 171.129 247.451 172.752 248.6 173.945C251.376 176.828 252.376 179.753 251.492 182.403C250.678 184.845 248.345 186.485 245.685 186.485ZM215.439 165.254C215.644 165.254 215.848 165.312 216.023 165.423C220.266 168.096 222.81 174.892 224.199 180.123C224.85 182.578 227.089 184.292 229.643 184.292H245.685C247.399 184.292 248.896 183.254 249.41 181.711C250.179 179.403 248.534 177.042 247.018 175.468C245.47 173.86 244.603 171.669 244.64 169.458C244.754 162.524 242.216 157.423 240.066 154.364C238.508 152.147 237.815 149.461 238.116 146.803C239.427 135.231 236.518 129.115 236.488 129.055C236.467 129.011 236.446 128.962 236.431 128.915C236.11 127.947 235.32 126.131 235.312 126.112C235.18 125.811 235.191 125.466 235.342 125.173C235.492 124.88 235.766 124.671 236.089 124.602C259.19 119.674 266.446 107.502 268.494 102.498C270.298 98.0885 270.232 94.2541 269.236 92.7455C267.992 90.8634 266.034 90.2563 263.415 90.9401C262.332 91.2231 261.272 91.7435 260.265 92.4866C247.516 101.902 232.194 107.304 221.586 110.178C215.549 111.813 209.101 112.789 202.422 113.076C195.437 113.377 183.072 115.834 178.738 128.915C178.722 128.964 178.702 129.012 178.679 129.058C178.651 129.114 175.804 135.099 177.011 146.426C177.316 149.284 176.867 152.119 175.716 154.625C174.241 157.835 172.59 163.173 173.103 170.379C173.217 171.979 172.74 173.578 171.761 174.883C170.199 176.966 168.858 180.072 171.336 183.044C171.998 183.837 172.982 184.292 174.037 184.292H188.739C190.931 184.292 192.785 182.573 192.962 180.378C193.389 175.064 194.809 168.156 199.146 165.423C199.365 165.285 199.626 165.23 199.88 165.264C199.917 165.269 203.696 165.783 207.584 165.783C211.472 165.783 215.251 165.269 215.288 165.264C215.339 165.257 215.389 165.254 215.439 165.254Z" fill="#000072"/>
<path d="M215.358 165.257C215.63 165.239 215.968 165.215 216.278 165.183C216.595 165.147 216.917 165.123 217.237 165.082C217.877 165 218.521 164.913 219.164 164.804C219.807 164.695 220.451 164.574 221.096 164.441L223.054 164.039L223.059 164.038C223.223 164.004 223.383 164.11 223.416 164.274C223.442 164.398 223.387 164.519 223.289 164.586C222.717 164.97 222.121 165.321 221.5 165.619C220.883 165.928 220.243 166.184 219.595 166.423C218.946 166.663 218.284 166.866 217.61 167.038C217.274 167.124 216.935 167.209 216.592 167.275C216.241 167.34 215.915 167.405 215.522 167.445C214.919 167.506 214.38 167.067 214.319 166.464C214.258 165.861 214.696 165.323 215.3 165.261C215.311 165.26 215.322 165.259 215.334 165.259L215.358 165.257Z" fill="#000072"/>
<path d="M199.65 167.444C199.256 167.404 198.931 167.339 198.58 167.275C198.236 167.209 197.898 167.123 197.561 167.038C196.888 166.866 196.225 166.663 195.577 166.423C194.929 166.184 194.288 165.927 193.671 165.619C193.051 165.32 192.454 164.969 191.883 164.586C191.744 164.493 191.707 164.305 191.8 164.166C191.87 164.061 191.995 164.014 192.112 164.038L192.117 164.039L194.075 164.441C194.72 164.573 195.364 164.695 196.007 164.804C196.65 164.913 197.294 165.001 197.934 165.082C198.254 165.123 198.575 165.148 198.893 165.183C199.203 165.215 199.541 165.239 199.813 165.257L199.834 165.258C200.438 165.298 200.896 165.821 200.856 166.425C200.816 167.03 200.293 167.488 199.689 167.447C199.677 167.447 199.661 167.445 199.65 167.444Z" fill="#000072"/>
<path d="M237.456 184.87L237.529 184.681C237.558 184.607 237.589 184.535 237.615 184.456C237.674 184.304 237.727 184.147 237.78 183.989C237.889 183.673 237.978 183.349 238.063 183.023C238.229 182.369 238.331 181.697 238.362 181.013L238.378 180.755C238.38 180.669 238.374 180.584 238.373 180.497C238.364 180.326 238.369 180.15 238.358 179.976C238.32 179.632 238.297 179.276 238.22 178.927C238.181 178.753 238.166 178.568 238.111 178.395L237.966 177.863C237.929 177.678 237.851 177.511 237.791 177.331C237.727 177.154 237.666 176.971 237.606 176.785L237.602 176.773C237.578 176.7 237.618 176.62 237.692 176.597C237.742 176.58 237.795 176.594 237.831 176.627C238.407 177.165 238.945 177.791 239.322 178.524C239.538 178.88 239.676 179.27 239.831 179.661C239.904 179.858 239.95 180.062 240.006 180.265C240.032 180.367 240.063 180.469 240.084 180.572L240.139 180.884C240.286 181.717 240.305 182.579 240.184 183.42C240.151 183.629 240.111 183.839 240.073 184.048C240.019 184.255 239.971 184.462 239.909 184.667C239.843 184.87 239.776 185.074 239.692 185.275C239.653 185.375 239.606 185.477 239.561 185.578C239.538 185.627 239.512 185.679 239.484 185.731L239.391 185.906C239.106 186.438 238.444 186.638 237.912 186.353C237.421 186.091 237.212 185.506 237.407 184.999L237.456 184.87Z" fill="#000072"/>
<path d="M244.931 184.87L245.003 184.681C245.032 184.607 245.063 184.535 245.089 184.456C245.148 184.304 245.202 184.147 245.254 183.988C245.363 183.673 245.452 183.349 245.538 183.023C245.703 182.368 245.805 181.697 245.836 181.013L245.852 180.755C245.855 180.668 245.849 180.583 245.847 180.497C245.838 180.326 245.844 180.15 245.832 179.976C245.794 179.631 245.771 179.276 245.694 178.927C245.656 178.753 245.64 178.568 245.585 178.395L245.441 177.863C245.403 177.677 245.325 177.511 245.266 177.331C245.202 177.154 245.141 176.971 245.08 176.785L245.076 176.773C245.052 176.7 245.092 176.62 245.166 176.597C245.216 176.58 245.269 176.594 245.305 176.627C245.881 177.165 246.419 177.791 246.796 178.524C247.012 178.88 247.151 179.269 247.305 179.661C247.378 179.858 247.424 180.062 247.481 180.265C247.506 180.367 247.537 180.469 247.559 180.572L247.614 180.883C247.761 181.716 247.78 182.579 247.658 183.42C247.625 183.629 247.586 183.839 247.548 184.048C247.493 184.254 247.446 184.462 247.384 184.667C247.318 184.87 247.251 185.074 247.168 185.275C247.129 185.375 247.081 185.477 247.035 185.578C247.012 185.627 246.987 185.679 246.959 185.731L246.865 185.906C246.581 186.438 245.919 186.638 245.387 186.353C244.896 186.09 244.687 185.506 244.882 184.999L244.931 184.87Z" fill="#000072"/>
<path d="M180.646 185.906L180.553 185.731C180.525 185.679 180.499 185.627 180.476 185.578C180.431 185.477 180.383 185.376 180.344 185.275C180.261 185.074 180.193 184.87 180.128 184.667C180.065 184.462 180.018 184.255 179.964 184.048C179.925 183.839 179.887 183.629 179.853 183.42C179.732 182.579 179.75 181.717 179.898 180.884L179.952 180.572C179.974 180.469 180.004 180.367 180.031 180.265C180.087 180.062 180.133 179.858 180.206 179.661C180.361 179.27 180.499 178.88 180.715 178.524C181.093 177.791 181.63 177.165 182.206 176.627C182.263 176.575 182.352 176.578 182.404 176.635C182.44 176.673 182.45 176.727 182.435 176.773L182.431 176.786C182.37 176.972 182.309 177.154 182.245 177.332C182.185 177.511 182.107 177.678 182.07 177.864L181.925 178.396C181.87 178.568 181.855 178.754 181.816 178.927C181.739 179.276 181.716 179.632 181.678 179.977C181.667 180.151 181.672 180.327 181.663 180.498C181.662 180.584 181.656 180.67 181.658 180.755L181.674 181.014C181.705 181.697 181.807 182.369 181.973 183.023C182.058 183.35 182.148 183.673 182.256 183.989C182.309 184.148 182.362 184.305 182.421 184.457C182.448 184.536 182.478 184.608 182.507 184.682L182.58 184.871L182.629 185C182.845 185.563 182.563 186.195 182 186.411C181.48 186.609 180.902 186.385 180.646 185.906Z" fill="#000072"/>
<path d="M173.17 185.906L173.076 185.731C173.048 185.679 173.022 185.627 173 185.578C172.954 185.477 172.906 185.375 172.867 185.275C172.784 185.074 172.717 184.87 172.651 184.667C172.589 184.462 172.542 184.254 172.487 184.048C172.449 183.839 172.41 183.629 172.377 183.42C172.255 182.579 172.273 181.716 172.421 180.883L172.476 180.572C172.497 180.469 172.528 180.367 172.554 180.265C172.61 180.061 172.657 179.857 172.73 179.661C172.884 179.269 173.023 178.88 173.239 178.524C173.616 177.791 174.153 177.165 174.73 176.627C174.786 176.575 174.875 176.577 174.928 176.634C174.964 176.673 174.974 176.727 174.958 176.773L174.955 176.786C174.894 176.972 174.833 177.154 174.769 177.331C174.709 177.511 174.631 177.678 174.594 177.864L174.449 178.396C174.394 178.568 174.379 178.753 174.34 178.927C174.263 179.276 174.24 179.632 174.202 179.977C174.191 180.151 174.196 180.327 174.187 180.498C174.186 180.584 174.18 180.67 174.182 180.755L174.198 181.013C174.229 181.697 174.331 182.369 174.497 183.023C174.582 183.35 174.672 183.673 174.78 183.989C174.833 184.147 174.886 184.304 174.945 184.457C174.972 184.536 175.002 184.608 175.031 184.682L175.104 184.871L175.153 185C175.369 185.563 175.087 186.195 174.524 186.411C174.003 186.609 173.425 186.384 173.17 185.906Z" fill="#000072"/>
<path d="M235.307 126.103C235.168 125.705 235.048 125.285 234.928 124.871C234.81 124.455 234.7 124.034 234.592 123.613L234.275 122.342C234.169 121.918 234.064 121.492 233.952 121.064L233.951 121.062C233.93 120.983 233.977 120.903 234.056 120.882C234.107 120.869 234.158 120.884 234.194 120.917C234.527 121.232 234.821 121.576 235.105 121.924C235.393 122.271 235.658 122.63 235.919 122.992C236.178 123.355 236.427 123.722 236.662 124.097C236.895 124.474 237.123 124.847 237.325 125.245C237.6 125.787 237.385 126.448 236.843 126.723C236.302 126.998 235.64 126.782 235.365 126.241C235.343 126.197 235.323 126.147 235.307 126.103Z" fill="#000072"/>
<path d="M194.549 132.655C194.438 132.655 194.327 132.649 194.216 132.637C193.413 132.55 192.692 132.155 192.185 131.525L190.801 129.803C190.295 129.174 190.064 128.384 190.151 127.58C190.238 126.777 190.633 126.056 191.263 125.55C191.893 125.044 192.681 124.813 193.486 124.9C194.289 124.987 195.01 125.382 195.517 126.012L196.901 127.735C197.946 129.035 197.739 130.943 196.439 131.988C195.896 132.424 195.235 132.655 194.549 132.655ZM193.156 126.745C192.893 126.745 192.639 126.834 192.431 127.002C192.189 127.197 192.037 127.473 192.003 127.782C191.969 128.091 192.058 128.394 192.253 128.636L193.638 130.359C193.832 130.6 194.109 130.752 194.418 130.786C194.726 130.82 195.03 130.73 195.272 130.536C195.772 130.135 195.851 129.402 195.45 128.902L194.065 127.18C193.87 126.938 193.593 126.786 193.285 126.753C193.241 126.747 193.199 126.745 193.156 126.745Z" fill="#F7C32F"/>
<path d="M189.531 125.277C189.197 125.277 188.861 125.221 188.537 125.108C187.773 124.843 187.158 124.297 186.806 123.569L185.843 121.581C185.49 120.854 185.442 120.033 185.707 119.269C185.972 118.506 186.518 117.891 187.245 117.539C188.748 116.812 190.56 117.441 191.287 118.942L192.251 120.93C192.604 121.657 192.651 122.478 192.387 123.242C192.122 124.006 191.576 124.62 190.848 124.972C190.43 125.175 189.982 125.277 189.531 125.277ZM188.562 119.099C188.392 119.099 188.22 119.136 188.057 119.215C187.778 119.351 187.568 119.587 187.466 119.881C187.364 120.174 187.383 120.489 187.518 120.769L188.482 122.757C188.761 123.333 189.46 123.575 190.035 123.296C190.314 123.161 190.524 122.925 190.626 122.631C190.728 122.338 190.709 122.023 190.574 121.743L189.61 119.755C189.41 119.34 188.994 119.099 188.562 119.099Z" fill="#F7C32F"/>
<path d="M201.583 137.915C201.034 137.915 200.479 137.766 199.981 137.454L198.109 136.28C197.424 135.85 196.948 135.18 196.767 134.393C196.587 133.604 196.724 132.794 197.153 132.109C197.583 131.425 198.253 130.949 199.04 130.768C199.829 130.587 200.639 130.724 201.324 131.154L203.196 132.328C203.88 132.758 204.357 133.428 204.537 134.215C204.717 135.003 204.58 135.814 204.151 136.498C203.577 137.413 202.591 137.915 201.583 137.915ZM199.719 132.554C199.631 132.554 199.544 132.564 199.457 132.584C199.154 132.653 198.897 132.836 198.732 133.099C198.566 133.363 198.514 133.674 198.583 133.976C198.653 134.279 198.836 134.536 199.098 134.701L200.971 135.875C201.514 136.216 202.233 136.051 202.573 135.508C202.738 135.245 202.79 134.934 202.722 134.631C202.653 134.328 202.469 134.071 202.206 133.906L200.334 132.732C200.146 132.615 199.934 132.554 199.719 132.554Z" fill="#F7C32F"/>
<path d="M192.801 128.212C192.609 128.212 192.419 128.123 192.298 127.955C190.572 125.579 189.337 123.316 189.285 123.221C189.122 122.92 189.233 122.543 189.534 122.379C189.836 122.215 190.213 122.327 190.377 122.628C190.389 122.651 191.627 124.918 193.302 127.225C193.504 127.503 193.442 127.891 193.165 128.093C193.055 128.173 192.927 128.212 192.801 128.212Z" fill="#F7C32F"/>
<path d="M199.374 134.24C199.248 134.24 199.121 134.202 199.011 134.123C196.63 132.404 194.751 130.639 194.672 130.565C194.422 130.33 194.41 129.937 194.645 129.687C194.881 129.437 195.273 129.426 195.523 129.661C195.542 129.678 197.426 131.446 199.738 133.116C200.016 133.316 200.078 133.705 199.878 133.983C199.756 134.151 199.566 134.24 199.374 134.24Z" fill="#F7C32F"/>
<path d="M220.622 132.655C219.936 132.655 219.274 132.424 218.732 131.987C217.432 130.942 217.224 129.034 218.27 127.734L219.654 126.012C220.16 125.382 220.882 124.987 221.685 124.9C222.49 124.813 223.278 125.043 223.908 125.55C224.537 126.056 224.933 126.777 225.02 127.58C225.107 128.384 224.876 129.173 224.37 129.803L222.986 131.525C222.48 132.155 221.759 132.55 220.955 132.637C220.843 132.649 220.732 132.655 220.622 132.655ZM219.899 130.536C220.141 130.73 220.446 130.82 220.753 130.785C221.061 130.752 221.339 130.6 221.534 130.358L222.918 128.636C223.113 128.394 223.201 128.091 223.167 127.782C223.134 127.474 222.982 127.196 222.74 127.002C222.498 126.807 222.195 126.718 221.886 126.752C221.578 126.786 221.301 126.938 221.106 127.179L219.722 128.901C219.527 129.143 219.438 129.447 219.472 129.755C219.506 130.064 219.658 130.341 219.899 130.536Z" fill="#F7C32F"/>
<path d="M225.635 125.275C225.193 125.275 224.744 125.178 224.32 124.972C223.593 124.62 223.047 124.005 222.781 123.242C222.517 122.478 222.564 121.658 222.917 120.93L223.881 118.942C224.608 117.441 226.421 116.812 227.923 117.54C228.65 117.892 229.197 118.506 229.462 119.27C229.726 120.033 229.679 120.854 229.326 121.581L228.362 123.569C227.84 124.647 226.758 125.275 225.635 125.275ZM226.605 119.099C226.173 119.099 225.758 119.341 225.557 119.755L224.594 121.743C224.458 122.023 224.44 122.338 224.542 122.632C224.644 122.925 224.853 123.161 225.133 123.296C225.412 123.432 225.727 123.45 226.021 123.348C226.314 123.246 226.55 123.037 226.686 122.757L227.649 120.769C227.785 120.489 227.803 120.174 227.701 119.88C227.599 119.587 227.389 119.351 227.11 119.216C226.948 119.137 226.775 119.099 226.605 119.099Z" fill="#F7C32F"/>
<path d="M213.586 137.918C213.359 137.918 213.13 137.892 212.905 137.84C212.116 137.659 211.446 137.183 211.017 136.498C210.588 135.814 210.451 135.003 210.631 134.215C210.812 133.427 211.288 132.757 211.973 132.328L213.845 131.154C214.529 130.724 215.341 130.588 216.128 130.768C216.916 130.949 217.586 131.425 218.015 132.11C218.444 132.794 218.582 133.605 218.401 134.393C218.221 135.181 217.744 135.851 217.06 136.28L215.188 137.454C214.7 137.76 214.148 137.918 213.586 137.918ZM215.45 132.554C215.234 132.554 215.022 132.615 214.834 132.732L212.962 133.907C212.699 134.072 212.516 134.329 212.447 134.632C212.378 134.934 212.431 135.246 212.596 135.508C212.761 135.771 213.018 135.954 213.321 136.024C213.623 136.093 213.935 136.04 214.198 135.875L216.07 134.701C216.333 134.536 216.517 134.279 216.586 133.976C216.655 133.674 216.602 133.362 216.437 133.099C216.272 132.836 216.015 132.653 215.712 132.583C215.625 132.564 215.537 132.554 215.45 132.554Z" fill="#F7C32F"/>
<path d="M222.368 128.211C222.242 128.211 222.114 128.173 222.003 128.093C221.726 127.891 221.664 127.503 221.866 127.225C223.542 124.917 224.78 122.65 224.792 122.628C224.955 122.327 225.332 122.215 225.634 122.379C225.935 122.542 226.046 122.92 225.883 123.221C225.831 123.316 224.596 125.579 222.871 127.955C222.749 128.122 222.56 128.211 222.368 128.211Z" fill="#F7C32F"/>
<path d="M207.26 137.967C203.525 137.967 201.654 135.712 201.576 135.616C201.36 135.349 201.401 134.958 201.668 134.742C201.934 134.526 202.325 134.567 202.541 134.834C202.603 134.909 204.14 136.725 207.26 136.725C210.409 136.725 211.963 134.853 211.978 134.834C212.195 134.567 212.585 134.526 212.852 134.742C213.118 134.958 213.159 135.349 212.943 135.616C212.865 135.712 210.994 137.967 207.26 137.967Z" fill="#F7C32F"/>
<path d="M215.796 134.24C215.603 134.24 215.413 134.151 215.292 133.982C215.091 133.704 215.153 133.316 215.431 133.115C217.743 131.446 219.627 129.678 219.646 129.66C219.895 129.426 220.288 129.437 220.524 129.687C220.759 129.936 220.747 130.329 220.498 130.565C220.419 130.639 218.539 132.404 216.158 134.122C216.049 134.202 215.922 134.24 215.796 134.24Z" fill="#F7C32F"/>
<path d="M229.462 119.269C229.197 118.506 228.651 117.892 227.923 117.539C227.196 117.186 226.375 117.139 225.612 117.403C224.848 117.668 224.233 118.215 223.881 118.942L222.918 120.931C222.565 121.658 222.517 122.479 222.782 123.242C222.959 123.753 223.265 124.195 223.664 124.539C223.541 124.737 223.411 124.944 223.272 125.161C222.042 124.597 220.539 124.911 219.654 126.012L218.269 127.734C217.473 128.725 217.406 130.067 217.992 131.112C217.84 131.24 217.681 131.372 217.514 131.508C216.536 130.596 215.03 130.411 213.845 131.155L211.973 132.329C210.771 133.082 210.285 134.547 210.71 135.837C209.928 136.29 208.784 136.725 207.258 136.725C206.054 136.725 205.088 136.454 204.349 136.118C204.951 134.765 204.484 133.138 203.195 132.329L201.323 131.155C200.137 130.412 198.632 130.596 197.654 131.508C197.487 131.372 197.327 131.24 197.176 131.112C197.763 130.067 197.695 128.725 196.899 127.734L195.514 126.012C194.629 124.911 193.126 124.597 191.896 125.161C191.757 124.944 191.627 124.737 191.504 124.539C191.903 124.195 192.209 123.753 192.386 123.242C192.651 122.479 192.603 121.658 192.25 120.931L191.287 118.942C190.934 118.215 190.32 117.669 189.556 117.403C188.793 117.139 187.972 117.187 187.245 117.539C186.518 117.892 185.971 118.506 185.706 119.269C185.441 120.032 185.489 120.853 185.842 121.581L186.806 123.569C187.158 124.296 187.772 124.843 188.536 125.108C188.861 125.221 189.196 125.277 189.53 125.277C189.828 125.277 190.124 125.228 190.413 125.139C190.562 125.379 190.723 125.634 190.895 125.901C190.48 126.368 190.218 126.948 190.149 127.581C190.061 128.384 190.292 129.173 190.798 129.803L192.183 131.525C192.779 132.267 193.658 132.653 194.544 132.653C195.177 132.653 195.814 132.453 196.355 132.047C196.538 132.2 196.732 132.361 196.937 132.528C196.36 133.874 196.83 135.479 198.108 136.28L199.98 137.454C200.478 137.767 201.033 137.916 201.582 137.916C202.322 137.916 203.049 137.643 203.611 137.137C204.52 137.589 205.73 137.967 207.257 137.967C209.038 137.967 210.39 137.455 211.331 136.908C211.915 137.56 212.741 137.916 213.585 137.916C214.133 137.916 214.689 137.767 215.187 137.455L217.059 136.281C218.337 135.479 218.806 133.874 218.23 132.529C218.435 132.362 218.629 132.202 218.812 132.047C219.353 132.454 219.989 132.654 220.623 132.654C221.509 132.654 222.388 132.268 222.984 131.525L224.368 129.803C224.875 129.174 225.105 128.384 225.018 127.581C224.95 126.948 224.687 126.368 224.272 125.902C224.444 125.635 224.605 125.38 224.754 125.14C225.042 125.229 225.338 125.277 225.637 125.277C225.971 125.277 226.306 125.221 226.631 125.108C227.394 124.844 228.009 124.297 228.361 123.57L229.325 121.581C229.679 120.854 229.727 120.033 229.462 119.269ZM189.148 123.348C188.854 123.246 188.619 123.037 188.483 122.757L187.52 120.768C187.384 120.489 187.365 120.174 187.467 119.881C187.569 119.587 187.78 119.351 188.059 119.216C188.219 119.138 188.392 119.099 188.565 119.099C188.693 119.099 188.822 119.121 188.947 119.164C189.24 119.266 189.476 119.475 189.611 119.755L190.575 121.744C190.71 122.023 190.729 122.338 190.627 122.631C190.598 122.716 190.557 122.794 190.511 122.868C190.426 122.717 190.379 122.632 190.377 122.628C190.213 122.326 189.836 122.216 189.534 122.379C189.233 122.543 189.122 122.92 189.285 123.221C189.293 123.236 189.329 123.302 189.386 123.403C189.306 123.393 189.226 123.375 189.148 123.348ZM193.636 130.358L192.252 128.636C192.058 128.394 191.968 128.091 192.002 127.782C192.009 127.718 192.024 127.656 192.041 127.596C192.126 127.715 192.212 127.835 192.299 127.956C192.42 128.123 192.61 128.212 192.802 128.212C192.928 128.212 193.056 128.174 193.166 128.093C193.444 127.892 193.505 127.503 193.304 127.226C193.191 127.071 193.08 126.915 192.972 126.761C193.033 126.752 193.095 126.746 193.156 126.746C193.497 126.746 193.834 126.895 194.063 127.18L195.448 128.902C195.661 129.167 195.735 129.498 195.685 129.81C195.585 129.719 195.526 129.664 195.524 129.661C195.274 129.426 194.881 129.437 194.646 129.687C194.41 129.937 194.422 130.33 194.672 130.565C194.685 130.578 194.755 130.643 194.867 130.746C194.429 130.872 193.939 130.734 193.636 130.358ZM200.971 135.876L199.099 134.702C198.771 134.496 198.584 134.152 198.559 133.792C198.708 133.902 198.858 134.012 199.01 134.122C199.12 134.202 199.248 134.24 199.373 134.24C199.566 134.24 199.756 134.151 199.877 133.982C200.078 133.704 200.015 133.316 199.737 133.115C199.543 132.975 199.353 132.834 199.166 132.693C199.336 132.602 199.526 132.555 199.718 132.555C199.929 132.555 200.142 132.612 200.334 132.732L202.206 133.906C202.603 134.155 202.795 134.605 202.738 135.042C202.619 134.926 202.552 134.848 202.541 134.834C202.324 134.567 201.933 134.526 201.667 134.742C201.401 134.958 201.36 135.349 201.576 135.616C201.594 135.639 201.717 135.785 201.939 135.993C201.624 136.093 201.271 136.064 200.971 135.876ZM216.07 134.702L214.198 135.876C213.752 136.156 213.191 136.09 212.815 135.758C212.888 135.681 212.931 135.628 212.942 135.616C213.157 135.35 213.116 134.962 212.851 134.746C212.736 134.651 212.595 134.607 212.456 134.608C212.527 134.328 212.699 134.072 212.963 133.907L214.835 132.732C215.201 132.504 215.643 132.508 215.999 132.697C215.813 132.836 215.625 132.976 215.432 133.115C215.154 133.316 215.091 133.704 215.292 133.982C215.413 134.151 215.603 134.24 215.796 134.24C215.921 134.24 216.049 134.202 216.159 134.122C216.311 134.012 216.461 133.902 216.61 133.792C216.585 134.152 216.398 134.496 216.07 134.702ZM223.167 127.781C223.201 128.09 223.112 128.393 222.918 128.635L221.534 130.357C221.231 130.733 220.74 130.871 220.303 130.744C220.415 130.642 220.485 130.577 220.498 130.564C220.747 130.329 220.759 129.936 220.524 129.686C220.289 129.436 219.896 129.425 219.646 129.66C219.643 129.662 219.584 129.718 219.484 129.809C219.435 129.497 219.508 129.166 219.722 128.901L221.106 127.179C221.377 126.843 221.797 126.702 222.195 126.765C222.088 126.918 221.978 127.071 221.866 127.225C221.664 127.502 221.726 127.891 222.003 128.092C222.113 128.172 222.241 128.211 222.368 128.211C222.56 128.211 222.749 128.122 222.871 127.955C222.958 127.834 223.043 127.715 223.128 127.594C223.145 127.656 223.16 127.718 223.167 127.781ZM227.649 120.768L226.686 122.757C226.55 123.037 226.315 123.246 226.021 123.348C225.943 123.375 225.863 123.393 225.783 123.402C225.84 123.301 225.875 123.235 225.883 123.221C226.046 122.919 225.935 122.543 225.634 122.379C225.332 122.215 224.956 122.326 224.792 122.628C224.79 122.632 224.743 122.717 224.658 122.867C224.612 122.793 224.571 122.715 224.542 122.631C224.44 122.337 224.458 122.022 224.594 121.742L225.557 119.754C225.693 119.474 225.929 119.265 226.222 119.163C226.515 119.061 226.831 119.079 227.11 119.215C227.389 119.35 227.599 119.586 227.701 119.879C227.804 120.173 227.785 120.489 227.649 120.768Z" fill="#F7C32F"/>
<path d="M226.606 117.234C227.057 117.234 227.505 117.336 227.923 117.539C228.65 117.891 229.196 118.506 229.462 119.269C229.726 120.032 229.679 120.853 229.326 121.58L228.362 123.569C228.01 124.296 227.395 124.842 226.632 125.108C226.307 125.221 225.972 125.277 225.637 125.277C225.339 125.277 225.043 125.228 224.755 125.139C224.606 125.379 224.445 125.634 224.273 125.901C224.688 126.367 224.95 126.948 225.019 127.581C225.106 128.384 224.875 129.173 224.369 129.803L222.985 131.525C222.388 132.267 221.51 132.653 220.624 132.653C219.991 132.653 219.354 132.453 218.813 132.047C218.63 132.2 218.436 132.361 218.231 132.528C218.807 133.873 218.338 135.479 217.06 136.28L215.188 137.454C214.69 137.767 214.134 137.916 213.585 137.916C212.741 137.916 211.916 137.559 211.331 136.907C210.39 137.454 209.039 137.967 207.258 137.967C205.731 137.967 204.521 137.588 203.612 137.136C203.05 137.642 202.323 137.915 201.583 137.915C201.034 137.915 200.479 137.766 199.981 137.453L198.108 136.279C196.831 135.478 196.361 133.873 196.938 132.528C196.732 132.36 196.538 132.2 196.356 132.046C195.814 132.453 195.178 132.653 194.544 132.653C193.659 132.653 192.78 132.267 192.183 131.524L190.799 129.802C190.293 129.173 190.062 128.383 190.149 127.58C190.219 126.947 190.481 126.367 190.896 125.901C190.724 125.634 190.563 125.379 190.414 125.138C190.126 125.227 189.83 125.276 189.531 125.276C189.197 125.276 188.862 125.22 188.537 125.107C187.774 124.842 187.159 124.296 186.807 123.568L185.843 121.58C185.491 120.853 185.442 120.032 185.707 119.268C185.972 118.505 186.518 117.891 187.246 117.538C187.664 117.336 188.112 117.234 188.563 117.234C188.897 117.234 189.232 117.29 189.557 117.403C190.321 117.668 190.935 118.214 191.287 118.942L192.251 120.93C192.604 121.657 192.652 122.478 192.387 123.242C192.21 123.753 191.904 124.195 191.505 124.538C191.628 124.737 191.758 124.943 191.897 125.16C192.299 124.976 192.73 124.886 193.159 124.886C194.043 124.886 194.919 125.27 195.515 126.012L196.9 127.734C197.695 128.724 197.763 130.066 197.177 131.112C197.328 131.239 197.488 131.371 197.654 131.508C198.222 130.978 198.968 130.693 199.726 130.693C200.273 130.693 200.826 130.842 201.324 131.153L203.196 132.327C204.486 133.136 204.952 134.764 204.35 136.116C205.089 136.453 206.055 136.724 207.258 136.724C208.785 136.724 209.929 136.289 210.711 135.836C210.286 134.545 210.772 133.081 211.974 132.327L213.846 131.153C214.343 130.841 214.897 130.693 215.444 130.693C216.201 130.693 216.947 130.977 217.515 131.507C217.682 131.371 217.842 131.238 217.993 131.111C217.407 130.065 217.474 128.723 218.27 127.733L219.655 126.011C220.251 125.27 221.127 124.885 222.011 124.885C222.44 124.885 222.871 124.976 223.272 125.16C223.412 124.943 223.542 124.737 223.665 124.537C223.266 124.194 222.96 123.752 222.783 123.241C222.518 122.478 222.566 121.657 222.919 120.93L223.882 118.941C224.234 118.214 224.849 117.668 225.612 117.402C225.936 117.29 226.272 117.234 226.606 117.234ZM189.387 123.402C189.33 123.301 189.294 123.235 189.286 123.221C189.122 122.919 189.234 122.542 189.535 122.378C189.629 122.327 189.73 122.303 189.831 122.303C190.051 122.303 190.265 122.421 190.377 122.628C190.379 122.632 190.426 122.717 190.511 122.868C190.557 122.794 190.598 122.716 190.627 122.631C190.729 122.338 190.71 122.022 190.575 121.743L189.611 119.755C189.476 119.475 189.24 119.266 188.947 119.164C188.822 119.12 188.693 119.099 188.565 119.099C188.392 119.099 188.22 119.138 188.059 119.216C187.78 119.351 187.57 119.587 187.468 119.88C187.366 120.174 187.384 120.489 187.52 120.768L188.483 122.757C188.619 123.036 188.855 123.246 189.148 123.348C189.226 123.375 189.306 123.392 189.387 123.402ZM224.658 122.868C224.743 122.717 224.789 122.632 224.791 122.628C224.904 122.421 225.117 122.303 225.338 122.303C225.438 122.303 225.539 122.327 225.634 122.378C225.935 122.542 226.046 122.919 225.883 123.221C225.875 123.234 225.839 123.301 225.782 123.402C225.862 123.392 225.943 123.375 226.021 123.348C226.314 123.246 226.55 123.036 226.686 122.757L227.649 120.768C227.785 120.489 227.803 120.174 227.701 119.88C227.599 119.587 227.389 119.351 227.11 119.216C226.949 119.138 226.777 119.099 226.604 119.099C226.476 119.099 226.347 119.12 226.222 119.164C225.929 119.266 225.693 119.475 225.558 119.755L224.594 121.743C224.459 122.023 224.44 122.338 224.542 122.632C224.571 122.715 224.612 122.794 224.658 122.868ZM192.801 128.211C192.609 128.211 192.419 128.122 192.298 127.955C192.21 127.834 192.125 127.715 192.04 127.595C192.023 127.656 192.009 127.717 192.001 127.781C191.967 128.09 192.057 128.393 192.251 128.635L193.635 130.357C193.864 130.642 194.202 130.79 194.542 130.79C194.651 130.79 194.76 130.775 194.866 130.744C194.754 130.642 194.684 130.576 194.671 130.564C194.421 130.329 194.409 129.935 194.645 129.686C194.767 129.556 194.931 129.491 195.097 129.491C195.25 129.491 195.403 129.547 195.522 129.66C195.525 129.662 195.584 129.718 195.684 129.809C195.733 129.497 195.66 129.166 195.446 128.901L194.062 127.179C193.832 126.893 193.495 126.745 193.155 126.745C193.093 126.745 193.031 126.75 192.97 126.76C193.079 126.914 193.189 127.069 193.302 127.225C193.504 127.502 193.442 127.89 193.165 128.092C193.055 128.173 192.928 128.211 192.801 128.211ZM219.483 129.81C219.583 129.718 219.642 129.663 219.645 129.66C219.765 129.547 219.918 129.491 220.071 129.491C220.236 129.491 220.401 129.556 220.523 129.686C220.758 129.936 220.746 130.329 220.496 130.564C220.483 130.577 220.414 130.642 220.302 130.745C220.407 130.776 220.517 130.791 220.626 130.791C220.966 130.791 221.303 130.643 221.532 130.358L222.916 128.636C223.111 128.394 223.2 128.091 223.166 127.782C223.159 127.718 223.144 127.656 223.127 127.595C223.042 127.715 222.956 127.835 222.869 127.956C222.748 128.123 222.558 128.212 222.366 128.212C222.24 128.212 222.112 128.173 222.002 128.093C221.724 127.892 221.663 127.503 221.865 127.226C221.976 127.072 222.086 126.918 222.194 126.766C222.132 126.756 222.07 126.751 222.008 126.751C221.669 126.751 221.334 126.896 221.105 127.18L219.72 128.902C219.508 129.167 219.434 129.497 219.483 129.81ZM199.374 134.24C199.248 134.24 199.121 134.201 199.011 134.122C198.858 134.012 198.708 133.901 198.56 133.791C198.583 134.151 198.77 134.495 199.098 134.701L200.97 135.875C201.159 135.994 201.369 136.049 201.576 136.049C201.699 136.049 201.822 136.03 201.938 135.992C201.716 135.785 201.593 135.638 201.575 135.615C201.359 135.349 201.4 134.958 201.666 134.742C201.781 134.648 201.919 134.603 202.056 134.603C202.237 134.603 202.417 134.681 202.539 134.833C202.551 134.847 202.617 134.925 202.737 135.041C202.794 134.604 202.601 134.154 202.205 133.905L200.333 132.731C200.141 132.61 199.928 132.553 199.717 132.553C199.524 132.553 199.335 132.601 199.165 132.692C199.352 132.833 199.542 132.974 199.736 133.114C200.014 133.315 200.077 133.703 199.876 133.981C199.756 134.15 199.566 134.24 199.374 134.24ZM212.456 134.608C212.457 134.608 212.458 134.608 212.459 134.608C212.598 134.608 212.736 134.652 212.851 134.745C213.115 134.962 213.157 135.35 212.942 135.616C212.931 135.628 212.888 135.68 212.815 135.758C213.031 135.949 213.307 136.051 213.589 136.051C213.797 136.051 214.008 135.995 214.198 135.876L216.07 134.702C216.399 134.496 216.585 134.151 216.609 133.792C216.461 133.902 216.311 134.012 216.158 134.122C216.048 134.202 215.921 134.24 215.795 134.24C215.602 134.24 215.413 134.151 215.291 133.983C215.091 133.705 215.153 133.316 215.431 133.116C215.624 132.976 215.812 132.836 215.999 132.697C215.828 132.606 215.636 132.558 215.443 132.558C215.235 132.558 215.025 132.614 214.835 132.733L212.963 133.907C212.699 134.072 212.526 134.328 212.456 134.608ZM226.606 116.412C226.177 116.412 225.752 116.484 225.342 116.626C224.37 116.963 223.589 117.659 223.141 118.583L222.177 120.571C221.729 121.496 221.667 122.54 222.004 123.511C222.071 123.704 222.154 123.891 222.25 124.071C222.171 124.066 222.091 124.064 222.01 124.064C220.837 124.064 219.745 124.586 219.012 125.497L217.628 127.219C216.956 128.054 216.677 129.101 216.809 130.12C216.377 129.957 215.916 129.871 215.443 129.871C214.723 129.871 214.019 130.074 213.408 130.457L211.536 131.632C210.24 132.444 209.571 133.922 209.768 135.396C209.01 135.733 208.168 135.903 207.258 135.903C206.591 135.903 205.955 135.809 205.361 135.624C205.654 134.097 204.992 132.485 203.632 131.632L201.76 130.457C201.148 130.074 200.445 129.871 199.725 129.871C199.252 129.871 198.789 129.957 198.358 130.12C198.491 129.102 198.211 128.055 197.54 127.219L196.156 125.496C195.424 124.586 194.331 124.063 193.158 124.063C193.078 124.063 192.998 124.065 192.918 124.07C193.014 123.891 193.097 123.704 193.163 123.511C193.501 122.54 193.439 121.495 192.991 120.571L192.027 118.583C191.58 117.658 190.798 116.963 189.827 116.626C189.417 116.484 188.992 116.412 188.562 116.412C187.98 116.412 187.416 116.542 186.886 116.798C185.962 117.246 185.266 118.028 184.93 118.999C184.592 119.97 184.654 121.015 185.102 121.94L186.066 123.928C186.514 124.853 187.296 125.548 188.267 125.885C188.677 126.027 189.102 126.099 189.531 126.099C189.608 126.099 189.686 126.097 189.764 126.092C189.532 126.523 189.385 126.995 189.331 127.491C189.22 128.513 189.514 129.517 190.158 130.318L191.542 132.04C192.275 132.953 193.37 133.476 194.544 133.476C195.013 133.476 195.469 133.392 195.898 133.229C195.706 134.688 196.366 136.158 197.671 136.976L199.543 138.15C200.156 138.535 200.861 138.738 201.583 138.738C202.349 138.738 203.091 138.511 203.72 138.091C204.814 138.554 206.002 138.789 207.257 138.789C208.678 138.789 210.002 138.493 211.2 137.908C211.874 138.441 212.715 138.737 213.584 138.737C214.306 138.737 215.011 138.534 215.624 138.15L217.495 136.976C218.801 136.157 219.46 134.688 219.268 133.229C219.697 133.391 220.154 133.475 220.622 133.475C221.797 133.475 222.891 132.952 223.624 132.039L225.009 130.317C225.652 129.516 225.946 128.512 225.835 127.49C225.781 126.994 225.634 126.521 225.402 126.091C225.48 126.095 225.558 126.098 225.635 126.098C226.065 126.098 226.49 126.026 226.899 125.884C227.871 125.547 228.652 124.852 229.1 123.927L230.064 121.939C230.512 121.014 230.574 119.969 230.236 118.999C229.899 118.027 229.204 117.246 228.28 116.798C227.752 116.542 227.188 116.412 226.606 116.412ZM188.931 121.795L188.259 120.409C188.219 120.326 188.214 120.236 188.244 120.149C188.274 120.062 188.334 119.995 188.416 119.955C188.464 119.932 188.514 119.92 188.564 119.92C188.601 119.92 188.639 119.927 188.676 119.94C188.763 119.97 188.831 120.03 188.871 120.112L189.547 121.508C189.406 121.537 189.269 121.586 189.142 121.655C189.067 121.697 188.996 121.744 188.931 121.795ZM225.621 121.509L226.297 120.113C226.337 120.031 226.405 119.971 226.492 119.941C226.529 119.928 226.567 119.922 226.604 119.922C226.654 119.922 226.704 119.933 226.751 119.956C226.834 119.996 226.894 120.064 226.924 120.151C226.954 120.237 226.949 120.327 226.909 120.41L226.237 121.796C226.172 121.744 226.102 121.697 226.026 121.656C225.899 121.587 225.762 121.537 225.621 121.509ZM193.487 128.86C193.543 128.83 193.597 128.796 193.648 128.758C193.785 128.659 193.9 128.54 193.993 128.404L194.365 128.868C194.248 128.936 194.14 129.022 194.045 129.122C193.98 129.191 193.924 129.265 193.874 129.343L193.487 128.86ZM220.802 128.868L221.175 128.405C221.267 128.54 221.383 128.659 221.519 128.758C221.571 128.796 221.625 128.83 221.681 128.86L221.293 129.343C221.244 129.266 221.187 129.192 221.122 129.123C221.028 129.022 220.92 128.937 220.802 128.868ZM213.666 134.436L214.395 133.979C214.44 134.151 214.517 134.315 214.624 134.464C214.653 134.504 214.684 134.543 214.716 134.579L213.894 135.095C213.873 134.863 213.797 134.636 213.666 134.436ZM200.452 134.579C200.485 134.542 200.516 134.504 200.544 134.464C200.652 134.315 200.728 134.151 200.773 133.979L201.075 134.168C200.901 134.329 200.776 134.524 200.7 134.735L200.452 134.579Z" fill="#000072"/>
<path d="M210.804 145.2C210.305 144.532 209.58 144.024 208.657 143.695C208.4 143.601 208.049 143.506 207.585 143.404C206.838 143.239 206.667 143.07 206.662 143.064C206.626 143.022 206.603 142.982 206.587 142.935C206.566 142.874 206.555 142.799 206.555 142.709C206.555 142.346 206.669 142.187 206.754 142.099C206.843 142.008 206.987 141.904 207.32 141.904C207.63 141.904 207.77 142.003 207.848 142.078C207.929 142.155 208.04 142.296 208.062 142.622C208.093 143.07 208.465 143.417 208.915 143.417H210.469C210.704 143.417 210.929 143.32 211.09 143.149C211.251 142.977 211.335 142.748 211.321 142.512C211.262 141.515 210.962 140.675 210.429 140.014C210.027 139.519 209.53 139.162 208.943 138.948V137.884C208.943 137.413 208.561 137.03 208.089 137.03H206.64C206.168 137.03 205.785 137.412 205.785 137.884V138.939C205.119 139.18 204.565 139.581 204.132 140.137C203.569 140.86 203.284 141.758 203.284 142.806C203.284 143.817 203.599 144.661 204.22 145.313C204.804 145.928 205.651 146.372 206.813 146.67L207.114 146.745C207.875 146.927 208.094 147.17 208.152 147.264C208.172 147.297 208.2 147.357 208.225 147.461C208.25 147.568 208.263 147.693 208.263 147.832C208.263 148.297 208.113 148.504 207.999 148.621C207.89 148.732 207.694 148.881 207.255 148.881C206.871 148.881 206.595 148.801 206.436 148.642C206.267 148.475 206.171 148.177 206.15 147.757C206.127 147.303 205.751 146.946 205.296 146.946H203.799C203.571 146.946 203.353 147.037 203.193 147.198C203.032 147.359 202.943 147.577 202.944 147.805C202.951 148.957 203.276 149.932 203.913 150.703C204.407 151.302 205.035 151.72 205.785 151.95V153.256C205.785 153.727 206.168 154.11 206.64 154.11H208.089C208.56 154.11 208.943 153.728 208.943 153.256V151.852C209.625 151.612 210.205 151.174 210.673 150.543C211.271 149.738 211.574 148.758 211.574 147.63C211.573 146.701 211.315 145.883 210.804 145.2Z" fill="#F7C32F"/>
<path d="M208.087 137.03C208.559 137.03 208.942 137.413 208.942 137.885V138.949C209.529 139.162 210.026 139.519 210.427 140.015C210.961 140.676 211.261 141.516 211.32 142.513C211.334 142.748 211.25 142.978 211.089 143.149C210.928 143.32 210.702 143.418 210.467 143.418H208.913C208.465 143.418 208.092 143.07 208.061 142.622C208.039 142.295 207.928 142.155 207.847 142.078C207.768 142.004 207.629 141.904 207.318 141.904C206.985 141.904 206.841 142.008 206.753 142.099C206.668 142.187 206.554 142.345 206.554 142.71C206.554 142.799 206.564 142.875 206.585 142.935C206.601 142.983 206.625 143.023 206.66 143.064C206.666 143.07 206.837 143.239 207.584 143.404C208.048 143.506 208.399 143.601 208.656 143.695C209.58 144.025 210.303 144.532 210.804 145.2C211.314 145.883 211.573 146.701 211.573 147.63C211.573 148.757 211.27 149.737 210.672 150.543C210.204 151.174 209.624 151.612 208.942 151.852V153.255C208.942 153.727 208.56 154.11 208.088 154.11H206.639C206.167 154.11 205.785 153.727 205.785 153.255V151.95C205.034 151.719 204.406 151.302 203.912 150.704C203.276 149.933 202.95 148.957 202.943 147.805C202.942 147.578 203.032 147.359 203.192 147.198C203.352 147.037 203.57 146.946 203.798 146.946H205.295C205.75 146.946 206.125 147.303 206.148 147.758C206.17 148.178 206.266 148.475 206.434 148.643C206.594 148.801 206.869 148.881 207.254 148.881C207.693 148.881 207.889 148.733 207.998 148.621C208.111 148.505 208.261 148.298 208.261 147.833C208.261 147.694 208.249 147.569 208.223 147.461C208.199 147.357 208.17 147.296 208.151 147.265C208.093 147.17 207.874 146.927 207.112 146.745L206.811 146.67C205.65 146.372 204.803 145.929 204.218 145.313C203.598 144.661 203.283 143.817 203.283 142.807C203.283 141.759 203.569 140.86 204.131 140.137C204.563 139.581 205.118 139.18 205.784 138.939V137.885C205.784 137.413 206.166 137.03 206.638 137.03H208.087ZM208.087 136.208H206.638C205.714 136.208 204.961 136.96 204.961 137.885V138.401C204.383 138.698 203.888 139.11 203.481 139.631C202.803 140.503 202.46 141.571 202.46 142.806C202.46 144.035 202.851 145.069 203.622 145.88C203.702 145.964 203.786 146.045 203.873 146.123H203.797C203.354 146.123 202.92 146.304 202.608 146.618C202.291 146.938 202.117 147.361 202.12 147.81C202.128 149.156 202.517 150.305 203.277 151.227C203.742 151.79 204.307 152.222 204.961 152.517V153.255C204.961 154.179 205.714 154.932 206.638 154.932H208.087C209.012 154.932 209.764 154.179 209.764 153.255V152.39C210.369 152.078 210.894 151.623 211.332 151.033C212.037 150.082 212.395 148.937 212.395 147.629C212.395 146.518 212.081 145.535 211.462 144.707C211.316 144.512 211.156 144.329 210.98 144.158C211.247 144.072 211.492 143.919 211.687 143.713C212.003 143.377 212.168 142.921 212.141 142.462C212.071 141.291 211.711 140.293 211.067 139.496C210.699 139.042 210.263 138.679 209.764 138.414V137.883C209.764 136.96 209.012 136.208 208.087 136.208ZM207.017 148.038C207.001 147.986 206.978 147.886 206.97 147.715C206.967 147.66 206.961 147.606 206.954 147.553C207.21 147.617 207.357 147.68 207.434 147.721C207.436 147.75 207.439 147.787 207.439 147.833C207.439 147.965 207.419 148.026 207.413 148.042C207.394 148.047 207.346 148.059 207.254 148.059C207.136 148.058 207.061 148.047 207.017 148.038Z" fill="#000072"/>
<path d="M225.517 34.409C225.517 34.409 232.623 40.0937 243.008 39.8025C243.008 39.8025 244.653 48.8934 233.387 50.4788C222.122 52.0648 225.517 34.409 225.517 34.409Z" fill="#33A3FF"/>
<g opacity="0.7">
<path d="M225.243 36.6023C225.243 36.6023 232.348 42.2871 242.734 41.9958C242.734 41.9958 242.827 42.5097 242.817 43.3131C243.291 41.3679 243.008 39.8022 243.008 39.8022C232.623 40.0934 225.517 34.4087 225.517 34.4087C225.517 34.4087 225.319 35.4403 225.178 36.9807C225.216 36.7383 225.243 36.6023 225.243 36.6023Z" fill="white"/>
</g>
<g opacity="0.3">
<path d="M242.765 39.8051C241.658 42.1364 239.214 44.5263 233.936 45.2694C226.783 46.2763 225.541 39.526 225.587 34.4631C225.543 34.4291 225.517 34.4088 225.517 34.4088C225.517 34.4088 222.122 52.0646 233.388 50.4792C244.653 48.8938 243.008 39.8029 243.008 39.8029C242.927 39.8046 242.847 39.8035 242.765 39.8051Z" fill="#000072"/>
</g>
<path d="M232.006 51.6775C229.862 51.6775 228.102 50.9673 226.76 49.5563C222.425 44.9974 224.356 34.6408 224.441 34.2021C224.513 33.8248 224.778 33.5128 225.138 33.3801C225.498 33.2473 225.901 33.3121 226.201 33.5517C226.269 33.606 233.146 38.9721 242.977 38.7067C243.529 38.688 243.991 39.0741 244.087 39.6077C244.116 39.7684 244.772 43.5886 242.336 46.9579C240.537 49.4471 237.578 50.9969 233.54 51.5651C233.009 51.6396 232.498 51.6775 232.006 51.6775ZM226.35 36.3184C226.011 39.2661 225.708 45.2689 228.351 48.046C229.5 49.253 231.097 49.6934 233.235 49.3934C236.645 48.9135 239.103 47.6692 240.542 45.6955C241.805 43.9637 242.003 42.0218 241.992 40.9096C234.556 40.8487 228.918 37.9384 226.35 36.3184Z" fill="#000072"/>
<path d="M230.702 116.598C218.618 122.896 204.614 124.646 191.354 121.514C186.747 120.428 181.957 118.69 177.696 115.942C177.693 115.94 177.691 115.937 177.691 115.937C168.028 109.707 161.093 98.2757 165.225 77.4419C165.225 77.4419 155.694 70.118 162.601 59.2952C169.511 48.4698 180.564 56.6053 180.564 56.6053C180.564 56.6053 185.305 50.3289 202.174 48.2203C219.046 46.1117 225.185 51.0308 225.185 51.0308L225.188 51.0281C225.267 50.9294 226.858 49.0374 229.364 47.5403C232.783 45.5002 237.916 44.1977 243.257 49.2156C252.616 58.0065 245.18 67.45 245.18 67.45C258.339 95.0812 244.423 109.447 230.702 116.598Z" fill="white"/>
<path d="M211.036 119.107C221.518 117.797 229.072 109.187 227.908 99.8763C226.745 90.5652 217.304 84.0789 206.823 85.3887C196.341 86.6986 188.787 95.3085 189.951 104.62C191.114 113.931 200.555 120.417 211.036 119.107Z" fill="#D3D3DD"/>
<path d="M166.867 62.3198C169.767 58.1569 173.047 58.6905 175.025 59.6074C175.983 60.0516 176.207 61.3234 175.472 62.0829C172.114 65.5543 170.591 68.4899 169.902 70.372C169.505 71.4562 168.08 71.7397 167.309 70.8804C165.733 69.1233 164.217 66.1235 166.867 62.3198Z" fill="#D3D3DD"/>
<path d="M239.86 53.4036C236.024 50.0825 232.977 51.4069 231.286 52.7818C230.466 53.4486 230.563 54.7357 231.462 55.2912C235.571 57.8298 237.769 60.2998 238.9 61.9543C239.551 62.9074 241.002 62.8318 241.538 61.809C242.634 59.7185 243.364 56.4379 239.86 53.4036Z" fill="#D3D3DD"/>
<g opacity="0.3">
<path d="M204.446 94.9605C204.446 94.9605 203.648 103.197 194.521 97.7858C194.521 97.7858 193.97 113.534 210.6 111.647C225.102 110.002 221.834 94.213 221.834 94.213C221.834 94.213 213.891 102.892 210.189 93.6087L204.446 94.9605Z" fill="#000072"/>
</g>
<g opacity="0.3">
<path d="M230.702 116.598C218.618 122.896 204.614 124.646 191.354 121.514C186.747 120.428 181.957 118.69 177.696 115.942C177.693 115.94 177.69 115.937 177.69 115.937C177.69 115.937 168.765 99.3094 187.567 88.0863C187.567 88.0863 194.474 91.0778 189.832 99.2765C187.842 102.789 186.09 105.961 184.737 108.44C183.159 111.333 184.69 114.949 187.87 115.811C194.62 117.643 206.16 119.636 217.932 116.466C235.493 111.736 252.315 96.8542 241.135 71.6408C240.256 69.6589 240.045 67.4417 240.576 65.3403C241.753 60.6887 241.947 48.5465 225.184 51.0308L225.187 51.0281L229.363 47.5402C232.782 45.5002 237.915 44.1977 243.257 49.2156C252.615 58.0065 245.179 67.45 245.179 67.45C258.338 95.0812 244.423 109.447 230.702 116.598Z" fill="#000072"/>
</g>
<path d="M207.042 87.1688C207.042 87.1688 203.502 87.534 201.249 89.2461C200.281 89.9826 199.94 91.2971 200.413 92.4181C201.253 94.4066 203.346 97.3997 208.243 96.7877C213.086 96.1823 214.403 92.8348 214.746 90.6966C214.949 89.4287 214.255 88.197 213.065 87.715C210.472 86.6648 207.042 87.1688 207.042 87.1688Z" fill="#000072"/>
<path d="M209.181 95.5564L209.204 95.7933C209.215 95.8843 209.228 95.9775 209.244 96.0708C209.274 96.2572 209.319 96.4426 209.363 96.6263C209.454 96.9932 209.579 97.3469 209.733 97.6754C210.034 98.3401 210.475 98.8813 211.016 99.286C212.1 100.099 213.696 100.302 215.323 100.137C216.14 100.059 216.949 99.9145 217.68 99.6469C218.046 99.5136 218.399 99.3639 218.728 99.1791C219.051 98.9899 219.354 98.7755 219.625 98.5271C219.89 98.2753 220.124 97.9924 220.319 97.6792C220.511 97.3644 220.673 97.0283 220.824 96.6707C221.129 95.9551 221.355 95.156 221.612 94.2429L221.617 94.2281C221.638 94.1525 221.717 94.108 221.793 94.1294C221.826 94.1387 221.853 94.159 221.871 94.1854C222.167 94.612 222.331 95.0864 222.422 95.5805C222.514 96.0746 222.518 96.5896 222.435 97.0996C222.274 98.1245 221.736 99.1007 221.027 99.8915C220.665 100.283 220.257 100.624 219.826 100.921C219.39 101.209 218.935 101.459 218.465 101.652C217.525 102.049 216.557 102.268 215.595 102.411C214.628 102.553 213.615 102.575 212.58 102.42C211.55 102.274 210.484 101.883 209.585 101.21C208.676 100.549 207.998 99.6069 207.582 98.6263C207.374 98.1328 207.228 97.6255 207.125 97.1155C207.074 96.8605 207.04 96.6033 207.017 96.3433C207.004 96.2134 206.996 96.0834 206.991 95.9501C206.986 95.8092 206.983 95.7011 206.988 95.5141C207.005 94.9103 207.508 94.4343 208.112 94.4513C208.669 94.4667 209.117 94.8961 209.17 95.4368L209.181 95.5564Z" fill="#000072"/>
<path d="M209.141 95.2452C209.192 95.425 209.215 95.5309 209.245 95.6685C209.273 95.7985 209.297 95.9268 209.317 96.0557C209.358 96.3129 209.389 96.5706 209.401 96.8306C209.428 97.3499 209.411 97.8775 209.331 98.4072C209.168 99.4596 208.743 100.54 208.024 101.404C207.319 102.278 206.382 102.919 205.419 103.314C204.454 103.719 203.467 103.947 202.495 104.047C201.528 104.146 200.535 104.171 199.526 104.018C199.023 103.947 198.52 103.816 198.027 103.644C197.537 103.462 197.057 103.232 196.61 102.941C195.727 102.35 194.966 101.536 194.558 100.582C194.353 100.108 194.229 99.6077 194.197 99.1065C194.163 98.6052 194.206 98.1051 194.388 97.6186C194.415 97.5446 194.497 97.5073 194.571 97.5347C194.603 97.5468 194.628 97.5693 194.644 97.5967L194.652 97.6104C195.126 98.4325 195.543 99.1509 196.014 99.7695C196.247 100.079 196.489 100.365 196.752 100.623C197.018 100.878 197.313 101.095 197.633 101.274C197.956 101.448 198.302 101.581 198.662 101.684C199.027 101.783 199.406 101.841 199.793 101.88C200.568 101.96 201.386 101.901 202.199 101.776C203.815 101.536 205.312 100.945 206.163 99.8912C206.587 99.3664 206.882 98.733 207.01 98.0146C207.078 97.6581 207.112 97.2847 207.111 96.9063C207.108 96.7176 207.106 96.5268 207.089 96.3387C207.082 96.2449 207.072 96.1506 207.06 96.0601L207.024 95.8248L207.006 95.7069C206.916 95.1097 207.327 94.5525 207.924 94.462C208.476 94.3792 208.993 94.7225 209.141 95.2452Z" fill="#000072"/>
<path d="M217.991 100.683C217.991 100.683 209.543 103.702 208.186 96.3662C208.677 103.81 199.746 102.962 199.746 102.962C199.746 102.962 201.363 111.767 209.977 110.694C218.591 109.614 217.991 100.683 217.991 100.683Z" fill="#000072"/>
<path d="M209.116 103.8C203.392 104.515 202.462 108.236 202.462 108.236C204.803 111.414 209.978 110.694 209.978 110.694C209.978 110.694 215.17 110.119 216.657 106.462C216.657 106.462 214.84 103.085 209.116 103.8Z" fill="#FC3888"/>
<path d="M208.576 111.88C202.052 111.88 199.248 106.32 198.668 103.16C198.606 102.822 198.706 102.475 198.939 102.221C199.171 101.968 199.508 101.839 199.851 101.87C199.888 101.874 203.846 102.21 205.887 100.219C206.807 99.322 207.201 98.0848 207.093 96.4374C207.054 95.8577 207.475 95.3494 208.051 95.277C208.628 95.2035 209.16 95.5945 209.266 96.1659C209.566 97.7892 210.253 98.8909 211.365 99.5342C213.834 100.962 217.586 99.6614 217.624 99.6483C217.947 99.5331 218.307 99.577 218.594 99.7656C218.88 99.9543 219.063 100.266 219.086 100.608C219.318 104.054 217.741 110.825 210.115 111.781C209.58 111.849 209.067 111.88 208.576 111.88ZM201.202 104.074C201.99 106.255 204.225 110.309 209.842 109.606C215.456 108.901 216.627 104.427 216.855 102.118C215.198 102.458 212.481 102.709 210.277 101.439C209.648 101.077 209.106 100.622 208.651 100.076C208.345 100.718 207.932 101.292 207.411 101.797C205.586 103.57 202.891 103.995 201.202 104.074Z" fill="#000072"/>
<path d="M193.952 82.4185C194.035 79.2463 192.08 76.6218 189.585 76.5567C187.09 76.4916 185 79.0104 184.917 82.1826C184.835 85.3549 186.79 87.9793 189.285 88.0445C191.78 88.1096 193.869 85.5908 193.952 82.4185Z" fill="#000072"/>
<path d="M192.321 81.4117C192.351 80.2787 191.653 79.3413 190.761 79.318C189.87 79.2948 189.124 80.1944 189.094 81.3274C189.065 82.4604 189.763 83.3978 190.654 83.421C191.545 83.4443 192.292 82.5447 192.321 81.4117Z" fill="white"/>
<path d="M224.476 83.655C226.878 82.9779 228.127 79.9531 227.266 76.8989C226.406 73.8447 223.76 71.9176 221.358 72.5947C218.956 73.2718 217.707 76.2966 218.568 79.3508C219.429 82.405 222.074 84.3321 224.476 83.655Z" fill="#000072"/>
<path d="M222.009 79.5109C222.867 79.2691 223.313 78.1887 223.005 77.0979C222.698 76.007 221.753 75.3188 220.895 75.5606C220.037 75.8024 219.591 76.8828 219.899 77.9736C220.206 79.0645 221.151 79.7527 222.009 79.5109Z" fill="white"/>
<path d="M207.422 90.1926C209.349 89.9518 210.865 89.3912 210.809 88.9404C210.753 88.4896 209.145 88.3193 207.218 88.5601C205.291 88.8008 203.775 89.3615 203.831 89.8123C203.888 90.2631 205.495 90.4334 207.422 90.1926Z" fill="white"/>
<path d="M204.414 124.133C199.962 124.133 195.495 123.62 191.103 122.583C181.584 120.336 174.332 116.13 169.55 110.083C163.324 102.21 161.468 91.3679 164.03 77.8531C162.023 75.9967 155.316 68.6761 161.679 58.7051C163.807 55.3703 166.532 53.373 169.778 52.7681C174.366 51.9126 178.647 54.1106 180.394 55.1816C182.273 53.3675 188.205 48.8613 202.039 47.1327C215.874 45.4031 222.732 48.3118 225 49.6076C226.429 48.1396 230.039 44.9567 234.696 44.6556C237.99 44.4439 241.124 45.708 244.007 48.4171C252.628 56.5148 247.929 65.2607 246.441 67.5541C252.25 80.0231 253.118 90.9884 249.022 100.152C245.875 107.19 239.882 113.051 231.208 117.572C222.881 121.912 213.68 124.132 204.414 124.133ZM171.89 54.7703C171.322 54.7703 170.746 54.818 170.167 54.9271C167.548 55.4191 165.314 57.0873 163.528 59.8853C160.881 64.0339 160.473 68.0948 162.315 71.9556C163.705 74.8681 165.873 76.5561 165.895 76.5726C166.226 76.8265 166.384 77.2466 166.303 77.6557C160.536 106.726 176.88 116.972 191.607 120.448C204.627 123.522 218.331 121.809 230.195 115.626C243.613 108.633 256.933 94.6792 244.191 67.9221C244.011 67.5453 244.061 67.0995 244.319 66.7721C244.594 66.4189 250.999 57.9933 242.506 50.0157C240.087 47.7431 237.511 46.6737 234.851 46.8437C229.864 47.1585 226.071 51.6823 226.033 51.7278C225.651 52.1895 224.968 52.2608 224.501 51.8863C224.448 51.8451 218.389 47.3005 202.312 49.3088C186.236 51.3181 181.482 57.214 181.436 57.2732C181.071 57.7421 180.394 57.8419 179.915 57.4893C179.873 57.4597 176.14 54.7703 171.89 54.7703Z" fill="#000072"/>
<path d="M186.831 95.0762C185.534 95.0762 184.242 94.8919 182.987 94.519C176.821 92.6879 174.822 87.5071 174.23 83.484C173.78 80.4174 175.17 77.3244 177.772 75.603C185.803 70.2911 194.035 70.7595 198.227 71.5124C198.227 71.5124 198.227 71.5124 198.228 71.5124C200.769 71.9687 202.648 74.0943 202.795 76.6828C203.368 86.7245 197.197 91.4792 193.468 93.42C191.358 94.5179 189.087 95.0762 186.831 95.0762ZM193.066 73.1511C189.078 73.1511 183.956 74.0236 178.927 77.3496C176.999 78.6247 175.969 80.9137 176.302 83.1802C176.805 86.6006 178.476 90.9955 183.583 92.5129C186.495 93.3778 189.663 93.0405 192.502 91.5636C196.509 89.4781 201.185 85.2241 200.705 76.8029C200.612 75.1862 199.442 73.8579 197.857 73.5739C196.605 73.3485 194.964 73.1511 193.066 73.1511Z" fill="#64ACF4"/>
<path d="M200.407 73.0394L178.061 75.8272L178.256 77.3852L200.601 74.5974L200.407 73.0394Z" fill="#64ACF4"/>
<path d="M201.683 76.9105L175.221 80.2118L175.416 81.7698L201.877 78.4685L201.683 76.9105Z" fill="#64ACF4"/>
<path d="M201.309 80.9879L175.717 84.1808L175.911 85.7388L201.503 82.5459L201.309 80.9879Z" fill="#64ACF4"/>
<path d="M199.759 85.2119L176.879 88.0665L177.073 89.6244L199.953 86.7699L199.759 85.2119Z" fill="#64ACF4"/>
<path d="M195.949 89.7179L180.621 91.6302L180.815 93.1882L196.143 91.2759L195.949 89.7179Z" fill="#64ACF4"/>
<path d="M225.084 90.2963C223.958 90.2963 222.819 90.1642 221.684 89.8965C217.592 88.9325 210.442 85.8406 208.528 75.9671C208.035 73.422 209.332 70.8994 211.684 69.8322C215.561 68.0723 223.425 65.593 232.517 68.7672C235.462 69.7954 237.57 72.4524 237.887 75.5355C238.304 79.58 237.64 85.0931 232.113 88.3846C229.992 89.6487 227.574 90.2963 225.084 90.2963ZM223.546 69.3337C218.789 69.3337 214.887 70.6778 212.548 71.739C211.083 72.4036 210.275 73.9786 210.583 75.5685C212.188 83.8493 217.767 86.8228 222.164 87.8587C225.278 88.593 228.431 88.1406 231.042 86.5864C235.62 83.8597 236.159 79.1885 235.805 75.75C235.57 73.4708 234.008 71.5059 231.826 70.7436C228.894 69.7203 226.097 69.3337 223.546 69.3337Z" fill="#64ACF4"/>
<path d="M232.286 69.0596L209.941 71.8474L210.135 73.4054L232.481 70.6175L232.286 69.0596Z" fill="#64ACF4"/>
<path d="M236.117 72.6119L209.656 75.9133L209.85 77.4713L236.311 74.1699L236.117 72.6119Z" fill="#64ACF4"/>
<path d="M236.612 76.5808L211.02 79.7737L211.214 81.3317L236.807 78.1388L236.612 76.5808Z" fill="#64ACF4"/>
<path d="M236.442 80.6319L213.562 83.4865L213.756 85.0444L236.636 82.1899L236.442 80.6319Z" fill="#64ACF4"/>
<path d="M233.689 85.006L218.362 86.9183L218.556 88.4763L233.884 86.564L233.689 85.006Z" fill="#64ACF4"/>
<path d="M202.43 76.349L200.725 75.1348C200.797 75.0328 202.535 72.633 205.304 72.281C206.975 72.0687 208.618 72.6303 210.187 73.9497L208.84 75.5522C207.736 74.6237 206.633 74.2212 205.568 74.3572C203.728 74.5914 202.442 76.3315 202.43 76.349Z" fill="#64ACF4"/>
<path d="M203.389 16.0861C204.07 18.8863 202.351 21.7116 199.55 22.3928C197.421 22.9105 195.281 22.0429 194.077 20.3659C193.695 19.8383 193.408 19.2279 193.244 18.5534C192.562 15.7505 194.282 12.9279 197.083 12.2468C197.541 12.1355 198.001 12.0883 198.452 12.0998C200.752 12.159 202.819 13.7445 203.389 16.0861Z" fill="#33A3FF"/>
<g opacity="0.7">
<path d="M194.615 19.9255C193.933 17.1226 195.653 14.3 198.454 13.6189C198.912 13.5076 199.372 13.4604 199.823 13.4719C200.84 13.4977 201.81 13.8229 202.626 14.3784C201.688 13.0047 200.134 12.1437 198.452 12.1009C198.001 12.0894 197.541 12.1366 197.083 12.2479C194.282 12.929 192.562 15.7516 193.244 18.5545C193.408 19.2285 193.695 19.8389 194.077 20.367C194.436 20.8671 194.879 21.2932 195.38 21.6338C195.033 21.1293 194.768 20.5567 194.615 19.9255Z" fill="white"/>
</g>
<g opacity="0.3">
<path d="M203.387 16.0862C204.068 18.8863 202.348 21.7117 199.548 22.3928C197.419 22.9105 195.278 22.0429 194.074 20.3659C197.078 19.1413 200.035 16.7399 198.45 12.0998C200.749 12.1591 202.817 13.7445 203.387 16.0862Z" fill="#000072"/>
</g>
<path d="M198.303 23.6393C197.159 23.6393 196.033 23.3261 195.03 22.7158C193.589 21.8383 192.576 20.4525 192.177 18.8128C191.778 17.1731 192.041 15.4769 192.919 14.0351C193.796 12.5939 195.182 11.5805 196.822 11.1812C198.461 10.7831 200.157 11.0458 201.599 11.9232C203.04 12.8007 204.054 14.1865 204.453 15.8262C204.852 17.4659 204.589 19.1627 203.711 20.6039C202.834 22.0451 201.448 23.0585 199.808 23.4578C199.309 23.579 198.804 23.6393 198.303 23.6393ZM198.315 13.1955C197.993 13.1955 197.666 13.2334 197.34 13.3129C195.131 13.8503 193.771 16.085 194.308 18.294C194.846 20.503 197.081 21.863 199.289 21.3261C201.499 20.7887 202.859 18.5539 202.321 16.3444C201.863 14.4618 200.172 13.1955 198.315 13.1955Z" fill="#000072"/>
<path d="M198.314 17.32C230.692 13.2739 229.972 47.1969 229.972 47.1969C227.164 48.9315 225.186 51.0303 225.186 51.0303C225.186 51.0303 215.954 54.5527 203.166 56.1507C190.378 57.7487 180.564 56.607 180.564 56.607C180.564 56.607 178.13 55.0599 174.982 54.0695C174.982 54.069 165.936 21.3661 198.314 17.32Z" fill="#33A3FF"/>
<g opacity="0.7">
<path d="M198.314 17.32C165.936 21.3661 174.982 54.0689 174.982 54.0689C175.681 54.2888 176.343 54.5373 176.954 54.789C176.356 52.0755 174.925 43.7996 177.492 35.8412C178.556 36.145 180.162 34.9045 181.204 32.9187C182.229 30.967 182.35 28.979 181.543 28.2436C185.194 23.7363 191.101 20.141 200.507 18.9657C209.21 17.8783 215.519 19.5361 220.096 22.5391C215.409 18.5336 208.5 16.0471 198.314 17.32Z" fill="white"/>
</g>
<g opacity="0.3">
<path d="M214.397 19.0244C220.701 24.4487 222.962 32.6253 223.77 38.0441C223.905 38.9446 223.892 39.8489 223.743 40.7263C223.398 42.7593 222.263 44.5745 220.665 45.8775L218.168 47.9126C216.906 48.3595 210.198 50.9875 197.41 52.5861C184.621 54.1841 174.807 53.0423 174.807 53.0423C174.807 53.0423 174.776 53.0226 174.728 52.9935C174.877 53.684 174.983 54.0695 174.983 54.0695C178.132 55.0599 180.565 56.607 180.565 56.607C180.565 56.607 190.38 57.7493 203.168 56.1507C215.956 54.5526 225.187 51.0303 225.187 51.0303C225.187 51.0303 227.165 48.9321 229.974 47.1969C229.973 47.1969 230.425 25.8065 214.397 19.0244Z" fill="#000072"/>
</g>
<path d="M187.292 57.2497C182.619 42.9661 184.06 33.0608 186.092 27.2664C188.321 20.911 191.669 17.999 191.81 17.8783L192.879 19.1287L192.344 18.5035L192.88 19.1276C192.848 19.155 189.677 21.9398 187.606 27.9223C185.688 33.4634 184.348 42.96 188.856 56.7386L187.292 57.2497Z" fill="#000072"/>
<path d="M218.822 53.3095L217.181 53.1987C218.16 38.7346 214.524 29.8593 211.301 24.9609C207.822 19.6722 204.062 17.7533 204.024 17.7346L204.754 16.2605C204.921 16.3428 208.882 18.3417 212.606 23.953C216.002 29.069 219.837 38.3151 218.822 53.3095Z" fill="#000072"/>
<path d="M197.31 46.8586C196.44 47.719 195.717 48.835 195.468 50.2565C195.278 51.3423 196.093 52.3453 197.193 52.4013C198.444 52.4649 200.316 52.461 202.668 52.1671C205.019 51.8732 206.835 51.4158 208.031 51.0467C209.084 50.7215 209.627 49.549 209.175 48.5433C208.584 47.2265 207.609 46.3233 206.554 45.7031C203.588 43.9592 199.757 44.4379 197.31 46.8586Z" fill="#000072"/>
<path d="M189.342 58.1041C184.046 58.1041 180.673 57.7235 180.437 57.6961C180.273 57.6769 180.115 57.621 179.976 57.5321C179.954 57.5179 177.615 56.0471 174.653 55.1153C174.298 55.004 174.024 54.7199 173.925 54.3618C173.751 53.7334 169.752 38.8355 177.236 27.6163C181.47 21.2696 188.516 17.439 198.178 16.232C207.84 15.0239 215.612 17.0031 221.278 22.1125C231.293 31.1447 231.083 46.5679 231.07 47.2205C231.062 47.5924 230.866 47.9351 230.55 48.1303C227.908 49.7624 226.004 51.7635 225.985 51.7833C225.871 51.9028 225.732 51.996 225.578 52.0553C225.196 52.2011 216.076 55.6429 203.304 57.2388C197.958 57.9067 193.152 58.1041 189.342 58.1041ZM180.925 55.5414C182.484 55.6972 191.611 56.4891 203.03 55.0621C214.45 53.6347 223.101 50.6212 224.574 50.087C225.103 49.5551 226.702 48.0174 228.87 46.5987C228.803 43.764 228.031 31.1485 219.798 23.733C214.628 19.076 207.446 17.286 198.45 18.4086C189.454 19.5328 182.933 23.0366 179.068 28.8233C172.914 38.0359 175.27 50.4523 175.903 53.2179C178.353 54.0591 180.282 55.1559 180.925 55.5414Z" fill="#000072"/>
<path d="M185.797 121.042L177.698 128.569C177.698 128.569 177.689 128.569 177.67 128.569C177.138 128.594 169.09 128.838 164.259 123.645C162.082 121.308 160.56 117.87 160.664 112.814C160.958 98.5991 173.297 86.3423 182.463 86.452C184.054 86.4684 185.545 86.8605 186.864 87.6749C195.795 93.1973 178.394 105.185 177.692 115.937C177.692 115.937 180.209 119.315 185.797 121.042Z" fill="white"/>
<g opacity="0.3">
<path d="M177.691 115.937C171.341 115.849 180.957 100.25 184.659 94.9605C188.289 89.7726 182.679 86.5727 182.462 86.4521C184.053 86.4685 185.544 86.8606 186.863 87.675C195.794 93.1974 178.393 105.185 177.691 115.937Z" fill="#000072"/>
</g>
<g opacity="0.3">
<path d="M181.105 122.872C179.004 124.769 177.927 127.774 177.669 128.57C177.137 128.594 169.089 128.838 164.258 123.645C170.4 126.798 175.574 125.721 175.574 125.721C178.212 123.192 181.105 122.872 181.105 122.872Z" fill="#000072"/>
</g>
<path d="M175.433 132.099C175.642 131.186 175.931 130.337 176.253 129.481C176.42 129.057 176.595 128.636 176.78 128.218C176.975 127.804 177.165 127.389 177.377 126.981C177.802 126.168 178.26 125.359 178.842 124.618C179.125 124.246 179.456 123.894 179.808 123.573C179.995 123.417 180.183 123.265 180.377 123.125C180.588 122.994 180.803 122.877 181.02 122.777C181.087 122.746 181.166 122.775 181.196 122.841C181.213 122.879 181.212 122.92 181.196 122.954L181.191 122.964C180.794 123.793 180.511 124.595 180.199 125.4L179.732 126.601C179.58 127.006 179.426 127.407 179.283 127.817C179.129 128.221 178.99 128.633 178.849 129.043C178.704 129.453 178.56 129.863 178.421 130.275C178.133 131.093 177.845 131.929 177.537 132.721L177.528 132.743C177.308 133.309 176.671 133.589 176.106 133.368C175.591 133.168 175.313 132.622 175.433 132.099Z" fill="#000072"/>
<path d="M177.168 129.677C175.16 129.677 168.52 129.323 163.953 124.902C160.937 121.981 159.461 117.907 159.567 112.792C159.675 107.568 161.346 102.289 164.399 97.5266C167.167 93.2085 170.876 89.6428 174.841 87.4859C179.577 84.9106 184.05 84.6463 187.439 86.7417C189.064 87.7469 190.054 89.0406 190.381 90.5866C191.134 94.1495 188.216 98.415 185.126 102.931C182.29 107.075 179.362 111.355 178.846 115.389C179.538 115.814 181.084 116.686 184.072 118.037L183.168 120.036C178.469 117.911 177.144 116.905 177.009 116.797C176.727 116.573 176.574 116.225 176.597 115.867C176.911 111.053 180.313 106.08 183.316 101.692C186.134 97.5748 188.794 93.6856 188.235 91.0406C188.034 90.0908 187.397 89.2945 186.286 88.6074C183.595 86.9435 179.903 87.2303 175.889 89.413C169.032 93.1427 161.976 102.387 161.759 112.838C161.667 117.313 162.914 120.838 165.468 123.316C170.091 127.803 177.564 127.476 177.638 127.474L177.753 129.665C177.706 129.668 177.5 129.677 177.168 129.677Z" fill="#000072"/>
<path opacity="0.2" d="M132.346 39.968L139.852 49.7766L151.5 45.6687L144.491 55.8386L151.997 65.6472L140.159 62.124L133.15 72.2939L132.843 59.9465L121.005 56.4233L132.653 52.3154L132.346 39.968Z" fill="#005AFE"/>
<path opacity="0.2" d="M298.722 106.5L296.154 118.581L306.851 124.757L294.567 126.048L291.999 138.129L286.976 126.846L274.692 128.137L283.871 119.872L278.847 108.589L289.544 114.765L298.722 106.5Z" fill="#005AFE"/>
</g>
<defs>
<linearGradient id="paint0_linear_1_362" x1="-82.5" y1="-70.5" x2="340" y2="208.5" gradientUnits="userSpaceOnUse">
<stop stop-color="#005AFE"/>
<stop offset="0.986718" stop-color="#00FEFE"/>
</linearGradient>
<clipPath id="clip0_1_362">
<rect width="340" height="203" rx="8" transform="matrix(-1 0 0 1 340 0)" fill="white"/>
</clipPath>
<clipPath id="clip1_1_362">
<rect x="15" y="94" width="30" height="22" rx="4" fill="white"/>
</clipPath>
</defs>
</svg>
