<svg width="340" height="200" viewBox="0 0 340 200" fill="none" xmlns="http://www.w3.org/2000/svg">
<g clip-path="url(#clip0_1_601)">
<rect x="353" y="210" width="353" height="210" rx="8" transform="rotate(-180 353 210)" fill="url(#paint0_linear_1_601)"/>
<path d="M22.0664 177.287H23.1914C23.1328 177.826 22.9785 178.309 22.7285 178.734C22.4785 179.16 22.125 179.498 21.668 179.748C21.2109 179.994 20.6406 180.117 19.957 180.117C19.457 180.117 19.002 180.023 18.5918 179.836C18.1855 179.648 17.8359 179.383 17.543 179.039C17.25 178.691 17.0234 178.275 16.8633 177.791C16.707 177.303 16.6289 176.76 16.6289 176.162V175.312C16.6289 174.715 16.707 174.174 16.8633 173.689C17.0234 173.201 17.252 172.783 17.5488 172.436C17.8496 172.088 18.2109 171.82 18.6328 171.633C19.0547 171.445 19.5293 171.352 20.0566 171.352C20.7012 171.352 21.2461 171.473 21.6914 171.715C22.1367 171.957 22.4824 172.293 22.7285 172.723C22.9785 173.148 23.1328 173.643 23.1914 174.205H22.0664C22.0117 173.807 21.9102 173.465 21.7617 173.18C21.6133 172.891 21.4023 172.668 21.1289 172.512C20.8555 172.355 20.498 172.277 20.0566 172.277C19.6777 172.277 19.3438 172.35 19.0547 172.494C18.7695 172.639 18.5293 172.844 18.334 173.109C18.1426 173.375 17.998 173.693 17.9004 174.064C17.8027 174.436 17.7539 174.848 17.7539 175.301V176.162C17.7539 176.58 17.7969 176.973 17.8828 177.34C17.9727 177.707 18.1074 178.029 18.2871 178.307C18.4668 178.584 18.6953 178.803 18.9727 178.963C19.25 179.119 19.5781 179.197 19.957 179.197C20.4375 179.197 20.8203 179.121 21.1055 178.969C21.3906 178.816 21.6055 178.598 21.75 178.312C21.8984 178.027 22.0039 177.686 22.0664 177.287Z" fill="#F8F8F8"/>
<path d="M27.8906 172.225L25.0664 180H23.9121L27.1641 171.469H27.9082L27.8906 172.225ZM30.2578 180L27.4277 172.225L27.4102 171.469H28.1543L31.418 180H30.2578ZM30.1113 176.842V177.768H25.3184V176.842H30.1113Z" fill="#F8F8F8"/>
<path d="M32.5605 171.469H35.3848C36.0254 171.469 36.5664 171.566 37.0078 171.762C37.4531 171.957 37.791 172.246 38.0215 172.629C38.2559 173.008 38.373 173.475 38.373 174.029C38.373 174.42 38.293 174.777 38.1328 175.102C37.9766 175.422 37.75 175.695 37.4531 175.922C37.1602 176.145 36.8086 176.311 36.3984 176.42L36.082 176.543H33.4277L33.416 175.623H35.4199C35.8262 175.623 36.1641 175.553 36.4336 175.412C36.7031 175.268 36.9062 175.074 37.043 174.832C37.1797 174.59 37.248 174.322 37.248 174.029C37.248 173.701 37.1836 173.414 37.0547 173.168C36.9258 172.922 36.7227 172.732 36.4453 172.6C36.1719 172.463 35.8184 172.395 35.3848 172.395H33.6914V180H32.5605V171.469ZM37.5469 180L35.4727 176.133L36.6504 176.127L38.7539 179.93V180H37.5469Z" fill="#F8F8F8"/>
<path d="M42.2637 180H40.4824L40.4941 179.08H42.2637C42.873 179.08 43.3809 178.953 43.7871 178.699C44.1934 178.441 44.498 178.082 44.7012 177.621C44.9082 177.156 45.0117 176.613 45.0117 175.992V175.471C45.0117 174.982 44.9531 174.549 44.8359 174.17C44.7188 173.787 44.5469 173.465 44.3203 173.203C44.0938 172.938 43.8164 172.736 43.4883 172.6C43.1641 172.463 42.791 172.395 42.3691 172.395H40.4473V171.469H42.3691C42.9277 171.469 43.4375 171.562 43.8984 171.75C44.3594 171.934 44.7559 172.201 45.0879 172.553C45.4238 172.9 45.6816 173.322 45.8613 173.818C46.041 174.311 46.1309 174.865 46.1309 175.482V175.992C46.1309 176.609 46.041 177.166 45.8613 177.662C45.6816 178.154 45.4219 178.574 45.082 178.922C44.7461 179.27 44.3398 179.537 43.8633 179.725C43.3906 179.908 42.8574 180 42.2637 180ZM41.0859 171.469V180H39.9551V171.469H41.0859Z" fill="#F8F8F8"/>
<path d="M53.4023 175.137V176.057H48.7852V175.137H53.4023ZM48.9609 171.469V180H47.8301V171.469H48.9609ZM54.3867 171.469V180H53.2617V171.469H54.3867Z" fill="#F8F8F8"/>
<path d="M62.9648 175.465V176.004C62.9648 176.645 62.8848 177.219 62.7246 177.727C62.5645 178.234 62.334 178.666 62.0332 179.021C61.7324 179.377 61.3711 179.648 60.9492 179.836C60.5312 180.023 60.0625 180.117 59.543 180.117C59.0391 180.117 58.5762 180.023 58.1543 179.836C57.7363 179.648 57.373 179.377 57.0645 179.021C56.7598 178.666 56.5234 178.234 56.3555 177.727C56.1875 177.219 56.1035 176.645 56.1035 176.004V175.465C56.1035 174.824 56.1855 174.252 56.3496 173.748C56.5176 173.24 56.7539 172.809 57.0586 172.453C57.3633 172.094 57.7246 171.82 58.1426 171.633C58.5645 171.445 59.0273 171.352 59.5312 171.352C60.0508 171.352 60.5195 171.445 60.9375 171.633C61.3594 171.82 61.7207 172.094 62.0215 172.453C62.3262 172.809 62.5586 173.24 62.7188 173.748C62.8828 174.252 62.9648 174.824 62.9648 175.465ZM61.8457 176.004V175.453C61.8457 174.945 61.793 174.496 61.6875 174.105C61.5859 173.715 61.4355 173.387 61.2363 173.121C61.0371 172.855 60.793 172.654 60.5039 172.518C60.2188 172.381 59.8945 172.312 59.5312 172.312C59.1797 172.312 58.8613 172.381 58.5762 172.518C58.2949 172.654 58.0527 172.855 57.8496 173.121C57.6504 173.387 57.4961 173.715 57.3867 174.105C57.2773 174.496 57.2227 174.945 57.2227 175.453V176.004C57.2227 176.516 57.2773 176.969 57.3867 177.363C57.4961 177.754 57.6523 178.084 57.8555 178.354C58.0625 178.619 58.3066 178.82 58.5879 178.957C58.873 179.094 59.1914 179.162 59.543 179.162C59.9102 179.162 60.2363 179.094 60.5215 178.957C60.8066 178.82 61.0469 178.619 61.2422 178.354C61.4414 178.084 61.5918 177.754 61.6934 177.363C61.7949 176.969 61.8457 176.516 61.8457 176.004Z" fill="#F8F8F8"/>
<path d="M69.832 179.08V180H65.5664V179.08H69.832ZM65.7891 171.469V180H64.6582V171.469H65.7891Z" fill="#F8F8F8"/>
<path d="M73.4355 180H71.6543L71.666 179.08H73.4355C74.0449 179.08 74.5527 178.953 74.959 178.699C75.3652 178.441 75.6699 178.082 75.873 177.621C76.0801 177.156 76.1836 176.613 76.1836 175.992V175.471C76.1836 174.982 76.125 174.549 76.0078 174.17C75.8906 173.787 75.7188 173.465 75.4922 173.203C75.2656 172.938 74.9883 172.736 74.6602 172.6C74.3359 172.463 73.9629 172.395 73.541 172.395H71.6191V171.469H73.541C74.0996 171.469 74.6094 171.562 75.0703 171.75C75.5312 171.934 75.9277 172.201 76.2598 172.553C76.5957 172.9 76.8535 173.322 77.0332 173.818C77.2129 174.311 77.3027 174.865 77.3027 175.482V175.992C77.3027 176.609 77.2129 177.166 77.0332 177.662C76.8535 178.154 76.5938 178.574 76.2539 178.922C75.918 179.27 75.5117 179.537 75.0352 179.725C74.5625 179.908 74.0293 180 73.4355 180ZM72.2578 171.469V180H71.127V171.469H72.2578Z" fill="#F8F8F8"/>
<path d="M84.4219 179.08V180H79.9043V179.08H84.4219ZM80.1328 171.469V180H79.002V171.469H80.1328ZM83.8242 175.137V176.057H79.9043V175.137H83.8242ZM84.3633 171.469V172.395H79.9043V171.469H84.3633Z" fill="#F8F8F8"/>
<path d="M85.8223 171.469H88.6465C89.2871 171.469 89.8281 171.566 90.2695 171.762C90.7148 171.957 91.0527 172.246 91.2832 172.629C91.5176 173.008 91.6348 173.475 91.6348 174.029C91.6348 174.42 91.5547 174.777 91.3945 175.102C91.2383 175.422 91.0117 175.695 90.7148 175.922C90.4219 176.145 90.0703 176.311 89.6602 176.42L89.3438 176.543H86.6895L86.6777 175.623H88.6816C89.0879 175.623 89.4258 175.553 89.6953 175.412C89.9648 175.268 90.168 175.074 90.3047 174.832C90.4414 174.59 90.5098 174.322 90.5098 174.029C90.5098 173.701 90.4453 173.414 90.3164 173.168C90.1875 172.922 89.9844 172.732 89.707 172.6C89.4336 172.463 89.0801 172.395 88.6465 172.395H86.9531V180H85.8223V171.469ZM90.8086 180L88.7344 176.133L89.9121 176.127L92.0156 179.93V180H90.8086Z" fill="#F8F8F8"/>
<path d="M102.756 171.469V180H101.619L97.3242 173.42V180H96.1934V171.469H97.3242L101.637 178.066V171.469H102.756Z" fill="#F8F8F8"/>
<path d="M108.023 172.225L105.199 180H104.045L107.297 171.469H108.041L108.023 172.225ZM110.391 180L107.561 172.225L107.543 171.469H108.287L111.551 180H110.391ZM110.244 176.842V177.768H105.451V176.842H110.244Z" fill="#F8F8F8"/>
<path d="M113.051 171.469H114.146L116.941 178.424L119.73 171.469H120.832L117.363 180H116.508L113.051 171.469ZM112.693 171.469H113.66L113.818 176.672V180H112.693V171.469ZM120.217 171.469H121.184V180H120.059V176.672L120.217 171.469Z" fill="#F8F8F8"/>
<path d="M128.59 179.08V180H124.072V179.08H128.59ZM124.301 171.469V180H123.17V171.469H124.301ZM127.992 175.137V176.057H124.072V175.137H127.992ZM128.531 171.469V172.395H124.072V171.469H128.531Z" fill="#F8F8F8"/>
<g clip-path="url(#clip1_1_601)">
<rect x="15" y="92" width="30" height="22" rx="4" fill="#F8F8F8"/>
<path d="M15 98.5H45" stroke="#FB3111"/>
<path d="M22.5 92L22.5 98" stroke="#FB3111"/>
<path d="M37.5 92L37.5 98" stroke="#FB3111"/>
<path d="M22.5 108L22.5 114" stroke="#FB3111"/>
<path d="M37.5 108L37.5 114" stroke="#FB3111"/>
<path d="M15 107.5L45 107.5" stroke="#FB3111"/>
<path d="M34.5 103C34.5 105.485 32.4853 107.5 30 107.5C27.5147 107.5 25.5 105.485 25.5 103C25.5 100.515 27.5147 98.5 30 98.5C32.4853 98.5 34.5 100.515 34.5 103Z" fill="#FEFEFE" stroke="#FB3111"/>
</g>
<g opacity="0.4">
<path d="M302.57 236.001C302.394 236.001 302.218 235.986 302.043 235.957C278.567 232.03 259.535 221.137 245.476 203.579C234.32 189.647 226.307 171.544 221.661 149.772C213.811 113 218.207 78.8886 218.398 77.4546C218.504 76.6565 218.907 75.9278 219.527 75.4147C220.147 74.9016 220.938 74.6422 221.742 74.6885C223.327 74.7774 224.922 74.8227 226.483 74.8227C247.47 74.8223 266.135 66.9694 281.958 51.4821C293.886 39.8069 299.632 27.9359 299.688 27.8169C299.948 27.2732 300.356 26.814 300.866 26.4925C301.376 26.171 301.966 26.0003 302.569 26H302.573C303.176 26.0003 303.767 26.1715 304.276 26.4937C304.786 26.8159 305.195 27.276 305.454 27.8206C305.509 27.9364 311.253 39.8093 323.18 51.4844C338.998 66.9698 357.663 74.8227 378.648 74.8227H378.657C380.238 74.8219 381.819 74.7772 383.398 74.6885C385.069 74.5889 386.522 75.8006 386.742 77.4546C386.933 78.8886 391.329 113 383.48 149.772C378.833 171.544 370.82 189.647 359.664 203.579C345.605 221.137 326.573 232.03 303.097 235.957C302.923 235.986 302.746 236.001 302.57 236.001ZM224.414 81.1828C223.545 90.1794 221.568 118.877 227.936 148.588C237.997 195.523 263.104 222.766 302.57 229.57C342.08 222.759 367.198 195.465 377.235 148.439C383.573 118.745 381.598 90.1586 380.727 81.1833C380.034 81.1991 379.343 81.2069 378.657 81.2074H378.648C350.253 81.2083 330.292 67.4352 318.543 55.8809C310.758 48.2238 305.513 40.6112 302.569 35.7601C299.625 40.6112 294.379 48.222 286.593 55.8785C274.843 67.4333 254.877 81.2069 226.483 81.2074C225.798 81.2065 225.108 81.1986 224.414 81.1828Z" fill="#DED8AD"/>
<path d="M363.971 94.7992L363.905 88.4141C364.903 88.4039 365.928 88.3696 366.95 88.3122L367.307 94.6871C366.189 94.7501 365.066 94.7876 363.971 94.7992ZM356.994 94.5274C354.671 94.3199 352.361 93.9911 350.073 93.5421L351.306 87.2769C353.352 87.6802 355.458 87.9798 357.563 88.1682L356.994 94.5274ZM343.286 91.8233C341.057 91.1287 338.866 90.315 336.724 89.386L339.263 83.5278C341.196 84.3655 343.172 85.0996 345.183 85.7267L343.286 91.8233ZM330.464 86.2744C328.437 85.1309 326.468 83.8879 324.564 82.5499L328.233 77.3246C329.964 78.541 331.754 79.6711 333.597 80.7107L330.464 86.2744ZM319.062 78.2891C317.3 76.7878 315.604 75.211 313.978 73.563L318.523 69.0781C320.018 70.5944 321.579 72.0452 323.2 73.4264L319.062 78.2891ZM309.321 68.4341C307.84 66.6629 306.43 64.8328 305.097 62.9482L310.309 59.2606C311.544 61.0049 312.848 62.6988 314.219 64.3382L309.321 68.4341ZM301.329 57.108C300.254 55.2601 299.708 54.1174 299.686 54.0697L305.453 51.3286C305.455 51.3346 305.921 52.3037 306.848 53.897L301.329 57.108Z" fill="#DED8AD"/>
<path d="M302.57 218.169C302.394 218.169 302.218 218.155 302.043 218.126C268.243 212.471 245.909 188.545 237.454 148.935C231.175 119.52 234.693 92.2269 234.846 91.0796C234.951 90.2815 235.354 89.5528 235.974 89.0397C236.594 88.5266 237.386 88.2672 238.189 88.3134C280.488 90.6846 299.5 51.7234 299.687 51.3293C300.061 50.5817 300.713 50.0104 301.503 49.7382C302.293 49.466 303.159 49.5145 303.914 49.8733C304.669 50.2321 305.253 50.8726 305.541 51.6574C305.829 52.4421 305.798 53.3084 305.454 54.0704C305.243 54.514 300.165 65.0534 289.335 75.358C275.671 88.3598 258.971 95.0398 240.872 94.7949C240.16 102.532 238.798 124.767 243.73 147.751C251.682 184.808 271.478 206.333 302.571 211.738C333.706 206.326 353.513 184.75 361.442 147.601C367.492 119.258 364.002 92.1922 363.966 91.9223C363.911 91.5067 363.938 91.0843 364.045 90.6792C364.153 90.274 364.34 89.8941 364.595 89.5612C364.85 89.2282 365.167 88.9487 365.53 88.7386C365.893 88.5284 366.294 88.3919 366.709 88.3366C367.125 88.2812 367.547 88.3083 367.952 88.4162C368.357 88.5241 368.737 88.7107 369.07 88.9654C369.403 89.2201 369.683 89.5379 369.893 89.9007C370.103 90.2634 370.24 90.664 370.295 91.0796C370.448 92.2269 373.965 119.52 367.687 148.935C359.231 188.545 336.897 212.471 303.098 218.126C302.923 218.155 302.747 218.169 302.57 218.169Z" fill="#DED8AD"/>
<path d="M297.048 178.273C293.14 178.273 289.467 176.752 286.704 173.989L266.004 153.289C263.241 150.526 261.72 146.853 261.72 142.946C261.72 139.038 263.241 135.365 266.004 132.602C268.767 129.84 272.44 128.319 276.347 128.319C280.254 128.319 283.927 129.84 286.69 132.603L297.073 142.985L327.463 113.279C330.2 110.541 333.873 109.02 337.78 109.02C341.687 109.02 345.361 110.541 348.124 113.304C353.827 119.007 353.827 128.287 348.124 133.99L307.74 173.64C307.683 173.696 307.625 173.75 307.565 173.803C307.515 173.861 307.454 173.926 307.391 173.989C304.628 176.752 300.955 178.273 297.048 178.273ZM276.347 134.704C275.264 134.701 274.192 134.913 273.191 135.327C272.191 135.741 271.283 136.35 270.519 137.117C269.751 137.881 269.143 138.789 268.728 139.79C268.314 140.79 268.102 141.863 268.105 142.946C268.105 145.147 268.962 147.217 270.519 148.774L291.22 169.474C291.983 170.242 292.891 170.851 293.892 171.265C294.892 171.679 295.965 171.891 297.048 171.888C299.214 171.894 301.294 171.042 302.832 169.517C302.891 169.45 302.941 169.394 302.993 169.339C303.09 169.238 303.192 169.142 303.299 169.052L343.63 129.454C346.823 126.261 346.823 121.032 343.61 117.819C342.846 117.051 341.937 116.442 340.937 116.028C339.936 115.613 338.863 115.402 337.78 115.405C336.698 115.402 335.625 115.614 334.625 116.028C333.625 116.442 332.716 117.051 331.953 117.819L299.279 149.758C298.678 150.345 297.87 150.672 297.029 150.667C296.189 150.662 295.384 150.326 294.79 149.732L282.175 137.117C281.412 136.35 280.503 135.741 279.503 135.327C278.503 134.913 277.43 134.701 276.347 134.704Z" fill="#DED8AD"/>
</g>
</g>
<defs>
<linearGradient id="paint0_linear_1_601" x1="353" y1="428.842" x2="699.872" y2="173.648" gradientUnits="userSpaceOnUse">
<stop stop-color="#FE1E00"/>
<stop offset="1" stop-color="#D8FFD1"/>
</linearGradient>
<clipPath id="clip0_1_601">
<rect width="340" height="200" rx="8" transform="matrix(-1 0 0 1 340 0)" fill="white"/>
</clipPath>
<clipPath id="clip1_1_601">
<rect x="15" y="92" width="30" height="22" rx="4" fill="white"/>
</clipPath>
</defs>
</svg>
