<svg width="50" height="30" viewBox="0 0 50 30" fill="none" xmlns="http://www.w3.org/2000/svg">
<rect width="50" height="30" rx="4" fill="url(#paint0_linear_69615_8617)"/>
<path d="M10.1289 27.6543H7.08203V27.3906H8.17578V26.1504L5.58789 26.1406L5.5293 25.8477C5.72461 25.6914 5.91016 25.5319 6.08594 25.3691C6.8737 24.6204 7.43034 23.7741 7.75586 22.8301C7.93164 22.3223 8.02604 22.0488 8.03906 22.0098C8.16927 21.7559 8.37435 21.6289 8.6543 21.6289C8.7194 21.6289 8.77799 21.6354 8.83008 21.6484C9.14258 21.707 9.29883 21.8926 9.29883 22.2051C9.29232 22.5957 8.94076 23.1458 8.24414 23.8555C7.87956 24.2201 7.12109 24.8841 5.96875 25.8477L8.17578 25.8574V24.6953H8.27344C8.3776 24.6953 8.46549 24.6888 8.53711 24.6758C8.72591 24.6367 8.85612 24.4967 8.92773 24.2559L9.05469 23.8457H9.26953V25.8672H10.1289V26.1602H9.26953V27.3906H9.89453C9.93359 27.3906 9.9694 27.3939 10.002 27.4004C10.0866 27.4134 10.1289 27.498 10.1289 27.6543ZM15.0215 22L12.7949 24.3633C12.9902 24.3177 13.2018 24.2949 13.4297 24.2949C13.8789 24.2949 14.2598 24.3926 14.5723 24.5879C15.0215 24.8743 15.2461 25.291 15.2461 25.8379C15.2461 26.248 15.1159 26.6191 14.8555 26.9512C14.4128 27.5046 13.7487 27.7812 12.8633 27.7812C12.4661 27.7812 12.1081 27.7227 11.7891 27.6055C11.2096 27.3841 10.9199 27.0293 10.9199 26.541C10.9199 26.4824 10.9264 26.4238 10.9395 26.3652C11.0046 26.0983 11.1901 25.9648 11.4961 25.9648C11.6458 25.9648 11.7663 26.0007 11.8574 26.0723C11.9616 26.1634 12.0267 26.3717 12.0527 26.6973C12.0658 26.86 12.082 26.9772 12.1016 27.0488C12.1732 27.3678 12.3913 27.5273 12.7559 27.5273C13.6283 27.5013 14.084 26.9837 14.123 25.9746C14.123 25.7663 14.1003 25.5742 14.0547 25.3984C13.9049 24.8711 13.5859 24.6074 13.0977 24.6074C12.8828 24.6074 12.6582 24.6562 12.4238 24.7539L12.1895 24.5586L13.8984 22.5859H12.3359C12.1927 22.5859 12.082 22.5924 12.0039 22.6055C11.8086 22.638 11.6654 22.7715 11.5742 23.0059L11.3984 23.4844H11.1641L11.1836 21.7559H15.0215V22ZM20.2852 22.0195C19.263 23.4909 18.5632 24.9525 18.1855 26.4043C18.0358 27.0033 17.9382 27.3451 17.8926 27.4297C17.7819 27.6641 17.5898 27.7812 17.3164 27.7812C17.2448 27.7812 17.1764 27.7747 17.1113 27.7617C16.8184 27.6901 16.6719 27.5013 16.6719 27.1953C16.6719 26.9935 16.7435 26.7461 16.8867 26.4531C17.0625 26.0951 17.541 25.3724 18.3223 24.2852C18.8301 23.5885 19.2337 23.0254 19.5332 22.5957H17.1895C17.0527 22.5957 16.9453 22.6022 16.8672 22.6152C16.6589 22.6478 16.5124 22.7845 16.4277 23.0254L16.252 23.5137H16.0176L16.0371 21.7559H20.2852V22.0195ZM25.168 25.1641C25.168 25.5807 25.0443 25.9551 24.7969 26.2871C24.3867 26.8275 23.7747 27.0977 22.9609 27.0977C22.5312 27.0977 22.1504 26.987 21.8184 26.7656C21.1087 26.2839 20.7539 25.3984 20.7539 24.1094C20.7539 23.3997 20.8874 22.7845 21.1543 22.2637C21.597 21.4043 22.3099 20.9746 23.293 20.9746C23.7357 20.9746 24.1198 21.0527 24.4453 21.209C24.862 21.4108 25.0703 21.6777 25.0703 22.0098C25.0703 22.0749 25.0605 22.14 25.041 22.2051C24.9694 22.472 24.7871 22.6055 24.4941 22.6055C24.3379 22.6055 24.2142 22.5729 24.123 22.5078C24.0059 22.4297 23.931 22.2441 23.8984 21.9512C23.8854 21.8275 23.8691 21.7331 23.8496 21.668C23.778 21.3815 23.5566 21.2383 23.1855 21.2383C23.0293 21.2383 22.8861 21.2708 22.7559 21.3359C22.2546 21.5833 21.9811 22.3906 21.9355 23.7578C22.3197 23.5039 22.7526 23.3737 23.2344 23.3672C23.7031 23.3672 24.1035 23.4811 24.4355 23.709C24.9238 24.041 25.168 24.526 25.168 25.1641ZM21.9258 25.3105C21.9323 26.3132 22.2839 26.821 22.9805 26.834C23.6771 26.8275 24.0286 26.2806 24.0352 25.1934C24.0286 24.1908 23.6901 23.6829 23.0195 23.6699C22.987 23.6699 22.9544 23.6699 22.9219 23.6699C22.2578 23.7285 21.9258 24.2754 21.9258 25.3105Z" fill="#FEFEFE"/>
<path fill-rule="evenodd" clip-rule="evenodd" d="M36.2349 22.3192C35.958 23.0448 35.71 23.5985 35.6839 23.5497C35.6578 23.5009 35.5446 22.9955 35.4325 22.4266C35.3203 21.8578 35.1821 21.3201 35.1255 21.2318C35.0267 21.0777 34.9825 21.0715 34.0113 21.075L33 21.0788L33.4421 21.2433C33.6852 21.3338 33.9391 21.4308 34.0063 21.4587C34.0777 21.4884 34.1788 21.6927 34.2496 21.9503C34.3162 22.1927 34.5302 22.9688 34.7251 23.6749L35.0796 24.9589L35.6255 24.9795L36.1714 25L36.9589 23.1248C37.392 22.0935 37.7677 21.1935 37.7939 21.1248C37.8366 21.013 37.7843 21 37.29 21L36.7385 21L36.2349 22.3192ZM38.2324 21.2318C38.2094 21.3594 38.0756 22.1538 37.9354 22.9973C37.7951 23.8408 37.6618 24.6352 37.6392 24.7628L37.598 24.9946L38.1157 24.9946C38.5921 24.9946 38.6364 24.9818 38.6715 24.8341C38.72 24.6301 39.2992 21.1522 39.2992 21.065C39.2992 21.0292 39.0686 21 38.7868 21L38.2745 21L38.2324 21.2318ZM40.6714 21.1048C40.0693 21.3126 39.6669 21.9131 39.7707 22.449C39.8281 22.7456 40.2265 23.1216 40.7609 23.3838C41.2736 23.6354 41.3663 23.9164 40.9974 24.1011C40.7044 24.2478 40.2616 24.2382 39.819 24.0753L39.4531 23.9407L39.4068 24.2715C39.3814 24.4534 39.3458 24.6544 39.3278 24.7181C39.2834 24.8757 39.7873 24.9946 40.4997 24.9946C41.3952 24.9946 41.9261 24.7304 42.1896 24.1536C42.4875 23.5017 42.2422 23.0473 41.3253 22.5527C40.8137 22.2767 40.725 22.079 41.027 21.8874C41.2158 21.7676 41.7436 21.7698 42.1471 21.8922C42.3186 21.9443 42.341 21.9058 42.4274 21.4097C42.4696 21.1674 42.4556 21.1348 42.2818 21.0708C42.0037 20.9685 41.0053 20.9896 40.6714 21.1048ZM44.1879 21.0479C44.1009 21.0651 43.9798 21.1337 43.9185 21.2002C43.8362 21.2895 42.6798 23.8832 42.2665 24.9054C42.2396 24.972 42.3712 24.9946 42.7848 24.9946L43.3391 24.9946L43.4433 24.6914L43.5475 24.3883L44.221 24.3678L44.8944 24.3473L44.9402 24.5461C45.0477 25.0131 45.0234 24.9946 45.5279 24.9946L46 24.9946L45.9523 24.7628C45.926 24.6352 45.7362 23.7445 45.5305 22.7833L45.1564 21.0357L44.7512 21.026C44.5283 21.0208 44.2748 21.0305 44.1879 21.0479ZM44.5933 22.9081L44.7321 23.5679L44.2918 23.5679C43.9017 23.5679 43.8572 23.5537 43.9032 23.4431C43.9316 23.3745 44.0577 23.0481 44.1832 22.7179C44.3088 22.3877 44.4211 22.1469 44.433 22.1829C44.4448 22.2188 44.5169 22.5453 44.5933 22.9081Z" fill="#FEFEFE"/>
<path d="M6.04348 8.82609V8.17391H6.82609V8.82609H6.04348Z" fill="#FEFEFE"/>
<path d="M6.04348 5.82609V5.04348H6.82609V5.82609H6.04348Z" fill="#FEFEFE"/>
<path d="M2.64383 5.95871H3.14722V8.06171H2.64383V5.95871Z" fill="#FEFEFE"/>
<path d="M3.18462 6.0919H2.60643C2.52727 6.0919 2.4631 6.02958 2.4631 5.9527V5.64926H3.32795V5.9527C3.32795 6.02958 3.26378 6.0919 3.18462 6.0919ZM3.18462 7.84039H2.60643C2.52727 7.84039 2.4631 7.90271 2.4631 7.97959V8.28304H3.32795V7.97959C3.32795 7.90271 3.26378 7.84039 3.18462 7.84039Z" fill="#FEFEFE"/>
<path d="M6.06988 5.95871H6.57328V8.06171H6.06988V5.95871Z" fill="#FEFEFE"/>
<path d="M6.61068 6.0919H6.03248C5.95333 6.0919 5.88916 6.02958 5.88916 5.9527V5.64926H6.754V5.9527C6.754 6.02958 6.68983 6.0919 6.61068 6.0919ZM6.61068 7.84039H6.03248C5.95333 7.84039 5.88916 7.90271 5.88916 7.97959V8.28304H6.754V7.97959C6.754 7.90271 6.68983 7.84039 6.61068 7.84039Z" fill="#FEFEFE"/>
<path d="M4.35685 5.95871H4.86025V8.06171H4.35685V5.95871Z" fill="#FEFEFE"/>
<path d="M4.89765 6.0919H4.31946C4.2403 6.0919 4.17613 6.02958 4.17613 5.9527V5.64926H5.04097V5.9527C5.04096 6.02958 4.9768 6.0919 4.89765 6.0919ZM4.89765 7.84039H4.31946C4.2403 7.84039 4.17613 7.90271 4.17613 7.97959V8.28304H5.04097V7.97959C5.04096 7.90271 4.9768 7.84039 4.89765 7.84039Z" fill="#FEFEFE"/>
<path d="M6.37112 5.59594V5.30669H2.20095V5.59594C2.20095 5.68433 2.27473 5.75598 2.36573 5.75598H6.22733C6.31834 5.75598 6.37112 5.68433 6.37112 5.59594Z" fill="#FEFEFE"/>
<path d="M6.37112 5.30669V5.59594C6.37112 5.68433 6.29735 5.75598 6.20635 5.75598H6.85138C6.94239 5.75598 7.01615 5.68432 7.01615 5.59594V5.30669H6.37112Z" fill="#FEFEFE"/>
<path d="M6.49211 5.38783C6.5601 5.35669 6.59408 5.29689 6.59428 5.23451V4.86978C6.59428 4.86322 6.59233 4.8568 6.58865 4.85129C6.58498 4.84578 6.57975 4.84142 6.57358 4.83874L4.68385 4.01516C4.66093 4.00518 4.63609 4.00001 4.61097 4C4.58585 3.99999 4.56101 4.00514 4.53808 4.01511L2.10533 5.07355C1.96639 5.13401 1.96448 5.3249 2.10217 5.38796C2.12593 5.39885 2.15188 5.40449 2.17816 5.40449H6.41583C6.44216 5.40449 6.46815 5.39882 6.49196 5.38789L6.49211 5.38783Z" fill="#FEFEFE"/>
<path d="M7.11217 5.07346L6.57328 4.83861V5.23452C6.57307 5.2969 6.5391 5.35669 6.47111 5.38783L6.47081 5.38797C6.44705 5.39886 6.3974 5.40449 6.37112 5.40449L7.03894 5.4045C7.06522 5.4045 7.09116 5.39886 7.11493 5.38797L7.11522 5.38783C7.25287 5.32478 7.25102 5.13398 7.11217 5.07346Z" fill="#FEFEFE"/>
<path d="M6.29206 8.16537H2.29227C2.26805 8.16537 2.24483 8.17472 2.2277 8.19135C2.21058 8.20798 2.20096 8.23053 2.20096 8.25405V8.66325H6.37111V8.25405C6.37111 8.23053 6.37375 8.20797 6.35662 8.19134C6.3395 8.17472 6.31627 8.16537 6.29206 8.16537Z" fill="#FEFEFE"/>
<path d="M6.92484 8.16537H6.27981C6.30402 8.16537 6.32725 8.17472 6.34437 8.19135C6.36149 8.20798 6.37111 8.23053 6.37111 8.25405V8.66325H7.01614V8.25405C7.01614 8.23053 7.00652 8.20798 6.9894 8.19135C6.97228 8.17472 6.94905 8.16537 6.92484 8.16537Z" fill="#FEFEFE"/>
<path d="M6.37111 8.49729H2.17531C2.08094 8.49729 2.00443 8.5716 2.00443 8.66325V8.78236C2.00443 8.80113 2.01211 8.81914 2.02578 8.83241C2.03254 8.83898 2.04058 8.84419 2.04942 8.84775C2.05826 8.85131 2.06773 8.85314 2.0773 8.85314H6.5846V8.69044C6.58461 8.58377 6.48094 8.49729 6.37111 8.49729Z" fill="#FEFEFE"/>
<path d="M7.04651 8.49729H6.37111C6.48094 8.49729 6.57235 8.58376 6.57235 8.69043V8.85313H7.14451C7.16384 8.85313 7.18237 8.84567 7.19604 8.8324C7.2097 8.81913 7.21738 8.80112 7.21738 8.78235V8.66324C7.21739 8.5716 7.14088 8.49729 7.04651 8.49729Z" fill="#FEFEFE"/>
<path d="M4.60855 5.10351C4.78812 5.10351 4.93369 4.96213 4.93369 4.78773C4.93369 4.61332 4.78812 4.47194 4.60855 4.47194C4.42898 4.47194 4.28341 4.61332 4.28341 4.78773C4.28341 4.96213 4.42898 5.10351 4.60855 5.10351Z" fill="#001A34"/>
<path d="M2 10V9.11857H2.23486V9.8198H2.6169V10H2Z" fill="#FEFEFE"/>
<path d="M2.72441 10V9.11857H2.95926V10H2.72441Z" fill="#FEFEFE"/>
<path d="M3.09941 10V9.11857H3.5288C3.71183 9.11857 3.82254 9.20286 3.82254 9.3403V9.34152C3.82254 9.44109 3.74254 9.5205 3.63759 9.53332V9.5376C3.76366 9.54371 3.86285 9.63106 3.86285 9.7465V9.74773C3.86285 9.90104 3.73806 10 3.54032 10H3.09941ZM3.46673 9.27677H3.33426V9.48079H3.44945C3.54352 9.48079 3.59344 9.4417 3.59344 9.37573V9.37451C3.59344 9.31342 3.54608 9.27677 3.46673 9.27677ZM3.46673 9.62189H3.33426V9.84179H3.47377C3.56976 9.84179 3.62416 9.80331 3.62416 9.73184V9.73062C3.62416 9.66038 3.56976 9.62189 3.46673 9.62189Z" fill="#FEFEFE"/>
<path d="M3.96204 10V9.11857H4.59494V9.29876H4.1969V9.47285H4.57126V9.64144H4.1969V9.8198H4.59494V10H3.96204Z" fill="#FEFEFE"/>
<path d="M4.7274 10V9.11857H5.12736C5.3507 9.11857 5.47677 9.22424 5.47677 9.41116V9.41238C5.47677 9.52538 5.41533 9.62312 5.31934 9.66282L5.50428 10H5.24063L5.08193 9.69641H4.96226V10H4.7274ZM4.96226 9.53393H5.10113C5.18432 9.53393 5.23743 9.48629 5.23743 9.41177V9.41055C5.23743 9.33663 5.1824 9.28777 5.09985 9.28777H4.96226V9.53393Z" fill="#FEFEFE"/>
<path d="M5.80953 10V9.29876H5.55484V9.11857H6.29844V9.29876H6.04375V10H5.80953Z" fill="#FEFEFE"/>
<path d="M6.66449 10V9.69703L6.34644 9.11857H6.59601L6.77968 9.48507H6.78415L6.96782 9.11857H7.21739L6.89934 9.69703V10H6.66449Z" fill="#FEFEFE"/>
<defs>
<linearGradient id="paint0_linear_69615_8617" x1="7.40497" y1="17.1603" x2="42.2621" y2="16.2821" gradientUnits="userSpaceOnUse">
<stop stop-color="#401475"/>
<stop offset="1" stop-color="#6E14BE"/>
</linearGradient>
</defs>
</svg>
