<svg width="340" height="200" viewBox="0 0 340 200" fill="none" xmlns="http://www.w3.org/2000/svg">
<g clip-path="url(#clip0_1_586)">
<rect x="353" y="210" width="353" height="210" rx="8" transform="rotate(-180 353 210)" fill="url(#paint0_linear_1_586)"/>
<g opacity="0.4">
<path d="M195 137.976C197.102 246.011 336.982 281.315 389.314 188.829C407.095 158.614 407.095 115.455 389.314 85.2397C336.05 -8.11706 195.561 28.7551 195 137.976ZM215.414 91.6187C220.014 92.1621 229.691 93.2243 242.683 94.2123C239.53 106.7 237.798 119.513 237.521 132.4H204.244C204.905 118.13 208.722 104.193 215.414 91.6187ZM393.531 132.375H360.278C360 119.489 358.27 106.676 355.123 94.1876C368.017 93.2181 377.669 92.1683 382.398 91.6187C389.077 104.195 392.882 118.132 393.531 132.4V132.375ZM382.373 182.394C377.663 181.845 367.999 180.789 355.098 179.813C358.255 167.338 359.993 154.538 360.278 141.663H393.555C392.889 155.926 389.067 169.854 382.373 182.419V182.394ZM294.32 177.652C278.824 177.763 264.327 178.405 251.963 179.195C248.721 166.936 246.941 154.327 246.662 141.638H294.32V177.652ZM294.32 186.914V232.654C276.594 230.388 261.207 208.034 254.779 188.298C266.466 187.637 279.951 187.019 294.32 186.939V186.914ZM303.461 232.654V186.933C317.83 187.026 331.321 187.581 343.008 188.292C336.58 208.015 321.181 230.413 303.461 232.679V232.654ZM303.461 177.646V141.663H351.137C350.86 154.341 349.082 166.94 345.842 179.189C333.466 178.374 318.963 177.757 303.461 177.67V177.646ZM351.137 132.4H303.485V96.3921C318.969 96.2872 333.466 95.6511 345.842 94.8607C349.082 107.114 350.86 119.717 351.137 132.4ZM303.485 87.1293V41.3834C321.212 43.6559 336.598 66.0163 343.027 85.7584C331.309 86.4686 317.817 87.0305 303.461 87.1293H303.485ZM294.345 41.3834V87.1293C279.964 87.0367 266.472 86.4748 254.797 85.7584C261.201 66.0225 276.6 43.6497 294.32 41.3834H294.345ZM294.345 96.3983V132.4H246.662C246.943 119.717 248.72 107.115 251.957 94.8607C264.315 95.6264 278.806 96.2933 294.32 96.3983H294.345ZM237.546 141.663C237.81 154.554 239.53 167.373 242.671 179.869C229.691 180.857 220.002 181.913 215.408 182.45C208.711 169.876 204.891 155.936 204.232 141.663H237.546ZM220.673 191.175C226.206 190.558 234.737 189.737 245.333 188.959C250.007 203.248 257.332 217.408 267.271 227.547C248.339 220.711 232.028 207.979 220.673 191.175ZM330.523 227.547C340.455 217.389 347.774 203.236 352.46 188.928C363.038 189.7 371.563 190.539 377.139 191.145C365.784 207.963 349.465 220.707 330.523 227.547ZM377.121 82.9117C371.545 83.5292 363.014 84.3505 352.448 85.1224C347.774 70.8268 340.449 56.667 330.51 46.515C349.448 53.3579 365.764 66.0983 377.121 82.9117ZM267.252 46.515C257.326 56.6732 250.007 70.8206 245.315 85.1224C234.706 84.3443 226.175 83.4983 220.648 82.8931C232.007 66.0889 248.32 53.3557 267.252 46.515Z" fill="#F583AB"/>
</g>
<path d="M22.0664 177.287H23.1914C23.1328 177.826 22.9785 178.309 22.7285 178.734C22.4785 179.16 22.125 179.498 21.668 179.748C21.2109 179.994 20.6406 180.117 19.957 180.117C19.457 180.117 19.002 180.023 18.5918 179.836C18.1855 179.648 17.8359 179.383 17.543 179.039C17.25 178.691 17.0234 178.275 16.8633 177.791C16.707 177.303 16.6289 176.76 16.6289 176.162V175.312C16.6289 174.715 16.707 174.174 16.8633 173.689C17.0234 173.201 17.252 172.783 17.5488 172.436C17.8496 172.088 18.2109 171.82 18.6328 171.633C19.0547 171.445 19.5293 171.352 20.0566 171.352C20.7012 171.352 21.2461 171.473 21.6914 171.715C22.1367 171.957 22.4824 172.293 22.7285 172.723C22.9785 173.148 23.1328 173.643 23.1914 174.205H22.0664C22.0117 173.807 21.9102 173.465 21.7617 173.18C21.6133 172.891 21.4023 172.668 21.1289 172.512C20.8555 172.355 20.498 172.277 20.0566 172.277C19.6777 172.277 19.3438 172.35 19.0547 172.494C18.7695 172.639 18.5293 172.844 18.334 173.109C18.1426 173.375 17.998 173.693 17.9004 174.064C17.8027 174.436 17.7539 174.848 17.7539 175.301V176.162C17.7539 176.58 17.7969 176.973 17.8828 177.34C17.9727 177.707 18.1074 178.029 18.2871 178.307C18.4668 178.584 18.6953 178.803 18.9727 178.963C19.25 179.119 19.5781 179.197 19.957 179.197C20.4375 179.197 20.8203 179.121 21.1055 178.969C21.3906 178.816 21.6055 178.598 21.75 178.312C21.8984 178.027 22.0039 177.686 22.0664 177.287Z" fill="#F8F8F8"/>
<path d="M27.8906 172.225L25.0664 180H23.9121L27.1641 171.469H27.9082L27.8906 172.225ZM30.2578 180L27.4277 172.225L27.4102 171.469H28.1543L31.418 180H30.2578ZM30.1113 176.842V177.768H25.3184V176.842H30.1113Z" fill="#F8F8F8"/>
<path d="M32.5605 171.469H35.3848C36.0254 171.469 36.5664 171.566 37.0078 171.762C37.4531 171.957 37.791 172.246 38.0215 172.629C38.2559 173.008 38.373 173.475 38.373 174.029C38.373 174.42 38.293 174.777 38.1328 175.102C37.9766 175.422 37.75 175.695 37.4531 175.922C37.1602 176.145 36.8086 176.311 36.3984 176.42L36.082 176.543H33.4277L33.416 175.623H35.4199C35.8262 175.623 36.1641 175.553 36.4336 175.412C36.7031 175.268 36.9062 175.074 37.043 174.832C37.1797 174.59 37.248 174.322 37.248 174.029C37.248 173.701 37.1836 173.414 37.0547 173.168C36.9258 172.922 36.7227 172.732 36.4453 172.6C36.1719 172.463 35.8184 172.395 35.3848 172.395H33.6914V180H32.5605V171.469ZM37.5469 180L35.4727 176.133L36.6504 176.127L38.7539 179.93V180H37.5469Z" fill="#F8F8F8"/>
<path d="M42.2637 180H40.4824L40.4941 179.08H42.2637C42.873 179.08 43.3809 178.953 43.7871 178.699C44.1934 178.441 44.498 178.082 44.7012 177.621C44.9082 177.156 45.0117 176.613 45.0117 175.992V175.471C45.0117 174.982 44.9531 174.549 44.8359 174.17C44.7188 173.787 44.5469 173.465 44.3203 173.203C44.0938 172.938 43.8164 172.736 43.4883 172.6C43.1641 172.463 42.791 172.395 42.3691 172.395H40.4473V171.469H42.3691C42.9277 171.469 43.4375 171.562 43.8984 171.75C44.3594 171.934 44.7559 172.201 45.0879 172.553C45.4238 172.9 45.6816 173.322 45.8613 173.818C46.041 174.311 46.1309 174.865 46.1309 175.482V175.992C46.1309 176.609 46.041 177.166 45.8613 177.662C45.6816 178.154 45.4219 178.574 45.082 178.922C44.7461 179.27 44.3398 179.537 43.8633 179.725C43.3906 179.908 42.8574 180 42.2637 180ZM41.0859 171.469V180H39.9551V171.469H41.0859Z" fill="#F8F8F8"/>
<path d="M53.4023 175.137V176.057H48.7852V175.137H53.4023ZM48.9609 171.469V180H47.8301V171.469H48.9609ZM54.3867 171.469V180H53.2617V171.469H54.3867Z" fill="#F8F8F8"/>
<path d="M62.9648 175.465V176.004C62.9648 176.645 62.8848 177.219 62.7246 177.727C62.5645 178.234 62.334 178.666 62.0332 179.021C61.7324 179.377 61.3711 179.648 60.9492 179.836C60.5312 180.023 60.0625 180.117 59.543 180.117C59.0391 180.117 58.5762 180.023 58.1543 179.836C57.7363 179.648 57.373 179.377 57.0645 179.021C56.7598 178.666 56.5234 178.234 56.3555 177.727C56.1875 177.219 56.1035 176.645 56.1035 176.004V175.465C56.1035 174.824 56.1855 174.252 56.3496 173.748C56.5176 173.24 56.7539 172.809 57.0586 172.453C57.3633 172.094 57.7246 171.82 58.1426 171.633C58.5645 171.445 59.0273 171.352 59.5312 171.352C60.0508 171.352 60.5195 171.445 60.9375 171.633C61.3594 171.82 61.7207 172.094 62.0215 172.453C62.3262 172.809 62.5586 173.24 62.7188 173.748C62.8828 174.252 62.9648 174.824 62.9648 175.465ZM61.8457 176.004V175.453C61.8457 174.945 61.793 174.496 61.6875 174.105C61.5859 173.715 61.4355 173.387 61.2363 173.121C61.0371 172.855 60.793 172.654 60.5039 172.518C60.2188 172.381 59.8945 172.312 59.5312 172.312C59.1797 172.312 58.8613 172.381 58.5762 172.518C58.2949 172.654 58.0527 172.855 57.8496 173.121C57.6504 173.387 57.4961 173.715 57.3867 174.105C57.2773 174.496 57.2227 174.945 57.2227 175.453V176.004C57.2227 176.516 57.2773 176.969 57.3867 177.363C57.4961 177.754 57.6523 178.084 57.8555 178.354C58.0625 178.619 58.3066 178.82 58.5879 178.957C58.873 179.094 59.1914 179.162 59.543 179.162C59.9102 179.162 60.2363 179.094 60.5215 178.957C60.8066 178.82 61.0469 178.619 61.2422 178.354C61.4414 178.084 61.5918 177.754 61.6934 177.363C61.7949 176.969 61.8457 176.516 61.8457 176.004Z" fill="#F8F8F8"/>
<path d="M69.832 179.08V180H65.5664V179.08H69.832ZM65.7891 171.469V180H64.6582V171.469H65.7891Z" fill="#F8F8F8"/>
<path d="M73.4355 180H71.6543L71.666 179.08H73.4355C74.0449 179.08 74.5527 178.953 74.959 178.699C75.3652 178.441 75.6699 178.082 75.873 177.621C76.0801 177.156 76.1836 176.613 76.1836 175.992V175.471C76.1836 174.982 76.125 174.549 76.0078 174.17C75.8906 173.787 75.7188 173.465 75.4922 173.203C75.2656 172.938 74.9883 172.736 74.6602 172.6C74.3359 172.463 73.9629 172.395 73.541 172.395H71.6191V171.469H73.541C74.0996 171.469 74.6094 171.562 75.0703 171.75C75.5312 171.934 75.9277 172.201 76.2598 172.553C76.5957 172.9 76.8535 173.322 77.0332 173.818C77.2129 174.311 77.3027 174.865 77.3027 175.482V175.992C77.3027 176.609 77.2129 177.166 77.0332 177.662C76.8535 178.154 76.5938 178.574 76.2539 178.922C75.918 179.27 75.5117 179.537 75.0352 179.725C74.5625 179.908 74.0293 180 73.4355 180ZM72.2578 171.469V180H71.127V171.469H72.2578Z" fill="#F8F8F8"/>
<path d="M84.4219 179.08V180H79.9043V179.08H84.4219ZM80.1328 171.469V180H79.002V171.469H80.1328ZM83.8242 175.137V176.057H79.9043V175.137H83.8242ZM84.3633 171.469V172.395H79.9043V171.469H84.3633Z" fill="#F8F8F8"/>
<path d="M85.8223 171.469H88.6465C89.2871 171.469 89.8281 171.566 90.2695 171.762C90.7148 171.957 91.0527 172.246 91.2832 172.629C91.5176 173.008 91.6348 173.475 91.6348 174.029C91.6348 174.42 91.5547 174.777 91.3945 175.102C91.2383 175.422 91.0117 175.695 90.7148 175.922C90.4219 176.145 90.0703 176.311 89.6602 176.42L89.3438 176.543H86.6895L86.6777 175.623H88.6816C89.0879 175.623 89.4258 175.553 89.6953 175.412C89.9648 175.268 90.168 175.074 90.3047 174.832C90.4414 174.59 90.5098 174.322 90.5098 174.029C90.5098 173.701 90.4453 173.414 90.3164 173.168C90.1875 172.922 89.9844 172.732 89.707 172.6C89.4336 172.463 89.0801 172.395 88.6465 172.395H86.9531V180H85.8223V171.469ZM90.8086 180L88.7344 176.133L89.9121 176.127L92.0156 179.93V180H90.8086Z" fill="#F8F8F8"/>
<path d="M102.756 171.469V180H101.619L97.3242 173.42V180H96.1934V171.469H97.3242L101.637 178.066V171.469H102.756Z" fill="#F8F8F8"/>
<path d="M108.023 172.225L105.199 180H104.045L107.297 171.469H108.041L108.023 172.225ZM110.391 180L107.561 172.225L107.543 171.469H108.287L111.551 180H110.391ZM110.244 176.842V177.768H105.451V176.842H110.244Z" fill="#F8F8F8"/>
<path d="M113.051 171.469H114.146L116.941 178.424L119.73 171.469H120.832L117.363 180H116.508L113.051 171.469ZM112.693 171.469H113.66L113.818 176.672V180H112.693V171.469ZM120.217 171.469H121.184V180H120.059V176.672L120.217 171.469Z" fill="#F8F8F8"/>
<path d="M128.59 179.08V180H124.072V179.08H128.59ZM124.301 171.469V180H123.17V171.469H124.301ZM127.992 175.137V176.057H124.072V175.137H127.992ZM128.531 171.469V172.395H124.072V171.469H128.531Z" fill="#F8F8F8"/>
<g clip-path="url(#clip1_1_586)">
<rect x="15" y="92" width="30" height="22" rx="4" fill="#F8F8F8"/>
<path d="M15 98.5H45" stroke="#C91FEA"/>
<path d="M22.5 92L22.5 98" stroke="#C91FEA"/>
<path d="M37.5 92L37.5 98" stroke="#C91FEA"/>
<path d="M22.5 108L22.5 114" stroke="#C91FEA"/>
<path d="M37.5 108L37.5 114" stroke="#C91FEA"/>
<path d="M15 107.5L45 107.5" stroke="#C91FEA"/>
<path d="M34.5 103C34.5 105.485 32.4853 107.5 30 107.5C27.5147 107.5 25.5 105.485 25.5 103C25.5 100.515 27.5147 98.5 30 98.5C32.4853 98.5 34.5 100.515 34.5 103Z" fill="#FEFEFE" stroke="#C91FEA"/>
</g>
</g>
<defs>
<linearGradient id="paint0_linear_1_586" x1="353" y1="428.842" x2="699.872" y2="173.648" gradientUnits="userSpaceOnUse">
<stop stop-color="#BC00FE"/>
<stop offset="1" stop-color="#FF9B9B"/>
</linearGradient>
<clipPath id="clip0_1_586">
<rect width="340" height="200" rx="8" transform="matrix(-1 0 0 1 340 0)" fill="white"/>
</clipPath>
<clipPath id="clip1_1_586">
<rect x="15" y="92" width="30" height="22" rx="4" fill="white"/>
</clipPath>
</defs>
</svg>
