<svg width="340" height="200" viewBox="0 0 340 200" fill="none" xmlns="http://www.w3.org/2000/svg">
<g clip-path="url(#clip0_1_334)">
<rect width="340" height="200" rx="8" fill="url(#paint0_linear_1_334)"/>
<g opacity="0.2">
<path d="M346.97 199.039V175.698H378.59V199.039H346.97Z" fill="#FEFEFE"/>
<path d="M346.97 91.6706V63.6615H378.59V91.6706H346.97Z" fill="#FEFEFE"/>
<path d="M209.612 96.417H229.951V171.682H209.612V96.417Z" fill="#FEFEFE"/>
<path d="M231.462 101.184H208.101C204.903 101.184 202.311 98.9535 202.311 96.202V85.3419H237.253V96.202C237.253 98.9535 234.661 101.184 231.462 101.184ZM231.462 163.762H208.101C204.903 163.762 202.311 165.992 202.311 168.744V179.604H237.253V168.744C237.253 165.992 234.661 163.762 231.462 163.762Z" fill="#FEFEFE"/>
<path d="M348.036 96.417H368.375V171.682H348.036V96.417Z" fill="#FEFEFE"/>
<path d="M369.886 101.184H346.525C343.327 101.184 340.735 98.9535 340.735 96.202V85.3419H375.677V96.202C375.677 98.9535 373.084 101.184 369.886 101.184ZM369.886 163.762H346.525C343.327 163.762 340.735 165.992 340.735 168.744V179.604H375.677V168.744C375.677 165.992 373.084 163.762 369.886 163.762Z" fill="#FEFEFE"/>
<path d="M278.824 96.417H299.163V171.682H278.824V96.417Z" fill="#FEFEFE"/>
<path d="M300.674 101.184H277.313C274.115 101.184 271.523 98.9535 271.523 96.202V85.3419H306.465V96.202C306.465 98.9535 303.872 101.184 300.674 101.184ZM300.674 163.762H277.313C274.115 163.762 271.523 165.992 271.523 168.744V179.604H306.465V168.744C306.465 165.992 303.872 163.762 300.674 163.762Z" fill="#FEFEFE"/>
<path d="M360.208 83.4338V73.0816H191.719V83.4338C191.719 86.5972 194.7 89.1614 198.376 89.1614H354.398C358.075 89.1614 360.208 86.5972 360.208 83.4338Z" fill="#FEFEFE"/>
<path d="M360.208 73.0816V83.4338C360.208 86.5972 357.227 89.1614 353.55 89.1614H379.611C383.289 89.1614 386.269 86.5969 386.269 83.4338V73.0816H360.208Z" fill="#FEFEFE"/>
<path d="M365.096 75.9854C367.843 74.8711 369.216 72.731 369.224 70.4984V57.445C369.224 57.2102 369.145 56.9803 368.997 56.7832C368.848 56.586 368.637 56.43 368.388 56.3339L292.036 26.8586C291.11 26.5012 290.106 26.3162 289.091 26.3159C288.076 26.3156 287.073 26.5 286.146 26.8569L187.855 64.7379C182.242 66.9014 182.164 73.7334 187.728 75.9904C188.688 76.38 189.736 76.582 190.798 76.5819H362.014C363.078 76.5819 364.128 76.379 365.09 75.9879L365.096 75.9854Z" fill="#FEFEFE"/>
<path d="M390.148 64.7347L368.375 56.3293V70.4987C368.367 72.7313 366.994 74.8711 364.247 75.9858L364.235 75.9908C363.275 76.3803 361.269 76.582 360.208 76.5819L387.19 76.5823C388.251 76.5823 389.3 76.3804 390.26 75.9908L390.272 75.9858C395.833 73.7291 395.758 66.9003 390.148 64.7347Z" fill="#FEFEFE"/>
<path d="M357.013 175.392H195.408C194.43 175.392 193.491 175.727 192.8 176.322C192.108 176.917 191.719 177.724 191.719 178.566V193.211H360.207V178.566C360.207 177.724 360.314 176.917 359.622 176.322C358.93 175.727 357.991 175.392 357.013 175.392Z" fill="#FEFEFE"/>
<path d="M382.58 175.392H356.518C357.497 175.392 358.435 175.727 359.127 176.322C359.819 176.917 360.207 177.724 360.207 178.566V193.211H386.269V178.566C386.269 177.724 385.88 176.917 385.188 176.322C384.496 175.727 383.558 175.392 382.58 175.392Z" fill="#FEFEFE"/>
<path d="M360.207 187.272H190.683C186.87 187.272 183.779 189.931 183.779 193.211V197.474C183.779 198.146 184.089 198.79 184.641 199.265C184.914 199.501 185.239 199.687 185.596 199.814C185.953 199.942 186.336 200.007 186.723 200.007H368.833V194.184C368.833 190.367 364.645 187.272 360.207 187.272Z" fill="#FEFEFE"/>
<path d="M387.495 187.272H360.207C364.645 187.272 368.338 190.366 368.338 194.184V200.007H391.455C392.236 200.007 392.985 199.74 393.537 199.265C394.089 198.79 394.399 198.146 394.399 197.474V193.211C394.4 189.931 391.308 187.272 387.495 187.272Z" fill="#FEFEFE"/>
<path d="M288.994 65.8101C296.249 65.8101 302.131 60.7501 302.131 54.5083C302.131 48.2665 296.249 43.2065 288.994 43.2065C281.739 43.2065 275.857 48.2665 275.857 54.5083C275.857 60.7501 281.739 65.8101 288.994 65.8101Z" fill="#5F98FE"/>
<path d="M183.6 241.053V209.507H193.089V234.604H208.524V241.053H183.6Z" fill="#FEFEFE"/>
<path d="M212.868 241.053V209.507H222.357V241.053H212.868Z" fill="#FEFEFE"/>
<path d="M228.019 241.053V209.507H245.368C252.763 209.507 257.236 212.524 257.236 217.442V217.486C257.236 221.05 254.004 223.892 249.764 224.351V224.504C254.857 224.722 258.865 227.848 258.865 231.98V232.024C258.865 237.511 253.823 241.053 245.834 241.053H228.019ZM242.86 215.169H237.508V222.471H242.162C245.963 222.471 247.98 221.071 247.98 218.71V218.667C247.98 216.481 246.067 215.169 242.86 215.169ZM242.86 227.521H237.508V235.391H243.145C247.023 235.391 249.221 234.013 249.221 231.456V231.412C249.221 228.898 247.023 227.521 242.86 227.521Z" fill="#FEFEFE"/>
<path d="M262.873 241.053V209.507H288.444V215.956H272.362V222.186H287.487V228.22H272.362V234.604H288.444V241.053H262.873Z" fill="#FEFEFE"/>
<path d="M293.796 241.053V209.507H309.956C318.979 209.507 324.073 213.289 324.073 219.978V220.022C324.073 224.066 321.59 227.564 317.712 228.985L325.184 241.053H314.532L308.12 230.188H303.285V241.053H293.796ZM303.285 224.373H308.895C312.257 224.373 314.403 222.667 314.403 220V219.956C314.403 217.311 312.179 215.562 308.844 215.562H303.285V224.373Z" fill="#FEFEFE"/>
<path d="M337.517 241.053V215.956H327.227V209.507H357.271V215.956H346.981V241.053H337.517Z" fill="#FEFEFE"/>
<path d="M372.06 241.053V230.209L359.21 209.507H369.294L376.714 222.624H376.895L384.316 209.507H394.4L381.549 230.209V241.053H372.06Z" fill="#FEFEFE"/>
</g>
<path d="M22.0664 177.287H23.1914C23.1328 177.826 22.9785 178.309 22.7285 178.734C22.4785 179.16 22.125 179.498 21.668 179.748C21.2109 179.994 20.6406 180.117 19.957 180.117C19.457 180.117 19.002 180.023 18.5918 179.836C18.1855 179.648 17.8359 179.383 17.543 179.039C17.25 178.691 17.0234 178.275 16.8633 177.791C16.707 177.303 16.6289 176.76 16.6289 176.162V175.312C16.6289 174.715 16.707 174.174 16.8633 173.689C17.0234 173.201 17.252 172.783 17.5488 172.436C17.8496 172.088 18.2109 171.82 18.6328 171.633C19.0547 171.445 19.5293 171.352 20.0566 171.352C20.7012 171.352 21.2461 171.473 21.6914 171.715C22.1367 171.957 22.4824 172.293 22.7285 172.723C22.9785 173.148 23.1328 173.643 23.1914 174.205H22.0664C22.0117 173.807 21.9102 173.465 21.7617 173.18C21.6133 172.891 21.4023 172.668 21.1289 172.512C20.8555 172.355 20.498 172.277 20.0566 172.277C19.6777 172.277 19.3438 172.35 19.0547 172.494C18.7695 172.639 18.5293 172.844 18.334 173.109C18.1426 173.375 17.998 173.693 17.9004 174.064C17.8027 174.436 17.7539 174.848 17.7539 175.301V176.162C17.7539 176.58 17.7969 176.973 17.8828 177.34C17.9727 177.707 18.1074 178.029 18.2871 178.307C18.4668 178.584 18.6953 178.803 18.9727 178.963C19.25 179.119 19.5781 179.197 19.957 179.197C20.4375 179.197 20.8203 179.121 21.1055 178.969C21.3906 178.816 21.6055 178.598 21.75 178.312C21.8984 178.027 22.0039 177.686 22.0664 177.287Z" fill="#F8F8F8"/>
<path d="M27.8906 172.225L25.0664 180H23.9121L27.1641 171.469H27.9082L27.8906 172.225ZM30.2578 180L27.4277 172.225L27.4102 171.469H28.1543L31.418 180H30.2578ZM30.1113 176.842V177.768H25.3184V176.842H30.1113Z" fill="#F8F8F8"/>
<path d="M32.5605 171.469H35.3848C36.0254 171.469 36.5664 171.566 37.0078 171.762C37.4531 171.957 37.791 172.246 38.0215 172.629C38.2559 173.008 38.373 173.475 38.373 174.029C38.373 174.42 38.293 174.777 38.1328 175.102C37.9766 175.422 37.75 175.695 37.4531 175.922C37.1602 176.145 36.8086 176.311 36.3984 176.42L36.082 176.543H33.4277L33.416 175.623H35.4199C35.8262 175.623 36.1641 175.553 36.4336 175.412C36.7031 175.268 36.9062 175.074 37.043 174.832C37.1797 174.59 37.248 174.322 37.248 174.029C37.248 173.701 37.1836 173.414 37.0547 173.168C36.9258 172.922 36.7227 172.732 36.4453 172.6C36.1719 172.463 35.8184 172.395 35.3848 172.395H33.6914V180H32.5605V171.469ZM37.5469 180L35.4727 176.133L36.6504 176.127L38.7539 179.93V180H37.5469Z" fill="#F8F8F8"/>
<path d="M42.2637 180H40.4824L40.4941 179.08H42.2637C42.873 179.08 43.3809 178.953 43.7871 178.699C44.1934 178.441 44.498 178.082 44.7012 177.621C44.9082 177.156 45.0117 176.613 45.0117 175.992V175.471C45.0117 174.982 44.9531 174.549 44.8359 174.17C44.7188 173.787 44.5469 173.465 44.3203 173.203C44.0938 172.938 43.8164 172.736 43.4883 172.6C43.1641 172.463 42.791 172.395 42.3691 172.395H40.4473V171.469H42.3691C42.9277 171.469 43.4375 171.562 43.8984 171.75C44.3594 171.934 44.7559 172.201 45.0879 172.553C45.4238 172.9 45.6816 173.322 45.8613 173.818C46.041 174.311 46.1309 174.865 46.1309 175.482V175.992C46.1309 176.609 46.041 177.166 45.8613 177.662C45.6816 178.154 45.4219 178.574 45.082 178.922C44.7461 179.27 44.3398 179.537 43.8633 179.725C43.3906 179.908 42.8574 180 42.2637 180ZM41.0859 171.469V180H39.9551V171.469H41.0859Z" fill="#F8F8F8"/>
<path d="M53.4023 175.137V176.057H48.7852V175.137H53.4023ZM48.9609 171.469V180H47.8301V171.469H48.9609ZM54.3867 171.469V180H53.2617V171.469H54.3867Z" fill="#F8F8F8"/>
<path d="M62.9648 175.465V176.004C62.9648 176.645 62.8848 177.219 62.7246 177.727C62.5645 178.234 62.334 178.666 62.0332 179.021C61.7324 179.377 61.3711 179.648 60.9492 179.836C60.5312 180.023 60.0625 180.117 59.543 180.117C59.0391 180.117 58.5762 180.023 58.1543 179.836C57.7363 179.648 57.373 179.377 57.0645 179.021C56.7598 178.666 56.5234 178.234 56.3555 177.727C56.1875 177.219 56.1035 176.645 56.1035 176.004V175.465C56.1035 174.824 56.1855 174.252 56.3496 173.748C56.5176 173.24 56.7539 172.809 57.0586 172.453C57.3633 172.094 57.7246 171.82 58.1426 171.633C58.5645 171.445 59.0273 171.352 59.5312 171.352C60.0508 171.352 60.5195 171.445 60.9375 171.633C61.3594 171.82 61.7207 172.094 62.0215 172.453C62.3262 172.809 62.5586 173.24 62.7188 173.748C62.8828 174.252 62.9648 174.824 62.9648 175.465ZM61.8457 176.004V175.453C61.8457 174.945 61.793 174.496 61.6875 174.105C61.5859 173.715 61.4355 173.387 61.2363 173.121C61.0371 172.855 60.793 172.654 60.5039 172.518C60.2188 172.381 59.8945 172.312 59.5312 172.312C59.1797 172.312 58.8613 172.381 58.5762 172.518C58.2949 172.654 58.0527 172.855 57.8496 173.121C57.6504 173.387 57.4961 173.715 57.3867 174.105C57.2773 174.496 57.2227 174.945 57.2227 175.453V176.004C57.2227 176.516 57.2773 176.969 57.3867 177.363C57.4961 177.754 57.6523 178.084 57.8555 178.354C58.0625 178.619 58.3066 178.82 58.5879 178.957C58.873 179.094 59.1914 179.162 59.543 179.162C59.9102 179.162 60.2363 179.094 60.5215 178.957C60.8066 178.82 61.0469 178.619 61.2422 178.354C61.4414 178.084 61.5918 177.754 61.6934 177.363C61.7949 176.969 61.8457 176.516 61.8457 176.004Z" fill="#F8F8F8"/>
<path d="M69.832 179.08V180H65.5664V179.08H69.832ZM65.7891 171.469V180H64.6582V171.469H65.7891Z" fill="#F8F8F8"/>
<path d="M73.4355 180H71.6543L71.666 179.08H73.4355C74.0449 179.08 74.5527 178.953 74.959 178.699C75.3652 178.441 75.6699 178.082 75.873 177.621C76.0801 177.156 76.1836 176.613 76.1836 175.992V175.471C76.1836 174.982 76.125 174.549 76.0078 174.17C75.8906 173.787 75.7188 173.465 75.4922 173.203C75.2656 172.938 74.9883 172.736 74.6602 172.6C74.3359 172.463 73.9629 172.395 73.541 172.395H71.6191V171.469H73.541C74.0996 171.469 74.6094 171.562 75.0703 171.75C75.5312 171.934 75.9277 172.201 76.2598 172.553C76.5957 172.9 76.8535 173.322 77.0332 173.818C77.2129 174.311 77.3027 174.865 77.3027 175.482V175.992C77.3027 176.609 77.2129 177.166 77.0332 177.662C76.8535 178.154 76.5938 178.574 76.2539 178.922C75.918 179.27 75.5117 179.537 75.0352 179.725C74.5625 179.908 74.0293 180 73.4355 180ZM72.2578 171.469V180H71.127V171.469H72.2578Z" fill="#F8F8F8"/>
<path d="M84.4219 179.08V180H79.9043V179.08H84.4219ZM80.1328 171.469V180H79.002V171.469H80.1328ZM83.8242 175.137V176.057H79.9043V175.137H83.8242ZM84.3633 171.469V172.395H79.9043V171.469H84.3633Z" fill="#F8F8F8"/>
<path d="M85.8223 171.469H88.6465C89.2871 171.469 89.8281 171.566 90.2695 171.762C90.7148 171.957 91.0527 172.246 91.2832 172.629C91.5176 173.008 91.6348 173.475 91.6348 174.029C91.6348 174.42 91.5547 174.777 91.3945 175.102C91.2383 175.422 91.0117 175.695 90.7148 175.922C90.4219 176.145 90.0703 176.311 89.6602 176.42L89.3438 176.543H86.6895L86.6777 175.623H88.6816C89.0879 175.623 89.4258 175.553 89.6953 175.412C89.9648 175.268 90.168 175.074 90.3047 174.832C90.4414 174.59 90.5098 174.322 90.5098 174.029C90.5098 173.701 90.4453 173.414 90.3164 173.168C90.1875 172.922 89.9844 172.732 89.707 172.6C89.4336 172.463 89.0801 172.395 88.6465 172.395H86.9531V180H85.8223V171.469ZM90.8086 180L88.7344 176.133L89.9121 176.127L92.0156 179.93V180H90.8086Z" fill="#F8F8F8"/>
<path d="M102.756 171.469V180H101.619L97.3242 173.42V180H96.1934V171.469H97.3242L101.637 178.066V171.469H102.756Z" fill="#F8F8F8"/>
<path d="M108.023 172.225L105.199 180H104.045L107.297 171.469H108.041L108.023 172.225ZM110.391 180L107.561 172.225L107.543 171.469H108.287L111.551 180H110.391ZM110.244 176.842V177.768H105.451V176.842H110.244Z" fill="#F8F8F8"/>
<path d="M113.051 171.469H114.146L116.941 178.424L119.73 171.469H120.832L117.363 180H116.508L113.051 171.469ZM112.693 171.469H113.66L113.818 176.672V180H112.693V171.469ZM120.217 171.469H121.184V180H120.059V176.672L120.217 171.469Z" fill="#F8F8F8"/>
<path d="M128.59 179.08V180H124.072V179.08H128.59ZM124.301 171.469V180H123.17V171.469H124.301ZM127.992 175.137V176.057H124.072V175.137H127.992ZM128.531 171.469V172.395H124.072V171.469H128.531Z" fill="#F8F8F8"/>
<g clip-path="url(#clip1_1_334)">
<rect x="15" y="92" width="30" height="22" rx="4" fill="#F8F8F8"/>
<path d="M15 98.5H45" stroke="#005AFE"/>
<path d="M22.5 92L22.5 98" stroke="#005AFE"/>
<path d="M37.5 92L37.5 98" stroke="#005AFE"/>
<path d="M22.5 108L22.5 114" stroke="#005AFE"/>
<path d="M37.5 108L37.5 114" stroke="#005AFE"/>
<path d="M15 107.5L45 107.5" stroke="#005AFE"/>
<path d="M34.5 103C34.5 105.485 32.4853 107.5 30 107.5C27.5147 107.5 25.5 105.485 25.5 103C25.5 100.515 27.5147 98.5 30 98.5C32.4853 98.5 34.5 100.515 34.5 103Z" fill="#FEFEFE" stroke="#005AFE"/>
</g>
</g>
<defs>
<linearGradient id="paint0_linear_1_334" x1="3.62816e-06" y1="208.421" x2="331.444" y2="-38.1862" gradientUnits="userSpaceOnUse">
<stop stop-color="#005AFE"/>
<stop offset="1" stop-color="#9BBFFF"/>
</linearGradient>
<clipPath id="clip0_1_334">
<rect width="340" height="200" rx="8" transform="matrix(-1 0 0 1 340 0)" fill="white"/>
</clipPath>
<clipPath id="clip1_1_334">
<rect x="15" y="92" width="30" height="22" rx="4" fill="white"/>
</clipPath>
</defs>
</svg>
