<svg width="340" height="200" viewBox="0 0 340 200" fill="none" xmlns="http://www.w3.org/2000/svg">
<g clip-path="url(#clip0_1_348)">
<rect width="340" height="200" rx="8" fill="url(#paint0_linear_1_348)"/>
<path d="M22.0664 177.287H23.1914C23.1328 177.826 22.9785 178.309 22.7285 178.734C22.4785 179.16 22.125 179.498 21.668 179.748C21.2109 179.994 20.6406 180.117 19.957 180.117C19.457 180.117 19.002 180.023 18.5918 179.836C18.1855 179.648 17.8359 179.383 17.543 179.039C17.25 178.691 17.0234 178.275 16.8633 177.791C16.707 177.303 16.6289 176.76 16.6289 176.162V175.312C16.6289 174.715 16.707 174.174 16.8633 173.689C17.0234 173.201 17.252 172.783 17.5488 172.436C17.8496 172.088 18.2109 171.82 18.6328 171.633C19.0547 171.445 19.5293 171.352 20.0566 171.352C20.7012 171.352 21.2461 171.473 21.6914 171.715C22.1367 171.957 22.4824 172.293 22.7285 172.723C22.9785 173.148 23.1328 173.643 23.1914 174.205H22.0664C22.0117 173.807 21.9102 173.465 21.7617 173.18C21.6133 172.891 21.4023 172.668 21.1289 172.512C20.8555 172.355 20.498 172.277 20.0566 172.277C19.6777 172.277 19.3438 172.35 19.0547 172.494C18.7695 172.639 18.5293 172.844 18.334 173.109C18.1426 173.375 17.998 173.693 17.9004 174.064C17.8027 174.436 17.7539 174.848 17.7539 175.301V176.162C17.7539 176.58 17.7969 176.973 17.8828 177.34C17.9727 177.707 18.1074 178.029 18.2871 178.307C18.4668 178.584 18.6953 178.803 18.9727 178.963C19.25 179.119 19.5781 179.197 19.957 179.197C20.4375 179.197 20.8203 179.121 21.1055 178.969C21.3906 178.816 21.6055 178.598 21.75 178.312C21.8984 178.027 22.0039 177.686 22.0664 177.287Z" fill="#F8F8F8"/>
<path d="M27.8906 172.225L25.0664 180H23.9121L27.1641 171.469H27.9082L27.8906 172.225ZM30.2578 180L27.4277 172.225L27.4102 171.469H28.1543L31.418 180H30.2578ZM30.1113 176.842V177.768H25.3184V176.842H30.1113Z" fill="#F8F8F8"/>
<path d="M32.5605 171.469H35.3848C36.0254 171.469 36.5664 171.566 37.0078 171.762C37.4531 171.957 37.791 172.246 38.0215 172.629C38.2559 173.008 38.373 173.475 38.373 174.029C38.373 174.42 38.293 174.777 38.1328 175.102C37.9766 175.422 37.75 175.695 37.4531 175.922C37.1602 176.145 36.8086 176.311 36.3984 176.42L36.082 176.543H33.4277L33.416 175.623H35.4199C35.8262 175.623 36.1641 175.553 36.4336 175.412C36.7031 175.268 36.9062 175.074 37.043 174.832C37.1797 174.59 37.248 174.322 37.248 174.029C37.248 173.701 37.1836 173.414 37.0547 173.168C36.9258 172.922 36.7227 172.732 36.4453 172.6C36.1719 172.463 35.8184 172.395 35.3848 172.395H33.6914V180H32.5605V171.469ZM37.5469 180L35.4727 176.133L36.6504 176.127L38.7539 179.93V180H37.5469Z" fill="#F8F8F8"/>
<path d="M42.2637 180H40.4824L40.4941 179.08H42.2637C42.873 179.08 43.3809 178.953 43.7871 178.699C44.1934 178.441 44.498 178.082 44.7012 177.621C44.9082 177.156 45.0117 176.613 45.0117 175.992V175.471C45.0117 174.982 44.9531 174.549 44.8359 174.17C44.7188 173.787 44.5469 173.465 44.3203 173.203C44.0938 172.938 43.8164 172.736 43.4883 172.6C43.1641 172.463 42.791 172.395 42.3691 172.395H40.4473V171.469H42.3691C42.9277 171.469 43.4375 171.562 43.8984 171.75C44.3594 171.934 44.7559 172.201 45.0879 172.553C45.4238 172.9 45.6816 173.322 45.8613 173.818C46.041 174.311 46.1309 174.865 46.1309 175.482V175.992C46.1309 176.609 46.041 177.166 45.8613 177.662C45.6816 178.154 45.4219 178.574 45.082 178.922C44.7461 179.27 44.3398 179.537 43.8633 179.725C43.3906 179.908 42.8574 180 42.2637 180ZM41.0859 171.469V180H39.9551V171.469H41.0859Z" fill="#F8F8F8"/>
<path d="M53.4023 175.137V176.057H48.7852V175.137H53.4023ZM48.9609 171.469V180H47.8301V171.469H48.9609ZM54.3867 171.469V180H53.2617V171.469H54.3867Z" fill="#F8F8F8"/>
<path d="M62.9648 175.465V176.004C62.9648 176.645 62.8848 177.219 62.7246 177.727C62.5645 178.234 62.334 178.666 62.0332 179.021C61.7324 179.377 61.3711 179.648 60.9492 179.836C60.5312 180.023 60.0625 180.117 59.543 180.117C59.0391 180.117 58.5762 180.023 58.1543 179.836C57.7363 179.648 57.373 179.377 57.0645 179.021C56.7598 178.666 56.5234 178.234 56.3555 177.727C56.1875 177.219 56.1035 176.645 56.1035 176.004V175.465C56.1035 174.824 56.1855 174.252 56.3496 173.748C56.5176 173.24 56.7539 172.809 57.0586 172.453C57.3633 172.094 57.7246 171.82 58.1426 171.633C58.5645 171.445 59.0273 171.352 59.5312 171.352C60.0508 171.352 60.5195 171.445 60.9375 171.633C61.3594 171.82 61.7207 172.094 62.0215 172.453C62.3262 172.809 62.5586 173.24 62.7188 173.748C62.8828 174.252 62.9648 174.824 62.9648 175.465ZM61.8457 176.004V175.453C61.8457 174.945 61.793 174.496 61.6875 174.105C61.5859 173.715 61.4355 173.387 61.2363 173.121C61.0371 172.855 60.793 172.654 60.5039 172.518C60.2188 172.381 59.8945 172.312 59.5312 172.312C59.1797 172.312 58.8613 172.381 58.5762 172.518C58.2949 172.654 58.0527 172.855 57.8496 173.121C57.6504 173.387 57.4961 173.715 57.3867 174.105C57.2773 174.496 57.2227 174.945 57.2227 175.453V176.004C57.2227 176.516 57.2773 176.969 57.3867 177.363C57.4961 177.754 57.6523 178.084 57.8555 178.354C58.0625 178.619 58.3066 178.82 58.5879 178.957C58.873 179.094 59.1914 179.162 59.543 179.162C59.9102 179.162 60.2363 179.094 60.5215 178.957C60.8066 178.82 61.0469 178.619 61.2422 178.354C61.4414 178.084 61.5918 177.754 61.6934 177.363C61.7949 176.969 61.8457 176.516 61.8457 176.004Z" fill="#F8F8F8"/>
<path d="M69.832 179.08V180H65.5664V179.08H69.832ZM65.7891 171.469V180H64.6582V171.469H65.7891Z" fill="#F8F8F8"/>
<path d="M73.4355 180H71.6543L71.666 179.08H73.4355C74.0449 179.08 74.5527 178.953 74.959 178.699C75.3652 178.441 75.6699 178.082 75.873 177.621C76.0801 177.156 76.1836 176.613 76.1836 175.992V175.471C76.1836 174.982 76.125 174.549 76.0078 174.17C75.8906 173.787 75.7188 173.465 75.4922 173.203C75.2656 172.938 74.9883 172.736 74.6602 172.6C74.3359 172.463 73.9629 172.395 73.541 172.395H71.6191V171.469H73.541C74.0996 171.469 74.6094 171.562 75.0703 171.75C75.5312 171.934 75.9277 172.201 76.2598 172.553C76.5957 172.9 76.8535 173.322 77.0332 173.818C77.2129 174.311 77.3027 174.865 77.3027 175.482V175.992C77.3027 176.609 77.2129 177.166 77.0332 177.662C76.8535 178.154 76.5938 178.574 76.2539 178.922C75.918 179.27 75.5117 179.537 75.0352 179.725C74.5625 179.908 74.0293 180 73.4355 180ZM72.2578 171.469V180H71.127V171.469H72.2578Z" fill="#F8F8F8"/>
<path d="M84.4219 179.08V180H79.9043V179.08H84.4219ZM80.1328 171.469V180H79.002V171.469H80.1328ZM83.8242 175.137V176.057H79.9043V175.137H83.8242ZM84.3633 171.469V172.395H79.9043V171.469H84.3633Z" fill="#F8F8F8"/>
<path d="M85.8223 171.469H88.6465C89.2871 171.469 89.8281 171.566 90.2695 171.762C90.7148 171.957 91.0527 172.246 91.2832 172.629C91.5176 173.008 91.6348 173.475 91.6348 174.029C91.6348 174.42 91.5547 174.777 91.3945 175.102C91.2383 175.422 91.0117 175.695 90.7148 175.922C90.4219 176.145 90.0703 176.311 89.6602 176.42L89.3438 176.543H86.6895L86.6777 175.623H88.6816C89.0879 175.623 89.4258 175.553 89.6953 175.412C89.9648 175.268 90.168 175.074 90.3047 174.832C90.4414 174.59 90.5098 174.322 90.5098 174.029C90.5098 173.701 90.4453 173.414 90.3164 173.168C90.1875 172.922 89.9844 172.732 89.707 172.6C89.4336 172.463 89.0801 172.395 88.6465 172.395H86.9531V180H85.8223V171.469ZM90.8086 180L88.7344 176.133L89.9121 176.127L92.0156 179.93V180H90.8086Z" fill="#F8F8F8"/>
<path d="M102.756 171.469V180H101.619L97.3242 173.42V180H96.1934V171.469H97.3242L101.637 178.066V171.469H102.756Z" fill="#F8F8F8"/>
<path d="M108.023 172.225L105.199 180H104.045L107.297 171.469H108.041L108.023 172.225ZM110.391 180L107.561 172.225L107.543 171.469H108.287L111.551 180H110.391ZM110.244 176.842V177.768H105.451V176.842H110.244Z" fill="#F8F8F8"/>
<path d="M113.051 171.469H114.146L116.941 178.424L119.73 171.469H120.832L117.363 180H116.508L113.051 171.469ZM112.693 171.469H113.66L113.818 176.672V180H112.693V171.469ZM120.217 171.469H121.184V180H120.059V176.672L120.217 171.469Z" fill="#F8F8F8"/>
<path d="M128.59 179.08V180H124.072V179.08H128.59ZM124.301 171.469V180H123.17V171.469H124.301ZM127.992 175.137V176.057H124.072V175.137H127.992ZM128.531 171.469V172.395H124.072V171.469H128.531Z" fill="#F8F8F8"/>
<g clip-path="url(#clip1_1_348)">
<rect x="15" y="92" width="30" height="22" rx="4" fill="#F8F8F8"/>
<path d="M15 98.5H45" stroke="#CF9E1B"/>
<path d="M22.5 92L22.5 98" stroke="#CF9E1B"/>
<path d="M37.5 92L37.5 98" stroke="#CF9E1B"/>
<path d="M22.5 108L22.5 114" stroke="#CF9E1A"/>
<path d="M37.5 108L37.5 114" stroke="#CF9E1A"/>
<path d="M15 107.5L45 107.5" stroke="#CF9E1A"/>
<path d="M34.5 103C34.5 105.485 32.4853 107.5 30 107.5C27.5147 107.5 25.5 105.485 25.5 103C25.5 100.515 27.5147 98.5 30 98.5C32.4853 98.5 34.5 100.515 34.5 103Z" fill="#FEFEFE" stroke="#D09F1B"/>
</g>
<path d="M191.703 37.1133V41H177.426V37.1133H191.703ZM178.793 12.5625V41H173.891V12.5625H178.793ZM200.727 12.5625V41H195.824V12.5625H200.727ZM217.484 28.1484H210.238L210.199 24.5742H216.527C217.595 24.5742 218.5 24.418 219.242 24.1055C219.997 23.7799 220.57 23.3177 220.961 22.7188C221.352 22.1068 221.547 21.3711 221.547 20.5117C221.547 19.5612 221.365 18.7865 221 18.1875C220.635 17.5885 220.076 17.1523 219.32 16.8789C218.578 16.6055 217.628 16.4688 216.469 16.4688H211.723V41H206.82V12.5625L216.469 12.5625C218.031 12.5625 219.424 12.7122 220.648 13.0117C221.885 13.3112 222.934 13.7799 223.793 14.418C224.665 15.043 225.323 15.8372 225.766 16.8008C226.221 17.7643 226.449 18.9102 226.449 20.2383C226.449 21.4102 226.169 22.4844 225.609 23.4609C225.049 24.4245 224.223 25.2122 223.129 25.8242C222.035 26.4362 220.674 26.8008 219.047 26.918L217.484 28.1484ZM217.27 41H208.695L210.902 37.1133H217.27C218.376 37.1133 219.301 36.931 220.043 36.5664C220.785 36.1888 221.339 35.6745 221.703 35.0234C222.081 34.3594 222.27 33.5846 222.27 32.6992C222.27 31.7747 222.107 30.974 221.781 30.2969C221.456 29.6068 220.941 29.0794 220.238 28.7148C219.535 28.3372 218.617 28.1484 217.484 28.1484H211.977L212.016 24.5742L219.184 24.5742L220.297 25.9219C221.859 25.974 223.142 26.319 224.145 26.957C225.16 27.5951 225.915 28.4219 226.41 29.4375C226.905 30.4531 227.152 31.5469 227.152 32.7188C227.152 34.5286 226.755 36.0456 225.961 37.2695C225.18 38.4935 224.053 39.4245 222.582 40.0625C221.111 40.6875 219.34 41 217.27 41ZM250.707 37.1133V41H235.609V37.1133H250.707ZM236.996 12.5625V41H232.094V12.5625H236.996ZM248.734 24.4375V28.2656H235.609V24.4375H248.734ZM250.609 12.5625V16.4688H235.609V12.5625H250.609ZM254.711 12.5625L264.77 12.5625C266.931 12.5625 268.773 12.888 270.297 13.5391C271.82 14.1901 272.986 15.1536 273.793 16.4297C274.613 17.6927 275.023 19.2552 275.023 21.1172C275.023 22.5365 274.763 23.7865 274.242 24.8672C273.721 25.9479 272.986 26.8594 272.035 27.6016C271.085 28.3307 269.952 28.8971 268.637 29.3008L267.152 30.0234H258.109L258.07 26.1367H264.848C266.02 26.1367 266.996 25.9284 267.777 25.5117C268.559 25.0951 269.145 24.5286 269.535 23.8125C269.939 23.0833 270.141 22.263 270.141 21.3516C270.141 20.362 269.945 19.5026 269.555 18.7734C269.177 18.0313 268.591 17.4648 267.797 17.0742C267.003 16.6706 265.993 16.4688 264.77 16.4688H259.613V41H254.711V12.5625ZM270.941 41L264.262 28.2266L269.398 28.207L276.176 40.7461V41H270.941ZM290.277 12.5625V41H285.414V12.5625H290.277ZM299.203 12.5625V16.4688H276.566V12.5625L299.203 12.5625ZM305.98 12.5625L312.582 26.1367L319.184 12.5625H324.613L315.043 30.5313V41H310.102V30.5313L300.531 12.5625H305.98Z" fill="#F8F8F8"/>
</g>
<defs>
<linearGradient id="paint0_linear_1_348" x1="9.50001" y1="200" x2="454" y2="-56.5" gradientUnits="userSpaceOnUse">
<stop stop-color="#CC9914"/>
<stop offset="1" stop-color="#FFE86C"/>
</linearGradient>
<clipPath id="clip0_1_348">
<rect width="340" height="200" rx="8" transform="matrix(-1 0 0 1 340 0)" fill="white"/>
</clipPath>
<clipPath id="clip1_1_348">
<rect x="15" y="92" width="30" height="22" rx="4" fill="white"/>
</clipPath>
</defs>
</svg>
