<svg width="340" height="203" viewBox="0 0 340 203" fill="none" xmlns="http://www.w3.org/2000/svg">
<g clip-path="url(#clip0_1_554)">
<rect width="340" height="203" rx="8" fill="url(#paint0_linear_1_554)"/>
<path d="M22.0664 180.287H23.1914C23.1328 180.826 22.9785 181.309 22.7285 181.734C22.4785 182.16 22.125 182.498 21.668 182.748C21.2109 182.994 20.6406 183.117 19.957 183.117C19.457 183.117 19.002 183.023 18.5918 182.836C18.1855 182.648 17.8359 182.383 17.543 182.039C17.25 181.691 17.0234 181.275 16.8633 180.791C16.707 180.303 16.6289 179.76 16.6289 179.162V178.312C16.6289 177.715 16.707 177.174 16.8633 176.689C17.0234 176.201 17.252 175.783 17.5488 175.436C17.8496 175.088 18.2109 174.82 18.6328 174.633C19.0547 174.445 19.5293 174.352 20.0566 174.352C20.7012 174.352 21.2461 174.473 21.6914 174.715C22.1367 174.957 22.4824 175.293 22.7285 175.723C22.9785 176.148 23.1328 176.643 23.1914 177.205H22.0664C22.0117 176.807 21.9102 176.465 21.7617 176.18C21.6133 175.891 21.4023 175.668 21.1289 175.512C20.8555 175.355 20.498 175.277 20.0566 175.277C19.6777 175.277 19.3438 175.35 19.0547 175.494C18.7695 175.639 18.5293 175.844 18.334 176.109C18.1426 176.375 17.998 176.693 17.9004 177.064C17.8027 177.436 17.7539 177.848 17.7539 178.301V179.162C17.7539 179.58 17.7969 179.973 17.8828 180.34C17.9727 180.707 18.1074 181.029 18.2871 181.307C18.4668 181.584 18.6953 181.803 18.9727 181.963C19.25 182.119 19.5781 182.197 19.957 182.197C20.4375 182.197 20.8203 182.121 21.1055 181.969C21.3906 181.816 21.6055 181.598 21.75 181.312C21.8984 181.027 22.0039 180.686 22.0664 180.287Z" fill="#F8F8F8"/>
<path d="M27.8906 175.225L25.0664 183H23.9121L27.1641 174.469H27.9082L27.8906 175.225ZM30.2578 183L27.4277 175.225L27.4102 174.469H28.1543L31.418 183H30.2578ZM30.1113 179.842V180.768H25.3184V179.842H30.1113Z" fill="#F8F8F8"/>
<path d="M32.5605 174.469H35.3848C36.0254 174.469 36.5664 174.566 37.0078 174.762C37.4531 174.957 37.791 175.246 38.0215 175.629C38.2559 176.008 38.373 176.475 38.373 177.029C38.373 177.42 38.293 177.777 38.1328 178.102C37.9766 178.422 37.75 178.695 37.4531 178.922C37.1602 179.145 36.8086 179.311 36.3984 179.42L36.082 179.543H33.4277L33.416 178.623H35.4199C35.8262 178.623 36.1641 178.553 36.4336 178.412C36.7031 178.268 36.9062 178.074 37.043 177.832C37.1797 177.59 37.248 177.322 37.248 177.029C37.248 176.701 37.1836 176.414 37.0547 176.168C36.9258 175.922 36.7227 175.732 36.4453 175.6C36.1719 175.463 35.8184 175.395 35.3848 175.395H33.6914V183H32.5605V174.469ZM37.5469 183L35.4727 179.133L36.6504 179.127L38.7539 182.93V183H37.5469Z" fill="#F8F8F8"/>
<path d="M42.2637 183H40.4824L40.4941 182.08H42.2637C42.873 182.08 43.3809 181.953 43.7871 181.699C44.1934 181.441 44.498 181.082 44.7012 180.621C44.9082 180.156 45.0117 179.613 45.0117 178.992V178.471C45.0117 177.982 44.9531 177.549 44.8359 177.17C44.7188 176.787 44.5469 176.465 44.3203 176.203C44.0938 175.938 43.8164 175.736 43.4883 175.6C43.1641 175.463 42.791 175.395 42.3691 175.395H40.4473V174.469H42.3691C42.9277 174.469 43.4375 174.562 43.8984 174.75C44.3594 174.934 44.7559 175.201 45.0879 175.553C45.4238 175.9 45.6816 176.322 45.8613 176.818C46.041 177.311 46.1309 177.865 46.1309 178.482V178.992C46.1309 179.609 46.041 180.166 45.8613 180.662C45.6816 181.154 45.4219 181.574 45.082 181.922C44.7461 182.27 44.3398 182.537 43.8633 182.725C43.3906 182.908 42.8574 183 42.2637 183ZM41.0859 174.469V183H39.9551V174.469H41.0859Z" fill="#F8F8F8"/>
<path d="M53.4023 178.137V179.057H48.7852V178.137H53.4023ZM48.9609 174.469V183H47.8301V174.469H48.9609ZM54.3867 174.469V183H53.2617V174.469H54.3867Z" fill="#F8F8F8"/>
<path d="M62.9648 178.465V179.004C62.9648 179.645 62.8848 180.219 62.7246 180.727C62.5645 181.234 62.334 181.666 62.0332 182.021C61.7324 182.377 61.3711 182.648 60.9492 182.836C60.5312 183.023 60.0625 183.117 59.543 183.117C59.0391 183.117 58.5762 183.023 58.1543 182.836C57.7363 182.648 57.373 182.377 57.0645 182.021C56.7598 181.666 56.5234 181.234 56.3555 180.727C56.1875 180.219 56.1035 179.645 56.1035 179.004V178.465C56.1035 177.824 56.1855 177.252 56.3496 176.748C56.5176 176.24 56.7539 175.809 57.0586 175.453C57.3633 175.094 57.7246 174.82 58.1426 174.633C58.5645 174.445 59.0273 174.352 59.5312 174.352C60.0508 174.352 60.5195 174.445 60.9375 174.633C61.3594 174.82 61.7207 175.094 62.0215 175.453C62.3262 175.809 62.5586 176.24 62.7188 176.748C62.8828 177.252 62.9648 177.824 62.9648 178.465ZM61.8457 179.004V178.453C61.8457 177.945 61.793 177.496 61.6875 177.105C61.5859 176.715 61.4355 176.387 61.2363 176.121C61.0371 175.855 60.793 175.654 60.5039 175.518C60.2188 175.381 59.8945 175.312 59.5312 175.312C59.1797 175.312 58.8613 175.381 58.5762 175.518C58.2949 175.654 58.0527 175.855 57.8496 176.121C57.6504 176.387 57.4961 176.715 57.3867 177.105C57.2773 177.496 57.2227 177.945 57.2227 178.453V179.004C57.2227 179.516 57.2773 179.969 57.3867 180.363C57.4961 180.754 57.6523 181.084 57.8555 181.354C58.0625 181.619 58.3066 181.82 58.5879 181.957C58.873 182.094 59.1914 182.162 59.543 182.162C59.9102 182.162 60.2363 182.094 60.5215 181.957C60.8066 181.82 61.0469 181.619 61.2422 181.354C61.4414 181.084 61.5918 180.754 61.6934 180.363C61.7949 179.969 61.8457 179.516 61.8457 179.004Z" fill="#F8F8F8"/>
<path d="M69.832 182.08V183H65.5664V182.08H69.832ZM65.7891 174.469V183H64.6582V174.469H65.7891Z" fill="#F8F8F8"/>
<path d="M73.4355 183H71.6543L71.666 182.08H73.4355C74.0449 182.08 74.5527 181.953 74.959 181.699C75.3652 181.441 75.6699 181.082 75.873 180.621C76.0801 180.156 76.1836 179.613 76.1836 178.992V178.471C76.1836 177.982 76.125 177.549 76.0078 177.17C75.8906 176.787 75.7188 176.465 75.4922 176.203C75.2656 175.938 74.9883 175.736 74.6602 175.6C74.3359 175.463 73.9629 175.395 73.541 175.395H71.6191V174.469H73.541C74.0996 174.469 74.6094 174.562 75.0703 174.75C75.5312 174.934 75.9277 175.201 76.2598 175.553C76.5957 175.9 76.8535 176.322 77.0332 176.818C77.2129 177.311 77.3027 177.865 77.3027 178.482V178.992C77.3027 179.609 77.2129 180.166 77.0332 180.662C76.8535 181.154 76.5938 181.574 76.2539 181.922C75.918 182.27 75.5117 182.537 75.0352 182.725C74.5625 182.908 74.0293 183 73.4355 183ZM72.2578 174.469V183H71.127V174.469H72.2578Z" fill="#F8F8F8"/>
<path d="M84.4219 182.08V183H79.9043V182.08H84.4219ZM80.1328 174.469V183H79.002V174.469H80.1328ZM83.8242 178.137V179.057H79.9043V178.137H83.8242ZM84.3633 174.469V175.395H79.9043V174.469H84.3633Z" fill="#F8F8F8"/>
<path d="M85.8223 174.469H88.6465C89.2871 174.469 89.8281 174.566 90.2695 174.762C90.7148 174.957 91.0527 175.246 91.2832 175.629C91.5176 176.008 91.6348 176.475 91.6348 177.029C91.6348 177.42 91.5547 177.777 91.3945 178.102C91.2383 178.422 91.0117 178.695 90.7148 178.922C90.4219 179.145 90.0703 179.311 89.6602 179.42L89.3438 179.543H86.6895L86.6777 178.623H88.6816C89.0879 178.623 89.4258 178.553 89.6953 178.412C89.9648 178.268 90.168 178.074 90.3047 177.832C90.4414 177.59 90.5098 177.322 90.5098 177.029C90.5098 176.701 90.4453 176.414 90.3164 176.168C90.1875 175.922 89.9844 175.732 89.707 175.6C89.4336 175.463 89.0801 175.395 88.6465 175.395H86.9531V183H85.8223V174.469ZM90.8086 183L88.7344 179.133L89.9121 179.127L92.0156 182.93V183H90.8086Z" fill="#F8F8F8"/>
<path d="M102.756 174.469V183H101.619L97.3242 176.42V183H96.1934V174.469H97.3242L101.637 181.066V174.469H102.756Z" fill="#F8F8F8"/>
<path d="M108.023 175.225L105.199 183H104.045L107.297 174.469H108.041L108.023 175.225ZM110.391 183L107.561 175.225L107.543 174.469H108.287L111.551 183H110.391ZM110.244 179.842V180.768H105.451V179.842H110.244Z" fill="#F8F8F8"/>
<path d="M113.051 174.469H114.146L116.941 181.424L119.73 174.469H120.832L117.363 183H116.508L113.051 174.469ZM112.693 174.469H113.66L113.818 179.672V183H112.693V174.469ZM120.217 174.469H121.184V183H120.059V179.672L120.217 174.469Z" fill="#F8F8F8"/>
<path d="M128.59 182.08V183H124.072V182.08H128.59ZM124.301 174.469V183H123.17V174.469H124.301ZM127.992 178.137V179.057H124.072V178.137H127.992ZM128.531 174.469V175.395H124.072V174.469H128.531Z" fill="#F8F8F8"/>
<g clip-path="url(#clip1_1_554)">
<rect x="15" y="94" width="30" height="22" rx="4" fill="#F8F8F8"/>
<path d="M15 100.5H45" stroke="#AEB8CA"/>
<path d="M22.5 94L22.5 100" stroke="#AEB8CB"/>
<path d="M37.5 94L37.5 100" stroke="#AEB8CB"/>
<path d="M22.5 110L22.5 116" stroke="#AEB8CB"/>
<path d="M37.5 110L37.5 116" stroke="#AEB8CB"/>
<path d="M15 109.5L45 109.5" stroke="#AEB8CB"/>
<path d="M34.5 105C34.5 107.485 32.4853 109.5 30 109.5C27.5147 109.5 25.5 107.485 25.5 105C25.5 102.515 27.5147 100.5 30 100.5C32.4853 100.5 34.5 102.515 34.5 105Z" fill="#FEFEFE" stroke="#AEB8CB"/>
</g>
<path d="M191.703 37.1133V41H177.426V37.1133H191.703ZM178.793 12.5625V41H173.891V12.5625H178.793ZM200.727 12.5625V41H195.824V12.5625H200.727ZM217.484 28.1484H210.238L210.199 24.5742H216.527C217.595 24.5742 218.5 24.418 219.242 24.1055C219.997 23.7799 220.57 23.3177 220.961 22.7188C221.352 22.1068 221.547 21.3711 221.547 20.5117C221.547 19.5612 221.365 18.7865 221 18.1875C220.635 17.5885 220.076 17.1523 219.32 16.8789C218.578 16.6055 217.628 16.4688 216.469 16.4688H211.723V41H206.82V12.5625L216.469 12.5625C218.031 12.5625 219.424 12.7122 220.648 13.0117C221.885 13.3112 222.934 13.7799 223.793 14.418C224.665 15.043 225.323 15.8372 225.766 16.8008C226.221 17.7643 226.449 18.9102 226.449 20.2383C226.449 21.4102 226.169 22.4844 225.609 23.4609C225.049 24.4245 224.223 25.2122 223.129 25.8242C222.035 26.4362 220.674 26.8008 219.047 26.918L217.484 28.1484ZM217.27 41H208.695L210.902 37.1133H217.27C218.376 37.1133 219.301 36.931 220.043 36.5664C220.785 36.1888 221.339 35.6745 221.703 35.0234C222.081 34.3594 222.27 33.5846 222.27 32.6992C222.27 31.7747 222.107 30.974 221.781 30.2969C221.456 29.6068 220.941 29.0794 220.238 28.7148C219.535 28.3372 218.617 28.1484 217.484 28.1484H211.977L212.016 24.5742L219.184 24.5742L220.297 25.9219C221.859 25.974 223.142 26.319 224.145 26.957C225.16 27.5951 225.915 28.4219 226.41 29.4375C226.905 30.4531 227.152 31.5469 227.152 32.7188C227.152 34.5286 226.755 36.0456 225.961 37.2695C225.18 38.4935 224.053 39.4245 222.582 40.0625C221.111 40.6875 219.34 41 217.27 41ZM250.707 37.1133V41H235.609V37.1133H250.707ZM236.996 12.5625V41H232.094V12.5625H236.996ZM248.734 24.4375V28.2656H235.609V24.4375H248.734ZM250.609 12.5625V16.4688H235.609V12.5625H250.609ZM254.711 12.5625L264.77 12.5625C266.931 12.5625 268.773 12.888 270.297 13.5391C271.82 14.1901 272.986 15.1536 273.793 16.4297C274.613 17.6927 275.023 19.2552 275.023 21.1172C275.023 22.5365 274.763 23.7865 274.242 24.8672C273.721 25.9479 272.986 26.8594 272.035 27.6016C271.085 28.3307 269.952 28.8971 268.637 29.3008L267.152 30.0234H258.109L258.07 26.1367H264.848C266.02 26.1367 266.996 25.9284 267.777 25.5117C268.559 25.0951 269.145 24.5286 269.535 23.8125C269.939 23.0833 270.141 22.263 270.141 21.3516C270.141 20.362 269.945 19.5026 269.555 18.7734C269.177 18.0313 268.591 17.4648 267.797 17.0742C267.003 16.6706 265.993 16.4688 264.77 16.4688H259.613V41H254.711V12.5625ZM270.941 41L264.262 28.2266L269.398 28.207L276.176 40.7461V41H270.941ZM290.277 12.5625V41H285.414V12.5625H290.277ZM299.203 12.5625V16.4688H276.566V12.5625L299.203 12.5625ZM305.98 12.5625L312.582 26.1367L319.184 12.5625H324.613L315.043 30.5313V41H310.102V30.5313L300.531 12.5625H305.98Z" fill="#F8F8F8"/>
</g>
<defs>
<linearGradient id="paint0_linear_1_554" x1="-5.86504e-06" y1="203" x2="442" y2="-32" gradientUnits="userSpaceOnUse">
<stop stop-color="#ABB5C8"/>
<stop offset="1" stop-color="#BDC7DA"/>
</linearGradient>
<clipPath id="clip0_1_554">
<rect width="340" height="203" rx="8" transform="matrix(-1 0 0 1 340 0)" fill="white"/>
</clipPath>
<clipPath id="clip1_1_554">
<rect x="15" y="94" width="30" height="22" rx="4" fill="white"/>
</clipPath>
</defs>
</svg>
