<svg width="50" height="30" viewBox="0 0 50 30" fill="none" xmlns="http://www.w3.org/2000/svg">
<rect width="50" height="30" rx="4" fill="#001A34"/>
<path d="M9.74316 22L7.5166 24.3633C7.71191 24.3177 7.9235 24.2949 8.15137 24.2949C8.60059 24.2949 8.98145 24.3926 9.29395 24.5879C9.74316 24.8743 9.96777 25.291 9.96777 25.8379C9.96777 26.248 9.83757 26.6191 9.57715 26.9512C9.13444 27.5046 8.47038 27.7812 7.58496 27.7812C7.18783 27.7812 6.82975 27.7227 6.51074 27.6055C5.93132 27.3841 5.6416 27.0293 5.6416 26.541C5.6416 26.4824 5.64811 26.4238 5.66113 26.3652C5.72624 26.0983 5.91178 25.9648 6.21777 25.9648C6.36751 25.9648 6.48796 26.0007 6.5791 26.0723C6.68327 26.1634 6.74837 26.3717 6.77441 26.6973C6.78743 26.86 6.80371 26.9772 6.82324 27.0488C6.89486 27.3678 7.11296 27.5273 7.47754 27.5273C8.34993 27.5013 8.80566 26.9837 8.84473 25.9746C8.84473 25.7663 8.82194 25.5742 8.77637 25.3984C8.62663 24.8711 8.30762 24.6074 7.81934 24.6074C7.60449 24.6074 7.37988 24.6562 7.14551 24.7539L6.91113 24.5586L8.62012 22.5859H7.05762C6.91439 22.5859 6.80371 22.5924 6.72559 22.6055C6.53027 22.638 6.38704 22.7715 6.2959 23.0059L6.12012 23.4844H5.88574L5.90527 21.7559H9.74316V22ZM14.8799 22L12.6533 24.3633C12.8486 24.3177 13.0602 24.2949 13.2881 24.2949C13.7373 24.2949 14.1182 24.3926 14.4307 24.5879C14.8799 24.8743 15.1045 25.291 15.1045 25.8379C15.1045 26.248 14.9743 26.6191 14.7139 26.9512C14.2712 27.5046 13.6071 27.7812 12.7217 27.7812C12.3245 27.7812 11.9665 27.7227 11.6475 27.6055C11.068 27.3841 10.7783 27.0293 10.7783 26.541C10.7783 26.4824 10.7848 26.4238 10.7979 26.3652C10.863 26.0983 11.0485 25.9648 11.3545 25.9648C11.5042 25.9648 11.6247 26.0007 11.7158 26.0723C11.82 26.1634 11.8851 26.3717 11.9111 26.6973C11.9242 26.86 11.9404 26.9772 11.96 27.0488C12.0316 27.3678 12.2497 27.5273 12.6143 27.5273C13.4867 27.5013 13.9424 26.9837 13.9814 25.9746C13.9814 25.7663 13.9587 25.5742 13.9131 25.3984C13.7633 24.8711 13.4443 24.6074 12.9561 24.6074C12.7412 24.6074 12.5166 24.6562 12.2822 24.7539L12.0479 24.5586L13.7568 22.5859H12.1943C12.0511 22.5859 11.9404 22.5924 11.8623 22.6055C11.667 22.638 11.5238 22.7715 11.4326 23.0059L11.2568 23.4844H11.0225L11.042 21.7559H14.8799V22ZM20.1631 25.8867C20.1631 26.3685 19.9971 26.7786 19.665 27.1172C19.2158 27.5599 18.5941 27.7812 17.7998 27.7812C17.4157 27.7812 17.0771 27.7129 16.7842 27.5762C16.2894 27.3483 16.042 27.0065 16.042 26.5508C16.042 26.4987 16.0485 26.4434 16.0615 26.3848C16.1201 26.1113 16.3024 25.9746 16.6084 25.9746C16.7712 25.9746 16.8981 26.0137 16.9893 26.0918C17.0999 26.1829 17.1683 26.3945 17.1943 26.7266C17.2008 26.8828 17.2139 26.9967 17.2334 27.0684C17.2985 27.3743 17.5003 27.5273 17.8389 27.5273C18.0146 27.5273 18.1742 27.4948 18.3174 27.4297C18.7992 27.2214 19.04 26.7135 19.04 25.9062C19.04 25.6523 19.0042 25.4212 18.9326 25.2129C18.7503 24.6986 18.3923 24.4414 17.8584 24.4414C17.4873 24.4414 17.126 24.5814 16.7744 24.8613L16.4424 24.6074V21.7461C17.777 21.8047 18.4508 21.834 18.4639 21.834C18.7308 21.834 18.9326 21.8145 19.0693 21.7754C19.2646 21.7233 19.3981 21.5866 19.4697 21.3652H19.7236C19.7171 21.8861 19.6292 22.2474 19.46 22.4492C19.2712 22.6315 18.8285 22.7227 18.1318 22.7227C17.7347 22.7227 17.2822 22.6934 16.7744 22.6348V24.4805C17.1976 24.2135 17.6729 24.0768 18.2002 24.0703C18.6299 24.0703 19.0075 24.1647 19.333 24.3535C19.8864 24.6725 20.1631 25.1836 20.1631 25.8867ZM25.3682 25.1641C25.3682 25.5807 25.2445 25.9551 24.9971 26.2871C24.5869 26.8275 23.9749 27.0977 23.1611 27.0977C22.7314 27.0977 22.3506 26.987 22.0186 26.7656C21.3089 26.2839 20.9541 25.3984 20.9541 24.1094C20.9541 23.3997 21.0876 22.7845 21.3545 22.2637C21.7972 21.4043 22.5101 20.9746 23.4932 20.9746C23.9359 20.9746 24.32 21.0527 24.6455 21.209C25.0622 21.4108 25.2705 21.6777 25.2705 22.0098C25.2705 22.0749 25.2607 22.14 25.2412 22.2051C25.1696 22.472 24.9873 22.6055 24.6943 22.6055C24.5381 22.6055 24.4144 22.5729 24.3232 22.5078C24.2061 22.4297 24.1312 22.2441 24.0986 21.9512C24.0856 21.8275 24.0693 21.7331 24.0498 21.668C23.9782 21.3815 23.7568 21.2383 23.3857 21.2383C23.2295 21.2383 23.0863 21.2708 22.9561 21.3359C22.4548 21.5833 22.1813 22.3906 22.1357 23.7578C22.5199 23.5039 22.9528 23.3737 23.4346 23.3672C23.9033 23.3672 24.3037 23.4811 24.6357 23.709C25.124 24.041 25.3682 24.526 25.3682 25.1641ZM22.126 25.3105C22.1325 26.3132 22.484 26.821 23.1807 26.834C23.8773 26.8275 24.2288 26.2806 24.2354 25.1934C24.2288 24.1908 23.8903 23.6829 23.2197 23.6699C23.1872 23.6699 23.1546 23.6699 23.1221 23.6699C22.458 23.7285 22.126 24.2754 22.126 25.3105Z" fill="#FEFEFE"/>
<path fill-rule="evenodd" clip-rule="evenodd" d="M36.2349 22.3192C35.958 23.0448 35.71 23.5985 35.6839 23.5497C35.6578 23.5009 35.5446 22.9955 35.4325 22.4266C35.3203 21.8578 35.1821 21.3201 35.1255 21.2318C35.0267 21.0777 34.9825 21.0715 34.0113 21.075L33 21.0788L33.4421 21.2433C33.6852 21.3338 33.9391 21.4308 34.0063 21.4587C34.0777 21.4884 34.1788 21.6927 34.2496 21.9503C34.3162 22.1927 34.5302 22.9688 34.7251 23.6749L35.0796 24.9589L35.6255 24.9795L36.1714 25L36.9589 23.1248C37.392 22.0935 37.7677 21.1935 37.7939 21.1248C37.8366 21.013 37.7843 21 37.29 21L36.7385 21L36.2349 22.3192ZM38.2324 21.2318C38.2094 21.3594 38.0756 22.1538 37.9354 22.9973C37.7951 23.8408 37.6618 24.6352 37.6392 24.7628L37.598 24.9946L38.1157 24.9946C38.5921 24.9946 38.6364 24.9818 38.6715 24.8341C38.72 24.6301 39.2992 21.1522 39.2992 21.065C39.2992 21.0292 39.0686 21 38.7868 21L38.2745 21L38.2324 21.2318ZM40.6714 21.1048C40.0693 21.3126 39.6669 21.9131 39.7707 22.449C39.8281 22.7456 40.2265 23.1216 40.7609 23.3838C41.2736 23.6354 41.3663 23.9164 40.9974 24.1011C40.7044 24.2478 40.2616 24.2382 39.819 24.0753L39.4531 23.9407L39.4068 24.2715C39.3814 24.4534 39.3458 24.6544 39.3278 24.7181C39.2834 24.8757 39.7873 24.9946 40.4997 24.9946C41.3952 24.9946 41.9261 24.7304 42.1896 24.1536C42.4875 23.5017 42.2422 23.0473 41.3253 22.5527C40.8137 22.2767 40.725 22.079 41.027 21.8874C41.2158 21.7676 41.7436 21.7698 42.1471 21.8922C42.3186 21.9443 42.341 21.9058 42.4274 21.4097C42.4696 21.1674 42.4556 21.1348 42.2818 21.0708C42.0037 20.9685 41.0053 20.9896 40.6714 21.1048ZM44.1879 21.0479C44.1009 21.0651 43.9798 21.1337 43.9185 21.2002C43.8362 21.2895 42.6798 23.8832 42.2665 24.9054C42.2396 24.972 42.3712 24.9946 42.7848 24.9946L43.3391 24.9946L43.4433 24.6914L43.5475 24.3883L44.221 24.3678L44.8944 24.3473L44.9402 24.5461C45.0477 25.0131 45.0234 24.9946 45.5279 24.9946L46 24.9946L45.9523 24.7628C45.926 24.6352 45.7362 23.7445 45.5305 22.7833L45.1564 21.0357L44.7512 21.026C44.5283 21.0208 44.2748 21.0305 44.1879 21.0479ZM44.5933 22.9081L44.7321 23.5679L44.2918 23.5679C43.9017 23.5679 43.8572 23.5537 43.9032 23.4431C43.9316 23.3745 44.0577 23.0481 44.1832 22.7179C44.3088 22.3877 44.4211 22.1469 44.433 22.1829C44.4448 22.2188 44.5169 22.5453 44.5933 22.9081Z" fill="#FEFEFE"/>
<path d="M6.04348 8.82609V8.17391H6.82609V8.82609H6.04348Z" fill="#FEFEFE"/>
<path d="M6.04348 5.82609V5.04348H6.82609V5.82609H6.04348Z" fill="#FEFEFE"/>
<path d="M2.64383 5.95871H3.14722V8.06171H2.64383V5.95871Z" fill="#FEFEFE"/>
<path d="M3.18462 6.0919H2.60643C2.52727 6.0919 2.4631 6.02958 2.4631 5.9527V5.64926H3.32795V5.9527C3.32795 6.02958 3.26378 6.0919 3.18462 6.0919ZM3.18462 7.84039H2.60643C2.52727 7.84039 2.4631 7.90271 2.4631 7.97959V8.28304H3.32795V7.97959C3.32795 7.90271 3.26378 7.84039 3.18462 7.84039Z" fill="#FEFEFE"/>
<path d="M6.06988 5.95871H6.57328V8.06171H6.06988V5.95871Z" fill="#FEFEFE"/>
<path d="M6.61068 6.0919H6.03248C5.95333 6.0919 5.88916 6.02958 5.88916 5.9527V5.64926H6.754V5.9527C6.754 6.02958 6.68983 6.0919 6.61068 6.0919ZM6.61068 7.84039H6.03248C5.95333 7.84039 5.88916 7.90271 5.88916 7.97959V8.28304H6.754V7.97959C6.754 7.90271 6.68983 7.84039 6.61068 7.84039Z" fill="#FEFEFE"/>
<path d="M4.35685 5.95871H4.86025V8.06171H4.35685V5.95871Z" fill="#FEFEFE"/>
<path d="M4.89765 6.0919H4.31946C4.2403 6.0919 4.17613 6.02958 4.17613 5.9527V5.64926H5.04097V5.9527C5.04096 6.02958 4.9768 6.0919 4.89765 6.0919ZM4.89765 7.84039H4.31946C4.2403 7.84039 4.17613 7.90271 4.17613 7.97959V8.28304H5.04097V7.97959C5.04096 7.90271 4.9768 7.84039 4.89765 7.84039Z" fill="#FEFEFE"/>
<path d="M6.37112 5.59594V5.30669H2.20095V5.59594C2.20095 5.68433 2.27473 5.75598 2.36573 5.75598H6.22733C6.31834 5.75598 6.37112 5.68433 6.37112 5.59594Z" fill="#FEFEFE"/>
<path d="M6.37112 5.30669V5.59594C6.37112 5.68433 6.29735 5.75598 6.20635 5.75598H6.85138C6.94239 5.75598 7.01615 5.68432 7.01615 5.59594V5.30669H6.37112Z" fill="#FEFEFE"/>
<path d="M6.49211 5.38783C6.5601 5.35669 6.59408 5.29689 6.59428 5.23451V4.86978C6.59428 4.86322 6.59233 4.8568 6.58865 4.85129C6.58498 4.84578 6.57975 4.84142 6.57358 4.83874L4.68385 4.01516C4.66093 4.00518 4.63609 4.00001 4.61097 4C4.58585 3.99999 4.56101 4.00514 4.53808 4.01511L2.10533 5.07355C1.96639 5.13401 1.96448 5.3249 2.10217 5.38796C2.12593 5.39885 2.15188 5.40449 2.17816 5.40449H6.41583C6.44216 5.40449 6.46815 5.39882 6.49196 5.38789L6.49211 5.38783Z" fill="#FEFEFE"/>
<path d="M7.11217 5.07346L6.57328 4.83861V5.23452C6.57307 5.2969 6.5391 5.35669 6.47111 5.38783L6.47081 5.38797C6.44705 5.39886 6.3974 5.40449 6.37112 5.40449L7.03894 5.4045C7.06522 5.4045 7.09116 5.39886 7.11493 5.38797L7.11522 5.38783C7.25287 5.32478 7.25102 5.13398 7.11217 5.07346Z" fill="#FEFEFE"/>
<path d="M6.29206 8.16537H2.29227C2.26805 8.16537 2.24483 8.17472 2.2277 8.19135C2.21058 8.20798 2.20096 8.23053 2.20096 8.25405V8.66325H6.37111V8.25405C6.37111 8.23053 6.37375 8.20797 6.35662 8.19134C6.3395 8.17472 6.31627 8.16537 6.29206 8.16537Z" fill="#FEFEFE"/>
<path d="M6.92484 8.16537H6.27981C6.30402 8.16537 6.32725 8.17472 6.34437 8.19135C6.36149 8.20798 6.37111 8.23053 6.37111 8.25405V8.66325H7.01614V8.25405C7.01614 8.23053 7.00652 8.20798 6.9894 8.19135C6.97228 8.17472 6.94905 8.16537 6.92484 8.16537Z" fill="#FEFEFE"/>
<path d="M6.37111 8.49729H2.17531C2.08094 8.49729 2.00443 8.5716 2.00443 8.66325V8.78236C2.00443 8.80113 2.01211 8.81914 2.02578 8.83241C2.03254 8.83898 2.04058 8.84419 2.04942 8.84775C2.05826 8.85131 2.06773 8.85314 2.0773 8.85314H6.5846V8.69044C6.58461 8.58377 6.48094 8.49729 6.37111 8.49729Z" fill="#FEFEFE"/>
<path d="M7.04651 8.49729H6.37111C6.48094 8.49729 6.57235 8.58376 6.57235 8.69043V8.85313H7.14451C7.16384 8.85313 7.18237 8.84567 7.19604 8.8324C7.2097 8.81913 7.21738 8.80112 7.21738 8.78235V8.66324C7.21739 8.5716 7.14088 8.49729 7.04651 8.49729Z" fill="#FEFEFE"/>
<path d="M4.60855 5.10351C4.78812 5.10351 4.93369 4.96213 4.93369 4.78773C4.93369 4.61332 4.78812 4.47194 4.60855 4.47194C4.42898 4.47194 4.28341 4.61332 4.28341 4.78773C4.28341 4.96213 4.42898 5.10351 4.60855 5.10351Z" fill="#001A34"/>
<path d="M2 10V9.11857H2.23486V9.8198H2.6169V10H2Z" fill="#FEFEFE"/>
<path d="M2.72441 10V9.11857H2.95926V10H2.72441Z" fill="#FEFEFE"/>
<path d="M3.09941 10V9.11857H3.5288C3.71183 9.11857 3.82254 9.20286 3.82254 9.3403V9.34152C3.82254 9.44109 3.74254 9.5205 3.63759 9.53332V9.5376C3.76366 9.54371 3.86285 9.63106 3.86285 9.7465V9.74773C3.86285 9.90104 3.73806 10 3.54032 10H3.09941ZM3.46673 9.27677H3.33426V9.48079H3.44945C3.54352 9.48079 3.59344 9.4417 3.59344 9.37573V9.37451C3.59344 9.31342 3.54608 9.27677 3.46673 9.27677ZM3.46673 9.62189H3.33426V9.84179H3.47377C3.56976 9.84179 3.62416 9.80331 3.62416 9.73184V9.73062C3.62416 9.66038 3.56976 9.62189 3.46673 9.62189Z" fill="#FEFEFE"/>
<path d="M3.96204 10V9.11857H4.59494V9.29876H4.1969V9.47285H4.57126V9.64144H4.1969V9.8198H4.59494V10H3.96204Z" fill="#FEFEFE"/>
<path d="M4.7274 10V9.11857H5.12736C5.3507 9.11857 5.47677 9.22424 5.47677 9.41116V9.41238C5.47677 9.52538 5.41533 9.62312 5.31934 9.66282L5.50428 10H5.24063L5.08193 9.69641H4.96226V10H4.7274ZM4.96226 9.53393H5.10113C5.18432 9.53393 5.23743 9.48629 5.23743 9.41177V9.41055C5.23743 9.33663 5.1824 9.28777 5.09985 9.28777H4.96226V9.53393Z" fill="#FEFEFE"/>
<path d="M5.80953 10V9.29876H5.55484V9.11857H6.29844V9.29876H6.04375V10H5.80953Z" fill="#FEFEFE"/>
<path d="M6.66449 10V9.69703L6.34644 9.11857H6.59601L6.77968 9.48507H6.78415L6.96782 9.11857H7.21739L6.89934 9.69703V10H6.66449Z" fill="#FEFEFE"/>
</svg>
