<svg width="383" height="325" viewBox="0 0 383 325" fill="none" xmlns="http://www.w3.org/2000/svg">
<g clip-path="url(#clip0_4669_16660)">
<path d="M383.483 287.299H-35V287.508H383.483V287.299Z" fill="#EBEBEB"/>
<path d="M341.552 300.734H297.134V300.943H341.552V300.734Z" fill="#EBEBEB"/>
<path d="M242.219 298.12H193.123V298.329H242.219V298.12Z" fill="#EBEBEB"/>
<path d="M299.276 296.909H283.215V297.118H299.276V296.909Z" fill="#EBEBEB"/>
<path d="M85.2384 294.389H49.0898V294.597H85.2384V294.389Z" fill="#EBEBEB"/>
<path d="M44.4276 294.389H31.5049V294.597H44.4276V294.389Z" fill="#EBEBEB"/>
<path d="M120.4 297.912H75.0361V298.121H120.4V297.912Z" fill="#EBEBEB"/>
<path d="M163.37 250.058H1.75173C-0.884711 250.058 -3.02734 247.92 -3.02734 245.29V18.6448C-3.02734 16.0146 -0.884711 13.877 1.75173 13.877H163.37C166.006 13.877 168.149 16.0146 168.149 18.6448V245.29C168.149 247.92 166.006 250.058 163.37 250.058ZM1.75173 14.0857C-0.767535 14.0857 -2.8181 16.1315 -2.8181 18.6448V245.29C-2.8181 247.803 -0.767535 249.849 1.75173 249.849H163.37C165.889 249.849 167.94 247.803 167.94 245.29V18.6448C167.94 16.1315 165.889 14.0857 163.37 14.0857H1.75173Z" fill="#EBEBEB"/>
<path d="M344.405 250.058H182.787C180.15 250.058 178.008 247.92 178.008 245.29V18.6448C178.008 16.0146 180.15 13.877 182.787 13.877H344.405C347.042 13.877 349.184 16.0146 349.184 18.6448V245.29C349.184 247.92 347.042 250.058 344.405 250.058ZM182.787 14.0857C180.268 14.0857 178.217 16.1315 178.217 18.6448V245.29C178.217 247.803 180.268 249.849 182.787 249.849H344.405C346.924 249.849 348.975 247.803 348.975 245.29V18.6448C348.975 16.1315 346.924 14.0857 344.405 14.0857H182.787Z" fill="#EBEBEB"/>
<path d="M316.408 24.7646H197.425V135.853H316.408V24.7646Z" fill="#E6E6E6"/>
<path d="M322.844 24.7646H198.295V135.853H322.844V24.7646Z" fill="#F0F0F0"/>
<path d="M316.408 135.854H197.425V141.323H316.408V135.854Z" fill="#E6E6E6"/>
<path d="M333.549 135.854H209V141.323H333.549V135.854Z" fill="#F0F0F0"/>
<path d="M313.838 126.886V33.7412L207.284 33.7412V126.886H313.838Z" fill="#FAFAFA"/>
<path d="M224.434 126.886L235.465 33.7412H273.187L262.156 126.886H224.434Z" fill="white"/>
<path d="M313.847 126.886V33.7412H312.708V126.886H313.847Z" fill="#E6E6E6"/>
<g opacity="0.4">
<path d="M324.962 34.7182H203.844L203.016 31.9961H324.141L324.962 34.7182Z" fill="#E0E0E0"/>
<path d="M324.962 39.2524H203.844L203.016 36.5303H324.141L324.962 39.2524Z" fill="#E0E0E0"/>
<path d="M324.962 43.7866H203.844L203.016 41.0645H324.141L324.962 43.7866Z" fill="#E0E0E0"/>
<path d="M324.962 48.3207H203.844L203.016 45.5986H324.141L324.962 48.3207Z" fill="#E0E0E0"/>
<path d="M324.962 52.8539H203.844L203.016 50.1318H324.141L324.962 52.8539Z" fill="#E0E0E0"/>
<path d="M324.962 57.3891H203.844L203.016 54.667H324.141L324.962 57.3891Z" fill="#E0E0E0"/>
<path d="M324.962 61.9223H203.844L203.016 59.2002H324.141L324.962 61.9223Z" fill="#E0E0E0"/>
<path d="M324.962 66.4565H203.844L203.016 63.7344H324.141L324.962 66.4565Z" fill="#E0E0E0"/>
<path d="M324.962 70.9907H203.844L203.016 68.2686H324.141L324.962 70.9907Z" fill="#E0E0E0"/>
<path d="M324.962 75.5248H203.844L203.016 72.8027H324.141L324.962 75.5248Z" fill="#E0E0E0"/>
<path d="M324.962 80.059H203.844L203.016 77.3369H324.141L324.962 80.059Z" fill="#E0E0E0"/>
<path d="M324.962 84.5932H203.844L203.016 81.8711H324.141L324.962 84.5932Z" fill="#E0E0E0"/>
<path d="M324.962 89.1274H203.844L203.016 86.4053H324.141L324.962 89.1274Z" fill="#E0E0E0"/>
<path d="M324.962 93.6606H203.844L203.016 90.9385H324.141L324.962 93.6606Z" fill="#E0E0E0"/>
<path d="M324.962 98.1948H203.844L203.016 95.4727H324.141L324.962 98.1948Z" fill="#E0E0E0"/>
<path d="M324.962 102.729H203.844L203.016 100.007H324.141L324.962 102.729Z" fill="#E0E0E0"/>
<path d="M324.962 107.263H203.844L203.016 104.541H324.141L324.962 107.263Z" fill="#E0E0E0"/>
<path d="M324.962 111.797H203.844L203.016 109.075H324.141L324.962 111.797Z" fill="#E0E0E0"/>
</g>
<path d="M131.297 27.7959H32.8447V125.283H131.297V27.7959Z" fill="#E6E6E6"/>
<path d="M136.612 27.7959H33.8496V125.283H136.612V27.7959Z" fill="#F0F0F0"/>
<path d="M131.857 120.556V32.5303L38.5859 32.5303V120.556H131.857Z" fill="white"/>
<path d="M131.866 120.556V32.5303H131.28V120.556H131.866Z" fill="#E6E6E6"/>
<path d="M55.5999 172.259H28.8672V282.112H55.5999V172.259Z" fill="#F0F0F0"/>
<path d="M136.66 282.113H33.998V287.299H136.66V282.113Z" fill="#F0F0F0"/>
<path d="M55.6002 282.104H141.791V172.25H55.6002L55.6002 282.104Z" fill="#F5F5F5"/>
<path d="M66.1121 240.596H131.278V213.767H66.1121V240.596Z" fill="#F0F0F0"/>
<path d="M66.1121 272.326H131.278V245.498H66.1121V272.326Z" fill="#F0F0F0"/>
<path d="M66.1121 208.875H131.278V182.046H66.1121V208.875Z" fill="#F0F0F0"/>
<path d="M145.357 163.233H55.6006V172.251H145.357V163.233Z" fill="#F0F0F0"/>
<path d="M25.135 172.26H55.6006V163.242H25.135V172.26Z" fill="#E6E6E6"/>
<path d="M39.1539 163.234H65.7275V143.821H39.1539V163.234Z" fill="#F0F0F0"/>
<path d="M112.874 143.828H65.7275V163.242H112.874V143.828Z" fill="#F5F5F5"/>
<g style="mix-blend-mode:multiply" opacity="0.7">
<path d="M39.1542 150.066H113.15V147.887H39.1542V150.066Z" fill="#E6E6E6"/>
</g>
<path d="M37.6892 148.806H65.7275V142.501H37.6892V148.806Z" fill="#F0F0F0"/>
<path d="M114.339 142.51H65.7275V148.814H114.339V142.51Z" fill="#F5F5F5"/>
<path d="M323.48 163.233H233.69L243.466 287.29H333.256L323.48 163.233Z" fill="#F0F0F0"/>
<path d="M328.117 163.233H238.327L248.103 287.29H337.893L328.117 163.233Z" fill="#F5F5F5"/>
<path d="M264.106 269.981L257.059 180.552H312.114L319.161 269.981H264.106Z" fill="white"/>
<path d="M247.058 281.231C255.154 273.153 255.154 260.058 247.058 251.98C238.961 243.903 225.835 243.903 217.739 251.98C209.642 260.058 209.642 273.153 217.739 281.231C225.835 289.308 238.961 289.308 247.058 281.231Z" fill="#E6E6E6"/>
<g style="mix-blend-mode:multiply" opacity="0.7">
<path d="M242.555 254.283C241.324 253.005 240.83 251.485 241.45 250.876C242.078 250.275 243.584 250.817 244.814 252.095C246.045 253.372 246.539 254.892 245.919 255.502C245.292 256.103 243.785 255.56 242.555 254.283Z" fill="#E6E6E6"/>
</g>
<g style="mix-blend-mode:multiply" opacity="0.7">
<path d="M233.942 250.408C232.192 250.074 230.912 249.114 231.079 248.262C231.247 247.41 232.795 246.993 234.536 247.327C236.277 247.661 237.566 248.621 237.398 249.473C237.231 250.325 235.682 250.742 233.942 250.408Z" fill="#E6E6E6"/>
</g>
<g style="mix-blend-mode:multiply" opacity="0.7">
<path d="M235.707 257.622C234.033 257.038 232.962 255.727 233.322 254.7C233.681 253.672 235.339 253.313 237.013 253.906C238.687 254.499 239.758 255.802 239.398 256.829C239.038 257.856 237.381 258.215 235.707 257.622Z" fill="#E6E6E6"/>
</g>
<path d="M174.242 324.999C263.867 324.999 336.522 320.767 336.522 315.547C336.522 310.327 263.867 306.095 174.242 306.095C84.6179 306.095 11.9629 310.327 11.9629 315.547C11.9629 320.767 84.6179 324.999 174.242 324.999Z" fill="#F5F5F5"/>
<path d="M138.536 100.901C127.898 97.1854 132.158 67.3173 106.589 83.3828C100.797 87.0234 93.7585 110.904 98.6212 116.449C105.409 124.189 151.074 105.285 138.536 100.909V100.901Z" fill="#263238"/>
<path d="M108.606 129.257C108.396 129.65 108.271 129.867 108.095 130.151L107.61 130.927C107.283 131.437 106.932 131.921 106.58 132.397C105.86 133.349 105.099 134.267 104.278 135.144C102.63 136.881 100.746 138.459 98.6206 139.745C96.5114 141.048 94.1177 142.025 91.6068 142.517C90.3513 142.751 89.0791 142.918 87.807 142.901C87.1709 142.926 86.5431 142.86 85.9071 142.835L84.9696 142.726L84.5009 142.668C84.3168 142.642 84.0574 142.592 83.8481 142.551C82.0486 142.141 80.6676 141.206 79.6298 140.263C78.5752 139.302 77.7968 138.284 77.1105 137.265C75.7546 135.219 74.8256 133.132 74.0138 131.044C72.4319 126.844 71.4443 122.652 70.7998 118.302L74.3988 117.492C75.7463 121.342 77.3114 125.241 79.1193 128.79C80.0315 130.56 81.0443 132.247 82.1491 133.641C82.7015 134.334 83.2873 134.944 83.8481 135.361C84.4089 135.787 84.9027 135.988 85.1873 136.004L86.2837 136.054C86.7105 136.029 87.1374 136.063 87.5642 136.004C88.4096 135.954 89.2382 135.795 90.0584 135.603C91.6821 135.178 93.2389 134.468 94.7119 133.524C96.185 132.589 97.5325 131.37 98.7796 130.026C99.4073 129.358 100.002 128.648 100.554 127.913C100.83 127.546 101.098 127.17 101.349 126.794L101.717 126.235L102.01 125.759L108.589 129.241L108.606 129.257Z" fill="#FF8B7B"/>
<path d="M110.631 120.582C103.123 120.615 97.1641 127.529 97.1641 127.529L106.337 139.887C106.337 139.887 113.761 132.923 114.548 128.973C115.368 124.865 115.15 120.548 110.622 120.573L110.631 120.582Z" fill="#263238"/>
<path d="M74.0564 119.262L77.3457 113.835L69.7293 114.027C69.7293 114.027 69.1267 117.609 71.1354 119.872L74.0564 119.262Z" fill="#FF8B7B"/>
<path d="M77.0362 107.48L71.4118 108.683L69.7295 114.035L77.3375 113.843L77.0362 107.48Z" fill="#FF8B7B"/>
<path d="M148.379 307.84L141.189 308.525L137.523 291.808L144.713 291.123L148.379 307.84Z" fill="#FF8B7B"/>
<path d="M213.645 286.196L208.196 291.023L195.231 280.001L200.672 275.166L213.645 286.196Z" fill="#FF8B7B"/>
<path d="M206.23 290.104L209.385 282.572C209.502 282.297 209.787 282.155 210.072 282.23L216.407 283.867C217.069 284.034 217.428 284.81 217.152 285.445C216.006 288.05 215.319 289.252 213.93 292.567C213.076 294.605 211.486 299.239 210.306 302.053C209.151 304.808 206.272 303.857 206.514 302.579C207.586 296.851 206.925 293.803 206.18 291.407C206.046 290.972 206.071 290.513 206.238 290.112L206.23 290.104Z" fill="#263238"/>
<path d="M140.286 306.354H148.932C149.25 306.354 149.526 306.571 149.618 306.88L151.501 313.702C151.694 314.411 151.175 315.079 150.447 315.071C147.425 315.021 145.952 314.845 142.144 314.845C139.809 314.845 133.758 315.088 130.527 315.088C127.296 315.088 126.71 311.898 128.016 311.614C133.875 310.32 137.256 308.533 139.064 306.829C139.39 306.52 139.826 306.354 140.286 306.354Z" fill="#263238"/>
<path opacity="0.2" d="M137.523 291.816L139.415 300.425H146.755L144.721 291.123L137.523 291.816Z" fill="black"/>
<path opacity="0.2" d="M200.68 275.166L195.231 280.001L201.919 285.679L207.367 280.852L200.68 275.166Z" fill="black"/>
<path d="M103.601 122.595C103.601 122.595 100.588 124.699 118.75 163.936C130.066 160.796 141.758 157.548 147.266 156.02C143.558 144.572 141.549 137.441 140.469 112.141C140.469 112.141 134.134 112.5 127.915 113.911C123.052 115.013 119.077 115.948 114.967 117.51C109.544 119.564 103.601 122.603 103.601 122.603V122.595Z" fill="#263238"/>
<path d="M122.567 99.7158C122.91 104.1 124.215 111.94 127.907 113.903C127.907 113.903 129.204 123.255 121.981 131.763C112.079 126.636 114.959 117.501 114.959 117.501C119.294 115.105 118.214 111.698 116.507 108.692L122.567 99.7158Z" fill="#FF8B7B"/>
<path opacity="0.2" d="M124.09 108.056L119.118 106.378C119.135 106.887 119.369 108.29 119.855 109.209C120.7 110.837 123.462 111.446 125.437 111.246C124.893 110.311 124.45 109.217 124.09 108.065V108.056Z" fill="black"/>
<path d="M108.146 95.131C110.071 102.087 110.732 105.076 115.059 107.94C121.571 112.257 129.723 108.382 129.924 100.993C130.108 94.3377 126.936 84.0839 119.428 82.7312C112.03 81.3952 106.229 88.1754 108.146 95.131Z" fill="#FF8B7B"/>
<path d="M118.541 81.5961C117.972 86.3222 114.44 102.571 107.777 102.455C102.279 97.6699 104.999 88.6519 106.698 84.9946C108.397 81.3289 118.541 81.5961 118.541 81.5961Z" fill="#263238"/>
<path d="M115.737 84.9443C119.085 86.7228 125.672 87.4994 124.617 84.7856C123.563 82.0719 123.873 79.8257 119.336 79.8758C114.8 79.9259 115.729 84.9443 115.729 84.9443H115.737Z" fill="#263238"/>
<path d="M108.388 101.72C108.84 103.147 109.912 104.233 111.016 104.784C112.674 105.611 113.854 104.216 113.686 102.471C113.536 100.901 112.489 98.58 110.682 98.4798C108.899 98.3796 107.869 100.091 108.388 101.728V101.72Z" fill="#FF8B7B"/>
<path d="M118.75 163.935C118.75 163.935 117.101 221.408 121.721 243.102C126.525 265.664 135.891 297.92 135.891 297.92L149.55 297.26C149.55 297.26 142.938 256.337 141.34 238.893C139.13 214.845 139.641 158.132 139.641 158.132L118.758 163.935H118.75Z" fill="#407BFF"/>
<path opacity="0.4" d="M118.75 163.935C118.75 163.935 117.101 221.408 121.721 243.102C126.525 265.664 135.891 297.92 135.891 297.92L149.55 297.26C149.55 297.26 142.938 256.337 141.34 238.893C139.13 214.845 139.641 158.132 139.641 158.132L118.758 163.935H118.75Z" fill="#FAFAFA"/>
<path opacity="0.2" d="M139.59 179.759C137.465 174.44 135.598 171.509 135.364 176.811C134.878 188.025 136.837 200.842 139.9 207.197C139.699 197.694 139.624 187.992 139.582 179.759H139.59Z" fill="black"/>
<path d="M150.505 297.92L134.929 298.672L133.096 292.994L149.969 291.683L150.505 297.92Z" fill="#263238"/>
<path d="M126.283 161.847C126.283 161.847 143.776 208.791 155.56 234.71C165.085 255.643 198.823 284.902 198.823 284.902L206.49 278.439C206.49 278.439 182.1 245.089 175.514 230.894C154.447 185.436 159.946 166.181 147.266 156.027L126.283 161.856V161.847Z" fill="#407BFF"/>
<path opacity="0.4" d="M126.283 161.847C126.283 161.847 143.776 208.791 155.56 234.71C165.085 255.643 198.823 284.902 198.823 284.902L206.49 278.439C206.49 278.439 182.1 245.089 175.514 230.894C154.447 185.436 159.946 166.181 147.266 156.027L126.283 161.856V161.847Z" fill="#FAFAFA"/>
<path d="M207.117 278.356L198.546 285.913L194.186 282.765L204.288 274.164L207.117 278.356Z" fill="#263238"/>
<path d="M147.224 154.233L149.224 156.42C149.375 156.587 149.199 156.854 148.873 156.946L118.968 165.255C118.708 165.33 118.466 165.255 118.399 165.104L117.428 162.633C117.361 162.457 117.545 162.249 117.821 162.173L146.697 154.157C146.906 154.099 147.123 154.132 147.224 154.241V154.233Z" fill="#407BFF"/>
<path d="M144.245 158.533L145.015 158.316C145.165 158.274 145.266 158.157 145.224 158.065L143.935 154.859C143.893 154.767 143.743 154.725 143.584 154.767L142.814 154.984C142.663 155.026 142.562 155.143 142.604 155.235L143.893 158.441C143.927 158.533 144.086 158.575 144.245 158.533Z" fill="#263238"/>
<path d="M121.211 164.929L121.981 164.711C122.131 164.67 122.232 164.553 122.19 164.461L120.901 161.255C120.859 161.163 120.708 161.121 120.549 161.163L119.779 161.38C119.629 161.422 119.528 161.538 119.57 161.63L120.859 164.837C120.893 164.929 121.052 164.97 121.211 164.929Z" fill="#263238"/>
<path d="M132.727 161.731L133.497 161.514C133.648 161.472 133.748 161.356 133.706 161.264L132.417 158.057C132.376 157.965 132.225 157.924 132.066 157.965L131.296 158.183C131.145 158.224 131.045 158.341 131.087 158.433L132.376 161.639C132.409 161.731 132.568 161.773 132.727 161.731Z" fill="#263238"/>
<path d="M119.278 94.8559C119.395 95.432 119.805 95.8328 120.182 95.7493C120.558 95.6742 120.768 95.1398 120.642 94.5636C120.525 93.9875 120.115 93.5867 119.738 93.6702C119.361 93.7453 119.152 94.2797 119.278 94.8559Z" fill="#263238"/>
<path d="M125.781 93.4858C125.898 94.0619 126.308 94.4627 126.685 94.3792C127.061 94.3041 127.27 93.7697 127.145 93.1935C127.028 92.6174 126.618 92.2166 126.241 92.3001C125.864 92.3752 125.655 92.9096 125.781 93.4858Z" fill="#263238"/>
<path d="M126.082 92.3751L127.379 91.6904C127.379 91.6904 126.894 92.9179 126.082 92.3751Z" fill="#263238"/>
<path d="M124.267 94.8301C124.267 94.8301 125.765 97.0929 127.087 98.0615C126.476 98.9299 125.12 98.8798 125.12 98.8798L124.267 94.8301Z" fill="#FF5652"/>
<path d="M123.638 101.535C123.696 101.494 123.721 101.427 123.705 101.36C123.688 101.268 123.596 101.21 123.504 101.226C120.985 101.752 119.428 100.241 119.411 100.233C119.344 100.166 119.235 100.166 119.168 100.233C119.101 100.3 119.101 100.408 119.168 100.475C119.235 100.542 120.867 102.137 123.571 101.569C123.596 101.569 123.613 101.552 123.638 101.544V101.535Z" fill="#263238"/>
<path d="M117 93.1184C117.051 93.085 117.092 93.0432 117.118 92.9848C117.77 91.5987 119.034 91.4066 119.043 91.4066C119.235 91.3816 119.361 91.2062 119.336 91.0142C119.31 90.8221 119.135 90.6969 118.942 90.7219C118.875 90.7303 117.302 90.9641 116.49 92.6925C116.406 92.8679 116.49 93.0683 116.657 93.1518C116.774 93.2019 116.9 93.1935 117 93.1184Z" fill="#263238"/>
<path d="M128.224 89.8203C128.224 89.8203 128.258 89.7953 128.274 89.7786C128.408 89.645 128.408 89.4279 128.274 89.2943C126.91 87.9583 125.353 88.2839 125.286 88.3006C125.102 88.3424 124.985 88.5261 125.027 88.7098C125.069 88.8935 125.253 89.0104 125.437 88.9686C125.496 88.9603 126.709 88.7181 127.797 89.7786C127.915 89.8955 128.099 89.9122 128.233 89.812L128.224 89.8203Z" fill="#263238"/>
<path d="M145.584 118.694C146.228 119.437 147.032 120.314 147.785 121.116C148.555 121.934 149.35 122.727 150.162 123.512C151.777 125.082 153.426 126.61 155.159 128.021C158.624 130.835 162.29 133.382 166.198 135.152C169.881 136.814 174.359 137.532 178.861 137.849C181.121 138.016 183.415 138.075 185.716 138.033C188.009 138.016 190.361 137.899 192.604 137.732L193.291 141.348C188.512 142.592 183.733 143.235 178.778 143.452C176.309 143.519 173.806 143.477 171.279 143.168C168.751 142.868 166.173 142.342 163.637 141.365C161.218 140.438 158.925 139.302 156.757 138.008C154.581 136.722 152.522 135.294 150.564 133.758C148.605 132.221 146.722 130.61 144.939 128.898C144.052 128.038 143.182 127.161 142.328 126.259C141.457 125.341 140.679 124.464 139.809 123.395L145.584 118.703V118.694Z" fill="#FF8B7B"/>
<path d="M191.675 141.708L198.882 140.581L192.931 134.928C192.931 134.928 190.102 137.216 190.11 140.238L191.675 141.708Z" fill="#FF8B7B"/>
<path d="M202.765 134.853L197.752 132.03L192.939 134.928L198.882 140.581L202.765 134.853Z" fill="#FF8B7B"/>
<path d="M140.461 112.141C143.558 112.216 149.726 121.075 149.726 121.075L140.846 132.056C140.846 132.056 135.673 124.824 135.849 120.808C136.025 116.625 136.92 112.057 140.461 112.141Z" fill="#263238"/>
<path d="M204.857 294.054C204.774 294.029 204.69 293.987 204.606 293.937C204.355 293.786 204.297 293.578 204.288 293.436C204.263 292.509 206.431 291.023 206.682 290.856C206.741 290.814 206.816 290.814 206.875 290.856C206.933 290.889 206.967 290.964 206.95 291.031C206.791 291.983 206.397 293.644 205.561 294.037C205.335 294.137 205.1 294.154 204.857 294.062V294.054ZM206.531 291.373C205.678 291.991 204.623 292.935 204.631 293.419C204.631 293.477 204.648 293.561 204.774 293.636C205.008 293.778 205.217 293.803 205.41 293.711C205.862 293.503 206.272 292.642 206.531 291.373Z" fill="#407BFF"/>
<path d="M203.786 291.85C203.719 291.825 203.652 291.791 203.594 291.758C203.46 291.666 203.259 291.457 203.376 291.04C203.451 290.772 203.619 290.58 203.87 290.455C204.824 289.996 206.766 290.797 206.841 290.831C206.9 290.856 206.942 290.906 206.942 290.964C206.942 291.023 206.925 291.09 206.875 291.123C206.289 291.574 204.581 292.125 203.778 291.85H203.786ZM206.347 291.006C205.678 290.781 204.573 290.497 204.021 290.764C203.862 290.839 203.753 290.964 203.711 291.131C203.652 291.349 203.719 291.424 203.795 291.474C204.213 291.758 205.628 291.449 206.406 291.031C206.389 291.031 206.372 291.023 206.356 291.015L206.347 291.006Z" fill="#407BFF"/>
<path d="M136.452 307.782C135.782 307.782 135.163 307.682 134.761 307.381C134.493 307.172 134.342 306.897 134.326 306.555C134.309 306.296 134.435 306.154 134.543 306.087C135.33 305.561 138.268 306.889 138.854 307.164C138.921 307.197 138.963 307.264 138.954 307.339C138.946 307.415 138.896 307.473 138.82 307.49C138.193 307.632 137.289 307.79 136.452 307.79V307.782ZM135.071 306.296C134.92 306.296 134.803 306.321 134.727 306.371C134.694 306.396 134.652 306.429 134.661 306.538C134.677 306.78 134.769 306.972 134.962 307.114C135.472 307.498 136.661 307.548 138.209 307.264C137.146 306.805 135.757 306.304 135.062 306.304L135.071 306.296Z" fill="#407BFF"/>
<path d="M138.779 307.481C138.779 307.481 138.737 307.481 138.712 307.465C137.733 307.064 135.766 305.494 135.874 304.676C135.9 304.5 136.017 304.275 136.469 304.225C138.176 304.016 138.913 307.139 138.946 307.264C138.963 307.323 138.946 307.39 138.888 307.431C138.854 307.456 138.812 307.473 138.779 307.473V307.481ZM136.628 304.559C136.628 304.559 136.552 304.559 136.511 304.559C136.326 304.584 136.234 304.634 136.218 304.718C136.151 305.193 137.515 306.429 138.511 306.98C138.285 306.229 137.666 304.551 136.628 304.551V304.559Z" fill="#407BFF"/>
<path d="M119.579 93.7365L120.876 93.0518C120.876 93.0518 120.391 94.2792 119.579 93.7365Z" fill="#263238"/>
<path d="M162.465 172.137C162.465 172.137 147.593 184.261 153.125 210.931C156.389 226.654 166.223 234.645 174.836 232.9C183.448 231.155 189.382 219.966 186.235 204.218C180.904 177.514 162.465 172.137 162.465 172.137Z" fill="#407BFF"/>
<path opacity="0.2" d="M162.465 172.137C162.465 172.137 147.593 184.261 153.125 210.931C156.389 226.654 166.223 234.645 174.836 232.9C183.448 231.155 189.382 219.966 186.235 204.218C180.904 177.514 162.465 172.137 162.465 172.137Z" fill="white"/>
<path d="M256.223 120.407C256.223 120.407 228.905 114.345 203.302 144.689C188.203 162.583 187.893 181.02 197.652 189.278C207.411 197.536 225.599 194.238 240.832 176.461C266.669 146.309 256.223 120.416 256.223 120.416V120.407Z" fill="#407BFF"/>
<path d="M220.36 0C220.36 0 214.258 1.67836 212.358 10.4459C211.237 15.6146 213.137 19.3387 215.966 19.9566C218.795 20.5745 222.076 17.9943 223.231 12.834C225.189 4.07482 220.351 0.00835003 220.351 0.00835003L220.36 0Z" fill="#407BFF"/>
<path d="M171.982 269.915C168.4 257.356 166.86 244.43 167.103 231.747C167.337 219.055 169.321 206.622 172.577 194.764C174.209 188.836 176.15 183.033 178.352 177.38C179.448 174.549 180.62 171.76 181.842 169.005C182.436 167.618 183.097 166.266 183.717 164.896L184.654 162.917L185.575 160.997C190.454 150.76 195.091 140.473 199.284 130.018C203.477 119.572 207.235 108.968 210.274 98.1796C213.303 87.3914 215.639 76.4027 216.76 65.2638C217.873 54.1415 217.79 42.8523 215.722 31.7885C213.663 20.7498 209.529 9.96152 203.117 0.425781C210.55 9.18497 216.049 19.6893 219.447 30.8784C222.862 42.0758 224.284 53.866 224.418 65.5978C224.544 77.3463 223.397 89.0864 221.506 100.651C219.597 112.224 216.936 123.639 213.814 134.895C210.692 146.151 207.11 157.248 203.318 168.22L202.607 170.274L202.247 171.301L201.921 172.269C201.502 173.564 201.033 174.85 200.648 176.152C199.828 178.749 199.067 181.346 198.38 183.96C196.999 189.178 195.878 194.43 195.049 199.674C193.4 210.17 192.965 220.691 193.936 230.895C194.898 241.09 197.284 250.977 201.059 260.12L171.991 269.931L171.982 269.915Z" fill="#407BFF"/>
<path opacity="0.2" d="M171.982 269.915C168.4 257.356 166.86 244.43 167.103 231.747C167.337 219.055 169.321 206.622 172.577 194.764C174.209 188.836 176.15 183.033 178.352 177.38C179.448 174.549 180.62 171.76 181.842 169.005C182.436 167.618 183.097 166.266 183.717 164.896L184.654 162.917L185.575 160.997C190.454 150.76 195.091 140.473 199.284 130.018C203.477 119.572 207.235 108.968 210.274 98.1796C213.303 87.3914 215.639 76.4027 216.76 65.2638C217.873 54.1415 217.79 42.8523 215.722 31.7885C213.663 20.7498 209.529 9.96152 203.117 0.425781C210.55 9.18497 216.049 19.6893 219.447 30.8784C222.862 42.0758 224.284 53.866 224.418 65.5978C224.544 77.3463 223.397 89.0864 221.506 100.651C219.597 112.224 216.936 123.639 213.814 134.895C210.692 146.151 207.11 157.248 203.318 168.22L202.607 170.274L202.247 171.301L201.921 172.269C201.502 173.564 201.033 174.85 200.648 176.152C199.828 178.749 199.067 181.346 198.38 183.96C196.999 189.178 195.878 194.43 195.049 199.674C193.4 210.17 192.965 220.691 193.936 230.895C194.898 241.09 197.284 250.977 201.059 260.12L171.991 269.931L171.982 269.915Z" fill="black"/>
<path d="M229.675 240.063L228.813 249.616L223.238 311.682C223.046 313.869 221.205 315.548 219.003 315.548H148.338C146.137 315.548 144.296 313.869 144.103 311.682L138.529 249.616L137.667 240.063H229.666H229.675Z" fill="#407BFF"/>
<path d="M228.663 274.583L226.666 296.864L227.5 296.939L229.497 274.658L228.663 274.583Z" fill="#407BFF"/>
<path d="M229.717 262.804L229.245 268.068L230.079 268.143L230.551 262.878L229.717 262.804Z" fill="#407BFF"/>
<path d="M169.79 43.4365C169.79 43.4365 154.005 64.4035 170.1 98.0207C179.591 117.844 195.284 125.25 206.148 120.123C217.012 114.996 221.23 98.196 211.889 78.2979C196.046 44.5638 169.79 43.4365 169.79 43.4365Z" fill="#407BFF"/>
<path opacity="0.2" d="M169.79 43.4365C169.79 43.4365 154.005 64.4035 170.1 98.0207C179.591 117.844 195.284 125.25 206.148 120.123C217.012 114.996 221.23 98.196 211.889 78.2979C196.046 44.5638 169.79 43.4365 169.79 43.4365Z" fill="black"/>
<path opacity="0.2" d="M229.674 240.063L228.812 249.616H138.537L137.675 240.063H229.674Z" fill="black"/>
<path d="M235.14 228.281H132.202C131.097 228.281 130.201 229.175 130.201 230.277V242.844C130.201 243.946 131.097 244.839 132.202 244.839H235.14C236.245 244.839 237.14 243.946 237.14 242.844V230.277C237.14 229.175 236.245 228.281 235.14 228.281Z" fill="#407BFF"/>
<path d="M275.044 90.9582C289.833 79.8561 292.801 58.8952 281.672 44.1408C270.544 29.3864 249.534 26.4256 234.745 37.5277C219.956 48.6298 216.988 69.5907 228.116 84.3451C239.244 99.0996 260.255 102.06 275.044 90.9582Z" fill="#407BFF"/>
<path opacity="0.1" d="M281.767 72.5283C284.956 60.0701 278.963 46.6933 266.878 41.0153C253.177 34.5607 236.822 40.4141 230.344 54.0831C225.983 63.2848 227.222 73.689 232.671 81.4712C226.368 73.3884 224.753 62.1325 229.432 52.2378C236.069 38.2181 252.833 32.2144 266.886 38.836C279.725 44.8814 285.852 59.377 281.759 72.5283H281.767Z" fill="black"/>
<path d="M239.55 74.1416C239.284 74.0046 239.092 73.7883 238.975 73.4928C238.885 73.2109 238.915 72.924 239.067 72.6318L240.962 68.9669L238.007 67.4457C237.715 67.295 237.523 67.0787 237.433 66.7968C237.343 66.515 237.373 66.228 237.524 65.9359L238.307 64.4221C238.458 64.13 238.675 63.9389 238.958 63.8489C239.24 63.7589 239.528 63.7893 239.821 63.9401L242.775 65.4612L243.826 63.4296L240.871 61.9084C240.579 61.7577 240.387 61.5414 240.297 61.2595C240.22 60.9511 240.251 60.6642 240.388 60.3986L241.934 57.4108C242.085 57.1187 242.301 56.9276 242.584 56.8377C242.88 56.7211 243.175 56.7382 243.468 56.889L246.422 58.4101L252.459 46.738C252.611 46.4459 252.827 46.2548 253.11 46.1648C253.419 46.0886 253.707 46.1189 253.973 46.256L265.193 52.0323C267.403 53.1697 269.141 54.5016 270.408 56.0281C271.715 57.5417 272.47 59.2087 272.675 61.0291C272.879 62.8495 272.446 64.7954 271.375 66.8669C270.372 68.8056 269.095 70.1661 267.544 70.9484C265.994 71.7307 264.235 72.0024 262.269 71.7636C260.329 71.5385 258.254 70.8572 256.045 69.7197L251.253 67.253L250.202 69.2847L255.553 72.0392C255.846 72.1899 256.037 72.4062 256.128 72.6881C256.244 72.9836 256.227 73.2774 256.076 73.5696L255.293 75.0834C255.142 75.3755 254.912 75.5597 254.603 75.636C254.32 75.7259 254.033 75.6956 253.74 75.5448L248.389 72.7903L246.494 76.4553C246.343 76.7474 246.126 76.9385 245.843 77.0284C245.561 77.1184 245.273 77.088 244.98 76.9373L239.55 74.1416ZM253.73 62.1719L258.441 64.5975C259.586 65.1868 260.642 65.3606 261.61 65.1189C262.578 64.8773 263.371 64.1589 263.989 62.9638C264.511 61.9546 264.657 60.954 264.429 59.962C264.2 58.97 263.434 58.1383 262.13 57.4668L257.418 55.0412L253.73 62.1719Z" fill="white"/>
</g>
<defs>
<clipPath id="clip0_4669_16660">
<rect width="383" height="325" fill="white"/>
</clipPath>
</defs>
</svg>
