<svg width="59" height="208" viewBox="0 0 59 208" fill="none" xmlns="http://www.w3.org/2000/svg">
<path d="M24.9956 33.1083C27.5303 32.8414 27.2732 29.7379 26.9635 27.3618C26.8376 26.514 26.6434 25.6714 26.381 24.8497L30.7997 21.1706L34.7985 17.7949C34.5519 19.276 34.3787 20.7728 34.2895 22.2801C34.0691 24.8811 34.363 26.9536 34.7041 29.4553C35.0189 30.57 35.6959 31.4336 36.2417 32.1348C36.2417 32.1348 31.7023 35.5576 28.5851 35.4739C25.4679 35.3849 24.9956 33.1083 24.9956 33.1083Z" fill="#FDBBB5"/>
<path opacity="0.2" d="M34.3577 24.2627C34.3577 24.2627 31.7338 30.543 27.037 28.0937L26.9688 26.9998L34.3577 24.2627Z" fill="black"/>
<path d="M36.714 10.1007C35.2236 5.75687 30.3379 3.27094 25.8091 4.55839C19.5641 6.3378 18.1735 15.0412 19.1968 20.4684C20.3356 26.5131 27.8715 29.9359 32.8831 25.8171C36.226 23.0747 36.3414 19.5891 37.0814 13.7171C37.2388 12.5029 37.1181 11.2678 36.714 10.1007Z" fill="#FDBBB5"/>
<path d="M22.3453 1.13611C25.0375 -1.85225 33.8538 1.99964 33.8538 1.99964C33.8538 1.99964 35.9634 0.20977 39.3168 3.24C42.0089 5.66836 39.8993 9.82903 39.6526 11.9643C38.6713 14.0211 38.7867 16.8054 35.6538 17.8154C34.1162 16.0727 34.006 13.4402 34.1634 11.6189C33.7016 11.4881 33.266 11.2526 32.9144 10.9124C31.5395 9.59875 32.227 6.35396 32.227 6.35396C31.2561 5.76256 28.3698 5.85154 26.3284 7.10759C24.6701 8.1229 21.6579 11.4305 19.0287 10.4571C14.8724 8.9184 16.8928 5.95097 16.8928 5.95097C16.9401 5.7521 18.1471 4.42278 19.3751 4.78389C19.3751 4.78389 19.5272 3.46504 20.1045 2.42356C20.8339 1.10471 22.3453 1.13611 22.3453 1.13611Z" fill="#263238"/>
<path d="M28.0025 14.8846C27.9342 15.5545 27.42 16.0202 26.9529 15.9313C26.4858 15.8423 26.2182 15.23 26.3284 14.5653C26.4386 13.9007 26.9214 13.4296 27.378 13.5186C27.8345 13.6023 28.1179 14.2094 28.0025 14.8846Z" fill="#263238"/>
<path d="M22.1039 14.5437C22.0357 15.2136 21.5109 15.6794 21.0543 15.5905C20.5978 15.5015 20.3197 14.8892 20.4299 14.2245C20.5401 13.5598 21.0229 13.0888 21.4794 13.1778C21.936 13.2615 22.2141 13.9105 22.1039 14.5437Z" fill="#263238"/>
<path d="M19.7371 11.5925C19.8368 11.6605 19.968 11.6762 20.0782 11.6291C20.8182 11.2837 21.6893 11.2942 22.4397 11.6553C22.5919 11.7443 22.7914 11.7024 22.8858 11.5611C22.9803 11.4198 22.9278 11.2261 22.7756 11.1372C21.8415 10.6609 20.7342 10.6347 19.8001 11.0691C19.6374 11.1372 19.5639 11.3151 19.6374 11.4721C19.6374 11.4721 19.6374 11.4773 19.6427 11.4773C19.6584 11.5192 19.6951 11.5558 19.7371 11.5925Z" fill="#263238"/>
<path d="M28.6324 12.3727C28.6953 12.357 28.7531 12.3204 28.795 12.2733C28.879 12.1215 28.8213 11.9383 28.6586 11.8598C28.6586 11.8598 28.6534 11.8598 28.6534 11.8546C27.7245 11.394 26.6119 11.3888 25.6621 11.8441C25.5047 11.9278 25.4522 12.1162 25.5414 12.2628C25.6359 12.4041 25.83 12.4512 25.9875 12.3727C26.7432 12.0325 27.6248 12.0482 28.3542 12.4146C28.4487 12.4407 28.5484 12.425 28.6324 12.3727Z" fill="#263238"/>
<path d="M40.3299 18.7993C39.6581 20.2804 38.3829 21.4318 36.7928 22.0023C34.678 22.7402 33.3817 20.9556 33.7596 18.9459C34.1164 17.1665 35.633 14.5811 37.8634 14.7276C40.0937 14.8794 41.1328 16.9676 40.3299 18.7993Z" fill="#FDBBB5"/>
<path opacity="0.1" d="M35.3022 19.3492C35.4282 18.2553 36.0842 17.24 37.055 16.6591C37.4696 16.4131 38.0364 16.2509 38.4352 16.544" stroke="black" stroke-width="0.5" stroke-miterlimit="10"/>
<path d="M23.7253 13.8428C22.7912 15.3029 21.6472 16.627 20.3247 17.7784C20.9964 18.4378 21.9305 18.7885 22.8751 18.7361L23.7253 13.8428Z" fill="#D7504D"/>
<path d="M25.4574 20.9816C26.6749 20.767 27.7612 20.0867 28.5116 19.1132C28.5746 19.0295 28.5221 18.8934 28.4434 18.8463C28.3437 18.7835 28.2387 18.8306 28.1757 18.9143C27.4883 19.804 26.4649 20.4059 25.3576 20.5995C25.1058 20.6467 25.2107 21.0287 25.4574 20.9816Z" fill="#263238"/>
<path d="M16.8089 190.046L9.08936 189.214L10.7844 201.769L15.6019 202.69L16.8089 190.046Z" fill="#263238"/>
<path d="M9.67191 199.608L11.5034 199.571C11.918 199.56 12.3116 199.754 12.574 200.068C13.7022 201.418 14.4684 200.885 15.5495 199.576C16.2737 199.482 16.5151 200.272 16.5885 200.487L18.2101 205.197C18.3518 205.589 18.1314 206.008 17.7221 206.129C17.6486 206.149 17.5751 206.16 17.4964 206.16C15.2713 206.202 14.2165 206.223 11.4509 206.275L2.98093 206.437C0.671888 206.479 0.0736359 204.276 1.013 204.056C5.24274 203.077 8.20776 201.821 9.46724 200.612C9.70339 200.408 9.441 200.256 9.67191 199.608Z" fill="#263238"/>
<path d="M7.02719 201.277C7.60445 201.251 8.17646 201.173 8.73273 201.031C8.78521 201.01 8.81145 200.958 8.78521 200.906C8.77472 200.88 8.74848 200.859 8.72224 200.848C8.45985 200.733 6.11407 199.76 5.5578 200.157C5.45285 200.225 5.40037 200.346 5.42661 200.466C5.44235 200.691 5.5683 200.901 5.76771 201.031C6.15605 201.241 6.59687 201.325 7.02719 201.277ZM8.37064 200.911C7.69892 201.042 6.45518 201.225 5.91465 200.869C5.77296 200.77 5.68375 200.623 5.66276 200.456C5.64702 200.403 5.668 200.351 5.71523 200.325C6.01961 200.105 7.39454 200.529 8.37064 200.911Z" fill="#407BFF"/>
<path d="M8.71152 201.037C8.73776 201.042 8.75875 201.042 8.78499 201.037C8.81648 201.011 8.82173 200.969 8.81123 200.932C8.80598 200.843 8.15525 198.708 6.90627 198.87C6.59665 198.917 6.51268 199.059 6.50744 199.179C6.46021 199.749 7.96108 200.796 8.65904 201.058L8.71152 201.037ZM7.03222 199.038C7.82989 199.022 8.35467 200.262 8.53834 200.765C7.77216 200.404 6.67537 199.53 6.7226 199.184C6.7226 199.158 6.71735 199.074 6.94825 199.048L7.03222 199.038Z" fill="#407BFF"/>
<path d="M8.47559 200.979C9.11057 201.047 9.71407 201.397 10.0814 201.9" stroke="#407BFF" stroke-width="0.5" stroke-miterlimit="10" stroke-linecap="round" stroke-linejoin="round"/>
<path d="M7.37842 201.816C8.0134 201.884 8.6169 202.235 8.98425 202.738" stroke="#407BFF" stroke-width="0.5" stroke-miterlimit="10" stroke-linecap="round" stroke-linejoin="round"/>
<path d="M5.99854 202.528C6.63352 202.596 7.23702 202.947 7.60437 203.449" stroke="#407BFF" stroke-width="0.5" stroke-miterlimit="10" stroke-linecap="round" stroke-linejoin="round"/>
<path d="M17.9635 198.499L16.0795 152.402L26.4597 108.722L25.0061 81.2725L9.0422 82.1465C9.0422 82.1465 3.05968 117.64 1.30166 149.9C0.561718 163.455 6.8591 198.462 6.8591 198.462L17.9635 198.499Z" fill="#263238"/>
<path d="M22.6235 83.0884C22.6235 83.0884 26.255 141.432 26.8008 154.919C27.399 169.698 30.4113 199.776 30.4113 199.776L40.2929 199.106C40.2929 199.106 41.4107 160.66 42.2084 146.195C43.0061 131.729 45.2994 105.174 45.0317 99.0298C44.7641 92.8804 41.4632 78.1113 41.4632 78.1113L22.6235 83.0884Z" fill="#263238"/>
<path opacity="0.3" d="M24.5599 115.918C24.5599 115.918 24.2712 106.168 24.266 106.089C24.2607 106.011 20.4298 101.364 20.3459 101.332C20.2619 101.301 22.7126 107.984 22.6759 107.984C22.6391 107.984 22.9908 123.214 22.9908 123.214L24.5599 115.918Z" fill="black"/>
<path d="M38.9653 191.234L31.4399 190.784L33.623 203.005L38.5035 204.004L38.9653 191.234Z" fill="#263238"/>
<path d="M32.5262 200.796L34.3892 200.785C34.809 200.785 35.2079 200.984 35.4703 201.303C36.5985 202.69 37.3857 202.162 38.4983 200.843C39.2382 200.759 39.4691 201.565 39.5373 201.785L41.1169 206.589C41.2534 206.992 41.0277 207.411 40.6079 207.526C40.5344 207.547 40.4557 207.557 40.377 207.557C38.1152 207.568 37.0499 207.573 34.237 207.589L25.6358 207.636C23.2901 207.646 22.7181 205.401 23.6732 205.192C27.9816 204.255 31.0096 203.025 32.3006 201.816C32.5472 201.607 32.2848 201.45 32.5262 200.796Z" fill="#263238"/>
<path d="M29.8185 202.45C30.4062 202.434 30.9887 202.361 31.5555 202.225C31.608 202.204 31.6342 202.152 31.6132 202.099C31.6028 202.073 31.5765 202.052 31.5503 202.042C31.2826 201.921 28.9159 200.901 28.3491 201.293C28.2441 201.361 28.1864 201.482 28.2074 201.607C28.2179 201.838 28.3439 202.052 28.5433 202.183C28.9316 202.403 29.3777 202.492 29.8185 202.45ZM31.1829 202.099C30.5007 202.225 29.2307 202.393 28.6902 202.021C28.5485 201.921 28.4593 201.764 28.4436 201.602C28.4331 201.55 28.454 201.498 28.5013 201.471C28.8109 201.252 30.2016 201.696 31.1829 202.099Z" fill="#407BFF"/>
<path d="M31.5292 202.235C31.5554 202.24 31.5764 202.24 31.6026 202.235C31.6341 202.209 31.6446 202.167 31.6289 202.13C31.6236 202.036 30.9939 199.864 29.7239 200.006C29.4091 200.047 29.3251 200.194 29.3146 200.314C29.2569 200.89 30.763 201.979 31.4767 202.251L31.5292 202.235ZM29.8551 200.178C30.6633 200.173 31.1828 201.445 31.356 201.953C30.5793 201.576 29.4825 200.676 29.535 200.32C29.535 200.288 29.5298 200.21 29.7659 200.184L29.8551 200.178Z" fill="#407BFF"/>
<path d="M31.293 202.167C31.9385 202.245 32.5472 202.607 32.9093 203.125" stroke="#407BFF" stroke-width="0.5" stroke-miterlimit="10" stroke-linecap="round" stroke-linejoin="round"/>
<path d="M30.1646 203.005C30.81 203.083 31.4188 203.444 31.7809 203.963" stroke="#407BFF" stroke-width="0.5" stroke-miterlimit="10" stroke-linecap="round" stroke-linejoin="round"/>
<path d="M28.7529 203.706C29.3984 203.785 30.0072 204.146 30.3693 204.664" stroke="#407BFF" stroke-width="0.5" stroke-miterlimit="10" stroke-linecap="round" stroke-linejoin="round"/>
<path d="M23.4268 32.6738C23.6629 32.454 26.9376 29.6122 26.9376 29.6122L29.7242 32.6738L35.1137 28.958L37.7638 31.2189L23.983 57.9519L21.8262 54.9635L23.4268 32.6738Z" fill="#407BFF"/>
<path opacity="0.8" d="M23.4268 32.6738C23.6629 32.454 26.9376 29.6122 26.9376 29.6122L29.7242 32.6738L35.1137 28.958L37.7638 31.2189L23.983 57.9519L21.8262 54.9635L23.4268 32.6738Z" fill="white"/>
<path d="M29.3722 33.7676C29.1675 33.8879 27.3623 35.2801 27.3623 35.2801L27.8189 37.6927L29.6136 38.0225L31.5448 35.1126L29.3722 33.7676Z" fill="#407BFF"/>
<path d="M27.8191 37.6982L23.9619 47.9246L24.1508 57.9521L29.1992 47.4536L29.6191 38.028L27.8191 37.6982Z" fill="#407BFF"/>
<path opacity="0.5" d="M27.8191 37.6982L23.9619 47.9246L24.1508 57.9521L29.1992 47.4536L29.6191 38.028L27.8191 37.6982Z" fill="black"/>
<path opacity="0.5" d="M29.3722 33.7676C29.1675 33.8879 27.3623 35.2801 27.3623 35.2801L27.8189 37.6927L29.6136 38.0225L31.5448 35.1126L29.3722 33.7676Z" fill="black"/>
<path d="M21.6841 88.3482H25.1634L24.1506 84.7475L23.5733 82.4971L22.8596 84.7475L21.6841 88.3482Z" fill="black"/>
<path d="M24.6019 31.2188L21.0386 33.2232C21.0386 33.2232 11.7762 35.0026 11.3406 36.0493C11.0887 36.6459 11.2409 58.7786 11.2409 58.7786C11.2409 58.7786 9.96045 74.4374 9.89748 75.683C9.74529 78.5981 2.82867 100.097 3.44791 101.17C4.06715 102.243 13.7704 107.911 15.9325 106.378C18.0946 104.844 23.206 88.411 23.206 88.411L24.1506 57.622L24.6019 31.2188Z" fill="#407BFF"/>
<path opacity="0.3" d="M17.9949 42.8425C18.4935 43.6275 19.7057 44.7736 19.7057 44.7736C19.7057 44.7736 17.6643 46.239 17.5384 47.1968C17.4124 48.1545 22.6655 66.0532 23.2008 65.6712C23.3844 65.5404 23.6941 63.8552 24.0194 61.7042L24.1454 57.622L24.6019 31.2188L21.0387 33.2232C21.0387 33.218 17.4964 42.0574 17.9949 42.8425Z" fill="black"/>
<path d="M30.81 106.237C30.81 106.237 28.2701 106.639 26.4596 100.103C24.6491 93.5504 23.2007 88.4058 23.2007 88.4058L23.9774 57.9466L36.4724 29.5127L40.5447 32.0248L46.1389 33.5792L40.5447 67.6182C40.5447 67.6182 48.6684 101.129 48.4952 101.584C48.3325 102.034 30.81 106.237 30.81 106.237Z" fill="#407BFF"/>
<path opacity="0.3" d="M23.9774 57.9514L23.9092 60.5892L24.1558 61.348C24.1558 61.348 37.4223 45.3595 37.7582 43.9883C38.0941 42.6119 36.7716 42.3398 36.7716 42.3398C36.7716 42.3398 38.9232 41.1465 39.1961 40.1417C39.4742 39.1316 40.5448 32.0297 40.5448 32.0297L36.4725 29.5176L23.9774 57.9514Z" fill="black"/>
<g opacity="0.3">
<path d="M23.4 88.4057C23.1953 77.9596 23.2635 67.4872 24.3551 57.0829C24.3813 56.8317 23.9877 56.8317 23.9615 57.0829C22.8699 67.4872 22.8017 77.9543 23.0064 88.4057C23.0116 88.6622 23.4052 88.6622 23.4 88.4057Z" fill="black"/>
</g>
<path opacity="0.3" d="M31.7129 83.6899L41.8779 81.7012L43.552 84.7157L33.1928 86.8929L31.7129 83.6899Z" fill="black"/>
<path opacity="0.3" d="M16.5834 83.1352L8.5175 81.5547L7.62012 84.7681L15.1035 86.3434L16.5834 83.1352Z" fill="black"/>
<path d="M10.7322 65.9853C10.8582 65.4985 13.1148 54.0632 13.1148 54.0632L15.2874 51.5459L30.7737 56.6486L24.8856 79.9013C24.8856 79.9013 22.6868 82.3296 21.5533 82.1203C20.4197 81.9109 9.46752 78.169 9.12116 77.677C8.77481 77.1903 10.7322 65.9853 10.7322 65.9853Z" fill="#263238"/>
<path d="M14.1226 54.1258L15.6654 52.2783C15.6654 52.2783 30.0602 56.9623 29.992 57.224C29.9237 57.4857 24.466 79.9586 24.466 79.9586L21.8106 81.7589L27.2264 58.815L14.1226 54.1258Z" fill="white"/>
<path d="M11.5717 36.0439C11.5717 36.0439 9.86616 36.5464 8.93205 39.3515C6.64924 46.1761 1.29646 62.0494 0.787423 65.7286C0.131445 70.4231 -1.17526 75.2485 2.35653 77.075C5.88831 78.9015 15.3029 81.5078 15.3029 81.5078L18.1682 72.4066L10.3332 68.2093C10.3332 68.2093 11.3775 67.037 9.67724 66.3828L11.9286 58.543L11.5717 36.0439Z" fill="#407BFF"/>
<g opacity="0.3">
<path d="M8.95852 79.9168C11.0524 80.5081 13.1515 81.1048 15.2454 81.6962C15.3504 81.7276 15.4553 81.6595 15.4868 81.5601C16.3212 78.9119 17.1556 76.2637 17.99 73.6156C18.1107 73.2283 18.2314 72.8462 18.3521 72.4589C18.4256 72.2182 18.0477 72.1135 17.9743 72.3543C17.1399 75.0025 16.3055 77.6506 15.4711 80.2988C15.3504 80.6861 15.2297 81.0681 15.109 81.4554C15.1877 81.4083 15.2716 81.3664 15.3504 81.3193C13.2565 80.728 11.1574 80.1313 9.06347 79.5399C8.81682 79.4667 8.71187 79.8487 8.95852 79.9168Z" fill="black"/>
</g>
<path d="M15.9851 74.5419C15.9851 74.5419 17.0346 74.3848 18.1577 73.6417C19.2755 72.8985 20.5035 72.26 21.5163 72.0978C22.5291 71.9408 25.8352 71.1924 25.8352 71.1924C25.8352 71.1924 26.528 72.4694 25.3577 72.9195C24.1874 73.3695 22.6918 73.6365 22.2143 74.1703C21.7367 74.7041 22.1093 75.5519 23.5997 75.4473C25.0901 75.3426 26.3181 74.6518 26.9058 74.971C27.4936 75.2903 27.3834 77.525 26.9058 78.3205L26.5857 78.8543C26.5857 78.8543 26.7431 79.7074 26.2656 80.0789C25.788 80.4505 25.788 80.4505 25.788 80.4505C25.788 80.4505 26.4807 81.2199 25.6306 81.738C24.7752 82.2561 22.697 83.2138 21.6317 82.9993C20.5664 82.7847 17.1921 80.4453 16.1845 80.2883C15.1822 80.1313 14.862 78.2158 15.072 76.6719C15.2766 75.1332 15.9851 74.5419 15.9851 74.5419Z" fill="#FDBBB5"/>
<g opacity="0.3">
<path d="M11.5139 62.1438C11.8235 55.6961 12.002 49.2431 12.1909 42.7954C12.2066 42.1726 12.2276 41.5498 12.2434 40.9218C12.2486 40.6706 11.855 40.6706 11.8498 40.9218C11.7028 46.2548 11.5349 51.5878 11.3355 56.9155C11.2725 58.6583 11.2043 60.4011 11.1203 62.1438C11.1098 62.3951 11.5034 62.3951 11.5139 62.1438Z" fill="black"/>
</g>
<path opacity="0.3" d="M42.5917 75.1287L42.1613 96.2827L47.6191 96.3455L47.9287 97.6905L41.4214 97.3242L41.9357 72.4072L42.5917 75.1287Z" fill="black"/>
<path opacity="0.3" d="M40.781 50.8184L42.1979 58.9932L40.781 67.6181C40.781 67.6181 39.9675 53.1264 40.781 50.8184Z" fill="black"/>
<path d="M46.3703 33.5788C46.3703 33.5788 48.2385 33.0764 49.6817 37.4883C51.1196 41.8949 52.6362 71.0353 52.4893 75.6618C52.3108 81.2774 49.8706 96.3448 49.8706 96.3448L42.1615 96.282C42.1615 96.282 42.8175 68.7116 42.6863 63.656C42.5551 58.6004 40.2041 49.2114 40.2041 49.2114C40.2041 49.2114 42.1878 33.5788 46.3703 33.5788Z" fill="#407BFF"/>
<path d="M42.6234 44.0774C42.6916 40.4348 43.7517 36.965 46.0292 34.0813C46.1867 33.8824 45.9085 33.6051 45.7511 33.8039C43.4053 36.7713 42.3033 40.3197 42.2351 44.0774C42.2246 44.3286 42.6182 44.3286 42.6234 44.0774Z" fill="#263238"/>
<path d="M29.2046 133.613C29.2046 133.613 30.3801 110.711 30.7422 109.031C31.0151 107.759 31.6343 106.603 33.7335 106.603C35.8326 106.603 55.281 107.607 56.0367 107.775C56.7924 107.942 58.2146 109.115 58.0046 110.7C57.7947 112.291 58.881 117.473 58.0046 118.143C57.1283 118.812 57.1283 118.812 57.1283 118.812C57.1283 118.812 57.3802 132.524 57.1283 133.278C56.8764 134.032 29.2046 133.613 29.2046 133.613Z" fill="#407BFF"/>
<path opacity="0.3" d="M29.2046 133.613C29.2046 133.613 30.3801 110.711 30.7422 109.031C31.0151 107.759 31.6343 106.603 33.7335 106.603C35.8326 106.603 55.281 107.607 56.0367 107.775C56.7924 107.942 58.2146 109.115 58.0046 110.7C57.7947 112.291 58.881 117.473 58.0046 118.143C57.1283 118.812 57.1283 118.812 57.1283 118.812C57.1283 118.812 57.3802 132.524 57.1283 133.278C56.8764 134.032 29.2046 133.613 29.2046 133.613Z" fill="black"/>
<path opacity="0.3" d="M30.7424 109.031C30.6479 109.46 30.5587 110.449 30.396 112.919L37.0135 113.102L36.9558 110.663C36.5779 108.125 35.5494 107.042 34.526 106.623C34.1692 106.613 33.9015 106.607 33.7389 106.607C31.6397 106.602 31.0205 107.759 30.7424 109.031Z" fill="black"/>
<path d="M34.4103 106.937C36.1946 107.523 36.7089 109.481 36.7928 111.15C36.882 112.898 36.8295 114.662 36.8453 116.415C36.8505 116.985 36.8243 117.613 37.0815 118.142C37.3596 118.707 37.8844 118.964 38.4564 119.157C39.7841 119.607 41.1485 119.995 42.5129 120.345C44.5596 120.869 46.8582 121.403 48.9625 120.937C50.3742 120.623 51.7806 120.277 53.187 119.948C54.52 119.634 55.8529 119.325 57.1859 119.011C57.4325 118.953 57.3276 118.576 57.0809 118.634C54.4622 119.246 51.8383 119.864 49.2197 120.476C47.2622 120.937 45.2628 120.597 43.3316 120.146C41.9619 119.827 40.6132 119.419 39.2645 119.006C38.4511 118.754 37.5538 118.582 37.3176 117.629C37.1077 116.771 37.2336 115.771 37.2284 114.897C37.2126 112.218 37.8214 107.659 34.5153 106.571C34.2739 106.476 34.1689 106.853 34.4103 106.937Z" fill="#263238"/>
<path d="M45.5935 120.785C45.5148 120.926 45.0687 124.192 45.5935 124.433C46.1183 124.674 48.8524 125.113 49.0518 124.433C49.2513 123.752 48.9731 120.89 48.9731 120.89C48.9731 120.89 48.695 120.916 48.0075 120.89C47.3201 120.858 45.7457 120.67 45.7457 120.67" fill="#263238"/>
<path d="M43.8145 102.892C41.3008 102.845 38.8395 104.488 37.9316 106.827L40.0675 106.916C40.8494 105.786 42.3451 104.969 43.72 104.99C45.0949 105.011 46.6693 106.105 47.4145 107.262L49.8337 107.382C49.0203 105.006 46.3282 102.939 43.8145 102.892Z" fill="#407BFF"/>
<g opacity="0.3">
<path d="M43.8145 102.892C41.3008 102.845 38.8395 104.488 37.9316 106.827L40.0675 106.916C40.8494 105.786 42.3451 104.969 43.72 104.99C45.0949 105.011 46.6693 106.105 47.4145 107.262L49.8337 107.382C49.0203 105.006 46.3282 102.939 43.8145 102.892Z" fill="black"/>
</g>
<g opacity="0.3">
<path d="M37.4596 133.733C37.6223 128.526 37.2969 123.324 37.4596 118.116C37.4648 117.865 37.0713 117.865 37.066 118.116C36.9033 123.318 37.2287 128.526 37.066 133.733C37.0555 133.984 37.4491 133.984 37.4596 133.733Z" fill="black"/>
</g>
<path opacity="0.3" d="M37.4595 118.367C37.4595 118.367 37.5959 118.932 39.1493 119.749C40.7026 120.565 47.1575 121.868 48.7475 121.706C50.3429 121.544 56.4409 118.98 56.4409 118.98C56.4409 118.98 49.5505 120.523 47.8239 120.89C46.1971 121.23 37.6222 118.749 37.4595 118.367Z" fill="black"/>
<path opacity="0.3" d="M37.9683 106.759L40.1041 106.863C40.2143 106.712 40.3613 106.549 40.5135 106.382L38.2831 106.089C38.1467 106.335 38.0365 106.56 37.9683 106.759Z" fill="black"/>
<path opacity="0.3" d="M47.4199 107.262L49.8391 107.382C49.8391 107.382 49.6764 106.927 49.603 106.807L47.147 106.885L47.4199 107.262Z" fill="black"/>
<path d="M43.3477 96.1351C43.0591 96.1665 42.9751 97.3441 42.9751 97.3441C42.9751 97.3441 40.834 100.039 40.6766 100.657C40.5244 101.274 39.2072 103.436 39.669 103.781C40.1308 104.127 41.0911 104.054 41.6159 103.357C42.1407 102.661 43.4579 100.359 44.1139 100.489C44.7699 100.62 44.3973 103.206 43.7518 104.205C43.1063 105.21 41.4637 105.451 41.4637 105.451C41.4637 105.451 42.7599 106.356 44.455 106.021C44.455 106.021 45.1162 107 46.4702 106.55C47.8241 106.1 48.3646 105.446 48.7897 104.556C49.2148 103.666 48.6008 96.3288 48.6008 96.3288C48.6008 96.3288 47.0107 95.7269 43.3477 96.1351Z" fill="#FDBBB5"/>
</svg>
