<svg width="244" height="200" viewBox="0 0 244 200" fill="none" xmlns="http://www.w3.org/2000/svg">
<g id="lady 3">
<g id="Desk">
<g id="Group">
<g id="Group_2">
<path id="Vector" d="M229.931 185.082C229.931 185.151 181.604 185.209 122.005 185.209C62.3859 185.209 14.069 185.151 14.069 185.082C14.069 185.014 62.3859 184.955 122.005 184.955C181.604 184.955 229.931 185.009 229.931 185.082Z" fill="#263238"/>
</g>
</g>
</g>
<g id="No">
<g id="Group_3">
<g id="Group_4">
<g id="Group_5">
<g id="Group_6">
<path id="Vector_2" d="M195.18 98.9666L191.428 97.2863L213.773 69.1216L217.424 70.1328C217.97 70.2842 218.453 70.5968 218.819 71.0266L222.45 75.3056C222.972 75.921 222.899 76.8442 222.279 77.3669L197.196 98.6785C196.635 99.1572 195.849 99.2695 195.18 98.9666Z" fill="#407BFF"/>
</g>
</g>
<g id="Group_7">
<g id="Group_8">
<path id="Vector_3" d="M220.542 96.9835L216.482 100.432C216.028 100.818 215.403 100.93 214.847 100.725L211.812 99.6114C211.431 99.4698 211.114 99.1962 210.923 98.8348L194.302 67.4755L198.05 68.5648C198.533 68.7064 198.962 68.9849 199.289 69.3708L220.737 94.6633C221.323 95.3471 221.235 96.3925 220.542 96.9835Z" fill="#407BFF"/>
</g>
</g>
</g>
<g id="Group_9" opacity="0.3">
<g id="Group_10">
<g id="Group_11">
<path id="Vector_4" d="M195.18 98.9666L191.428 97.2863L213.773 69.1216L217.424 70.1328C217.97 70.2842 218.453 70.5968 218.819 71.0266L222.45 75.3056C222.972 75.921 222.899 76.8442 222.279 77.3669L197.196 98.6785C196.635 99.1572 195.849 99.2695 195.18 98.9666Z" fill="black"/>
</g>
</g>
<g id="Group_12">
<g id="Group_13">
<path id="Vector_5" d="M220.542 96.9835L216.482 100.432C216.028 100.818 215.403 100.93 214.847 100.725L211.812 99.6114C211.431 99.4698 211.114 99.1962 210.923 98.8348L194.302 67.4755L198.05 68.5648C198.533 68.7064 198.962 68.9849 199.289 69.3708L220.737 94.6633C221.323 95.3471 221.235 96.3925 220.542 96.9835Z" fill="black"/>
</g>
</g>
</g>
<g id="Group_14">
<g id="Group_15">
<g id="Group_16">
<path id="Vector_6" d="M191.018 96.9396L187.329 92.5874C186.928 92.1185 186.987 91.4102 187.455 91.0096L212.866 69.4196C213.334 69.0191 214.042 69.0777 214.442 69.5466L218.131 73.8988C218.531 74.3678 218.473 75.076 218.004 75.4766L192.594 97.0666C192.126 97.472 191.418 97.4134 191.018 96.9396Z" fill="#407BFF"/>
</g>
</g>
<g id="Group_17">
<g id="Group_18">
<path id="Vector_7" d="M216.413 94.971L212.065 98.6638C211.597 99.0644 210.889 99.0057 210.489 98.5368L188.919 73.1026C188.519 72.6337 188.578 71.9254 189.046 71.5249L193.516 67.7247C193.917 67.3827 194.522 67.4316 194.863 67.837L216.54 93.3982C216.94 93.8671 216.882 94.5705 216.413 94.971Z" fill="#407BFF"/>
</g>
</g>
</g>
<g id="Group_19">
<g id="Group_20">
<path id="Vector_8" d="M196.196 84.8452C196.239 84.899 194.585 86.3888 192.501 88.1766C190.413 89.9643 188.685 91.3711 188.641 91.3174C188.597 91.2636 190.252 89.7738 192.335 87.986C194.424 86.1934 196.152 84.7915 196.196 84.8452Z" fill="#407BFF"/>
</g>
</g>
<g id="Group_21">
<g id="Group_22">
<path id="Vector_9" d="M213.007 70.4405C213.051 70.4942 211.192 72.1452 208.854 74.1235C206.517 76.1067 204.584 77.6697 204.535 77.616C204.487 77.5623 206.351 75.9113 208.688 73.933C211.031 71.9498 212.963 70.3868 213.007 70.4405Z" fill="#407BFF"/>
</g>
</g>
<g id="Group_23">
<g id="Group_24">
<path id="Vector_10" d="M197.01 80.8349C196.957 80.8789 195.512 79.1253 193.79 76.9224C192.067 74.7194 190.715 72.8974 190.769 72.8535C190.823 72.8095 192.267 74.5631 193.99 76.7661C195.717 78.969 197.069 80.791 197.01 80.8349Z" fill="#407BFF"/>
</g>
</g>
<g id="Group_25">
<g id="Group_26">
<path id="Vector_11" d="M209.874 95.479C209.82 95.5278 208.332 93.9941 206.546 92.0549C204.76 90.1157 203.354 88.5038 203.403 88.4549C203.457 88.4061 204.945 89.9398 206.731 91.879C208.518 93.8231 209.928 95.4302 209.874 95.479Z" fill="#407BFF"/>
</g>
</g>
</g>
</g>
<g id="Yes">
<g id="Group_27">
<g id="Group_28">
<g id="Group_29">
<g id="Group_30">
<g id="Group_31">
<g id="Group_32">
<path id="Vector_12" d="M18.0267 93.6571L17.2508 90.7654L38.1713 94.9417L56.6519 68.9263L58.9064 73.127C59.2578 73.7767 59.2529 74.5582 58.9016 75.2079L42.861 104.608C41.6605 106.811 38.8789 107.588 36.7122 106.328L20.5204 96.9151C19.2906 96.202 18.3927 95.0297 18.0267 93.6571Z" fill="#FF725E"/>
</g>
</g>
</g>
</g>
</g>
<g id="Group_33" opacity="0.3">
<g id="Group_34">
<g id="Group_35">
<g id="Group_36">
<g id="Group_37">
<path id="Vector_13" d="M18.0267 93.6571L17.2508 90.7654L38.1713 94.9417L56.6519 68.9263L58.9064 73.127C59.2578 73.7767 59.2529 74.5582 58.9016 75.2079L42.861 104.608C41.6605 106.811 38.8789 107.588 36.7122 106.328L20.5204 96.9151C19.2906 96.202 18.3927 95.0297 18.0267 93.6571Z" fill="black"/>
</g>
</g>
</g>
</g>
</g>
<g id="Group_38">
<g id="Group_39">
<g id="Group_40">
<g id="Group_41">
<g id="Group_42">
<path id="Vector_14" d="M17.3093 89.3879L20.3252 84.0441C20.7546 83.2772 21.7111 82.9842 22.4968 83.3701L34.6041 89.3049C35.4044 89.7005 36.3755 89.383 36.7952 88.5966L48.7853 66.0492C49.2343 65.2042 50.303 64.916 51.118 65.4142L55.998 68.4182C56.7495 68.8823 57.0081 69.8494 56.5836 70.6261L40.9139 99.3525C39.8598 101.287 37.4442 102.01 35.502 100.979L17.9779 91.6739C17.1532 91.2294 16.8506 90.1987 17.3093 89.3879Z" fill="#FF725E"/>
</g>
</g>
</g>
</g>
</g>
</g>
</g>
<g id="Character">
<g id="Group_43">
<g id="Group_44">
<g id="Group_45">
<path id="Vector_15" d="M60.3615 126.088C60.3615 126.088 56.194 122.17 54.5933 121.13C52.9927 120.09 49.3961 118.658 48.0541 118.531C46.7121 118.399 40.4316 120.221 40.4316 120.221C40.4316 120.221 31.1644 119.396 29.6028 120.48C28.0461 121.565 28.173 122.693 28.822 123.514C29.4711 124.339 31.9843 124.075 34.7561 124.119C37.528 124.163 38.2648 124.422 38.2648 124.422L34.2388 128.716L44.6772 131.622L51.0456 131.383L53.3392 134.274L60.3615 126.088Z" fill="#FFBF9D"/>
</g>
<g id="Group_46">
<path id="Vector_16" d="M28.5829 116.392L28.8367 125.633L29.2856 126.781L33.8387 132.34L44.9553 131.607L36.103 128.154L32.9554 125.76L31.7403 121.809C31.7305 121.809 32.1112 115.718 28.5829 116.392Z" fill="#FFBF9D"/>
</g>
<g id="Group_47">
<path id="Vector_17" d="M29.3637 126.996H26.6553C26.6553 126.996 23.1222 121.184 19.8916 123.157L20.6334 124.305C20.6334 124.305 19.1792 123.646 18.252 124.872L27.1628 132.697H27.5728L37.0644 132.086L29.3637 126.996Z" fill="#FFBF9D"/>
</g>
<g id="Group_48">
<g id="Group_49">
<path id="Vector_18" d="M30.979 128.765C30.9741 128.794 30.6911 128.779 30.2128 128.799C29.7395 128.828 29.0367 128.857 28.3389 129.175L28.2462 129.214L28.1876 129.131C27.9143 128.745 27.5727 128.325 27.2263 127.89C26.504 127.001 25.855 126.195 25.3035 125.516C24.8155 124.906 24.513 124.525 24.5423 124.505C24.5667 124.481 24.918 124.818 25.4402 125.399C25.9672 125.98 26.6699 126.801 27.4215 127.729C27.7728 128.169 28.1047 128.584 28.3828 128.999L28.2315 128.955C29.0123 128.623 29.7248 128.638 30.2079 128.647C30.7008 128.672 30.979 128.735 30.979 128.765Z" fill="#FF9A6C"/>
</g>
</g>
<g id="Group_50">
<g id="Group_51">
<path id="Vector_19" d="M50.2355 123.387C50.2599 123.47 48.7373 123.777 47.1025 124.715C45.4628 125.643 44.4234 126.796 44.3599 126.733C44.3355 126.713 44.5698 126.4 45.0187 125.961C45.4677 125.521 46.1411 124.969 46.9756 124.495C47.8101 124.022 48.6299 123.724 49.2351 123.562C49.8402 123.396 50.2257 123.357 50.2355 123.387Z" fill="#FF9A6C"/>
</g>
</g>
<g id="Group_52">
<g id="Group_53">
<path id="Vector_20" d="M41.3539 120.993C41.4027 121.047 40.7878 121.706 40.0802 122.561C39.3677 123.411 38.8211 124.134 38.7626 124.09C38.704 124.051 39.1627 123.26 39.885 122.395C40.6072 121.531 41.3099 120.944 41.3539 120.993Z" fill="#FF9A6C"/>
</g>
</g>
<g id="Group_54">
<g id="Group_55">
<path id="Vector_21" d="M32.0721 130.054C32.0672 130.059 31.994 129.986 31.8574 129.844C31.7061 129.678 31.5207 129.468 31.2864 129.204C31.0327 128.916 30.735 128.574 30.3934 128.183C30.2177 127.983 30.0323 127.768 29.8371 127.543C29.6419 127.319 29.4223 127.079 29.2368 126.791C28.8659 126.22 28.6073 125.482 28.6024 124.676C28.5878 123.89 28.5731 123.05 28.5536 122.165C28.5243 120.392 28.4902 118.448 28.4609 116.397V116.284L28.5683 116.27C28.661 116.255 28.7635 116.245 28.8611 116.231C29.515 116.157 30.2177 116.387 30.6569 116.871C31.101 117.339 31.3499 117.926 31.5158 118.492C31.8379 119.645 31.8915 120.773 31.8476 121.824L31.8427 121.784C32.2917 123.284 32.6967 124.618 33.0335 125.741L33.0042 125.697C33.9607 126.444 34.7317 127.05 35.2929 127.485C35.5418 127.685 35.7419 127.846 35.898 127.973C36.0347 128.086 36.103 128.149 36.0981 128.154C36.0932 128.159 36.0151 128.11 35.8687 128.007C35.7028 127.89 35.493 127.739 35.2343 127.553C34.6634 127.128 33.8728 126.547 32.8968 125.824L32.8773 125.809L32.8675 125.78C32.5162 124.662 32.0965 123.333 31.6231 121.838L31.6183 121.819V121.794C31.6475 120.778 31.589 119.65 31.2718 118.546C31.1107 117.999 30.8667 117.452 30.4666 117.027C30.0713 116.602 29.4759 116.407 28.8757 116.465C28.783 116.48 28.6903 116.49 28.6073 116.504L28.7098 116.377C28.7342 118.424 28.7586 120.368 28.783 122.146C28.8562 123.9 28.5829 125.575 29.3832 126.684C29.554 126.962 29.7639 127.192 29.9591 127.426C30.1494 127.656 30.3299 127.876 30.5007 128.081C30.8326 128.486 31.1205 128.833 31.3645 129.131C31.5841 129.404 31.7598 129.629 31.9013 129.8C32.0184 129.966 32.0819 130.049 32.0721 130.054Z" fill="#FF9A6C"/>
</g>
</g>
<g id="Group_56">
<g id="Group_57">
<path id="Vector_22" d="M27.5776 132.692C27.5825 132.707 27.3873 132.716 27.1043 132.555C26.8212 132.404 26.4601 132.115 26.06 131.72C25.2548 130.929 24.2739 129.722 23.2686 128.34C22.2633 126.957 21.4093 125.663 20.8091 124.72C20.5114 124.246 20.2723 123.86 20.1161 123.587C19.96 123.313 19.8819 123.162 19.8965 123.152C19.9112 123.142 20.0185 123.279 20.1991 123.533C20.4089 123.836 20.6627 124.198 20.9555 124.618C21.5899 125.536 22.4683 126.811 23.4736 128.188C24.4788 129.566 25.4256 130.782 26.1868 131.593C26.5675 131.998 26.8993 132.301 27.1531 132.467C27.4068 132.648 27.5776 132.672 27.5776 132.692Z" fill="#FF9A6C"/>
</g>
</g>
<g id="Group_58">
<path id="Vector_23" d="M43.7939 126.728L38.8895 126.396L37.4255 122.371L37.1571 119.665C37.0253 118.341 35.9224 117.3 34.5951 117.32C34.5804 117.32 34.5658 117.32 34.5463 117.32L34.8195 123.948L35.8248 128.066L39.8118 130.42H44.6869L43.7939 126.728Z" fill="#FFBF9D"/>
</g>
<g id="Group_59">
<g id="Group_60">
<path id="Vector_24" d="M43.7939 126.728L38.8895 126.396L37.4255 122.371L37.1571 119.665C37.0253 118.341 35.9224 117.3 34.5951 117.32C34.5804 117.32 34.5658 117.32 34.5463 117.32L34.8195 123.948L35.8248 128.066L39.8118 130.42" fill="#FFBF9D"/>
</g>
<g id="Group_61">
<g id="Group_62">
<path id="Vector_25" d="M39.8069 130.425C39.802 130.435 39.7044 130.386 39.519 130.284C39.314 130.167 39.0456 130.02 38.7187 129.839C38.0013 129.424 37.0009 128.853 35.776 128.149L35.7419 128.13L35.7321 128.091C35.4344 126.908 35.088 125.516 34.7024 123.978L34.6976 123.968V123.958C34.6097 121.965 34.5121 119.709 34.4096 117.33L34.4048 117.203L34.5316 117.198C34.5756 117.198 34.6244 117.198 34.6732 117.198C35.9078 117.208 36.957 118.17 37.201 119.269C37.2693 119.547 37.284 119.821 37.3084 120.08C37.3328 120.344 37.3572 120.602 37.3864 120.861C37.4352 121.374 37.484 121.877 37.5328 122.361L37.528 122.332C38.0648 123.831 38.5528 125.184 38.9724 126.361L38.8944 126.303C40.3828 126.42 41.6028 126.518 42.4812 126.586C42.8813 126.625 43.2034 126.654 43.4572 126.679C43.6816 126.703 43.7939 126.718 43.7939 126.728C43.7939 126.738 43.6768 126.738 43.4523 126.733C43.2034 126.723 42.8764 126.708 42.4763 126.694C41.5979 126.645 40.3779 126.576 38.8846 126.493L38.826 126.488L38.8065 126.43C38.3722 125.257 37.8696 123.909 37.3181 122.415L37.3132 122.4V122.385C37.2644 121.897 37.2108 121.399 37.1571 120.886C37.1327 120.627 37.1034 120.368 37.079 120.109C37.0497 119.845 37.0351 119.582 36.9716 119.332C36.7472 118.331 35.7907 117.462 34.6829 117.457C34.639 117.457 34.5951 117.452 34.5512 117.457L34.6732 117.325C34.7659 119.709 34.8586 121.96 34.9367 123.953L34.9318 123.929C35.2978 125.472 35.6345 126.869 35.9176 128.051L35.8736 127.998C37.079 128.73 38.0648 129.326 38.7724 129.756C39.0944 129.956 39.3482 130.118 39.5483 130.245C39.724 130.352 39.8118 130.416 39.8069 130.425Z" fill="#FF9A6C"/>
</g>
</g>
</g>
</g>
<g id="Group_63">
<g id="Group_64">
<path id="Vector_26" d="M148.846 48.5104C144.639 32.4742 140.759 13.8101 117.335 15.4904C117.335 15.4904 102.9 18.2698 96.044 28.9329C92.0132 35.2047 88.5191 62.246 87.8212 83.6015C87.8212 83.6064 87.8212 83.6113 87.8212 83.6113C87.792 84.4807 88.1531 90.5425 88.1287 91.3924L150.134 96.5604H161.304C161.304 96.5604 160.602 85.2281 157.239 74.2426C153.97 63.5501 150.334 54.1863 148.846 48.5104Z" fill="#263238"/>
</g>
<g id="Group_65">
<path id="Vector_27" d="M114.222 21.601L115.686 20.204L131.522 26.5931C133.815 26.7201 135.626 28.5812 135.694 30.8769L135.553 82.5269C135.572 86.0291 134.869 89.0625 132.761 91.8565L130.536 94.797C125.466 101.499 115.032 100.947 111.016 93.5612C110.733 93.0434 110.543 92.5941 110.455 92.2277C110.372 91.7686 110.245 91.4657 110.22 91.0749C109.747 86.9181 109.723 83.3182 109.723 83.3182C109.44 78.7559 109.347 76.8851 109.347 76.9242C109.347 76.9242 99.6455 75.8105 97.0249 63.345C95.7219 57.1464 95.966 48.6179 96.332 40.2261C96.8443 28.6056 104.896 21.5864 114.222 21.601Z" fill="#FFBF9D"/>
</g>
<g id="Group_66">
<path id="Vector_28" d="M118.297 48.5056C118.311 49.3604 119.039 50.0491 119.932 50.054C120.82 50.0589 121.532 49.3701 121.518 48.5202C121.503 47.6703 120.771 46.9767 119.888 46.9718C118.995 46.962 118.287 47.6507 118.297 48.5056Z" fill="#263238"/>
</g>
<g id="Group_67">
<path id="Vector_29" d="M101.763 48.9353C101.778 49.7902 102.505 50.4789 103.398 50.4838C104.286 50.4887 104.999 49.7999 104.984 48.95C104.97 48.1001 104.238 47.4065 103.354 47.4016C102.461 47.3967 101.749 48.0854 101.763 48.9353Z" fill="#263238"/>
</g>
<g id="Group_68">
<path id="Vector_30" d="M97.996 43.5379C98.2059 43.7381 99.382 42.7758 101.114 42.6928C102.842 42.5853 104.159 43.4157 104.335 43.191C104.423 43.0933 104.199 42.7221 103.628 42.346C103.061 41.9699 102.115 41.628 101.036 41.6866C99.9578 41.7452 99.0696 42.1897 98.567 42.6244C98.0546 43.0592 97.8936 43.4499 97.996 43.5379Z" fill="#263238"/>
</g>
<g id="Group_69">
<path id="Vector_31" d="M115.174 42.9468C115.403 43.1227 116.477 42.0432 118.189 41.7843C119.897 41.501 121.293 42.1897 121.444 41.9504C121.523 41.8429 121.264 41.501 120.654 41.1835C120.054 40.8709 119.073 40.6266 118.009 40.7927C116.94 40.9637 116.106 41.4961 115.652 41.9797C115.188 42.4632 115.066 42.8687 115.174 42.9468Z" fill="#263238"/>
</g>
<g id="Group_70">
<path id="Vector_32" d="M109.523 56.3356C109.527 56.2379 108.439 56.106 106.682 55.9692C106.238 55.9448 105.814 55.8764 105.726 55.5785C105.604 55.2658 105.765 54.7774 105.955 54.2498C106.316 53.1557 106.697 52.0127 107.092 50.8111C108.669 45.9216 109.786 41.9064 109.586 41.8478C109.391 41.7843 107.951 45.7018 106.375 50.5913C105.999 51.7978 105.633 52.9457 105.292 54.0447C105.15 54.5576 104.891 55.1437 105.15 55.7934C105.287 56.1207 105.623 56.3405 105.911 56.404C106.199 56.4772 106.448 56.4675 106.668 56.4723C108.429 56.4821 109.518 56.4382 109.523 56.3356Z" fill="#263238"/>
</g>
<g id="Group_71">
<path id="Vector_33" d="M109.487 76.1624C109.487 76.1624 117.959 76.2845 126.069 70.8333C126.069 70.8333 122.278 79.7428 109.658 79.1958L109.487 76.1624Z" fill="#FF9A6C"/>
</g>
<g id="Group_72">
<path id="Vector_34" d="M114.935 59.8622C114.447 59.2712 113.671 58.9488 112.914 58.9048C111.826 58.8413 111.06 58.9781 110.474 59.8378C110.201 60.3116 110.225 61.0394 110.352 61.2397C110.479 61.44 110.386 61.4448 110.577 61.5865C111.279 62.0945 112.089 62.4218 112.929 62.6171C113.768 62.8125 114.734 62.6123 115.169 61.9284C115.559 61.3178 115.423 60.4533 114.935 59.8622Z" fill="#FF9A6C"/>
</g>
<g id="Group_73">
<path id="Vector_35" d="M135.382 52.9163C135.382 52.9163 128.716 54.5282 119.253 34.135C116.033 27.1939 109.776 20.1992 109.776 20.1992L115.647 19.3492C115.647 19.3492 133.142 24.2827 133.435 24.5025C133.727 24.7223 137.846 33.5586 137.846 33.5586L135.382 52.9163Z" fill="#263238"/>
</g>
<g id="Group_74">
<path id="Vector_36" d="M133.195 52.1006C133.152 51.1628 134.123 48.9061 135.035 48.7156C137.48 48.2076 141.936 48.1832 142.287 54.4452C142.77 63.008 134.084 61.7282 134.054 61.484C134.035 61.2935 133.352 55.3293 133.195 52.1006Z" fill="#FFBF9D"/>
</g>
<g id="Group_75">
<path id="Vector_37" d="M136.489 58.0891C136.524 58.0598 136.646 58.1868 136.904 58.2845C137.158 58.3822 137.583 58.4359 138.022 58.2454C138.905 57.8644 139.588 56.3844 139.539 54.836C139.515 54.0544 139.31 53.3217 139.003 52.7258C138.705 52.1152 138.276 51.7001 137.817 51.6463C137.358 51.5682 137.051 51.8564 136.963 52.1055C136.86 52.3497 136.924 52.5207 136.88 52.5353C136.855 52.5597 136.69 52.4034 136.738 52.0469C136.763 51.8759 136.851 51.6659 137.046 51.49C137.241 51.3093 137.539 51.2067 137.856 51.2262C138.52 51.236 139.144 51.8075 139.486 52.4669C139.862 53.1264 140.11 53.947 140.14 54.8262C140.184 56.5554 139.393 58.221 138.173 58.646C137.583 58.8365 137.07 58.6851 136.797 58.4946C136.514 58.2992 136.46 58.1087 136.489 58.0891Z" fill="#FF9A6C"/>
</g>
<g id="Group_76">
<g id="Group_77">
<path id="Vector_38" d="M116.037 60.2091C116.013 60.4289 114.549 60.3947 112.817 60.7317C111.079 61.0492 109.728 61.611 109.625 61.4156C109.518 61.2446 110.801 60.3263 112.675 59.9795C114.549 59.6229 116.076 60.0137 116.037 60.2091Z" fill="#263238"/>
</g>
</g>
</g>
<g id="Group_78">
<g id="Group_79">
<path id="Vector_39" d="M182.893 126.567C182.893 126.567 190.057 120.422 192.136 120.261C194.21 120.094 199.676 121.11 199.676 121.11C199.676 121.11 203.126 121.14 204.839 120.925C207.42 120.602 209.187 120.871 210.221 121.189C210.739 121.345 211.383 122.634 209.865 123.509C209.221 123.88 202.955 124.305 202.955 124.305L218.63 128.789L216.595 130.469C216.326 130.694 215.99 130.821 215.638 130.831L193.068 131.632L192.034 134.157L182.893 126.567Z" fill="#FFBF9D"/>
</g>
<g id="Group_80">
<path id="Vector_40" d="M200.003 126.571H207.323C207.323 126.571 209.89 123.157 210.822 121.736C211.632 120.49 212.613 120.129 213.467 120.422C213.686 120.5 213.872 120.666 213.984 120.866C214.155 121.169 214.16 121.54 213.999 121.843L210.778 127.856L212.466 127.285C212.466 127.285 215.848 123.973 216.502 123.206C217.156 122.439 219.562 119.215 221.694 121.565L218.742 124.847L221.694 122.771C221.694 122.771 224.042 120.749 225.301 123.152L216.526 130.557" fill="#FFBF9D"/>
</g>
<g id="Group_81">
<g id="Group_82">
<path id="Vector_41" d="M192.38 123.538C192.375 123.528 192.478 123.494 192.673 123.435C192.868 123.382 193.151 123.269 193.542 123.235C194.308 123.103 195.479 123.128 196.831 123.577C197.504 123.807 198.217 124.124 198.944 124.549C199.305 124.764 199.671 124.994 200.042 125.253C200.222 125.384 200.408 125.516 200.598 125.648C200.774 125.775 200.993 125.941 201.14 126.019C202.994 126.166 205.112 126.288 207.332 126.444L207.23 126.488C207.913 125.673 208.591 124.789 209.245 123.86C209.499 123.499 209.743 123.138 209.982 122.776C210.217 122.415 210.441 122.038 210.705 121.692C210.963 121.345 211.241 121.013 211.568 120.734C211.729 120.593 211.91 120.466 212.1 120.368C212.3 120.275 212.495 120.182 212.774 120.221L212.73 120.217C213.115 120.177 213.559 120.221 213.886 120.495C214.213 120.778 214.301 121.208 214.272 121.589V121.609L214.262 121.628C212.866 124.129 211.656 126.308 210.714 127.998L210.719 127.978C210.504 128.701 209.929 129.121 209.426 129.346C208.909 129.571 208.426 129.615 208.045 129.639C207.664 129.658 207.367 129.639 207.171 129.629C206.971 129.619 206.869 129.605 206.869 129.6C206.869 129.59 206.971 129.585 207.171 129.585C207.371 129.58 207.664 129.58 208.04 129.551C208.416 129.517 208.884 129.458 209.372 129.229C209.846 129.004 210.382 128.589 210.558 127.934L210.563 127.924L210.568 127.915C211.49 126.215 212.686 124.027 214.052 121.506L214.038 121.55C214.062 121.237 213.979 120.871 213.73 120.666C213.486 120.461 213.115 120.412 212.754 120.451H212.744L212.71 120.446C212.583 120.427 212.373 120.49 212.212 120.578C212.042 120.671 211.881 120.778 211.729 120.915C211.427 121.179 211.158 121.496 210.909 121.833C210.426 122.512 209.977 123.279 209.46 123.997C208.801 124.93 208.123 125.819 207.425 126.64L207.386 126.689L207.323 126.684C205.088 126.518 203.009 126.391 201.096 126.225C200.818 126.093 200.676 125.951 200.481 125.814C200.295 125.678 200.115 125.546 199.934 125.414C199.573 125.155 199.212 124.92 198.856 124.705C198.143 124.281 197.446 123.953 196.792 123.719C195.474 123.255 194.327 123.211 193.566 123.308C193.18 123.328 192.893 123.426 192.697 123.465C192.487 123.523 192.385 123.543 192.38 123.538Z" fill="#FF9A6C"/>
</g>
</g>
<g id="Group_83">
<g id="Group_84">
<path id="Vector_42" d="M221.689 121.574C221.704 121.584 221.602 121.731 221.401 121.975C221.206 122.224 220.913 122.576 220.552 123.01C219.825 123.88 218.81 125.062 217.678 126.361C216.526 127.641 215.565 128.892 214.721 129.663C214.306 130.054 213.94 130.337 213.667 130.503C213.393 130.67 213.223 130.723 213.218 130.714C213.208 130.694 213.364 130.611 213.613 130.425C213.862 130.24 214.203 129.937 214.599 129.536C215.399 128.745 216.326 127.49 217.483 126.2C218.62 124.901 219.659 123.729 220.421 122.893C220.801 122.473 221.114 122.136 221.333 121.911C221.548 121.682 221.68 121.565 221.689 121.574Z" fill="#FF9A6C"/>
</g>
</g>
<g id="Group_85">
<g id="Group_86">
<path id="Vector_43" d="M217.673 121.916C217.698 121.941 217.356 122.341 216.785 122.962C216.214 123.587 215.409 124.437 214.511 125.36C213.774 126.122 213.086 126.816 212.539 127.358L212.52 127.377L212.5 127.382C211.412 127.724 210.7 127.91 210.685 127.851C210.685 127.836 210.851 127.773 211.153 127.656C211.524 127.519 211.949 127.363 212.432 127.187L212.393 127.211C212.92 126.645 213.593 125.936 214.33 125.179C215.228 124.251 216.053 123.421 216.658 122.83C217.263 122.248 217.649 121.892 217.673 121.916Z" fill="#FF9A6C"/>
</g>
</g>
</g>
<g id="Group_87">
<g id="Group_88">
<path id="Vector_44" d="M158.606 90.1176C158.606 90.1176 169.127 92.8334 170.161 107.145C170.747 115.303 166.414 141.499 166.414 141.499L181.952 125.526L195.801 135.168C195.801 135.168 176.964 158.224 172.616 161.692C168.268 165.16 161.343 170.733 159.089 170.279C156.834 169.825 156.834 159.43 156.834 159.43V102.016L158.606 90.1176Z" fill="#407BFF"/>
</g>
<g id="Group_89">
<path id="Vector_45" d="M82.9656 91.8712C82.9656 91.8712 73.6058 94.9533 73.9864 113.251C74.3671 131.554 74.0694 137.713 74.0694 137.713L60.0394 122.854L48.386 135.72C48.386 135.72 61.4253 155.107 70.546 164.53C79.1446 173.41 86.7867 165.697 89.2706 159.455C91.2812 154.399 92.9013 135.173 92.9013 135.173L82.9656 91.8712Z" fill="#407BFF"/>
</g>
<g id="Group_90" opacity="0.3">
<g id="Group_91">
<path id="Vector_46" d="M159.421 123.089C160.265 117.735 160.489 111.898 158.049 106.979C152.052 121.824 152.32 138.861 154.467 154.585L159.221 168.188C162.217 159.074 159.367 149.363 159.435 139.838C159.474 134.431 158.576 128.447 159.421 123.089Z" fill="black"/>
</g>
</g>
<g id="Group_92">
<path id="Vector_47" d="M81.0185 103.526C81.0185 103.526 87.2747 145.651 88.4898 149.344C89.7 153.031 89.7 163.905 89.7 163.905C89.7 163.905 83.1315 176.141 82.7265 184.65L161.817 184.811L156.678 149.856C156.502 148.552 156.488 144.532 156.561 143.218C156.893 137.064 157.371 123.856 159.133 115.737C161.182 106.3 158.425 90.1518 158.425 90.1518L134.801 84.3293C129.209 92.3742 115.257 92.4817 109.757 84.3293L83.0925 91.876L81.0185 103.526Z" fill="#407BFF"/>
</g>
<g id="Group_93">
<g id="Group_94">
<path id="Vector_48" d="M158.23 148.181C158.215 148.171 158.303 148.039 158.464 147.805C158.63 147.57 158.879 147.243 159.191 146.847C159.826 146.056 160.728 144.962 161.905 143.936C163.085 142.91 164.33 142.207 165.252 141.782C165.716 141.572 166.101 141.421 166.37 141.328C166.638 141.235 166.789 141.191 166.794 141.206C166.848 141.303 164.398 142.095 162.066 144.122C160.904 145.128 159.992 146.193 159.323 146.955C158.669 147.727 158.259 148.205 158.23 148.181Z" fill="#263238"/>
</g>
</g>
<g id="Group_95">
<g id="Group_96">
<path id="Vector_49" d="M84.9908 147.287C84.942 147.302 84.7615 146.432 84.1612 145.143C83.5707 143.863 82.4971 142.178 80.8526 140.781C79.208 139.384 77.3683 138.592 76.0116 138.221C74.6452 137.84 73.7571 137.801 73.7668 137.752C73.7668 137.738 73.9913 137.733 74.3866 137.767C74.7867 137.796 75.3626 137.879 76.0604 138.05C77.4512 138.382 79.3349 139.159 81.0185 140.59C82.7021 142.017 83.7757 143.755 84.3272 145.074C84.6102 145.734 84.781 146.291 84.8786 146.681C84.9762 147.067 85.0055 147.287 84.9908 147.287Z" fill="#263238"/>
</g>
</g>
<g id="Group_97">
<g id="Group_98">
<path id="Vector_50" d="M85.4984 124.461C85.4886 124.476 85.3617 124.408 85.1421 124.266C84.9176 124.129 84.6102 123.914 84.2344 123.631C83.4829 123.069 82.502 122.224 81.5163 121.189C80.5354 120.148 79.7351 119.137 79.1739 118.385C78.6176 117.637 78.3004 117.154 78.3248 117.134C78.354 117.11 78.7249 117.554 79.3154 118.272C79.9108 118.991 80.7257 119.982 81.7017 121.008C82.6728 122.039 83.6293 122.893 84.3467 123.484C85.0592 124.085 85.5179 124.427 85.4984 124.461Z" fill="#263238"/>
</g>
</g>
<g id="Group_99">
<g id="Group_100">
<path id="Vector_51" d="M140.706 147.263C140.711 147.268 140.686 147.297 140.642 147.36C140.584 147.434 140.515 147.522 140.432 147.629C140.242 147.859 139.984 148.22 139.598 148.64C138.861 149.505 137.714 150.692 136.172 152.025C134.635 153.364 132.683 154.809 130.399 156.231C128.12 157.657 125.505 159.054 122.713 160.397C119.912 161.736 117.209 162.923 114.764 164.022C112.314 165.121 110.123 166.137 108.312 167.05C106.497 167.959 105.057 168.745 104.072 169.312C103.574 169.585 103.203 169.82 102.939 169.966C102.822 170.035 102.725 170.089 102.642 170.132C102.573 170.167 102.539 170.186 102.534 170.181C102.534 170.176 102.564 170.152 102.627 170.108C102.705 170.059 102.798 169.996 102.91 169.918C103.164 169.756 103.53 169.512 104.018 169.219C104.989 168.623 106.419 167.812 108.224 166.879C110.03 165.946 112.216 164.911 114.661 163.797C117.106 162.683 119.805 161.492 122.601 160.158C125.392 158.82 127.998 157.432 130.277 156.026C132.556 154.619 134.513 153.193 136.055 151.879C137.602 150.57 138.764 149.402 139.52 148.562C139.915 148.152 140.184 147.805 140.389 147.585C140.481 147.483 140.554 147.399 140.618 147.331C140.676 147.287 140.706 147.263 140.706 147.263Z" fill="#263238"/>
</g>
</g>
<g id="Group_101">
<g id="Group_102">
<path id="Vector_52" d="M82.9071 183.985C82.9022 183.985 82.9022 183.951 82.9071 183.883C82.912 183.804 82.9168 183.702 82.9217 183.575C82.9412 183.292 82.9656 182.896 82.9949 182.383C83.1364 181.352 83.3511 179.833 83.8879 177.982C84.9079 174.265 86.9184 169.141 89.9782 163.45L89.9635 163.514C89.6512 158.932 89.173 153.813 88.6264 148.425C87.5821 138.26 86.489 129.072 85.6887 122.424C85.2885 119.113 84.9615 116.426 84.7322 114.55C84.6248 113.632 84.537 112.914 84.4784 112.411C84.454 112.176 84.4345 111.991 84.4199 111.854C84.4052 111.727 84.4052 111.664 84.4101 111.664C84.415 111.664 84.4296 111.727 84.4492 111.849C84.4687 111.986 84.498 112.172 84.537 112.401C84.6102 112.904 84.7078 113.622 84.8395 114.536C85.0835 116.407 85.4398 119.088 85.8741 122.4C86.7184 129.043 87.8408 138.231 88.8851 148.401C89.4316 153.789 89.9001 158.908 90.1978 163.499V163.533L90.1832 163.563C87.1185 169.224 85.0835 174.323 84.0246 178.016C83.4731 179.858 83.234 181.367 83.073 182.393C83.0242 182.901 82.99 183.296 82.9608 183.575C82.9461 183.702 82.9363 183.8 82.9266 183.878C82.9168 183.951 82.912 183.985 82.9071 183.985Z" fill="#263238"/>
</g>
</g>
<g id="Group_103">
<g id="Group_104">
<path id="Vector_53" d="M160.104 104.508C160.109 104.508 160.114 104.576 160.114 104.718C160.114 104.869 160.114 105.069 160.114 105.328C160.109 105.866 160.123 106.662 160.07 107.683C160.011 109.729 159.801 112.684 159.44 116.328C159.084 119.972 158.552 124.295 158.02 129.102C157.488 133.908 156.956 139.198 156.785 144.776C156.605 150.355 157.151 155.659 157.864 160.436C158.567 165.219 159.396 169.497 160.035 173.097C160.689 176.697 161.173 179.618 161.441 181.65C161.587 182.661 161.67 183.453 161.729 183.99C161.753 184.249 161.778 184.449 161.792 184.601C161.807 184.737 161.812 184.811 161.807 184.811C161.802 184.811 161.787 184.742 161.768 184.606C161.748 184.459 161.719 184.259 161.68 184C161.607 183.467 161.504 182.681 161.343 181.67C161.041 179.648 160.533 176.732 159.86 173.136C159.196 169.541 158.347 165.262 157.63 160.476C156.903 155.694 156.346 150.369 156.527 144.776C156.698 139.188 157.234 133.889 157.781 129.082C158.327 124.276 158.874 119.953 159.255 116.319C159.64 112.68 159.879 109.729 159.962 107.688C160.026 106.667 160.031 105.87 160.05 105.333C160.06 105.074 160.07 104.869 160.075 104.723C160.094 104.581 160.099 104.508 160.104 104.508Z" fill="#263238"/>
</g>
</g>
<g id="Group_105" opacity="0.3">
<g id="Group_106">
<path id="Vector_54" d="M84.6395 113.534C83.2291 126.772 84.9176 140.883 89.2267 153.481L84.6395 113.534Z" fill="black"/>
</g>
</g>
<g id="Group_107" opacity="0.3">
<g id="Group_108">
<path id="Vector_55" d="M133.561 160.207C127.569 165.717 121.557 170.426 114.183 173.049C119.741 173.522 125.348 171.393 129.643 167.837C133.937 164.276 136.997 160.524 138.964 155.303L133.561 160.207Z" fill="black"/>
</g>
</g>
<g id="Group_109">
<g id="Group_110">
<path id="Vector_56" d="M126.734 166.274C126.686 166.22 130.414 162.796 135.06 158.629C139.705 154.458 143.512 151.121 143.556 151.175C143.605 151.229 139.876 154.648 135.23 158.82C130.585 162.991 126.783 166.327 126.734 166.274Z" fill="#263238"/>
</g>
</g>
</g>
<g id="Group_111">
<path id="Vector_57" d="M139.988 62.9005C139.988 64.5906 138.617 65.9631 136.929 65.9631C135.24 65.9631 133.869 64.5954 133.869 62.9005C133.869 61.2104 135.235 59.8378 136.929 59.8378C138.622 59.8378 139.988 61.2055 139.988 62.9005Z" fill="#455A64"/>
</g>
<g id="Group_112">
<g id="Group_113">
<path id="Vector_58" d="M158.196 103.12C157.293 95.6372 156.395 88.1588 155.492 80.6756L136.143 74.8287C135.767 88.193 133.43 103.203 130.072 116.143C137.202 118.458 144.82 119.249 152.276 118.458C152.608 114.844 152.935 111.229 153.267 107.614C153.75 110.34 154.233 113.066 154.716 115.786C156.746 114.648 157.942 112.377 158.352 110.086C158.752 107.79 158.474 105.436 158.196 103.12Z" fill="#263238"/>
</g>
<g id="Group_114">
<g id="Group_115">
<path id="Vector_59" d="M143.053 118.517C143.053 118.517 143.068 118.419 143.112 118.233C143.156 118.038 143.219 117.765 143.302 117.413C143.473 116.68 143.727 115.615 144.049 114.252C144.683 111.502 145.62 107.531 146.533 102.573C147.45 97.6204 148.343 91.6709 148.641 85.0132C148.933 78.3701 148.528 70.9845 146.689 63.516C144.878 56.0474 141.711 49.2969 137.719 43.9775C137.212 43.3181 136.733 42.6489 136.192 42.0481C135.66 41.4375 135.162 40.8074 134.611 40.2457C134.342 39.9575 134.074 39.6742 133.805 39.3909C133.532 39.1173 133.259 38.8438 132.986 38.5751C132.449 38.028 131.893 37.5249 131.356 37.0169C129.184 35.0045 127.061 33.2362 125.163 31.5755C123.265 29.9196 121.566 28.3858 120.166 26.9546C119.81 26.6029 119.488 26.2415 119.165 25.9044C118.843 25.5674 118.541 25.2352 118.268 24.908C117.989 24.5807 117.721 24.273 117.462 23.975C117.223 23.6673 116.994 23.3742 116.774 23.0958C116.325 22.5487 115.989 22.0212 115.676 21.5767C115.359 21.137 115.12 20.7414 114.935 20.419C114.749 20.1064 114.608 19.8622 114.505 19.6912C114.407 19.5251 114.364 19.4372 114.364 19.4372C114.364 19.4372 114.422 19.5154 114.525 19.6765C114.632 19.8475 114.783 20.082 114.978 20.3897C115.174 20.7072 115.418 21.0931 115.74 21.5278C116.057 21.9674 116.403 22.4901 116.857 23.0274C117.077 23.3009 117.311 23.594 117.55 23.8969C117.809 24.1899 118.077 24.4977 118.36 24.82C118.638 25.1473 118.941 25.4746 119.263 25.8067C119.585 26.1389 119.912 26.5004 120.268 26.8472C121.679 28.2686 123.377 29.7877 125.28 31.4338C127.183 33.0848 129.311 34.8433 131.497 36.8557C132.039 37.3637 132.6 37.8669 133.137 38.4139C133.41 38.6826 133.683 38.9561 133.962 39.2297C134.23 39.513 134.498 39.7963 134.772 40.0845C135.328 40.6462 135.831 41.2763 136.363 41.8918C136.909 42.4975 137.392 43.1667 137.9 43.831C141.926 49.1698 145.112 55.9546 146.933 63.4476C148.777 70.9455 149.177 78.3554 148.87 85.0132C148.563 91.6855 147.65 97.6448 146.708 102.598C145.771 107.556 144.81 111.527 144.146 114.267C143.809 115.635 143.541 116.7 143.356 117.418C143.263 117.769 143.19 118.043 143.141 118.233C143.087 118.424 143.053 118.517 143.053 118.517Z" fill="#455A64"/>
</g>
</g>
</g>
</g>
</g>
</g>
</svg>
