<svg width="131" height="183" viewBox="0 0 131 183" fill="none" xmlns="http://www.w3.org/2000/svg">
<path d="M45.7287 35.9308C45.7287 35.9308 48.6744 37.6835 53.602 36.3403C58.535 35.0026 60.8926 42.008 65.1069 38.71" stroke="#263238" stroke-width="0.708" stroke-miterlimit="10" stroke-linecap="round" stroke-linejoin="round"/>
<path d="M40.8828 20.6968C40.8828 20.6968 35.1439 18.6219 34.4252 25.0213C33.7065 31.4206 37.2021 34.1453 40.4799 33.9978" stroke="#263238" stroke-width="0.708" stroke-miterlimit="10" stroke-linecap="round" stroke-linejoin="round"/>
<path d="M39.5761 31.2841C41.7649 32.5236 39.5598 32.9386 42.3856 34.4838C45.2115 36.029 50.7598 39.3598 54.0485 35.2209C56.6729 31.9175 60.5986 36.7334 63.3701 37.2139C66.6043 37.7763 69.6697 35.139 69.9039 31.9448C69.9692 31.0275 69.9638 30.0774 70.3177 29.2311C70.6988 28.3083 71.4502 27.6313 72.256 27.0798C73.1544 26.4628 74.7661 25.9932 74.3795 24.5736C74.2271 24.0166 73.7915 23.5689 73.2906 23.274C72.4031 22.7608 71.3576 22.5424 70.3395 22.6789C68.4828 22.93 67.1433 24.3879 65.4064 22.7717C64.7422 22.1547 64.3066 21.3357 63.8165 20.5712C62.978 19.2608 61.6005 18.3653 60.016 18.3653C58.5459 18.3653 57.5876 19.1134 56.3571 19.7522C53.9505 21.0026 51.0266 19.9379 48.963 18.6765C45.5818 16.6017 42.9955 16.6945 40.371 18.7257C37.6486 20.8333 34.703 28.3029 37.6051 30.6781C37.7793 30.82 39.3855 31.1749 39.5761 31.2841Z" fill="#263238"/>
<path d="M39.8375 19.6921C39.8375 19.6921 42.5055 16.0065 47.1336 16.3177C51.7617 16.629 51.0648 20.6149 55.4206 17.9995C59.7711 15.3895 62.7494 16.6836 64.7041 19.6921" stroke="#263238" stroke-width="0.708" stroke-miterlimit="10" stroke-linecap="round" stroke-linejoin="round"/>
<path d="M56.0741 41.3036C56.0741 41.3036 65.5318 43.2037 67.1217 42.8925C68.7115 42.5813 78.8716 31.1749 78.8716 31.1749C78.8716 31.1749 79.6012 28.6414 80.1131 28.5595C80.6249 28.4776 87.0933 26.3536 87.1478 27.5712C87.2022 28.7834 85.9663 31.9721 85.6613 32.2834C85.351 32.5946 80.2165 33.4136 80.2165 33.4136C80.2165 33.4136 70.8677 45.6772 69.6372 46.5017C68.4066 47.3262 57.2066 46.5017 57.2066 46.5017L56.0741 41.3036Z" fill="#E4897B"/>
<path d="M36.2167 42.2645C34.3273 43.1928 27.6465 60.2941 27.6465 60.2941C27.6465 60.2941 15.548 71.3783 15.205 72.4321C14.8456 73.5241 16.0108 77.9414 16.2504 78.3291C16.4192 78.6021 19.305 78.897 19.305 78.5366C19.305 78.1598 17.9002 73.1856 17.9002 73.1856L31.0332 62.2543L37.6051 46.993L36.2167 42.2645Z" fill="#E4897B"/>
<path d="M36.2167 42.2645C34.5015 42.3792 26.8298 51.4977 26.8298 51.4977L32.4543 55.7676L36.2167 42.2645Z" fill="#407BFF"/>
<path opacity="0.5" d="M36.2167 42.2645C34.5015 42.3792 26.8298 51.4977 26.8298 51.4977L32.4543 55.7676L36.2167 42.2645Z" fill="white"/>
<path d="M30.6248 54.0312C28.8661 55.9532 37.5071 64.3073 48.9086 62.2488C60.3101 60.1903 65.1396 53.3487 65.1396 53.3487C65.1396 53.3487 44.0844 39.3214 30.6248 54.0312Z" fill="#407BFF"/>
<path opacity="0.6" d="M30.6248 54.0312C28.8661 55.9532 37.5071 64.3073 48.9086 62.2488C60.3101 60.1903 65.1396 53.3487 65.1396 53.3487C65.1396 53.3487 44.0844 39.3214 30.6248 54.0312Z" fill="white"/>
<path d="M16.7459 65.8798C18.1561 62.2597 24.1128 61.0421 30.4941 60.8401C31.7301 60.8018 32.7537 61.7847 32.7537 63.0187C31.6049 63.7558 30.7555 64.7004 30.309 65.8634C28.2073 71.2581 35.3673 79.1044 46.3114 83.3852C57.2501 87.666 67.8185 86.765 69.9203 81.3704C71.6354 76.9531 81.1747 82.7518 78.3543 89.9975C74.6137 99.6074 57.7946 101.999 40.7794 95.343C23.7697 88.6761 13.0053 75.4898 16.7459 65.8798Z" fill="#407BFF"/>
<path opacity="0.4" d="M40.7741 95.3322C57.7838 101.988 74.6138 99.5966 78.3489 89.9867C81.1639 82.741 71.63 76.9423 69.9149 81.3596C69.4139 82.6372 68.4502 83.6583 67.1162 84.4227C62.7985 86.8907 54.6639 86.645 46.306 83.3744C37.0171 79.7433 30.4561 73.5406 29.9715 68.4517C29.8844 67.5453 29.9878 66.6771 30.3036 65.8581C30.7556 64.7005 31.5995 63.7559 32.7484 63.0133C32.7484 61.7793 31.7247 60.7965 30.4888 60.8347C24.1074 61.0367 18.1507 62.2489 16.7351 65.8745C13.0108 75.4898 23.7644 88.6762 40.7741 95.3322Z" fill="white"/>
<path opacity="0.2" d="M28.7736 79.9072C28.7736 79.9072 28.1583 76.773 29.2854 75.2333C29.2854 75.2333 32.4162 81.72 42.7124 86.6614C53.0086 91.6084 60.0978 90.3798 61.4317 89.5499C61.4317 89.5499 61.5352 91.4009 60.4081 92.6403C60.4081 92.6403 66.8929 90.6747 67.1107 84.4282C62.793 86.8962 54.6584 86.6505 46.3005 83.3799C37.0116 79.7488 30.4506 73.5461 29.966 68.4572C23.6772 71.6732 28.7736 79.9072 28.7736 79.9072Z" fill="black"/>
<path d="M36.2166 91.8103C36.4453 93.2409 37.066 95.2666 37.9154 97.6036C40.7358 105.346 46.0173 116.376 47.4548 119.537C48.5819 122.027 53.5476 122.611 59.5913 123.676C71.2379 125.734 86.9081 128.825 86.9081 128.825L87.1477 125.117C87.1477 125.117 55.6928 115.699 55.279 113.94C54.6964 111.462 54.5276 99.8259 54.3371 90.0358C54.3098 88.9437 54.2881 87.8735 54.2717 86.8415C54.2336 85.1434 54.2064 83.5709 54.1792 82.2113C54.1193 79.0935 54.0812 77.0732 54.0812 77.0732L37.7466 63.9961C37.7412 64.0016 33.7991 76.6692 36.2166 91.8103Z" fill="#E4897B"/>
<path opacity="0.2" d="M37.9154 97.5982C40.7358 105.341 46.0173 116.37 47.4548 119.532C48.5819 122.022 53.5476 122.606 59.5913 123.671C71.2379 125.729 86.9081 128.82 86.9081 128.82L87.1477 125.112C87.1477 125.112 55.6928 115.693 55.279 113.935C54.6964 111.456 54.5276 99.8205 54.3371 90.0304L46.0772 85.7987L37.9154 97.5982Z" fill="black"/>
<path d="M55.0177 62.2489C55.0177 62.2489 61.3501 75.6373 59.1122 88.2722C56.8744 100.907 45.5981 109.234 43.7741 113.171C41.9501 117.107 29.5739 151.321 29.5739 151.321L26.8297 150.191C26.8297 150.191 34.4689 116.518 36.1186 108.464C36.8973 104.658 46.0773 85.8096 46.0773 85.8096C46.0773 85.8096 36.7012 75.7574 37.5125 62.4018L55.0177 62.2489Z" fill="#E4897B"/>
<path d="M57.2174 41.096C57.2174 41.096 45.7125 38.5516 36.2166 42.2645C36.2166 42.2645 35.5633 52.3222 37.6214 62.6256L55.2028 62.7511C55.2028 62.7511 54.25 57.9516 58.1539 48.6639L57.2174 41.096Z" fill="#407BFF"/>
<path d="M44.3567 43.8152C48.3968 42.816 49.4313 40.9159 49.4313 40.9159C47.5746 39.5235 47.6127 37.1538 47.8741 35.6413C48.0156 34.8059 48.228 34.238 48.228 34.238L43.3984 35.7287C43.6216 36.5313 43.7578 37.2138 43.8285 37.7926C43.9102 38.426 43.9102 38.9338 43.8612 39.3379C43.6924 40.8558 42.8539 40.9705 42.8539 40.9705C42.1733 42.7013 44.3567 43.8152 44.3567 43.8152Z" fill="#E4897B"/>
<path opacity="0.2" d="M43.8231 37.7927C43.9048 38.4261 43.9048 38.9339 43.8558 39.3379C45.7887 38.852 47.0955 37.1102 47.8741 35.6359C48.0157 34.8005 48.228 34.2327 48.228 34.2327L43.3985 35.7233C43.6162 36.5314 43.7524 37.2139 43.8231 37.7927Z" fill="black"/>
<path d="M42.8376 21.9089C38.5634 22.5587 37.5343 25.0649 37.8937 29.5314C38.3402 35.1117 40.1533 38.8464 45.3205 36.8535C52.3334 34.1452 49.9377 20.8224 42.8376 21.9089Z" fill="#E4897B"/>
<path d="M40.6161 28.8707C40.6161 28.8707 40.1913 30.0829 39.6414 30.8364C39.6414 30.8364 40.0933 31.366 40.8447 31.1476L40.6161 28.8707Z" fill="#DE5753"/>
<path d="M43.1807 28.1172C43.2242 28.4721 43.4529 28.7342 43.687 28.7015C43.9212 28.6687 44.0736 28.3629 44.0301 28.008C43.9865 27.6531 43.7578 27.391 43.5237 27.4238C43.2896 27.4565 43.1371 27.7678 43.1807 28.1172Z" fill="#263238"/>
<path d="M43.6271 27.4292L42.8212 27.2272C42.8212 27.2272 43.2841 27.8223 43.6271 27.4292Z" fill="#263238"/>
<path d="M38.7921 28.6087C38.8357 28.9636 39.0643 29.2257 39.2985 29.1929C39.5326 29.1602 39.6851 28.8544 39.6415 28.4995C39.5979 28.1446 39.3693 27.8825 39.1351 27.9152C38.901 27.9425 38.7431 28.2538 38.7921 28.6087Z" fill="#263238"/>
<path d="M39.2332 27.9207L38.4273 27.7186C38.4273 27.7186 38.8956 28.3138 39.2332 27.9207Z" fill="#263238"/>
<path d="M42.7777 25.1524C42.7777 25.1524 43.9538 24.8138 44.7324 25.5182" stroke="#263238" stroke-width="0.708" stroke-miterlimit="10" stroke-linecap="round" stroke-linejoin="round"/>
<path d="M39.6415 25.4472C39.6415 25.4472 38.8465 25.2834 37.9917 26.0587" stroke="#263238" stroke-width="0.708" stroke-miterlimit="10" stroke-linecap="round" stroke-linejoin="round"/>
<path d="M41.7595 32.1905C42.2169 32.5454 42.8811 33.3099 42.8811 33.3099C42.9628 33.2607 43.0391 33.2116 43.1207 33.1625C44.1879 32.4854 44.4602 31.8138 44.4384 31.2787C44.4275 30.9838 44.3186 30.7327 44.2097 30.5416C44.0845 30.3177 43.9429 30.1866 43.9429 30.1866C43.589 30.8855 42.6416 31.5954 42.1189 31.9557C41.9011 32.1086 41.7595 32.1905 41.7595 32.1905Z" fill="#263238"/>
<path d="M42.1188 31.9557L42.4564 32.2779C43.4637 31.6336 44.0844 31.0494 44.2042 30.5416C44.079 30.3177 43.9374 30.1866 43.9374 30.1866C43.5889 30.8855 42.6415 31.5954 42.1188 31.9557Z" fill="white"/>
<path d="M43.1207 33.1678C44.1879 32.4908 44.4602 31.8192 44.4384 31.2841C44.0845 31.5298 43.6816 31.8628 43.3984 32.2724C43.1806 32.5836 43.1207 32.8948 43.1207 33.1678Z" fill="#DE5753"/>
<path d="M48.6036 28.423C48.6036 28.423 46.0718 25.2069 45.9629 22.4386C45.9629 22.4386 36.9626 20.26 37.8555 28.9471C37.8555 28.9471 35.8681 21.4175 43.1915 20.1235C50.5039 18.8349 52.121 29.6187 48.8105 33.4081C48.8051 33.4081 50.1772 30.4323 48.6036 28.423Z" fill="#263238"/>
<path d="M48.0428 29.4331C47.9666 28.7396 48.5002 27.4619 49.8015 27.4073C51.1464 27.3527 52.1918 29.9791 48.9957 31.1421C48.5383 31.3059 48.2007 30.88 48.0428 29.4331Z" fill="#E4897B"/>
<path d="M47.1336 19.2116C47.1336 19.2116 44.52 17.7101 42.451 18.0486C40.3819 18.3871 39.8375 19.6921 39.8375 19.6921C39.8375 19.6921 38.7376 19.0041 37.2947 19.6921C35.8573 20.3801 34.2837 23.1593 34.4852 26.7139C34.6921 30.2685 37.5996 30.678 37.5996 30.678C37.5996 30.678 35.4435 24.8302 40.2349 22.9464C40.2349 22.9464 41.9664 21.8216 43.1534 23.1921C44.3458 24.5681 44.2151 28.7178 48.2171 27.2217C52.2299 25.7366 49.6981 20.806 47.1336 19.2116Z" fill="#263238"/>
<path d="M49.4313 27.2272L45.021 25.9386C45.021 25.9386 43.0281 25.7421 41.1061 26.572C41.1061 26.572 40.4908 26.5338 40.1696 26.714C40.1696 26.714 38.5144 26.5283 37.164 27.1344V27.5603L37.3655 27.7678C37.3655 27.7678 37.5343 29.5751 38.204 29.7662C38.5525 29.8645 39.2821 29.7772 39.6414 29.4004C40.2349 28.7779 40.4201 27.4184 40.4201 27.4184C40.4201 27.4184 40.5289 27.1453 41.0789 27.3911C41.0789 27.3911 41.2858 29.3731 42.99 29.2857C45.1462 29.1765 44.8522 26.856 44.8522 26.856L45.1734 26.7085L49.0501 27.4184L49.4313 27.2272Z" fill="#263238"/>
<path d="M46.0772 85.8041C46.0772 85.8041 51.4458 75.812 59.5913 77.461C59.5913 77.461 59.5913 69.7675 55.2028 62.7512L37.6214 62.6256C37.6214 62.6256 35.3726 70.865 35.4325 77.7394L46.0772 85.8041Z" fill="#407BFF"/>
<path d="M16.0055 55.238C16.0055 55.238 13.6805 52.153 14.6007 47.8285C15.5263 43.5041 19.4793 43.4003 22.3051 46.4908C25.523 50.0126 23.2308 54.9377 23.6391 56.7669C24.0148 58.4486 27.4451 57.7169 27.995 57.5914C35.1604 55.9096 44.7107 56.7778 54.3208 60.5399C71.3305 67.2013 82.0895 80.3876 78.3489 89.9976C76.7699 94.0545 72.8551 96.8283 67.579 98.1715C62.107 99.5638 63.1197 94.3002 64.7858 90.0194C66.8875 84.6248 59.7276 76.7785 48.7834 72.4977C37.8447 68.2169 27.2763 69.1178 25.1746 74.5125C24.0366 77.4446 23.0184 84.2425 20.8786 81.5998C17.6498 77.6029 15.8857 73.4095 16.0055 69.5437C12.6079 64.6132 16.0055 55.238 16.0055 55.238Z" fill="#407BFF"/>
<path opacity="0.4" d="M16.0108 69.5328C15.8911 73.4041 17.6552 77.5975 20.884 81.5943C23.0238 84.2425 24.042 77.4446 25.1854 74.507C27.2817 69.1124 37.8501 68.2114 48.7943 72.4922C59.7384 76.773 66.8984 84.6138 64.7912 90.0085C63.1305 94.2948 62.1123 99.5584 67.5844 98.166C72.8605 96.8228 76.7753 94.0545 78.3543 89.9976C82.0949 80.3822 71.3359 67.2013 54.3208 60.5399C44.7161 56.7778 35.1658 55.9096 28.0004 57.5914C27.4559 57.7224 24.0202 58.4541 23.6445 56.7669C23.2362 54.9377 25.5284 50.0181 22.3105 46.4908C19.4846 43.4003 15.5317 43.5041 14.6115 47.8285C14.1051 50.1819 14.568 52.1694 15.0907 53.4908C15.5317 54.5992 16.0163 55.238 16.0163 55.238C16.0163 55.238 12.6024 64.6132 16.0108 69.5328Z" fill="white"/>
<path d="M16.8493 45.7373C16.8493 45.7373 13.2993 44.8527 12.4553 44.3449C11.6114 43.8317 11.6822 48.1125 14.9327 49.6741C14.9327 49.6741 15.4772 48.9588 17.2523 49.4011C19.0273 49.8379 18.6679 46.5454 16.8493 45.7373Z" fill="#407BFF"/>
<path opacity="0.2" d="M16.0108 69.5328C21.178 71.5203 24.1237 65.6506 24.1237 65.6506C24.1237 65.6506 21.8205 69.1506 18.412 67.0921C14.7694 64.8971 16.4519 55.7622 16.4519 55.7622C16.4519 55.7622 17.4755 56.3683 18.8476 55.2435C20.0781 54.2333 17.2087 52.9174 15.0852 53.4962C15.5262 54.6046 16.0108 55.2435 16.0108 55.2435C16.0108 55.2435 12.6024 64.6132 16.0108 69.5328Z" fill="black"/>
<path d="M20.1816 47.015C20.2034 47.3262 20.4048 47.5665 20.6335 47.5555C20.8622 47.5392 21.0364 47.2771 21.0146 46.9658C20.9929 46.6546 20.7914 46.4144 20.5627 46.4253C20.334 46.4362 20.1653 46.6983 20.1816 47.015Z" fill="#263238"/>
<path d="M85.242 124.391C84.8663 124.44 85.6831 129.043 85.6831 129.043C85.6831 129.043 88.8955 131.566 89.8538 134.263C90.8121 136.961 92.2986 135.224 91.9501 132.128C91.6016 129.032 91.3348 126.674 91.0898 124.473C90.8393 122.273 89.1297 123.862 85.242 124.391Z" fill="#263238"/>
<path d="M86.3364 129.491C86.3255 129.475 86.3146 129.464 86.3037 129.458C86.2929 129.453 86.282 129.447 86.2656 129.442C86.2547 129.437 86.2384 129.437 86.2275 129.437C86.2112 129.437 86.1949 129.442 86.1785 129.447C86.1241 129.475 85.1004 129.983 84.9099 130.638C84.85 130.845 84.8772 131.047 84.9915 131.233C85.1168 131.435 85.2583 131.522 85.4162 131.495C85.6558 131.451 85.8627 131.096 86.0206 130.698C86.0261 131.091 86.0805 131.495 86.2493 131.724C86.3364 131.844 86.4508 131.915 86.5923 131.937C86.8755 131.976 87.0061 131.866 87.0715 131.768C87.1368 131.664 87.1531 131.517 87.1368 131.348C87.066 130.698 86.478 129.72 86.3364 129.491ZM86.3037 129.922C86.6686 130.572 87.017 131.391 86.8646 131.632C86.8537 131.653 86.8101 131.713 86.625 131.692C86.5542 131.681 86.4998 131.642 86.4508 131.577C86.3636 131.457 86.3146 131.266 86.2874 131.042C86.2493 130.681 86.2711 130.25 86.3037 129.922ZM85.144 130.703C85.2529 130.321 85.7484 129.977 86.0478 129.797C85.8627 130.512 85.5796 131.217 85.3727 131.249C85.3073 131.26 85.2366 131.162 85.1984 131.102C85.1549 131.036 85.1331 130.965 85.1222 130.894C85.1222 130.834 85.1277 130.769 85.144 130.703Z" fill="#407BFF"/>
<path d="M30.859 150.142C31.0005 149.787 26.6065 148.236 26.6065 148.236C26.6065 148.236 22.8333 149.792 20.0237 149.306C17.2142 148.815 17.9873 150.966 20.8404 152.184C23.6935 153.407 25.8769 154.335 27.9024 155.203C29.9333 156.066 29.4052 153.794 30.859 150.142Z" fill="#263238"/>
<path d="M25.8932 148.58C25.9096 148.58 25.9259 148.574 25.9422 148.569C25.9531 148.564 25.964 148.558 25.9749 148.547C25.9858 148.536 25.9912 148.525 25.9967 148.514C26.0021 148.498 26.0076 148.482 26.0076 148.465C26.013 148.405 26.0729 147.259 25.5992 146.773C25.4468 146.62 25.2616 146.543 25.0384 146.549C24.8043 146.56 24.6573 146.642 24.6028 146.789C24.5211 147.018 24.728 147.379 24.9948 147.712C24.6464 147.521 24.2761 147.373 23.993 147.406C23.8405 147.422 23.7262 147.488 23.6391 147.597C23.4648 147.821 23.4921 147.996 23.5465 148.099C23.6064 148.209 23.7262 148.296 23.8786 148.362C24.4885 148.624 25.621 148.591 25.8932 148.58ZM25.5339 148.345C24.7879 148.345 23.9059 148.247 23.7752 147.99C23.7643 147.968 23.7316 147.903 23.8405 147.75C23.8841 147.695 23.944 147.663 24.0257 147.652C24.1727 147.635 24.3632 147.684 24.5701 147.772C24.9023 147.914 25.2616 148.149 25.5339 148.345ZM25.425 146.947C25.7027 147.231 25.7571 147.832 25.768 148.181C25.2398 147.668 24.7662 147.073 24.8369 146.876C24.8587 146.816 24.9785 146.8 25.0493 146.8C25.1309 146.794 25.2017 146.811 25.2671 146.838C25.327 146.86 25.376 146.898 25.425 146.947Z" fill="#407BFF"/>
<path d="M47.4385 41.8169C47.4385 41.8169 47.4439 49.8597 54.1357 54.7138C60.8274 59.568 69.8658 59.5734 71.7116 63.4884C71.7116 63.4884 71.8151 58.3776 70.3776 54.0313C68.9402 49.685 58.1485 45.9666 58.1485 45.9666L57.2174 41.1016C57.2174 41.0961 51.0974 38.4862 47.4385 41.8169Z" fill="#407BFF"/>
<path d="M42.1189 40.9924C42.1189 40.9924 38.0625 50.8753 35.3237 52.5953C32.5795 54.3152 30.6303 54.0258 30.6303 54.0258C30.6303 54.0258 32.3617 46.2724 36.2221 42.2591C36.2167 42.2646 40.4637 39.7256 42.1189 40.9924Z" fill="#407BFF"/>
<path opacity="0.7" d="M47.433 41.8169C47.433 41.8169 47.4439 49.8652 54.1302 54.7138C60.8219 59.5679 69.8603 59.5789 71.7061 63.4829C71.7061 63.4829 71.8096 58.3722 70.3721 54.0258C69.991 52.8737 68.9619 51.7653 67.6388 50.7607C66.0653 49.5649 64.0833 48.5001 62.341 47.6866C60.0378 46.6164 58.143 45.9557 58.143 45.9557L57.2065 41.0906C57.2174 41.0961 51.1028 38.4916 47.433 41.8169Z" fill="white"/>
<path opacity="0.7" d="M42.1189 40.9924C42.1189 40.9924 38.0625 50.8753 35.3237 52.5953C32.5795 54.3152 30.6303 54.0258 30.6303 54.0258C30.6303 54.0258 32.3617 46.2724 36.2221 42.2591C36.2167 42.2646 40.4637 39.7256 42.1189 40.9924Z" fill="white"/>
<path d="M50.3133 39.0266L47.4385 41.8168L50.3133 45.1857L52.1265 39.9658L50.3133 39.0266Z" fill="#407BFF"/>
<path opacity="0.5" d="M50.3133 39.0266L47.4385 41.8168L50.3133 45.1857L52.1265 39.9658L50.3133 39.0266Z" fill="white"/>
<path d="M42.3966 39.3434L40.2459 40.2443L37.9917 43.2583L42.1189 40.9924L42.3966 39.3434Z" fill="#407BFF"/>
<path opacity="0.5" d="M42.3966 39.3434L40.2459 40.2443L37.9917 43.2583L42.1189 40.9924L42.3966 39.3434Z" fill="white"/>
<path opacity="0.2" d="M59.0197 49.0134C59.0197 49.0134 63.0815 52.699 67.6443 50.7606C66.0707 49.5648 64.0888 48.5001 62.3464 47.6865C60.6858 47.9213 59.3246 48.3636 59.0197 49.0134Z" fill="black"/>
<path d="M56.2155 40.7412C56.2155 40.7412 56.2155 45.1804 59.0196 49.0134L66.6914 49.2427L66.6587 42.1063L56.2155 40.7412Z" fill="#407BFF"/>
<path opacity="0.5" d="M56.2155 40.7412C56.2155 40.7412 56.2155 45.1804 59.0196 49.0134L66.6914 49.2427L66.6587 42.1063L56.2155 40.7412Z" fill="white"/>
<path d="M104.266 10.6443C104.266 10.6443 104.92 14.6193 100.346 17.6279C95.7722 20.6364 90.4853 17.9063 89.6141 15.5366L104.266 10.6443Z" fill="#407BFF"/>
<path opacity="0.2" d="M104.266 10.6443C104.266 10.6443 104.92 14.6193 100.346 17.6279C95.7722 20.6364 90.4853 17.9063 89.6141 15.5366L104.266 10.6443Z" fill="black"/>
<path d="M105.687 3C100.705 3 95.1352 4.55069 90.5561 6.53274C87.3 7.94147 84.2291 9.93991 81.8824 12.6263C79.6881 15.138 77.581 19.4734 79.4213 22.7441C81.2998 26.0912 86.4996 22.8642 88.5687 21.4773C96.235 16.3611 104.451 13.4781 114.105 11.0046C115.521 10.6443 118.826 9.8034 118.521 7.73398C118.232 5.80654 115.123 4.76364 113.61 4.25585C111.029 3.38768 108.361 3 105.687 3Z" fill="#407BFF"/>
<path opacity="0.2" d="M104.266 7.29717C105.709 5.2496 98.2932 4.2067 93.1587 7.29717C88.0242 10.3876 87.4579 12.3424 88.7429 13.1669C89.6413 13.7457 100.275 12.9648 104.266 7.29717Z" fill="black"/>
</svg>
