<svg width="400" viewBox="0 0 400 400" fill="none" xmlns="http://www.w3.org/2000/svg">
<g clip-path="url(#clip0_44918_106554)">
<path d="M200 400C310.457 400 400 394.627 400 388C400 381.373 310.457 376 200 376C89.5431 376 0 381.373 0 388C0 394.627 89.5431 400 200 400Z" fill="#F5F5F5"/>
<path d="M78.9996 82C72.8712 83.3956 65.9483 92.0446 72.9996 101C80.051 109.955 67.8247 106.331 65.9996 122C64.1746 137.68 78.3964 134.723 73.9996 145C69.6029 155.277 99.9507 172.339 119 160C138.049 147.661 139.952 120.389 134 111C128.047 101.611 119.07 101.055 123 91C126.93 80.9345 122.288 71.0952 110 71C100.729 70.926 106.754 63.9471 93.9996 64C83.3708 64.0529 73.7837 71.4587 78.9996 82Z" fill="#263238"/>
<path d="M113 95C111.343 95 110 96.3328 110 98C110 99.6672 111.343 101 113 101C114.657 101 116 99.6569 116 98C116 96.3431 114.657 95 113 95ZM113 100C111.734 100 111 99.2659 111 98C111 96.7341 111.734 96 113 96C114.266 96 115 96.7238 115 98C115 99.2762 114.276 100 113 100Z" fill="white"/>
<path d="M137.999 125C137.999 125 138.02 125 137.999 125C137.856 124.968 136.979 125.136 136.999 125C137.923 120.097 134.938 115.029 130.999 110C126.404 104.129 121.163 97.9219 122.999 89.9997C124.569 83.2453 123.841 77.4926 120.999 73.9997C118.681 71.138 114.81 69.7472 109.999 69.9997C105.588 70.2312 104.384 68.3043 102.999 66.9997C101.502 65.6004 99.3286 64.9576 92.9994 64.9997C92.8558 64.9997 92.9994 64.147 92.9994 63.9997C92.8558 63.9997 92.9994 63.8524 92.9994 63.9997C92.9276 63.9997 93.0712 63.9997 92.9994 63.9997C99.3799 63.9997 101.461 65.5478 102.999 66.9997C104.364 68.2727 105.804 69.2312 109.999 68.9997C114.975 68.7367 118.568 70.0013 120.999 72.9997C123.943 76.6189 124.61 83.077 122.999 89.9997C121.225 97.6694 126.25 103.95 130.999 110C135.021 115.123 138.964 119.866 137.999 125C138.122 125 137.979 125.126 137.999 125Z" fill="#263238"/>
<path d="M163 105L161 108C160.494 109.056 160.494 109.932 161 111L164 116C164.942 117.984 165.966 119.687 168 120H170C172.51 115.482 172 109 172 109V107C172.089 105.242 170.567 103.118 169 103H166C164.759 102.903 163.595 103.727 163 105Z" fill="#FFC3BD"/>
<path d="M132 124C131.948 123.916 131.948 123.958 132 124V125C132.353 125.462 133.606 126.548 134 127C134.788 127.903 135.119 128.149 136 129C137.752 130.702 139.978 132.655 142 134C146.033 136.71 150.313 138.243 155 139H156C156 139 156.031 138.979 156 139C155.762 139.021 156.093 139.905 156 140C155.803 140.189 155.544 139.693 156 139C156.985 137.613 158.326 135.406 159 133C159.664 130.541 159.647 127.668 160 125C160.187 123.665 160.876 122.355 161 121C161.114 119.676 160.99 118.208 161 117L173 118C172.844 119.649 173.166 120.476 173 122C172.824 123.502 172.207 125.497 172 127C171.544 129.994 170.778 132.921 170 136C169.616 137.544 169.57 138.403 169 140C168.409 141.597 167.037 143.266 166 145C164.942 146.702 163.706 149.455 161 151C159.652 151.746 158.649 151.926 157 152C156.616 152.01 155.301 152.01 155 152H154C150.734 151.695 147.142 150.935 144 150C140.879 149.023 137.882 147.492 135 146C132.107 144.529 129.623 142.901 127 141C125.683 140.044 124.244 139.082 123 138C122.378 137.464 121.622 136.577 121 136H120V135C119.824 134.811 119.27 134.325 119 134L132 124Z" fill="#407BFF"/>
<g opacity="0.5">
<path d="M132 124C131.948 123.916 131.948 123.958 132 124V125C132.353 125.462 133.606 126.548 134 127C134.788 127.903 135.119 128.149 136 129C137.752 130.702 139.978 132.655 142 134C146.033 136.71 150.313 138.243 155 139H156C156 139 156.031 138.979 156 139C155.762 139.021 156.093 139.905 156 140C155.803 140.189 155.544 139.693 156 139C156.985 137.613 158.326 135.406 159 133C159.664 130.541 159.647 127.668 160 125C160.187 123.665 160.876 122.355 161 121C161.114 119.676 160.99 118.208 161 117L173 118C172.844 119.649 173.166 120.476 173 122C172.824 123.502 172.207 125.497 172 127C171.544 129.994 170.778 132.921 170 136C169.616 137.544 169.57 138.403 169 140C168.409 141.597 167.037 143.266 166 145C164.942 146.702 163.706 149.455 161 151C159.652 151.746 158.649 151.926 157 152C156.616 152.01 155.301 152.01 155 152H154C150.734 151.695 147.142 150.935 144 150C140.879 149.023 137.882 147.492 135 146C132.107 144.529 129.623 142.901 127 141C125.683 140.044 124.244 139.082 123 138C122.378 137.464 121.622 136.577 121 136H120V135C119.824 134.811 119.27 134.325 119 134L132 124Z" fill="white"/>
</g>
<path d="M107 380C105.474 376.504 106.791 362.405 107 360C104.355 358.588 95 360 95 360C95 360 97.5261 375.189 96 380C99.5017 381.978 107 380 107 380Z" fill="#FFC3BD"/>
<path d="M218 366C215.204 363.556 209.827 350.251 209 348C206.082 347.925 199 353 199 353C199 353 207.316 365.996 208 371C211.908 371.202 218 366 218 366Z" fill="#FFC3BD"/>
<path d="M115.999 388C108.522 388 107.213 388.155 102.999 388C99.3988 387.856 98.8936 388.066 95.999 388C93.5852 387.944 93.2524 385.878 93.999 383C94.265 381.97 94.6206 380.45 94.999 379C95.2956 377.881 96.9251 377 97.999 377H105.999C106.756 377 107.518 377.369 107.999 378C109.983 380.668 114.256 382.457 117.999 383C122.019 383.586 118.986 388 115.999 388Z" fill="#407BFF"/>
<path d="M233 372C224.829 375.649 220.101 373.077 216 374C212.48 374.789 212.509 376.005 209 377C206.674 377.656 205.802 375.152 206 373C206.124 371.606 206.031 369.691 206 368C205.989 367.374 206.429 367.256 207 367L215 363C215.54 362.764 216.532 362.641 217 363C220.239 365.552 227.016 368.66 232 367C235.862 365.729 235.72 370.79 233 372Z" fill="#407BFF"/>
<path d="M144 183C144 183 162.461 227.895 173 261C185.873 290.939 212 354 212 354C212.498 355.598 204.774 358.296 203 358C203 358 168.869 316.333 155 269C118.954 222.852 108 186 108 186L144 183Z" fill="#263238"/>
<g opacity="0.2">
<path d="M128 207C133.336 212.925 137.082 233.535 139 247C131.452 235.744 125.55 225.824 121 217C121.535 211.966 123.733 207.881 128 207Z" fill="black"/>
</g>
<path d="M133 184C133 184 134.291 246.321 129 277C123.45 309.222 105.783 347.846 107 369C105.236 370.057 99.4759 370.12 95.9997 369C95.9997 369 90.1546 306.647 108 276C104.142 245.321 93.8502 204.986 103 186L133 184Z" fill="#263238"/>
<path d="M107.999 364C108.029 365.105 107.727 367.533 107.999 369C108.09 369.525 107.494 369.912 106.999 370C102.89 370.711 96.8874 369.372 94.9992 369C94.6357 368.934 95.0598 368.394 94.9992 368L93.9992 364C93.9184 363.419 94.464 362.989 94.9992 363H106.999C107.464 363 107.979 363.507 107.999 364Z" fill="#263238"/>
<g opacity="0.1">
<path d="M107.999 364C108.029 365.105 107.727 367.533 107.999 369C108.09 369.525 107.494 369.912 106.999 370C102.89 370.711 96.8874 369.372 94.9992 369C94.6357 368.934 95.0598 368.394 94.9992 368L93.9992 364C93.9184 363.419 94.464 362.989 94.9992 363H106.999C107.464 363 107.979 363.507 107.999 364Z" fill="white"/>
</g>
<path d="M210 348C210.5 348.968 211.28 350.746 212 352C212.24 352.417 212.4 353.745 212 354C209.001 355.885 203.759 357.398 202 358C201.65 358.122 201.22 358.305 201 358L198 354C197.67 353.562 197.51 353.234 198 353L209 348C209.41 347.796 209.78 347.582 210 348Z" fill="#263238"/>
<g opacity="0.1">
<path d="M210 348C210.5 348.968 211.28 350.746 212 352C212.24 352.417 212.4 353.745 212 354C209.001 355.885 203.759 357.398 202 358C201.65 358.122 201.22 358.305 201 358L198 354C197.67 353.562 197.51 353.234 198 353L209 348C209.41 347.796 209.78 347.582 210 348Z" fill="white"/>
</g>
<path d="M136 129C137.019 132.969 138.024 137.403 140 147C141.82 155.076 143.615 169.5 144 182C138.655 186.835 120.822 185.844 103 185C102.948 173.229 97.9559 163.101 85 139C81.995 133.415 85.1979 125.984 91 124C92.5493 123.472 93.2947 123.485 95 123C101.644 121.121 107.917 119.823 114 119C116.017 118.725 117.972 118.169 120 118C127.289 117.366 134.18 121.884 136 129Z" fill="#407BFF"/>
<g opacity="0.5">
<path d="M136 129C137.019 132.969 138.024 137.403 140 147C141.82 155.076 143.615 169.5 144 182C138.655 186.835 120.822 185.844 103 185C102.948 173.229 97.9559 163.101 85 139C81.995 133.415 85.1979 125.984 91 124C92.5493 123.472 93.2947 123.485 95 123C101.644 121.121 107.917 119.823 114 119C116.017 118.725 117.972 118.169 120 118C127.289 117.366 134.18 121.884 136 129Z" fill="white"/>
</g>
<path d="M114 119L96 123C96 123 110.246 129.29 122 139C125.206 122.402 114 119 114 119Z" fill="white"/>
<path d="M92 102C94.9207 107.67 98.9207 118.07 96 123C96 123 113.134 128.16 122 136C123.179 123.317 115 119 115 119C107.98 118.946 106.24 113.886 106 109L92 102Z" fill="#FFC3BD"/>
<path d="M107.999 125C102.655 125 96.3162 124.063 95.9994 124C95.8621 123.968 95.9677 123.148 95.9994 123C95.8621 122.968 96.031 122.862 95.9994 123C96.0944 123.021 106.201 125.328 111.999 124C113.848 123.575 114.714 122.924 114.999 122C115.38 120.756 115.01 119.01 114.999 119C114.894 119.095 114.904 118.893 114.999 119C114.904 118.893 115.105 118.904 114.999 119C115.063 119.063 116.464 120.469 115.999 122C115.661 123.115 114.048 124.532 111.999 125C110.595 125.318 109.657 125 107.999 125Z" fill="white"/>
<path d="M114.999 125C114.49 125.363 113.387 125.476 112.999 125L111.999 124C111.611 123.523 111.49 122.351 111.999 122C112.508 121.637 113.611 121.523 113.999 122L114.999 123C115.387 123.476 115.508 124.648 114.999 125Z" fill="#407BFF"/>
<g opacity="0.2">
<path d="M96.9997 105L106 109C106.053 110.068 105.742 110.99 106 112C103.318 112.198 99.083 110.384 97.9997 108C97.4634 106.812 96.9783 105.613 96.9997 105Z" fill="black"/>
</g>
<path d="M82.9998 93.9997C87.2265 102.967 89.5312 105.923 95.9998 109C105.739 113.63 115.501 107.912 114 97.9997C112.653 89.0743 105.345 75.4932 94.9998 74.9997C84.7981 74.5061 78.7628 85.0323 82.9998 93.9997Z" fill="#FFC3BD"/>
<path d="M87 80.9997C91.4948 87.7143 91.2992 98.5087 86 99.9997C77.9255 98.6885 76 95.9997 76 95.9997C76 95.9997 78.7746 76.0086 87 80.9997Z" fill="#263238"/>
<path d="M81 82.9997C93.3443 84.5535 103.163 78.8501 105 75.9997C93.8243 68.5493 82.2209 75.5082 81 82.9997Z" fill="#263238"/>
<path d="M106 88.9997C106 88.9997 108.809 91.9919 111 92.9997C110.371 94.2012 108 93.9997 108 93.9997L106 88.9997Z" fill="#ED847E"/>
<path d="M104.999 98.9997C105.449 98.9067 106.516 98.1989 106.999 97.9997C107.054 98.1591 107.131 97.9465 106.999 97.9997C106.944 97.8403 107.142 97.9465 106.999 97.9997C103.487 99.4873 100.021 97.0129 99.9992 96.9997C99.8785 96.8934 100.076 96.8668 99.9992 96.9997C99.9224 97.1325 99.8895 97.8934 99.9992 97.9997C100.098 98.0926 101.937 99.5841 104.999 98.9997Z" fill="#263238"/>
<path d="M82.9994 103C84.8654 104.15 87.5849 104.542 88.9994 104C91.1162 103.17 89.9958 99.8132 87.9994 97.9997C86.1936 96.3631 83.4541 95.1862 81.9994 96.9997C80.5748 98.78 80.8626 101.684 82.9994 103Z" fill="#FFC3BD"/>
<path d="M88 104C86.3431 104 85 105.332 85 107C85 108.667 86.3431 110 88 110C89.6569 110 91 108.657 91 107C91 105.343 89.6569 104 88 104ZM88 109C86.7341 109 86 108.266 86 107C86 105.734 86.7341 105 88 105C89.2659 105 90 105.724 90 107C90 108.276 89.2762 109 88 109Z" fill="white"/>
<path d="M94.9995 87.9997C94.98 88.1338 95.0972 87.9274 94.9995 87.9997C95.2729 85.977 96.98 85.01 96.9995 84.9997C97.2241 84.8965 97.1167 84.237 96.9995 83.9997C96.8921 83.7623 96.2241 83.8965 95.9995 83.9997C95.9214 84.0306 94.3315 84.4816 93.9995 86.9997C93.9702 87.2473 93.7456 87.9481 93.9995 87.9997C94.1264 88.0203 94.9116 88.0719 94.9995 87.9997Z" fill="#263238"/>
<path d="M109.999 81.9997C109.925 82.0939 110.116 81.9892 109.999 81.9997C110.159 81.8008 110.223 81.1672 109.999 80.9997C107.756 79.3249 105.095 79.9683 104.999 79.9997C104.744 80.0834 104.893 80.7484 104.999 80.9997C105.095 81.2509 105.744 81.0729 105.999 80.9997C106.084 80.9787 107.223 80.6703 108.999 81.9997C109.116 82.0834 109.872 82.0101 109.999 81.9997Z" fill="#263238"/>
<path d="M108.999 85.9997C109.259 86.8062 108.489 87.8253 107.999 87.9997C107.51 88.1741 107.259 87.8062 106.999 86.9997C106.74 86.1931 107.51 85.1741 107.999 84.9997C108.489 84.8253 108.74 85.1931 108.999 85.9997Z" fill="#263238"/>
<path d="M99.9993 88.9997C100.259 89.8062 99.4886 90.8253 98.9993 90.9997C98.5101 91.1741 98.2589 90.8062 97.9993 89.9997C97.7397 89.1931 98.5101 88.1741 98.9993 87.9997C99.4886 87.8253 99.7397 88.1931 99.9993 88.9997Z" fill="#263238"/>
<path d="M98 88.9997L99 86.9997C99 86.9997 99.4313 88.8974 98 88.9997Z" fill="#263238"/>
<path d="M107 84.9997L108 82.9997C108 82.9997 108.431 84.8974 107 84.9997Z" fill="#263238"/>
<g opacity="0.5">
<path d="M96 140L87 143C90.7016 149.909 93.75 156.031 96 161C95.0668 150.02 96 140 96 140Z" fill="#407BFF"/>
</g>
<path d="M151.999 388H163.999L163.999 214H151.999L151.999 388Z" fill="#407BFF"/>
<g opacity="0.2">
<path d="M151.999 214H163.999V243L151.999 240V214Z" fill="black"/>
</g>
<path d="M220.999 236H115.999V216C115.999 200.68 128.123 188 142.999 188H193.999C208.875 188 220.999 200.68 220.999 216V236Z" fill="#407BFF"/>
<path d="M122.999 202L121.999 200C121.33 199.008 120.16 198.011 118.999 198H112.999C110.834 197.978 109.265 199.169 107.999 201L106.999 202C109.646 206.565 115.999 209 115.999 209L116.999 211C118.464 211.915 121.131 211.46 121.999 210L123.999 206C124.689 204.834 123.794 203.176 122.999 202Z" fill="#FFC3BD"/>
<path d="M98.9993 137C98.7338 137.57 98.3056 139.261 97.9993 140L96.9993 142C96.407 143.573 95.5201 145.395 94.9993 147C93.9679 150.199 93.6426 152.791 92.9993 156C92.6929 157.605 92.1831 159.427 91.9993 161C91.8359 162.562 92.0095 164.511 91.9993 166C91.9993 168.956 92.1415 171.11 92.9993 173L93.9993 174C93.9891 173.926 94.0299 174.063 93.9993 174C94.418 175.689 95.5696 177.984 96.9993 180C98.4289 182.027 100.141 184.068 101.999 186C103.878 187.911 105.906 190.226 107.999 192C109.041 192.887 109.917 193.166 110.999 194C112.061 194.823 112.988 196.314 113.999 197L107.999 206C106.621 205.092 105.245 203.876 103.999 203C102.764 202.134 102.204 201.908 100.999 201C98.5893 199.174 96.2969 197.09 93.9993 195C91.7017 192.92 89.1131 190.576 86.9993 188C85.9373 186.723 84.9592 185.52 83.9993 184C83.0496 182.469 81.7243 180.943 80.9993 179L81.9993 180C79.4974 175.481 78.3465 170.255 77.9993 166C77.6929 161.714 77.5704 157.97 77.9993 154C78.4384 150.041 79.1721 145.801 79.9993 142C80.4078 140.1 81.5091 138.879 81.9993 137C82.2444 136.06 82.7236 134.94 82.9993 134C83.2852 133.029 82.6317 132.109 82.9993 131L98.9993 137Z" fill="#407BFF"/>
<g opacity="0.5">
<path d="M98.9993 137C98.7338 137.57 98.3056 139.261 97.9993 140L96.9993 142C96.407 143.573 95.5201 145.395 94.9993 147C93.9679 150.199 93.6426 152.791 92.9993 156C92.6929 157.605 92.1831 159.427 91.9993 161C91.8359 162.562 92.0095 164.511 91.9993 166C91.9993 168.956 92.1415 171.11 92.9993 173L93.9993 174C93.9891 173.926 94.0299 174.063 93.9993 174C94.418 175.689 95.5696 177.984 96.9993 180C98.4289 182.027 100.141 184.068 101.999 186C103.878 187.911 105.906 190.226 107.999 192C109.041 192.887 109.917 193.166 110.999 194C112.061 194.823 112.988 196.314 113.999 197L107.999 206C106.621 205.092 105.245 203.876 103.999 203C102.764 202.134 102.204 201.908 100.999 201C98.5893 199.174 96.2969 197.09 93.9993 195C91.7017 192.92 89.1131 190.576 86.9993 188C85.9373 186.723 84.9592 185.52 83.9993 184C83.0496 182.469 81.7243 180.943 80.9993 179L81.9993 180C79.4974 175.481 78.3465 170.255 77.9993 166C77.6929 161.714 77.5704 157.97 77.9993 154C78.4384 150.041 79.1721 145.801 79.9993 142C80.4078 140.1 81.5091 138.879 81.9993 137C82.2444 136.06 82.7236 134.94 82.9993 134C83.2852 133.029 82.6317 132.109 82.9993 131L98.9993 137Z" fill="white"/>
</g>
<path opacity="0.1" d="M115.999 230H166.999V217H115.999V230Z" fill="white"/>
<g opacity="0.2">
<path d="M166.999 236V216C166.999 200.669 179.093 188 193.999 188C208.905 188 220.999 200.68 220.999 216V236" fill="black"/>
</g>
<path d="M166.999 239H240.999V235H166.999V239Z" fill="#407BFF"/>
<path opacity="0.2" d="M186.999 239H240.999V235H186.999V239Z" fill="black"/>
<path d="M157.999 221H159.999V174H157.999V221Z" fill="#E0E0E0"/>
<path d="M146.999 184H159.999V177C159.999 176.476 159.471 176 158.999 176H146.999L148.999 180L146.999 184Z" fill="#407BFF"/>
<path d="M368 11L295 28L286 34L368 11Z" fill="#407BFF"/>
<g opacity="0.2">
<path d="M295 28L286 34L368 11" fill="black"/>
</g>
<path d="M368 11L295 28L302 33L368 11Z" fill="#407BFF"/>
<path d="M331.963 1.7132L294.997 0.12849C293.169 0.0500989 291.957 1.09717 291.882 2.99769L291.176 20.9838C291.101 22.8843 292.227 24.0316 294.055 24.11L331.021 25.6947C332.85 25.7731 334.062 24.726 334.136 22.8255L334.843 4.83938C334.917 2.93886 333.792 1.79159 331.963 1.7132Z" fill="#407BFF"/>
<path opacity="0.8" d="M331.963 1.7132L294.997 0.12849C293.169 0.0500989 291.957 1.09717 291.882 2.99769L291.176 20.9838C291.101 22.8843 292.227 24.0316 294.055 24.11L331.021 25.6947C332.85 25.7731 334.062 24.726 334.136 22.8255L334.843 4.83938C334.917 2.93886 333.792 1.79159 331.963 1.7132Z" fill="white"/>
<g opacity="0.4">
<path d="M312.999 18C312.895 18 313.083 18.0662 312.999 18L293.999 4C293.76 3.82347 293.843 3.25376 293.999 3C294.166 2.74624 294.76 2.8345 294.999 3L313.999 17L332.999 5C333.249 4.84554 333.854 4.7352 333.999 5C334.145 5.26479 334.249 5.84554 333.999 6L313.999 18C313.916 18.0441 313.093 18 312.999 18Z" fill="#407BFF"/>
</g>
<g opacity="0.4">
<path d="M331.999 23C331.895 23 332.083 23.0653 331.999 23L320.999 15C320.759 14.826 320.842 14.2501 320.999 14C321.167 13.7499 321.759 13.8369 321.999 14L332.999 22C333.24 22.174 333.157 22.7499 332.999 23C332.895 23.1523 332.167 23 331.999 23Z" fill="#407BFF"/>
</g>
<g opacity="0.4">
<path d="M293 21C292.83 21 293.09 21.1732 293 21C292.86 20.7401 292.76 20.1516 293 20L304 13C304.24 12.8484 304.86 12.7401 305 13C305.14 13.2598 305.24 13.8484 305 14L294 21C293.92 21.0541 293.08 21 293 21Z" fill="#407BFF"/>
</g>
<path d="M368 11L306 24L302 33L368 11Z" fill="#407BFF"/>
<g opacity="0.2">
<path d="M368 11L306 24L302 33L368 11Z" fill="black"/>
</g>
<path d="M368 11L306 24L326 32L368 11Z" fill="#407BFF"/>
<path d="M280.999 41C280.787 41 281.055 41.2238 280.999 41C280.944 40.7372 280.75 40.0584 280.999 40C282.034 39.747 283.038 39.4087 283.999 39C284.24 38.9027 284.907 38.747 284.999 39C285.092 39.253 285.24 39.9027 284.999 40C283.992 40.4282 283.081 40.7275 281.999 41C281.962 41 281.036 41 280.999 41Z" fill="#407BFF"/>
<path d="M243 224C242.731 224 242.01 223.286 242 223C241.989 222.704 242.711 223.011 243 223C245.385 222.884 247.584 222.318 250 222C250.279 221.958 249.958 222.714 250 223C250.041 223.286 250.279 222.958 250 223C247.563 223.328 245.416 223.884 243 224ZM257 222C256.762 222 257.051 222.243 257 222C256.938 221.714 256.721 221.053 257 221C259.426 220.46 261.769 219.72 264 219C264.268 218.915 264.907 218.714 265 219C265.082 219.275 264.279 219.905 264 220C261.738 220.73 259.468 221.45 257 222C257.041 222 256.958 222 257 222ZM271 217C270.804 217 271.082 217.191 271 217C270.886 216.735 270.742 216.116 271 216C272.879 215.121 274.534 214.984 276 214C276.413 213.725 276.587 213.286 277 213C277.237 212.831 277.835 212.757 278 213C278.165 213.243 278.237 213.841 278 214C277.587 214.286 276.413 214.725 276 215C274.492 216.016 272.931 216.1 271 217C271.072 217 270.928 217.032 271 217ZM283 209C282.855 209 283.103 209.116 283 209C282.814 208.778 282.783 208.201 283 208C284.92 206.296 286.554 204.789 288 203C288.186 202.778 288.783 202.809 289 203C289.217 203.191 289.186 203.778 289 204C287.513 205.831 284.962 207.264 283 209C283.124 209 282.907 209.085 283 209ZM292 198C291.917 198 292.082 198.032 292 198C291.742 197.862 291.876 197.254 292 197C292.33 196.333 292.721 195.677 293 195C293.63 193.465 293.597 191.694 294 190C294.072 189.714 294.731 189.936 295 190C295.062 189.725 295.279 190.074 295 190C294.587 191.747 294.64 193.412 294 195C293.711 195.709 293.341 196.301 293 197C292.907 197.18 292.196 198 292 198ZM296 183C296 183 296.01 183 296 183C295.711 182.979 294.989 183.286 295 183C295.093 181.56 296 179.694 296 178C296 177.068 296.031 175.932 296 175C295.711 175 296 174.704 296 175C296.289 174.968 297 174.704 297 175C297.02 175.942 297 177.058 297 178C297 179.715 296.093 181.539 296 183C296.268 183 295.979 183.275 296 183ZM296 168C295.721 168 295.01 168.286 295 168C294.907 165.851 295 163.308 295 161V160C295 159.704 295.68 159.979 296 160C296 159.714 296.289 160 296 160V161C296 163.287 295.907 165.862 296 168C296.289 167.989 296.01 168.296 296 168ZM340 162C339.06 162 337.877 162.042 337 162C336.711 161.989 336.989 161.286 337 161C336.721 160.989 337.01 160.714 337 161C337.867 161.042 339.081 161 340 161C341.621 161 342.606 160.159 344 160C344.279 159.968 344.969 160.714 345 161C345.031 161.286 345.279 161.968 345 162C343.575 162.159 341.652 162 340 162ZM330 161C330 161 330.01 161 330 161C327.584 160.809 325.416 161.265 323 161C322.721 160.968 321.979 160.296 322 160C322.031 159.714 322.711 159.968 323 160C325.406 160.254 327.584 159.809 330 160C330.289 160.021 330.02 160.704 330 161C330.268 161 329.979 161.275 330 161ZM352 160C351.804 160 351.093 159.191 351 159C350.742 159.116 350.886 158.735 351 159C353.323 157.92 355.843 155.958 357 154C356.752 153.852 357.144 153.746 357 154C357.248 154.148 357.144 154.746 357 155C355.719 157.138 354.519 158.836 352 160C352.072 160 351.928 160.032 352 160ZM315 160C315 160 315.02 160 315 160C312.594 159.682 310.406 159.381 308 159C307.721 158.958 307.958 158.286 308 158C307.721 157.958 308.041 157.714 308 158C310.395 158.381 312.604 158.682 315 159C315.279 159.042 316.041 158.714 316 159C315.969 159.265 315.258 160 315 160ZM301 157C301 157 301.031 157 301 157C298.615 156.555 296.385 156.508 294 156C293.721 155.936 292.948 155.286 293 155C293.062 154.714 293.721 154.947 294 155C296.375 155.508 298.625 155.555 301 156C301.279 156.053 301.051 156.714 301 157C301.248 157 300.958 157.254 301 157ZM287 154C287 154 286.041 154.011 286 154C283.635 153.428 281.354 152.635 279 152C278.721 151.926 278.928 152.286 279 152C279.072 151.714 279.721 150.926 280 151C282.344 151.635 284.646 152.428 287 153C287.279 153.064 287.072 153.714 287 154C287.237 154 286.948 154.243 287 154ZM296 153C296 153 296.02 153 296 153C295.721 152.958 295.958 153.286 296 153C296.382 150.385 296.184 147.265 297 145C297.103 144.725 297.731 144.905 298 145C298.268 145.106 298.093 145.725 298 146C297.205 148.202 297.372 150.459 297 153C296.958 153.265 296.248 153 296 153ZM272 151C272 151 272.051 150.021 272 150C269.666 149.301 267.313 148.752 265 148C264.731 147.915 264.907 148.275 265 148C265.082 147.725 265.731 146.905 266 147C268.302 147.752 270.677 148.301 273 149C273.279 149.085 273.082 149.714 273 150C272.938 150.233 272.227 151 272 151ZM358 148C357.762 148 358.051 147.243 358 147C357.607 144.946 356.034 142.884 354 141C353.793 140.809 353.814 141.222 354 141C354.186 140.778 354.783 140.809 355 141C357.209 143.043 358.566 144.713 359 147C359.051 147.286 359.289 147.936 359 148C358.969 148 358.041 148 358 148ZM259 146C258.938 146 258.062 146.032 258 146C255.646 145.143 253.209 143.889 251 143C250.731 142.894 250.897 143.275 251 143C251.103 142.725 251.731 141.894 252 142C254.189 142.889 256.666 144.153 259 145C259.268 145.095 259.103 145.725 259 146C259.206 146 258.928 146.222 259 146ZM245 140C244.928 140 245.062 140.032 245 140C242.728 138.963 240.117 138.101 238 137C237.742 136.873 237.876 136.254 238 136C238.124 135.735 238.752 135.873 239 136C241.106 137.09 242.738 137.963 245 139C245.258 139.116 245.124 139.735 245 140C245.196 140 244.917 140.201 245 140ZM301 139C300.897 139 301.093 139.074 301 139C300.773 138.831 300.835 139.233 301 139C302.404 137.052 304.141 135.27 306 134C306.175 133.884 305.814 133.116 306 133C306.237 132.841 306.845 133.757 307 134C307.155 134.243 307.237 133.841 307 134C306.835 134.106 306.165 134.884 306 135C304.244 136.207 303.332 137.147 302 139C301.897 139.138 301.155 139 301 139ZM349 137C348.917 137 348.082 137.042 348 137C347.132 136.524 346.805 136.413 346 136C344.688 135.333 343.373 134.55 342 134C341.731 133.894 341.897 133.275 342 133C341.731 132.894 342.103 132.725 342 133C343.394 133.561 344.668 134.323 346 135C346.816 135.413 348.122 135.513 349 136C349.248 136.138 349.134 136.746 349 137C349.186 137 348.907 137.18 349 137ZM232 134C231.907 134 232.082 134.053 232 134C229.842 132.719 226.972 131.355 225 130C224.762 129.841 224.845 129.243 225 129C225.155 128.757 225.762 128.841 226 129C227.962 130.344 229.862 131.73 232 133C232.144 132.746 232.248 133.148 232 133C231.907 133.169 232.175 134 232 134ZM335 132C335 132 335.041 132.011 335 132C332.656 131.428 330.385 131.222 328 131C327.711 130.968 326.969 130.286 327 130C327.031 129.704 327.721 129.968 328 130C330.437 130.233 332.604 130.418 335 131C335.279 131.064 336.062 131.714 336 132C335.948 132.243 335.237 132 335 132ZM313 132C312.762 132 313.062 131.243 313 131C312.721 131.064 312.928 130.714 313 131C314.693 130.577 316.976 130.191 319 130C319.599 129.947 319.401 130.032 320 130C320.289 129.979 320.979 129.714 321 130C321.01 130.296 321.279 130.979 321 131C320.411 131.032 319.588 130.947 319 131C317.028 131.18 314.642 131.598 313 132C313.041 132 312.958 132 313 132ZM220 125C219.886 125 220.093 125.085 220 125C218.038 123.423 215.745 121.673 214 120C213.793 119.799 213.814 119.222 214 119C214.196 118.788 214.783 118.809 215 119C216.734 120.651 218.059 122.444 220 124C220.227 124.18 220.186 124.767 220 125C220.144 125 219.897 125.138 220 125ZM209 115C208.855 115 209.103 115.116 209 115C207.368 113.095 205.373 111.043 204 109C203.835 108.757 203.762 108.169 204 108C204.237 107.831 204.835 107.757 205 108C206.352 110.011 208.389 112.126 210 114C210.186 114.222 210.217 114.799 210 115C209.897 115.085 209.124 115 209 115ZM201 103C200.814 103 200.082 102.18 200 102C198.854 99.724 198.795 97.3289 198 95C197.731 95.0953 197.907 94.7248 198 95C198.268 94.9047 198.907 94.7248 199 95C199.774 97.2866 199.874 99.7664 201 102C201.134 102.265 201.248 102.873 201 103C201.082 103 200.928 103.042 201 103ZM196 89C195.752 89 196.041 88.2541 196 88C195.897 87.4389 195.082 86.5611 195 86C194.752 84.1581 195 82.8949 195 81C195 80.7036 195.721 79.9894 196 80C196.289 80 196 80.7142 196 81C196 82.8525 195.752 84.211 196 86C196.072 86.5505 196.907 87.4495 197 88C197.051 88.2858 196.279 88.9471 196 89C196.031 89 195.969 89 196 89ZM196 74C196 74 196.031 74 196 74C195.721 73.9471 195.948 73.2858 196 73C196.444 70.5229 197.153 68.3712 198 66C198.103 65.7248 197.731 64.9047 198 65C198.268 65.1059 199.093 65.7248 199 66C198.163 68.3183 197.433 70.5864 197 73C196.958 73.2541 196.248 74 196 74ZM201 60C200.907 60 201.082 60.0529 201 60C200.752 59.8518 200.855 59.2541 201 59C202.249 56.7981 203.41 54.8949 205 53C205.186 52.7777 205.793 52.8095 206 53C206.186 52.7777 206.217 53.1905 206 53C204.451 54.8419 203.218 56.8511 202 59C201.907 59.1694 201.175 60 201 60ZM211 48C210.845 48 210.093 48.127 210 48C209.773 48.18 209.824 47.7671 210 48C211.9 46.4862 214.749 44.175 217 43C217.258 42.8624 216.876 43.7354 217 44C217.134 44.2646 217.258 43.873 217 44C214.811 45.1433 212.838 46.5286 211 48C211.113 48 210.907 48.0741 211 48ZM274 42C271.811 41.9682 269.819 41.4234 267 41C266.721 40.9577 265.958 41.2964 266 41C266.041 40.7036 266.711 39.9577 267 40C269.777 40.4129 271.852 40.9682 274 41C274.289 41 275.01 40.7036 275 41C275 41.2858 274.279 42 274 42ZM224 42C223.783 42 223.072 41.2223 223 41C222.731 41.0953 222.907 40.7248 223 41C225.209 40.259 228.48 39.5187 231 39C230.938 38.7142 231.279 38.9471 231 39C231.051 39.2858 231.279 39.9365 231 40C228.522 40.5081 226.168 41.2802 224 42C224.062 42 223.948 42.0212 224 42ZM260 40C260 40 260.031 40 260 40C257.78 39.5766 254.457 39.3599 252 39C251.721 38.9577 251.969 38.2964 252 38C252.041 37.7142 252.711 37.9682 253 38C255.478 38.3599 257.769 38.566 260 39C260.279 39.0529 260.051 39.7142 260 40C260.248 40 259.958 40.2541 260 40ZM238 39C237.742 39 237.031 38.2646 237 38C236.969 37.7142 237.721 38.0318 238 38C239.311 37.8412 240.554 37.1164 242 37C242.919 36.9259 244.029 37 245 37C245.289 37 246 37.7036 246 38C246 38.2964 245.248 37.9894 245 38C244.05 38 242.888 37.9259 242 38C240.565 38.1164 239.301 38.8518 238 39C238.02 39 237.979 39 238 39Z" fill="#407BFF"/>
<path d="M235 224C235 224 235.011 224 235 224C233.676 223.96 233.28 224.089 232 224C231.7 223.976 230.967 223.225 231 223C231.034 222.783 231.689 222.976 232 223C233.246 223.089 233.698 222.96 235 223C235.312 223.008 236.011 223.783 236 224C235.989 224.217 235.301 224 235 224Z" fill="#407BFF"/>
<g opacity="0.6">
<path d="M280.999 41.0003C280.787 41.0003 281.055 41.2241 280.999 41.0003C280.944 40.7375 280.75 40.0587 280.999 40.0003C282.034 39.7472 283.038 39.409 283.999 39.0003C284.24 38.9029 284.907 38.7472 284.999 39.0003C285.092 39.2533 285.24 39.903 284.999 40.0003C283.992 40.4285 283.081 40.7278 281.999 41.0003C281.962 41.0003 281.036 41.0003 280.999 41.0003Z" fill="white"/>
<path d="M243 224C242.731 224 242.01 223.286 242 223C241.989 222.704 242.711 223.011 243 223C245.385 222.884 247.584 222.318 250 222C250.279 221.958 249.958 222.714 250 223C250.041 223.286 250.279 222.958 250 223C247.563 223.328 245.416 223.884 243 224ZM257 222C256.762 222 257.051 222.244 257 222C256.938 221.714 256.721 221.053 257 221C259.426 220.46 261.769 219.72 264 219C264.268 218.916 264.907 218.714 265 219C265.082 219.276 264.279 219.905 264 220C261.738 220.731 259.468 221.45 257 222C257.041 222 256.958 222 257 222ZM271 217C270.804 217 271.082 217.191 271 217C270.886 216.736 270.742 216.117 271 216C272.879 215.122 274.534 214.985 276 214C276.413 213.725 276.587 213.286 277 213C277.237 212.831 277.835 212.757 278 213C278.165 213.244 278.237 213.841 278 214C277.587 214.286 276.413 214.725 276 215C274.492 216.017 272.931 216.1 271 217C271.072 217 270.928 217.032 271 217ZM283 209C282.855 209 283.103 209.117 283 209C282.814 208.778 282.783 208.201 283 208C284.92 206.296 286.554 204.789 288 203C288.186 202.778 288.783 202.81 289 203C289.217 203.191 289.186 203.778 289 204C287.513 205.832 284.962 207.264 283 209C283.124 209 282.907 209.085 283 209ZM292 198C291.917 198 292.082 198.032 292 198C291.742 197.863 291.876 197.254 292 197C292.33 196.333 292.721 195.678 293 195C293.63 193.465 293.597 191.694 294 190C294.072 189.714 294.731 189.937 295 190C295.062 189.725 295.279 190.074 295 190C294.587 191.747 294.64 193.412 294 195C293.711 195.71 293.341 196.302 293 197C292.907 197.18 292.196 198 292 198ZM296 183C296 183 296.01 183 296 183C295.711 182.979 294.989 183.286 295 183C295.093 181.561 296 179.694 296 178C296 177.069 296.031 175.932 296 175C295.711 175 296 174.704 296 175C296.289 174.969 297 174.704 297 175C297.02 175.942 297 177.058 297 178C297 179.715 296.093 181.539 296 183C296.268 183 295.979 183.276 296 183ZM296 168C295.721 168 295.01 168.286 295 168C294.907 165.851 295 163.308 295 161V160C295 159.704 295.68 159.979 296 160C296 159.714 296.289 160 296 160V161C296 163.287 295.907 165.862 296 168C296.289 167.99 296.01 168.297 296 168ZM340 162C339.06 162 337.877 162.043 337 162C336.711 161.99 336.989 161.286 337 161C336.721 160.99 337.01 160.714 337 161C337.867 161.043 339.081 161 340 161C341.621 161 342.606 160.159 344 160C344.279 159.969 344.969 160.714 345 161C345.031 161.286 345.279 161.969 345 162C343.575 162.159 341.652 162 340 162ZM330 161C330 161 330.01 161 330 161C327.584 160.81 325.416 161.265 323 161C322.721 160.969 321.979 160.297 322 160C322.031 159.714 322.711 159.969 323 160C325.406 160.254 327.584 159.81 330 160C330.289 160.021 330.02 160.704 330 161C330.268 161 329.979 161.276 330 161ZM352 160C351.804 160 351.093 159.191 351 159C350.742 159.117 350.886 158.736 351 159C353.323 157.921 355.843 155.959 357 154C356.752 153.852 357.144 153.746 357 154C357.248 154.148 357.144 154.746 357 155C355.719 157.139 354.519 158.836 352 160C352.072 160 351.928 160.032 352 160ZM315 160C315 160 315.02 160 315 160C312.594 159.683 310.406 159.381 308 159C307.721 158.958 307.958 158.286 308 158C307.721 157.958 308.041 157.714 308 158C310.395 158.381 312.604 158.683 315 159C315.279 159.043 316.041 158.714 316 159C315.969 159.265 315.258 160 315 160ZM301 157C301 157 301.031 157 301 157C298.615 156.556 296.385 156.508 294 156C293.721 155.937 292.948 155.286 293 155C293.062 154.714 293.721 154.947 294 155C296.375 155.508 298.625 155.556 301 156C301.279 156.053 301.051 156.714 301 157C301.248 157 300.958 157.254 301 157ZM287 154C287 154 286.041 154.011 286 154C283.635 153.429 281.354 152.635 279 152C278.721 151.926 278.928 152.286 279 152C279.072 151.714 279.721 150.926 280 151C282.344 151.635 284.646 152.429 287 153C287.279 153.064 287.072 153.714 287 154C287.237 154 286.948 154.244 287 154ZM296 153C296 153 296.02 153 296 153C295.721 152.958 295.958 153.286 296 153C296.382 150.386 296.184 147.266 297 145C297.103 144.725 297.731 144.905 298 145C298.268 145.106 298.093 145.725 298 146C297.205 148.202 297.372 150.46 297 153C296.958 153.265 296.248 153 296 153ZM272 151C272 151 272.051 150.021 272 150C269.666 149.302 267.313 148.752 265 148C264.731 147.916 264.907 148.276 265 148C265.082 147.725 265.731 146.905 266 147C268.302 147.752 270.677 148.302 273 149C273.279 149.085 273.082 149.714 273 150C272.938 150.233 272.227 151 272 151ZM358 148C357.762 148 358.051 147.244 358 147C357.607 144.947 356.034 142.885 354 141C353.793 140.81 353.814 141.223 354 141C354.186 140.778 354.783 140.81 355 141C357.209 143.043 358.566 144.714 359 147C359.051 147.286 359.289 147.937 359 148C358.969 148 358.041 148 358 148ZM259 146C258.938 146 258.062 146.032 258 146C255.646 145.143 253.209 143.889 251 143C250.731 142.894 250.897 143.276 251 143C251.103 142.725 251.731 141.894 252 142C254.189 142.889 256.666 144.153 259 145C259.268 145.096 259.103 145.725 259 146C259.206 146 258.928 146.223 259 146ZM245 140C244.928 140 245.062 140.032 245 140C242.728 138.963 240.117 138.101 238 137C237.742 136.873 237.876 136.254 238 136C238.124 135.736 238.752 135.873 239 136C241.106 137.091 242.738 137.963 245 139C245.258 139.117 245.124 139.736 245 140C245.196 140 244.917 140.201 245 140ZM301 139C300.897 139 301.093 139.074 301 139C300.773 138.831 300.835 139.233 301 139C302.404 137.052 304.141 135.271 306 134C306.175 133.884 305.814 133.117 306 133C306.237 132.841 306.845 133.757 307 134C307.155 134.244 307.237 133.841 307 134C306.835 134.106 306.165 134.884 306 135C304.244 136.207 303.332 137.148 302 139C301.897 139.138 301.155 139 301 139ZM349 137C348.917 137 348.082 137.043 348 137C347.132 136.524 346.805 136.413 346 136C344.688 135.333 343.373 134.551 342 134C341.731 133.894 341.897 133.276 342 133C341.731 132.894 342.103 132.725 342 133C343.394 133.561 344.668 134.323 346 135C346.816 135.413 348.122 135.513 349 136C349.248 136.138 349.134 136.746 349 137C349.186 137 348.907 137.18 349 137ZM232 134C231.907 134 232.082 134.053 232 134C229.842 132.719 226.972 131.355 225 130C224.762 129.841 224.845 129.244 225 129C225.155 128.757 225.762 128.841 226 129C227.962 130.345 229.862 131.73 232 133C232.144 132.746 232.248 133.148 232 133C231.907 133.17 232.175 134 232 134ZM335 132C335 132 335.041 132.011 335 132C332.656 131.429 330.385 131.223 328 131C327.711 130.969 326.969 130.286 327 130C327.031 129.704 327.721 129.969 328 130C330.437 130.233 332.604 130.418 335 131C335.279 131.064 336.062 131.714 336 132C335.948 132.244 335.237 132 335 132ZM313 132C312.762 132 313.062 131.244 313 131C312.721 131.064 312.928 130.714 313 131C314.693 130.577 316.976 130.191 319 130C319.599 129.947 319.401 130.032 320 130C320.289 129.979 320.979 129.714 321 130C321.01 130.297 321.279 130.979 321 131C320.411 131.032 319.588 130.947 319 131C317.028 131.18 314.642 131.598 313 132C313.041 132 312.958 132 313 132ZM220 125C219.886 125 220.093 125.085 220 125C218.038 123.423 215.745 121.673 214 120C213.793 119.799 213.814 119.223 214 119C214.196 118.789 214.783 118.81 215 119C216.734 120.652 218.059 122.444 220 124C220.227 124.18 220.186 124.767 220 125C220.144 125 219.897 125.138 220 125ZM209 115C208.855 115 209.103 115.117 209 115C207.368 113.095 205.373 111.043 204 109C203.835 108.757 203.762 108.17 204 108C204.237 107.831 204.835 107.757 205 108C206.352 110.012 208.389 112.127 210 114C210.186 114.223 210.217 114.799 210 115C209.897 115.085 209.124 115 209 115ZM201 103C200.814 103 200.082 102.18 200 102C198.854 99.7243 198.795 97.3292 198 95.0003C197.731 95.0955 197.907 94.725 198 95.0003C198.268 94.905 198.907 94.725 199 95.0003C199.774 97.2868 199.874 99.7666 201 102C201.134 102.265 201.248 102.873 201 103C201.082 103 200.928 103.043 201 103ZM196 89.0003C195.752 89.0003 196.041 88.2543 196 88.0003C195.897 87.4392 195.082 86.5613 195 86.0003C194.752 84.1583 195 82.8951 195 81.0003C195 80.7039 195.721 79.9897 196 80.0003C196.289 80.0003 196 80.7145 196 81.0003C196 82.8528 195.752 84.2113 196 86.0003C196.072 86.5507 196.907 87.4498 197 88.0003C197.051 88.2861 196.279 88.9473 196 89.0003C196.031 89.0003 195.969 89.0003 196 89.0003ZM196 74.0003C196 74.0003 196.031 74.0003 196 74.0003C195.721 73.9473 195.948 73.2861 196 73.0003C196.444 70.5232 197.153 68.3715 198 66.0003C198.103 65.725 197.731 64.905 198 65.0003C198.268 65.1061 199.093 65.725 199 66.0003C198.163 68.3186 197.433 70.5867 197 73.0003C196.958 73.2543 196.248 74.0003 196 74.0003ZM201 60.0003C200.907 60.0003 201.082 60.0532 201 60.0003C200.752 59.8521 200.855 59.2543 201 59.0003C202.249 56.7984 203.41 54.8951 205 53.0003C205.186 52.778 205.793 52.8097 206 53.0003C206.186 52.778 206.217 53.1908 206 53.0003C204.451 54.8422 203.218 56.8513 202 59.0003C201.907 59.1696 201.175 60.0003 201 60.0003ZM211 48.0003C210.845 48.0003 210.093 48.1273 210 48.0003C209.773 48.1802 209.824 47.7674 210 48.0003C211.9 46.4865 214.749 44.1753 217 43.0003C217.258 42.8627 216.876 43.7356 217 44.0003C217.134 44.2649 217.258 43.8732 217 44.0003C214.811 45.1435 212.838 46.5288 211 48.0003C211.113 48.0003 210.907 48.0744 211 48.0003ZM274 42.0003C271.811 41.9685 269.819 41.4237 267 41.0003C266.721 40.9579 265.958 41.2967 266 41.0003C266.041 40.7039 266.711 39.9579 267 40.0003C269.777 40.4131 271.852 40.9685 274 41.0003C274.289 41.0003 275.01 40.7039 275 41.0003C275 41.2861 274.279 42.0003 274 42.0003ZM224 42.0003C223.783 42.0003 223.072 41.2226 223 41.0003C222.731 41.0955 222.907 40.725 223 41.0003C225.209 40.2593 228.48 39.519 231 39.0003C230.938 38.7145 231.279 38.9473 231 39.0003C231.051 39.2861 231.279 39.9368 231 40.0003C228.522 40.5084 226.168 41.2804 224 42.0003C224.062 42.0003 223.948 42.0214 224 42.0003ZM260 40.0003C260 40.0003 260.031 40.0003 260 40.0003C257.78 39.5768 254.457 39.3602 252 39.0003C251.721 38.9579 251.969 38.2967 252 38.0003C252.041 37.7145 252.711 37.9685 253 38.0003C255.478 38.3602 257.769 38.5663 260 39.0003C260.279 39.0532 260.051 39.7145 260 40.0003C260.248 40.0003 259.958 40.2543 260 40.0003ZM238 39.0003C237.742 39.0003 237.031 38.2649 237 38.0003C236.969 37.7145 237.721 38.032 238 38.0003C239.311 37.8415 240.554 37.1167 242 37.0003C242.919 36.9262 244.029 37.0003 245 37.0003C245.289 37.0003 246 37.7039 246 38.0003C246 38.2967 245.248 37.9897 245 38.0003C244.05 38.0003 242.888 37.9262 242 38.0003C240.565 38.1167 239.301 38.8521 238 39.0003C238.02 39.0003 237.979 39.0003 238 39.0003Z" fill="white"/>
<path d="M235 224C235 224 235.011 224 235 224C233.676 223.96 233.28 224.089 232 224C231.7 223.976 230.967 223.226 231 223C231.034 222.783 231.689 222.976 232 223C233.246 223.089 233.698 222.96 235 223C235.312 223.008 236.011 223.783 236 224C235.989 224.218 235.301 224 235 224Z" fill="white"/>
</g>
<g clip-path="url(#clip1_44918_106554)">
<path d="M108.819 411.98C104.247 413.001 98.9167 419.415 104.177 425.967C109.438 432.52 100.626 429.658 99.2648 441.123C97.9032 452.596 108.347 450.662 105.067 458.182C101.787 465.701 124.547 477.615 138.759 468.587C152.971 459.559 154.293 440.117 149.853 433.247C145.412 426.377 138.929 425.944 141.861 418.587C144.793 411.222 141.335 403.578 132.167 403.509C125.251 403.455 129.398 398.619 119.882 398.658C111.952 398.697 104.928 404.267 108.819 411.98Z" fill="#263238"/>
<path d="M153.326 443.575C153.326 443.575 153.303 443.575 153.287 443.575C153.179 443.552 153.117 443.451 153.133 443.351C153.829 439.746 151.021 436.257 148.05 432.559C144.584 428.242 140.654 423.36 142.039 417.535C143.222 412.568 142.696 408.421 140.553 405.853C138.805 403.749 136.074 402.781 132.446 402.967C129.119 403.137 128.129 402.24 127.084 401.281C125.955 400.252 124.655 399.076 119.882 399.107C119.774 399.107 119.688 399.022 119.688 398.913C119.688 398.805 119.774 398.72 119.882 398.72C119.936 398.72 119.998 398.72 120.052 398.72C124.864 398.72 126.187 399.927 127.347 400.994C128.376 401.93 129.258 402.743 132.423 402.573C136.175 402.379 139.014 403.393 140.847 405.598C143.068 408.259 143.625 412.529 142.41 417.62C141.072 423.26 144.77 427.863 148.352 432.311C151.384 436.079 154.239 439.637 153.512 443.413C153.496 443.506 153.411 443.568 153.318 443.568L153.326 443.575Z" fill="#263238"/>
<path d="M325.5 359.744L271.059 372.153L264.081 376.462L325.5 359.744Z" fill="#407BFF"/>
<path opacity="0.2" d="M271.059 372.153L264.081 376.462L325.5 359.744" fill="black"/>
<path d="M325.5 359.744L271.06 372.153L276.181 375.929L325.5 359.744Z" fill="#407BFF"/>
<path d="M298.129 353.116L270.811 351.995C269.437 351.938 268.277 353.007 268.22 354.381L267.713 366.749C267.656 368.124 268.725 369.284 270.099 369.34L297.417 370.461C298.791 370.518 299.951 369.449 300.008 368.075L300.515 355.707C300.572 354.332 299.503 353.172 298.129 353.116Z" fill="#407BFF"/>
<path opacity="0.8" d="M298.129 353.116L270.811 351.995C269.437 351.938 268.277 353.007 268.22 354.381L267.713 366.749C267.656 368.124 268.725 369.284 270.099 369.34L297.417 370.461C298.791 370.518 299.951 369.449 300.008 368.075L300.515 355.707C300.572 354.332 299.503 353.172 298.129 353.116Z" fill="white"/>
<path opacity="0.4" d="M283.994 364.548C283.917 364.548 283.84 364.525 283.778 364.479L269.659 354.739C269.481 354.615 269.442 354.375 269.558 354.197C269.682 354.019 269.922 353.981 270.1 354.097L284.018 363.697L298.678 355.265C298.864 355.156 299.096 355.218 299.204 355.404C299.312 355.59 299.25 355.822 299.065 355.93L284.195 364.479C284.134 364.51 284.072 364.533 284.002 364.533L283.994 364.548Z" fill="#407BFF"/>
<path opacity="0.4" d="M298.354 368.316C298.277 368.316 298.2 368.293 298.138 368.246L290.046 362.622C289.868 362.498 289.829 362.258 289.945 362.08C290.069 361.903 290.309 361.864 290.487 361.98L298.579 367.604C298.757 367.728 298.795 367.968 298.679 368.146C298.602 368.254 298.486 368.308 298.362 368.308L298.354 368.316Z" fill="#407BFF"/>
<path opacity="0.4" d="M269.364 367.125C269.233 367.125 269.101 367.055 269.032 366.931C268.924 366.745 268.985 366.513 269.171 366.405L277.697 361.462C277.882 361.353 278.114 361.415 278.223 361.601C278.331 361.786 278.269 362.019 278.083 362.127L269.558 367.07C269.496 367.109 269.426 367.125 269.364 367.125Z" fill="#407BFF"/>
<path d="M325.499 359.744L278.826 369.283L276.18 375.928L325.499 359.744Z" fill="#407BFF"/>
<path opacity="0.2" d="M325.499 359.744L278.826 369.283L276.18 375.928L325.499 359.744Z" fill="black"/>
<path d="M325.499 359.744L278.825 369.283L293.524 374.613L325.499 359.744Z" fill="#407BFF"/>
<path d="M260.793 381.808C260.615 381.808 260.46 381.684 260.414 381.507C260.368 381.298 260.491 381.089 260.7 381.042C261.567 380.841 262.418 380.57 263.222 380.246C263.423 380.168 263.648 380.261 263.725 380.462C263.803 380.663 263.71 380.888 263.509 380.965C262.665 381.305 261.783 381.584 260.878 381.801C260.847 381.801 260.816 381.808 260.785 381.808H260.793Z" fill="#407BFF"/>
<path d="M231.719 515.453C231.518 515.453 231.34 515.291 231.332 515.082C231.324 514.866 231.487 514.688 231.704 514.68C233.491 514.595 235.316 514.425 237.127 514.192C237.336 514.162 237.529 514.316 237.56 514.525C237.591 514.734 237.436 514.927 237.227 514.958C235.402 515.198 233.553 515.368 231.742 515.453H231.727H231.719ZM242.565 514.03C242.387 514.03 242.225 513.906 242.186 513.728C242.14 513.519 242.271 513.311 242.48 513.272C244.298 512.877 246.07 512.413 247.741 511.887C247.942 511.825 248.159 511.933 248.228 512.142C248.29 512.343 248.182 512.56 247.973 512.63C246.279 513.164 244.492 513.635 242.643 514.038C242.612 514.038 242.589 514.045 242.558 514.045L242.565 514.03ZM252.978 510.688C252.832 510.688 252.692 510.603 252.63 510.464C252.545 510.27 252.63 510.038 252.824 509.953C254.232 509.311 255.508 508.615 256.607 507.895C256.916 507.694 257.218 507.493 257.527 507.284C257.705 507.16 257.945 507.207 258.069 507.384C258.193 507.562 258.146 507.802 257.968 507.918C257.659 508.127 257.35 508.336 257.04 508.537C255.911 509.28 254.603 509.992 253.156 510.649C253.102 510.672 253.048 510.688 252.994 510.688H252.978ZM262.084 504.661C261.976 504.661 261.868 504.615 261.79 504.53C261.651 504.367 261.666 504.127 261.829 503.98C263.268 502.735 264.544 501.443 265.627 500.136C265.767 499.973 266.007 499.95 266.169 500.089C266.331 500.228 266.355 500.468 266.215 500.631C265.101 501.969 263.794 503.292 262.324 504.561C262.254 504.623 262.162 504.654 262.069 504.654L262.084 504.661ZM268.962 496.229C268.9 496.229 268.846 496.213 268.784 496.19C268.59 496.089 268.521 495.857 268.614 495.672C268.861 495.184 269.093 494.681 269.302 494.186C269.774 493.065 270.161 491.865 270.463 490.628C270.517 490.419 270.726 490.295 270.927 490.341C271.136 490.395 271.259 490.604 271.213 490.805C270.904 492.082 270.494 493.32 270.014 494.48C269.797 494.999 269.557 495.509 269.302 496.02C269.233 496.151 269.101 496.229 268.954 496.229H268.962ZM271.646 485.692C271.646 485.692 271.631 485.692 271.623 485.692C271.406 485.676 271.252 485.491 271.259 485.282C271.329 484.23 271.368 483.116 271.368 481.878C271.368 481.197 271.36 480.524 271.337 479.843C271.337 479.626 271.499 479.449 271.716 479.449C271.933 479.425 272.11 479.611 272.11 479.828C272.126 480.516 272.141 481.197 272.141 481.885C272.141 483.139 272.103 484.268 272.033 485.336C272.018 485.537 271.847 485.7 271.646 485.7V485.692ZM271.499 474.745C271.29 474.745 271.12 474.582 271.112 474.373C271.043 472.803 270.973 471.109 270.973 469.422V468.881C270.973 468.664 271.128 468.478 271.368 468.494C271.584 468.494 271.755 468.672 271.755 468.881V469.415C271.755 471.086 271.816 472.764 271.886 474.327C271.894 474.544 271.731 474.722 271.515 474.729H271.499V474.745ZM304.58 469.979C303.876 469.979 303.187 469.964 302.53 469.933C302.313 469.925 302.151 469.739 302.158 469.531C302.166 469.322 302.352 469.151 302.561 469.159C303.211 469.19 303.891 469.206 304.58 469.206C305.795 469.206 306.932 469.151 307.976 469.035C308.185 469.012 308.378 469.167 308.402 469.376C308.425 469.585 308.27 469.778 308.061 469.801C306.994 469.917 305.825 469.972 304.588 469.972L304.58 469.979ZM297.083 469.585C297.083 469.585 297.06 469.585 297.052 469.585C295.242 469.445 293.401 469.283 291.591 469.09C291.382 469.066 291.227 468.881 291.242 468.664C291.266 468.455 291.451 468.293 291.668 468.316C293.471 468.502 295.304 468.664 297.114 468.803C297.331 468.819 297.486 469.004 297.47 469.221C297.455 469.422 297.285 469.577 297.083 469.577V469.585ZM313.307 468.478C313.16 468.478 313.02 468.393 312.951 468.254C312.866 468.061 312.951 467.829 313.144 467.743C314.885 466.954 316.208 465.833 317.074 464.401C317.182 464.216 317.422 464.162 317.608 464.27C317.794 464.378 317.848 464.618 317.739 464.804C316.78 466.366 315.349 467.596 313.461 468.447C313.407 468.471 313.353 468.478 313.299 468.478H313.307ZM286.191 468.463C286.191 468.463 286.16 468.463 286.144 468.463C284.342 468.231 282.516 467.968 280.713 467.689C280.504 467.658 280.357 467.457 280.388 467.248C280.419 467.039 280.62 466.892 280.829 466.923C282.624 467.202 284.442 467.465 286.237 467.697C286.446 467.728 286.601 467.921 286.57 468.13C286.547 468.324 286.376 468.471 286.183 468.471L286.191 468.463ZM275.367 466.776C275.367 466.776 275.321 466.776 275.298 466.776C273.511 466.451 271.7 466.096 269.913 465.724C269.704 465.678 269.573 465.477 269.612 465.268C269.658 465.059 269.859 464.927 270.068 464.966C271.847 465.337 273.65 465.693 275.429 466.018C275.638 466.057 275.778 466.258 275.739 466.467C275.708 466.653 275.545 466.784 275.36 466.784L275.367 466.776ZM264.653 464.533C264.653 464.533 264.591 464.533 264.56 464.525C262.788 464.107 261.001 463.659 259.237 463.194C259.028 463.14 258.905 462.931 258.959 462.723C259.013 462.514 259.222 462.39 259.431 462.444C261.187 462.908 262.966 463.349 264.73 463.767C264.939 463.813 265.07 464.022 265.016 464.231C264.978 464.409 264.815 464.533 264.637 464.533H264.653ZM271.755 463.806C271.755 463.806 271.716 463.806 271.7 463.806C271.492 463.775 271.345 463.574 271.376 463.365C271.662 461.454 272.118 459.644 272.729 457.988C272.807 457.787 273.023 457.686 273.225 457.756C273.426 457.833 273.526 458.05 273.457 458.251C272.861 459.86 272.42 461.616 272.141 463.473C272.11 463.666 271.948 463.806 271.762 463.806H271.755ZM254.062 461.74C254.062 461.74 253.992 461.74 253.953 461.725C252.205 461.214 250.441 460.672 248.708 460.123C248.507 460.061 248.391 459.837 248.46 459.636C248.522 459.435 248.747 459.319 248.948 459.388C250.673 459.937 252.437 460.479 254.178 460.99C254.387 461.052 254.503 461.26 254.441 461.469C254.394 461.639 254.24 461.748 254.069 461.748L254.062 461.74ZM318.513 459.744C318.335 459.744 318.173 459.613 318.134 459.435C317.84 457.934 316.919 456.472 315.395 455.095C315.241 454.955 315.225 454.708 315.364 454.545C315.504 454.383 315.751 454.375 315.914 454.514C317.569 456.007 318.575 457.609 318.9 459.28C318.939 459.489 318.807 459.69 318.59 459.736C318.567 459.736 318.544 459.736 318.513 459.736V459.744ZM243.633 458.39C243.587 458.39 243.548 458.39 243.501 458.367C241.738 457.74 240.012 457.091 238.357 456.441C238.156 456.363 238.063 456.139 238.14 455.938C238.218 455.737 238.442 455.644 238.643 455.721C240.283 456.371 242.008 457.021 243.757 457.64C243.958 457.709 244.066 457.934 243.989 458.135C243.935 458.297 243.78 458.39 243.625 458.39H243.633ZM233.46 454.344C233.406 454.344 233.351 454.336 233.305 454.313C231.603 453.555 229.932 452.758 228.346 451.954C228.153 451.861 228.083 451.621 228.176 451.435C228.269 451.242 228.508 451.172 228.694 451.265C230.272 452.062 231.928 452.851 233.622 453.609C233.816 453.694 233.908 453.926 233.816 454.12C233.754 454.267 233.607 454.352 233.46 454.352V454.344ZM275.638 453.679C275.561 453.679 275.476 453.656 275.406 453.601C275.236 453.478 275.197 453.23 275.321 453.06C276.373 451.636 277.611 450.437 279.004 449.509C279.135 449.424 279.267 449.331 279.406 449.246C279.584 449.13 279.824 449.192 279.94 449.37C280.056 449.548 279.994 449.787 279.816 449.903C279.692 449.981 279.561 450.066 279.437 450.151C278.122 451.033 276.946 452.17 275.948 453.524C275.87 453.625 275.754 453.679 275.638 453.679ZM311.125 452.132C311.063 452.132 311.001 452.116 310.939 452.085C310.289 451.737 309.655 451.412 309.052 451.11C308.069 450.623 307.056 450.174 306.027 449.772C305.825 449.695 305.733 449.47 305.81 449.269C305.887 449.068 306.112 448.975 306.313 449.052C307.357 449.462 308.394 449.919 309.392 450.414C310.003 450.716 310.645 451.041 311.303 451.397C311.488 451.497 311.558 451.737 311.458 451.923C311.388 452.054 311.256 452.124 311.117 452.124L311.125 452.132ZM223.704 449.385C223.635 449.385 223.573 449.37 223.511 449.331C221.894 448.395 220.323 447.412 218.846 446.422C218.668 446.306 218.621 446.066 218.737 445.888C218.853 445.71 219.093 445.664 219.271 445.78C220.741 446.762 222.296 447.737 223.898 448.666C224.083 448.774 224.145 449.006 224.037 449.192C223.967 449.315 223.836 449.385 223.704 449.385ZM300.952 448.17C300.952 448.17 300.89 448.171 300.859 448.163C299.103 447.745 297.3 447.451 295.513 447.289C295.296 447.265 295.142 447.08 295.165 446.871C295.188 446.654 295.374 446.499 295.583 446.523C297.408 446.693 299.242 446.995 301.037 447.42C301.246 447.466 301.369 447.675 301.323 447.884C301.284 448.062 301.122 448.178 300.944 448.178L300.952 448.17ZM284.667 447.915C284.489 447.915 284.334 447.799 284.287 447.621C284.233 447.412 284.365 447.203 284.574 447.157C285.842 446.848 287.189 446.639 288.705 446.499C289.154 446.461 289.61 446.43 290.059 446.407C290.275 446.391 290.453 446.561 290.469 446.77C290.477 446.987 290.314 447.165 290.105 447.18C289.664 447.203 289.216 447.234 288.775 447.273C287.297 447.405 285.989 447.613 284.759 447.907C284.728 447.907 284.698 447.915 284.667 447.915ZM214.629 443.273C214.544 443.273 214.459 443.25 214.39 443.188C212.92 442.036 211.512 440.836 210.204 439.614C210.05 439.467 210.042 439.227 210.181 439.065C210.328 438.91 210.568 438.902 210.73 439.042C212.03 440.248 213.415 441.44 214.869 442.577C215.039 442.709 215.07 442.948 214.931 443.119C214.854 443.219 214.738 443.266 214.629 443.266V443.273ZM206.646 435.808C206.537 435.808 206.429 435.761 206.352 435.676C205.129 434.284 203.984 432.822 202.955 431.328C202.832 431.151 202.878 430.911 203.056 430.787C203.234 430.663 203.474 430.71 203.597 430.888C204.611 432.357 205.733 433.796 206.94 435.166C207.079 435.328 207.063 435.568 206.901 435.715C206.823 435.777 206.738 435.808 206.646 435.808ZM200.456 426.81C200.317 426.81 200.178 426.733 200.116 426.602C199.257 424.938 198.522 423.229 197.927 421.527C197.857 421.325 197.965 421.101 198.166 421.031C198.368 420.962 198.592 421.07 198.662 421.271C199.242 422.942 199.961 424.613 200.805 426.246C200.905 426.439 200.828 426.671 200.642 426.764C200.588 426.795 200.526 426.81 200.464 426.81H200.456ZM196.898 416.498C196.712 416.498 196.55 416.366 196.519 416.181C196.441 415.771 196.379 415.353 196.318 414.943C196.132 413.597 196.031 412.212 196.031 410.827V410.672C196.031 410.456 196.209 410.278 196.418 410.286C196.635 410.286 196.805 410.464 196.805 410.672V410.827C196.805 412.181 196.898 413.527 197.083 414.835C197.138 415.237 197.207 415.647 197.277 416.049C197.315 416.258 197.176 416.459 196.967 416.498C196.944 416.498 196.921 416.498 196.898 416.498ZM196.936 405.605C196.936 405.605 196.89 405.605 196.867 405.605C196.658 405.566 196.519 405.365 196.557 405.156C196.89 403.346 197.385 401.551 198.019 399.818C198.097 399.617 198.313 399.517 198.515 399.586C198.716 399.664 198.816 399.88 198.747 400.081C198.12 401.776 197.64 403.524 197.315 405.288C197.285 405.474 197.122 405.605 196.936 405.605ZM200.712 395.385C200.642 395.385 200.58 395.37 200.518 395.331C200.333 395.223 200.271 394.991 200.379 394.805C201.315 393.196 202.398 391.672 203.59 390.287C203.729 390.125 203.976 390.109 204.131 390.248C204.294 390.388 204.309 390.635 204.17 390.798C203.009 392.144 201.957 393.629 201.044 395.2C200.975 395.324 200.843 395.393 200.712 395.393V395.385ZM207.829 387.154C207.713 387.154 207.597 387.1 207.527 387.007C207.396 386.837 207.427 386.597 207.597 386.465C209.021 385.359 210.591 384.361 212.278 383.502C212.471 383.402 212.703 383.479 212.796 383.673C212.896 383.866 212.819 384.098 212.626 384.191C210.986 385.026 209.446 385.993 208.069 387.069C207.999 387.123 207.914 387.154 207.829 387.154ZM255.369 382.357C253.729 382.334 251.981 382.179 249.868 381.87C249.66 381.839 249.513 381.646 249.544 381.429C249.574 381.212 249.768 381.073 249.985 381.104C252.066 381.406 253.775 381.561 255.385 381.584C255.601 381.584 255.771 381.762 255.764 381.978C255.764 382.187 255.586 382.357 255.377 382.357H255.369ZM217.507 382.156C217.345 382.156 217.19 382.056 217.136 381.893C217.066 381.692 217.182 381.475 217.384 381.406C219.039 380.864 220.834 380.4 222.722 380.021C222.931 379.982 223.132 380.114 223.178 380.323C223.217 380.532 223.085 380.733 222.876 380.779C221.02 381.151 219.248 381.615 217.623 382.141C217.585 382.156 217.546 382.156 217.5 382.156H217.507ZM244.523 380.942C244.523 380.942 244.476 380.942 244.453 380.942C242.79 380.632 240.91 380.284 239.069 380.021C238.86 379.99 238.713 379.797 238.736 379.58C238.767 379.371 238.96 379.224 239.177 379.247C241.034 379.51 242.921 379.859 244.592 380.176C244.801 380.214 244.94 380.416 244.902 380.624C244.871 380.81 244.708 380.942 244.523 380.942ZM228.214 379.944C228.021 379.944 227.851 379.797 227.828 379.603C227.804 379.394 227.959 379.201 228.168 379.178C229.151 379.062 230.203 378.961 231.286 378.876C231.974 378.822 232.694 378.791 233.421 378.791H233.676C233.893 378.791 234.063 378.969 234.063 379.186C234.063 379.402 233.862 379.565 233.676 379.572H233.429C232.717 379.572 232.021 379.596 231.355 379.65C230.28 379.735 229.243 379.835 228.269 379.944C228.253 379.944 228.238 379.944 228.222 379.944H228.214Z" fill="#407BFF"/>
<g opacity="0.6">
<path d="M260.793 381.808C260.615 381.808 260.46 381.684 260.414 381.507C260.368 381.298 260.491 381.089 260.7 381.042C261.567 380.841 262.418 380.57 263.222 380.246C263.423 380.168 263.648 380.261 263.725 380.462C263.803 380.663 263.71 380.888 263.509 380.965C262.665 381.305 261.783 381.584 260.878 381.801C260.847 381.801 260.816 381.808 260.785 381.808H260.793Z" fill="white"/>
<path d="M231.719 515.453C231.518 515.453 231.34 515.291 231.332 515.082C231.324 514.866 231.487 514.688 231.704 514.68C233.491 514.595 235.316 514.425 237.127 514.192C237.336 514.162 237.529 514.316 237.56 514.525C237.591 514.734 237.436 514.927 237.227 514.958C235.402 515.198 233.553 515.368 231.742 515.453H231.727H231.719ZM242.565 514.03C242.387 514.03 242.225 513.906 242.186 513.728C242.14 513.519 242.271 513.311 242.48 513.272C244.298 512.877 246.07 512.413 247.741 511.887C247.942 511.825 248.159 511.933 248.228 512.142C248.29 512.343 248.182 512.56 247.973 512.63C246.279 513.164 244.492 513.635 242.643 514.038C242.612 514.038 242.589 514.045 242.558 514.045L242.565 514.03ZM252.978 510.688C252.832 510.688 252.692 510.603 252.63 510.464C252.545 510.27 252.63 510.038 252.824 509.953C254.232 509.311 255.508 508.615 256.607 507.895C256.916 507.694 257.218 507.493 257.527 507.284C257.705 507.16 257.945 507.207 258.069 507.384C258.193 507.562 258.146 507.802 257.968 507.918C257.659 508.127 257.35 508.336 257.04 508.537C255.911 509.28 254.603 509.992 253.156 510.649C253.102 510.672 253.048 510.688 252.994 510.688H252.978ZM262.084 504.661C261.976 504.661 261.868 504.615 261.79 504.53C261.651 504.367 261.666 504.127 261.829 503.98C263.268 502.735 264.544 501.443 265.627 500.136C265.767 499.973 266.007 499.95 266.169 500.089C266.331 500.228 266.355 500.468 266.215 500.631C265.101 501.969 263.794 503.292 262.324 504.561C262.254 504.623 262.162 504.654 262.069 504.654L262.084 504.661ZM268.962 496.229C268.9 496.229 268.846 496.213 268.784 496.19C268.59 496.089 268.521 495.857 268.614 495.672C268.861 495.184 269.093 494.681 269.302 494.186C269.774 493.065 270.161 491.865 270.463 490.628C270.517 490.419 270.726 490.295 270.927 490.341C271.136 490.395 271.259 490.604 271.213 490.805C270.904 492.082 270.494 493.32 270.014 494.48C269.797 494.999 269.557 495.509 269.302 496.02C269.233 496.151 269.101 496.229 268.954 496.229H268.962ZM271.646 485.692C271.646 485.692 271.631 485.692 271.623 485.692C271.406 485.676 271.252 485.491 271.259 485.282C271.329 484.23 271.368 483.116 271.368 481.878C271.368 481.197 271.36 480.524 271.337 479.843C271.337 479.626 271.499 479.449 271.716 479.449C271.933 479.425 272.11 479.611 272.11 479.828C272.126 480.516 272.141 481.197 272.141 481.885C272.141 483.139 272.103 484.268 272.033 485.336C272.018 485.537 271.847 485.7 271.646 485.7V485.692ZM271.499 474.745C271.29 474.745 271.12 474.582 271.112 474.373C271.043 472.803 270.973 471.109 270.973 469.422V468.881C270.973 468.664 271.128 468.478 271.368 468.494C271.584 468.494 271.755 468.672 271.755 468.881V469.415C271.755 471.086 271.816 472.764 271.886 474.327C271.894 474.544 271.731 474.722 271.515 474.729H271.499V474.745ZM304.58 469.979C303.876 469.979 303.187 469.964 302.53 469.933C302.313 469.925 302.151 469.739 302.158 469.531C302.166 469.322 302.352 469.151 302.561 469.159C303.211 469.19 303.891 469.206 304.58 469.206C305.795 469.206 306.932 469.151 307.976 469.035C308.185 469.012 308.378 469.167 308.402 469.376C308.425 469.585 308.27 469.778 308.061 469.801C306.994 469.917 305.825 469.972 304.588 469.972L304.58 469.979ZM297.083 469.585C297.083 469.585 297.06 469.585 297.052 469.585C295.242 469.445 293.401 469.283 291.591 469.09C291.382 469.066 291.227 468.881 291.242 468.664C291.266 468.455 291.451 468.293 291.668 468.316C293.471 468.502 295.304 468.664 297.114 468.803C297.331 468.819 297.486 469.004 297.47 469.221C297.455 469.422 297.285 469.577 297.083 469.577V469.585ZM313.307 468.478C313.16 468.478 313.02 468.393 312.951 468.254C312.866 468.061 312.951 467.829 313.144 467.743C314.885 466.954 316.208 465.833 317.074 464.401C317.182 464.216 317.422 464.162 317.608 464.27C317.794 464.378 317.848 464.618 317.739 464.804C316.78 466.366 315.349 467.596 313.461 468.447C313.407 468.471 313.353 468.478 313.299 468.478H313.307ZM286.191 468.463C286.191 468.463 286.16 468.463 286.144 468.463C284.342 468.231 282.516 467.968 280.713 467.689C280.504 467.658 280.357 467.457 280.388 467.248C280.419 467.039 280.62 466.892 280.829 466.923C282.624 467.202 284.442 467.465 286.237 467.697C286.446 467.728 286.601 467.921 286.57 468.13C286.547 468.324 286.376 468.471 286.183 468.471L286.191 468.463ZM275.367 466.776C275.367 466.776 275.321 466.776 275.298 466.776C273.511 466.451 271.7 466.096 269.913 465.724C269.704 465.678 269.573 465.477 269.612 465.268C269.658 465.059 269.859 464.927 270.068 464.966C271.847 465.337 273.65 465.693 275.429 466.018C275.638 466.057 275.778 466.258 275.739 466.467C275.708 466.653 275.545 466.784 275.36 466.784L275.367 466.776ZM264.653 464.533C264.653 464.533 264.591 464.533 264.56 464.525C262.788 464.107 261.001 463.659 259.237 463.194C259.028 463.14 258.905 462.931 258.959 462.723C259.013 462.514 259.222 462.39 259.431 462.444C261.187 462.908 262.966 463.349 264.73 463.767C264.939 463.813 265.07 464.022 265.016 464.231C264.978 464.409 264.815 464.533 264.637 464.533H264.653ZM271.755 463.806C271.755 463.806 271.716 463.806 271.7 463.806C271.492 463.775 271.345 463.574 271.376 463.365C271.662 461.454 272.118 459.644 272.729 457.988C272.807 457.787 273.023 457.686 273.225 457.756C273.426 457.833 273.526 458.05 273.457 458.251C272.861 459.86 272.42 461.616 272.141 463.473C272.11 463.666 271.948 463.806 271.762 463.806H271.755ZM254.062 461.74C254.062 461.74 253.992 461.74 253.953 461.725C252.205 461.214 250.441 460.672 248.708 460.123C248.507 460.061 248.391 459.837 248.46 459.636C248.522 459.435 248.747 459.319 248.948 459.388C250.673 459.937 252.437 460.479 254.178 460.99C254.387 461.052 254.503 461.26 254.441 461.469C254.394 461.639 254.24 461.748 254.069 461.748L254.062 461.74ZM318.513 459.744C318.335 459.744 318.173 459.613 318.134 459.435C317.84 457.934 316.919 456.472 315.395 455.095C315.241 454.955 315.225 454.708 315.364 454.545C315.504 454.383 315.751 454.375 315.914 454.514C317.569 456.007 318.575 457.609 318.9 459.28C318.939 459.489 318.807 459.69 318.59 459.736C318.567 459.736 318.544 459.736 318.513 459.736V459.744ZM243.633 458.39C243.587 458.39 243.548 458.39 243.501 458.367C241.738 457.74 240.012 457.091 238.357 456.441C238.156 456.363 238.063 456.139 238.14 455.938C238.218 455.737 238.442 455.644 238.643 455.721C240.283 456.371 242.008 457.021 243.757 457.64C243.958 457.709 244.066 457.934 243.989 458.135C243.935 458.297 243.78 458.39 243.625 458.39H243.633ZM233.46 454.344C233.406 454.344 233.351 454.336 233.305 454.313C231.603 453.555 229.932 452.758 228.346 451.954C228.153 451.861 228.083 451.621 228.176 451.435C228.269 451.242 228.508 451.172 228.694 451.265C230.272 452.062 231.928 452.851 233.622 453.609C233.816 453.694 233.908 453.926 233.816 454.12C233.754 454.267 233.607 454.352 233.46 454.352V454.344ZM275.638 453.679C275.561 453.679 275.476 453.656 275.406 453.601C275.236 453.478 275.197 453.23 275.321 453.06C276.373 451.636 277.611 450.437 279.004 449.509C279.135 449.424 279.267 449.331 279.406 449.246C279.584 449.13 279.824 449.192 279.94 449.37C280.056 449.548 279.994 449.787 279.816 449.903C279.692 449.981 279.561 450.066 279.437 450.151C278.122 451.033 276.946 452.17 275.948 453.524C275.87 453.625 275.754 453.679 275.638 453.679ZM311.125 452.132C311.063 452.132 311.001 452.116 310.939 452.085C310.289 451.737 309.655 451.412 309.052 451.11C308.069 450.623 307.056 450.174 306.027 449.772C305.825 449.695 305.733 449.47 305.81 449.269C305.887 449.068 306.112 448.975 306.313 449.052C307.357 449.462 308.394 449.919 309.392 450.414C310.003 450.716 310.645 451.041 311.303 451.397C311.488 451.497 311.558 451.737 311.458 451.923C311.388 452.054 311.256 452.124 311.117 452.124L311.125 452.132ZM223.704 449.385C223.635 449.385 223.573 449.37 223.511 449.331C221.894 448.395 220.323 447.412 218.846 446.422C218.668 446.306 218.621 446.066 218.737 445.888C218.853 445.71 219.093 445.664 219.271 445.78C220.741 446.762 222.296 447.737 223.898 448.666C224.083 448.774 224.145 449.006 224.037 449.192C223.967 449.315 223.836 449.385 223.704 449.385ZM300.952 448.17C300.952 448.17 300.89 448.171 300.859 448.163C299.103 447.745 297.3 447.451 295.513 447.289C295.296 447.265 295.142 447.08 295.165 446.871C295.188 446.654 295.374 446.499 295.583 446.523C297.408 446.693 299.242 446.995 301.037 447.42C301.246 447.466 301.369 447.675 301.323 447.884C301.284 448.062 301.122 448.178 300.944 448.178L300.952 448.17ZM284.667 447.915C284.489 447.915 284.334 447.799 284.287 447.621C284.233 447.412 284.365 447.203 284.574 447.157C285.842 446.848 287.189 446.639 288.705 446.499C289.154 446.461 289.61 446.43 290.059 446.407C290.275 446.391 290.453 446.561 290.469 446.77C290.477 446.987 290.314 447.165 290.105 447.18C289.664 447.203 289.216 447.234 288.775 447.273C287.297 447.405 285.989 447.613 284.759 447.907C284.728 447.907 284.698 447.915 284.667 447.915ZM214.629 443.273C214.544 443.273 214.459 443.25 214.39 443.188C212.92 442.036 211.512 440.836 210.204 439.614C210.05 439.467 210.042 439.227 210.181 439.065C210.328 438.91 210.568 438.902 210.73 439.042C212.03 440.248 213.415 441.44 214.869 442.577C215.039 442.709 215.07 442.948 214.931 443.119C214.854 443.219 214.738 443.266 214.629 443.266V443.273ZM206.646 435.808C206.537 435.808 206.429 435.761 206.352 435.676C205.129 434.284 203.984 432.822 202.955 431.328C202.832 431.151 202.878 430.911 203.056 430.787C203.234 430.663 203.474 430.71 203.597 430.888C204.611 432.357 205.733 433.796 206.94 435.166C207.079 435.328 207.063 435.568 206.901 435.715C206.823 435.777 206.738 435.808 206.646 435.808ZM200.456 426.81C200.317 426.81 200.178 426.733 200.116 426.602C199.257 424.938 198.522 423.229 197.927 421.527C197.857 421.325 197.965 421.101 198.166 421.031C198.368 420.962 198.592 421.07 198.662 421.271C199.242 422.942 199.961 424.613 200.805 426.246C200.905 426.439 200.828 426.671 200.642 426.764C200.588 426.795 200.526 426.81 200.464 426.81H200.456ZM196.898 416.498C196.712 416.498 196.55 416.366 196.519 416.181C196.441 415.771 196.379 415.353 196.318 414.943C196.132 413.597 196.031 412.212 196.031 410.827V410.672C196.031 410.456 196.209 410.278 196.418 410.286C196.635 410.286 196.805 410.464 196.805 410.672V410.827C196.805 412.181 196.898 413.527 197.083 414.835C197.138 415.237 197.207 415.647 197.277 416.049C197.315 416.258 197.176 416.459 196.967 416.498C196.944 416.498 196.921 416.498 196.898 416.498ZM196.936 405.605C196.936 405.605 196.89 405.605 196.867 405.605C196.658 405.566 196.519 405.365 196.557 405.156C196.89 403.346 197.385 401.551 198.019 399.818C198.097 399.617 198.313 399.517 198.515 399.586C198.716 399.664 198.816 399.88 198.747 400.081C198.12 401.776 197.64 403.524 197.315 405.288C197.285 405.474 197.122 405.605 196.936 405.605ZM200.712 395.385C200.642 395.385 200.58 395.37 200.518 395.331C200.333 395.223 200.271 394.991 200.379 394.805C201.315 393.196 202.398 391.672 203.59 390.287C203.729 390.125 203.976 390.109 204.131 390.248C204.294 390.388 204.309 390.635 204.17 390.798C203.009 392.144 201.957 393.629 201.044 395.2C200.975 395.324 200.843 395.393 200.712 395.393V395.385ZM207.829 387.154C207.713 387.154 207.597 387.1 207.527 387.007C207.396 386.837 207.427 386.597 207.597 386.465C209.021 385.359 210.591 384.361 212.278 383.502C212.471 383.402 212.703 383.479 212.796 383.673C212.896 383.866 212.819 384.098 212.626 384.191C210.986 385.026 209.446 385.993 208.069 387.069C207.999 387.123 207.914 387.154 207.829 387.154ZM255.369 382.357C253.729 382.334 251.981 382.179 249.868 381.87C249.66 381.839 249.513 381.646 249.544 381.429C249.574 381.212 249.768 381.073 249.985 381.104C252.066 381.406 253.775 381.561 255.385 381.584C255.601 381.584 255.771 381.762 255.764 381.978C255.764 382.187 255.586 382.357 255.377 382.357H255.369ZM217.507 382.156C217.345 382.156 217.19 382.056 217.136 381.893C217.066 381.692 217.182 381.475 217.384 381.406C219.039 380.864 220.834 380.4 222.722 380.021C222.931 379.982 223.132 380.114 223.178 380.323C223.217 380.532 223.085 380.733 222.876 380.779C221.02 381.151 219.248 381.615 217.623 382.141C217.585 382.156 217.546 382.156 217.5 382.156H217.507ZM244.523 380.942C244.523 380.942 244.476 380.942 244.453 380.942C242.79 380.632 240.91 380.284 239.069 380.021C238.86 379.99 238.713 379.797 238.736 379.58C238.767 379.371 238.96 379.224 239.177 379.247C241.034 379.51 242.921 379.859 244.592 380.176C244.801 380.214 244.94 380.416 244.902 380.624C244.871 380.81 244.708 380.942 244.523 380.942ZM228.214 379.944C228.021 379.944 227.851 379.797 227.828 379.603C227.804 379.394 227.959 379.201 228.168 379.178C229.151 379.062 230.203 378.961 231.286 378.876C231.974 378.822 232.694 378.791 233.421 378.791H233.676C233.893 378.791 234.063 378.969 234.063 379.186C234.063 379.402 233.862 379.565 233.676 379.572H233.429C232.717 379.572 232.021 379.596 231.355 379.65C230.28 379.735 229.243 379.835 228.269 379.944C228.253 379.944 228.238 379.944 228.222 379.944H228.214Z" fill="white"/>
</g>
</g>
</g>
<defs>
<clipPath id="clip0_44918_106554">
<rect width="450" height="450" fill="white"/>
</clipPath>
<clipPath id="clip1_44918_106554">
<rect width="400" height="400" fill="white"/>
</clipPath>
</defs>
</svg>
