<svg width="131" height="183" viewBox="0 0 131 183" fill="none" xmlns="http://www.w3.org/2000/svg">
<path d="M16.0004 4.52246L40.3258 10.0893L43.4438 12.0225L16.0004 4.52246Z" fill="#407BFF"/>
<path opacity="0.2" d="M40.3258 10.0893L43.4438 12.0225L16.0004 4.52246" fill="black"/>
<path d="M16.0005 4.52246L40.3259 10.0893L38.0375 11.783L16.0005 4.52246Z" fill="#407BFF"/>
<path d="M28.2294 1.54874L40.4355 1.04582C41.0497 1.02052 41.568 1.49992 41.5932 2.1166L41.82 7.66493C41.8452 8.28161 41.3677 8.80204 40.7535 8.82735L28.5475 9.33027C27.9333 9.35557 27.4149 8.87617 27.3897 8.25949L27.1629 2.71117C27.1377 2.09448 27.6152 1.57405 28.2294 1.54874Z" fill="#407BFF"/>
<path opacity="0.8" d="M28.2294 1.54874L40.4355 1.04582C41.0497 1.02052 41.568 1.49992 41.5932 2.1166L41.82 7.66493C41.8452 8.28161 41.3677 8.80204 40.7535 8.82735L28.5475 9.33027C27.9333 9.35557 27.4149 8.87617 27.3897 8.25949L27.1629 2.71117C27.1377 2.09448 27.6152 1.57405 28.2294 1.54874Z" fill="white"/>
<path opacity="0.4" d="M34.5455 6.6777C34.58 6.6777 34.6146 6.66729 34.6423 6.64646L40.9509 2.27695C41.0304 2.22142 41.0477 2.11383 40.9958 2.03401C40.9405 1.95418 40.8334 1.93683 40.7539 1.98889L34.5351 6.29593L27.9845 2.51295C27.9015 2.46436 27.7978 2.49213 27.7494 2.57542C27.701 2.65872 27.7287 2.76284 27.8116 2.81143L34.4556 6.64646C34.4832 6.66034 34.5109 6.67076 34.542 6.67076L34.5455 6.6777Z" fill="#407BFF"/>
<path opacity="0.4" d="M28.1294 8.36795C28.164 8.36795 28.1986 8.35754 28.2262 8.33671L31.842 5.81357C31.9215 5.75804 31.9388 5.65045 31.887 5.57063C31.8317 5.4908 31.7245 5.47345 31.645 5.52551L28.0292 8.04865C27.9497 8.10418 27.9324 8.21177 27.9842 8.2916C28.0188 8.34018 28.0707 8.36448 28.126 8.36448L28.1294 8.36795Z" fill="#407BFF"/>
<path opacity="0.4" d="M41.0824 7.83345C41.1412 7.83345 41.2 7.80221 41.2311 7.74668C41.2795 7.66339 41.2518 7.55927 41.1688 7.51068L37.3595 5.29295C37.2765 5.24436 37.1728 5.27213 37.1244 5.35542C37.076 5.43872 37.1037 5.54284 37.1866 5.59143L40.996 7.80915C41.0237 7.8265 41.0548 7.83345 41.0824 7.83345Z" fill="#407BFF"/>
<path d="M16.0003 4.52246L36.8551 8.80174L38.0374 11.783L16.0003 4.52246Z" fill="#407BFF"/>
<path opacity="0.2" d="M16.0003 4.52246L36.8551 8.80174L38.0374 11.783L16.0003 4.52246Z" fill="black"/>
<path d="M15.9999 4.52246L36.8547 8.80174L30.2868 11.193L15.9999 4.52246Z" fill="#407BFF"/>
<path d="M44.9129 14.4205C44.9925 14.4205 45.0616 14.365 45.0823 14.2852C45.1031 14.1915 45.0478 14.0978 44.9544 14.0769C44.5673 13.9867 44.187 13.8652 43.8275 13.7195C43.7376 13.6847 43.6374 13.7264 43.6028 13.8166C43.5683 13.9069 43.6097 14.0075 43.6996 14.0422C44.0764 14.1949 44.4705 14.3199 44.8749 14.4171C44.8888 14.4171 44.9026 14.4205 44.9164 14.4205H44.9129Z" fill="#407BFF"/>
<path d="M57.9034 74.3754C57.9933 74.3754 58.0728 74.3025 58.0763 74.2088C58.0797 74.1117 58.0071 74.0318 57.9103 74.0284C57.1118 73.9902 56.296 73.9138 55.4871 73.8097C55.3938 73.7958 55.3074 73.8652 55.2936 73.959C55.2797 74.0527 55.3489 74.1394 55.4422 74.1533C56.258 74.2609 57.0842 74.3372 57.8931 74.3754H57.9H57.9034ZM53.057 73.7368C53.1365 73.7368 53.2091 73.6813 53.2264 73.6015C53.2471 73.5078 53.1884 73.4141 53.095 73.3967C52.2827 73.2197 51.4911 73.0115 50.7444 72.7755C50.6545 72.7477 50.5577 72.7963 50.5266 72.89C50.499 72.9802 50.5474 73.0774 50.6407 73.1087C51.3978 73.3481 52.1963 73.5598 53.0224 73.7403C53.0363 73.7403 53.0466 73.7438 53.0605 73.7438L53.057 73.7368ZM48.4042 72.2375C48.4698 72.2375 48.5321 72.1993 48.5597 72.1369C48.5977 72.0501 48.5597 71.946 48.4733 71.9078C47.8442 71.6198 47.2738 71.3074 46.7829 70.9846C46.6447 70.8944 46.5098 70.8042 46.3716 70.7104C46.2921 70.6549 46.1849 70.6757 46.1296 70.7556C46.0743 70.8354 46.095 70.943 46.1745 70.995C46.3128 71.0887 46.4511 71.1825 46.5894 71.2727C47.094 71.6059 47.6782 71.9252 48.3247 72.2202C48.3489 72.2306 48.3731 72.2375 48.3972 72.2375H48.4042ZM44.3355 69.5339C44.3839 69.5339 44.4323 69.5131 44.4669 69.4749C44.5291 69.402 44.5222 69.2944 44.4496 69.2285C43.8066 68.6697 43.2363 68.0901 42.7523 67.5036C42.6901 67.4307 42.5829 67.4203 42.5103 67.4828C42.4377 67.5452 42.4274 67.6528 42.4896 67.7257C42.9874 68.3261 43.5716 68.9196 44.2284 69.4888C44.2595 69.5166 44.301 69.5304 44.3424 69.5304L44.3355 69.5339ZM41.2624 65.7509C41.2901 65.7509 41.3143 65.744 41.3419 65.7336C41.4284 65.6885 41.4595 65.5843 41.418 65.501C41.3074 65.2824 41.2037 65.0568 41.1103 64.8347C40.8995 64.3314 40.7266 63.7935 40.5918 63.2382C40.5676 63.1445 40.4743 63.089 40.3844 63.1098C40.2911 63.1341 40.2358 63.2278 40.2565 63.318C40.3948 63.8907 40.578 64.446 40.7923 64.9666C40.8891 65.1991 40.9963 65.4282 41.1103 65.6572C41.1414 65.7162 41.2002 65.7509 41.2659 65.7509H41.2624ZM40.0629 61.0239C40.0629 61.0239 40.0698 61.0239 40.0733 61.0239C40.1701 61.017 40.2392 60.9337 40.2358 60.84C40.2047 60.368 40.1874 59.8682 40.1874 59.3129C40.1874 59.0075 40.1908 58.7056 40.2012 58.4002C40.2012 58.303 40.1286 58.2232 40.0318 58.2232C39.935 58.2127 39.8555 58.296 39.8555 58.3932C39.8486 58.7021 39.8417 59.0075 39.8417 59.3164C39.8417 59.8786 39.859 60.3854 39.8901 60.8643C39.897 60.9545 39.9731 61.0274 40.0629 61.0274V61.0239ZM40.1286 56.113C40.2219 56.113 40.298 56.0401 40.3015 55.9464C40.3326 55.2419 40.3637 54.4818 40.3637 53.7252V53.4823C40.3637 53.3851 40.2945 53.3018 40.1874 53.3088C40.0906 53.3088 40.0145 53.3886 40.0145 53.4823V53.7218C40.0145 54.4714 39.9869 55.2245 39.9558 55.9256C39.9523 56.0228 40.0249 56.1026 40.1217 56.1061H40.1286V56.113ZM25.3474 53.9751C25.6619 53.9751 25.9696 53.9682 26.2634 53.9543C26.3602 53.9508 26.4328 53.8675 26.4293 53.7738C26.4259 53.6801 26.3429 53.6038 26.2496 53.6072C25.9592 53.6211 25.655 53.628 25.3474 53.628C24.8047 53.628 24.2965 53.6038 23.8298 53.5517C23.7365 53.5413 23.6501 53.6107 23.6397 53.7044C23.6293 53.7981 23.6985 53.8849 23.7918 53.8953C24.2689 53.9473 24.7908 53.9716 25.3439 53.9716L25.3474 53.9751ZM28.697 53.7981C28.697 53.7981 28.7074 53.7981 28.7108 53.7981C29.5197 53.7356 30.3424 53.6628 31.1513 53.576C31.2447 53.5656 31.3138 53.4823 31.3069 53.3851C31.2965 53.2914 31.2135 53.2185 31.1168 53.2289C30.3113 53.3122 29.4921 53.3851 28.6832 53.4476C28.5864 53.4545 28.5172 53.5378 28.5242 53.635C28.5311 53.7252 28.6071 53.7946 28.697 53.7946V53.7981ZM21.4481 53.3018C21.5138 53.3018 21.576 53.2636 21.6071 53.2012C21.6451 53.1144 21.6071 53.0103 21.5207 52.9721C20.7429 52.6181 20.1518 52.1149 19.7647 51.4728C19.7163 51.3895 19.6091 51.3652 19.5261 51.4138C19.4432 51.4624 19.419 51.57 19.4674 51.6533C19.896 52.3543 20.5355 52.9062 21.379 53.2879C21.4032 53.2983 21.4274 53.3018 21.4516 53.3018H21.4481ZM33.5642 53.2949C33.5642 53.2949 33.578 53.2949 33.5849 53.2949C34.3903 53.1907 35.2061 53.0727 36.0116 52.9478C36.1049 52.9339 36.1706 52.8437 36.1568 52.75C36.1429 52.6563 36.0531 52.5903 35.9597 52.6042C35.1577 52.7292 34.3454 52.8472 33.5434 52.9513C33.4501 52.9652 33.381 53.0519 33.3948 53.1456C33.4051 53.2324 33.4812 53.2983 33.5676 53.2983L33.5642 53.2949ZM38.4002 52.5383C38.4002 52.5383 38.421 52.5383 38.4313 52.5383C39.2298 52.3925 40.0387 52.2329 40.8372 52.0663C40.9306 52.0454 40.9894 51.9552 40.9721 51.8615C40.9513 51.7678 40.8615 51.7088 40.7681 51.7262C39.9731 51.8927 39.1676 52.0524 38.3726 52.1982C38.2792 52.2155 38.217 52.3057 38.2343 52.3995C38.2481 52.4827 38.3207 52.5417 38.4037 52.5417L38.4002 52.5383ZM43.1879 51.5318C43.1879 51.5318 43.2155 51.5318 43.2294 51.5283C44.021 51.3409 44.8195 51.1396 45.6076 50.9314C45.701 50.9071 45.7563 50.8134 45.7321 50.7197C45.7079 50.626 45.6145 50.5704 45.5212 50.5947C44.7365 50.803 43.9415 51.0008 43.1533 51.1882C43.06 51.209 43.0012 51.3027 43.0254 51.3964C43.0427 51.4763 43.1153 51.5318 43.1948 51.5318H43.1879ZM40.0145 51.2056C40.0145 51.2056 40.0318 51.2056 40.0387 51.2056C40.1321 51.1917 40.1978 51.1014 40.1839 51.0077C40.056 50.1505 39.8521 49.3384 39.579 48.5956C39.5444 48.5054 39.4476 48.4603 39.3577 48.4915C39.2679 48.5262 39.2229 48.6234 39.254 48.7136C39.5202 49.4355 39.7172 50.2234 39.8417 51.0563C39.8555 51.1431 39.9281 51.2056 40.0111 51.2056H40.0145ZM47.9202 50.2789C47.9202 50.2789 47.9513 50.2789 47.9686 50.272C48.7498 50.0429 49.538 49.7999 50.3123 49.5535C50.4022 49.5258 50.454 49.4251 50.4229 49.3349C50.3953 49.2447 50.295 49.1926 50.2052 49.2238C49.4343 49.4702 48.6461 49.7132 47.8684 49.9422C47.775 49.97 47.7232 50.0637 47.7508 50.1574C47.7716 50.2338 47.8407 50.2824 47.9168 50.2824L47.9202 50.2789ZM19.1217 49.3835C19.2012 49.3835 19.2738 49.3245 19.2911 49.2447C19.4224 48.5714 19.8338 47.9154 20.5148 47.2976C20.5839 47.2352 20.5908 47.1241 20.5286 47.0512C20.4664 46.9783 20.3558 46.9749 20.2832 47.0373C19.5434 47.7072 19.094 48.4256 18.9489 49.1752C18.9316 49.2689 18.9903 49.3592 19.0871 49.38C19.0975 49.38 19.1079 49.38 19.1217 49.38V49.3835ZM52.58 48.7761C52.6007 48.7761 52.618 48.7761 52.6387 48.7657C53.4269 48.4846 54.1978 48.1931 54.9375 47.9015C55.0274 47.8668 55.0689 47.7662 55.0343 47.6759C54.9997 47.5857 54.8995 47.5441 54.8096 47.5788C54.0768 47.8703 53.3059 48.1618 52.5247 48.4395C52.4348 48.4707 52.3864 48.5714 52.421 48.6616C52.4452 48.7345 52.5143 48.7761 52.5834 48.7761H52.58ZM57.1257 46.961C57.1499 46.961 57.174 46.9575 57.1948 46.9471C57.9553 46.607 58.7019 46.2495 59.4106 45.8886C59.497 45.8469 59.5281 45.7393 59.4866 45.656C59.4452 45.5693 59.338 45.538 59.255 45.5797C58.5499 45.9371 57.8101 46.2912 57.0531 46.6313C56.9666 46.6695 56.9252 46.7736 56.9666 46.8603C56.9943 46.9263 57.06 46.9645 57.1257 46.9645V46.961ZM38.2792 46.6625C38.3138 46.6625 38.3518 46.6521 38.3829 46.6278C38.459 46.5723 38.4763 46.4612 38.421 46.3849C37.9508 45.7463 37.3977 45.2083 36.7755 44.7918C36.7168 44.7537 36.658 44.712 36.5958 44.6738C36.5163 44.6218 36.4091 44.6496 36.3573 44.7294C36.3054 44.8092 36.3331 44.9168 36.4126 44.9688C36.4679 45.0036 36.5266 45.0417 36.5819 45.0799C37.1696 45.4756 37.695 45.9857 38.141 46.5931C38.1755 46.6382 38.2274 46.6625 38.2792 46.6625ZM22.4229 45.9684C22.4506 45.9684 22.4782 45.9614 22.5059 45.9476C22.7963 45.7914 23.0797 45.6456 23.3493 45.5103C23.7884 45.2916 24.2412 45.0903 24.701 44.9098C24.7908 44.8751 24.8323 44.7745 24.7977 44.6843C24.7632 44.594 24.6629 44.5524 24.5731 44.5871C24.1064 44.771 23.6432 44.9758 23.1972 45.1979C22.9242 45.3333 22.6372 45.479 22.3434 45.6387C22.2605 45.6838 22.2294 45.7914 22.2743 45.8747C22.3054 45.9337 22.3642 45.9649 22.4264 45.9649L22.4229 45.9684ZM61.4847 44.7363C61.5158 44.7363 61.5434 44.7294 61.5711 44.712C62.2936 44.2921 62.9953 43.8513 63.6555 43.4071C63.735 43.355 63.7558 43.2474 63.7039 43.1676C63.6521 43.0878 63.5449 43.0669 63.4654 43.119C62.8086 43.5598 62.1138 43.9971 61.3982 44.4135C61.3153 44.4621 61.2876 44.5663 61.336 44.6496C61.3671 44.7051 61.4259 44.7363 61.4847 44.7363ZM26.9686 44.1914C26.9686 44.1914 26.9963 44.1914 27.0101 44.188C27.7948 44.0005 28.6002 43.8687 29.3987 43.7958C29.4955 43.7854 29.5647 43.7021 29.5543 43.6084C29.5439 43.5112 29.461 43.4418 29.3676 43.4522C28.5518 43.5285 27.7326 43.6639 26.9306 43.8548C26.8373 43.8756 26.7819 43.9693 26.8027 44.063C26.82 44.1428 26.8926 44.1949 26.9721 44.1949L26.9686 44.1914ZM34.2452 44.0769C34.3247 44.0769 34.3938 44.0248 34.4145 43.945C34.4387 43.8513 34.38 43.7576 34.2866 43.7368C33.7197 43.598 33.1182 43.5042 32.4407 43.4418C32.2402 43.4244 32.0363 43.4105 31.8358 43.4001C31.739 43.3932 31.6595 43.4695 31.6526 43.5632C31.6491 43.6604 31.7217 43.7402 31.815 43.7472C32.0121 43.7576 32.2126 43.7715 32.4096 43.7888C33.0698 43.8478 33.654 43.9415 34.2037 44.0734C34.2175 44.0734 34.2313 44.0769 34.2452 44.0769ZM65.5395 41.9945C65.5775 41.9945 65.6155 41.9841 65.6466 41.9564C66.3034 41.4392 66.9326 40.9013 67.5168 40.3529C67.5859 40.287 67.5894 40.1794 67.5271 40.1065C67.4615 40.0371 67.3543 40.0336 67.2817 40.0961C66.701 40.6375 66.0822 41.172 65.4323 41.6822C65.3563 41.7412 65.3424 41.8488 65.4047 41.9251C65.4392 41.9702 65.4911 41.9911 65.5395 41.9911V41.9945ZM69.1069 38.6454C69.1553 38.6454 69.2037 38.6246 69.2382 38.5864C69.7844 37.9617 70.296 37.3057 70.7558 36.6359C70.8111 36.5561 70.7903 36.4485 70.7108 36.3929C70.6313 36.3374 70.5242 36.3582 70.4689 36.4381C70.016 37.0975 69.5148 37.743 68.9755 38.3573C68.9133 38.4302 68.9202 38.5378 68.9928 38.6037C69.0274 38.6315 69.0654 38.6454 69.1069 38.6454ZM71.8723 34.609C71.9345 34.609 71.9968 34.5743 72.0244 34.5153C72.4081 33.7692 72.7365 33.0021 73.0027 32.2386C73.0338 32.1484 72.9854 32.0477 72.8955 32.0165C72.8057 31.9853 72.7054 32.0338 72.6743 32.1241C72.415 32.8737 72.0936 33.6234 71.7168 34.3557C71.6718 34.4425 71.7064 34.5466 71.7894 34.5882C71.8136 34.6021 71.8412 34.609 71.8689 34.609H71.8723ZM73.4624 29.9827C73.5454 29.9827 73.618 29.9237 73.6318 29.8404C73.6664 29.6565 73.6941 29.4691 73.7217 29.2851C73.8047 28.6812 73.8496 28.06 73.8496 27.4387V27.3693C73.8496 27.2721 73.7701 27.1923 73.6768 27.1958C73.58 27.1958 73.5039 27.2756 73.5039 27.3693V27.4387C73.5039 28.0461 73.4624 28.65 73.3795 29.2365C73.3553 29.417 73.3242 29.6009 73.2931 29.7814C73.2758 29.8751 73.338 29.9654 73.4313 29.9827C73.4417 29.9827 73.4521 29.9827 73.4624 29.9827ZM73.4452 25.0961C73.4452 25.0961 73.4659 25.0961 73.4763 25.0961C73.5696 25.0787 73.6318 24.9885 73.6145 24.8948C73.4659 24.0826 73.2447 23.2775 72.9612 22.5C72.9266 22.4098 72.8299 22.3647 72.74 22.3959C72.6501 22.4306 72.6052 22.5278 72.6363 22.618C72.9163 23.3781 73.1306 24.1625 73.2758 24.9538C73.2896 25.0371 73.3622 25.0961 73.4452 25.0961ZM71.7582 20.5114C71.7894 20.5114 71.817 20.5044 71.8447 20.4871C71.9276 20.4385 71.9553 20.3344 71.9069 20.2511C71.4886 19.5292 71.0047 18.8455 70.4723 18.2242C70.4101 18.1514 70.2995 18.1444 70.2303 18.2069C70.1578 18.2694 70.1508 18.3804 70.2131 18.4533C70.7316 19.0572 71.2017 19.7235 71.6096 20.4281C71.6407 20.4836 71.6995 20.5148 71.7582 20.5148V20.5114ZM68.578 16.8186C68.6299 16.8186 68.6817 16.7943 68.7128 16.7527C68.7716 16.6763 68.7578 16.5688 68.6817 16.5098C68.0457 16.0135 67.3439 15.5657 66.5903 15.1805C66.5039 15.1354 66.4002 15.1701 66.3587 15.2569C66.3138 15.3436 66.3484 15.4477 66.4348 15.4894C67.1676 15.8642 67.8555 16.298 68.4708 16.7805C68.5019 16.8048 68.54 16.8186 68.578 16.8186ZM47.336 14.6669C48.0689 14.6564 48.8501 14.587 49.7938 14.4482C49.8871 14.4343 49.9528 14.3476 49.939 14.2504C49.9252 14.1532 49.8387 14.0907 49.7419 14.1046C48.8121 14.24 48.0481 14.3094 47.3291 14.3198C47.2323 14.3198 47.1563 14.3996 47.1597 14.4968C47.1597 14.5905 47.2392 14.6669 47.3326 14.6669H47.336ZM64.2536 14.5766C64.3261 14.5766 64.3953 14.5315 64.4195 14.4586C64.4506 14.3684 64.3987 14.2712 64.3089 14.24C63.5691 13.997 62.7671 13.7888 61.9237 13.6187C61.8303 13.6014 61.7405 13.6604 61.7197 13.7541C61.7024 13.8478 61.7612 13.938 61.8545 13.9588C62.6842 14.1254 63.4758 14.3337 64.2017 14.5697C64.219 14.5766 64.2363 14.5766 64.257 14.5766H64.2536ZM52.1824 14.0317C52.1824 14.0317 52.2032 14.0317 52.2136 14.0317C52.9568 13.8929 53.7968 13.7367 54.6195 13.6187C54.7128 13.6048 54.7785 13.5181 54.7681 13.4209C54.7543 13.3272 54.6679 13.2612 54.5711 13.2717C53.7415 13.3897 52.898 13.5458 52.1513 13.6881C52.058 13.7055 51.9958 13.7957 52.0131 13.8894C52.0269 13.9727 52.0995 14.0317 52.1824 14.0317ZM59.4694 13.584C59.5558 13.584 59.6318 13.5181 59.6422 13.4313C59.6526 13.3376 59.5834 13.2508 59.4901 13.2404C59.0511 13.1884 58.581 13.1432 58.097 13.1051C57.7894 13.0808 57.4679 13.0669 57.1429 13.0669H57.0289C56.9321 13.0669 56.856 13.1467 56.856 13.2439C56.856 13.3411 56.9459 13.414 57.0289 13.4174H57.1395C57.4575 13.4174 57.7686 13.4278 58.0659 13.4521C58.5464 13.4903 59.0096 13.5354 59.4452 13.584C59.4521 13.584 59.459 13.584 59.4659 13.584H59.4694Z" fill="#407BFF"/>
<path d="M60.3859 74.3861C60.3859 74.3861 60.3893 74.3861 60.3928 74.3861C60.8041 74.3687 61.212 74.3409 61.6096 74.3028C61.7029 74.2924 61.7755 74.2091 61.7651 74.1119C61.7548 74.0182 61.6718 73.9453 61.575 73.9557C61.1878 73.9939 60.7834 74.0216 60.379 74.039C60.2822 74.0425 60.2096 74.1258 60.213 74.2195C60.2165 74.3132 60.2925 74.3861 60.3859 74.3861Z" fill="#407BFF"/>
<g opacity="0.6">
<path d="M44.9127 14.4205C44.9922 14.4205 45.0613 14.365 45.0821 14.2852C45.1028 14.1915 45.0475 14.0978 44.9542 14.0769C44.567 13.9867 44.1868 13.8652 43.8273 13.7195C43.7374 13.6847 43.6371 13.7264 43.6026 13.8166C43.568 13.9069 43.6095 14.0075 43.6994 14.0422C44.0762 14.1949 44.4702 14.3199 44.8747 14.4171C44.8885 14.4171 44.9023 14.4205 44.9162 14.4205H44.9127Z" fill="white"/>
<path d="M54.9548 66.5144C55.0211 66.5144 55.0797 66.4601 55.0822 66.3903C55.0848 66.318 55.0312 66.2585 54.9599 66.2559C54.3711 66.2275 53.7695 66.1706 53.173 66.0931C53.1042 66.0828 53.0405 66.1345 53.0303 66.2042C53.0201 66.274 53.0711 66.3386 53.1399 66.349C53.7414 66.4291 54.3507 66.486 54.9471 66.5144H54.9522H54.9548ZM51.3811 66.0388C51.4397 66.0388 51.4932 65.9975 51.506 65.9381C51.5213 65.8683 51.4779 65.7985 51.4091 65.7856C50.8101 65.6538 50.2264 65.4987 49.6758 65.323C49.6095 65.3023 49.5381 65.3385 49.5152 65.4082C49.4948 65.4754 49.5305 65.5478 49.5993 65.5711C50.1575 65.7494 50.7464 65.907 51.3556 66.0414C51.3658 66.0414 51.3734 66.044 51.3836 66.044L51.3811 66.0388ZM47.9501 64.9224C47.9985 64.9224 48.0444 64.8939 48.0648 64.8474C48.0928 64.7828 48.0648 64.7053 48.0011 64.6768C47.5371 64.4623 47.1166 64.2297 46.7546 63.9894C46.6526 63.9222 46.5532 63.855 46.4513 63.7852C46.3926 63.7439 46.3136 63.7594 46.2728 63.8188C46.2321 63.8783 46.2473 63.9584 46.306 63.9971C46.4079 64.0669 46.5099 64.1367 46.6119 64.2039C46.984 64.452 47.4148 64.6898 47.8915 64.9094C47.9093 64.9172 47.9271 64.9224 47.945 64.9224H47.9501ZM44.9499 62.9091C44.9856 62.9091 45.0213 62.8936 45.0468 62.8652C45.0926 62.8109 45.0875 62.7308 45.034 62.6817C44.5599 62.2656 44.1393 61.834 43.7825 61.3972C43.7366 61.3429 43.6575 61.3352 43.604 61.3817C43.5505 61.4282 43.5428 61.5083 43.5887 61.5626C43.9558 62.0097 44.3866 62.4516 44.8709 62.8755C44.8938 62.8962 44.9244 62.9065 44.955 62.9065L44.9499 62.9091ZM42.6838 60.0921C42.7042 60.0921 42.7221 60.0869 42.7425 60.0791C42.8062 60.0455 42.8291 59.968 42.7985 59.906C42.717 59.7432 42.6405 59.5752 42.5717 59.4098C42.4162 59.035 42.2887 58.6344 42.1893 58.2209C42.1715 58.1511 42.1026 58.1098 42.0364 58.1253C41.9676 58.1434 41.9268 58.2132 41.9421 58.2804C42.044 58.7068 42.1791 59.1203 42.3372 59.508C42.4085 59.6811 42.4876 59.8517 42.5717 60.0223C42.5946 60.0662 42.6379 60.0921 42.6864 60.0921H42.6838ZM41.7993 56.5721C41.7993 56.5721 41.8044 56.5721 41.807 56.5721C41.8783 56.5669 41.9293 56.5049 41.9268 56.4351C41.9038 56.0836 41.8911 55.7114 41.8911 55.2979C41.8911 55.0705 41.8936 54.8457 41.9013 54.6182C41.9013 54.5459 41.8478 54.4864 41.7764 54.4864C41.705 54.4787 41.6464 54.5407 41.6464 54.6131C41.6413 54.8431 41.6362 55.0705 41.6362 55.3005C41.6362 55.7192 41.6489 56.0965 41.6719 56.4532C41.677 56.5204 41.733 56.5746 41.7993 56.5746V56.5721ZM41.8478 52.9151C41.9166 52.9151 41.9727 52.8608 41.9752 52.791C41.9981 52.2664 42.0211 51.7004 42.0211 51.137V50.9561C42.0211 50.8837 41.9701 50.8217 41.8911 50.8269C41.8197 50.8269 41.7636 50.8863 41.7636 50.9561V51.1344C41.7636 51.6927 41.7432 52.2535 41.7203 52.7755C41.7178 52.8479 41.7713 52.9073 41.8427 52.9099H41.8478V52.9151ZM30.9482 51.3231C31.1801 51.3231 31.407 51.3179 31.6237 51.3076C31.695 51.305 31.7486 51.243 31.746 51.1732C31.7435 51.1034 31.6823 51.0465 31.6135 51.0491C31.3993 51.0595 31.175 51.0646 30.9482 51.0646C30.548 51.0646 30.1733 51.0465 29.8292 51.0078C29.7603 51 29.6966 51.0517 29.689 51.1215C29.6813 51.1913 29.7323 51.2559 29.8011 51.2636C30.1529 51.3024 30.5378 51.3205 30.9456 51.3205L30.9482 51.3231ZM33.4182 51.1913C33.4182 51.1913 33.4258 51.1913 33.4284 51.1913C34.0248 51.1448 34.6315 51.0905 35.228 51.0259C35.2968 51.0181 35.3478 50.9561 35.3427 50.8837C35.335 50.8139 35.2738 50.7597 35.2025 50.7674C34.6086 50.8295 34.0044 50.8837 33.408 50.9302C33.3366 50.9354 33.2856 50.9974 33.2907 51.0698C33.2958 51.137 33.3519 51.1887 33.4182 51.1887V51.1913ZM28.0729 50.8217C28.1213 50.8217 28.1672 50.7933 28.1901 50.7467C28.2182 50.6821 28.1901 50.6046 28.1264 50.5762C27.5529 50.3126 27.117 49.9378 26.8315 49.4597C26.7958 49.3977 26.7168 49.3796 26.6556 49.4158C26.5945 49.4519 26.5766 49.5321 26.6123 49.5941C26.9284 50.1161 27.3999 50.5271 28.0219 50.8114C28.0397 50.8191 28.0576 50.8217 28.0754 50.8217H28.0729ZM37.0072 50.8165C37.0072 50.8165 37.0174 50.8165 37.0225 50.8165C37.6164 50.739 38.218 50.6511 38.8119 50.5581C38.8807 50.5477 38.9291 50.4806 38.9189 50.4108C38.9087 50.341 38.8425 50.2919 38.7736 50.3022C38.1823 50.3953 37.5833 50.4831 36.9919 50.5607C36.9231 50.571 36.8721 50.6356 36.8823 50.7054C36.8899 50.77 36.946 50.8191 37.0097 50.8191L37.0072 50.8165ZM40.5732 50.2531C40.5732 50.2531 40.5885 50.2531 40.5962 50.2531C41.185 50.1446 41.7815 50.0257 42.3703 49.9016C42.4391 49.8861 42.4825 49.8189 42.4697 49.7492C42.4544 49.6794 42.3881 49.6354 42.3193 49.6484C41.733 49.7724 41.1391 49.8913 40.5528 49.9998C40.484 50.0128 40.4381 50.08 40.4509 50.1497C40.4611 50.2118 40.5146 50.2557 40.5758 50.2557L40.5732 50.2531ZM44.1036 49.5036C44.1036 49.5036 44.124 49.5036 44.1342 49.501C44.7179 49.3615 45.3068 49.2116 45.8879 49.0565C45.9568 49.0384 45.9975 48.9687 45.9797 48.8989C45.9619 48.8291 45.893 48.7877 45.8242 48.8058C45.2456 48.9609 44.6593 49.1082 44.0781 49.2478C44.0093 49.2633 43.966 49.3331 43.9838 49.4028C43.9966 49.4623 44.0501 49.5036 44.1087 49.5036H44.1036ZM41.7636 49.2607C41.7636 49.2607 41.7764 49.2607 41.7815 49.2607C41.8503 49.2504 41.8987 49.1832 41.8885 49.1134C41.7942 48.475 41.6438 47.8703 41.4425 47.3172C41.417 47.25 41.3456 47.2164 41.2793 47.2397C41.213 47.2655 41.1799 47.3379 41.2029 47.4051C41.3991 47.9426 41.5444 48.5293 41.6362 49.1496C41.6464 49.2142 41.6999 49.2607 41.7611 49.2607H41.7636ZM47.5932 48.5707C47.5932 48.5707 47.6162 48.5707 47.6289 48.5655C48.205 48.3949 48.7862 48.214 49.3571 48.0305C49.4234 48.0098 49.4617 47.9349 49.4387 47.8677C49.4183 47.8005 49.3444 47.7617 49.2781 47.785C48.7097 47.9685 48.1285 48.1494 47.555 48.32C47.4862 48.3406 47.4479 48.4104 47.4683 48.4802C47.4836 48.5371 47.5346 48.5732 47.5907 48.5732L47.5932 48.5707ZM26.3574 47.9039C26.416 47.9039 26.4696 47.8599 26.4823 47.8005C26.5792 47.2991 26.8825 46.8107 27.3847 46.3506C27.4356 46.3041 27.4407 46.2214 27.3948 46.1671C27.349 46.1129 27.2674 46.1103 27.2139 46.1568C26.6684 46.6556 26.337 47.1906 26.2299 47.7488C26.2172 47.8186 26.2605 47.8858 26.3319 47.9013C26.3396 47.9013 26.3472 47.9013 26.3574 47.9013V47.9039ZM51.0293 47.4516C51.0446 47.4516 51.0573 47.4516 51.0726 47.4438C51.6538 47.2345 52.2222 47.0174 52.7677 46.8003C52.834 46.7745 52.8646 46.6995 52.8391 46.6323C52.8136 46.5651 52.7397 46.5341 52.6734 46.56C52.133 46.7771 51.5646 46.9942 50.9885 47.2009C50.9222 47.2242 50.8866 47.2991 50.912 47.3663C50.9299 47.4206 50.9809 47.4516 51.0318 47.4516H51.0293ZM54.3813 46.0999C54.3991 46.0999 54.4169 46.0973 54.4322 46.0896C54.993 45.8363 55.5436 45.5701 56.0661 45.3013C56.1299 45.2703 56.1528 45.1902 56.1222 45.1282C56.0916 45.0636 56.0126 45.0403 55.9514 45.0713C55.4314 45.3375 54.886 45.6011 54.3277 45.8544C54.264 45.8828 54.2334 45.9604 54.264 46.025C54.2844 46.0741 54.3328 46.1025 54.3813 46.1025V46.0999ZM40.484 45.8777C40.5095 45.8777 40.5376 45.8699 40.5605 45.8518C40.6166 45.8105 40.6293 45.7278 40.5885 45.6709C40.2419 45.1954 39.834 44.7948 39.3752 44.4847C39.3319 44.4562 39.2885 44.4252 39.2427 44.3968C39.184 44.358 39.105 44.3787 39.0668 44.4381C39.0285 44.4976 39.0489 44.5777 39.1076 44.6165C39.1483 44.6423 39.1917 44.6707 39.2325 44.6992C39.6658 44.9938 40.0532 45.3737 40.3821 45.826C40.4076 45.8596 40.4458 45.8777 40.484 45.8777ZM28.7917 45.3608C28.8121 45.3608 28.8325 45.3556 28.8529 45.3453C29.067 45.229 29.276 45.1204 29.4748 45.0196C29.7986 44.8568 30.1325 44.7069 30.4715 44.5725C30.5378 44.5467 30.5684 44.4717 30.5429 44.4045C30.5174 44.3374 30.4435 44.3063 30.3772 44.3322C30.0331 44.4692 29.6915 44.6216 29.3627 44.787C29.1613 44.8878 28.9497 44.9964 28.7331 45.1153C28.6719 45.1489 28.649 45.229 28.6821 45.291C28.705 45.3349 28.7484 45.3582 28.7943 45.3582L28.7917 45.3608ZM57.5956 44.4433C57.6185 44.4433 57.6389 44.4381 57.6593 44.4252C58.192 44.1125 58.7095 43.7843 59.1963 43.4535C59.255 43.4147 59.2703 43.3346 59.232 43.2751C59.1938 43.2157 59.1148 43.2002 59.0561 43.239C58.5718 43.5672 58.0595 43.8928 57.5318 44.203C57.4707 44.2391 57.4503 44.3167 57.4859 44.3787C57.5089 44.4201 57.5522 44.4433 57.5956 44.4433ZM32.1437 44.0376C32.1437 44.0376 32.164 44.0376 32.1742 44.035C32.7529 43.8954 33.3468 43.7972 33.9356 43.7429C34.007 43.7352 34.058 43.6732 34.0503 43.6034C34.0427 43.531 33.9815 43.4793 33.9127 43.4871C33.3111 43.5439 32.707 43.6447 32.1156 43.7869C32.0468 43.8024 32.006 43.8722 32.0213 43.9419C32.0341 44.0014 32.0876 44.0401 32.1462 44.0401L32.1437 44.0376ZM37.5093 43.9523C37.568 43.9523 37.6189 43.9135 37.6342 43.8541C37.6521 43.7843 37.6087 43.7145 37.5399 43.699C37.1219 43.5956 36.6784 43.5258 36.1787 43.4793C36.0309 43.4664 35.8805 43.4561 35.7327 43.4483C35.6613 43.4431 35.6027 43.5 35.5976 43.5698C35.595 43.6421 35.6486 43.7016 35.7174 43.7067C35.8627 43.7145 36.0105 43.7248 36.1558 43.7378C36.6427 43.7817 37.0734 43.8515 37.4787 43.9497C37.4889 43.9497 37.4991 43.9523 37.5093 43.9523ZM60.5855 42.4016C60.6136 42.4016 60.6416 42.3939 60.6646 42.3732C61.1489 41.9881 61.6128 41.5875 62.0436 41.1792C62.0946 41.1301 62.0971 41.05 62.0512 40.9957C62.0028 40.944 61.9238 40.9414 61.8703 40.9879C61.442 41.3911 60.9857 41.7891 60.5065 42.169C60.4505 42.2129 60.4403 42.2931 60.4861 42.3499C60.5116 42.3835 60.5499 42.399 60.5855 42.399V42.4016ZM63.2161 39.9076C63.2518 39.9076 63.2875 39.8921 63.313 39.8637C63.7157 39.3985 64.093 38.91 64.432 38.4112C64.4728 38.3518 64.4575 38.2717 64.3989 38.2303C64.3402 38.189 64.2612 38.2045 64.2204 38.2639C63.8865 38.755 63.5169 39.2357 63.1193 39.6931C63.0734 39.7474 63.0785 39.8275 63.132 39.8766C63.1575 39.8973 63.1855 39.9076 63.2161 39.9076ZM65.2553 36.9019C65.3012 36.9019 65.3471 36.8761 65.3675 36.8322C65.6504 36.2765 65.8926 35.7053 66.0889 35.1368C66.1118 35.0696 66.0761 34.9946 66.0098 34.9714C65.9436 34.9481 65.8697 34.9843 65.8467 35.0515C65.6555 35.6097 65.4185 36.168 65.1406 36.7133C65.1075 36.7779 65.133 36.8554 65.1942 36.8864C65.212 36.8968 65.2324 36.9019 65.2528 36.9019H65.2553ZM66.4279 33.4569C66.4891 33.4569 66.5426 33.4129 66.5528 33.3509C66.5783 33.2139 66.5987 33.0744 66.6191 32.9374C66.6802 32.4877 66.7134 32.0251 66.7134 31.5625V31.5108C66.7134 31.4384 66.6548 31.379 66.5859 31.3816C66.5146 31.3816 66.4585 31.441 66.4585 31.5108V31.5625C66.4585 32.0148 66.4279 32.4645 66.3667 32.9012C66.3489 33.0356 66.3259 33.1726 66.303 33.307C66.2902 33.3768 66.3361 33.444 66.4049 33.4569C66.4126 33.4569 66.4202 33.4569 66.4279 33.4569ZM66.4151 29.818C66.4151 29.818 66.4304 29.818 66.4381 29.818C66.5069 29.8051 66.5528 29.7379 66.54 29.6681C66.4304 29.0633 66.2673 28.4638 66.0583 27.8848C66.0328 27.8176 65.9614 27.784 65.8951 27.8073C65.8289 27.8332 65.7957 27.9055 65.8187 27.9727C66.0251 28.5387 66.1832 29.1228 66.2902 29.712C66.3004 29.7741 66.354 29.818 66.4151 29.818ZM65.1712 26.404C65.1942 26.404 65.2146 26.3988 65.235 26.3859C65.2961 26.3497 65.3165 26.2722 65.2808 26.2101C64.9724 25.6726 64.6155 25.1634 64.223 24.7008C64.1771 24.6465 64.0955 24.6414 64.0446 24.6879C63.991 24.7344 63.9859 24.8171 64.0318 24.8714C64.4142 25.3211 64.7608 25.8173 65.0616 26.3419C65.0846 26.3833 65.1279 26.4065 65.1712 26.4065V26.404ZM62.8261 23.6541C62.8644 23.6541 62.9026 23.636 62.9255 23.605C62.9689 23.5482 62.9587 23.468 62.9026 23.4241C62.4336 23.0545 61.9161 22.7211 61.3605 22.4343C61.2967 22.4007 61.2203 22.4265 61.1897 22.4911C61.1565 22.5557 61.182 22.6333 61.2457 22.6643C61.7861 22.9434 62.2934 23.2665 62.7471 23.6257C62.7701 23.6438 62.7981 23.6541 62.8261 23.6541ZM47.1624 22.0518C47.7028 22.044 48.2789 21.9923 48.9748 21.889C49.0436 21.8786 49.092 21.814 49.0819 21.7416C49.0717 21.6693 49.0079 21.6228 48.9366 21.6331C48.2509 21.7339 47.6875 21.7856 47.1573 21.7933C47.086 21.7933 47.0299 21.8528 47.0324 21.9251C47.0324 21.9949 47.0911 22.0518 47.1599 22.0518H47.1624ZM59.6373 21.9846C59.6908 21.9846 59.7418 21.951 59.7597 21.8967C59.7826 21.8295 59.7444 21.7571 59.6781 21.7339C59.1326 21.553 58.5412 21.3979 57.9193 21.2713C57.8505 21.2584 57.7842 21.3023 57.7689 21.3721C57.7561 21.4418 57.7995 21.509 57.8683 21.5246C58.4801 21.6486 59.0638 21.8037 59.5991 21.9794C59.6118 21.9846 59.6246 21.9846 59.6399 21.9846H59.6373ZM50.7362 21.5788C50.7362 21.5788 50.7515 21.5788 50.7591 21.5788C51.3071 21.4754 51.9265 21.3591 52.5332 21.2713C52.602 21.2609 52.6505 21.1963 52.6428 21.124C52.6326 21.0542 52.5689 21.0051 52.4975 21.0128C51.8858 21.1007 51.2638 21.217 50.7132 21.323C50.6444 21.3359 50.5985 21.4031 50.6113 21.4729C50.6215 21.5349 50.675 21.5788 50.7362 21.5788ZM56.1095 21.2454C56.1732 21.2454 56.2293 21.1963 56.2369 21.1317C56.2446 21.0619 56.1936 20.9973 56.1248 20.9896C55.8011 20.9508 55.4544 20.9172 55.0975 20.8888C54.8707 20.8707 54.6336 20.8604 54.394 20.8604H54.3099C54.2385 20.8604 54.1824 20.9198 54.1824 20.9922C54.1824 21.0645 54.2487 21.1188 54.3099 21.1214H54.3914C54.626 21.1214 54.8554 21.1291 55.0746 21.1472C55.4289 21.1757 55.7705 21.2092 56.0916 21.2454C56.0967 21.2454 56.1018 21.2454 56.1069 21.2454H56.1095Z" fill="white"/>
<path d="M60.3856 74.3861C60.3856 74.3861 60.3891 74.3861 60.3925 74.3861C60.8039 74.3687 61.2118 74.3409 61.6093 74.3028C61.7027 74.2924 61.7753 74.2091 61.7649 74.1119C61.7545 74.0182 61.6715 73.9453 61.5748 73.9557C61.1876 73.9939 60.7832 74.0216 60.3787 74.039C60.2819 74.0425 60.2093 74.1258 60.2128 74.2195C60.2162 74.3132 60.2923 74.3861 60.3856 74.3861Z" fill="white"/>
</g>
<path d="M113.056 37.0657C115.471 37.6073 118.287 41.0088 115.508 44.4842C112.729 47.9595 117.384 46.4414 118.103 52.5222C118.822 58.6072 113.305 57.5814 115.038 61.5696C116.771 65.5579 104.747 71.8767 97.2399 67.0883C89.7324 62.3 89.0336 51.9888 91.3794 48.3452C93.7252 44.7016 97.15 44.4719 95.6011 40.5698C94.0522 36.6636 95.879 32.6097 100.722 32.5728C104.375 32.5441 102.185 29.9796 107.212 30.0001C111.401 30.0206 115.111 32.9749 113.056 37.0657Z" fill="#263238"/>
<path d="M99.6057 42.1495C100.264 42.1495 100.795 42.6829 100.795 43.3477C100.795 44.0124 100.264 44.5417 99.6057 44.5417C98.9477 44.5417 98.4123 44.0083 98.4123 43.3477C98.4123 42.687 98.9477 42.1495 99.6057 42.1495ZM99.6057 44.2627C100.108 44.2627 100.517 43.8523 100.517 43.3477C100.517 42.843 100.108 42.4285 99.6057 42.4285C99.103 42.4285 98.6902 42.8389 98.6902 43.3477C98.6902 43.8564 99.0989 44.2627 99.6057 44.2627Z" fill="white"/>
<path d="M89.5449 53.8233C89.5449 53.8233 89.5571 53.8233 89.5653 53.8233C89.6225 53.811 89.6552 53.7576 89.647 53.7043C89.2792 51.7922 90.7627 49.9417 92.3321 47.9804C94.1629 45.6909 96.239 43.1018 95.5075 40.0121C94.8822 37.3779 95.1601 35.1787 96.2922 33.8164C97.2158 32.7004 98.6584 32.1875 100.575 32.2859C102.332 32.3762 102.856 31.9003 103.407 31.3915C104.004 30.8457 104.69 30.2221 107.212 30.2385C107.269 30.2385 107.314 30.1933 107.314 30.1359C107.314 30.0785 107.269 30.0333 107.212 30.0333C107.183 30.0333 107.151 30.0333 107.122 30.0333C104.58 30.0333 103.881 30.6734 103.268 31.2396C102.725 31.7361 102.259 32.167 100.587 32.0767C98.6053 31.9741 97.1054 32.5116 96.1369 33.681C94.964 35.0925 94.6697 37.3574 95.3113 40.0573C96.0183 43.0485 94.0649 45.4898 92.1727 47.8491C90.5707 49.8474 89.0626 51.7348 89.4468 53.7371C89.455 53.7864 89.4999 53.8192 89.549 53.8192L89.5449 53.8233Z" fill="#263238"/>
<path d="M79.9367 45.9857L80.4885 47.0607C80.6969 47.4628 80.6969 47.9429 80.4885 48.3491L79.5199 50.2365C79.1316 50.9915 78.4042 51.5126 77.5664 51.6316L77.0474 51.7054C76.0134 49.9862 76.1565 47.3602 76.1565 47.3602L76.1156 46.6094C76.0788 45.9405 76.5447 45.3866 77.1904 45.3415L78.6739 45.2389C79.1848 45.202 79.6915 45.5015 79.9367 45.9857Z" fill="#FFC3BD"/>
<path d="M92.103 53.1665C92.1234 53.1501 92.0825 53.2116 92.0621 53.2444L91.9763 53.3675L91.7801 53.6342C91.6412 53.8148 91.49 53.9912 91.3347 54.1676C91.0241 54.5205 90.693 54.8652 90.3457 55.1975C89.655 55.8622 88.8908 56.449 88.0938 56.9742C86.5041 58.0328 84.7263 58.7509 82.8791 59.0463L82.5317 59.0955L82.356 59.1201C82.356 59.1201 82.3846 59.1201 82.3969 59.1283C82.4909 59.1365 82.6094 59.1858 82.6462 59.2227C82.7238 59.2966 82.5358 59.1858 82.356 58.915C81.9678 58.3734 81.6122 57.4419 81.3466 56.5023C81.085 55.5422 80.8848 54.5205 80.7458 53.4783C80.6722 52.9572 80.6273 52.432 80.5782 51.9027C80.5333 51.3857 80.5006 50.8277 80.4965 50.3558L75.7885 50.5856C75.8498 51.2298 75.9111 51.7837 75.9765 52.3787C76.046 52.9654 76.1359 53.544 76.2176 54.1307C76.3975 55.3001 76.6018 56.4777 76.9083 57.6799C77.0595 58.2831 77.2353 58.8945 77.46 59.5181C77.693 60.1418 77.9586 60.7901 78.3673 61.4671C78.7841 62.1318 79.344 62.9032 80.4107 63.5064C80.942 63.7977 81.6081 63.9947 82.2579 64.0234C82.4091 64.0275 82.5971 64.0234 82.7156 64.0193L82.9568 64.0029L83.439 63.97C84.7263 63.851 85.9973 63.6008 87.2356 63.2356C88.4657 62.854 89.6632 62.3821 90.7993 61.7995C91.9395 61.225 93.0143 60.5357 94.0483 59.793C94.5673 59.4197 95.07 59.0258 95.5604 58.6031C95.8056 58.3939 96.0467 58.1723 96.2919 57.9466L96.6597 57.5938L96.8477 57.405C96.9172 57.3312 96.9663 57.286 97.0725 57.1588L92.0785 53.1665H92.103Z" fill="#407BFF"/>
<path opacity="0.5" d="M92.103 53.1665C92.1234 53.1501 92.0825 53.2116 92.0621 53.2444L91.9763 53.3675L91.7801 53.6342C91.6412 53.8148 91.49 53.9912 91.3347 54.1676C91.0241 54.5205 90.693 54.8652 90.3457 55.1975C89.655 55.8622 88.8908 56.449 88.0938 56.9742C86.5041 58.0328 84.7263 58.7509 82.8791 59.0463L82.5317 59.0955L82.356 59.1201C82.356 59.1201 82.3846 59.1201 82.3969 59.1283C82.4909 59.1365 82.6094 59.1858 82.6462 59.2227C82.7238 59.2966 82.5358 59.1858 82.356 58.915C81.9678 58.3734 81.6122 57.4419 81.3466 56.5023C81.085 55.5422 80.8848 54.5205 80.7458 53.4783C80.6722 52.9572 80.6273 52.432 80.5782 51.9027C80.5333 51.3857 80.5006 50.8277 80.4965 50.3558L75.7885 50.5856C75.8498 51.2298 75.9111 51.7837 75.9765 52.3787C76.046 52.9654 76.1359 53.544 76.2176 54.1307C76.3975 55.3001 76.6018 56.4777 76.9083 57.6799C77.0595 58.2831 77.2353 58.8945 77.46 59.5181C77.693 60.1418 77.9586 60.7901 78.3673 61.4671C78.7841 62.1318 79.344 62.9032 80.4107 63.5064C80.942 63.7977 81.6081 63.9947 82.2579 64.0234C82.4091 64.0275 82.5971 64.0234 82.7156 64.0193L82.9568 64.0029L83.439 63.97C84.7263 63.851 85.9973 63.6008 87.2356 63.2356C88.4657 62.854 89.6632 62.3821 90.7993 61.7995C91.9395 61.225 93.0143 60.5357 94.0483 59.793C94.5673 59.4197 95.07 59.0258 95.5604 58.6031C95.8056 58.3939 96.0467 58.1723 96.2919 57.9466L96.6597 57.5938L96.8477 57.405C96.9172 57.3312 96.9663 57.286 97.0725 57.1588L92.0785 53.1665H92.103Z" fill="white"/>
<path d="M101.915 152.339C102.512 150.998 102.099 145.368 102.017 144.445C103.051 143.903 106.607 144.572 106.607 144.572C106.607 144.572 105.614 150.493 106.21 152.339C104.841 153.098 101.919 152.339 101.919 152.339H101.915Z" fill="#FFC3BD"/>
<path d="M58.0393 146.939C59.1591 146 61.5131 140.858 61.8441 139.993C63.013 139.964 65.6489 142.032 65.6489 142.032C65.6489 142.032 62.167 146.911 61.8932 148.835C60.3279 148.913 58.0393 146.939 58.0393 146.939Z" fill="#FFC3BD"/>
<path d="M98.274 155.605C101.261 155.605 101.772 155.56 103.456 155.502C104.895 155.449 105.238 155.63 106.394 155.605C107.359 155.585 107.326 154.657 107.028 153.59C106.922 153.209 106.775 152.77 106.623 152.232C106.505 151.818 106.125 151.531 105.696 151.531H102.414C102.111 151.531 101.838 151.678 101.646 151.912C100.853 152.901 99.1404 153.623 97.6446 153.824C96.0385 154.042 97.0847 155.605 98.2781 155.605H98.274Z" fill="#407BFF"/>
<path d="M52.1377 149.229C55.354 150.69 57.0418 149.947 58.6561 150.316C60.0415 150.632 59.9966 150.891 61.3779 151.289C62.2933 151.551 62.7592 150.567 62.6816 149.705C62.6325 149.147 62.5712 148.499 62.5835 147.822C62.5876 147.571 62.4527 147.341 62.228 147.239L59.028 145.782C58.8155 145.688 58.5744 145.717 58.3905 145.86C57.1154 146.882 54.3159 148.17 52.3543 147.506C50.834 146.997 51.0669 148.741 52.1377 149.225V149.229Z" fill="#407BFF"/>
<path d="M87.6114 76.0536C87.6114 76.0536 80.059 93.455 75.9068 106.285C70.8351 117.889 60.6713 142.233 60.6713 142.233C60.4751 142.853 63.6832 143.985 64.3821 143.87C64.3821 143.87 77.7908 127.72 83.2549 109.375C97.4564 91.4896 101.637 77.1286 101.637 77.1286L87.6114 76.0577V76.0536Z" fill="#263238"/>
<path opacity="0.2" d="M93.6673 85.5814C91.5871 87.871 90.1159 95.8352 89.368 101.038C92.3105 96.6886 94.6113 92.7086 96.385 89.2989C96.1766 87.354 95.3265 85.922 93.6632 85.5814H93.6673Z" fill="black"/>
<path d="M91.8165 76.3738C91.8165 76.3738 91.277 100.545 93.3735 112.453C95.5722 124.959 102.377 140.038 101.894 148.248C102.593 148.659 105.058 148.683 106.435 148.248C106.435 148.248 108.785 123.88 101.715 111.985C103.243 100.078 107.326 84.6539 103.701 77.2847L91.8165 76.3779V76.3738Z" fill="#263238"/>
<path d="M101.552 146.538C101.54 146.952 101.503 147.674 101.393 148.224C101.356 148.421 101.487 148.606 101.687 148.638C103.35 148.905 105.753 148.519 106.517 148.38C106.664 148.355 106.775 148.236 106.799 148.089L107.049 146.513C107.081 146.295 106.914 146.103 106.697 146.107L101.895 146.201C101.707 146.201 101.56 146.353 101.552 146.538Z" fill="#263238"/>
<path opacity="0.1" d="M101.552 146.538C101.54 146.952 101.503 147.674 101.393 148.224C101.356 148.421 101.487 148.606 101.687 148.638C103.35 148.905 105.753 148.519 106.517 148.38C106.664 148.355 106.775 148.236 106.799 148.089L107.049 146.513C107.081 146.295 106.914 146.103 106.697 146.107L101.895 146.201C101.707 146.201 101.56 146.353 101.552 146.538Z" fill="white"/>
<path d="M61.039 140.444C60.8346 140.834 60.4627 141.523 60.1685 142.028C60.0704 142.196 60.1276 142.401 60.2911 142.504C61.5171 143.263 63.6872 144.022 64.4065 144.264C64.5495 144.313 64.7048 144.264 64.7947 144.141L65.7714 142.848C65.9063 142.672 65.845 142.418 65.6448 142.323L61.5008 140.292C61.3332 140.21 61.1289 140.272 61.039 140.44V140.444Z" fill="#263238"/>
<path opacity="0.1" d="M61.039 140.444C60.8346 140.834 60.4627 141.523 60.1685 142.028C60.0704 142.196 60.1276 142.401 60.2911 142.504C61.5171 143.263 63.6872 144.022 64.4065 144.264C64.5495 144.313 64.7048 144.264 64.7947 144.141L65.7714 142.848C65.9063 142.672 65.845 142.418 65.6448 142.323L61.5008 140.292C61.3332 140.21 61.1289 140.272 61.039 140.44V140.444Z" fill="white"/>
<path d="M90.8232 55.5708C90.4227 57.1136 89.777 58.8082 89.0005 62.5379C88.2853 65.6768 87.7622 71.1955 87.611 76.0537C89.7116 77.9329 96.6959 77.6128 103.701 77.2846C103.721 72.7096 105.593 68.4875 110.685 59.12C111.866 56.9495 110.91 54.385 108.629 53.6136C108.02 53.4085 107.371 53.2033 106.7 53.0146C104.089 52.2842 101.947 51.7056 99.5567 51.3856C98.7638 51.2789 97.9383 51.1928 97.1414 51.1271C94.2765 50.8809 91.5343 52.8094 90.8191 55.5749L90.8232 55.5708Z" fill="#407BFF"/>
<path opacity="0.5" d="M90.8232 55.5708C90.4227 57.1136 89.777 58.8082 89.0005 62.5379C88.2853 65.6768 87.7622 71.1955 87.611 76.0537C89.7116 77.9329 96.6959 77.6128 103.701 77.2846C103.721 72.7096 105.593 68.4875 110.685 59.12C111.866 56.9495 110.91 54.385 108.629 53.6136C108.02 53.4085 107.371 53.2033 106.7 53.0146C104.089 52.2842 101.947 51.7056 99.5567 51.3856C98.7638 51.2789 97.9383 51.1928 97.1414 51.1271C94.2765 50.8809 91.5343 52.8094 90.8191 55.5749L90.8232 55.5708Z" fill="white"/>
<path d="M99.0945 51.373L106.312 52.924C106.312 52.924 100.472 55.3695 95.7965 59.1403C94.5214 52.6943 99.0945 51.373 99.0945 51.373Z" fill="white"/>
<path d="M108.029 44.8247C106.884 46.9912 105.164 51.0451 106.308 52.9284C106.308 52.9284 99.7937 54.8199 96.3199 57.8152C95.8581 52.9694 99.0908 51.3774 99.0908 51.3774C101.841 51.3569 102.417 49.3874 102.511 47.5205L108.029 44.8247Z" fill="#FFC3BD"/>
<path d="M101.911 53.5481C103.979 53.5481 106.21 53.0516 106.333 53.027C106.386 53.0147 106.422 52.9614 106.41 52.9039C106.398 52.8506 106.341 52.8137 106.288 52.826C106.251 52.8342 102.393 53.6917 100.149 53.1788C99.4341 53.0147 99.0172 52.7521 98.9069 52.3951C98.7598 51.9151 99.2257 51.4104 99.2297 51.4063C99.2665 51.3653 99.2665 51.2996 99.2257 51.2627C99.1848 51.2257 99.1194 51.2257 99.0826 51.2668C99.0581 51.2914 98.5309 51.8658 98.7107 52.4567C98.8415 52.8875 99.3115 53.1994 100.104 53.3799C100.648 53.503 101.269 53.5522 101.911 53.5522V53.5481Z" fill="white"/>
<path d="M99.0052 53.6054C99.1769 53.7367 99.4262 53.6997 99.557 53.5274L99.7817 53.2279C99.9125 53.0555 99.8757 52.8052 99.7041 52.6781C99.5324 52.5468 99.2831 52.5837 99.1524 52.756L98.9276 53.0555C98.7968 53.2279 98.8336 53.4782 99.0052 53.6054Z" fill="#407BFF"/>
<path opacity="0.2" d="M105.782 45.9247L102.516 47.5208C102.496 47.9639 102.451 48.403 102.353 48.8215C103.374 48.9036 105.046 48.1527 105.459 47.1638C105.663 46.6715 105.79 46.1791 105.782 45.9247Z" fill="black"/>
<path d="M111.323 41.5381C109.643 45.0421 109.006 46.5562 106.435 47.7584C102.565 49.5679 98.6088 46.987 99.2055 43.1137C99.7408 39.626 102.401 34.4807 106.513 34.2878C110.567 34.095 113.007 38.034 111.323 41.5381Z" fill="#FFC3BD"/>
<path d="M109.848 36.4502C108.021 39.0557 108.115 43.3311 110.269 43.9097C113.55 43.4009 114.249 42.5516 114.249 42.5516C114.249 42.5516 113.191 34.5135 109.848 36.4502Z" fill="#263238"/>
<path d="M112.422 37.5211C107.587 38.1407 103.741 36.1137 103.022 34.9771C107.399 32.0065 111.943 34.534 112.422 37.5211Z" fill="#263238"/>
<path d="M102.332 39.5111C102.332 39.5111 101.273 40.6272 100.448 41.0539C100.685 41.5627 101.424 41.6283 101.424 41.6283L102.332 39.5111Z" fill="#ED847E"/>
<path d="M102.564 43.2491C102.397 43.2203 102.225 43.1793 102.045 43.1178C101.996 43.1013 101.976 43.048 101.996 42.9988C102.017 42.9495 102.07 42.9249 102.123 42.9413C103.431 43.4009 104.44 42.6951 104.448 42.691C104.493 42.6582 104.551 42.6664 104.579 42.7074C104.608 42.7485 104.595 42.8059 104.555 42.8387C104.518 42.8675 103.705 43.4337 102.564 43.2532V43.2491Z" fill="#263238"/>
<path d="M111.106 45.1365C110.346 45.5632 109.545 45.6002 108.969 45.3991C108.107 45.0914 108.36 44.0328 109.173 43.3599C109.909 42.7526 111.241 42.1782 111.834 42.8511C112.414 43.5117 111.977 44.6482 111.106 45.1365Z" fill="#FFC3BD"/>
<path d="M109.565 45.3541C110.223 45.3541 110.755 45.8875 110.755 46.5522C110.755 47.2169 110.223 47.7462 109.565 47.7462C108.907 47.7462 108.372 47.2128 108.372 46.5522C108.372 45.8916 108.907 45.3541 109.565 45.3541ZM109.565 47.4672C110.068 47.4672 110.477 47.0569 110.477 46.5522C110.477 46.0476 110.068 45.6331 109.565 45.6331C109.063 45.6331 108.65 46.0435 108.65 46.5522C108.65 47.061 109.059 47.4672 109.565 47.4672Z" fill="white"/>
<path d="M106.905 39.2402C106.864 39.2114 106.836 39.1704 106.827 39.1171C106.713 38.3129 106.075 38.0379 106.067 38.0338C105.973 37.9928 105.928 37.8861 105.977 37.7918C106.022 37.6974 106.141 37.6564 106.235 37.6974C106.268 37.7097 107.073 38.0544 107.212 39.0555C107.224 39.154 107.15 39.2484 107.044 39.2689C106.991 39.2771 106.942 39.2689 106.905 39.2402Z" fill="#263238"/>
<path d="M101.101 37.0654C101.056 37.0613 101.011 37.0366 100.982 36.9997C100.921 36.9218 100.942 36.8028 101.027 36.7371C101.89 36.0806 102.711 36.3309 102.748 36.3432C102.846 36.376 102.895 36.4786 102.854 36.5771C102.817 36.6756 102.707 36.7289 102.609 36.7002C102.576 36.692 101.935 36.5073 101.252 37.0284C101.207 37.0613 101.154 37.0736 101.105 37.0695L101.101 37.0654Z" fill="#263238"/>
<path d="M101.158 38.4482C101.052 38.7518 101.13 39.0554 101.33 39.1211C101.53 39.1867 101.775 38.9939 101.882 38.6903C101.988 38.3866 101.91 38.083 101.71 38.0173C101.51 37.9517 101.264 38.1445 101.158 38.4482Z" fill="#263238"/>
<path d="M104.702 39.9135C104.596 40.2171 104.674 40.5208 104.874 40.5864C105.074 40.6521 105.319 40.4592 105.426 40.1556C105.532 39.852 105.454 39.5483 105.254 39.4827C105.054 39.417 104.808 39.6099 104.702 39.9135Z" fill="#263238"/>
<path d="M105.425 39.6633L105.094 38.9412C105.094 38.9412 104.902 39.6264 105.425 39.6633Z" fill="#263238"/>
<path d="M101.907 38.2391L101.576 37.517C101.576 37.517 101.384 38.2022 101.907 38.2391Z" fill="#263238"/>
<path opacity="0.5" d="M106.183 59.5592L109.726 60.8968C108.267 63.6131 107.11 65.8616 106.223 67.8147C106.591 63.4982 106.179 59.5592 106.179 59.5592H106.183Z" fill="#407BFF"/>
<path d="M83.9575 155.614H79.2944L79.2944 88.1539H83.9575L83.9575 155.614Z" fill="#407BFF"/>
<path opacity="0.2" d="M83.9622 88.1501H79.2951V99.4953L83.9622 98.289V88.1501Z" fill="black"/>
<path d="M56.6948 96.5529H98.2901V88.7323C98.2901 82.8156 93.5086 78.0149 87.6154 78.0149H67.3695C61.4764 78.0149 56.6948 82.8156 56.6948 88.7323V96.5529Z" fill="#407BFF"/>
<path d="M95.2251 83.7347L95.9158 82.7458C96.1774 82.3725 96.5983 82.1509 97.0519 82.1468L99.1689 82.1304C100.015 82.1222 100.812 82.5284 101.306 83.2177L101.613 83.6444C100.579 85.3636 98.2003 86.4592 98.2003 86.4592L97.5546 86.8449C96.9825 87.1895 96.2755 87.0295 95.9363 86.4797L95.1557 85.2077C94.8859 84.7687 94.9146 84.1819 95.2251 83.7388V83.7347Z" fill="#FFC3BD"/>
<path d="M104.858 58.5501C104.964 58.7716 105.103 59.104 105.226 59.3912L105.589 60.298C105.826 60.9094 106.047 61.5289 106.255 62.1526C106.668 63.3959 107.003 64.6555 107.261 65.9029C107.383 66.5266 107.49 67.1461 107.563 67.7575C107.629 68.3648 107.665 68.9638 107.67 69.5424C107.67 70.6912 107.494 71.7499 107.15 72.4843L106.999 72.8126C106.987 72.8372 106.975 72.87 106.971 72.8987C106.803 73.5552 106.354 74.3718 105.781 75.1555C105.209 75.9433 104.523 76.7228 103.779 77.4737C103.027 78.2164 102.226 78.9344 101.388 79.6238C100.971 79.9684 100.538 80.3008 100.105 80.6249C99.6799 80.945 99.214 81.2773 98.8094 81.544L101.127 85.2204C101.678 84.8676 102.152 84.5516 102.651 84.2111C103.145 83.8746 103.628 83.5217 104.11 83.1689C105.074 82.459 106.018 81.7123 106.938 80.8998C107.858 80.0915 108.765 79.2299 109.611 78.2287C110.036 77.7322 110.444 77.1906 110.829 76.5998C111.209 76.0048 111.576 75.3565 111.867 74.6015L111.683 75.0159C112.684 73.2598 113.019 71.4667 113.158 69.8132C113.281 68.1473 113.199 66.5635 113.027 65.0207C112.852 63.482 112.574 61.9844 112.243 60.5073C112.079 59.7687 111.895 59.0383 111.699 58.308C111.601 57.9428 111.495 57.5776 111.384 57.2124C111.27 56.835 111.168 56.5026 111.021 56.0718L104.858 58.5583V58.5501Z" fill="#407BFF"/>
<path opacity="0.5" d="M104.858 58.5501C104.964 58.7716 105.103 59.104 105.226 59.3912L105.589 60.298C105.826 60.9094 106.047 61.5289 106.255 62.1526C106.668 63.3959 107.003 64.6555 107.261 65.9029C107.383 66.5266 107.49 67.1461 107.563 67.7575C107.629 68.3648 107.665 68.9638 107.67 69.5424C107.67 70.6912 107.494 71.7499 107.15 72.4843L106.999 72.8126C106.987 72.8372 106.975 72.87 106.971 72.8987C106.803 73.5552 106.354 74.3718 105.781 75.1555C105.209 75.9433 104.523 76.7228 103.779 77.4737C103.027 78.2164 102.226 78.9344 101.388 79.6238C100.971 79.9684 100.538 80.3008 100.105 80.6249C99.6799 80.945 99.214 81.2773 98.8094 81.544L101.127 85.2204C101.678 84.8676 102.152 84.5516 102.651 84.2111C103.145 83.8746 103.628 83.5217 104.11 83.1689C105.074 82.459 106.018 81.7123 106.938 80.8998C107.858 80.0915 108.765 79.2299 109.611 78.2287C110.036 77.7322 110.444 77.1906 110.829 76.5998C111.209 76.0048 111.576 75.3565 111.867 74.6015L111.683 75.0159C112.684 73.2598 113.019 71.4667 113.158 69.8132C113.281 68.1473 113.199 66.5635 113.027 65.0207C112.852 63.482 112.574 61.9844 112.243 60.5073C112.079 59.7687 111.895 59.0383 111.699 58.308C111.601 57.9428 111.495 57.5776 111.384 57.2124C111.27 56.835 111.168 56.5026 111.021 56.0718L104.858 58.5583V58.5501Z" fill="white"/>
<path opacity="0.1" d="M98.2896 94.2345H78.0437V89.0687H98.2896V94.2345Z" fill="white"/>
<path opacity="0.2" d="M78.0437 96.5532V88.7326C78.0437 82.8118 73.2622 78.0153 67.369 78.0153C61.4759 78.0153 56.6943 82.8159 56.6943 88.7326V96.5532" fill="black"/>
<path d="M78.0441 97.9276H48.8318V96.5531H78.0441V97.9276Z" fill="#407BFF"/>
<path opacity="0.2" d="M70.1811 97.9276H48.8318V96.5531H70.1811V97.9276Z" fill="black"/>
<path d="M81.6237 90.9399H80.8677V72.8369H81.6237V90.9399Z" fill="#E0E0E0"/>
<path d="M85.9324 76.345H80.6441V73.7477C80.6441 73.5548 80.7994 73.3989 80.9915 73.3989H85.9365L85.0701 74.872L85.9365 76.345H85.9324Z" fill="#407BFF"/>
</svg>
