<svg width="131" height="183" viewBox="0 0 131 183" fill="none" xmlns="http://www.w3.org/2000/svg">
<path d="M68.8752 47.3577C67.2401 47.1855 67.406 45.1835 67.6057 43.6507C67.687 43.1038 67.8122 42.5602 67.9815 42.0302L65.131 39.6567L62.5514 37.4791C62.7105 38.4346 62.8222 39.4002 62.8798 40.3725C63.022 42.0504 62.8324 43.3874 62.6123 45.0012C62.4092 45.7203 61.9725 46.2774 61.6204 46.7298C61.6204 46.7298 64.5488 48.9378 66.5597 48.8837C68.5706 48.8264 68.8752 47.3577 68.8752 47.3577Z" fill="#FDBBB5"/>
<path opacity="0.2" d="M62.8357 41.652C62.8357 41.652 64.5284 45.7034 67.5583 44.1233L67.6023 43.4177L62.8357 41.652Z" fill="black"/>
<path d="M61.3158 32.5161C62.2772 29.7139 65.429 28.1102 68.3506 28.9408C72.3791 30.0887 73.2762 35.7032 72.6161 39.2043C71.8815 43.1037 67.0201 45.3117 63.7871 42.6547C61.6306 40.8856 61.5562 38.6371 61.0788 34.849C60.9773 34.0658 61.0551 33.269 61.3158 32.5161Z" fill="#FDBBB5"/>
<path d="M70.5851 26.7329C68.8484 24.8051 63.161 27.29 63.161 27.29C63.161 27.29 61.8001 26.1353 59.6368 28.0901C57.9002 29.6566 59.2611 32.3407 59.4202 33.7181C60.0532 35.045 59.9788 36.8411 61.9998 37.4927C62.9917 36.3684 63.0628 34.6702 62.9613 33.4953C63.2592 33.4109 63.5402 33.259 63.767 33.0395C64.6539 32.1921 64.2105 30.0989 64.2105 30.0989C64.8367 29.7174 66.6987 29.7748 68.0156 30.5851C69.0854 31.2401 71.0286 33.3738 72.7246 32.7458C75.4058 31.7532 74.1025 29.839 74.1025 29.839C74.072 29.7107 73.2934 28.8531 72.5012 29.0861C72.5012 29.0861 72.403 28.2353 72.0306 27.5634C71.5601 26.7126 70.5851 26.7329 70.5851 26.7329Z" fill="#263238"/>
<path d="M66.9354 35.6021C66.9794 36.0343 67.3112 36.3347 67.6125 36.2774C67.9138 36.22 68.0864 35.825 68.0153 35.3962C67.9442 34.9674 67.6328 34.6636 67.3382 34.721C67.0437 34.775 66.8609 35.1666 66.9354 35.6021Z" fill="#263238"/>
<path d="M70.741 35.3828C70.785 35.8149 71.1235 36.1154 71.418 36.058C71.7126 36.0006 71.892 35.6056 71.8209 35.1768C71.7498 34.748 71.4383 34.4442 71.1438 34.5016C70.8493 34.5556 70.6699 34.9743 70.741 35.3828Z" fill="#263238"/>
<path d="M72.2674 33.4784C72.2031 33.5223 72.1184 33.5325 72.0473 33.5021C71.57 33.2793 71.008 33.286 70.5239 33.519C70.4257 33.5764 70.2971 33.5493 70.2362 33.4582C70.1752 33.367 70.2091 33.2421 70.3073 33.1847C70.9099 32.8775 71.6242 32.8606 72.2267 33.1408C72.3317 33.1847 72.3791 33.2995 72.3317 33.4008C72.3317 33.4008 72.3317 33.4042 72.3283 33.4042C72.3182 33.4312 72.2945 33.4548 72.2674 33.4784Z" fill="#263238"/>
<path d="M66.5296 33.9814C66.489 33.9713 66.4517 33.9477 66.4246 33.9173C66.3705 33.8194 66.4077 33.7012 66.5126 33.6506C66.5126 33.6506 66.516 33.6506 66.516 33.6472C67.1152 33.3501 67.8329 33.3467 68.4457 33.6404C68.5473 33.6945 68.5811 33.816 68.5235 33.9105C68.4626 34.0017 68.3373 34.0321 68.2358 33.9814C67.7483 33.762 67.1796 33.7721 66.709 34.0084C66.6481 34.0253 66.5837 34.0152 66.5296 33.9814Z" fill="#263238"/>
<path d="M58.9834 38.1274C59.4167 39.0829 60.2393 39.8256 61.2651 40.1936C62.6294 40.6697 63.4656 39.5184 63.2218 38.222C62.9916 37.0741 62.0133 35.4063 60.5745 35.5008C59.1357 35.5987 58.4654 36.9458 58.9834 38.1274Z" fill="#FDBBB5"/>
<path opacity="0.1" d="M62.2268 38.482C62.1456 37.7764 61.7224 37.1214 61.0961 36.7466C60.8287 36.588 60.463 36.4833 60.2057 36.6724" stroke="black" stroke-width="0.5" stroke-miterlimit="10"/>
<path d="M69.6947 34.9302C70.2973 35.8721 71.0353 36.7263 71.8884 37.469C71.4551 37.8944 70.8525 38.1206 70.2432 38.0869L69.6947 34.9302Z" fill="#D7504D"/>
<path d="M68.5776 39.5353C67.7922 39.3969 67.0915 38.958 66.6074 38.33C66.5667 38.276 66.6006 38.1882 66.6514 38.1578C66.7157 38.1173 66.7834 38.1477 66.824 38.2017C67.2675 38.7757 67.9277 39.1639 68.642 39.2888C68.8045 39.3192 68.7368 39.5657 68.5776 39.5353Z" fill="#263238"/>
<path d="M74.1574 148.598L79.1372 148.062L78.0437 156.161L74.936 156.755L74.1574 148.598Z" fill="#263238"/>
<path d="M78.7612 154.766L77.5797 154.743C77.3123 154.736 77.0584 154.861 76.8891 155.064C76.1612 155.935 75.667 155.59 74.9696 154.746C74.5024 154.685 74.3467 155.195 74.2993 155.334L73.2532 158.372C73.1618 158.625 73.304 158.895 73.5681 158.973C73.6155 158.987 73.6629 158.993 73.7136 158.993C75.149 159.02 75.8295 159.034 77.6136 159.068L83.0775 159.172C84.5671 159.199 84.953 157.778 84.347 157.636C81.6184 157.005 79.7057 156.195 78.8932 155.415C78.7409 155.283 78.9102 155.185 78.7612 154.766Z" fill="#263238"/>
<path d="M80.4673 155.844C80.0949 155.827 79.7259 155.776 79.3671 155.685C79.3332 155.671 79.3163 155.638 79.3332 155.604C79.34 155.587 79.3569 155.573 79.3738 155.567C79.5431 155.492 81.0564 154.864 81.4152 155.121C81.4829 155.165 81.5168 155.243 81.4998 155.32C81.4897 155.465 81.4084 155.6 81.2798 155.685C81.0293 155.82 80.7449 155.874 80.4673 155.844ZM79.6007 155.607C80.034 155.692 80.8363 155.81 81.185 155.58C81.2764 155.516 81.334 155.422 81.3475 155.314C81.3577 155.28 81.3441 155.246 81.3136 155.229C81.1173 155.087 80.2303 155.361 79.6007 155.607Z" fill="#407BFF"/>
<path d="M79.3809 155.688C79.364 155.692 79.3504 155.692 79.3335 155.688C79.3132 155.671 79.3098 155.644 79.3166 155.621C79.32 155.563 79.7398 154.186 80.5455 154.29C80.7452 154.321 80.7994 154.412 80.8028 154.49C80.8332 154.858 79.865 155.533 79.4148 155.702L79.3809 155.688ZM80.4642 154.398C79.9497 154.388 79.6111 155.189 79.4926 155.513C79.9869 155.28 80.6944 154.716 80.664 154.493C80.664 154.476 80.6674 154.422 80.5184 154.405L80.4642 154.398Z" fill="#407BFF"/>
<path d="M79.5332 155.651C79.1236 155.695 78.7343 155.921 78.4973 156.245" stroke="#407BFF" stroke-width="0.5" stroke-miterlimit="10" stroke-linecap="round" stroke-linejoin="round"/>
<path d="M80.2405 156.191C79.8309 156.235 79.4415 156.461 79.2046 156.785" stroke="#407BFF" stroke-width="0.5" stroke-miterlimit="10" stroke-linecap="round" stroke-linejoin="round"/>
<path d="M81.1311 156.65C80.7215 156.694 80.3322 156.92 80.0952 157.244" stroke="#407BFF" stroke-width="0.5" stroke-miterlimit="10" stroke-linecap="round" stroke-linejoin="round"/>
<path d="M73.4122 154.051L74.6276 124.314L67.9313 96.1362L68.8691 78.4283L79.1673 78.9922C79.1673 78.9922 83.0266 101.889 84.1607 122.7C84.638 131.444 80.5756 154.027 80.5756 154.027L73.4122 154.051Z" fill="#263238"/>
<path d="M70.406 79.5999C70.406 79.5999 68.0633 117.237 67.7113 125.937C67.3253 135.472 65.3821 154.874 65.3821 154.874L59.0075 154.442C59.0075 154.442 58.2864 129.641 57.7719 120.309C57.2573 110.978 55.7779 93.8472 55.9505 89.8836C56.1232 85.9166 58.2526 76.3892 58.2526 76.3892L70.406 79.5999Z" fill="#263238"/>
<path opacity="0.3" d="M69.1567 100.779C69.1567 100.779 69.3429 94.4888 69.3462 94.4381C69.3496 94.3875 71.8209 91.3895 71.8751 91.3692C71.9293 91.349 70.3483 95.6603 70.372 95.6603C70.3957 95.6603 70.1689 105.485 70.1689 105.485L69.1567 100.779Z" fill="black"/>
<path d="M59.8637 149.365L64.7183 149.074L63.31 156.958L60.1616 157.602L59.8637 149.365Z" fill="#263238"/>
<path d="M64.0173 155.533L62.8155 155.526C62.5447 155.526 62.2874 155.654 62.1181 155.86C61.3903 156.755 60.8824 156.414 60.1648 155.563C59.6874 155.509 59.5385 156.029 59.4945 156.171L58.4755 159.27C58.3874 159.53 58.533 159.8 58.8038 159.875C58.8512 159.888 58.902 159.895 58.9528 159.895C60.4119 159.902 61.0991 159.905 62.9137 159.915L68.4623 159.946C69.9755 159.952 70.3445 158.504 69.7284 158.369C66.949 157.765 64.9956 156.971 64.1629 156.191C64.0037 156.056 64.173 155.955 64.0173 155.533Z" fill="#263238"/>
<path d="M65.7641 156.6C65.3849 156.59 65.0091 156.542 64.6435 156.454C64.6097 156.441 64.5927 156.407 64.6063 156.373C64.6131 156.357 64.63 156.343 64.6469 156.336C64.8196 156.259 66.3464 155.6 66.712 155.854C66.7797 155.897 66.8169 155.975 66.8034 156.056C66.7966 156.205 66.7154 156.343 66.5867 156.427C66.3362 156.569 66.0485 156.627 65.7641 156.6ZM64.8839 156.373C65.324 156.454 66.1432 156.563 66.4919 156.323C66.5833 156.259 66.6409 156.157 66.651 156.053C66.6578 156.019 66.6443 155.985 66.6138 155.968C66.4141 155.827 65.517 156.114 64.8839 156.373Z" fill="#407BFF"/>
<path d="M64.6607 156.461C64.6437 156.465 64.6302 156.465 64.6133 156.461C64.593 156.444 64.5862 156.417 64.5964 156.394C64.5997 156.333 65.006 154.932 65.8252 155.023C66.0284 155.05 66.0825 155.145 66.0893 155.222C66.1265 155.594 65.1549 156.296 64.6945 156.471L64.6607 156.461ZM65.7406 155.134C65.2193 155.131 64.8841 155.952 64.7724 156.279C65.2734 156.036 65.981 155.455 65.9471 155.226C65.9471 155.205 65.9505 155.155 65.7982 155.138L65.7406 155.134Z" fill="#407BFF"/>
<path d="M64.8127 156.417C64.3963 156.468 64.0037 156.701 63.7701 157.035" stroke="#407BFF" stroke-width="0.5" stroke-miterlimit="10" stroke-linecap="round" stroke-linejoin="round"/>
<path d="M65.5408 156.958C65.1244 157.008 64.7317 157.241 64.4981 157.575" stroke="#407BFF" stroke-width="0.5" stroke-miterlimit="10" stroke-linecap="round" stroke-linejoin="round"/>
<path d="M66.4517 157.41C66.0353 157.461 65.6426 157.694 65.409 158.028" stroke="#407BFF" stroke-width="0.5" stroke-miterlimit="10" stroke-linecap="round" stroke-linejoin="round"/>
<path d="M69.8879 47.0775C69.7355 46.9357 67.6231 45.1024 67.6231 45.1024L65.8254 47.0775L62.3487 44.6804L60.6391 46.1389L69.529 63.3843L70.9204 61.4565L69.8879 47.0775Z" fill="#407BFF"/>
<path opacity="0.8" d="M69.8879 47.0775C69.7355 46.9357 67.6231 45.1024 67.6231 45.1024L65.8254 47.0775L62.3487 44.6804L60.6391 46.1389L69.529 63.3843L70.9204 61.4565L69.8879 47.0775Z" fill="white"/>
<path d="M66.0523 47.7832C66.1843 47.8609 67.3489 48.7589 67.3489 48.7589L67.0544 50.3153L65.8966 50.528L64.6507 48.6509L66.0523 47.7832Z" fill="#407BFF"/>
<path d="M67.0545 50.3186L69.5427 56.9156L69.4208 63.3843L66.1641 56.6117L65.8933 50.5313L67.0545 50.3186Z" fill="#407BFF"/>
<path opacity="0.5" d="M67.0545 50.3186L69.5427 56.9156L69.4208 63.3843L66.1641 56.6117L65.8933 50.5313L67.0545 50.3186Z" fill="black"/>
<path opacity="0.5" d="M66.0523 47.7832C66.1843 47.8609 67.3489 48.7589 67.3489 48.7589L67.0544 50.3153L65.8966 50.528L64.6507 48.6509L66.0523 47.7832Z" fill="black"/>
<path d="M71.0117 82.993H68.7672L69.4206 80.6702L69.793 79.2185L70.2534 80.6702L71.0117 82.993Z" fill="black"/>
<path d="M69.1294 46.139L71.428 47.4321C71.428 47.4321 77.4032 48.58 77.6842 49.2552C77.8467 49.6401 77.7485 63.9178 77.7485 63.9178C77.7485 63.9178 78.5745 74.0192 78.6151 74.8228C78.7133 76.7033 83.1752 90.5725 82.7757 91.2646C82.3763 91.9567 76.1167 95.6131 74.722 94.6239C73.3272 93.6346 70.0299 83.0336 70.0299 83.0336L69.4205 63.1717L69.1294 46.139Z" fill="#407BFF"/>
<path opacity="0.3" d="M73.3915 53.6375C73.0699 54.1439 72.2879 54.8833 72.2879 54.8833C72.2879 54.8833 73.6048 55.8286 73.6861 56.4464C73.7673 57.0642 70.3786 68.6107 70.0333 68.3642C69.9148 68.2798 69.715 67.1927 69.5052 65.8051L69.4239 63.1717L69.1294 46.139L71.428 47.4321C71.428 47.4287 73.7131 53.131 73.3915 53.6375Z" fill="black"/>
<path d="M65.1244 94.5326C65.1244 94.5326 66.7629 94.7926 67.9309 90.5758C69.0988 86.3488 70.0332 83.0301 70.0332 83.0301L69.5322 63.3809L61.4716 45.0383L58.8446 46.6589L55.2358 47.6616L58.8446 69.62C58.8446 69.62 53.6041 91.2375 53.7158 91.5312C53.8207 91.8216 65.1244 94.5326 65.1244 94.5326Z" fill="#407BFF"/>
<path opacity="0.3" d="M69.5326 63.3843L69.5767 65.0859L69.4175 65.5755C69.4175 65.5755 60.8594 55.2613 60.6427 54.3768C60.426 53.4889 61.2792 53.3133 61.2792 53.3133C61.2792 53.3133 59.8912 52.5435 59.7151 51.8953C59.5357 51.2437 58.8451 46.6623 58.8451 46.6623L61.4721 45.0417L69.5326 63.3843Z" fill="black"/>
<g opacity="0.3">
<path d="M69.9045 83.03C70.0365 76.2913 69.9925 69.5356 69.2883 62.8238C69.2714 62.6618 69.5253 62.6618 69.5422 62.8238C70.2464 69.5356 70.2904 76.2879 70.1584 83.03C70.155 83.1955 69.9011 83.1955 69.9045 83.03Z" fill="black"/>
</g>
<path opacity="0.3" d="M64.5422 79.9881L57.9848 78.7052L56.9049 80.6499L63.5876 82.0543L64.5422 79.9881Z" fill="black"/>
<path opacity="0.3" d="M74.3023 79.6303L79.5056 78.6107L80.0845 80.6837L75.257 81.6999L74.3023 79.6303Z" fill="black"/>
<path d="M78.0775 68.5669C77.9963 68.2529 76.5406 60.876 76.5406 60.876L75.139 59.2521L65.1488 62.5438L68.9472 77.544C68.9472 77.544 70.3657 79.1106 71.0969 78.9755C71.8281 78.8405 78.8934 76.4265 79.1168 76.1092C79.3402 75.7952 78.0775 68.5669 78.0775 68.5669Z" fill="#263238"/>
<path d="M75.8906 60.9166L74.8953 59.7249C74.8953 59.7249 65.6093 62.7465 65.6533 62.9153C65.6973 63.0841 69.2181 77.5813 69.2181 77.5813L70.9311 78.7427L67.4374 63.9417L75.8906 60.9166Z" fill="white"/>
<path d="M77.5356 49.2518C77.5356 49.2518 78.6359 49.5759 79.2385 51.3856C80.7111 55.788 84.1641 66.0279 84.4925 68.4013C84.9157 71.4297 85.7586 74.5425 83.4803 75.7208C81.202 76.8991 75.1286 78.5804 75.1286 78.5804L73.2802 72.7093L78.3346 70.0016C78.3346 70.0016 77.6609 69.2454 78.7577 68.8233L77.3054 63.7659L77.5356 49.2518Z" fill="#407BFF"/>
<g opacity="0.3">
<path d="M79.2218 77.5542C77.871 77.9357 76.5169 78.3206 75.1661 78.7021C75.0984 78.7224 75.0307 78.6785 75.0104 78.6143C74.4721 76.906 73.9339 75.1977 73.3956 73.4894C73.3177 73.2395 73.2399 72.9931 73.162 72.7432C73.1146 72.5879 73.3583 72.5204 73.4057 72.6757C73.944 74.384 74.4823 76.0924 75.0205 77.8007C75.0984 78.0505 75.1763 78.297 75.2541 78.5468C75.2034 78.5164 75.1492 78.4894 75.0984 78.459C76.4492 78.0775 77.8033 77.6927 79.1541 77.3111C79.3132 77.2639 79.3809 77.5103 79.2218 77.5542Z" fill="black"/>
</g>
<path d="M74.6888 74.0869C74.6888 74.0869 74.0118 73.9856 73.2873 73.5062C72.5662 73.0268 71.7741 72.6149 71.1207 72.5102C70.4673 72.4089 68.3345 71.9261 68.3345 71.9261C68.3345 71.9261 67.8877 72.7499 68.6426 73.0403C69.3975 73.3306 70.3624 73.5028 70.6704 73.8472C70.9785 74.1915 70.7381 74.7385 69.7767 74.671C68.8153 74.6034 68.0231 74.1578 67.6439 74.3637C67.2648 74.5697 67.3358 76.0113 67.6439 76.5245L67.8504 76.8688C67.8504 76.8688 67.7489 77.4191 68.0569 77.6588C68.365 77.8985 68.365 77.8986 68.365 77.8986C68.365 77.8986 67.9181 78.3948 68.4666 78.7291C69.0184 79.0633 70.359 79.6812 71.0462 79.5427C71.7334 79.4043 73.9102 77.8952 74.5602 77.7939C75.2068 77.6926 75.4133 76.4569 75.2779 75.461C75.1459 74.4684 74.6888 74.0869 74.6888 74.0869Z" fill="#FDBBB5"/>
<g opacity="0.3">
<path d="M77.5731 66.0888C77.3734 61.9294 77.2583 57.7666 77.1364 53.6072C77.1262 53.2054 77.1127 52.8037 77.1025 52.3985C77.0992 52.2365 77.3531 52.2365 77.3564 52.3985C77.4512 55.8388 77.5596 59.2791 77.6882 62.716C77.7288 63.8403 77.7728 64.9645 77.827 66.0888C77.8338 66.2508 77.5799 66.2508 77.5731 66.0888Z" fill="black"/>
</g>
<path opacity="0.3" d="M57.5246 74.4648L57.8022 88.1112L54.2814 88.1517L54.0817 89.0194L58.2795 88.7831L57.9478 72.7092L57.5246 74.4648Z" fill="black"/>
<path opacity="0.3" d="M58.6928 58.7827L57.7788 64.0563L58.6928 69.6201C58.6928 69.6201 59.2175 60.2716 58.6928 58.7827Z" fill="black"/>
<path d="M55.0874 47.6613C55.0874 47.6613 53.8822 47.3372 52.9512 50.1833C52.0237 53.026 51.0453 71.8244 51.1401 74.8089C51.2552 78.4315 52.8294 88.1514 52.8294 88.1514L57.8025 88.1109C57.8025 88.1109 57.3793 70.3254 57.4639 67.064C57.5486 63.8026 59.0652 57.7458 59.0652 57.7458C59.0652 57.7458 57.7855 47.6613 55.0874 47.6613Z" fill="#407BFF"/>
<path d="M57.5047 54.4338C57.4607 52.084 56.7769 49.8456 55.3076 47.9854C55.2061 47.8571 55.3855 47.6781 55.4871 47.8064C57.0003 49.7207 57.7112 52.0097 57.7552 54.4338C57.762 54.5959 57.5081 54.5959 57.5047 54.4338Z" fill="#263238"/>
<path d="M66.1609 112.193C66.1609 112.193 65.4026 97.4188 65.169 96.3351C64.9929 95.5147 64.5935 94.7686 63.2393 94.7686C61.8852 94.7686 49.3391 95.4168 48.8516 95.5248C48.3641 95.6329 47.4466 96.3891 47.5821 97.4121C47.7175 98.4384 47.0167 101.781 47.5821 102.213C48.1474 102.645 48.1474 102.645 48.1474 102.645C48.1474 102.645 47.9849 111.491 48.1474 111.977C48.3099 112.463 66.1609 112.193 66.1609 112.193Z" fill="#407BFF"/>
<path opacity="0.3" d="M66.1609 112.193C66.1609 112.193 65.4026 97.4188 65.169 96.3351C64.9929 95.5147 64.5935 94.7686 63.2393 94.7686C61.8852 94.7686 49.3391 95.4168 48.8516 95.5248C48.3641 95.6329 47.4466 96.3891 47.5821 97.4121C47.7175 98.4384 47.0167 101.781 47.5821 102.213C48.1474 102.645 48.1474 102.645 48.1474 102.645C48.1474 102.645 47.9849 111.491 48.1474 111.977C48.3099 112.463 66.1609 112.193 66.1609 112.193Z" fill="black"/>
<path opacity="0.3" d="M65.1689 96.335C65.2298 96.6119 65.2874 97.25 65.3923 98.8435L61.1234 98.9617L61.1606 97.3884C61.4044 95.7509 62.0679 95.0521 62.7281 94.782C62.9583 94.7752 63.1309 94.7719 63.2359 94.7719C64.59 94.7685 64.9895 95.5146 65.1689 96.335Z" fill="black"/>
<path d="M62.8026 94.9847C61.6516 95.3628 61.3198 96.6255 61.2656 97.7025C61.2081 98.8301 61.2419 99.9678 61.2318 101.099C61.2284 101.467 61.2453 101.872 61.0794 102.213C60.9 102.578 60.5615 102.743 60.1925 102.868C59.336 103.158 58.4558 103.408 57.5756 103.634C56.2553 103.972 54.7725 104.316 53.415 104.016C52.5043 103.813 51.5971 103.59 50.6898 103.378C49.8299 103.175 48.97 102.976 48.1101 102.773C47.951 102.736 48.0187 102.493 48.1778 102.53C49.8671 102.925 51.5598 103.324 53.2491 103.719C54.5118 104.016 55.8017 103.796 57.0475 103.506C57.931 103.3 58.8011 103.037 59.6711 102.77C60.1959 102.608 60.7747 102.497 60.9271 101.882C61.0625 101.328 60.9813 100.684 60.9846 100.12C60.9948 98.3912 60.6021 95.4506 62.7349 94.7483C62.8906 94.6876 62.9583 94.9306 62.8026 94.9847Z" fill="#263238"/>
<path d="M55.5886 103.918C55.6394 104.009 55.9271 106.116 55.5886 106.271C55.25 106.426 53.4863 106.71 53.3576 106.271C53.229 105.832 53.4084 103.985 53.4084 103.985C53.4084 103.985 53.5878 104.002 54.0313 103.985C54.4748 103.965 55.4904 103.844 55.4904 103.844" fill="#263238"/>
<path d="M56.7363 92.3748C58.3578 92.3444 59.9456 93.4045 60.5312 94.9136L59.1534 94.971C58.649 94.2418 57.6842 93.7151 56.7972 93.7286C55.9102 93.7421 54.8946 94.4477 54.4139 95.1939L52.8533 95.2715C53.378 93.7388 55.1147 92.4052 56.7363 92.3748Z" fill="#407BFF"/>
<g opacity="0.3">
<path d="M56.7363 92.3748C58.3578 92.3444 59.9456 93.4045 60.5312 94.9136L59.1534 94.971C58.649 94.2418 57.6842 93.7151 56.7972 93.7286C55.9102 93.7421 54.8946 94.4477 54.4139 95.1939L52.8533 95.2715C53.378 93.7388 55.1147 92.4052 56.7363 92.3748Z" fill="black"/>
</g>
<g opacity="0.3">
<path d="M60.8357 112.27C60.7307 108.911 60.9406 105.555 60.8357 102.196C60.8323 102.034 61.0862 102.034 61.0896 102.196C61.1945 105.552 60.9846 108.911 61.0896 112.27C61.0963 112.432 60.8424 112.432 60.8357 112.27Z" fill="black"/>
</g>
<path opacity="0.3" d="M60.8359 102.358C60.8359 102.358 60.7479 102.723 59.7459 103.249C58.7438 103.776 54.5798 104.617 53.554 104.512C52.5249 104.407 48.5911 102.753 48.5911 102.753C48.5911 102.753 53.0361 103.749 54.1499 103.985C55.1993 104.205 60.731 102.605 60.8359 102.358Z" fill="black"/>
<path opacity="0.3" d="M60.5073 94.8698L59.1295 94.9373C59.0584 94.8394 58.9636 94.7347 58.8654 94.6267L60.3042 94.4376C60.3922 94.5963 60.4633 94.7415 60.5073 94.8698Z" fill="black"/>
<path opacity="0.3" d="M54.4104 95.1939L52.8497 95.2715C52.8497 95.2715 52.9547 94.9778 53.0021 94.9001L54.5864 94.9508L54.4104 95.1939Z" fill="black"/>
<path d="M57.0377 88.0164C57.2239 88.0367 57.2781 88.7963 57.2781 88.7963C57.2781 88.7963 58.6593 90.535 58.7609 90.9334C58.859 91.3318 59.7088 92.7261 59.4109 92.9489C59.113 93.1718 58.4934 93.1245 58.1549 92.6755C57.8164 92.2265 56.9666 90.7409 56.5435 90.8254C56.1203 90.9098 56.3607 92.5776 56.7771 93.2224C57.1935 93.8706 58.2531 94.0259 58.2531 94.0259C58.2531 94.0259 57.4169 94.61 56.3234 94.3939C56.3234 94.3939 55.8969 95.0253 55.0234 94.7349C54.15 94.4446 53.8013 94.0226 53.5271 93.4486C53.2529 92.8747 53.649 88.1413 53.649 88.1413C53.649 88.1413 54.6747 87.7531 57.0377 88.0164Z" fill="#FDBBB5"/>
</svg>
