<svg width="172" height="216" viewBox="0 0 172 216" fill="none" xmlns="http://www.w3.org/2000/svg">
<g id="lady 2 ">
<g id="Shadow">
<g id="Group">
<g id="Group_2">
<path id="Vector" d="M172 212.786C172 214.563 133.498 216 86 216C38.5022 216 0 214.563 0 212.786C0 211.009 38.5022 209.571 86 209.571C133.498 209.571 172 211.009 172 212.786Z" fill="#F5F5F5"/>
</g>
</g>
</g>
<g id="Question_Mark">
<g id="Group_3">
<path id="Vector_2" d="M23.5551 57.7791C23.5551 49.6084 26.103 41.3339 31.1988 32.9452C36.2945 24.5616 43.7329 17.6168 53.5086 12.1109C63.2843 6.61015 74.6919 3.85718 87.7262 3.85718C99.8392 3.85718 110.536 6.15825 119.812 10.7604C129.087 15.3625 136.252 21.6164 141.306 29.5273C146.359 37.4434 148.886 46.04 148.886 55.3274C148.886 62.6357 147.444 69.0455 144.564 74.5462C141.679 80.0521 138.258 84.7997 134.288 88.7993C130.319 92.7989 123.197 99.5255 112.921 108.99C110.078 111.654 107.804 114.002 106.088 116.017C104.377 118.038 103.103 119.887 102.266 121.565C101.429 123.243 100.782 124.92 100.324 126.598C99.8656 128.276 99.1759 131.221 98.2547 135.434C96.6649 144.378 91.6954 148.85 83.3411 148.85C78.9981 148.85 75.3394 147.391 72.3757 144.466C69.4119 141.542 67.9274 137.2 67.9274 131.439C67.9274 124.214 69.0118 117.96 71.186 112.672C73.3601 107.384 76.2396 102.741 79.8351 98.7412C83.4306 94.7416 88.2737 89.9888 94.3749 84.4881C99.7234 79.673 103.587 76.037 105.967 73.5853C108.346 71.1336 110.352 68.4066 111.984 65.3939C113.616 62.3864 114.426 59.1192 114.426 55.5923C114.426 48.7098 111.942 42.9078 106.967 38.1758C101.998 33.449 95.5805 31.0804 87.7262 31.0804C78.5348 31.0804 71.765 33.4646 67.422 38.2382C63.079 43.0117 59.3993 50.0396 56.3934 59.327C53.5507 69.0455 48.1654 73.9021 40.2269 73.9021C35.547 73.9021 31.5988 72.2036 28.3824 68.8065C25.1659 65.4095 23.5551 61.7319 23.5551 57.7791Z" fill="#407BFF"/>
<g id="Group_4">
<g id="Group_5" opacity="0.2">
<path id="Vector_3" d="M111.321 95.2559C109.104 83.0337 106.809 78.1148 103.84 75.6942C101.503 77.9693 98.3442 80.8989 94.3644 84.4829C89.2318 89.1111 84.9941 93.2093 81.6355 96.7726C82.9094 112.807 84.7203 135.579 84.7414 135.771L85.8363 148.705C90.4899 148.139 93.8906 145.916 96.0384 142.041C95.6436 137.231 94.7487 135.356 94.7487 135.356C94.7487 135.356 95.8805 118.973 96.9544 106.211C98.4758 111.291 99.934 116.978 101.892 122.349C102.013 122.09 102.129 121.83 102.261 121.57C103.098 119.892 104.372 118.043 106.083 116.023C107.793 114.002 110.073 111.659 112.916 108.995C113.195 108.74 113.458 108.496 113.732 108.242C112.7 103.063 111.8 98.1803 111.321 95.2559Z" fill="black"/>
</g>
<g id="Group_6" opacity="0.2">
<path id="Vector_4" d="M117.374 77.9225L112.473 64.4017C112.315 64.7342 112.152 65.0614 111.979 65.3886C111.01 67.1755 109.91 68.8636 108.678 70.4531L113.5 79.3976C113.21 79.8495 112.852 80.5871 112.91 81.3611C113.01 82.6285 112.747 83.6673 112.889 84.6075C113.031 85.5477 113.726 84.4673 113.979 83.818C114.232 83.1687 114.521 82.4363 114.984 82.7012C115.448 82.9661 117.753 86.9034 118.438 87.1995C119.122 87.4955 118.954 86.7424 118.954 86.7424C118.954 86.7424 119.538 87.6825 119.98 87.5579C120.096 87.5267 120.307 87.267 120.107 86.7943C119.659 85.7347 118.606 83.5635 118.606 83.5635C118.664 83.6881 120.159 86.2801 120.438 86.6385C120.796 87.106 121.212 87.1475 121.481 86.9345C121.865 86.6281 120.117 83.3557 120.143 83.1687C120.143 83.1687 121.086 85.0854 121.717 85.1165C122.354 85.1477 121.828 83.9115 121.154 82.9038C120.538 81.9844 119.57 80.0158 118.848 79.1379C118.364 78.551 117.901 78.1354 117.374 77.9225Z" fill="black"/>
</g>
<g id="Group_7" opacity="0.2">
<g id="Group_8">
<path id="Vector_5" d="M61.3786 44.4453C61.4102 44.4297 61.4366 44.4141 61.4681 44.3986C62.1788 44.0194 61.5734 41.1314 61.5734 41.1314C61.5734 41.1314 62.3052 40.3522 62.0262 39.625C61.8788 39.2406 61.6998 39.1783 61.6998 39.1783C62.2472 38.5758 62.163 37.6356 61.505 37.1473C61.4471 37.1058 61.4102 37.0798 61.4102 37.0798C61.6524 36.763 61.3892 35.7605 60.7575 36.0461C60.6206 36.1085 60.3258 36.2955 59.9626 36.5448V35.3449C60.031 35.3449 60.0942 35.3397 60.1416 35.3397C62.3262 35.2099 63.9476 32.7218 63.7633 29.7818C63.5791 26.8471 61.6629 24.572 59.4783 24.7018C59.3467 24.7122 59.2203 24.7278 59.0887 24.7538C59.1045 24.7538 59.1203 24.759 59.1308 24.759C59.0992 24.759 59.0676 24.7642 59.0413 24.7642C59.0571 24.759 59.0729 24.7538 59.0887 24.7538C58.9571 24.7434 58.8308 24.7434 58.6992 24.7486C56.5145 24.8784 54.8931 27.3665 55.0773 30.3065C55.2458 33.0127 56.8882 35.1527 58.8518 35.3657V37.3499C57.6621 38.2537 56.3829 39.3445 56.4197 39.651C56.4882 40.1808 57.9674 44.9959 57.9674 44.9959H58.0043C58.1306 46.2166 58.4623 49.1669 58.9624 52.3198C59.9099 50.0396 60.9154 47.9411 61.9735 46.0244L61.3786 44.4453ZM59.6836 35.3293C59.6678 35.3293 59.6572 35.3241 59.6414 35.3241C59.673 35.3189 59.6994 35.3189 59.7309 35.3189C59.7152 35.3241 59.6994 35.3293 59.6836 35.3293Z" fill="black"/>
</g>
</g>
<g id="Group_9" opacity="0.2">
<path id="Vector_6" d="M82.4356 18.9414C82.4251 18.9362 82.4146 18.9362 82.3988 18.9362C82.0829 18.8946 81.7565 18.8791 81.4196 18.8946C80.2089 18.8115 79.1665 18.7077 76.2765 19.7569C72.8547 21.1542 71.3755 23.8292 70.9649 25.8965C70.728 28.7482 71.2649 30.909 71.4334 33.7555L71.6597 33.449C71.6597 33.7347 71.665 34.0152 71.6808 34.2905C71.6913 34.4463 71.7124 34.5918 71.7282 34.7424C75.8237 32.3011 81.1512 31.0752 87.7262 31.0752C88.0842 31.0752 88.4316 31.0856 88.7843 31.096C88.7106 30.9973 88.6264 30.909 88.5264 30.8259C88.7422 30.0727 88.9159 29.2936 89.0738 28.5612C89.216 27.8392 89.2476 27.112 89.2002 26.39C90.2425 26.7588 91.2375 27.486 91.6217 28.3638C92.1376 29.5481 92.6114 30.4623 93.201 31.496C97.4124 32.1764 101.124 33.6776 104.34 35.9942C105.735 35.7345 107.083 35.2618 108.246 34.4048C109.957 33.1426 111.115 30.6961 110.394 28.5768C109.715 29.2157 108.783 29.517 107.899 29.3871C108.662 28.5924 108.978 27.3198 108.694 26.2134C105.735 27.3717 102.203 28.8157 99.3707 27.3302C98.0704 26.6497 97.2334 25.1797 96.1964 24.0837C95.1593 22.9877 94.0275 21.9125 92.6377 21.4762C91.5059 21.123 89.2949 21.8086 88.1105 22.8059C87.9157 22.4735 87.7104 22.1463 87.4682 21.8398C86.3733 20.749 84.6361 19.2375 82.4356 18.9414Z" fill="black"/>
</g>
</g>
</g>
<g id="Group_10">
<path id="Vector_7" d="M83.8307 212.33C78.598 212.33 74.0286 210.585 70.1278 207.099C66.2218 203.609 64.274 198.736 64.274 192.462C64.274 186.899 66.1639 182.219 69.9383 178.422C73.7128 174.625 78.3453 172.729 83.8359 172.729C89.2423 172.729 93.7853 174.63 97.4756 178.422C101.166 182.219 103.008 186.899 103.008 192.462C103.008 198.643 101.076 203.5 97.2176 207.032C93.3589 210.564 88.8896 212.33 83.8307 212.33Z" fill="#407BFF"/>
<g id="Group_11" opacity="0.2">
<path id="Vector_8" d="M84.8835 177.736C84.3676 177.232 83.5832 177.123 82.862 177.087C80.8353 176.983 78.977 177.253 77.024 177.809C74.1286 178.905 71.6597 181.071 70.2278 183.787C68.796 186.504 68.4064 189.74 69.1592 192.711C69.5014 194.062 70.4068 195.578 71.8124 195.516C72.7441 195.474 73.4653 194.737 74.0865 194.051C75.5658 192.415 77.045 190.784 78.5243 189.148C80.7405 186.701 82.9673 184.229 84.6413 181.393C85.3099 180.255 85.8363 178.666 84.8835 177.736Z" fill="white"/>
</g>
</g>
</g>
<g id="Character">
<g id="Group_12">
<g id="Group_13">
<path id="Vector_9" d="M52.5874 28.3845C52.4137 25.6264 53.8403 23.263 55.8249 22.8786C55.6933 22.8682 55.567 22.8682 55.4354 22.8734C53.2507 23.0033 51.6293 25.4913 51.8136 28.4313C51.9978 31.3661 53.914 33.6412 56.0986 33.5113C56.2303 33.5009 56.3566 33.4853 56.4882 33.4594C54.4667 33.3191 52.7611 31.1479 52.5874 28.3845Z" fill="#263238"/>
<path id="Vector_10" opacity="0.5" d="M56.0723 33.4698C58.1918 33.4698 59.91 31.0977 59.91 28.1716C59.91 25.2455 58.1918 22.8734 56.0723 22.8734C53.9529 22.8734 52.2347 25.2455 52.2347 28.1716C52.2347 31.0977 53.9529 33.4698 56.0723 33.4698Z" fill="white"/>
<path id="Vector_11" opacity="0.5" d="M58.4465 24.4161L52.3874 29.6831C52.4663 30.0987 52.64 30.5714 52.8506 31.07L59.1098 25.5173C58.9677 25.1381 58.736 24.7745 58.4465 24.4161Z" fill="white"/>
<path id="Vector_12" opacity="0.5" d="M57.6253 23.5331L52.24 28.556L52.2873 29.0027L58.0096 23.9278C57.8622 23.5487 57.8832 23.6733 57.6253 23.5331Z" fill="white"/>
<path id="Vector_13" d="M60.4996 27.9118C60.3153 24.9771 58.3991 22.702 56.2145 22.8318C56.0829 22.8422 55.9565 22.8578 55.8249 22.8838C57.8411 23.024 59.5467 25.2004 59.7152 27.9586C59.8837 30.7168 58.3412 33.0905 56.3566 33.4749C56.4882 33.4853 56.7409 33.4801 56.8725 33.4697C59.0572 33.3347 60.6786 30.8466 60.4996 27.9118Z" fill="#263238"/>
<path id="Vector_14" d="M56.1513 41.7287H56.1302C55.8302 41.7287 55.588 41.4898 55.588 41.1937V33.475H56.6935V41.1937C56.6935 41.4898 56.4514 41.7287 56.1513 41.7287Z" fill="#263238"/>
<path id="Vector_15" d="M66.9851 47.6709L62.5895 54.4806L57.8253 41.8118L54.6773 42.5286C54.6773 42.5286 56.1671 58.2049 58.6413 60.6307C60.4627 62.4123 63.1159 62.5474 65.0163 61.0722C66.8851 59.6178 73.0969 51.9406 73.0969 51.9406L66.9851 47.6709Z" fill="#B97964"/>
<path id="Vector_16" d="M54.7036 43.1259C54.7036 43.1259 53.2244 38.3108 53.1559 37.781C53.0875 37.2512 56.8567 34.4566 57.4884 34.1709C58.1201 33.8853 58.3886 34.8826 58.1412 35.2046C58.1412 35.2046 58.178 35.2306 58.2359 35.2721C58.894 35.7552 58.9782 36.7006 58.4307 37.3031C58.4307 37.3031 58.6097 37.3654 58.7571 37.7498C59.0361 38.477 58.3044 39.2562 58.3044 39.2562C58.3044 39.2562 58.915 42.1442 58.1991 42.5234C57.4463 42.9233 56.8357 43.2194 56.8251 43.1415L54.7036 43.1259Z" fill="#B97964"/>
<path id="Vector_17" d="M55.8249 40.6378L56.8357 39.895V41.6039C56.8357 41.9364 56.6093 42.2065 56.3303 42.2065C56.0513 42.2065 55.8249 41.9364 55.8249 41.6039V40.6378Z" fill="#263238"/>
</g>
<g id="Group_14">
<path id="Vector_18" d="M84.1413 161.374L84.8256 168.454L90.2215 169.035L90.769 161.421L84.1413 161.374Z" fill="#B97964"/>
<g id="Group_15">
<g id="Group_16">
<path id="Vector_19" d="M83.6569 167.321C83.6464 167.041 83.8938 166.817 84.1728 166.828L85.8153 166.89C86.2312 166.895 86.6523 167.659 86.8945 167.997C87.9315 169.461 88.7317 168.926 89.9003 167.576C90.6321 167.498 90.8163 168.345 90.8742 168.573L92.1745 173.606C92.2903 174.027 92.0429 174.458 91.6218 174.573C91.5481 174.593 91.4691 174.604 91.3954 174.599C89.1686 174.567 88.1158 174.552 85.3468 174.515L76.8766 174.401C74.5656 174.37 74.1234 172.022 75.0762 171.82C79.3666 170.926 82.4093 169.7 83.7517 168.469C83.9307 168.308 83.678 167.836 83.6569 167.321Z" fill="#263238"/>
<path id="Vector_20" d="M82.862 168.88C83.4937 168.973 84.0728 169.363 84.4045 169.908" stroke="white" stroke-width="0.5" stroke-miterlimit="10" stroke-linecap="round" stroke-linejoin="round"/>
<path id="Vector_21" d="M81.646 169.576C82.2777 169.669 82.8568 170.059 83.1884 170.604" stroke="white" stroke-width="0.5" stroke-miterlimit="10" stroke-linecap="round" stroke-linejoin="round"/>
<path id="Vector_22" d="M80.151 170.277C80.7827 170.37 81.3617 170.76 81.6934 171.305" stroke="white" stroke-width="0.5" stroke-miterlimit="10" stroke-linecap="round" stroke-linejoin="round"/>
</g>
</g>
</g>
<g id="Group_17">
<path id="Vector_23" d="M127.987 150.331L133.799 154.439L137.826 150.803L132.414 145.407L127.987 150.331Z" fill="#B97964"/>
<g id="Group_18">
<g id="Group_19">
<path id="Vector_24" d="M132.109 154.621C131.888 154.445 131.883 154.112 132.072 153.91L133.183 152.705C133.457 152.393 134.31 152.57 134.72 152.606C136.505 152.777 136.615 151.816 136.352 150.045C136.768 149.437 137.531 149.853 137.742 149.957L142.401 152.258C142.79 152.445 142.959 152.918 142.774 153.307C142.743 153.375 142.701 153.442 142.648 153.499C141.179 155.172 140.49 155.961 138.663 158.044L133.078 164.407C131.556 166.142 129.487 164.948 129.951 164.09C132.056 160.247 133.104 157.13 133.041 155.307C133.036 155.058 132.509 154.943 132.109 154.621Z" fill="#263238"/>
<path id="Vector_25" d="M132.846 156.206C133.325 155.79 133.999 155.603 134.625 155.707" stroke="white" stroke-width="0.5" stroke-miterlimit="10" stroke-linecap="round" stroke-linejoin="round"/>
<path id="Vector_26" d="M132.583 157.587C133.062 157.172 133.736 156.985 134.362 157.089" stroke="white" stroke-width="0.5" stroke-miterlimit="10" stroke-linecap="round" stroke-linejoin="round"/>
<path id="Vector_27" d="M132.146 159.187C132.625 158.771 133.299 158.584 133.925 158.688" stroke="white" stroke-width="0.5" stroke-miterlimit="10" stroke-linecap="round" stroke-linejoin="round"/>
</g>
</g>
</g>
<g id="Group_20">
<path id="Vector_28" d="M77.1451 79.4133C77.1451 79.4133 81.446 133.59 81.4828 133.896L84.1728 165.607H91.1585C91.1585 165.607 91.2059 163.779 91.5691 161.374C94.754 140.29 91.4902 133.475 91.4902 133.475C91.4902 133.475 94.296 92.7678 95.2804 89.7031C95.3752 89.3811 92.0324 66.0535 77.1451 79.4133Z" fill="#263238"/>
<path id="Vector_29" d="M77.0398 79.3457L77.2346 79.6626C80.1141 83.5064 85.5679 87.5995 88.4211 91.1108L89.4108 93.3236C89.4108 93.3236 110.168 77.4446 96.6754 70.8998C96.1122 70.6297 91.985 68.4481 91.985 68.4481C88.4106 67.5911 77.0398 79.3457 77.0398 79.3457Z" fill="#263238"/>
<path id="Vector_30" d="M108.057 93.3806C109.189 100.315 112.695 118.23 114.684 124.972C114.684 124.972 120.801 128.426 124.26 132.291L135.299 147.625L130.372 151.988L110.241 137.459C105.688 134.078 103.845 131.574 102.061 128.276C97.6914 120.22 95.5383 109.966 92.9273 101.858C91.7218 98.0971 87.0787 85.9892 87.4788 82.0987C88.0052 76.8316 88.1947 68.3078 94.6855 71.2062C100.892 72.9983 104.572 74.141 108.057 93.3806Z" fill="#263238"/>
<path id="Vector_31" opacity="0.2" d="M92.622 103.665L87.5156 85.0595L81.6934 83.1428L86.2364 87.3242L92.622 103.665Z" fill="black"/>
</g>
<path id="Vector_32" d="M69.3698 44.783C67.48 46.3257 64.1424 51.5979 64.1424 51.5979L71.6598 55.8001C71.6598 55.8001 75.5027 50.2785 75.1078 47.8268C74.6972 45.266 72.2125 43.5519 69.3698 44.783Z" fill="#263238"/>
<path id="Vector_33" opacity="0.5" d="M69.3698 44.783C67.48 46.3257 64.1424 51.5979 64.1424 51.5979L71.6598 55.8001C71.6598 55.8001 75.5027 50.2785 75.1078 47.8268C74.6972 45.266 72.2125 43.5519 69.3698 44.783Z" fill="white"/>
<path id="Vector_34" opacity="0.3" d="M68.9645 54.1379V48.8605C68.9645 48.8605 66.7745 55.1611 67.2799 56.2935C67.78 57.4259 67.9853 58.0128 67.9853 58.0128L68.8276 57.0519L68.9645 54.1379Z" fill="black"/>
<path id="Vector_35" d="M96.4912 67.6534C94.8751 65.825 93.8169 63.5811 93.4432 61.1813C92.8746 57.5246 92.0955 52.4082 92.1798 52.0082L92.4324 42.1443C90.2215 39.9627 82.0198 39.9419 82.0198 39.9419L76.5186 41.3288C76.5186 41.3288 74.4761 42.217 72.76 43.1624C70.4753 44.4246 69.2698 44.4921 68.9592 45.9413C68.9592 45.9413 68.5117 50.6993 68.3854 55.5144C68.3433 57.2337 76.4344 73.0451 76.5344 76.0214V80.8677C88.2632 86.6957 100.581 72.2867 100.581 72.2867L96.4912 67.6534Z" fill="#263238"/>
<path id="Vector_36" opacity="0.5" d="M96.4912 67.6534C94.8751 65.825 93.8169 63.5811 93.4432 61.1813C92.8746 57.5246 92.0955 52.4082 92.1798 52.0082L92.4324 42.1443C90.2215 39.9627 82.0198 39.9419 82.0198 39.9419L76.5186 41.3288C76.5186 41.3288 74.4761 42.217 72.76 43.1624C70.4753 44.4246 69.2698 44.4921 68.9592 45.9413C68.9592 45.9413 68.5117 50.6993 68.3854 55.5144C68.3433 57.2337 76.4344 73.0451 76.5344 76.0214V80.8677C88.2632 86.6957 100.581 72.2867 100.581 72.2867L96.4912 67.6534Z" fill="white"/>
<path id="Vector_37" opacity="0.3" d="M92.6325 55.8467C92.6325 55.8467 87.4893 51.2654 87.7525 49.1201L92.1271 51.4368L92.4219 54.3404L92.6325 55.8467Z" fill="black"/>
<g id="Group_21">
<path id="Vector_38" d="M96.4017 46.4503C96.5228 46.6269 103.966 54.8962 106.956 58.0232C107.599 58.6932 108.094 59.488 108.42 60.3502L114.558 77.2784L110.715 78.4108L101.892 62.0384L90.8005 52.777L96.4017 46.4503Z" fill="#B97964"/>
<g id="Group_22">
<g id="Group_23">
<g id="Group_24">
<g id="Group_25">
<g id="Group_26">
<path id="Vector_39" d="M110.568 77.055C110.568 77.055 109.541 78.2134 109.641 79.4808C109.741 80.7482 109.478 81.787 109.62 82.7272C109.762 83.6674 110.457 82.5869 110.71 81.9377C110.963 81.2884 111.252 80.556 111.715 80.8209C112.179 81.0858 114.484 85.0231 115.169 85.3191C115.853 85.6152 115.685 84.862 115.685 84.862C115.685 84.862 116.269 85.8022 116.711 85.6775C116.827 85.6464 117.038 85.3867 116.838 84.914C116.39 83.8543 115.337 81.6831 115.337 81.6831C115.395 81.8078 116.89 84.3998 117.169 84.7582C117.527 85.2256 117.943 85.2672 118.211 85.0542C118.596 84.7478 116.848 81.4754 116.874 81.2884C116.874 81.2884 117.817 83.2051 118.448 83.2362C119.085 83.2674 118.559 82.0312 117.885 81.0235C117.269 80.1041 116.301 78.1354 115.579 77.2576C114.695 76.1772 113.853 75.6474 112.573 75.9746C111.289 76.3019 110.568 77.055 110.568 77.055Z" fill="#B97964"/>
</g>
</g>
</g>
</g>
</g>
<path id="Vector_40" d="M91.0216 41.4014C93.5169 41.5572 98.0441 47.7125 98.0441 47.7125L92.185 54.2469C92.185 54.2469 86.6892 49.5097 86.5944 46.3412C86.5155 43.6609 87.8526 41.1936 91.0216 41.4014Z" fill="#263238"/>
<path id="Vector_41" opacity="0.5" d="M91.0216 41.4014C93.5169 41.5572 98.0441 47.7125 98.0441 47.7125L92.185 54.2469C92.185 54.2469 86.6892 49.5097 86.5944 46.3412C86.5155 43.6609 87.8526 41.1936 91.0216 41.4014Z" fill="white"/>
</g>
<g id="Group_27">
<path id="Vector_42" d="M73.0179 17.8817C69.5962 19.279 68.1169 21.954 67.7063 24.0213C67.4694 26.873 68.0064 29.0338 68.1748 31.8803L79.1824 17.061C77.3609 17.0662 76.6555 16.5572 73.0179 17.8817Z" fill="#263238"/>
<path id="Vector_43" d="M77.0609 17.1752C80.2668 16.4013 82.7778 18.5465 84.2044 19.9698C85.6942 21.8605 86.2786 24.3018 85.81 26.686C85.3257 28.9039 84.7361 31.5894 83.1253 32.4776C82.2198 32.997 81.1407 33.1217 80.151 32.8204L71.3123 20.5463C72.9179 18.9673 74.8973 17.8038 77.0609 17.1752Z" fill="#263238"/>
<path id="Vector_44" d="M81.3407 35.454C81.3407 35.3709 81.3354 35.2826 81.3196 35.1995C81.267 34.8151 81.0985 34.4619 80.8353 34.1866C80.1352 33.4074 78.9297 33.3451 78.1348 34.0567L75.0763 35.3969C75.071 35.4436 75.071 35.4852 75.0657 35.5371L75.6185 39.9782C75.7027 41.3028 74.1866 42.3884 73.339 42.9701C72.8284 43.3597 71.8124 46.9749 75.2184 49.65C76.2239 50.4447 77.7768 49.1461 78.7875 48.2839C82.941 44.3414 82.8515 40.7002 82.8515 40.7002C81.3144 39.3185 81.2038 38.3888 81.3407 35.454Z" fill="#B97964"/>
<path id="Vector_45" opacity="0.2" d="M73.955 35.1372C73.9813 35.0956 74.0023 35.0488 74.0129 35.0021L77.3293 34.7008C78.319 34.3009 79.435 34.758 79.8246 35.7293C79.9773 35.9994 80.3615 34.0983 79.9615 36.5812L79.9562 36.6175L75.5763 39.6562C75.5763 39.6562 75.0447 36.0513 75.0183 36.0358C74.9867 36.0306 73.955 35.1372 73.955 35.1372Z" fill="black"/>
<path id="Vector_46" d="M84.0149 27.0081C82.7778 32.1089 82.3672 34.2853 79.3034 36.5915C74.692 40.0457 68.7434 37.7239 68.417 32.4153C68.1643 27.647 70.2068 20.1153 75.5922 18.7128C80.9775 17.3155 85.252 21.9021 84.0149 27.0081Z" fill="#B97964"/>
<path id="Vector_47" d="M85.3415 31.8439C84.5782 32.8464 83.4727 33.4126 82.5146 33.5373C81.0722 33.7295 80.6406 31.4284 81.3039 30.0935C81.8987 28.8936 83.3832 28.2183 84.7046 28.6391C86.0048 29.0546 86.2154 30.696 85.3415 31.8439Z" fill="#B97964"/>
<path id="Vector_48" opacity="0.2" d="M82.4199 31.2466C82.5199 30.7532 82.8199 30.3013 83.2411 30.0156C83.6622 29.7299 84.1939 29.6156 84.6887 29.6987" stroke="black" stroke-width="0.5" stroke-miterlimit="10" stroke-linecap="round" stroke-linejoin="round"/>
<path id="Vector_49" d="M76.7976 27.9015C76.6976 28.4521 76.3344 28.8729 75.9869 28.8417C75.6395 28.8105 75.4342 28.3378 75.5342 27.7872C75.6342 27.2367 75.9975 26.8159 76.3449 26.8471C76.6924 26.8783 76.8977 27.3509 76.7976 27.9015Z" fill="#263238"/>
<path id="Vector_50" d="M71.586 27.3145C71.4913 27.8495 71.1281 28.2547 70.7806 28.2235C70.4332 28.1923 70.2279 27.7352 70.3279 27.2002C70.4227 26.6652 70.7859 26.2601 71.1333 26.2912C71.4808 26.3276 71.6861 26.7847 71.586 27.3145Z" fill="#263238"/>
<path id="Vector_51" d="M78.1505 26.0939C78.0821 26.0939 78.0189 26.0679 77.9716 26.016C77.2556 25.1797 76.3028 25.3407 76.2923 25.3459C76.1501 25.3719 76.0238 25.2784 76.0133 25.1382C76.0027 24.9979 76.108 24.8629 76.2502 24.8369C76.2975 24.8265 77.4925 24.6239 78.3822 25.6628C78.4717 25.7667 78.4506 25.9277 78.3401 26.0264C78.2822 26.0731 78.219 26.0939 78.1505 26.0939Z" fill="#263238"/>
<path id="Vector_52" d="M70.1805 24.4992C70.1278 24.4733 70.091 24.4317 70.0752 24.3694C70.0436 24.2447 70.1226 24.0993 70.2489 24.0473C71.5439 23.5071 72.3704 24.1149 72.4073 24.1408C72.5073 24.2136 72.5126 24.3642 72.4231 24.4785C72.3336 24.5927 72.1809 24.6239 72.0809 24.5512C72.0493 24.5252 71.3965 24.0681 70.37 24.4941C70.3016 24.5252 70.2331 24.5252 70.1805 24.4992Z" fill="#263238"/>
<path id="Vector_53" d="M73.039 27.2158C73.039 27.2158 71.9546 29.0806 70.8596 30.2025C70.6701 30.3999 70.728 30.722 70.9701 30.8414C71.5913 31.1479 72.381 31.018 72.381 31.018L73.039 27.2158Z" fill="#A24E3F"/>
<path id="Vector_54" d="M76.5397 26.8938L75.3658 26.4783C75.3658 26.4783 75.9133 27.4444 76.5397 26.8938Z" fill="#263238"/>
<path id="Vector_55" d="M71.2597 26.3224L70.0857 25.9069C70.0805 25.9017 70.6279 26.873 71.2597 26.3224Z" fill="#263238"/>
<path id="Vector_56" d="M72.4125 32.488C72.7389 33.049 73.1022 34.1242 73.1022 34.1242C73.2074 34.1086 73.3127 34.0878 73.418 34.0671C74.8394 33.8022 75.4184 33.2152 75.6342 32.649C75.7501 32.3374 75.7501 32.0257 75.7185 31.7816C75.6816 31.4959 75.5921 31.3037 75.5921 31.3037C74.913 31.8855 73.6075 32.2335 72.9021 32.3945C72.602 32.462 72.4125 32.488 72.4125 32.488Z" fill="#263238"/>
<path id="Vector_57" d="M72.8969 32.3893L73.1127 32.8672C74.4498 32.6127 75.3658 32.2595 75.7132 31.7816C75.6764 31.4959 75.5869 31.3037 75.5869 31.3037C74.9131 31.8855 73.6023 32.2335 72.8969 32.3893Z" fill="white"/>
<path id="Vector_58" d="M73.418 34.0671C74.8393 33.8022 75.4184 33.2152 75.6342 32.649C75.1552 32.7581 74.5814 32.9399 74.1076 33.2516C73.7391 33.4853 73.5391 33.7814 73.418 34.0671Z" fill="#DE5753"/>
<path id="Vector_59" d="M81.9513 27.9119C81.9513 27.9119 79.7298 23.9902 80.2668 21.1126C80.2668 21.1126 70.2121 16.7234 69.2013 25.9536C69.2013 25.9536 68.6328 17.6895 77.5452 18.0999C86.4575 18.5102 85.789 30.0311 81.0196 33.1633C81.0143 33.1217 83.32 30.3636 81.9513 27.9119Z" fill="#263238"/>
<path id="Vector_60" d="M73.3759 18.4531C72.0019 19.3101 70.9333 20.5775 70.3226 22.0579C70.0805 23.1747 71.4334 24.2758 71.4334 24.2758L73.8339 22.2085L73.3654 24.3434C76.5028 24.6083 78.6243 23.3409 80.1826 21.2216L79.1402 17.8661C79.1402 17.8661 74.5814 17.7778 73.3759 18.4531Z" fill="#263238"/>
<g id="Group_28">
<path id="Vector_61" d="M107.13 26.7016C106.451 27.3405 105.519 27.6418 104.635 27.5119C105.398 26.7172 105.714 25.4446 105.43 24.3382C102.471 25.4965 98.9391 26.9405 96.1069 25.455C94.8066 24.7745 93.9696 23.3045 92.9326 22.2085C91.8955 21.1125 90.7637 20.0373 89.3739 19.601C87.9894 19.1699 84.9836 20.2918 84.2308 21.6372L84.0518 24.2862C85.4837 24.0161 87.7368 25.0446 88.3632 26.4834C88.9949 27.9222 89.5529 28.9559 90.3373 30.3012C91.3322 31.9998 92.3061 33.0698 93.9959 33.8126C94.7645 34.1502 96.5123 34.5242 99.1075 34.358C101.166 34.2281 103.282 33.7866 104.988 32.5244C106.693 31.2726 107.851 28.8209 107.13 26.7016Z" fill="#263238"/>
</g>
</g>
</g>
</g>
</g>
</svg>
