<svg width="400" height="400" viewBox="0 0 400 400" fill="none" xmlns="http://www.w3.org/2000/svg">
<g clip-path="url(#clip0_44918_107631)">
<path d="M444 351.817H-43.6895V352.059H444V351.817Z" fill="#EBEBEB"/>
<path d="M395.133 367.405H362.828V367.648H395.133V367.405Z" fill="#EBEBEB"/>
<path d="M279.376 370.041H270.9V370.283H279.376V370.041Z" fill="#EBEBEB"/>
<path d="M361.854 358.414H343.137V358.657H361.854V358.414Z" fill="#EBEBEB"/>
<path d="M49.6081 360.042H7.48145V360.285H49.6081V360.042Z" fill="#EBEBEB"/>
<path d="M64.47 360.042H58.2959V360.285H64.47V360.042Z" fill="#EBEBEB"/>
<path d="M175.915 364.131H84.542V364.373H175.915V364.131Z" fill="#EBEBEB"/>
<path d="M175.915 364.131H84.542V364.373H175.915V364.131Z" fill="#EBEBEB"/>
<path d="M187.483 308.606H-0.862228C-3.93467 308.606 -6.43164 306.126 -6.43164 303.074V40.0995C-6.43164 37.0476 -3.93467 34.5674 -0.862228 34.5674H187.483C190.556 34.5674 193.053 37.0476 193.053 40.0995V303.074C193.053 306.126 190.556 308.606 187.483 308.606ZM-0.862228 34.8096C-3.79812 34.8096 -6.1878 37.1833 -6.1878 40.0995V303.074C-6.1878 305.99 -3.79812 308.364 -0.862228 308.364H187.483C190.419 308.364 192.809 305.99 192.809 303.074V40.0995C192.809 37.1833 190.419 34.8096 187.483 34.8096H-0.862228Z" fill="#EBEBEB"/>
<path d="M398.46 308.606H210.114C207.042 308.606 204.545 306.126 204.545 303.074V40.0995C204.545 37.0476 207.042 34.5674 210.114 34.5674H398.46C401.532 34.5674 404.029 37.0476 404.029 40.0995V303.074C404.029 306.126 401.532 308.606 398.46 308.606ZM210.114 34.8096C207.178 34.8096 204.789 37.1833 204.789 40.0995V303.074C204.789 305.99 207.178 308.364 210.114 308.364H398.46C401.396 308.364 403.786 305.99 403.786 303.074V40.0995C403.786 37.1833 401.396 34.8096 398.46 34.8096H210.114Z" fill="#EBEBEB"/>
<path d="M387.689 351.865V304.091H365.49V259.786H362.359V285.179H353.824V278.155H338.452V253.837H335.614V224.122H333.332V253.294H327.928V296.524H317.677V253.294H299.184V289.859H279.754V245.544H276.623V270.947H268.088V263.923H252.716V239.605H249.878V209.88H247.596V239.062H242.192V282.292H231.941V239.062H213.448V280.878H200.973V256.559H198.124V226.845H195.842V256.017H190.439V299.247H180.187V256.017H161.694V299.247H152.584V304.091H136.627V259.786H133.496V285.179H124.961V278.155H109.589V253.837H106.741V224.122H104.469V253.294H99.5039V250.863H81.001V253.294H70.7595V250.863H65.3559V221.691H63.0735V251.405H60.2254V275.723H44.8632V282.747H36.3189V257.354H33.1879V301.659H10.9883V351.865H387.689Z" fill="#F0F0F0"/>
<path d="M110.39 123.718C120.975 113.203 120.975 96.1556 110.39 85.641C99.8042 75.1264 82.6418 75.1264 72.0563 85.641C61.4709 96.1556 61.4709 113.203 72.0563 123.718C82.6418 134.232 99.8042 134.232 110.39 123.718Z" fill="#FAFAFA"/>
<path d="M77.1569 104.373C77.1569 101.786 75.0501 99.6934 72.4458 99.6934C71.9776 99.6934 71.5192 99.7612 71.09 99.8871C71.1583 99.4221 71.1973 98.9377 71.1973 98.4533C71.1973 92.9793 66.7301 88.5419 61.2192 88.5419C60.595 88.5419 59.9805 88.6001 59.3855 88.7163C57.8542 86.2264 55.0938 84.5503 51.9434 84.5503C47.164 84.5503 43.2917 88.3676 43.2235 93.0955C43.1747 93.0955 43.1259 93.0955 43.0772 93.0955C38.6392 93.0955 35.04 96.6706 35.04 101.079C35.04 105.487 38.6392 109.062 43.0772 109.062H72.5921C75.1281 108.985 77.1667 106.921 77.1667 104.383L77.1569 104.373Z" fill="#F5F5F5"/>
<path d="M373.957 169.218C373.957 166.631 371.85 164.538 369.246 164.538C368.777 164.538 368.319 164.606 367.89 164.732C367.958 164.267 367.997 163.783 367.997 163.298C367.997 157.824 363.53 153.387 358.019 153.387C357.395 153.387 356.78 153.445 356.185 153.561C354.654 151.071 351.894 149.395 348.743 149.395C343.964 149.395 340.092 153.213 340.023 157.94C339.974 157.94 339.926 157.94 339.877 157.94C335.439 157.94 331.84 161.516 331.84 165.924C331.84 170.332 335.439 173.907 339.877 173.907H369.392C371.928 173.83 373.966 171.766 373.966 169.228L373.957 169.218Z" fill="#F5F5F5"/>
<path d="M234.418 98.1435C234.418 94.0549 237.754 90.7415 241.87 90.7415C242.611 90.7415 243.333 90.8577 244.006 91.0515C243.899 90.3055 243.84 89.5498 243.84 88.7747C243.84 80.1132 250.912 73.0987 259.622 73.0987C260.617 73.0987 261.582 73.1956 262.528 73.37C264.957 69.4268 269.317 66.7819 274.311 66.7819C281.87 66.7819 288.005 72.8178 288.113 80.2973C288.191 80.2973 288.269 80.2876 288.347 80.2876C295.369 80.2876 301.066 85.9457 301.066 92.9214C301.066 99.8971 295.369 105.555 288.347 105.555H241.646C237.627 105.429 234.398 102.174 234.398 98.1531L234.418 98.1435Z" fill="#F5F5F5"/>
<path d="M96.6553 178.771C96.6553 173.849 100.674 169.857 105.629 169.857C106.526 169.857 107.384 169.993 108.204 170.235C108.077 169.344 107.999 168.433 107.999 167.503C107.999 157.078 116.504 148.63 126.999 148.63C128.199 148.63 129.36 148.746 130.501 148.959C133.417 144.212 138.675 141.034 144.683 141.034C153.783 141.034 161.157 148.291 161.294 157.301C161.391 157.301 161.479 157.291 161.567 157.291C170.023 157.291 176.87 164.093 176.87 172.493C176.87 180.892 170.023 187.694 161.567 187.694H105.365L105.375 187.684C100.537 187.548 96.6553 183.625 96.6553 178.79V178.771Z" fill="#F5F5F5"/>
<path d="M136.276 118.402C136.276 116.794 134.969 115.495 133.35 115.495C133.057 115.495 132.774 115.544 132.511 115.621C132.55 115.331 132.579 115.03 132.579 114.73C132.579 111.329 129.799 108.568 126.376 108.568C125.986 108.568 125.605 108.607 125.235 108.675C124.279 107.124 122.572 106.088 120.602 106.088C117.627 106.088 115.217 108.461 115.178 111.397C115.149 111.397 115.12 111.397 115.091 111.397C112.33 111.397 110.097 113.616 110.097 116.358C110.097 119.099 112.33 121.318 115.091 121.318H133.438C135.018 121.27 136.286 119.991 136.286 118.412L136.276 118.402Z" fill="#F5F5F5"/>
<path d="M29.5967 206.751C29.5967 205.143 30.9037 203.845 32.5228 203.845C32.8154 203.845 33.0983 203.893 33.3616 203.97C33.3226 203.68 33.2934 203.379 33.2934 203.079C33.2934 199.678 36.0732 196.917 39.4968 196.917C39.8869 196.917 40.2673 196.956 40.638 197.024C41.5938 195.474 43.3007 194.437 45.271 194.437C48.2459 194.437 50.6551 196.811 50.6941 199.746C50.7234 199.746 50.7526 199.746 50.7819 199.746C53.5422 199.746 55.7758 201.965 55.7758 204.707C55.7758 207.449 53.5422 209.667 50.7819 209.667H32.435C30.8549 209.619 29.5869 208.34 29.5869 206.761L29.5967 206.751Z" fill="#F5F5F5"/>
<path d="M304.157 216.246C304.157 214.637 305.464 213.339 307.083 213.339C307.376 213.339 307.659 213.388 307.922 213.465C307.883 213.174 307.854 212.874 307.854 212.574C307.854 209.173 310.634 206.412 314.057 206.412C314.447 206.412 314.828 206.451 315.199 206.518C316.154 204.968 317.861 203.932 319.832 203.932C322.806 203.932 325.216 206.305 325.255 209.241C325.284 209.241 325.313 209.241 325.342 209.241C328.103 209.241 330.336 211.46 330.336 214.201C330.336 216.943 328.103 219.162 325.342 219.162H306.996C305.415 219.113 304.147 217.835 304.147 216.255L304.157 216.246Z" fill="#F5F5F5"/>
<path d="M359.776 336.121L354.685 300.012L349.613 310.456L300.883 238.675L220.17 213.058L192.977 154.579L69.3278 69.9982L69.6595 95.692L49.7617 107.589L159.414 171.272L191.718 230.158L286.311 260.154L335.275 322.199L324.731 325.299L359.776 336.121Z" fill="#E0E0E0"/>
<path d="M201.135 389.383C290.321 389.383 362.621 385.737 362.621 381.239C362.621 376.741 290.321 373.095 201.135 373.095C111.948 373.095 39.6484 376.741 39.6484 381.239C39.6484 385.737 111.948 389.383 201.135 389.383Z" fill="#F5F5F5"/>
<path d="M318.437 358.473C318.437 358.473 322.985 348.621 317.786 338.902C312.588 329.184 311.085 326.901 314.397 324.904C317.71 322.907 319.232 332.674 319.232 332.674C319.232 332.674 322.027 325.96 319.72 318.932C317.413 311.905 315.967 300.455 319.117 299.228C322.267 298.001 319.72 313.512 322.449 318.799C322.449 318.799 324.746 312.913 325.12 307.264C325.493 301.615 324.909 292.6 327.398 290.289C329.887 287.978 331.477 289.576 329.035 302.034C326.594 314.491 326.613 324.619 326.613 324.619C326.613 324.619 332.013 308.272 335.632 307.796C339.251 307.321 339.251 312.608 336.149 317.201C333.047 321.795 327.073 330.02 326.087 334.252C326.087 334.252 332.013 321.956 337.336 325.722C342.668 329.488 332.702 336.924 328.26 339.606C323.818 342.288 320.735 359.12 320.735 359.12L318.447 358.473H318.437Z" fill="#407BFF"/>
<path opacity="0.2" d="M318.437 358.473C318.437 358.473 322.985 348.621 317.786 338.902C312.588 329.184 311.085 326.901 314.397 324.904C317.71 322.907 319.232 332.674 319.232 332.674C319.232 332.674 322.027 325.96 319.72 318.932C317.413 311.905 315.967 300.455 319.117 299.228C322.267 298.001 319.72 313.512 322.449 318.799C322.449 318.799 324.746 312.913 325.12 307.264C325.493 301.615 324.909 292.6 327.398 290.289C329.887 287.978 331.477 289.576 329.035 302.034C326.594 314.491 326.613 324.619 326.613 324.619C326.613 324.619 332.013 308.272 335.632 307.796C339.251 307.321 339.251 312.608 336.149 317.201C333.047 321.795 327.073 330.02 326.087 334.252C326.087 334.252 332.013 321.956 337.336 325.722C342.668 329.488 332.702 336.924 328.26 339.606C323.818 342.288 320.735 359.12 320.735 359.12L318.447 358.473H318.437Z" fill="black"/>
<path d="M322.028 362.515C322.028 362.515 317.595 352.596 322.909 342.953C328.222 333.311 329.754 331.047 326.47 329.012C323.186 326.977 321.549 336.715 321.549 336.715C321.549 336.715 318.84 329.954 321.233 322.964C323.627 315.965 325.206 304.544 322.076 303.27C318.945 301.996 321.3 317.544 318.505 322.784C318.505 322.784 316.284 316.869 315.968 311.21C315.652 305.552 316.36 296.556 313.9 294.207C311.439 291.858 309.831 293.437 312.119 305.933C314.407 318.428 314.273 328.556 314.273 328.556C314.273 328.556 309.075 312.133 305.456 311.6C301.837 311.068 301.78 316.365 304.824 320.996C307.868 325.636 313.747 333.948 314.675 338.189C314.675 338.189 308.902 325.808 303.532 329.497C298.161 333.187 308.031 340.766 312.445 343.515C316.858 346.263 319.73 363.133 319.73 363.133L322.028 362.515Z" fill="#407BFF"/>
<path d="M301.598 355.44H338.179L335.221 381.439H304.566L301.598 355.44Z" fill="#263238"/>
<path d="M256.063 172.817L265.388 180.615C266.93 181.917 268.509 183.173 270.06 184.419C271.611 185.674 273.2 186.843 274.703 187.909C275.077 188.156 275.469 188.451 275.804 188.641L276.321 188.964L276.455 189.05C276.503 189.078 276.465 189.059 276.475 189.069C276.475 189.069 276.465 189.078 276.465 189.088C276.417 189.135 276.637 189.249 277.164 189.211C278.207 189.116 279.854 188.432 281.395 187.538C284.526 185.721 287.743 183.173 290.711 180.643L290.816 180.548C291.84 179.673 293.391 179.787 294.272 180.814C294.99 181.651 295.038 182.84 294.464 183.724C292.051 187.424 289.37 190.723 285.78 193.709C283.952 195.164 281.96 196.61 278.954 197.437C277.461 197.827 275.536 198.008 273.535 197.352C273.287 197.275 273.047 197.18 272.808 197.076L272.482 196.933L272.272 196.829L271.429 196.41C270.845 196.125 270.386 195.84 269.869 195.554C267.887 194.413 266.106 193.205 264.354 191.979C262.593 190.761 260.917 189.478 259.242 188.203C255.91 185.617 252.713 182.983 249.563 180.158C247.543 178.351 247.38 175.27 249.199 173.264C250.98 171.305 253.996 171.105 256.016 172.788L256.063 172.826V172.817Z" fill="#EBC0BB"/>
<path d="M255.392 187.205C256.551 187.623 258.648 188.774 260.926 190.115C265.493 192.797 270.797 196.258 270.797 196.258L275.143 187.043C266.823 178.561 254.339 171.885 254.339 171.885C254.339 171.885 253.851 174.7 253.621 177.923C253.334 181.899 253.459 186.501 255.392 187.205Z" fill="#D70015"/>
<path d="M270.165 196.106L275.134 185.427L277.623 188.974L272.53 197.827L270.165 196.106Z" fill="#D70015"/>
<path opacity="0.6" d="M270.165 196.106L275.134 185.427L277.623 188.974L272.53 197.827L270.165 196.106Z" fill="white"/>
<path opacity="0.2" d="M255.392 185.16C256.551 185.522 258.648 186.52 260.926 187.68C259.394 180.786 254.291 176.649 254.291 176.649C254.052 176.792 253.832 176.953 253.621 177.115C253.334 180.558 253.459 184.542 255.392 185.16Z" fill="black"/>
<path d="M230.771 222.409C230.771 222.409 231.231 230.131 235.022 243.654C236.937 250.463 239.694 258.746 243.677 268.246C245.572 272.772 247.746 277.575 250.235 282.624C251.355 284.926 252.561 287.265 253.815 289.661C255.271 330.619 278.41 372.271 278.41 372.271C279.693 372.928 284.164 372.205 284.145 370.912C280.718 365.51 273.978 313.017 269.631 288.13C269.363 284.745 268.971 281.122 268.492 277.375C267.219 267.333 265.342 256.397 263.514 246.783C260.641 231.643 257.903 219.766 257.903 219.766L250.273 220.507L230.771 222.4V222.409Z" fill="#EEC1BB"/>
<path d="M221.678 279.106C222.29 283.509 223.085 288.216 224.052 293.237C215.79 320.634 232.783 374.097 232.783 374.097C235.665 374.658 238.211 374.287 239.494 373.327C236.287 357.218 238.594 315.337 241.083 290.308C241.304 288.035 241.581 285.534 241.888 282.872C242.395 278.364 243.008 273.381 243.659 268.236C244.75 259.63 245.985 250.567 247.105 242.541C248.465 232.832 249.652 224.625 250.255 220.498C250.514 218.682 250.667 217.655 250.667 217.655L226.799 220.222C226.799 220.222 220.739 226.984 219.811 248.095C219.466 256.178 219.868 266.372 221.658 279.096L221.678 279.106Z" fill="#EEC1BB"/>
<path opacity="0.2" d="M221.676 279.106C229.191 281.55 235.941 282.653 241.895 282.881C242.403 278.373 243.016 273.39 243.667 268.246C245.562 272.772 247.735 277.575 250.225 282.624C258.429 281.816 264.556 279.42 268.472 277.375C267.199 267.333 265.322 256.397 263.494 246.783C261.263 245.451 258.592 244.339 255.385 243.54C252.877 242.912 250.081 242.589 247.113 242.551C243.274 242.494 239.157 242.893 235.012 243.644C229.794 244.605 224.548 246.145 219.818 248.104C219.474 256.188 219.876 266.382 221.666 279.106H221.676Z" fill="black"/>
<path d="M221.541 172.579C221.541 172.579 222.613 176.497 223.762 183.078C224.049 184.704 224.346 186.492 224.624 188.422C224.825 189.811 225.026 191.285 225.208 192.816C225.418 194.546 225.629 196.382 225.801 198.284C226.423 204.817 226.797 212.253 226.596 220.184H258.026C258.026 220.184 262.985 183.667 254.79 171.894C254.79 171.894 238.678 164.353 221.531 172.579H221.541Z" fill="#D70015"/>
<path opacity="0.2" d="M223.753 183.078C224.04 184.704 224.337 186.492 224.614 188.422C224.815 189.81 225.016 191.284 225.198 192.816C226.232 189.373 226.835 184.067 225.103 178.523L223.743 183.078H223.753Z" fill="black"/>
<path d="M237.796 166.598C227.935 166.598 226.7 174.652 226.7 174.652L231.305 172.684L244.852 181.68L248.184 172.598L252.358 173.368C252.358 173.368 246.365 166.607 237.796 166.598Z" fill="#D70015"/>
<path opacity="0.6" d="M237.796 166.598C227.935 166.598 226.7 174.652 226.7 174.652L231.305 172.684L244.852 181.68L248.184 172.598L252.358 173.368C252.358 173.368 246.365 166.607 237.796 166.598Z" fill="white"/>
<path d="M231.69 171.057L244.471 180.529C244.471 180.453 246.453 171.057 246.453 171.057C243.437 170.401 242.202 168.946 241.877 167.197C241.628 165.884 241.906 164.391 242.317 162.946L235.242 157.383L233.347 155.89C234.218 160.226 235.051 168.167 231.69 171.057Z" fill="#EEC1BB"/>
<path opacity="0.2" d="M235.185 160.587C235.453 163.317 238.823 166.16 241.877 167.197C241.628 165.884 241.906 164.391 242.318 162.946L235.243 157.383C235.09 158.201 235.061 159.38 235.185 160.587Z" fill="black"/>
<path d="M256.88 138.896C256.88 138.896 257.79 139.533 258.077 139.961L255.837 146.114" stroke="#407BFF" stroke-width="0.75" stroke-miterlimit="10"/>
<path d="M254.698 153.122C254.698 153.122 260.94 140.503 248.389 133.105C235.838 125.706 226.752 141.159 228.006 148.91C228.552 152.248 229.806 156.318 233.042 158.315C234.344 159.123 234.44 155.481 234.44 155.481C234.44 155.481 246.665 159.751 254.688 153.122H254.698Z" fill="#263238"/>
<path d="M233.981 144.735C232.861 152.409 232.229 155.624 235.187 160.483C239.629 167.796 249.136 167.948 252.477 160.882C255.493 154.52 256.805 143.042 250.151 138.126C243.593 133.276 235.101 137.07 233.99 144.745L233.981 144.735Z" fill="#EEC1BB"/>
<path d="M242.014 141.644C236.242 145.42 242.436 154.111 234.327 150.983C226.218 147.845 233.532 137.441 239.315 136.481C245.097 135.52 242.014 141.644 242.014 141.644Z" fill="#263238"/>
<path d="M250.312 152.419C250.312 152.419 250.838 155.443 251.729 157.069C250.762 157.649 249.45 156.926 249.45 156.926L250.312 152.419Z" fill="#D4827D"/>
<path d="M248.054 145.153C247.959 145.134 247.853 145.153 247.777 145.229C246.523 146.256 245.192 145.8 245.182 145.79C244.991 145.724 244.78 145.819 244.723 146.019C244.665 146.218 244.78 146.437 244.981 146.513C245.048 146.542 246.714 147.122 248.275 145.838C248.428 145.714 248.447 145.467 248.313 145.296C248.246 145.21 248.16 145.163 248.064 145.153H248.054Z" fill="#263238"/>
<path d="M253.347 146.142C253.261 146.114 253.156 146.114 253.07 146.152C252.888 146.238 252.821 146.466 252.917 146.656C253.874 148.596 255.588 148.891 255.655 148.9C255.856 148.929 256.038 148.786 256.057 148.577C256.076 148.368 255.923 148.168 255.722 148.139C255.655 148.13 254.334 147.883 253.568 146.342C253.52 146.247 253.434 146.171 253.338 146.133L253.347 146.142Z" fill="#263238"/>
<path d="M245.413 138.363C245.413 138.363 241.89 144.269 236.624 145.676C231.349 147.084 230.995 144.516 230.995 144.516C230.995 144.516 231.388 136.994 238.329 135.434C238.329 135.434 239.353 133.219 245.394 133.723C251.435 134.227 258.405 139.162 256.088 146.285C256.088 146.285 254.24 144.887 251.684 144.602C251.684 144.602 250.956 140.874 247.519 138.554C247.519 138.554 249.683 140.836 249.999 144.221C249.999 144.221 248.639 139.904 245.413 138.363Z" fill="#263238"/>
<path d="M246.763 150.355L248.333 150.298C248.333 150.298 247.347 151.298 246.763 150.355Z" fill="#263238"/>
<path d="M246.761 150.355C246.761 150.355 245.65 151.373 243.994 150.488C243.994 150.488 245.363 151.611 246.234 151.477C247.115 151.344 247.46 150.593 247.46 150.593L246.771 150.355H246.761Z" fill="#263238"/>
<path d="M253.141 151.335L254.711 151.278C254.711 151.278 253.725 152.278 253.141 151.335Z" fill="#263238"/>
<path d="M253.139 151.335C253.139 151.335 252.718 152.324 251.062 151.43C251.062 151.43 251.741 152.581 252.612 152.457C253.493 152.324 253.838 151.573 253.838 151.573L253.149 151.335H253.139Z" fill="#263238"/>
<path d="M248.187 159.779C248.187 159.779 247.795 157.658 244.722 156.318" stroke="#263238" stroke-width="0.5" stroke-linecap="round" stroke-linejoin="round"/>
<path d="M241.917 135.587C241.917 136.49 243.42 137.222 245.277 137.222C247.135 137.222 248.638 136.49 248.638 135.587C248.638 134.683 247.135 133.951 245.277 133.951C243.42 133.951 241.917 134.683 241.917 135.587Z" stroke="#407BFF" stroke-width="0.75" stroke-miterlimit="10"/>
<path d="M251.051 135.558C250.592 136.338 251.53 137.726 253.138 138.649C254.747 139.571 256.422 139.685 256.872 138.906C257.332 138.126 256.393 136.737 254.785 135.815C253.177 134.892 251.501 134.778 251.051 135.558Z" stroke="#407BFF" stroke-width="0.75" stroke-miterlimit="10"/>
<path d="M250.945 135.959C250.945 135.959 249.806 134.539 248.647 135.587" stroke="#407BFF" stroke-width="0.75" stroke-miterlimit="10"/>
<path d="M241.918 135.587C241.918 135.587 240.012 135.929 239.314 136.471L234.642 149.423" stroke="#407BFF" stroke-width="0.75" stroke-miterlimit="10"/>
<path d="M230.89 151.449C231.129 153.18 232.029 154.501 233.053 155.177C234.585 156.194 235.983 154.52 236.079 152.409C236.165 150.507 235.476 147.692 233.685 147.55C231.914 147.407 230.622 149.471 230.89 151.449Z" fill="#EEC1BB"/>
<path d="M232.199 381.106H233.53L233.904 379.47L238.308 381.448H249.461C249.461 381.448 251.232 379.679 245.919 378.262C245.679 378.196 245.43 378.11 245.162 377.977C242.328 376.655 238.298 372.205 238.298 372.205H232.18C232.18 372.205 231.97 372.509 231.682 373.08C231.012 374.421 229.863 377.226 232.199 381.106Z" fill="#263238"/>
<path d="M231.684 373.08V373.099C232.488 372.205 236.174 376.132 238.864 377.473C241.267 378.662 243.976 379.185 245.173 377.977C242.339 376.655 237.887 370.892 237.887 370.892H232.966C232.966 370.892 231.98 372.5 231.693 373.07L231.684 373.08Z" fill="#FFC2BC"/>
<path d="M278.668 381.106H279.999L280.372 379.47L284.776 381.448H295.93C295.93 381.448 297.701 379.68 292.387 378.263C292.148 378.196 291.899 378.11 291.631 377.977C288.797 376.655 284.767 372.205 284.767 372.205H278.649C278.649 372.205 278.438 372.509 278.151 373.08C277.481 374.421 276.332 377.226 278.668 381.106Z" fill="#263238"/>
<path d="M278.151 373.08V373.099C278.956 372.205 282.641 376.132 285.332 377.473C287.735 378.662 290.444 379.185 291.641 377.977C288.807 376.655 284.355 370.893 284.355 370.893H279.434C279.434 370.893 278.448 372.5 278.161 373.07L278.151 373.08Z" fill="#FFC2BC"/>
<path d="M258.334 217.683H226.645L225.792 221.734C225.792 221.734 214.151 237.739 220.048 277.641C220.048 277.641 245.543 280.561 269.544 275.454C269.544 275.454 264.154 234.458 258.525 221.078L258.334 217.683Z" fill="#263238"/>
<path d="M236.092 221.164H225.456L226.098 218.159H236.092V221.164Z" fill="#263238"/>
<path d="M255.403 218.159H258.591L258.859 221.164H255.403V218.159Z" fill="#263238"/>
<path d="M254.349 218.159H237.126V221.173H254.349V218.159Z" fill="#263238"/>
<path opacity="0.6" d="M236.092 221.164H225.456L226.098 218.159H236.092V221.164Z" fill="white"/>
<path opacity="0.6" d="M255.403 218.159H258.591L258.859 221.164H255.403V218.159Z" fill="white"/>
<path opacity="0.6" d="M254.349 218.159H237.126V221.173H254.349V218.159Z" fill="white"/>
<path d="M244.767 221.392H249.554C249.84 221.392 250.071 221.162 250.071 220.878V218.434C250.071 218.151 249.84 217.921 249.554 217.921H244.767C244.482 217.921 244.25 218.151 244.25 218.434V220.878C244.25 221.162 244.482 221.392 244.767 221.392Z" fill="white"/>
<path d="M299.939 175.451L300.074 177.857C300.121 178.76 299.729 179.635 299.011 180.196L295.679 182.83C294.348 183.886 292.577 184.238 290.94 183.762L289.925 183.467C289.437 179.492 291.859 174.833 291.859 174.833L292.405 173.425C292.884 172.18 294.205 171.561 295.421 172.008L298.235 173.035C299.202 173.387 299.892 174.338 299.949 175.422L299.939 175.451Z" fill="#EEC1BB"/>
<path d="M223.829 183.515L220.516 187.062L217.156 190.695L213.805 194.366L210.483 198.065L210.981 197.276C211.077 197.047 211.038 196.905 211.01 196.981C210.991 197.047 210.981 197.266 211.01 197.542C211.086 198.112 211.326 198.902 211.661 199.71C212.35 201.336 213.317 203.095 214.399 204.798C215.471 206.519 216.649 208.231 217.865 209.942C219.061 211.654 220.363 213.356 221.608 215.011L221.656 215.068C222.469 216.143 222.24 217.674 221.158 218.473C220.248 219.138 219.032 219.1 218.18 218.444C216.371 217.046 214.753 215.582 213.106 214.051C211.488 212.51 209.928 210.884 208.434 209.153C206.96 207.394 205.524 205.558 204.279 203.333C203.667 202.211 203.073 201.003 202.652 199.482C202.441 198.721 202.279 197.865 202.269 196.848C202.259 195.849 202.432 194.632 202.987 193.424C203.064 193.263 203.15 193.11 203.245 192.968L203.485 192.635C205.476 189.811 207.563 187.043 209.775 184.381C210.876 183.04 212.015 181.737 213.173 180.444C214.37 179.16 215.5 177.905 216.85 176.621C218.812 174.757 221.924 174.823 223.8 176.773C225.6 178.646 225.61 181.575 223.867 183.458L223.81 183.525L223.829 183.515Z" fill="#EBC0BB"/>
<path d="M221.542 172.579C221.542 172.579 214.419 176.24 204.587 189.868L212.399 196.191L224.299 186.254C224.299 186.254 226.319 181.87 225.467 177.4C224.615 172.931 221.552 172.589 221.552 172.589L221.542 172.579Z" fill="#D70015"/>
<path d="M213.5 195.735L203.85 188.156L202.385 192.359L211.566 197.827L213.5 195.735Z" fill="#D70015"/>
<path opacity="0.6" d="M213.5 195.735L203.85 188.156L202.385 192.359L211.566 197.827L213.5 195.735Z" fill="white"/>
<path d="M226.394 222.818L226.586 220.412C226.653 219.509 226.279 218.625 225.58 218.045L222.316 215.325C221.014 214.241 219.252 213.851 217.605 214.279L216.581 214.545C215.997 218.511 218.304 223.218 218.304 223.218L218.812 224.635C219.262 225.899 220.564 226.546 221.799 226.128L224.633 225.167C225.609 224.834 226.318 223.902 226.404 222.818H226.394Z" fill="#EEC1BB"/>
<path d="M236.084 133.647C236.084 133.647 233.518 123.072 223.762 124.945C214.007 126.819 220.057 142.9 218.037 148.91C216.017 154.92 215.586 164.315 223.762 166.074C223.762 166.074 220.057 163.174 222.077 158.048C222.077 158.048 221.57 160.369 222.958 162.29C222.958 162.29 221.273 159.094 223.753 156.318C226.242 153.541 231.192 143.204 231.68 139.971C232.168 136.737 236.074 133.656 236.074 133.656L236.084 133.647Z" fill="#263238"/>
<path d="M296.738 186.913L295.804 187.077C295.135 187.195 294.491 186.748 294.373 186.083L285.528 136.405L288.884 135.816L297.729 185.493C297.848 186.158 297.398 186.797 296.728 186.915L296.738 186.913Z" fill="#263238"/>
<path d="M287.319 146.508C298.305 144.577 305.549 133.676 303.498 122.159C301.447 110.641 290.879 102.869 279.893 104.799C268.907 106.729 261.663 117.63 263.714 129.148C265.765 140.665 276.333 148.438 287.319 146.508Z" fill="#F53C14"/>
<path opacity="0.6" d="M287.319 146.508C298.305 144.577 305.549 133.676 303.498 122.159C301.447 110.641 290.879 102.869 279.893 104.799C268.907 106.729 261.663 117.63 263.714 129.148C265.765 140.665 276.333 148.438 287.319 146.508Z" fill="white"/>
<path d="M289.201 146.177C300.187 144.247 307.431 133.345 305.38 121.828C303.329 110.31 292.761 102.538 281.775 104.468C270.789 106.398 263.545 117.3 265.596 128.817C267.647 140.335 278.215 148.107 289.201 146.177Z" fill="#F53C14"/>
<path opacity="0.7" d="M289.201 146.177C300.187 144.247 307.431 133.345 305.38 121.828C303.329 110.31 292.761 102.538 281.775 104.468C270.789 106.398 263.545 117.3 265.596 128.817C267.647 140.335 278.215 148.107 289.201 146.177Z" fill="white"/>
<path d="M276.274 136.129L283.637 125.668L273.105 118.346L274.628 116.197L285.159 123.509L292.521 113.049L294.694 114.561L287.332 125.021L297.863 132.334L296.341 134.493L285.81 127.18L278.448 137.641L276.274 136.129Z" fill="#F53C14"/>
</g>
<defs>
<clipPath id="clip0_44918_107631">
<rect width="400" height="400" fill="white"/>
</clipPath>
</defs>
</svg>
