<svg width="270" height="200" viewBox="0 0 270 200" fill="none" xmlns="http://www.w3.org/2000/svg">
<g clip-path="url(#clip0_2106_19086)">
<path d="M268.877 175.76H0.5V175.894H268.877V175.76Z" fill="#EBEBEB"/>
<path d="M241.986 184.396H224.208V184.531H241.986V184.396Z" fill="#EBEBEB"/>
<path d="M178.284 185.856H173.619V185.991H178.284V185.856Z" fill="#EBEBEB"/>
<path d="M223.672 179.416H213.372V179.55H223.672V179.416Z" fill="#EBEBEB"/>
<path d="M51.8406 180.317H28.6582V180.452H51.8406V180.317Z" fill="#EBEBEB"/>
<path d="M60.0207 180.317H56.623V180.452H60.0207V180.317Z" fill="#EBEBEB"/>
<path d="M121.35 182.583H71.0669V182.717H121.35V182.583Z" fill="#EBEBEB"/>
<path d="M127.716 151.821H24.0688C22.378 151.821 21.0039 150.447 21.0039 148.756V3.06487C21.0039 1.37409 22.378 0 24.0688 0H127.716C129.407 0 130.781 1.37409 130.781 3.06487V148.756C130.781 150.447 129.407 151.821 127.716 151.821ZM24.0688 0.134189C22.4531 0.134189 21.1381 1.44924 21.1381 3.06487V148.756C21.1381 150.372 22.4531 151.687 24.0688 151.687H127.716C129.332 151.687 130.647 150.372 130.647 148.756V3.06487C130.647 1.44924 129.332 0.134189 127.716 0.134189H24.0688Z" fill="#EBEBEB"/>
<path d="M243.816 151.821H140.169C138.478 151.821 137.104 150.447 137.104 148.756V3.06487C137.104 1.37409 138.478 0 140.169 0H243.816C245.507 0 246.881 1.37409 246.881 3.06487V148.756C246.881 150.447 245.507 151.821 243.816 151.821ZM140.169 0.134189C138.553 0.134189 137.238 1.44924 137.238 3.06487V148.756C137.238 150.372 138.553 151.687 140.169 151.687H243.816C245.432 151.687 246.747 150.372 246.747 148.756V3.06487C246.747 1.44924 245.432 0.134189 243.816 0.134189H140.169Z" fill="#EBEBEB"/>
<path d="M237.89 175.787V149.32H225.674V124.774H223.951V138.843H219.254V134.951H210.795V121.479H209.233V105.016H207.977V121.178H205.003V145.128H199.362V121.178H189.185V141.435H178.493V116.884H176.77V130.958H172.073V127.066H163.614V113.594H162.052V97.126H160.796V113.293H157.823V137.243H152.181V113.293H142.004V136.459H135.139V122.987H133.572V106.525H132.316V122.686H129.342V146.636H123.701V122.686H113.524V146.636H108.511V149.32H99.7296V124.774H98.0067V138.843H93.3101V134.951H84.8508V121.479H83.2835V105.016H82.0329V121.178H79.3008V119.831H69.1186V121.178H63.4826V119.831H60.509V103.669H59.253V120.131H57.6857V133.604H49.2318V137.495H44.5298V123.427H42.8069V147.973H30.5903V175.787H237.89Z" fill="#F0F0F0"/>
<path d="M85.2914 49.3907C91.1166 43.5655 91.1166 34.121 85.2914 28.2958C79.4662 22.4706 70.0216 22.4706 64.1964 28.2958C58.3712 34.121 58.3712 43.5655 64.1964 49.3907C70.0216 55.216 79.4662 55.216 85.2914 49.3907Z" fill="#FAFAFA"/>
<path d="M67.0037 38.6734C67.0037 37.2403 65.8443 36.0809 64.4112 36.0809C64.1535 36.0809 63.9013 36.1184 63.6651 36.1882C63.7027 35.9306 63.7241 35.6622 63.7241 35.3938C63.7241 32.3612 61.2658 29.9028 58.2331 29.9028C57.8896 29.9028 57.5515 29.935 57.224 29.9994C56.3813 28.62 54.8623 27.6914 53.1286 27.6914C50.4985 27.6914 48.3676 29.8062 48.33 32.4256C48.3032 32.4256 48.2764 32.4256 48.2495 32.4256C45.8073 32.4256 43.8267 34.4062 43.8267 36.8484C43.8267 39.2907 45.8073 41.2713 48.2495 41.2713H64.4917C65.8873 41.2283 67.0091 40.0851 67.0091 38.6788L67.0037 38.6734Z" fill="#F5F5F5"/>
<path d="M230.333 74.5982C230.333 73.1651 229.173 72.0057 227.74 72.0057C227.483 72.0057 227.23 72.0433 226.994 72.113C227.032 71.8554 227.053 71.587 227.053 71.3186C227.053 68.286 224.595 65.8276 221.562 65.8276C221.219 65.8276 220.881 65.8598 220.553 65.9243C219.71 64.5448 218.191 63.6162 216.458 63.6162C213.828 63.6162 211.697 65.731 211.659 68.3504C211.632 68.3504 211.605 68.3504 211.579 68.3504C209.136 68.3504 207.156 70.331 207.156 72.7732C207.156 75.2155 209.136 77.1961 211.579 77.1961H227.821C229.216 77.1532 230.338 76.0099 230.338 74.6036L230.333 74.5982Z" fill="#F5F5F5"/>
<path d="M153.544 35.2219C153.544 32.9568 155.38 31.1211 157.645 31.1211C158.053 31.1211 158.45 31.1855 158.821 31.2929C158.762 30.8796 158.729 30.4609 158.729 30.0315C158.729 25.2329 162.621 21.3468 167.414 21.3468C167.962 21.3468 168.493 21.4005 169.014 21.4971C170.35 19.3125 172.75 17.8472 175.498 17.8472C179.658 17.8472 183.034 21.1911 183.093 25.3349C183.136 25.3349 183.179 25.3295 183.222 25.3295C187.086 25.3295 190.221 28.4642 190.221 32.3288C190.221 36.1934 187.086 39.3281 183.222 39.3281H157.522C155.31 39.2583 153.534 37.4548 153.534 35.2273L153.544 35.2219Z" fill="#F5F5F5"/>
<path d="M77.7334 79.8905C77.7334 77.1638 79.9448 74.9523 82.6715 74.9523C83.1653 74.9523 83.6377 75.0275 84.0886 75.1617C84.0188 74.6678 83.9759 74.1633 83.9759 73.648C83.9759 67.8725 88.6563 63.192 94.4318 63.192C95.092 63.192 95.7308 63.2565 96.3588 63.3745C97.9637 60.7444 100.857 58.9839 104.163 58.9839C109.171 58.9839 113.229 63.0042 113.304 67.996C113.358 67.996 113.406 67.9906 113.454 67.9906C118.108 67.9906 121.876 71.7586 121.876 76.4123C121.876 81.066 118.108 84.834 113.454 84.834H82.5266L82.532 84.8286C79.8697 84.7535 77.7334 82.5796 77.7334 79.9012V79.8905Z" fill="#F5F5F5"/>
<path d="M99.5364 46.4457C99.5364 45.5547 98.8171 44.8354 97.9261 44.8354C97.7651 44.8354 97.6094 44.8623 97.4645 44.9052C97.486 44.7442 97.5021 44.5778 97.5021 44.4114C97.5021 42.5274 95.9723 40.9976 94.0883 40.9976C93.8736 40.9976 93.6643 41.0191 93.4603 41.0567C92.9343 40.1979 91.995 39.6235 90.9107 39.6235C89.2736 39.6235 87.9478 40.9386 87.9264 42.565C87.9103 42.565 87.8942 42.565 87.8781 42.565C86.359 42.565 85.1299 43.7941 85.1299 45.3131C85.1299 46.8321 86.359 48.0613 87.8781 48.0613H97.9744C98.844 48.0345 99.5417 47.326 99.5417 46.451L99.5364 46.4457Z" fill="#F5F5F5"/>
<path d="M40.8315 95.392C40.8315 94.501 41.5508 93.7817 42.4418 93.7817C42.6028 93.7817 42.7585 93.8086 42.9034 93.8515C42.8819 93.6905 42.8658 93.5241 42.8658 93.3577C42.8658 91.4737 44.3956 89.9439 46.2796 89.9439C46.4943 89.9439 46.7036 89.9654 46.9076 90.003C47.4336 89.1442 48.3729 88.5698 49.4572 88.5698C51.0943 88.5698 52.4201 89.8849 52.4415 91.5112C52.4576 91.5112 52.4737 91.5112 52.4898 91.5112C54.0089 91.5112 55.238 92.7404 55.238 94.2594C55.238 95.7784 54.0089 97.0076 52.4898 97.0076H42.3935C41.524 96.9808 40.8262 96.2722 40.8262 95.3973L40.8315 95.392Z" fill="#F5F5F5"/>
<path d="M191.922 100.652C191.922 99.7612 192.642 99.042 193.533 99.042C193.694 99.042 193.849 99.0688 193.994 99.1117C193.973 98.9507 193.957 98.7843 193.957 98.6179C193.957 96.7339 195.486 95.2042 197.37 95.2042C197.585 95.2042 197.794 95.2256 197.998 95.2632C198.524 94.4044 199.464 93.8301 200.548 93.8301C202.185 93.8301 203.511 95.1451 203.532 96.7715C203.548 96.7715 203.565 96.7715 203.581 96.7715C205.1 96.7715 206.329 98.0007 206.329 99.5197C206.329 101.039 205.1 102.268 203.581 102.268H193.484C192.615 102.241 191.917 101.533 191.917 100.658L191.922 100.652Z" fill="#F5F5F5"/>
<path d="M222.528 167.065L219.726 147.06L216.935 152.846L190.119 113.078L145.703 98.8865L130.738 66.488L62.6936 19.6294L62.8761 33.8641L51.9263 40.4555L112.268 75.7363L130.045 108.36L182.1 124.978L209.045 159.352L203.243 161.069L222.528 167.065Z" fill="#E0E0E0"/>
<path d="M134.688 200C192.165 200 238.76 197.279 238.76 193.924C238.76 190.568 192.165 187.848 134.688 187.848C77.2115 187.848 30.6172 190.568 30.6172 193.924C30.6172 197.279 77.2115 200 134.688 200Z" fill="#F5F5F5"/>
<path d="M201.004 181.074C201.004 181.074 203.554 175.513 200.639 170.028C197.725 164.542 196.882 163.254 198.739 162.127C200.596 160.999 201.45 166.512 201.45 166.512C201.45 166.512 203.017 162.722 201.724 158.756C200.43 154.789 199.62 148.327 201.385 147.634C203.151 146.942 201.724 155.696 203.253 158.681C203.253 158.681 204.542 155.358 204.751 152.17C204.96 148.981 204.633 143.893 206.028 142.589C207.424 141.284 208.315 142.186 206.946 149.218C205.577 156.249 205.588 161.966 205.588 161.966C205.588 161.966 208.616 152.739 210.644 152.47C212.673 152.202 212.673 155.186 210.934 157.779C209.195 160.371 205.846 165.014 205.293 167.403C205.293 167.403 208.616 160.463 211.6 162.588C214.59 164.714 209.002 168.911 206.511 170.425C204.021 171.938 202.293 181.439 202.293 181.439L201.01 181.074H201.004Z" fill="#407BFF"/>
<path opacity="0.2" d="M201.004 181.074C201.004 181.074 203.554 175.513 200.639 170.028C197.725 164.542 196.882 163.254 198.739 162.127C200.596 160.999 201.45 166.512 201.45 166.512C201.45 166.512 203.017 162.722 201.724 158.756C200.43 154.789 199.62 148.327 201.385 147.634C203.151 146.942 201.724 155.696 203.253 158.681C203.253 158.681 204.542 155.358 204.751 152.17C204.96 148.981 204.633 143.893 206.028 142.589C207.424 141.284 208.315 142.186 206.946 149.218C205.577 156.249 205.588 161.966 205.588 161.966C205.588 161.966 208.616 152.739 210.644 152.47C212.673 152.202 212.673 155.186 210.934 157.779C209.195 160.371 205.846 165.014 205.293 167.403C205.293 167.403 208.616 160.463 211.6 162.588C214.59 164.714 209.002 168.911 206.511 170.425C204.021 171.938 202.293 181.439 202.293 181.439L201.01 181.074H201.004Z" fill="black"/>
<path d="M203.017 183.355C203.017 183.355 200.532 177.757 203.511 172.314C206.49 166.871 207.349 165.594 205.508 164.445C203.667 163.297 202.749 168.793 202.749 168.793C202.749 168.793 201.23 164.977 202.572 161.031C203.913 157.081 204.799 150.634 203.044 149.915C201.289 149.196 202.609 157.972 201.042 160.929C201.042 160.929 199.797 157.591 199.619 154.397C199.442 151.203 199.839 146.126 198.46 144.8C197.081 143.474 196.179 144.365 197.462 151.418C198.745 158.471 198.669 164.188 198.669 164.188C198.669 164.188 195.755 154.918 193.726 154.617C191.697 154.317 191.665 157.306 193.372 159.92C195.078 162.54 198.374 167.231 198.895 169.625C198.895 169.625 195.658 162.636 192.647 164.719C189.636 166.802 195.17 171.079 197.644 172.631C200.119 174.182 201.729 183.704 201.729 183.704L203.017 183.355Z" fill="#407BFF"/>
<path d="M191.563 179.362H212.072L210.414 194.037H193.227L191.563 179.362Z" fill="#263238"/>
<path d="M166.035 76.2835L171.263 80.6849C172.127 81.4202 173.013 82.1287 173.882 82.8319C174.752 83.5404 175.643 84.2006 176.486 84.8018C176.695 84.9413 176.915 85.1077 177.103 85.2151L177.393 85.3976L177.468 85.4459C177.495 85.462 177.473 85.4512 177.479 85.4566C177.479 85.4566 177.473 85.462 177.473 85.4673C177.446 85.4942 177.57 85.5586 177.865 85.5371C178.45 85.4834 179.373 85.097 180.238 84.5924C181.993 83.5672 183.796 82.1287 185.46 80.701L185.519 80.6473C186.094 80.1535 186.963 80.2179 187.457 80.7976C187.859 81.2699 187.886 81.9409 187.564 82.44C186.212 84.528 184.709 86.3905 182.696 88.076C181.671 88.8972 180.554 89.7131 178.869 90.18C178.031 90.4001 176.953 90.5021 175.831 90.1317C175.691 90.0888 175.557 90.0351 175.423 89.9761L175.24 89.8956L175.122 89.8365L174.65 89.6003C174.323 89.4393 174.065 89.2783 173.775 89.1173C172.664 88.4732 171.666 87.7915 170.683 87.0991C169.696 86.412 168.756 85.6874 167.817 84.9682C165.949 83.5082 164.156 82.0214 162.39 80.4272C161.258 79.4074 161.167 77.6683 162.186 76.5357C163.185 75.43 164.876 75.3173 166.008 76.2674L166.035 76.2888V76.2835Z" fill="#EBC0BB"/>
<path d="M165.659 84.4044C166.309 84.6406 167.484 85.2901 168.762 86.0469C171.322 87.5605 174.296 89.5143 174.296 89.5143L176.733 84.3132C172.068 79.5253 165.069 75.7573 165.069 75.7573C165.069 75.7573 164.795 77.3461 164.666 79.1657C164.505 81.4093 164.575 84.0072 165.659 84.4044Z" fill="#407BFF"/>
<path d="M173.941 89.4286L176.727 83.4009L178.123 85.403L175.267 90.4002L173.941 89.4286Z" fill="#407BFF"/>
<path opacity="0.6" d="M173.941 89.4286L176.727 83.4009L178.123 85.403L175.267 90.4002L173.941 89.4286Z" fill="white"/>
<path opacity="0.2" d="M165.659 83.2507C166.309 83.4547 167.484 84.0183 168.762 84.6731C167.903 80.7817 165.042 78.4468 165.042 78.4468C164.908 78.5273 164.784 78.6185 164.666 78.7098C164.505 80.6528 164.575 82.9018 165.659 83.2507Z" fill="black"/>
<path d="M151.854 104.275C151.854 104.275 152.112 108.634 154.237 116.266C155.311 120.11 156.857 124.785 159.089 130.147C160.152 132.702 161.371 135.412 162.766 138.263C163.394 139.562 164.071 140.882 164.774 142.235C165.59 165.353 178.563 188.862 178.563 188.862C179.282 189.233 181.789 188.825 181.778 188.095C179.856 185.046 176.078 155.417 173.641 141.37C173.491 139.46 173.27 137.415 173.002 135.3C172.288 129.632 171.236 123.459 170.211 118.032C168.601 109.487 167.066 102.783 167.066 102.783L162.788 103.202L151.854 104.27V104.275Z" fill="#EEC1BB"/>
<path d="M146.755 136.276C147.098 138.762 147.544 141.418 148.086 144.253C143.454 159.716 152.981 189.893 152.981 189.893C154.597 190.209 156.024 190 156.744 189.458C154.946 180.365 156.239 156.727 157.635 142.599C157.758 141.317 157.914 139.905 158.086 138.402C158.37 135.858 158.714 133.045 159.079 130.141C159.69 125.284 160.383 120.168 161.011 115.638C161.773 110.158 162.439 105.526 162.777 103.196C162.922 102.171 163.008 101.591 163.008 101.591L149.626 103.041C149.626 103.041 146.229 106.857 145.708 118.773C145.515 123.335 145.74 129.089 146.744 136.271L146.755 136.276Z" fill="#EEC1BB"/>
<path opacity="0.2" d="M146.755 136.276C150.968 137.656 154.752 138.279 158.091 138.407C158.375 135.863 158.719 133.051 159.084 130.147C160.147 132.702 161.365 135.412 162.761 138.262C167.361 137.806 170.796 136.454 172.991 135.3C172.277 129.631 171.225 123.459 170.2 118.032C168.949 117.281 167.452 116.653 165.654 116.202C164.248 115.848 162.68 115.665 161.016 115.644C158.864 115.611 156.556 115.837 154.232 116.261C151.306 116.803 148.365 117.673 145.713 118.778C145.52 123.341 145.746 129.095 146.749 136.276H146.755Z" fill="black"/>
<path d="M146.68 76.1492C146.68 76.1492 147.281 78.3606 147.925 82.075C148.086 82.9928 148.252 84.0019 148.408 85.0915C148.521 85.8752 148.633 86.7071 148.735 87.5713C148.854 88.5482 148.972 89.5841 149.068 90.6576C149.417 94.3451 149.626 98.5426 149.514 103.019H167.135C167.135 103.019 169.916 82.4077 165.321 75.7627C165.321 75.7627 156.288 71.5063 146.674 76.1492H146.68Z" fill="#407BFF"/>
<path opacity="0.2" d="M147.919 82.075C148.08 82.9928 148.247 84.0019 148.402 85.0915C148.515 85.8752 148.628 86.7071 148.73 87.5713C149.31 85.6283 149.648 82.6332 148.676 79.5039L147.914 82.075H147.919Z" fill="black"/>
<path d="M155.794 72.7729C150.265 72.7729 149.573 77.3193 149.573 77.3193L152.155 76.2082L159.75 81.2859L161.618 76.1599L163.958 76.5946C163.958 76.5946 160.598 72.7783 155.794 72.7729Z" fill="#407BFF"/>
<path opacity="0.6" d="M155.794 72.7729C150.265 72.7729 149.573 77.3193 149.573 77.3193L152.155 76.2082L159.75 81.2859L161.618 76.1599L163.958 76.5946C163.958 76.5946 160.598 72.7783 155.794 72.7729Z" fill="white"/>
<path d="M152.369 75.2907L159.535 80.6368C159.535 80.5939 160.646 75.2907 160.646 75.2907C158.955 74.9204 158.263 74.0991 158.08 73.1115C157.941 72.3708 158.096 71.5281 158.327 70.7122L154.36 67.5722L153.298 66.7295C153.786 69.1771 154.253 73.659 152.369 75.2907Z" fill="#EEC1BB"/>
<path opacity="0.2" d="M154.328 69.3811C154.479 70.9216 156.368 72.5265 158.08 73.1116C157.941 72.3709 158.096 71.5281 158.327 70.7123L154.361 67.5723C154.275 68.0339 154.259 68.6994 154.328 69.3811Z" fill="black"/>
<path d="M166.491 57.1377C166.491 57.1377 167.001 57.4973 167.162 57.7389L165.906 61.2117" stroke="#407BFF" stroke-width="0.75" stroke-miterlimit="10"/>
<path d="M165.267 65.1673C165.267 65.1673 168.767 58.0446 161.73 53.8686C154.693 49.6927 149.599 58.4149 150.303 62.7895C150.609 64.6735 151.312 66.9708 153.126 68.098C153.856 68.5542 153.91 66.4985 153.91 66.4985C153.91 66.4985 160.764 68.9085 165.262 65.1673H165.267Z" fill="#263238"/>
<path d="M153.652 60.4333C153.024 64.7649 152.67 66.5791 154.328 69.3219C156.819 73.4496 162.149 73.5355 164.022 69.5474C165.713 65.9565 166.448 59.4779 162.718 56.7029C159.041 53.9654 154.28 56.1071 153.657 60.4387L153.652 60.4333Z" fill="#EEC1BB"/>
<path d="M158.155 58.6886C154.919 60.8195 158.392 65.7254 153.845 63.9595C149.299 62.1882 153.4 56.3161 156.642 55.774C159.884 55.2319 158.155 58.6886 158.155 58.6886Z" fill="#263238"/>
<path d="M162.809 64.77C162.809 64.77 163.104 66.4769 163.604 67.3947C163.062 67.7222 162.326 67.3142 162.326 67.3142L162.809 64.77Z" fill="#D4827D"/>
<path d="M161.542 60.6694C161.489 60.6587 161.429 60.6694 161.387 60.7123C160.683 61.292 159.937 61.0344 159.932 61.029C159.825 60.9915 159.707 61.0451 159.674 61.1578C159.642 61.2706 159.707 61.394 159.819 61.437C159.857 61.4531 160.791 61.7805 161.666 61.0559C161.752 60.9861 161.762 60.8465 161.687 60.7499C161.65 60.7016 161.601 60.6748 161.548 60.6694H161.542Z" fill="#263238"/>
<path d="M164.511 61.2273C164.462 61.2112 164.403 61.2112 164.355 61.2327C164.253 61.281 164.215 61.4098 164.269 61.5171C164.806 62.6121 165.767 62.7785 165.804 62.7839C165.917 62.8 166.019 62.7195 166.03 62.6014C166.04 62.4833 165.954 62.3706 165.842 62.3545C165.804 62.3491 165.063 62.2096 164.634 61.34C164.607 61.2863 164.559 61.2434 164.505 61.2219L164.511 61.2273Z" fill="#263238"/>
<path d="M160.061 56.8367C160.061 56.8367 158.086 60.17 155.134 60.9644C152.176 61.7588 151.978 60.3095 151.978 60.3095C151.978 60.3095 152.198 56.0638 156.089 55.1835C156.089 55.1835 156.663 53.9329 160.05 54.2174C163.437 54.5019 167.345 57.2876 166.046 61.3079C166.046 61.3079 165.01 60.5189 163.577 60.3579C163.577 60.3579 163.169 58.2538 161.242 56.9441C161.242 56.9441 162.455 58.2323 162.632 60.1432C162.632 60.1432 161.87 57.7063 160.061 56.8367Z" fill="#263238"/>
<path d="M160.818 63.6054L161.698 63.5732C161.698 63.5732 161.145 64.1368 160.818 63.6054Z" fill="#263238"/>
<path d="M160.818 63.6055C160.818 63.6055 160.195 64.1798 159.267 63.6806C159.267 63.6806 160.034 64.314 160.523 64.2388C161.016 64.1637 161.21 63.7397 161.21 63.7397L160.823 63.6055H160.818Z" fill="#263238"/>
<path d="M164.392 64.1582L165.272 64.126C165.272 64.126 164.72 64.6896 164.392 64.1582Z" fill="#263238"/>
<path d="M164.392 64.1582C164.392 64.1582 164.156 64.7164 163.228 64.2119C163.228 64.2119 163.609 64.8614 164.097 64.7916C164.591 64.7164 164.784 64.2924 164.784 64.2924L164.398 64.1582H164.392Z" fill="#263238"/>
<path d="M161.617 68.9245C161.617 68.9245 161.397 67.7275 159.674 66.9707" stroke="#263238" stroke-width="0.5" stroke-linecap="round" stroke-linejoin="round"/>
<path d="M158.102 55.2694C158.102 55.7793 158.944 56.1926 159.986 56.1926C161.027 56.1926 161.87 55.7793 161.87 55.2694C161.87 54.7595 161.027 54.3462 159.986 54.3462C158.944 54.3462 158.102 54.7595 158.102 55.2694Z" stroke="#407BFF" stroke-width="0.75" stroke-miterlimit="10"/>
<path d="M163.222 55.2535C162.965 55.6937 163.491 56.4773 164.392 56.998C165.294 57.5186 166.233 57.583 166.486 57.1429C166.743 56.7028 166.217 55.9191 165.316 55.3985C164.414 54.8778 163.474 54.8134 163.222 55.2535Z" stroke="#407BFF" stroke-width="0.75" stroke-miterlimit="10"/>
<path d="M163.163 55.4789C163.163 55.4789 162.524 54.6791 161.875 55.2696" stroke="#407BFF" stroke-width="0.75" stroke-miterlimit="10"/>
<path d="M158.102 55.2695C158.102 55.2695 157.034 55.4628 156.642 55.7687L154.022 63.0793" stroke="#407BFF" stroke-width="0.75" stroke-miterlimit="10"/>
<path d="M151.918 64.2227C152.052 65.1996 152.557 65.9457 153.131 66.3268C153.99 66.9011 154.774 65.9564 154.827 64.7648C154.876 63.6913 154.489 62.1025 153.486 62.022C152.493 61.9415 151.768 63.1063 151.918 64.2227Z" fill="#EEC1BB"/>
<path d="M152.654 193.849H153.4L153.609 192.926L156.078 194.042H162.331C162.331 194.042 163.324 193.044 160.345 192.244C160.211 192.206 160.072 192.158 159.921 192.083C158.333 191.337 156.073 188.825 156.073 188.825H152.643C152.643 188.825 152.525 188.996 152.364 189.319C151.988 190.075 151.344 191.659 152.654 193.849Z" fill="#263238"/>
<path d="M152.364 189.319V189.329C152.815 188.825 154.881 191.041 156.389 191.798C157.737 192.469 159.256 192.764 159.927 192.083C158.338 191.337 155.842 188.084 155.842 188.084H153.083C153.083 188.084 152.53 188.991 152.369 189.313L152.364 189.319Z" fill="#FFC2BC"/>
<path d="M178.708 193.849H179.454L179.663 192.926L182.132 194.042H188.386C188.386 194.042 189.379 193.044 186.4 192.244C186.265 192.206 186.126 192.158 185.976 192.083C184.387 191.337 182.127 188.825 182.127 188.825H178.697C178.697 188.825 178.579 188.996 178.418 189.319C178.042 190.075 177.398 191.659 178.708 193.849Z" fill="#263238"/>
<path d="M178.418 189.319V189.329C178.869 188.825 180.935 191.041 182.444 191.798C183.791 192.469 185.31 192.764 185.981 192.083C184.392 191.337 181.896 188.084 181.896 188.084H179.137C179.137 188.084 178.584 188.991 178.423 189.313L178.418 189.319Z" fill="#FFC2BC"/>
<path d="M167.307 101.607H149.54L149.063 103.894C149.063 103.894 142.536 112.928 145.842 135.45C145.842 135.45 160.136 137.098 173.592 134.215C173.592 134.215 170.57 111.076 167.414 103.524L167.307 101.607Z" fill="#263238"/>
<path d="M154.838 103.572H148.875L149.235 101.876H154.838V103.572Z" fill="#263238"/>
<path d="M165.665 101.876H167.452L167.602 103.572H165.665V101.876Z" fill="#263238"/>
<path d="M165.074 101.876H155.418V103.577H165.074V101.876Z" fill="#263238"/>
<path opacity="0.6" d="M154.838 103.572H148.875L149.235 101.876H154.838V103.572Z" fill="white"/>
<path opacity="0.6" d="M165.665 101.876H167.452L167.602 103.572H165.665V101.876Z" fill="white"/>
<path opacity="0.6" d="M165.074 101.876H155.418V103.577H165.074V101.876Z" fill="white"/>
<path d="M159.701 103.701H162.385C162.545 103.701 162.675 103.571 162.675 103.411V102.031C162.675 101.871 162.545 101.742 162.385 101.742H159.701C159.541 101.742 159.411 101.871 159.411 102.031V103.411C159.411 103.571 159.541 103.701 159.701 103.701Z" fill="white"/>
<path d="M190.634 77.7705L190.709 79.1285C190.736 79.6384 190.516 80.1322 190.114 80.4489L188.246 81.9357C187.5 82.5315 186.507 82.7301 185.589 82.4617L185.02 82.2953C184.746 80.0517 186.104 77.4216 186.104 77.4216L186.41 76.6272C186.678 75.9241 187.419 75.5752 188.101 75.8274L189.679 76.4071C190.221 76.6057 190.607 77.1425 190.64 77.7544L190.634 77.7705Z" fill="#EEC1BB"/>
<path d="M147.962 82.3219L146.105 84.324L144.221 86.3744L142.343 88.4462L140.48 90.5342L140.759 90.0887C140.813 89.9599 140.791 89.8794 140.775 89.9223C140.765 89.9599 140.759 90.0833 140.775 90.239C140.818 90.561 140.952 91.0065 141.14 91.4628C141.527 92.3806 142.069 93.3736 142.675 94.3344C143.277 95.306 143.937 96.2721 144.618 97.2383C145.289 98.2044 146.019 99.1652 146.717 100.099L146.744 100.131C147.2 100.738 147.071 101.602 146.465 102.053C145.955 102.429 145.273 102.407 144.796 102.037C143.781 101.248 142.874 100.421 141.951 99.557C141.044 98.6875 140.169 97.7697 139.331 96.7928C138.505 95.7998 137.7 94.7638 137.002 93.5078C136.658 92.8745 136.326 92.1928 136.089 91.334C135.971 90.9046 135.88 90.4215 135.875 89.8472C135.869 89.2836 135.966 88.5965 136.277 87.9148C136.32 87.8236 136.369 87.7377 136.422 87.6572L136.556 87.4693C137.673 85.8752 138.843 84.3132 140.083 82.8103C140.7 82.0535 141.339 81.3181 141.988 80.5881C142.659 79.8635 143.293 79.155 144.049 78.4304C145.15 77.3784 146.894 77.4159 147.946 78.5163C148.955 79.5737 148.961 81.2269 147.984 82.2897L147.952 82.3272L147.962 82.3219Z" fill="#EBC0BB"/>
<path d="M146.68 76.1494C146.68 76.1494 142.686 78.2159 137.174 85.9076L141.554 89.477L148.226 83.8679C148.226 83.8679 149.358 81.3935 148.88 78.8708C148.403 76.348 146.685 76.1548 146.685 76.1548L146.68 76.1494Z" fill="#407BFF"/>
<path d="M142.171 89.2193L136.76 84.9414L135.939 87.3139L141.086 90.4002L142.171 89.2193Z" fill="#407BFF"/>
<path opacity="0.6" d="M142.171 89.2193L136.76 84.9414L135.939 87.3139L141.086 90.4002L142.171 89.2193Z" fill="white"/>
<path d="M149.401 104.506L149.508 103.148C149.546 102.638 149.337 102.139 148.945 101.811L147.114 100.276C146.384 99.6645 145.397 99.4444 144.474 99.6859L143.899 99.8362C143.572 102.074 144.865 104.731 144.865 104.731L145.15 105.531C145.402 106.245 146.132 106.61 146.825 106.374L148.413 105.832C148.961 105.644 149.358 105.118 149.406 104.506H149.401Z" fill="#EEC1BB"/>
<path d="M154.833 54.1746C154.833 54.1746 153.395 48.2059 147.925 49.2633C142.456 50.3207 145.848 59.3972 144.715 62.7895C143.583 66.1818 143.341 71.4849 147.925 72.4779C147.925 72.4779 145.848 70.8408 146.98 67.9477C146.98 67.9477 146.696 69.2574 147.474 70.3416C147.474 70.3416 146.529 68.5381 147.92 66.9708C149.315 65.4035 152.09 59.5689 152.364 57.744C152.638 55.919 154.828 54.1799 154.828 54.1799L154.833 54.1746Z" fill="#263238"/>
<path d="M188.837 84.2403L188.313 84.3328C187.938 84.3992 187.577 84.1468 187.511 83.7716L182.552 55.732L184.433 55.3992L189.393 83.4388C189.459 83.814 189.207 84.1748 188.831 84.2412L188.837 84.2403Z" fill="#263238"/>
<path d="M183.557 61.4339C189.716 60.3445 193.777 54.1914 192.627 47.6906C191.478 41.1897 185.552 36.8029 179.393 37.8923C173.234 38.9816 169.173 45.1347 170.323 51.6356C171.472 58.1364 177.398 62.5233 183.557 61.4339Z" fill="#407BFF"/>
<path opacity="0.6" d="M183.557 61.4339C189.716 60.3445 193.777 54.1914 192.627 47.6906C191.478 41.1897 185.552 36.8029 179.393 37.8923C173.234 38.9816 169.173 45.1347 170.323 51.6356C171.472 58.1364 177.398 62.5233 183.557 61.4339Z" fill="white"/>
<path d="M184.614 61.2469C190.773 60.1575 194.834 54.0044 193.684 47.5036C192.534 41.0027 186.609 36.6159 180.45 37.7052C174.29 38.7946 170.229 44.9477 171.379 51.4486C172.529 57.9494 178.454 62.3363 184.614 61.2469Z" fill="#407BFF"/>
<path opacity="0.7" d="M184.614 61.2469C190.773 60.1575 194.834 54.0044 193.684 47.5036C192.534 41.0027 186.609 36.6159 180.45 37.7052C174.29 38.7946 170.229 44.9477 171.379 51.4486C172.529 57.9494 178.454 62.3363 184.614 61.2469Z" fill="white"/>
<path d="M177.366 55.5754L181.493 49.6711L175.589 45.5381L176.442 44.325L182.347 48.4526L186.474 42.5483L187.693 43.4018L183.565 49.3061L189.469 53.4337L188.616 54.6522L182.712 50.5245L178.584 56.4288L177.366 55.5754Z" fill="#407BFF"/>
</g>
<defs>
<clipPath id="clip0_2106_19086">
<rect width="269" height="200" fill="white" transform="translate(0.5)"/>
</clipPath>
</defs>
</svg>
