<svg width="207" height="200" viewBox="0 0 207 200" fill="none" xmlns="http://www.w3.org/2000/svg">
<g clip-path="url(#clip0_2543_19400)">
<path d="M103.5 199.995C160.192 199.995 206.15 197.311 206.15 194.002C206.15 190.692 160.192 188.009 103.5 188.009C46.8081 188.009 0.85022 190.692 0.85022 194.002C0.85022 197.311 46.8081 199.995 103.5 199.995Z" fill="#F5F5F5"/>
<path d="M41.1022 41.0463C37.9733 41.7451 34.3256 46.134 37.9256 50.6182C41.5257 55.1024 35.4956 53.1436 34.5638 60.9896C33.632 68.841 40.7792 67.5174 38.5345 72.6634C36.2897 77.8094 51.8653 85.9625 61.5908 79.7841C71.3163 73.6058 72.2216 60.3014 69.1828 55.6001C66.1439 50.8988 61.7073 50.6023 63.7138 45.5675C65.7203 40.5274 63.3538 35.2967 57.0801 35.2491C52.3471 35.212 55.1848 31.9031 48.6729 31.9296C43.2463 31.9561 38.4392 35.7679 41.1022 41.0463Z" fill="#263238"/>
<path d="M58.5255 47.6057C57.6731 47.6057 56.9849 48.294 56.9849 49.1516C56.9849 50.0093 57.6731 50.6922 58.5255 50.6922C59.3779 50.6922 60.0714 50.004 60.0714 49.1516C60.0714 48.2993 59.3779 47.6057 58.5255 47.6057ZM58.5255 50.3322C57.8743 50.3322 57.3449 49.8028 57.3449 49.1516C57.3449 48.5004 57.8743 47.9657 58.5255 47.9657C59.1767 47.9657 59.7114 48.4951 59.7114 49.1516C59.7114 49.8081 59.182 50.3322 58.5255 50.3322Z" fill="white"/>
<path d="M71.5598 62.6679C71.5598 62.6679 71.5439 62.6679 71.5334 62.6679C71.4592 62.652 71.4169 62.5831 71.4275 62.5143C71.9039 60.0472 69.9821 57.6595 67.9492 55.1289C65.5773 52.1747 62.8879 48.834 63.8355 44.8475C64.6456 41.4486 64.2856 38.6109 62.8191 36.8532C61.6226 35.4132 59.7537 34.7514 57.2707 34.8785C54.9942 34.9949 54.3165 34.3808 53.6018 33.7243C52.8288 33.0202 51.9394 32.2155 48.6729 32.2366C48.5988 32.2366 48.5405 32.1784 48.5405 32.1043C48.5405 32.0302 48.5988 31.9719 48.6729 31.9719C48.7099 31.9719 48.7523 31.9719 48.7894 31.9719C52.0824 31.9719 52.9877 32.7978 53.7818 33.5284C54.4859 34.169 55.0895 34.7249 57.2548 34.6085C59.8225 34.4761 61.7655 35.1696 63.0202 36.6785C64.5397 38.4997 64.9209 41.4221 64.0897 44.9057C63.1738 48.7652 65.7044 51.9153 68.1556 54.9595C70.231 57.5377 72.1845 59.9731 71.6869 62.5567C71.6763 62.6202 71.6181 62.6626 71.5545 62.6626L71.5598 62.6679Z" fill="#263238"/>
<path d="M84.0066 52.5559L83.2919 53.943C83.0219 54.4618 83.0219 55.0812 83.2919 55.6054L84.5466 58.0407C85.0495 59.0148 85.9919 59.6872 87.0772 59.8407L87.7496 59.936C89.089 57.7178 88.9037 54.3295 88.9037 54.3295L88.9567 53.3606C89.0043 52.4976 88.4008 51.7829 87.5643 51.7247L85.6425 51.5923C84.9807 51.5447 84.3242 51.9312 84.0066 52.5559Z" fill="#FFC3BD"/>
<path d="M68.2456 61.8209C68.2192 61.7997 68.2721 61.8791 68.2986 61.9215L68.4098 62.0803L68.6639 62.4244C68.8439 62.6574 69.0398 62.885 69.241 63.1127C69.6433 63.568 70.0722 64.0127 70.5222 64.4415C71.4169 65.2992 72.4069 66.0563 73.4393 66.7339C75.4987 68.0998 77.8017 69.0263 80.1947 69.4075L80.6447 69.471L80.8724 69.5028C80.8724 69.5028 80.8353 69.5028 80.8194 69.5134C80.6977 69.524 80.5441 69.5875 80.4965 69.6352C80.3959 69.7305 80.6394 69.5875 80.8724 69.2381C81.3753 68.5393 81.8359 67.3375 82.18 66.1251C82.5189 64.8862 82.7783 63.568 82.9583 62.2232C83.0536 61.5509 83.1118 60.8732 83.1754 60.1903C83.2336 59.5232 83.276 58.8032 83.2812 58.1943L89.3802 58.4908C89.3008 59.322 89.2214 60.0367 89.1367 60.8044C89.0467 61.5615 88.9302 62.308 88.8243 63.065C88.5914 64.5739 88.3266 66.0933 87.9296 67.6445C87.7337 68.4228 87.506 69.2116 87.2149 70.0163C86.9131 70.8211 86.569 71.6576 86.0395 72.5311C85.4995 73.3888 84.7742 74.3841 83.3924 75.1623C82.7042 75.5382 81.8412 75.7923 80.9994 75.8294C80.8035 75.8347 80.56 75.8294 80.4065 75.8241L80.0941 75.8029L79.4694 75.7606C77.8017 75.6071 76.1552 75.2841 74.5511 74.8129C72.9575 74.3206 71.4063 73.7117 69.9345 72.9599C68.4574 72.2187 67.065 71.3293 65.7256 70.3711C65.0532 69.8893 64.402 69.381 63.7667 68.8357C63.4491 68.5657 63.1367 68.2798 62.8191 67.9887L62.3426 67.5334L62.099 67.2898C62.009 67.1945 61.9455 67.1363 61.8079 66.9722L68.2774 61.8209H68.2456Z" fill="#407BFF"/>
<path opacity="0.5" d="M68.2456 61.8209C68.2192 61.7997 68.2721 61.8791 68.2986 61.9215L68.4098 62.0803L68.6639 62.4244C68.8439 62.6574 69.0398 62.885 69.241 63.1127C69.6433 63.568 70.0722 64.0127 70.5222 64.4415C71.4169 65.2992 72.4069 66.0563 73.4393 66.7339C75.4987 68.0998 77.8017 69.0263 80.1947 69.4075L80.6447 69.471L80.8724 69.5028C80.8724 69.5028 80.8353 69.5028 80.8194 69.5134C80.6977 69.524 80.5441 69.5875 80.4965 69.6352C80.3959 69.7305 80.6394 69.5875 80.8724 69.2381C81.3753 68.5393 81.8359 67.3375 82.18 66.1251C82.5189 64.8862 82.7783 63.568 82.9583 62.2232C83.0536 61.5509 83.1118 60.8732 83.1754 60.1903C83.2336 59.5232 83.276 58.8032 83.2812 58.1943L89.3802 58.4908C89.3008 59.322 89.2214 60.0367 89.1367 60.8044C89.0467 61.5615 88.9302 62.308 88.8243 63.065C88.5914 64.5739 88.3266 66.0933 87.9296 67.6445C87.7337 68.4228 87.506 69.2116 87.2149 70.0163C86.9131 70.8211 86.569 71.6576 86.0395 72.5311C85.4995 73.3888 84.7742 74.3841 83.3924 75.1623C82.7042 75.5382 81.8412 75.7923 80.9994 75.8294C80.8035 75.8347 80.56 75.8294 80.4065 75.8241L80.0941 75.8029L79.4694 75.7606C77.8017 75.6071 76.1552 75.2841 74.5511 74.8129C72.9575 74.3206 71.4063 73.7117 69.9345 72.9599C68.4574 72.2187 67.065 71.3293 65.7256 70.3711C65.0532 69.8893 64.402 69.381 63.7667 68.8357C63.4491 68.5657 63.1367 68.2798 62.8191 67.9887L62.3426 67.5334L62.099 67.2898C62.009 67.1945 61.9455 67.1363 61.8079 66.9722L68.2774 61.8209H68.2456Z" fill="white"/>
<path d="M55.5342 189.782C54.7612 188.051 55.296 180.787 55.4018 179.596C54.0624 178.897 49.4564 179.76 49.4564 179.76C49.4564 179.76 50.7429 187.4 49.97 189.782C51.7435 190.762 55.5289 189.782 55.5289 189.782H55.5342Z" fill="#FFC3BD"/>
<path d="M112.373 182.815C110.922 181.603 107.873 174.969 107.444 173.852C105.93 173.815 102.515 176.483 102.515 176.483C102.515 176.483 107.026 182.778 107.381 185.261C109.408 185.362 112.373 182.815 112.373 182.815Z" fill="#FFC3BD"/>
<path d="M60.2514 193.996C56.3813 193.996 55.7195 193.938 53.5383 193.864C51.6748 193.795 51.23 194.028 49.7318 193.996C48.4823 193.97 48.5247 192.773 48.9112 191.397C49.0488 190.905 49.2394 190.338 49.4353 189.645C49.5888 189.11 50.0812 188.739 50.6371 188.739H54.8884C55.2801 188.739 55.6348 188.93 55.8837 189.232C56.9107 190.508 59.129 191.439 61.0667 191.699C63.1473 191.979 61.792 193.996 60.2461 193.996H60.2514Z" fill="#407BFF"/>
<path d="M120.018 185.769C115.851 187.654 113.665 186.696 111.574 187.172C109.779 187.58 109.837 187.913 108.048 188.427C106.862 188.766 106.258 187.495 106.359 186.383C106.422 185.663 106.502 184.827 106.486 183.953C106.481 183.63 106.655 183.334 106.947 183.202L111.092 181.322C111.367 181.2 111.68 181.237 111.918 181.423C113.57 182.741 117.196 184.403 119.737 183.546C121.707 182.889 121.405 185.139 120.018 185.764V185.769Z" fill="#407BFF"/>
<path d="M74.0641 91.3521C74.0641 91.3521 83.8478 113.805 89.2267 130.36C95.7969 145.332 108.964 176.743 108.964 176.743C109.218 177.542 105.062 179.003 104.156 178.855C104.156 178.855 86.7861 158.017 79.7077 134.346C61.3103 111.269 55.8943 92.7391 55.8943 92.7391L74.0641 91.3573V91.3521Z" fill="#263238"/>
<path opacity="0.2" d="M66.2179 103.645C68.9127 106.599 70.8186 116.876 71.7875 123.589C67.9756 117.977 64.995 112.841 62.6973 108.442C62.9673 105.932 64.0685 104.085 66.2232 103.645H66.2179Z" fill="black"/>
<path d="M68.6163 91.7649C68.6163 91.7649 69.3151 122.953 66.5992 138.317C63.7509 154.454 54.936 173.91 55.5607 184.504C54.6554 185.033 51.463 185.065 49.6789 184.504C49.6789 184.504 46.6347 153.061 55.7937 137.713C53.8137 122.35 48.5247 102.449 53.2207 92.9402L68.6163 91.7702V91.7649Z" fill="#263238"/>
<path d="M56.0054 182.296C56.0213 182.831 56.069 183.763 56.2119 184.472C56.2595 184.726 56.0901 184.965 55.8307 185.007C53.676 185.351 50.563 184.853 49.5729 184.673C49.3823 184.642 49.2394 184.488 49.2076 184.297L48.8847 182.264C48.8423 181.984 49.0594 181.735 49.34 181.74L55.5607 181.862C55.8042 181.862 55.9948 182.058 56.0054 182.296Z" fill="#263238"/>
<path opacity="0.1" d="M56.0054 182.296C56.0213 182.831 56.069 183.763 56.2119 184.472C56.2595 184.726 56.0901 184.965 55.8307 185.007C53.676 185.351 50.563 184.853 49.5729 184.673C49.3823 184.642 49.2394 184.488 49.2076 184.297L48.8847 182.264C48.8423 181.984 49.0594 181.735 49.34 181.74L55.5607 181.862C55.8042 181.862 55.9948 182.058 56.0054 182.296Z" fill="white"/>
<path d="M108.487 174.434C108.752 174.937 109.234 175.827 109.615 176.478C109.742 176.695 109.668 176.96 109.456 177.092C107.868 178.071 105.056 179.051 104.125 179.363C103.939 179.427 103.738 179.363 103.622 179.204L102.356 177.537C102.182 177.309 102.261 176.981 102.521 176.859L107.889 174.238C108.106 174.133 108.371 174.212 108.487 174.429V174.434Z" fill="#263238"/>
<path opacity="0.1" d="M108.487 174.434C108.752 174.937 109.234 175.827 109.615 176.478C109.742 176.695 109.668 176.96 109.456 177.092C107.868 178.071 105.056 179.051 104.125 179.363C103.939 179.427 103.738 179.363 103.622 179.204L102.356 177.537C102.182 177.309 102.261 176.981 102.521 176.859L107.889 174.238C108.106 174.133 108.371 174.212 108.487 174.429V174.434Z" fill="white"/>
<path d="M69.9027 64.9233C70.4216 66.9139 71.2581 69.1004 72.264 73.9129C73.1905 77.963 73.8681 85.0837 74.064 91.3521C71.3428 93.7768 62.2949 93.3639 53.2206 92.9403C53.1942 87.0373 50.7694 81.5895 44.1728 69.5028C42.6428 66.7022 43.8816 63.3933 46.8358 62.3979C47.6246 62.1332 48.4664 61.8685 49.3347 61.625C52.7177 60.6826 55.4919 59.9361 58.589 59.5232C59.6161 59.3855 60.6855 59.2744 61.7179 59.1896C65.4291 58.872 68.9816 61.3603 69.908 64.9286L69.9027 64.9233Z" fill="#407BFF"/>
<path opacity="0.5" d="M69.9027 64.9233C70.4216 66.9139 71.2581 69.1004 72.264 73.9129C73.1905 77.963 73.8681 85.0837 74.064 91.3521C71.3428 93.7768 62.2949 93.3639 53.2206 92.9403C53.1942 87.0373 50.7694 81.5895 44.1728 69.5028C42.6428 66.7022 43.8816 63.3933 46.8358 62.3979C47.6246 62.1332 48.4664 61.8685 49.3347 61.625C52.7177 60.6826 55.4919 59.9361 58.589 59.5232C59.6161 59.3855 60.6855 59.2744 61.7179 59.1896C65.4291 58.872 68.9816 61.3603 69.908 64.9286L69.9027 64.9233Z" fill="white"/>
<path d="M59.1873 59.5073L49.8376 61.5085C49.8376 61.5085 57.4031 64.6639 63.4597 69.5293C65.1115 61.2121 59.1873 59.5073 59.1873 59.5073Z" fill="white"/>
<path d="M47.614 51.0576C49.0964 53.853 51.3253 59.0837 49.8429 61.5137C49.8429 61.5137 58.2819 63.9544 62.782 67.8191C63.3802 61.5667 59.1925 59.5125 59.1925 59.5125C55.6295 59.486 54.883 56.9448 54.7612 54.5359L47.614 51.0576Z" fill="#FFC3BD"/>
<path d="M55.5395 62.3131C52.8607 62.3131 49.97 61.6725 49.8112 61.6407C49.7424 61.6248 49.6947 61.556 49.7106 61.4819C49.7265 61.4131 49.8006 61.3654 49.8694 61.3813C49.9171 61.3919 54.9148 62.4984 57.8213 61.8366C58.7478 61.6248 59.2878 61.286 59.4308 60.8254C59.6214 60.206 59.0178 59.5548 59.0125 59.5495C58.9649 59.4966 58.9649 59.4118 59.0178 59.3642C59.0708 59.3166 59.1555 59.3166 59.2031 59.3695C59.2349 59.4013 59.9179 60.1425 59.6849 60.9048C59.5155 61.4607 58.9067 61.8631 57.8796 62.096C57.1754 62.2549 56.3707 62.3184 55.5395 62.3184V62.3131Z" fill="white"/>
<path d="M59.3037 62.3872C59.0813 62.5566 58.7584 62.509 58.5889 62.2866L58.2978 61.9001C58.1284 61.6778 58.176 61.3548 58.3984 61.1907C58.6207 61.0213 58.9437 61.0689 59.1131 61.2913L59.4043 61.6778C59.5737 61.9001 59.526 62.2231 59.3037 62.3872Z" fill="#407BFF"/>
<path opacity="0.2" d="M50.5259 52.4766L54.756 54.536C54.7824 55.1078 54.8407 55.6743 54.9677 56.2143C53.6442 56.3202 51.4788 55.3513 50.9441 54.0754C50.6794 53.4401 50.5153 52.8048 50.5259 52.4766Z" fill="black"/>
<path d="M43.3469 46.8171C45.5228 51.3383 46.3487 53.2919 49.6788 54.8431C54.6924 57.1779 59.8173 53.8478 59.0443 48.85C58.3508 44.3499 54.9042 37.711 49.5782 37.4622C44.3264 37.2133 41.1657 42.2958 43.3469 46.8171Z" fill="#FFC3BD"/>
<path d="M45.2582 40.2521C47.6247 43.6139 47.5029 49.1305 44.7129 49.877C40.4616 49.2205 39.5563 48.1246 39.5563 48.1246C39.5563 48.1246 40.9275 37.7532 45.2582 40.2521Z" fill="#263238"/>
<path d="M41.9227 41.634C48.1858 42.4334 53.1677 39.8181 54.0995 38.3516C48.4293 34.5186 42.5422 37.7798 41.9227 41.634Z" fill="#263238"/>
<path d="M54.9943 44.2017C54.9943 44.2017 56.3655 45.6417 57.4349 46.1923C57.1278 46.8488 56.1696 46.9335 56.1696 46.9335L54.9943 44.2017Z" fill="#ED847E"/>
<path d="M54.6925 49.0247C54.9096 48.9877 55.1319 48.9347 55.3649 48.8553C55.4284 48.8341 55.4549 48.7653 55.4284 48.7018C55.4019 48.6382 55.3331 48.6065 55.2643 48.6276C53.5701 49.2206 52.2625 48.31 52.2519 48.3047C52.1936 48.2623 52.1195 48.2729 52.0825 48.3259C52.0454 48.3788 52.0613 48.4529 52.1142 48.4953C52.1619 48.5324 53.2154 49.263 54.6925 49.03V49.0247Z" fill="#263238"/>
<path d="M43.6276 51.4599C44.6123 52.0105 45.65 52.0582 46.3965 51.7988C47.5135 51.4017 47.1853 50.0358 46.1317 49.1675C45.1788 48.384 43.4529 47.6428 42.6852 48.5111C41.9334 49.3634 42.4999 50.8299 43.6276 51.4599Z" fill="#FFC3BD"/>
<path d="M45.6234 51.7405C44.771 51.7405 44.0828 52.4287 44.0828 53.2864C44.0828 54.1441 44.771 54.827 45.6234 54.827C46.4758 54.827 47.1693 54.1388 47.1693 53.2864C47.1693 52.434 46.4758 51.7405 45.6234 51.7405ZM45.6234 54.467C44.9722 54.467 44.4428 53.9376 44.4428 53.2864C44.4428 52.6352 44.9722 52.1005 45.6234 52.1005C46.2746 52.1005 46.8093 52.6299 46.8093 53.2864C46.8093 53.9429 46.2799 54.467 45.6234 54.467Z" fill="white"/>
<path d="M49.0699 43.8522C49.1229 43.8151 49.1599 43.7622 49.1705 43.6933C49.3188 42.6557 50.1447 42.301 50.1553 42.2957C50.277 42.2427 50.3353 42.1051 50.2717 41.9833C50.2135 41.8615 50.06 41.8086 49.9382 41.8615C49.8958 41.8774 48.8529 42.3221 48.6729 43.6139C48.657 43.741 48.7523 43.8628 48.8899 43.8892C48.9588 43.8998 49.0223 43.8892 49.0699 43.8522Z" fill="#263238"/>
<path d="M56.5878 41.0463C56.646 41.041 56.7043 41.0092 56.7413 40.9616C56.8207 40.861 56.7943 40.7075 56.6831 40.6227C55.566 39.7757 54.5019 40.0986 54.4542 40.1145C54.3272 40.1569 54.2636 40.2892 54.3166 40.4163C54.3642 40.5433 54.5072 40.6122 54.6342 40.5751C54.6766 40.5645 55.5078 40.3263 56.3919 40.9986C56.4502 41.041 56.519 41.0569 56.5825 41.0516L56.5878 41.0463Z" fill="#263238"/>
<path d="M56.5137 42.8305C56.6513 43.2223 56.5507 43.614 56.2913 43.6988C56.0319 43.7835 55.7143 43.5346 55.5766 43.1429C55.439 42.7511 55.5395 42.3593 55.799 42.2746C56.0584 42.1899 56.376 42.4387 56.5137 42.8305Z" fill="#263238"/>
<path d="M51.9236 44.7204C52.0613 45.1122 51.9607 45.5039 51.7012 45.5886C51.4418 45.6734 51.1242 45.4245 50.9865 45.0328C50.8489 44.641 50.9495 44.2492 51.2089 44.1645C51.4683 44.0798 51.786 44.3286 51.9236 44.7204Z" fill="#263238"/>
<path d="M50.9865 44.3976L51.4153 43.4658C51.4153 43.4658 51.6641 44.35 50.9865 44.3976Z" fill="#263238"/>
<path d="M55.5448 42.5604L55.9736 41.6287C55.9736 41.6287 56.2225 42.5128 55.5448 42.5604Z" fill="#263238"/>
<path opacity="0.5" d="M50.0071 70.0691L45.417 71.795C47.307 75.2998 48.8053 78.201 49.9541 80.7211C49.4777 75.1515 50.0124 70.0691 50.0124 70.0691H50.0071Z" fill="#407BFF"/>
<path d="M78.7971 194.007H84.8378L84.8378 106.964H78.7971L78.7971 194.007Z" fill="#407BFF"/>
<path opacity="0.2" d="M78.7917 106.959H84.8378V121.598L78.7917 120.042V106.959Z" fill="black"/>
<path d="M114.115 117.802H60.2301V107.711C60.2301 100.077 66.4243 93.8827 74.0586 93.8827H100.286C107.921 93.8827 114.115 100.077 114.115 107.711V117.802Z" fill="#407BFF"/>
<path d="M64.2008 101.263L63.3061 99.9869C62.9672 99.5051 62.4219 99.2193 61.8343 99.214L59.0919 99.1928C57.9959 99.1822 56.9636 99.7063 56.323 100.596L55.9259 101.146C57.2653 103.365 60.3466 104.778 60.3466 104.778L61.1831 105.276C61.9243 105.721 62.8402 105.514 63.2796 104.805L64.2908 103.163C64.6402 102.597 64.6031 101.84 64.2008 101.268V101.263Z" fill="#FFC3BD"/>
<path d="M51.7223 68.7668C51.5847 69.0527 51.4047 69.4815 51.2459 69.8521L50.7747 71.0221C50.4676 71.811 50.1817 72.6104 49.9117 73.4151C49.377 75.0193 48.9429 76.6446 48.6093 78.2541C48.4505 79.0588 48.3129 79.8582 48.2176 80.6471C48.1329 81.4306 48.0852 82.2036 48.0799 82.95C48.0799 84.4324 48.3076 85.7983 48.7523 86.746L48.9482 87.1695C48.964 87.2013 48.9799 87.2437 48.9852 87.2807C49.2023 88.1278 49.7846 89.1813 50.5258 90.1925C51.267 91.209 52.1565 92.2149 53.12 93.1838C54.0942 94.142 55.1318 95.0685 56.2171 95.958C56.7571 96.4027 57.3183 96.8315 57.8795 97.2497C58.4301 97.6627 59.0337 98.0915 59.5578 98.4356L56.556 103.179C55.8412 102.724 55.2271 102.316 54.5812 101.877C53.9406 101.443 53.3159 100.987 52.6912 100.532C51.4417 99.6163 50.2188 98.6527 49.0276 97.6045C47.8364 96.5615 46.6611 95.4497 45.5652 94.1579C45.0146 93.5173 44.4851 92.8185 43.9875 92.0561C43.4951 91.2885 43.0186 90.452 42.6427 89.4778L42.881 90.0125C41.5839 87.7466 41.1498 85.433 40.9698 83.2995C40.8109 81.15 40.9168 79.1064 41.1392 77.1158C41.3668 75.1305 41.7268 73.1981 42.1557 71.2922C42.3674 70.3392 42.6057 69.3968 42.8598 68.4544C42.9869 67.9833 43.1245 67.5121 43.2675 67.0409C43.4157 66.5538 43.5481 66.125 43.7386 65.5691L51.7223 68.7774V68.7668Z" fill="#407BFF"/>
<path opacity="0.5" d="M51.7223 68.7668C51.5847 69.0527 51.4047 69.4815 51.2459 69.8521L50.7747 71.0221C50.4676 71.811 50.1817 72.6104 49.9117 73.4151C49.377 75.0193 48.9429 76.6446 48.6093 78.2541C48.4505 79.0588 48.3129 79.8582 48.2176 80.6471C48.1329 81.4306 48.0852 82.2036 48.0799 82.95C48.0799 84.4324 48.3076 85.7983 48.7523 86.746L48.9482 87.1695C48.964 87.2013 48.9799 87.2437 48.9852 87.2807C49.2023 88.1278 49.7846 89.1813 50.5258 90.1925C51.267 91.209 52.1565 92.2149 53.12 93.1838C54.0942 94.142 55.1318 95.0685 56.2171 95.958C56.7571 96.4027 57.3183 96.8315 57.8795 97.2497C58.4301 97.6627 59.0337 98.0915 59.5578 98.4356L56.556 103.179C55.8412 102.724 55.2271 102.316 54.5812 101.877C53.9406 101.443 53.3159 100.987 52.6912 100.532C51.4417 99.6163 50.2188 98.6527 49.0276 97.6045C47.8364 96.5615 46.6611 95.4497 45.5652 94.1579C45.0146 93.5173 44.4851 92.8185 43.9875 92.0561C43.4951 91.2885 43.0186 90.452 42.6427 89.4778L42.881 90.0125C41.5839 87.7466 41.1498 85.433 40.9698 83.2995C40.8109 81.15 40.9168 79.1064 41.1392 77.1158C41.3668 75.1305 41.7268 73.1981 42.1557 71.2922C42.3674 70.3392 42.6057 69.3968 42.8598 68.4544C42.9869 67.9833 43.1245 67.5121 43.2675 67.0409C43.4157 66.5538 43.5481 66.125 43.7386 65.5691L51.7223 68.7774V68.7668Z" fill="white"/>
<path opacity="0.1" d="M60.2302 114.811H86.4578V108.145H60.2302V114.811Z" fill="white"/>
<path opacity="0.2" d="M86.4578 117.802V107.711C86.4578 100.072 92.652 93.8826 100.286 93.8826C107.921 93.8826 114.115 100.077 114.115 107.711V117.802" fill="black"/>
<path d="M86.4578 119.575H124.301V117.802H86.4578V119.575Z" fill="#407BFF"/>
<path opacity="0.2" d="M96.6439 119.575H124.301V117.802H96.6439V119.575Z" fill="black"/>
<path d="M81.82 110.559H82.7994V87.2012H81.82V110.559Z" fill="#E0E0E0"/>
<path d="M76.2399 91.7278H83.0906V88.3765C83.0906 88.1277 82.8895 87.9265 82.6406 87.9265H76.2346L77.357 89.8271L76.2346 91.7278H76.2399Z" fill="#407BFF"/>
<path d="M189.383 5.29956L152.127 13.7915L147.352 16.7404L189.383 5.29956Z" fill="#407BFF"/>
<path opacity="0.2" d="M152.127 13.7915L147.352 16.7404L189.383 5.29956" fill="black"/>
<path d="M189.383 5.29956L152.127 13.7915L155.632 16.3751L189.383 5.29956Z" fill="#407BFF"/>
<path d="M170.653 0.763586L151.959 -0.00358555C151.018 -0.0421907 150.224 0.68911 150.185 1.62982L149.838 10.0935C149.799 11.0342 150.531 11.8281 151.471 11.8667L170.165 12.6338C171.106 12.6724 171.9 11.9411 171.939 11.0004L172.286 2.53679C172.325 1.59608 171.593 0.802191 170.653 0.763586Z" fill="#407BFF"/>
<path opacity="0.8" d="M170.653 0.763586L151.959 -0.00358555C151.018 -0.0421907 150.224 0.68911 150.185 1.62982L149.838 10.0935C149.799 11.0342 150.531 11.8281 151.471 11.8667L170.165 12.6338C171.106 12.6724 171.9 11.9411 171.939 11.0004L172.286 2.53679C172.325 1.59608 171.593 0.802191 170.653 0.763586Z" fill="white"/>
<path opacity="0.4" d="M160.979 8.58739C160.927 8.58739 160.874 8.57151 160.831 8.53975L151.169 1.87431C151.047 1.78961 151.021 1.62549 151.1 1.50372C151.185 1.38195 151.349 1.35548 151.471 1.43489L160.995 8.00503L171.028 2.23432C171.155 2.1602 171.314 2.20256 171.388 2.32962C171.462 2.45668 171.42 2.61551 171.293 2.68963L161.117 8.53975C161.075 8.56092 161.032 8.57681 160.985 8.57681L160.979 8.58739Z" fill="#407BFF"/>
<path opacity="0.4" d="M170.806 11.1656C170.753 11.1656 170.7 11.1498 170.657 11.118L165.12 7.26909C164.998 7.18438 164.971 7.02026 165.051 6.89849C165.135 6.77673 165.3 6.75026 165.421 6.82967L170.959 10.6786C171.081 10.7633 171.107 10.9274 171.028 11.0492C170.975 11.1233 170.896 11.1603 170.811 11.1603L170.806 11.1656Z" fill="#407BFF"/>
<path opacity="0.4" d="M150.968 10.3503C150.878 10.3503 150.788 10.3027 150.74 10.218C150.666 10.0909 150.709 9.93208 150.836 9.85796L156.67 6.47495C156.797 6.40083 156.956 6.44318 157.03 6.57024C157.104 6.69731 157.062 6.85613 156.935 6.93025L151.1 10.3133C151.058 10.3397 151.01 10.3503 150.968 10.3503Z" fill="#407BFF"/>
<path d="M189.383 5.29956L157.443 11.8273L155.632 16.3751L189.383 5.29956Z" fill="#407BFF"/>
<path opacity="0.2" d="M189.383 5.29956L157.443 11.8273L155.632 16.3751L189.383 5.29956Z" fill="black"/>
<path d="M189.383 5.29956L157.443 11.8273L167.502 15.4751L189.383 5.29956Z" fill="#407BFF"/>
<path d="M145.102 20.3988C144.98 20.3988 144.874 20.3141 144.843 20.1923C144.811 20.0494 144.896 19.9064 145.038 19.8747C145.631 19.737 146.214 19.5517 146.764 19.3294C146.902 19.2764 147.056 19.34 147.109 19.4776C147.161 19.6153 147.098 19.7688 146.96 19.8217C146.383 20.0547 145.78 20.2453 145.16 20.3935C145.139 20.3935 145.118 20.3988 145.097 20.3988H145.102Z" fill="#407BFF"/>
<path d="M125.206 111.856C125.069 111.856 124.947 111.745 124.942 111.602C124.936 111.454 125.048 111.332 125.196 111.327C126.419 111.269 127.668 111.152 128.907 110.994C129.05 110.972 129.182 111.078 129.203 111.221C129.225 111.364 129.119 111.496 128.976 111.518C127.726 111.682 126.461 111.798 125.222 111.856H125.212H125.206ZM132.629 110.882C132.507 110.882 132.396 110.798 132.369 110.676C132.338 110.533 132.428 110.39 132.571 110.364C133.815 110.094 135.027 109.776 136.171 109.416C136.308 109.374 136.457 109.448 136.504 109.591C136.547 109.728 136.472 109.876 136.329 109.924C135.17 110.289 133.947 110.612 132.682 110.888C132.661 110.888 132.645 110.893 132.624 110.893L132.629 110.882ZM139.755 108.595C139.654 108.595 139.559 108.537 139.517 108.442C139.458 108.309 139.517 108.151 139.649 108.092C140.613 107.653 141.486 107.176 142.238 106.684C142.45 106.546 142.656 106.409 142.868 106.266C142.99 106.181 143.154 106.213 143.238 106.335C143.323 106.456 143.291 106.621 143.17 106.7C142.958 106.843 142.746 106.986 142.534 107.123C141.761 107.632 140.867 108.119 139.877 108.569C139.84 108.585 139.803 108.595 139.765 108.595H139.755ZM145.986 104.471C145.912 104.471 145.838 104.439 145.785 104.381C145.69 104.27 145.7 104.106 145.811 104.005C146.796 103.153 147.67 102.269 148.411 101.374C148.506 101.263 148.67 101.247 148.782 101.342C148.893 101.437 148.909 101.602 148.813 101.713C148.051 102.629 147.156 103.534 146.15 104.402C146.103 104.445 146.039 104.466 145.976 104.466L145.986 104.471ZM150.693 98.7003C150.65 98.7003 150.613 98.6898 150.571 98.6739C150.439 98.6051 150.391 98.4462 150.454 98.3192C150.624 97.9856 150.783 97.6415 150.926 97.3027C151.249 96.535 151.513 95.7144 151.72 94.8673C151.757 94.7244 151.9 94.6397 152.037 94.6714C152.18 94.7085 152.265 94.8514 152.233 94.9891C152.022 95.8626 151.741 96.7097 151.413 97.5039C151.265 97.8586 151.1 98.208 150.926 98.5574C150.878 98.6474 150.788 98.7003 150.687 98.7003H150.693ZM152.53 91.4896C152.53 91.4896 152.519 91.4896 152.514 91.4896C152.366 91.479 152.26 91.352 152.265 91.209C152.313 90.489 152.339 89.7266 152.339 88.8796C152.339 88.4137 152.334 87.9531 152.318 87.4872C152.318 87.3389 152.429 87.2172 152.577 87.2172C152.726 87.2013 152.847 87.3283 152.847 87.4766C152.858 87.9478 152.869 88.4137 152.869 88.8848C152.869 89.7425 152.842 90.5155 152.795 91.2461C152.784 91.3837 152.667 91.4949 152.53 91.4949V91.4896ZM152.429 83.9983C152.286 83.9983 152.17 83.8871 152.165 83.7442C152.117 82.6694 152.069 81.51 152.069 80.3559V79.9853C152.069 79.837 152.175 79.71 152.339 79.7205C152.487 79.7205 152.604 79.8423 152.604 79.9853V80.3506C152.604 81.4941 152.646 82.643 152.694 83.7124C152.699 83.8606 152.588 83.9824 152.44 83.9877H152.429V83.9983ZM175.067 80.737C174.586 80.737 174.114 80.7264 173.664 80.7053C173.516 80.7 173.405 80.5729 173.41 80.43C173.416 80.287 173.543 80.1706 173.686 80.1758C174.13 80.197 174.596 80.2076 175.067 80.2076C175.899 80.2076 176.677 80.1706 177.392 80.0911C177.534 80.0753 177.667 80.1811 177.683 80.3241C177.699 80.467 177.593 80.5994 177.45 80.6153C176.719 80.6947 175.92 80.7317 175.073 80.7317L175.067 80.737ZM169.937 80.467C169.937 80.467 169.921 80.467 169.916 80.467C168.677 80.3717 167.417 80.2606 166.178 80.1282C166.035 80.1123 165.93 79.9853 165.94 79.837C165.956 79.6941 166.083 79.5829 166.231 79.5988C167.465 79.7258 168.72 79.837 169.958 79.9323C170.107 79.9429 170.213 80.07 170.202 80.2182C170.191 80.3559 170.075 80.4617 169.937 80.4617V80.467ZM181.039 79.71C180.939 79.71 180.843 79.6517 180.796 79.5564C180.737 79.4241 180.796 79.2652 180.928 79.207C182.119 78.667 183.025 77.8993 183.618 76.9199C183.692 76.7928 183.856 76.7558 183.983 76.8299C184.11 76.904 184.147 77.0681 184.073 77.1952C183.416 78.2646 182.437 79.1064 181.145 79.6888C181.108 79.7047 181.071 79.71 181.034 79.71H181.039ZM162.483 79.6994C162.483 79.6994 162.462 79.6994 162.451 79.6994C161.218 79.5405 159.968 79.3605 158.735 79.1699C158.592 79.1488 158.491 79.0111 158.512 78.8682C158.533 78.7252 158.671 78.6246 158.814 78.6458C160.042 78.8364 161.286 79.0164 162.515 79.1752C162.658 79.1964 162.764 79.3288 162.742 79.4717C162.727 79.6041 162.61 79.7047 162.478 79.7047L162.483 79.6994ZM155.076 78.5452C155.076 78.5452 155.045 78.5452 155.029 78.5452C153.806 78.3229 152.567 78.0793 151.344 77.8252C151.201 77.7934 151.111 77.6558 151.137 77.5129C151.169 77.3699 151.307 77.2799 151.45 77.3064C152.667 77.5605 153.901 77.804 155.119 78.0264C155.262 78.0529 155.357 78.1905 155.33 78.3335C155.309 78.4605 155.198 78.5505 155.071 78.5505L155.076 78.5452ZM147.744 77.0099C147.744 77.0099 147.701 77.0099 147.68 77.0046C146.468 76.7187 145.245 76.4117 144.038 76.094C143.895 76.0569 143.81 75.914 143.847 75.771C143.884 75.6281 144.027 75.5434 144.17 75.5805C145.372 75.8981 146.59 76.1999 147.797 76.4858C147.94 76.5175 148.03 76.6605 147.993 76.8034C147.966 76.9252 147.855 77.0099 147.733 77.0099H147.744ZM152.604 76.5122C152.604 76.5122 152.577 76.5122 152.567 76.5122C152.424 76.4911 152.323 76.3534 152.345 76.2105C152.54 74.9028 152.853 73.6639 153.271 72.531C153.324 72.3933 153.472 72.3245 153.61 72.3722C153.748 72.4251 153.816 72.5733 153.769 72.711C153.361 73.8122 153.059 75.014 152.869 76.2846C152.847 76.4169 152.736 76.5122 152.609 76.5122H152.604ZM140.496 75.0987C140.496 75.0987 140.448 75.0987 140.422 75.0881C139.225 74.7387 138.018 74.3681 136.832 73.9922C136.695 73.9498 136.615 73.7963 136.663 73.6587C136.705 73.521 136.859 73.4416 136.997 73.4892C138.177 73.8651 139.384 74.2357 140.575 74.5851C140.718 74.6275 140.798 74.7704 140.755 74.9134C140.724 75.0299 140.618 75.104 140.501 75.104L140.496 75.0987ZM184.602 73.7328C184.48 73.7328 184.369 73.6428 184.343 73.521C184.142 72.4939 183.512 71.4933 182.469 70.5509C182.363 70.4556 182.352 70.2862 182.448 70.1751C182.543 70.0639 182.712 70.0586 182.823 70.1539C183.956 71.1757 184.645 72.2716 184.867 73.4151C184.893 73.5581 184.803 73.6957 184.655 73.7275C184.639 73.7275 184.623 73.7275 184.602 73.7275V73.7328ZM133.359 72.8063C133.328 72.8063 133.301 72.8063 133.269 72.7904C132.062 72.3616 130.882 71.9169 129.749 71.4721C129.611 71.4192 129.548 71.2657 129.601 71.128C129.653 70.9904 129.807 70.9268 129.945 70.9798C131.067 71.4245 132.248 71.8692 133.444 72.2927C133.582 72.3404 133.656 72.4939 133.603 72.6316C133.566 72.7428 133.46 72.8063 133.354 72.8063H133.359ZM126.398 70.0374C126.36 70.0374 126.323 70.0321 126.292 70.0162C125.127 69.4974 123.983 68.9521 122.898 68.4015C122.766 68.338 122.718 68.1738 122.782 68.0468C122.845 67.9144 123.009 67.8668 123.136 67.9303C124.216 68.4756 125.349 69.0156 126.509 69.5345C126.641 69.5927 126.705 69.7515 126.641 69.8839C126.599 69.9845 126.498 70.0427 126.398 70.0427V70.0374ZM155.262 69.5821C155.209 69.5821 155.15 69.5662 155.103 69.5292C154.986 69.4445 154.96 69.275 155.045 69.1586C155.765 68.1844 156.612 67.3638 157.565 66.7285C157.655 66.6703 157.745 66.6067 157.84 66.5485C157.962 66.4691 158.126 66.5114 158.205 66.6332C158.285 66.755 158.242 66.9191 158.121 66.9985C158.036 67.0515 157.946 67.1097 157.861 67.1679C156.961 67.7715 156.156 68.5497 155.473 69.4762C155.42 69.545 155.341 69.5821 155.262 69.5821ZM179.546 68.5233C179.504 68.5233 179.462 68.5127 179.419 68.4915C178.975 68.2532 178.54 68.0309 178.127 67.8244C177.455 67.4909 176.762 67.1838 176.057 66.9085C175.92 66.8556 175.856 66.702 175.909 66.5644C175.962 66.4267 176.116 66.3632 176.253 66.4161C176.968 66.6967 177.677 67.0091 178.36 67.3479C178.779 67.5544 179.218 67.7768 179.668 68.0203C179.795 68.0891 179.843 68.2533 179.774 68.3803C179.726 68.4703 179.636 68.518 179.541 68.518L179.546 68.5233ZM119.722 66.6438C119.674 66.6438 119.632 66.6332 119.589 66.6067C118.483 65.9661 117.408 65.2938 116.397 64.6161C116.275 64.5367 116.243 64.3726 116.323 64.2508C116.402 64.129 116.566 64.0973 116.688 64.1767C117.694 64.8491 118.758 65.5161 119.854 66.1514C119.981 66.2256 120.023 66.3844 119.949 66.5115C119.902 66.5962 119.812 66.6438 119.722 66.6438ZM172.584 65.8126C172.584 65.8126 172.542 65.8126 172.521 65.8073C171.319 65.5214 170.085 65.3202 168.863 65.2091C168.714 65.1932 168.608 65.0661 168.624 64.9232C168.64 64.7749 168.767 64.6691 168.91 64.6849C170.16 64.8014 171.414 65.0079 172.643 65.2991C172.786 65.3308 172.87 65.4738 172.838 65.6167C172.812 65.7385 172.701 65.8179 172.579 65.8179L172.584 65.8126ZM161.44 65.6379C161.318 65.6379 161.212 65.5585 161.181 65.4367C161.144 65.2938 161.234 65.1508 161.376 65.1191C162.245 64.9073 163.166 64.7644 164.204 64.6691C164.511 64.6426 164.823 64.6214 165.13 64.6055C165.278 64.5949 165.4 64.7114 165.411 64.8544C165.416 65.0026 165.305 65.1244 165.162 65.1349C164.86 65.1508 164.553 65.172 164.251 65.1985C163.24 65.2885 162.345 65.4314 161.504 65.6326C161.482 65.6326 161.461 65.6379 161.44 65.6379ZM113.511 62.4614C113.453 62.4614 113.395 62.4455 113.347 62.4031C112.341 61.6143 111.378 60.7937 110.483 59.9572C110.377 59.8566 110.372 59.6925 110.467 59.5813C110.568 59.4754 110.732 59.4701 110.843 59.5654C111.733 60.3913 112.68 61.2066 113.676 61.9849C113.792 62.0749 113.813 62.239 113.718 62.3555C113.665 62.4243 113.586 62.4561 113.511 62.4561V62.4614ZM108.048 57.3524C107.974 57.3524 107.9 57.3207 107.847 57.2624C107.01 56.3095 106.227 55.3089 105.522 54.2871C105.438 54.1653 105.469 54.0012 105.591 53.9165C105.713 53.8318 105.877 53.8635 105.962 53.9853C106.655 54.9912 107.423 55.9759 108.249 56.913C108.344 57.0242 108.334 57.1883 108.222 57.2889C108.17 57.3313 108.111 57.3524 108.048 57.3524ZM103.812 51.1952C103.717 51.1952 103.622 51.1423 103.579 51.0523C102.992 49.914 102.489 48.744 102.081 47.5793C102.034 47.4416 102.108 47.2881 102.245 47.2405C102.383 47.1928 102.536 47.2669 102.584 47.4046C102.981 48.5481 103.474 49.6917 104.051 50.8088C104.119 50.9411 104.066 51.1 103.939 51.1635C103.902 51.1847 103.86 51.1952 103.818 51.1952H103.812ZM101.377 44.138C101.25 44.138 101.139 44.048 101.118 43.921C101.065 43.6404 101.022 43.3545 100.98 43.0739C100.853 42.1527 100.784 41.205 100.784 40.2574V40.1515C100.784 40.0033 100.906 39.8815 101.049 39.8868C101.197 39.8868 101.313 40.0085 101.313 40.1515V40.2574C101.313 41.1839 101.377 42.1051 101.504 42.9998C101.541 43.2751 101.589 43.5557 101.636 43.831C101.663 43.9739 101.568 44.1116 101.425 44.138C101.409 44.138 101.393 44.138 101.377 44.138ZM101.403 36.6838C101.403 36.6838 101.372 36.6838 101.356 36.6838C101.213 36.6573 101.118 36.5197 101.144 36.3767C101.372 35.1379 101.711 33.9096 102.145 32.7237C102.198 32.586 102.346 32.5172 102.484 32.5649C102.621 32.6178 102.69 32.766 102.642 32.9037C102.214 34.0631 101.885 35.2596 101.663 36.4667C101.642 36.5938 101.531 36.6838 101.403 36.6838ZM103.987 29.6901C103.939 29.6901 103.897 29.6795 103.855 29.653C103.728 29.5789 103.685 29.4201 103.759 29.293C104.4 28.1918 105.141 27.1489 105.957 26.2012C106.052 26.09 106.221 26.0794 106.327 26.1747C106.438 26.27 106.449 26.4394 106.354 26.5506C105.559 27.4718 104.839 28.4883 104.215 29.563C104.167 29.6477 104.077 29.6954 103.987 29.6954V29.6901ZM108.858 24.057C108.778 24.057 108.699 24.02 108.651 23.9565C108.561 23.84 108.582 23.6759 108.699 23.5859C109.673 22.8288 110.748 22.1458 111.902 21.5582C112.034 21.4893 112.193 21.5423 112.257 21.6746C112.325 21.807 112.273 21.9658 112.14 22.0294C111.018 22.6011 109.964 23.2629 109.022 23.9988C108.974 24.0359 108.916 24.057 108.858 24.057ZM141.391 20.7746C140.268 20.7587 139.072 20.6529 137.627 20.4411C137.484 20.4199 137.383 20.2876 137.404 20.1393C137.425 19.9911 137.558 19.8958 137.706 19.917C139.13 20.1234 140.3 20.2293 141.401 20.2452C141.55 20.2452 141.666 20.367 141.661 20.5152C141.661 20.6581 141.539 20.7746 141.396 20.7746H141.391ZM115.481 20.637C115.37 20.637 115.264 20.5681 115.227 20.457C115.179 20.3193 115.258 20.1711 115.396 20.1234C116.529 19.7528 117.757 19.4352 119.049 19.1758C119.192 19.1493 119.33 19.2393 119.362 19.3822C119.388 19.5252 119.298 19.6628 119.155 19.6946C117.884 19.9487 116.672 20.2664 115.56 20.6264C115.534 20.637 115.507 20.637 115.476 20.637H115.481ZM133.968 19.8058C133.968 19.8058 133.937 19.8058 133.921 19.8058C132.782 19.594 131.496 19.3558 130.236 19.1758C130.093 19.1546 129.992 19.0222 130.008 18.874C130.029 18.7311 130.162 18.6305 130.31 18.6463C131.581 18.8263 132.872 19.0646 134.016 19.2816C134.159 19.3081 134.254 19.4458 134.228 19.5887C134.207 19.7158 134.095 19.8058 133.968 19.8058ZM122.808 19.1228C122.676 19.1228 122.559 19.0222 122.543 18.8899C122.527 18.7469 122.633 18.6146 122.776 18.5987C123.449 18.5193 124.169 18.4505 124.91 18.3922C125.381 18.3552 125.873 18.334 126.371 18.334H126.546C126.694 18.334 126.81 18.4558 126.81 18.604C126.81 18.7522 126.673 18.8634 126.546 18.8687H126.376C125.889 18.8687 125.413 18.8846 124.958 18.9216C124.222 18.9799 123.512 19.0487 122.845 19.1228C122.835 19.1228 122.824 19.1228 122.813 19.1228H122.808Z" fill="#407BFF"/>
<path d="M121.405 111.872C121.405 111.872 121.4 111.872 121.394 111.872C120.764 111.846 120.14 111.804 119.531 111.745C119.388 111.729 119.277 111.602 119.293 111.454C119.309 111.311 119.436 111.2 119.584 111.216C120.177 111.274 120.796 111.316 121.416 111.343C121.564 111.348 121.675 111.475 121.67 111.618C121.664 111.761 121.548 111.872 121.405 111.872Z" fill="#407BFF"/>
<g opacity="0.6">
<path d="M145.102 20.3988C144.98 20.3988 144.874 20.3141 144.843 20.1923C144.811 20.0494 144.896 19.9064 145.038 19.8747C145.631 19.737 146.214 19.5517 146.764 19.3294C146.902 19.2764 147.056 19.34 147.109 19.4776C147.161 19.6153 147.098 19.7688 146.96 19.8217C146.383 20.0547 145.78 20.2453 145.16 20.3935C145.139 20.3935 145.118 20.3988 145.097 20.3988H145.102Z" fill="white"/>
<path d="M125.206 111.856C125.069 111.856 124.947 111.745 124.942 111.602C124.936 111.454 125.048 111.332 125.196 111.327C126.419 111.269 127.668 111.152 128.907 110.994C129.05 110.972 129.182 111.078 129.203 111.221C129.225 111.364 129.119 111.496 128.976 111.518C127.726 111.682 126.461 111.798 125.222 111.856H125.212H125.206ZM132.629 110.882C132.507 110.882 132.396 110.798 132.369 110.676C132.338 110.533 132.428 110.39 132.571 110.364C133.815 110.094 135.027 109.776 136.171 109.416C136.308 109.374 136.457 109.448 136.504 109.591C136.547 109.728 136.472 109.876 136.329 109.924C135.17 110.289 133.947 110.612 132.682 110.888C132.661 110.888 132.645 110.893 132.624 110.893L132.629 110.882ZM139.755 108.595C139.654 108.595 139.559 108.537 139.517 108.442C139.458 108.309 139.517 108.151 139.649 108.092C140.613 107.653 141.486 107.176 142.238 106.684C142.45 106.546 142.656 106.409 142.868 106.266C142.99 106.181 143.154 106.213 143.238 106.335C143.323 106.456 143.291 106.621 143.17 106.7C142.958 106.843 142.746 106.986 142.534 107.123C141.761 107.632 140.867 108.119 139.877 108.569C139.84 108.585 139.803 108.595 139.765 108.595H139.755ZM145.986 104.471C145.912 104.471 145.838 104.439 145.785 104.381C145.69 104.27 145.7 104.106 145.811 104.005C146.796 103.153 147.67 102.269 148.411 101.374C148.506 101.263 148.67 101.247 148.782 101.342C148.893 101.437 148.909 101.602 148.813 101.713C148.051 102.629 147.156 103.534 146.15 104.402C146.103 104.445 146.039 104.466 145.976 104.466L145.986 104.471ZM150.693 98.7003C150.65 98.7003 150.613 98.6898 150.571 98.6739C150.439 98.6051 150.391 98.4462 150.454 98.3192C150.624 97.9856 150.783 97.6415 150.926 97.3027C151.249 96.535 151.513 95.7144 151.72 94.8673C151.757 94.7244 151.9 94.6397 152.037 94.6714C152.18 94.7085 152.265 94.8514 152.233 94.9891C152.022 95.8626 151.741 96.7097 151.413 97.5039C151.265 97.8586 151.1 98.208 150.926 98.5574C150.878 98.6474 150.788 98.7003 150.687 98.7003H150.693ZM152.53 91.4896C152.53 91.4896 152.519 91.4896 152.514 91.4896C152.366 91.479 152.26 91.352 152.265 91.209C152.313 90.489 152.339 89.7266 152.339 88.8796C152.339 88.4137 152.334 87.9531 152.318 87.4872C152.318 87.3389 152.429 87.2172 152.577 87.2172C152.726 87.2013 152.847 87.3283 152.847 87.4766C152.858 87.9478 152.869 88.4137 152.869 88.8848C152.869 89.7425 152.842 90.5155 152.795 91.2461C152.784 91.3837 152.667 91.4949 152.53 91.4949V91.4896ZM152.429 83.9983C152.286 83.9983 152.17 83.8871 152.165 83.7442C152.117 82.6694 152.069 81.51 152.069 80.3559V79.9853C152.069 79.837 152.175 79.71 152.339 79.7205C152.487 79.7205 152.604 79.8423 152.604 79.9853V80.3506C152.604 81.4941 152.646 82.643 152.694 83.7124C152.699 83.8606 152.588 83.9824 152.44 83.9877H152.429V83.9983ZM175.067 80.737C174.586 80.737 174.114 80.7264 173.664 80.7053C173.516 80.7 173.405 80.5729 173.41 80.43C173.416 80.287 173.543 80.1706 173.686 80.1758C174.13 80.197 174.596 80.2076 175.067 80.2076C175.899 80.2076 176.677 80.1706 177.392 80.0911C177.534 80.0753 177.667 80.1811 177.683 80.3241C177.699 80.467 177.593 80.5994 177.45 80.6153C176.719 80.6947 175.92 80.7317 175.073 80.7317L175.067 80.737ZM169.937 80.467C169.937 80.467 169.921 80.467 169.916 80.467C168.677 80.3717 167.417 80.2606 166.178 80.1282C166.035 80.1123 165.93 79.9853 165.94 79.837C165.956 79.6941 166.083 79.5829 166.231 79.5988C167.465 79.7258 168.72 79.837 169.958 79.9323C170.107 79.9429 170.213 80.07 170.202 80.2182C170.191 80.3559 170.075 80.4617 169.937 80.4617V80.467ZM181.039 79.71C180.939 79.71 180.843 79.6517 180.796 79.5564C180.737 79.4241 180.796 79.2652 180.928 79.207C182.119 78.667 183.025 77.8993 183.618 76.9199C183.692 76.7928 183.856 76.7558 183.983 76.8299C184.11 76.904 184.147 77.0681 184.073 77.1952C183.416 78.2646 182.437 79.1064 181.145 79.6888C181.108 79.7047 181.071 79.71 181.034 79.71H181.039ZM162.483 79.6994C162.483 79.6994 162.462 79.6994 162.451 79.6994C161.218 79.5405 159.968 79.3605 158.735 79.1699C158.592 79.1488 158.491 79.0111 158.512 78.8682C158.533 78.7252 158.671 78.6246 158.814 78.6458C160.042 78.8364 161.286 79.0164 162.515 79.1752C162.658 79.1964 162.764 79.3288 162.742 79.4717C162.727 79.6041 162.61 79.7047 162.478 79.7047L162.483 79.6994ZM155.076 78.5452C155.076 78.5452 155.045 78.5452 155.029 78.5452C153.806 78.3229 152.567 78.0793 151.344 77.8252C151.201 77.7934 151.111 77.6558 151.137 77.5129C151.169 77.3699 151.307 77.2799 151.45 77.3064C152.667 77.5605 153.901 77.804 155.119 78.0264C155.262 78.0529 155.357 78.1905 155.33 78.3335C155.309 78.4605 155.198 78.5505 155.071 78.5505L155.076 78.5452ZM147.744 77.0099C147.744 77.0099 147.701 77.0099 147.68 77.0046C146.468 76.7187 145.245 76.4117 144.038 76.094C143.895 76.0569 143.81 75.914 143.847 75.771C143.884 75.6281 144.027 75.5434 144.17 75.5805C145.372 75.8981 146.59 76.1999 147.797 76.4858C147.94 76.5175 148.03 76.6605 147.993 76.8034C147.966 76.9252 147.855 77.0099 147.733 77.0099H147.744ZM152.604 76.5122C152.604 76.5122 152.577 76.5122 152.567 76.5122C152.424 76.4911 152.323 76.3534 152.345 76.2105C152.54 74.9028 152.853 73.6639 153.271 72.531C153.324 72.3933 153.472 72.3245 153.61 72.3722C153.748 72.4251 153.816 72.5733 153.769 72.711C153.361 73.8122 153.059 75.014 152.869 76.2846C152.847 76.4169 152.736 76.5122 152.609 76.5122H152.604ZM140.496 75.0987C140.496 75.0987 140.448 75.0987 140.422 75.0881C139.225 74.7387 138.018 74.3681 136.832 73.9922C136.695 73.9498 136.615 73.7963 136.663 73.6587C136.705 73.521 136.859 73.4416 136.997 73.4892C138.177 73.8651 139.384 74.2357 140.575 74.5851C140.718 74.6275 140.798 74.7704 140.755 74.9134C140.724 75.0299 140.618 75.104 140.501 75.104L140.496 75.0987ZM184.602 73.7328C184.48 73.7328 184.369 73.6428 184.343 73.521C184.142 72.4939 183.512 71.4933 182.469 70.5509C182.363 70.4556 182.352 70.2862 182.448 70.1751C182.543 70.0639 182.712 70.0586 182.823 70.1539C183.956 71.1757 184.645 72.2716 184.867 73.4151C184.893 73.5581 184.803 73.6957 184.655 73.7275C184.639 73.7275 184.623 73.7275 184.602 73.7275V73.7328ZM133.359 72.8063C133.328 72.8063 133.301 72.8063 133.269 72.7904C132.062 72.3616 130.882 71.9169 129.749 71.4721C129.611 71.4192 129.548 71.2657 129.601 71.128C129.653 70.9904 129.807 70.9268 129.945 70.9798C131.067 71.4245 132.248 71.8692 133.444 72.2927C133.582 72.3404 133.656 72.4939 133.603 72.6316C133.566 72.7428 133.46 72.8063 133.354 72.8063H133.359ZM126.398 70.0374C126.36 70.0374 126.323 70.0321 126.292 70.0162C125.127 69.4974 123.983 68.9521 122.898 68.4015C122.766 68.338 122.718 68.1738 122.782 68.0468C122.845 67.9144 123.009 67.8668 123.136 67.9303C124.216 68.4756 125.349 69.0156 126.509 69.5345C126.641 69.5927 126.705 69.7515 126.641 69.8839C126.599 69.9845 126.498 70.0427 126.398 70.0427V70.0374ZM155.262 69.5821C155.209 69.5821 155.15 69.5662 155.103 69.5292C154.986 69.4445 154.96 69.275 155.045 69.1586C155.765 68.1844 156.612 67.3638 157.565 66.7285C157.655 66.6703 157.745 66.6067 157.84 66.5485C157.962 66.4691 158.126 66.5114 158.205 66.6332C158.285 66.755 158.242 66.9191 158.121 66.9985C158.036 67.0515 157.946 67.1097 157.861 67.1679C156.961 67.7715 156.156 68.5497 155.473 69.4762C155.42 69.545 155.341 69.5821 155.262 69.5821ZM179.546 68.5233C179.504 68.5233 179.462 68.5127 179.419 68.4915C178.975 68.2532 178.54 68.0309 178.127 67.8244C177.455 67.4909 176.762 67.1838 176.057 66.9085C175.92 66.8556 175.856 66.702 175.909 66.5644C175.962 66.4267 176.116 66.3632 176.253 66.4161C176.968 66.6967 177.677 67.0091 178.36 67.3479C178.779 67.5544 179.218 67.7768 179.668 68.0203C179.795 68.0891 179.843 68.2533 179.774 68.3803C179.726 68.4703 179.636 68.518 179.541 68.518L179.546 68.5233ZM119.722 66.6438C119.674 66.6438 119.632 66.6332 119.589 66.6067C118.483 65.9661 117.408 65.2938 116.397 64.6161C116.275 64.5367 116.243 64.3726 116.323 64.2508C116.402 64.129 116.566 64.0973 116.688 64.1767C117.694 64.8491 118.758 65.5161 119.854 66.1514C119.981 66.2256 120.023 66.3844 119.949 66.5115C119.902 66.5962 119.812 66.6438 119.722 66.6438ZM172.584 65.8126C172.584 65.8126 172.542 65.8126 172.521 65.8073C171.319 65.5214 170.085 65.3202 168.863 65.2091C168.714 65.1932 168.608 65.0661 168.624 64.9232C168.64 64.7749 168.767 64.6691 168.91 64.6849C170.16 64.8014 171.414 65.0079 172.643 65.2991C172.786 65.3308 172.87 65.4738 172.838 65.6167C172.812 65.7385 172.701 65.8179 172.579 65.8179L172.584 65.8126ZM161.44 65.6379C161.318 65.6379 161.212 65.5585 161.181 65.4367C161.144 65.2938 161.234 65.1508 161.376 65.1191C162.245 64.9073 163.166 64.7644 164.204 64.6691C164.511 64.6426 164.823 64.6214 165.13 64.6055C165.278 64.5949 165.4 64.7114 165.411 64.8544C165.416 65.0026 165.305 65.1244 165.162 65.1349C164.86 65.1508 164.553 65.172 164.251 65.1985C163.24 65.2885 162.345 65.4314 161.504 65.6326C161.482 65.6326 161.461 65.6379 161.44 65.6379ZM113.511 62.4614C113.453 62.4614 113.395 62.4455 113.347 62.4031C112.341 61.6143 111.378 60.7937 110.483 59.9572C110.377 59.8566 110.372 59.6925 110.467 59.5813C110.568 59.4754 110.732 59.4701 110.843 59.5654C111.733 60.3913 112.68 61.2066 113.676 61.9849C113.792 62.0749 113.813 62.239 113.718 62.3555C113.665 62.4243 113.586 62.4561 113.511 62.4561V62.4614ZM108.048 57.3524C107.974 57.3524 107.9 57.3207 107.847 57.2624C107.01 56.3095 106.227 55.3089 105.522 54.2871C105.438 54.1653 105.469 54.0012 105.591 53.9165C105.713 53.8318 105.877 53.8635 105.962 53.9853C106.655 54.9912 107.423 55.9759 108.249 56.913C108.344 57.0242 108.334 57.1883 108.222 57.2889C108.17 57.3313 108.111 57.3524 108.048 57.3524ZM103.812 51.1952C103.717 51.1952 103.622 51.1423 103.579 51.0523C102.992 49.914 102.489 48.744 102.081 47.5793C102.034 47.4416 102.108 47.2881 102.245 47.2405C102.383 47.1928 102.536 47.2669 102.584 47.4046C102.981 48.5481 103.474 49.6917 104.051 50.8088C104.119 50.9411 104.066 51.1 103.939 51.1635C103.902 51.1847 103.86 51.1952 103.818 51.1952H103.812ZM101.377 44.138C101.25 44.138 101.139 44.048 101.118 43.921C101.065 43.6404 101.022 43.3545 100.98 43.0739C100.853 42.1527 100.784 41.205 100.784 40.2574V40.1515C100.784 40.0033 100.906 39.8815 101.049 39.8868C101.197 39.8868 101.313 40.0085 101.313 40.1515V40.2574C101.313 41.1839 101.377 42.1051 101.504 42.9998C101.541 43.2751 101.589 43.5557 101.636 43.831C101.663 43.9739 101.568 44.1116 101.425 44.138C101.409 44.138 101.393 44.138 101.377 44.138ZM101.403 36.6838C101.403 36.6838 101.372 36.6838 101.356 36.6838C101.213 36.6573 101.118 36.5197 101.144 36.3767C101.372 35.1379 101.711 33.9096 102.145 32.7237C102.198 32.586 102.346 32.5172 102.484 32.5649C102.621 32.6178 102.69 32.766 102.642 32.9037C102.214 34.0631 101.885 35.2596 101.663 36.4667C101.642 36.5938 101.531 36.6838 101.403 36.6838ZM103.987 29.6901C103.939 29.6901 103.897 29.6795 103.855 29.653C103.728 29.5789 103.685 29.4201 103.759 29.293C104.4 28.1918 105.141 27.1489 105.957 26.2012C106.052 26.09 106.221 26.0794 106.327 26.1747C106.438 26.27 106.449 26.4394 106.354 26.5506C105.559 27.4718 104.839 28.4883 104.215 29.563C104.167 29.6477 104.077 29.6954 103.987 29.6954V29.6901ZM108.858 24.057C108.778 24.057 108.699 24.02 108.651 23.9565C108.561 23.84 108.582 23.6759 108.699 23.5859C109.673 22.8288 110.748 22.1458 111.902 21.5582C112.034 21.4893 112.193 21.5423 112.257 21.6746C112.325 21.807 112.273 21.9658 112.14 22.0294C111.018 22.6011 109.964 23.2629 109.022 23.9988C108.974 24.0359 108.916 24.057 108.858 24.057ZM141.391 20.7746C140.268 20.7587 139.072 20.6529 137.627 20.4411C137.484 20.4199 137.383 20.2876 137.404 20.1393C137.425 19.9911 137.558 19.8958 137.706 19.917C139.13 20.1234 140.3 20.2293 141.401 20.2452C141.55 20.2452 141.666 20.367 141.661 20.5152C141.661 20.6581 141.539 20.7746 141.396 20.7746H141.391ZM115.481 20.637C115.37 20.637 115.264 20.5681 115.227 20.457C115.179 20.3193 115.258 20.1711 115.396 20.1234C116.529 19.7528 117.757 19.4352 119.049 19.1758C119.192 19.1493 119.33 19.2393 119.362 19.3822C119.388 19.5252 119.298 19.6628 119.155 19.6946C117.884 19.9487 116.672 20.2664 115.56 20.6264C115.534 20.637 115.507 20.637 115.476 20.637H115.481ZM133.968 19.8058C133.968 19.8058 133.937 19.8058 133.921 19.8058C132.782 19.594 131.496 19.3558 130.236 19.1758C130.093 19.1546 129.992 19.0222 130.008 18.874C130.029 18.7311 130.162 18.6305 130.31 18.6463C131.581 18.8263 132.872 19.0646 134.016 19.2816C134.159 19.3081 134.254 19.4458 134.228 19.5887C134.207 19.7158 134.095 19.8058 133.968 19.8058ZM122.808 19.1228C122.676 19.1228 122.559 19.0222 122.543 18.8899C122.527 18.7469 122.633 18.6146 122.776 18.5987C123.449 18.5193 124.169 18.4505 124.91 18.3922C125.381 18.3552 125.873 18.334 126.371 18.334H126.546C126.694 18.334 126.81 18.4558 126.81 18.604C126.81 18.7522 126.673 18.8634 126.546 18.8687H126.376C125.889 18.8687 125.413 18.8846 124.958 18.9216C124.222 18.9799 123.512 19.0487 122.845 19.1228C122.835 19.1228 122.824 19.1228 122.813 19.1228H122.808Z" fill="white"/>
<path d="M121.405 111.872C121.405 111.872 121.4 111.872 121.394 111.872C120.764 111.846 120.14 111.804 119.531 111.745C119.388 111.729 119.277 111.602 119.293 111.454C119.309 111.311 119.436 111.2 119.584 111.216C120.177 111.274 120.796 111.316 121.416 111.343C121.564 111.348 121.675 111.475 121.67 111.618C121.664 111.761 121.548 111.872 121.405 111.872Z" fill="white"/>
</g>
</g>
<defs>
<clipPath id="clip0_2543_19400">
<rect width="205.3" height="200" fill="white" transform="translate(0.85022)"/>
</clipPath>
</defs>
</svg>
