<svg xmlns="http://www.w3.org/2000/svg" width="156" height="46" viewBox="0 0 156 46" fill="none">
  <g clip-path="url(#clip0_19240_33840)">
    <path fill-rule="evenodd" clip-rule="evenodd" d="M149.498 46H5.75212C2.58188 46 0 43.4075 0 40.25V5.75C0 2.58105 2.58188 0 5.75212 0H149.498C152.665 0 155.25 2.58105 155.25 5.75V40.25C155.25 43.4075 152.665 46 149.498 46Z" fill="#212529"/>
    <path fill-rule="evenodd" clip-rule="evenodd" d="M149.498 0.920573C152.157 0.920573 154.333 3.09152 154.333 5.75V40.25C154.333 42.9085 152.171 45.0794 149.498 45.0794H5.75212C3.09312 45.0794 0.916797 42.9085 0.916797 40.25V5.75C0.916797 3.09152 3.07884 0.920573 5.75212 0.920573H149.498ZM149.498 0H5.75212C2.58188 0 0 2.59252 0 5.75V40.25C0 43.419 2.58188 46 5.75212 46H149.498C152.665 46 155.25 43.419 155.25 40.25V5.75C155.25 2.59252 152.665 0 149.498 0Z" fill="white"/>
    <path d="M81.786 15.2168C80.7492 15.2168 79.8752 14.8526 79.1841 14.1356C78.4986 13.4387 78.1159 12.478 78.133 11.4972C78.133 10.4505 78.4872 9.56431 79.1841 8.86169C79.8724 8.14473 80.7463 7.78052 81.7831 7.78052C82.8084 7.78052 83.6824 8.14473 84.385 8.86169C85.0819 9.58725 85.436 10.4734 85.436 11.4972C85.4246 12.5469 85.0704 13.433 84.385 14.1328C83.6967 14.8555 82.8227 15.2168 81.786 15.2168ZM50.9376 15.2168C49.9237 15.2168 49.044 14.8583 48.3243 14.15C47.6103 13.4445 47.2476 12.5526 47.2476 11.5001C47.2476 10.4476 47.6103 9.55571 48.3243 8.85022C49.0297 8.14186 49.9094 7.78339 50.9376 7.78339C51.4403 7.78339 51.9286 7.88376 52.397 8.08738C52.8569 8.28526 53.231 8.55483 53.5081 8.88463L53.5766 8.9678L52.8026 9.73064L52.7226 9.636C52.2857 9.11406 51.7002 8.85882 50.9262 8.85882C50.235 8.85882 49.6324 9.10546 49.1354 9.59299C48.6356 10.0834 48.3814 10.7258 48.3814 11.503C48.3814 12.2801 48.6356 12.9225 49.1354 13.4129C49.6324 13.9005 50.235 14.1471 50.9262 14.1471C51.663 14.1471 52.2828 13.9005 52.7655 13.4129C53.0511 13.1262 53.2282 12.7247 53.291 12.2171H50.8091V11.1445H54.3563L54.3706 11.242C54.3963 11.4227 54.422 11.6091 54.422 11.7811C54.422 12.7705 54.125 13.5707 53.5366 14.1614C52.8683 14.8612 51.9943 15.2168 50.9376 15.2168ZM91.9535 15.0648H90.8597L87.5095 9.68189L87.5381 10.6512V15.0619H86.4442V7.93538H87.6923L87.7266 7.98987L90.8768 13.0602L90.8482 12.0937V7.93538H91.9535V15.0648ZM73.5662 15.0648H72.458V9.00795H70.5359V7.93538H75.4855V9.00795H73.5633V15.0648H73.5662ZM69.6334 15.0648H68.5281V7.93538H69.6334V15.0648ZM63.4215 15.0648H62.3162V9.00795H60.394V7.93538H65.3436V9.00795H63.4215V15.0648ZM59.6943 15.0533H55.4559V7.93538H59.6943V9.00795H56.564V10.9638H59.3887V12.0249H56.564V13.9808H59.6943V15.0533ZM79.9952 13.3986C80.4893 13.8947 81.0891 14.1442 81.786 14.1442C82.5028 14.1442 83.0883 13.9005 83.5767 13.3986C84.0622 12.9111 84.3079 12.2715 84.3079 11.5001C84.3079 10.7286 84.0622 10.0863 83.5796 9.60159C83.0855 9.10546 82.4828 8.85595 81.7888 8.85595C81.0719 8.85595 80.4864 9.09972 80.0009 9.60159C79.5154 10.0891 79.2698 10.7286 79.2698 11.5001C79.2698 12.2715 79.5125 12.9139 79.9952 13.3986Z" fill="white"/>
    <path fill-rule="evenodd" clip-rule="evenodd" d="M78.0305 25.0188C75.3315 25.0188 73.1438 27.0751 73.1438 29.9113C73.1438 32.7218 75.3458 34.8039 78.0305 34.8039C80.7295 34.8039 82.9172 32.7333 82.9172 29.9113C82.9172 27.0751 80.7295 25.0188 78.0305 25.0188ZM78.0305 32.8652C76.5539 32.8652 75.283 31.6378 75.283 29.8999C75.283 28.1362 76.5568 26.9345 78.0305 26.9345C79.5071 26.9345 80.778 28.1362 80.778 29.8999C80.7809 31.6493 79.5071 32.8652 78.0305 32.8652ZM67.3688 25.0188C64.6698 25.0188 62.4821 27.0751 62.4821 29.9113C62.4821 32.7218 64.6841 34.8039 67.3688 34.8039C70.0678 34.8039 72.2555 32.7333 72.2555 29.9113C72.2555 27.0751 70.0649 25.0188 67.3688 25.0188ZM67.3688 32.8652C65.8922 32.8652 64.6213 31.6378 64.6213 29.8999C64.6213 28.1362 65.8951 26.9345 67.3688 26.9345C68.8454 26.9345 70.1163 28.1362 70.1163 29.8999C70.1163 31.6493 68.8454 32.8652 67.3688 32.8652ZM54.6822 26.513V28.5835H59.6317C59.4803 29.745 59.0976 30.6025 58.5121 31.1904C57.7867 31.9188 56.6671 32.7104 54.6936 32.7104C51.6519 32.7104 49.2728 30.244 49.2728 27.1898C49.2728 24.1355 51.6519 21.6692 54.6936 21.6692C56.3358 21.6692 57.5325 22.3202 58.4208 23.1519L59.8831 21.6835C58.6492 20.4963 57.007 19.5872 54.705 19.5872C50.5323 19.5872 47.0308 22.9999 47.0308 27.1783C47.0308 31.3682 50.5294 34.7695 54.705 34.7695C56.9584 34.7695 58.6492 34.0296 59.9859 32.6358C61.3482 31.2678 61.7795 29.3378 61.7795 27.7806C61.7795 27.2959 61.7424 26.86 61.6652 26.49H54.6793C54.6822 26.4872 54.6822 26.513 54.6822 26.513ZM106.574 28.1247C106.166 27.0263 104.932 25.0074 102.401 25.0074C99.8937 25.0074 97.8088 26.989 97.8088 29.8999C97.8088 32.6473 99.8708 34.7924 102.644 34.7924C104.872 34.7924 106.168 33.4244 106.703 32.6214L105.049 31.5087C104.501 32.3261 103.738 32.8623 102.655 32.8623C101.562 32.8623 100.796 32.3633 100.288 31.3797L106.802 28.6696C106.802 28.6724 106.574 28.1247 106.574 28.1247ZM99.9308 29.7594C99.8794 27.8695 101.393 26.9087 102.476 26.9087C103.33 26.9087 104.041 27.3303 104.283 27.944L99.9308 29.7594ZM94.6385 34.4999H96.7777V20.1263H94.6385V34.4999ZM91.1256 26.1057H91.0484C90.5658 25.5293 89.649 25.0074 88.478 25.0074C86.0475 25.0074 83.8083 27.1554 83.8083 29.9142C83.8083 32.6616 86.036 34.7838 88.478 34.7838C89.6347 34.7838 90.5658 34.259 91.0484 33.6711H91.1256V34.3737C91.1256 36.2407 90.1316 37.2473 88.5294 37.2473C87.2185 37.2473 86.4045 36.3009 86.0732 35.5094L84.2139 36.2894C84.748 37.5799 86.1731 39.1773 88.5265 39.1773C91.0342 39.1773 93.1591 37.6946 93.1591 34.0783V25.2999H91.137V26.1057C91.1398 26.1057 91.1256 26.1057 91.1256 26.1057ZM88.6693 32.8652C87.1928 32.8652 85.9589 31.6263 85.9589 29.9142C85.9589 28.1878 87.1928 26.9374 88.6693 26.9374C90.1316 26.9374 91.2655 28.2021 91.2655 29.9142C91.2798 31.6263 90.1345 32.8652 88.6693 32.8652ZM116.59 20.1263H111.475V34.4999H113.614V29.0567H116.593C118.961 29.0567 121.288 27.3332 121.288 24.5973C121.288 21.8613 118.969 20.1263 116.59 20.1263ZM116.653 27.0493H113.611V22.1166H116.653C118.255 22.1166 119.161 23.4444 119.161 24.5829C119.161 25.71 118.244 27.0493 116.653 27.0493ZM129.862 24.993C128.309 24.993 126.706 25.6842 126.044 27.1898L127.94 27.9813C128.349 27.1898 129.097 26.9202 129.888 26.9202C130.996 26.9202 132.116 27.5855 132.142 28.7728V28.9248C131.759 28.7069 130.919 28.3742 129.914 28.3742C127.866 28.3742 125.79 29.4984 125.79 31.6062C125.79 33.5363 127.469 34.7752 129.34 34.7752C130.776 34.7752 131.567 34.1242 132.062 33.37H132.139V34.4827H134.201V28.9764C134.201 26.4126 132.304 24.993 129.862 24.993ZM129.594 32.8652C128.894 32.8652 127.915 32.5211 127.915 31.6378C127.915 30.5251 129.137 30.1035 130.179 30.1035C131.122 30.1035 131.567 30.3071 132.127 30.5882C131.973 31.8787 130.888 32.8537 129.594 32.8652ZM141.724 25.2999L139.267 31.5345H139.19L136.646 25.2999H134.344L138.162 34.0152L135.986 38.859H138.214L144.088 25.2999H141.724ZM122.468 34.4999H124.607V20.1263H122.468V34.4999Z" fill="white"/>
    <path fill-rule="evenodd" clip-rule="evenodd" d="M11.9499 8.66361C11.6186 9.02209 11.4272 9.56985 11.4272 10.2868V35.7159C11.4272 36.4328 11.6186 36.9806 11.9613 37.3247L12.0499 37.4021L26.2388 23.1548V22.8364L12.0384 8.58618L11.9499 8.66361Z" fill="url(#paint0_linear_19240_33840)"/>
    <path fill-rule="evenodd" clip-rule="evenodd" d="M30.9591 27.9184L26.2266 23.1664V22.8338L30.9591 18.0818L31.0619 18.1449L36.6598 21.3396C38.262 22.2459 38.262 23.7429 36.6598 24.6606L31.0619 27.8554L30.9591 27.9184Z" fill="url(#paint1_linear_19240_33840)"/>
    <path fill-rule="evenodd" clip-rule="evenodd" d="M31.063 27.8552L26.2277 23L11.9502 37.3363C12.4729 37.8984 13.3497 37.9615 14.3293 37.4137L31.063 27.8552Z" fill="url(#paint2_linear_19240_33840)"/>
    <path fill-rule="evenodd" clip-rule="evenodd" d="M31.063 18.1448L14.3293 8.60067C13.3497 8.03857 12.47 8.11601 11.9502 8.6781L26.2277 23L31.063 18.1448Z" fill="url(#paint3_linear_19240_33840)"/>
    <path opacity="0.2" fill-rule="evenodd" clip-rule="evenodd" d="M30.96 27.752L14.3405 37.233C13.4123 37.7693 12.584 37.732 12.05 37.2445L11.9614 37.3334L12.05 37.4108C12.584 37.8955 13.4123 37.9356 14.3405 37.3993L31.0742 27.8552L30.96 27.752Z" fill="#212529"/>
    <path opacity="0.12" fill-rule="evenodd" clip-rule="evenodd" d="M36.6608 24.4941L30.9458 27.752L31.0486 27.8552L36.6465 24.6605C37.4491 24.2016 37.8432 23.5994 37.8432 23C37.7946 23.5506 37.3862 24.0726 36.6608 24.4941Z" fill="#212529"/>
    <path opacity="0.25" fill-rule="evenodd" clip-rule="evenodd" d="M14.329 8.76689L36.6606 21.5058C37.386 21.9159 37.7944 22.4522 37.8573 22.9999C37.8573 22.4006 37.4631 21.7983 36.6606 21.3395L14.329 8.60055C12.7268 7.67998 11.4272 8.44856 11.4272 10.2868V10.4532C11.4272 8.61202 12.7268 7.85778 14.329 8.76689Z" fill="white"/>
  </g>
  <defs>
    <linearGradient id="paint0_linear_19240_33840" x1="24.9661" y1="10.0125" x2="2.22551" y2="16.0468" gradientUnits="userSpaceOnUse">
      <stop stop-color="#00A0FF"/>
      <stop offset="0.00657" stop-color="#00A1FF"/>
      <stop offset="0.2601" stop-color="#00BEFF"/>
      <stop offset="0.5122" stop-color="#00D2FF"/>
      <stop offset="0.7604" stop-color="#00DFFF"/>
      <stop offset="1" stop-color="#00E3FF"/>
    </linearGradient>
    <linearGradient id="paint1_linear_19240_33840" x1="38.7493" y1="23.0002" x2="11.037" y2="23.0002" gradientUnits="userSpaceOnUse">
      <stop stop-color="#FFE000"/>
      <stop offset="0.4087" stop-color="#FFBD00"/>
      <stop offset="0.7754" stop-color="#FFA500"/>
      <stop offset="1" stop-color="#FF9C00"/>
    </linearGradient>
    <linearGradient id="paint2_linear_19240_33840" x1="28.4337" y1="25.6419" x2="10.0765" y2="56.4119" gradientUnits="userSpaceOnUse">
      <stop stop-color="#FF3A44"/>
      <stop offset="1" stop-color="#C31162"/>
    </linearGradient>
    <linearGradient id="paint3_linear_19240_33840" x1="8.35497" y1="0.205657" x2="16.5449" y2="13.948" gradientUnits="userSpaceOnUse">
      <stop stop-color="#32A071"/>
      <stop offset="0.0685" stop-color="#2DA771"/>
      <stop offset="0.4762" stop-color="#15CF74"/>
      <stop offset="0.8009" stop-color="#06E775"/>
      <stop offset="1" stop-color="#00F076"/>
    </linearGradient>
    <clipPath id="clip0_19240_33840">
      <rect width="155.25" height="46" fill="white"/>
    </clipPath>
  </defs>
</svg>