<svg width="300" height="267" viewBox="0 0 300 267" fill="none" xmlns="http://www.w3.org/2000/svg">
<g clip-path="url(#clip0_44189_19638)">
<path d="M182.4 41.3784C181.06 43.4298 180.117 45.7158 179.622 48.1166L175.86 48.4709V55.7617L179.622 56.116C180.117 58.5187 181.06 60.8067 182.4 62.8603L180 65.761L185.148 70.9137L188.052 68.5115C190.1 69.857 192.385 70.8006 194.784 71.2921L195.138 75.0576H202.422L202.776 71.2921C205.176 70.7995 207.46 69.856 209.508 68.5115L212.412 70.9137L217.56 65.761L215.16 62.8603C216.501 60.8067 217.444 58.5187 217.938 56.116L221.7 55.7617V48.4709L217.938 48.1166C217.444 45.7158 216.501 43.4298 215.16 41.3784L217.56 38.4717L212.4 33.3189L209.496 35.7211C207.458 34.3832 205.186 33.4401 202.8 32.9405L202.446 29.175H195.132L194.778 32.9405C192.379 33.4348 190.095 34.3782 188.046 35.7211L185.142 33.3189L180 38.4717L182.4 41.3784ZM207.144 43.7806C208.798 45.4362 209.924 47.5454 210.379 49.8414C210.835 52.1374 210.601 54.5172 209.706 56.6798C208.81 58.8424 207.295 60.6908 205.35 61.9913C203.405 63.2917 201.119 63.9858 198.78 63.9858C196.442 63.9858 194.155 63.2917 192.211 61.9913C190.266 60.6908 188.75 58.8424 187.855 56.6798C186.96 54.5172 186.725 52.1374 187.181 49.8414C187.637 47.5454 188.763 45.4362 190.416 43.7806C192.631 41.559 195.636 40.308 198.771 40.3023C201.907 40.2967 204.916 41.5369 207.138 43.7506L207.144 43.7806Z" fill="#F0F0F0"/>
<path d="M161.928 0H110.508C108.871 0 107.544 1.32826 107.544 2.96675V42.3513C107.544 43.9897 108.871 45.318 110.508 45.318H161.928C163.565 45.318 164.892 43.9897 164.892 42.3513V2.96675C164.892 1.32826 163.565 0 161.928 0Z" fill="#E6E6E6"/>
<path d="M110.316 0H162.162C162.52 0 162.875 0.0706791 163.207 0.208002C163.538 0.345324 163.839 0.546601 164.092 0.80034C164.346 1.05408 164.547 1.35531 164.684 1.68684C164.821 2.01836 164.892 2.37369 164.892 2.73253V7.90333H107.544V2.78058C107.544 2.04416 107.836 1.33782 108.355 0.816532C108.875 0.295245 109.58 0.00159053 110.316 0Z" fill="#E0E0E0"/>
<path opacity="0.5" d="M161.85 4.5282C161.851 4.87079 161.75 5.20601 161.561 5.49136C161.371 5.77672 161.102 5.99933 160.786 6.13099C160.47 6.26264 160.122 6.2974 159.786 6.23085C159.45 6.16431 159.142 5.99946 158.9 5.75721C158.658 5.51496 158.493 5.20622 158.426 4.87015C158.36 4.53408 158.395 4.18582 158.526 3.86953C158.658 3.55324 158.88 3.28318 159.165 3.09359C159.45 2.90399 159.785 2.80341 160.128 2.8046C160.584 2.8046 161.022 2.98619 161.345 3.30943C161.668 3.63267 161.85 4.07107 161.85 4.5282Z" fill="#FAFAFA"/>
<path opacity="0.5" d="M156.954 4.5282C156.955 4.87053 156.855 5.20552 156.666 5.49074C156.477 5.77596 156.207 5.99859 155.891 6.13042C155.576 6.26225 155.228 6.29736 154.893 6.2313C154.557 6.16524 154.249 6.00099 154.006 5.75934C153.764 5.51769 153.599 5.20952 153.532 4.87384C153.465 4.53817 153.498 4.1901 153.629 3.87371C153.76 3.55731 153.981 3.28683 154.265 3.09651C154.55 2.90619 154.884 2.8046 155.226 2.8046C155.453 2.80381 155.677 2.84781 155.887 2.93407C156.096 3.02034 156.287 3.14717 156.448 3.3073C156.608 3.46743 156.735 3.6577 156.822 3.86721C156.909 4.07672 156.954 4.30134 156.954 4.5282Z" fill="#FAFAFA"/>
<path opacity="0.5" d="M150.33 6.2518C151.281 6.2518 152.052 5.48011 152.052 4.5282C152.052 3.57628 151.281 2.8046 150.33 2.8046C149.379 2.8046 148.608 3.57628 148.608 4.5282C148.608 5.48011 149.379 6.2518 150.33 6.2518Z" fill="#FAFAFA"/>
<path opacity="0.6" d="M151.392 14.5095H120.708V16.1189H151.392V14.5095Z" fill="white"/>
<path d="M143.136 17.9867H121.182V19.5962H143.136V17.9867Z" fill="#E0E0E0"/>
<path d="M159.714 14.5095H154.104V16.1189H159.714V14.5095Z" fill="#F0F0F0"/>
<path d="M118.578 14.5095H112.542V16.1189H118.578V14.5095Z" fill="#F0F0F0"/>
<path d="M151.392 21.8543H120.708V23.4638H151.392V21.8543Z" fill="#F0F0F0"/>
<path opacity="0.6" d="M159.714 21.8543H154.104V23.4638H159.714V21.8543Z" fill="white"/>
<path d="M118.578 21.8543H112.542V23.4638H118.578V21.8543Z" fill="#F0F0F0"/>
<path opacity="0.6" d="M151.392 37.1685H120.708V38.7779H151.392V37.1685Z" fill="white"/>
<path opacity="0.6" d="M159.714 37.1685H154.104V38.7779H159.714V37.1685Z" fill="white"/>
<path d="M151.392 25.7278H120.708V27.3373H151.392V25.7278Z" fill="#F0F0F0"/>
<path d="M159.714 25.7278H154.104V27.3373H159.714V25.7278Z" fill="#E0E0E0"/>
<path d="M118.578 25.7278H112.542V27.3373H118.578V25.7278Z" fill="#E0E0E0"/>
<path d="M160.128 18.0527H145.542V19.6622H160.128V18.0527Z" fill="#F0F0F0"/>
<path opacity="0.6" d="M142.662 29.103H120.708V30.7125H142.662V29.103Z" fill="white"/>
<path d="M159.648 29.169H145.062V30.7785H159.648V29.169Z" fill="#F0F0F0"/>
<path d="M131.688 32.6042H120.708V34.2137H131.688V32.6042Z" fill="#E0E0E0"/>
<path d="M240.18 31.8475L233.682 34.8863L240.18 37.9252V40.3754L231.498 36.1715V33.6132L240.18 29.4093V31.8475Z" fill="#E0E0E0"/>
<path d="M259.962 33.6132V36.1595L251.274 40.3634V37.9252L257.772 34.8863L251.274 31.8475V29.4033L259.962 33.6132Z" fill="#E0E0E0"/>
<path d="M247.248 27.6917L243.012 42.3453H245.13L249.366 27.6917H247.248Z" fill="#E0E0E0"/>
<path d="M22.4158 110.268C21.6297 111.467 21.0779 112.804 20.7898 114.208L18.5938 114.412V118.67L20.7898 118.88C21.0779 120.283 21.6297 121.618 22.4158 122.814L20.9997 124.513L23.9997 127.516L25.6917 126.111C26.8904 126.895 28.2255 127.447 29.6278 127.738L29.8317 129.936H34.0857L34.2957 127.738C35.6964 127.448 37.0298 126.896 38.2257 126.111L39.9237 127.516L42.9237 124.513L41.5197 122.814C42.3248 121.622 42.895 120.287 43.1997 118.88L45.3958 118.67V114.412L43.1997 114.208C42.9116 112.804 42.3598 111.467 41.5737 110.268L42.9478 108.563L39.9478 105.56L38.2498 106.959C37.0535 106.176 35.7201 105.626 34.3197 105.338L34.1037 103.158H29.8497L29.6457 105.356C28.2437 105.644 26.9084 106.194 25.7097 106.977L23.9997 105.56L20.9997 108.563L22.4158 110.268ZM36.8637 111.656C37.8294 112.622 38.4869 113.854 38.7532 115.195C39.0195 116.536 38.8826 117.925 38.3599 119.188C37.8371 120.451 36.9519 121.531 35.8163 122.29C34.6807 123.05 33.3455 123.455 31.9797 123.455C30.614 123.455 29.2788 123.05 28.1432 122.29C27.0076 121.531 26.1224 120.451 25.5996 119.188C25.0769 117.925 24.94 116.536 25.2063 115.195C25.4726 113.854 26.1301 112.622 27.0957 111.656C28.3917 110.36 30.1483 109.633 31.9797 109.633C33.8112 109.633 35.5678 110.36 36.8637 111.656Z" fill="#E0E0E0"/>
<path d="M263.466 60.7103C262.814 61.7041 262.356 62.8127 262.116 63.9773L260.316 64.1515V67.6827L262.116 67.8569C262.356 69.0215 262.814 70.1301 263.466 71.1239L262.302 72.5292L264.798 75.0276L266.208 73.8625C267.202 74.5135 268.309 74.97 269.472 75.2077L269.64 77.0094H273.174L273.348 75.2077C274.511 74.9678 275.618 74.5115 276.612 73.8625L278.016 75.0276L280.518 72.5292L279.354 71.1179C280.002 70.1225 280.458 69.0144 280.698 67.8509L282.498 67.6767V64.1455L280.698 63.9713C280.459 62.8067 280.001 61.6981 279.348 60.7043L280.518 59.293L278.016 56.7946L276.6 57.9657C275.606 57.3167 274.499 56.8604 273.336 56.6205L273.162 54.8188H269.64L269.472 56.6205C268.309 56.8582 267.202 57.3147 266.208 57.9657L264.798 56.8007L262.302 59.317L263.466 60.7103ZM275.466 61.8573C276.269 62.6603 276.815 63.6833 277.036 64.797C277.258 65.9107 277.144 67.0651 276.71 68.1142C276.276 69.1633 275.54 70.0599 274.597 70.6908C273.654 71.3216 272.545 71.6584 271.41 71.6584C270.276 71.6584 269.167 71.3216 268.224 70.6908C267.28 70.0599 266.545 69.1633 266.111 68.1142C265.677 67.0651 265.563 65.9107 265.785 64.797C266.006 63.6833 266.552 62.6603 267.354 61.8573C268.431 60.7821 269.89 60.1782 271.41 60.1782C272.931 60.1782 274.39 60.7821 275.466 61.8573Z" fill="#E0E0E0"/>
<path d="M282.366 235.562H261.456V235.719H282.366V235.562Z" fill="#EBEBEB"/>
<path d="M207.45 237.28H201.96V237.436H207.45V237.28Z" fill="#EBEBEB"/>
<path d="M260.82 229.695H248.706V229.851H260.82V229.695Z" fill="#EBEBEB"/>
<path d="M58.7396 230.758H31.4756V230.914H58.7396V230.758Z" fill="#EBEBEB"/>
<path d="M68.3583 230.758H64.3623V230.914H68.3583V230.758Z" fill="#EBEBEB"/>
<path d="M140.49 233.424H81.3535V233.581H140.49V233.424Z" fill="#EBEBEB"/>
<path d="M266.352 189.121H157.902C156.97 189.12 156.076 188.748 155.417 188.089C154.758 187.429 154.387 186.535 154.386 185.602V27.4875C154.387 26.5546 154.758 25.6604 155.417 25.0007C156.076 24.3411 156.97 23.9698 157.902 23.9682H266.352C267.284 23.9698 268.177 24.3411 268.836 25.0007C269.495 25.6604 269.866 26.5546 269.868 27.4875V185.602C269.866 186.535 269.495 187.429 268.836 188.089C268.177 188.748 267.284 189.12 266.352 189.121ZM157.902 24.1244C157.01 24.1244 156.155 24.4785 155.524 25.109C154.893 25.7396 154.537 26.595 154.536 27.4875V185.602C154.536 186.496 154.89 187.353 155.522 187.984C156.153 188.616 157.009 188.971 157.902 188.971H266.352C267.244 188.971 268.101 188.616 268.732 187.984C269.363 187.353 269.718 186.496 269.718 185.602V27.4875C269.718 26.5939 269.363 25.737 268.732 25.1052C268.101 24.4733 267.244 24.1184 266.352 24.1184L157.902 24.1244Z" fill="#E0E0E0"/>
<path d="M141.294 189.121H32.8501C31.9171 189.121 31.0221 188.751 30.3618 188.091C29.7015 187.431 29.3297 186.536 29.3281 185.602V27.4875C29.3297 26.5536 29.7015 25.6584 30.3618 24.9986C31.0221 24.3388 31.9171 23.9682 32.8501 23.9682H141.294C142.227 23.9682 143.121 24.339 143.78 24.999C144.44 25.659 144.81 26.5541 144.81 27.4875V185.602C144.81 186.535 144.44 187.431 143.78 188.091C143.121 188.751 142.227 189.121 141.294 189.121ZM32.8501 24.1244C31.9579 24.1244 31.102 24.4783 30.47 25.1087C29.838 25.739 29.4813 26.5944 29.4781 27.4875V185.602C29.4797 186.496 29.8357 187.353 30.4679 187.985C31.1001 188.616 31.9569 188.971 32.8501 188.971H141.294C141.736 188.971 142.174 188.884 142.582 188.715C142.991 188.545 143.362 188.297 143.674 187.984C143.987 187.672 144.235 187.3 144.404 186.891C144.573 186.483 144.66 186.045 144.66 185.602V27.4875C144.66 27.045 144.573 26.6069 144.404 26.1982C144.235 25.7894 143.987 25.418 143.674 25.1052C143.362 24.7923 142.991 24.5441 142.582 24.3748C142.174 24.2055 141.736 24.1184 141.294 24.1184L32.8501 24.1244Z" fill="#E0E0E0"/>
<path d="M300 225.797H0V225.947H300V225.797Z" fill="#E0E0E0"/>
<path d="M273.036 248.186C273.036 250.216 216.924 251.867 147.708 251.867C78.4917 251.867 22.3857 250.216 22.3857 248.186C22.3857 246.156 78.4917 244.499 147.708 244.499C216.924 244.499 273.036 246.15 273.036 248.186Z" fill="#F5F5F5"/>
<path d="M56.7061 52.1163H70.8841V191.764H55.6321C54.4693 191.762 53.3547 191.299 52.5325 190.476C51.7103 189.653 51.2477 188.538 51.2461 187.374V57.5874C51.2461 56.1374 51.8211 54.7467 52.8449 53.7209C53.8687 52.695 55.2575 52.1179 56.7061 52.1163Z" fill="#263238"/>
<path d="M129.372 189.356L123.132 221.359H132.186L139.41 189.62L129.372 189.356Z" fill="#263238"/>
<path d="M120.103 220.975H115.519V225.563H120.103V220.975Z" fill="#263238"/>
<path opacity="0.5" d="M56.7061 52.1163H70.8841V191.764H55.6321C54.4693 191.762 53.3547 191.299 52.5325 190.476C51.7103 189.653 51.2477 188.538 51.2461 187.374V57.5874C51.2461 56.1374 51.8211 54.7467 52.8449 53.7209C53.8687 52.695 55.2575 52.1179 56.7061 52.1163Z" fill="white"/>
<path opacity="0.5" d="M129.372 189.356L123.132 221.359H132.186L139.41 189.62L129.372 189.356Z" fill="white"/>
<path opacity="0.5" d="M120.103 220.975H115.519V225.563H120.103V220.975Z" fill="white"/>
<path d="M186.228 225.569H128.076L136.338 177.068H175.038L186.228 225.569Z" fill="#263238"/>
<path opacity="0.7" d="M186.228 225.569H128.076L136.338 177.068H175.038L186.228 225.569Z" fill="white"/>
<path opacity="0.1" d="M178.411 191.764H133.813L132.187 201.319L179.707 197.391L178.411 191.764Z" fill="black"/>
<path d="M194.196 220.975H118.818V225.563H194.196V220.975Z" fill="#263238"/>
<g opacity="0.7">
<path d="M194.196 220.975H118.818V225.563H194.196V220.975Z" fill="white"/>
</g>
<path d="M60.7377 52.1103H249.282C250.567 52.1277 251.793 52.6535 252.693 53.5728C253.592 54.4921 254.091 55.7302 254.082 57.0169V186.857C254.091 188.144 253.592 189.382 252.693 190.301C251.793 191.221 250.567 191.746 249.282 191.764H60.7377C59.4524 191.746 58.2261 191.221 57.3268 190.301C56.4274 189.382 55.9281 188.144 55.9377 186.857V57.0229C55.9265 55.7352 56.4251 54.4955 57.3247 53.5749C58.2242 52.6543 59.4513 52.1277 60.7377 52.1103Z" fill="#263238"/>
<g opacity="0.7">
<path d="M60.7377 52.1103H249.282C250.567 52.1277 251.793 52.6535 252.693 53.5728C253.592 54.4921 254.091 55.7302 254.082 57.0169V186.857C254.091 188.144 253.592 189.382 252.693 190.301C251.793 191.221 250.567 191.746 249.282 191.764H60.7377C59.4524 191.746 58.2261 191.221 57.3268 190.301C56.4274 189.382 55.9281 188.144 55.9377 186.857V57.0229C55.9265 55.7352 56.4251 54.4955 57.3247 53.5749C58.2242 52.6543 59.4513 52.1277 60.7377 52.1103Z" fill="white"/>
</g>
<path d="M248.838 56.9208H60.3301V182.113H248.838V56.9208Z" fill="#407BFF"/>
<path opacity="0.9" d="M248.838 56.9208H60.3301V182.113H248.838V56.9208Z" fill="white"/>
<path d="M248.838 56.9208H60.3301V66.9681H248.838V56.9208Z" fill="#407BFF"/>
<path opacity="0.5" d="M246.33 61.9474C246.331 62.3705 246.207 62.7845 245.973 63.1369C245.739 63.4892 245.405 63.7642 245.015 63.9269C244.625 64.0897 244.195 64.1329 243.781 64.0511C243.366 63.9692 242.985 63.7661 242.685 63.4673C242.386 63.1686 242.182 62.7876 242.099 62.3727C242.016 61.9579 242.058 61.5277 242.22 61.1367C242.381 60.7456 242.655 60.4114 243.006 60.1762C243.358 59.941 243.771 59.8155 244.194 59.8154C244.759 59.8154 245.301 60.0399 245.702 60.4395C246.102 60.8392 246.328 61.3814 246.33 61.9474Z" fill="white"/>
<path opacity="0.5" d="M240.264 61.9474C240.265 62.3708 240.141 62.785 239.907 63.1375C239.672 63.49 239.339 63.7649 238.948 63.9275C238.558 64.0901 238.128 64.1329 237.713 64.0506C237.298 63.9683 236.917 63.7646 236.618 63.4652C236.319 63.1658 236.115 62.7843 236.033 62.3691C235.951 61.9538 235.994 61.5234 236.156 61.1325C236.318 60.7416 236.593 60.4077 236.945 60.1733C237.297 59.9388 237.711 59.8143 238.134 59.8154C238.699 59.817 239.239 60.0422 239.639 60.4416C240.038 60.8411 240.263 61.3825 240.264 61.9474Z" fill="white"/>
<path opacity="0.5" d="M234.204 61.9474C234.205 62.3705 234.081 62.7845 233.847 63.1369C233.613 63.4892 233.279 63.7642 232.889 63.9269C232.499 64.0897 232.069 64.1329 231.655 64.0511C231.24 63.9692 230.859 63.7661 230.559 63.4673C230.26 63.1686 230.056 62.7876 229.973 62.3727C229.89 61.9579 229.932 61.5277 230.094 61.1367C230.255 60.7456 230.529 60.4114 230.88 60.1762C231.232 59.941 231.645 59.8155 232.068 59.8154C232.633 59.8154 233.175 60.0399 233.576 60.4395C233.976 60.8392 234.202 61.3814 234.204 61.9474Z" fill="white"/>
<path d="M95.2798 140.284C94.6786 141.208 94.2553 142.237 94.0318 143.317L92.3398 143.473V146.752L94.0318 146.914C94.2593 147.984 94.6824 149.002 95.2798 149.917L94.1998 151.226L96.5158 153.544L97.8238 152.463C98.7378 153.062 99.7551 153.486 100.824 153.712L100.986 155.406H104.262L104.418 153.712C105.497 153.489 106.524 153.065 107.448 152.463L108.75 153.544L111.066 151.226L109.986 149.917C110.589 149.004 111.014 147.985 111.24 146.914L112.926 146.752V143.473L111.24 143.317C111.017 142.236 110.591 141.207 109.986 140.284L111.066 138.981L108.75 136.663L107.448 137.744C106.526 137.138 105.498 136.712 104.418 136.489L104.262 134.801H100.986L100.824 136.489C99.754 136.715 98.7362 137.14 97.8238 137.744L96.5158 136.663L94.1998 138.981L95.2798 140.284ZM105.66 142.086C106.259 142.681 106.668 143.44 106.835 144.268C107.003 145.096 106.92 145.956 106.599 146.737C106.277 147.518 105.731 148.186 105.03 148.656C104.329 149.126 103.504 149.377 102.66 149.377C101.816 149.377 100.991 149.126 100.29 148.656C99.5882 148.186 99.0422 147.518 98.7208 146.737C98.3994 145.956 98.3171 145.096 98.4843 144.268C98.6514 143.44 99.0606 142.681 99.6599 142.086C100.459 141.295 101.538 140.853 102.662 140.855C103.786 140.857 104.864 141.304 105.66 142.098V142.086Z" fill="#407BFF"/>
<path opacity="0.4" d="M95.2798 140.284C94.6786 141.208 94.2553 142.237 94.0318 143.317L92.3398 143.473V146.752L94.0318 146.914C94.2593 147.984 94.6824 149.002 95.2798 149.917L94.1998 151.226L96.5158 153.544L97.8238 152.463C98.7378 153.062 99.7551 153.486 100.824 153.712L100.986 155.406H104.262L104.418 153.712C105.497 153.489 106.524 153.065 107.448 152.463L108.75 153.544L111.066 151.226L109.986 149.917C110.589 149.004 111.014 147.985 111.24 146.914L112.926 146.752V143.473L111.24 143.317C111.017 142.236 110.591 141.207 109.986 140.284L111.066 138.981L108.75 136.663L107.448 137.744C106.526 137.138 105.498 136.712 104.418 136.489L104.262 134.801H100.986L100.824 136.489C99.754 136.715 98.7362 137.14 97.8238 137.744L96.5158 136.663L94.1998 138.981L95.2798 140.284ZM105.66 142.086C106.259 142.681 106.668 143.44 106.835 144.268C107.003 145.096 106.92 145.956 106.599 146.737C106.277 147.518 105.731 148.186 105.03 148.656C104.329 149.126 103.504 149.377 102.66 149.377C101.816 149.377 100.991 149.126 100.29 148.656C99.5882 148.186 99.0422 147.518 98.7208 146.737C98.3994 145.956 98.3171 145.096 98.4843 144.268C98.6514 143.44 99.0606 142.681 99.6599 142.086C100.459 141.295 101.538 140.853 102.662 140.855C103.786 140.857 104.864 141.304 105.66 142.098V142.086Z" fill="white"/>
<path d="M191.953 100.155C191.393 101.011 191.001 101.964 190.795 102.965L189.229 103.11V106.16L190.795 106.305C191.001 107.306 191.393 108.259 191.953 109.115L190.951 110.316L193.099 112.466L194.299 111.463C195.153 112.023 196.106 112.416 197.107 112.622L197.251 114.19H200.287L200.431 112.622C201.431 112.416 202.384 112.023 203.239 111.463L204.439 112.466L206.587 110.316L205.585 109.115C206.144 108.259 206.536 107.306 206.743 106.305L208.309 106.16V103.158L206.743 103.013C206.536 102.012 206.144 101.059 205.585 100.203L206.587 99.0018L204.439 96.8518L203.239 97.8547C202.384 97.2951 201.431 96.9019 200.431 96.6956L200.287 95.1282H197.251L197.107 96.6956C196.106 96.9019 195.153 97.2951 194.299 97.8547L193.099 96.8518L190.951 98.9537L191.953 100.155ZM201.553 101.836C202.105 102.389 202.482 103.093 202.634 103.86C202.787 104.626 202.709 105.421 202.41 106.143C202.112 106.866 201.606 107.483 200.956 107.918C200.307 108.352 199.544 108.584 198.763 108.584C197.981 108.584 197.218 108.352 196.569 107.918C195.919 107.483 195.413 106.866 195.115 106.143C194.816 105.421 194.738 104.626 194.891 103.86C195.043 103.093 195.42 102.389 195.973 101.836C196.34 101.469 196.777 101.177 197.257 100.979C197.738 100.781 198.253 100.679 198.772 100.681C199.292 100.683 199.806 100.787 200.285 100.989C200.765 101.19 201.199 101.484 201.565 101.854L201.553 101.836Z" fill="#407BFF"/>
<path opacity="0.4" d="M191.953 100.155C191.393 101.011 191.001 101.964 190.795 102.965L189.229 103.11V106.16L190.795 106.305C191.001 107.306 191.393 108.259 191.953 109.115L190.951 110.316L193.099 112.466L194.299 111.463C195.153 112.023 196.106 112.416 197.107 112.622L197.251 114.19H200.287L200.431 112.622C201.431 112.416 202.384 112.023 203.239 111.463L204.439 112.466L206.587 110.316L205.585 109.115C206.144 108.259 206.536 107.306 206.743 106.305L208.309 106.16V103.158L206.743 103.013C206.536 102.012 206.144 101.059 205.585 100.203L206.587 99.0018L204.439 96.8518L203.239 97.8547C202.384 97.2951 201.431 96.9019 200.431 96.6956L200.287 95.1282H197.251L197.107 96.6956C196.106 96.9019 195.153 97.2951 194.299 97.8547L193.099 96.8518L190.951 98.9537L191.953 100.155ZM201.553 101.836C202.105 102.389 202.482 103.093 202.634 103.86C202.787 104.626 202.709 105.421 202.41 106.143C202.112 106.866 201.606 107.483 200.956 107.918C200.307 108.352 199.544 108.584 198.763 108.584C197.981 108.584 197.218 108.352 196.569 107.918C195.919 107.483 195.413 106.866 195.115 106.143C194.816 105.421 194.738 104.626 194.891 103.86C195.043 103.093 195.42 102.389 195.973 101.836C196.34 101.469 196.777 101.177 197.257 100.979C197.738 100.781 198.253 100.679 198.772 100.681C199.292 100.683 199.806 100.787 200.285 100.989C200.765 101.19 201.199 101.484 201.565 101.854L201.553 101.836Z" fill="white"/>
<path d="M188.196 83.3693C187.84 83.9189 187.588 84.5297 187.452 85.171L186.438 85.261V87.2249L187.452 87.321C187.586 87.9627 187.838 88.5738 188.196 89.1226L187.548 89.9033L188.934 91.2906L189.72 90.642C190.267 91.0049 190.878 91.2597 191.52 91.3927L191.616 92.4077H193.572L193.668 91.3927C194.311 91.2597 194.922 91.0049 195.468 90.642L196.248 91.2906L197.634 89.9033L196.992 89.1226C197.351 88.5738 197.603 87.9627 197.736 87.321L198.75 87.2249V85.261L197.736 85.1649C197.601 84.5238 197.349 83.9131 196.992 83.3633L197.634 82.5826L196.248 81.1953L195.468 81.8439C194.921 81.4834 194.31 81.2288 193.668 81.0932L193.572 80.0842H191.616L191.52 81.0932C190.879 81.2288 190.268 81.4834 189.72 81.8439L188.934 81.1953L187.548 82.5826L188.196 83.3693ZM194.4 84.4563C194.758 84.8129 195.002 85.2677 195.101 85.763C195.2 86.2584 195.15 86.772 194.957 87.2389C194.764 87.7058 194.438 88.105 194.018 88.3858C193.599 88.6667 193.105 88.8166 192.6 88.8166C192.096 88.8166 191.602 88.6667 191.183 88.3858C190.763 88.105 190.436 87.7058 190.244 87.2389C190.051 86.772 190.001 86.2584 190.1 85.763C190.199 85.2677 190.443 84.8129 190.8 84.4563C191.278 83.9795 191.926 83.7118 192.6 83.7118C193.275 83.7118 193.923 83.9795 194.4 84.4563Z" fill="#407BFF"/>
<path opacity="0.7" d="M188.196 83.3693C187.84 83.9189 187.588 84.5297 187.452 85.171L186.438 85.261V87.2249L187.452 87.321C187.586 87.9627 187.838 88.5738 188.196 89.1226L187.548 89.9033L188.934 91.2906L189.72 90.642C190.267 91.0049 190.878 91.2597 191.52 91.3927L191.616 92.4077H193.572L193.668 91.3927C194.311 91.2597 194.922 91.0049 195.468 90.642L196.248 91.2906L197.634 89.9033L196.992 89.1226C197.351 88.5738 197.603 87.9627 197.736 87.321L198.75 87.2249V85.261L197.736 85.1649C197.601 84.5238 197.349 83.9131 196.992 83.3633L197.634 82.5826L196.248 81.1953L195.468 81.8439C194.921 81.4834 194.31 81.2288 193.668 81.0932L193.572 80.0842H191.616L191.52 81.0932C190.879 81.2288 190.268 81.4834 189.72 81.8439L188.934 81.1953L187.548 82.5826L188.196 83.3693ZM194.4 84.4563C194.758 84.8129 195.002 85.2677 195.101 85.763C195.2 86.2584 195.15 86.772 194.957 87.2389C194.764 87.7058 194.438 88.105 194.018 88.3858C193.599 88.6667 193.105 88.8166 192.6 88.8166C192.096 88.8166 191.602 88.6667 191.183 88.3858C190.763 88.105 190.436 87.7058 190.244 87.2389C190.051 86.772 190.001 86.2584 190.1 85.763C190.199 85.2677 190.443 84.8129 190.8 84.4563C191.278 83.9795 191.926 83.7118 192.6 83.7118C193.275 83.7118 193.923 83.9795 194.4 84.4563Z" fill="white"/>
<path d="M106.2 159.952C105.844 160.502 105.592 161.113 105.456 161.754L104.442 161.85V163.814L105.456 163.91C105.591 164.551 105.843 165.162 106.2 165.712L105.558 166.492L106.944 167.88L107.724 167.231C108.271 167.594 108.882 167.849 109.524 167.982L109.62 168.997H111.6L111.696 167.982C112.339 167.849 112.95 167.594 113.496 167.231L114.282 167.88L115.668 166.492L115.02 165.712C115.38 165.164 115.632 164.552 115.764 163.91L116.778 163.814V161.85L115.764 161.754C115.632 161.112 115.379 160.501 115.02 159.952L115.668 159.172L114.282 157.808L113.496 158.409C112.948 158.048 112.338 157.794 111.696 157.658L111.6 156.649H109.644L109.548 157.658C108.907 157.794 108.296 158.048 107.748 158.409L106.968 157.76L105.582 159.148L106.2 159.952ZM112.416 161.039C112.774 161.396 113.018 161.851 113.117 162.346C113.216 162.841 113.166 163.355 112.973 163.822C112.78 164.289 112.454 164.688 112.034 164.969C111.614 165.25 111.121 165.4 110.616 165.4C110.112 165.4 109.618 165.25 109.199 164.969C108.779 164.688 108.452 164.289 108.26 163.822C108.067 163.355 108.017 162.841 108.116 162.346C108.215 161.851 108.459 161.396 108.816 161.039C109.294 160.563 109.942 160.295 110.616 160.295C111.291 160.295 111.938 160.563 112.416 161.039Z" fill="#407BFF"/>
<path opacity="0.7" d="M106.2 159.952C105.844 160.502 105.592 161.113 105.456 161.754L104.442 161.85V163.814L105.456 163.91C105.591 164.551 105.843 165.162 106.2 165.712L105.558 166.492L106.944 167.88L107.724 167.231C108.271 167.594 108.882 167.849 109.524 167.982L109.62 168.997H111.6L111.696 167.982C112.339 167.849 112.95 167.594 113.496 167.231L114.282 167.88L115.668 166.492L115.02 165.712C115.38 165.164 115.632 164.552 115.764 163.91L116.778 163.814V161.85L115.764 161.754C115.632 161.112 115.379 160.501 115.02 159.952L115.668 159.172L114.282 157.808L113.496 158.409C112.948 158.048 112.338 157.794 111.696 157.658L111.6 156.649H109.644L109.548 157.658C108.907 157.794 108.296 158.048 107.748 158.409L106.968 157.76L105.582 159.148L106.2 159.952ZM112.416 161.039C112.774 161.396 113.018 161.851 113.117 162.346C113.216 162.841 113.166 163.355 112.973 163.822C112.78 164.289 112.454 164.688 112.034 164.969C111.614 165.25 111.121 165.4 110.616 165.4C110.112 165.4 109.618 165.25 109.199 164.969C108.779 164.688 108.452 164.289 108.26 163.822C108.067 163.355 108.017 162.841 108.116 162.346C108.215 161.851 108.459 161.396 108.816 161.039C109.294 160.563 109.942 160.295 110.616 160.295C111.291 160.295 111.938 160.563 112.416 161.039Z" fill="white"/>
<path d="M119.7 103.332C117.093 107.317 115.261 111.759 114.3 116.424L106.992 117.115V131.276L114.3 131.984C115.262 136.651 117.094 141.095 119.7 145.082L115.032 150.722L125.04 160.739L130.674 156.067C134.658 158.675 139.098 160.509 143.76 161.472L144.45 168.786H158.598L159.288 161.472C163.949 160.51 168.387 158.676 172.368 156.067L178.008 160.739L188.016 150.722L183.348 145.082C185.955 141.095 187.787 136.652 188.748 131.984L196.05 131.294V117.115L188.748 116.424C187.786 111.759 185.954 107.317 183.348 103.332L188.016 97.6866L178.008 87.6753L172.368 92.3416C168.386 89.733 163.949 87.8993 159.288 86.9366L158.598 79.6218H144.45L143.76 86.9426C139.098 87.9053 134.658 89.739 130.674 92.3476L125.04 87.6753L115.032 97.6926L119.7 103.332ZM167.772 107.962C170.986 111.179 173.175 115.277 174.062 119.739C174.949 124.201 174.494 128.826 172.755 133.029C171.016 137.232 168.071 140.825 164.292 143.352C160.512 145.88 156.069 147.229 151.524 147.229C146.979 147.229 142.536 145.88 138.757 143.352C134.978 140.825 132.032 137.232 130.293 133.029C128.554 128.826 128.099 124.201 128.986 119.739C129.873 115.277 132.062 111.179 135.276 107.962C139.586 103.651 145.431 101.229 151.524 101.229C157.618 101.229 163.462 103.651 167.772 107.962Z" fill="#407BFF"/>
<path d="M130.674 127.108C130.599 127.108 130.527 127.081 130.471 127.031C130.416 126.981 130.381 126.912 130.374 126.838C130.033 123.816 130.314 120.756 131.198 117.847C132.082 114.938 133.552 112.24 135.516 109.92C135.541 109.89 135.573 109.865 135.608 109.847C135.643 109.83 135.681 109.819 135.72 109.816C135.76 109.813 135.799 109.817 135.837 109.83C135.874 109.842 135.909 109.861 135.939 109.887C135.969 109.913 135.993 109.944 136.011 109.979C136.029 110.014 136.04 110.052 136.043 110.092C136.046 110.131 136.041 110.171 136.029 110.208C136.017 110.246 135.997 110.28 135.972 110.31C134.06 112.568 132.63 115.194 131.771 118.026C130.911 120.858 130.64 123.837 130.974 126.778C130.98 126.857 130.956 126.936 130.906 126.997C130.855 127.059 130.783 127.099 130.704 127.108H130.674Z" fill="#407BFF"/>
<path d="M131.688 131.852C131.623 131.853 131.559 131.833 131.507 131.793C131.455 131.754 131.417 131.699 131.4 131.636C131.152 130.799 130.952 129.949 130.8 129.09C130.793 129.05 130.793 129.01 130.802 128.971C130.81 128.931 130.827 128.894 130.849 128.862C130.872 128.829 130.901 128.801 130.935 128.779C130.969 128.757 131.006 128.742 131.046 128.735C131.085 128.728 131.126 128.729 131.165 128.738C131.204 128.746 131.241 128.762 131.274 128.785C131.307 128.808 131.335 128.837 131.356 128.871C131.378 128.904 131.393 128.942 131.4 128.982C131.555 129.821 131.755 130.651 132 131.468C132.022 131.544 132.013 131.627 131.975 131.696C131.937 131.766 131.872 131.818 131.796 131.84C131.761 131.853 131.724 131.857 131.688 131.852Z" fill="#407BFF"/>
<path d="M76.998 92.8281V122.892H102.648" stroke="#407BFF" stroke-linecap="round" stroke-linejoin="round"/>
<path d="M76.9979 94.3655C77.8462 94.3655 78.5339 93.6772 78.5339 92.8281C78.5339 91.979 77.8462 91.2906 76.9979 91.2906C76.1496 91.2906 75.4619 91.979 75.4619 92.8281C75.4619 93.6772 76.1496 94.3655 76.9979 94.3655Z" fill="#407BFF"/>
<path d="M233.52 148.187C234.369 148.187 235.056 147.499 235.056 146.65C235.056 145.801 234.369 145.113 233.52 145.113C232.672 145.113 231.984 145.801 231.984 146.65C231.984 147.499 232.672 148.187 233.52 148.187Z" fill="#407BFF"/>
<path d="M233.52 146.428V158.349H195.948V141.888H190.32" stroke="#407BFF" stroke-miterlimit="10"/>
<path d="M281.328 162.847H215.994V225.569H281.328V162.847Z" fill="#407BFF"/>
<path opacity="0.4" d="M281.328 162.847H215.994V225.569H281.328V162.847Z" fill="white"/>
<path opacity="0.4" d="M281.322 162.847H236.79V225.569H281.322V162.847Z" fill="white"/>
<path d="M279.097 166.054H239.017V173.819H279.097V166.054Z" fill="#407BFF"/>
<path d="M279.097 175.765H239.017V183.53H279.097V175.765Z" fill="#407BFF"/>
<path d="M279.097 185.47H239.017V193.235H279.097V185.47Z" fill="#407BFF"/>
<path d="M279.097 195.181H239.017V202.946H279.097V195.181Z" fill="#407BFF"/>
<path d="M279.097 204.892H239.017V212.657H279.097V204.892Z" fill="#407BFF"/>
<path d="M279.097 214.603H239.017V222.368H279.097V214.603Z" fill="#407BFF"/>
<path d="M234.462 166.054H218.328V173.819H234.462V166.054Z" fill="#407BFF"/>
<path d="M234.462 175.765H218.328V183.53H234.462V175.765Z" fill="#407BFF"/>
<path d="M234.462 185.47H218.328V193.235H234.462V185.47Z" fill="#407BFF"/>
<path d="M234.462 195.181H218.328V202.946H234.462V195.181Z" fill="#407BFF"/>
<path d="M234.462 204.892H218.328V212.657H234.462V204.892Z" fill="#407BFF"/>
<path d="M234.462 214.603H218.328V222.368H234.462V214.603Z" fill="#407BFF"/>
<path opacity="0.3" d="M277.134 167.063H276.198V172.81H277.134V167.063Z" fill="white"/>
<path opacity="0.3" d="M275.334 167.063H274.398V172.81H275.334V167.063Z" fill="white"/>
<path opacity="0.3" d="M273.534 167.063H272.598V172.81H273.534V167.063Z" fill="white"/>
<path opacity="0.3" d="M271.734 167.063H270.798V172.81H271.734V167.063Z" fill="white"/>
<path opacity="0.3" d="M269.934 167.063H268.998V172.81H269.934V167.063Z" fill="white"/>
<path opacity="0.3" d="M277.134 176.774H276.198V182.515H277.134V176.774Z" fill="white"/>
<path opacity="0.3" d="M275.334 176.774H274.398V182.515H275.334V176.774Z" fill="white"/>
<path opacity="0.3" d="M273.534 176.774H272.598V182.515H273.534V176.774Z" fill="white"/>
<path opacity="0.3" d="M271.734 176.774H270.798V182.515H271.734V176.774Z" fill="white"/>
<path opacity="0.3" d="M269.934 176.774H268.998V182.515H269.934V176.774Z" fill="white"/>
<path opacity="0.3" d="M277.134 186.485H276.198V192.226H277.134V186.485Z" fill="white"/>
<path opacity="0.3" d="M275.334 186.485H274.398V192.226H275.334V186.485Z" fill="white"/>
<path opacity="0.3" d="M273.534 186.485H272.598V192.226H273.534V186.485Z" fill="white"/>
<path opacity="0.3" d="M271.734 186.485H270.798V192.226H271.734V186.485Z" fill="white"/>
<path opacity="0.3" d="M269.934 186.485H268.998V192.226H269.934V186.485Z" fill="white"/>
<path opacity="0.3" d="M277.134 196.196H276.198V201.943H277.134V196.196Z" fill="white"/>
<path opacity="0.3" d="M275.334 196.196H274.398V201.943H275.334V196.196Z" fill="white"/>
<path opacity="0.3" d="M273.534 196.196H272.598V201.943H273.534V196.196Z" fill="white"/>
<path opacity="0.3" d="M271.734 196.196H270.798V201.943H271.734V196.196Z" fill="white"/>
<path opacity="0.3" d="M269.934 196.196H268.998V201.943H269.934V196.196Z" fill="white"/>
<path opacity="0.3" d="M277.134 205.907H276.198V211.648H277.134V205.907Z" fill="white"/>
<path opacity="0.3" d="M275.334 205.907H274.398V211.648H275.334V205.907Z" fill="white"/>
<path opacity="0.3" d="M273.534 205.907H272.598V211.648H273.534V205.907Z" fill="white"/>
<path opacity="0.3" d="M271.734 205.907H270.798V211.648H271.734V205.907Z" fill="white"/>
<path opacity="0.3" d="M269.934 205.907H268.998V211.648H269.934V205.907Z" fill="white"/>
<path opacity="0.3" d="M277.134 215.612H276.198V221.359H277.134V215.612Z" fill="white"/>
<path opacity="0.3" d="M275.334 215.612H274.398V221.359H275.334V215.612Z" fill="white"/>
<path opacity="0.3" d="M273.534 215.612H272.598V221.359H273.534V215.612Z" fill="white"/>
<path opacity="0.3" d="M271.734 215.612H270.798V221.359H271.734V215.612Z" fill="white"/>
<path opacity="0.3" d="M269.934 215.612H268.998V221.359H269.934V215.612Z" fill="white"/>
<path opacity="0.2" d="M243.679 169.934C243.679 170.122 243.623 170.307 243.518 170.464C243.413 170.621 243.264 170.743 243.09 170.816C242.915 170.888 242.723 170.907 242.538 170.87C242.353 170.833 242.183 170.742 242.05 170.609C241.917 170.475 241.826 170.305 241.789 170.12C241.752 169.935 241.771 169.743 241.843 169.568C241.915 169.394 242.038 169.244 242.194 169.14C242.351 169.035 242.536 168.979 242.725 168.979C242.978 168.979 243.22 169.079 243.399 169.258C243.578 169.437 243.679 169.68 243.679 169.934Z" fill="white"/>
<path opacity="0.2" d="M249.679 169.934C249.679 170.122 249.623 170.307 249.518 170.464C249.413 170.621 249.264 170.743 249.09 170.816C248.915 170.888 248.723 170.907 248.538 170.87C248.353 170.833 248.183 170.742 248.05 170.609C247.917 170.475 247.826 170.305 247.789 170.12C247.752 169.935 247.771 169.743 247.843 169.568C247.915 169.394 248.038 169.244 248.194 169.14C248.351 169.035 248.536 168.979 248.725 168.979C248.978 168.979 249.22 169.079 249.399 169.258C249.578 169.437 249.679 169.68 249.679 169.934Z" fill="white"/>
<path opacity="0.4" d="M255.679 169.934C255.679 170.122 255.623 170.307 255.518 170.464C255.413 170.621 255.264 170.743 255.09 170.816C254.915 170.888 254.723 170.907 254.538 170.87C254.353 170.833 254.183 170.742 254.05 170.609C253.917 170.475 253.826 170.305 253.789 170.12C253.752 169.935 253.771 169.743 253.843 169.568C253.915 169.394 254.038 169.244 254.194 169.14C254.351 169.035 254.536 168.979 254.725 168.979C254.978 168.979 255.22 169.079 255.399 169.258C255.578 169.437 255.679 169.68 255.679 169.934Z" fill="white"/>
<path opacity="0.4" d="M243.679 179.645C243.679 179.833 243.623 180.018 243.518 180.175C243.413 180.332 243.264 180.454 243.09 180.527C242.915 180.599 242.723 180.618 242.538 180.581C242.353 180.544 242.183 180.453 242.05 180.32C241.917 180.186 241.826 180.016 241.789 179.831C241.752 179.646 241.771 179.454 241.843 179.279C241.915 179.105 242.038 178.955 242.194 178.851C242.351 178.746 242.536 178.69 242.725 178.69C242.978 178.69 243.22 178.79 243.399 178.969C243.578 179.148 243.679 179.391 243.679 179.645Z" fill="white"/>
<path opacity="0.2" d="M249.679 179.645C249.679 179.833 249.623 180.018 249.518 180.175C249.413 180.332 249.264 180.454 249.09 180.527C248.915 180.599 248.723 180.618 248.538 180.581C248.353 180.544 248.183 180.453 248.05 180.32C247.917 180.186 247.826 180.016 247.789 179.831C247.752 179.646 247.771 179.454 247.843 179.279C247.915 179.105 248.038 178.955 248.194 178.851C248.351 178.746 248.536 178.69 248.725 178.69C248.978 178.69 249.22 178.79 249.399 178.969C249.578 179.148 249.679 179.391 249.679 179.645Z" fill="white"/>
<path opacity="0.4" d="M255.679 179.645C255.679 179.833 255.623 180.018 255.518 180.175C255.413 180.332 255.264 180.454 255.09 180.527C254.915 180.599 254.723 180.618 254.538 180.581C254.353 180.544 254.183 180.453 254.05 180.32C253.917 180.186 253.826 180.016 253.789 179.831C253.752 179.646 253.771 179.454 253.843 179.279C253.915 179.105 254.038 178.955 254.194 178.851C254.351 178.746 254.536 178.69 254.725 178.69C254.978 178.69 255.22 178.79 255.399 178.969C255.578 179.148 255.679 179.391 255.679 179.645Z" fill="white"/>
<path opacity="0.2" d="M243.679 189.356C243.679 189.544 243.623 189.729 243.518 189.886C243.413 190.043 243.264 190.165 243.09 190.238C242.915 190.31 242.723 190.329 242.538 190.292C242.353 190.255 242.183 190.164 242.05 190.031C241.917 189.897 241.826 189.727 241.789 189.542C241.752 189.357 241.771 189.165 241.843 188.99C241.915 188.816 242.038 188.667 242.194 188.562C242.351 188.457 242.536 188.401 242.725 188.401C242.978 188.401 243.22 188.501 243.399 188.68C243.578 188.859 243.679 189.102 243.679 189.356Z" fill="white"/>
<path opacity="0.4" d="M249.679 189.356C249.679 189.544 249.623 189.729 249.518 189.886C249.413 190.043 249.264 190.165 249.09 190.238C248.915 190.31 248.723 190.329 248.538 190.292C248.353 190.255 248.183 190.164 248.05 190.031C247.917 189.897 247.826 189.727 247.789 189.542C247.752 189.357 247.771 189.165 247.843 188.99C247.915 188.816 248.038 188.667 248.194 188.562C248.351 188.457 248.536 188.401 248.725 188.401C248.978 188.401 249.22 188.501 249.399 188.68C249.578 188.859 249.679 189.102 249.679 189.356Z" fill="white"/>
<path opacity="0.2" d="M255.679 189.356C255.679 189.544 255.623 189.729 255.518 189.886C255.413 190.043 255.264 190.165 255.09 190.238C254.915 190.31 254.723 190.329 254.538 190.292C254.353 190.255 254.183 190.164 254.05 190.031C253.917 189.897 253.826 189.727 253.789 189.542C253.752 189.357 253.771 189.165 253.843 188.99C253.915 188.816 254.038 188.667 254.194 188.562C254.351 188.457 254.536 188.401 254.725 188.401C254.978 188.401 255.22 188.501 255.399 188.68C255.578 188.859 255.679 189.102 255.679 189.356Z" fill="white"/>
<path opacity="0.4" d="M243.679 199.067C243.679 199.255 243.623 199.44 243.518 199.597C243.413 199.754 243.264 199.876 243.09 199.949C242.915 200.021 242.723 200.04 242.538 200.003C242.353 199.966 242.183 199.875 242.05 199.742C241.917 199.608 241.826 199.438 241.789 199.253C241.752 199.068 241.771 198.876 241.843 198.701C241.915 198.527 242.038 198.377 242.194 198.273C242.351 198.168 242.536 198.112 242.725 198.112C242.978 198.112 243.22 198.212 243.399 198.391C243.578 198.57 243.679 198.813 243.679 199.067Z" fill="white"/>
<path opacity="0.2" d="M249.679 199.067C249.679 199.255 249.623 199.44 249.518 199.597C249.413 199.754 249.264 199.876 249.09 199.949C248.915 200.021 248.723 200.04 248.538 200.003C248.353 199.966 248.183 199.875 248.05 199.742C247.917 199.608 247.826 199.438 247.789 199.253C247.752 199.068 247.771 198.876 247.843 198.701C247.915 198.527 248.038 198.377 248.194 198.273C248.351 198.168 248.536 198.112 248.725 198.112C248.978 198.112 249.22 198.212 249.399 198.391C249.578 198.57 249.679 198.813 249.679 199.067Z" fill="white"/>
<path opacity="0.2" d="M255.679 199.067C255.679 199.255 255.623 199.44 255.518 199.597C255.413 199.754 255.264 199.876 255.09 199.949C254.915 200.021 254.723 200.04 254.538 200.003C254.353 199.966 254.183 199.875 254.05 199.742C253.917 199.608 253.826 199.438 253.789 199.253C253.752 199.068 253.771 198.876 253.843 198.701C253.915 198.527 254.038 198.377 254.194 198.273C254.351 198.168 254.536 198.112 254.725 198.112C254.978 198.112 255.22 198.212 255.399 198.391C255.578 198.57 255.679 198.813 255.679 199.067Z" fill="white"/>
<path opacity="0.2" d="M243.679 208.778C243.679 208.966 243.623 209.151 243.518 209.308C243.413 209.465 243.264 209.587 243.09 209.66C242.915 209.732 242.723 209.751 242.538 209.714C242.353 209.677 242.183 209.586 242.05 209.453C241.917 209.319 241.826 209.149 241.789 208.964C241.752 208.779 241.771 208.587 241.843 208.412C241.915 208.238 242.038 208.089 242.194 207.984C242.351 207.879 242.536 207.823 242.725 207.823C242.978 207.823 243.22 207.923 243.399 208.102C243.578 208.281 243.679 208.524 243.679 208.778Z" fill="white"/>
<path opacity="0.4" d="M249.679 208.778C249.679 208.966 249.623 209.151 249.518 209.308C249.413 209.465 249.264 209.587 249.09 209.66C248.915 209.732 248.723 209.751 248.538 209.714C248.353 209.677 248.183 209.586 248.05 209.453C247.917 209.319 247.826 209.149 247.789 208.964C247.752 208.779 247.771 208.587 247.843 208.412C247.915 208.238 248.038 208.089 248.194 207.984C248.351 207.879 248.536 207.823 248.725 207.823C248.978 207.823 249.22 207.923 249.399 208.102C249.578 208.281 249.679 208.524 249.679 208.778Z" fill="white"/>
<path opacity="0.4" d="M255.679 208.778C255.679 208.966 255.623 209.151 255.518 209.308C255.413 209.465 255.264 209.587 255.09 209.66C254.915 209.732 254.723 209.751 254.538 209.714C254.353 209.677 254.183 209.586 254.05 209.453C253.917 209.319 253.826 209.149 253.789 208.964C253.752 208.779 253.771 208.587 253.843 208.412C253.915 208.238 254.038 208.089 254.194 207.984C254.351 207.879 254.536 207.823 254.725 207.823C254.978 207.823 255.22 207.923 255.399 208.102C255.578 208.281 255.679 208.524 255.679 208.778Z" fill="white"/>
<path opacity="0.4" d="M243.679 218.465C243.679 218.653 243.623 218.838 243.518 218.995C243.413 219.152 243.264 219.274 243.09 219.347C242.915 219.419 242.723 219.438 242.538 219.401C242.353 219.364 242.183 219.273 242.05 219.14C241.917 219.006 241.826 218.836 241.789 218.651C241.752 218.466 241.771 218.274 241.843 218.099C241.915 217.925 242.038 217.776 242.194 217.671C242.351 217.566 242.536 217.51 242.725 217.51C242.978 217.51 243.22 217.61 243.399 217.789C243.578 217.968 243.679 218.211 243.679 218.465Z" fill="white"/>
<path opacity="0.2" d="M249.679 218.465C249.679 218.653 249.623 218.838 249.518 218.995C249.413 219.152 249.264 219.274 249.09 219.347C248.915 219.419 248.723 219.438 248.538 219.401C248.353 219.364 248.183 219.273 248.05 219.14C247.917 219.006 247.826 218.836 247.789 218.651C247.752 218.466 247.771 218.274 247.843 218.099C247.915 217.925 248.038 217.776 248.194 217.671C248.351 217.566 248.536 217.51 248.725 217.51C248.978 217.51 249.22 217.61 249.399 217.789C249.578 217.968 249.679 218.211 249.679 218.465Z" fill="white"/>
<path opacity="0.4" d="M255.679 218.465C255.679 218.653 255.623 218.838 255.518 218.995C255.413 219.152 255.264 219.274 255.09 219.347C254.915 219.419 254.723 219.438 254.538 219.401C254.353 219.364 254.183 219.273 254.05 219.14C253.917 219.006 253.826 218.836 253.789 218.651C253.752 218.466 253.771 218.274 253.843 218.099C253.915 217.925 254.038 217.776 254.194 217.671C254.351 217.566 254.536 217.51 254.725 217.51C254.978 217.51 255.22 217.61 255.399 217.789C255.578 217.968 255.679 218.211 255.679 218.465Z" fill="white"/>
<path opacity="0.3" d="M236.79 162.847H215.994V225.569H236.79V162.847Z" fill="black"/>
<path d="M276.09 84.6965H215.37C213.733 84.6965 212.406 86.0248 212.406 87.6633V137.822C212.406 139.46 213.733 140.789 215.37 140.789H276.09C277.727 140.789 279.054 139.46 279.054 137.822V87.6633C279.054 86.0248 277.727 84.6965 276.09 84.6965Z" fill="#407BFF"/>
<path opacity="0.5" d="M276.09 84.6965H215.37C213.733 84.6965 212.406 86.0248 212.406 87.6633V137.822C212.406 139.46 213.733 140.789 215.37 140.789H276.09C277.727 140.789 279.054 139.46 279.054 137.822V87.6633C279.054 86.0248 277.727 84.6965 276.09 84.6965Z" fill="white"/>
<path d="M215.184 84.6785H276.324C277.049 84.6785 277.743 84.9664 278.255 85.4788C278.767 85.9913 279.054 86.6863 279.054 87.411V94.4616H212.4V87.4771C212.398 87.1099 212.468 86.7459 212.607 86.4061C212.746 86.0663 212.951 85.7573 213.21 85.4971C213.469 85.2369 213.776 85.0306 214.115 84.8901C214.454 84.7496 214.818 84.6777 215.184 84.6785Z" fill="#407BFF"/>
<path opacity="0.5" d="M275.286 90.2997C275.287 90.7231 275.162 91.1373 274.928 91.4898C274.694 91.8423 274.36 92.1172 273.97 92.2798C273.579 92.4424 273.149 92.4852 272.734 92.4029C272.32 92.3206 271.938 92.1169 271.639 91.8175C271.34 91.5181 271.137 91.1366 271.054 90.7213C270.972 90.306 271.015 89.8757 271.177 89.4848C271.34 89.0939 271.615 88.76 271.967 88.5256C272.319 88.2911 272.733 88.1665 273.156 88.1677C273.435 88.1677 273.712 88.2229 273.971 88.33C274.229 88.4372 274.464 88.5942 274.662 88.7922C274.86 88.9902 275.016 89.2252 275.124 89.4838C275.231 89.7425 275.286 90.0197 275.286 90.2997Z" fill="white"/>
<path opacity="0.5" d="M269.226 90.2997C269.227 90.7228 269.103 91.1368 268.869 91.4891C268.635 91.8415 268.302 92.1165 267.912 92.2792C267.521 92.442 267.092 92.4852 266.677 92.4033C266.262 92.3215 265.881 92.1184 265.582 91.8196C265.283 91.5209 265.078 91.1399 264.996 90.725C264.913 90.3101 264.955 89.8799 265.116 89.4889C265.278 89.0979 265.551 88.7637 265.903 88.5285C266.254 88.2933 266.667 88.1677 267.09 88.1677C267.656 88.1677 268.198 88.3922 268.598 88.7918C268.999 89.1915 269.225 89.7337 269.226 90.2997Z" fill="white"/>
<path opacity="0.5" d="M263.16 90.2997C263.161 90.7231 263.036 91.1373 262.802 91.4898C262.568 91.8423 262.234 92.1172 261.844 92.2798C261.453 92.4424 261.023 92.4852 260.608 92.4029C260.194 92.3206 259.812 92.1169 259.513 91.8175C259.214 91.5181 259.011 91.1366 258.928 90.7213C258.846 90.306 258.889 89.8757 259.051 89.4848C259.214 89.0939 259.489 88.76 259.841 88.5256C260.193 88.2911 260.607 88.1665 261.03 88.1677C261.309 88.1677 261.586 88.2229 261.845 88.33C262.103 88.4372 262.338 88.5942 262.536 88.7922C262.734 88.9902 262.891 89.2252 262.998 89.4838C263.105 89.7425 263.16 90.0197 263.16 90.2997Z" fill="white"/>
<path opacity="0.6" d="M261.588 102.653H227.406V104.647H261.588V102.653Z" fill="white"/>
<path opacity="0.6" d="M252.397 106.965H227.935V108.959H252.397V106.965Z" fill="#263238"/>
<path d="M270.829 102.653H264.103V104.647H270.829V102.653Z" fill="#407BFF"/>
<path d="M225.03 102.653H218.304V104.647H225.03V102.653Z" fill="#407BFF"/>
<path d="M261.588 111.752H227.406V113.745H261.588V111.752Z" fill="#407BFF"/>
<path opacity="0.6" d="M270.829 111.752H264.103V113.745H270.829V111.752Z" fill="white"/>
<path d="M225.03 111.752H218.304V113.745H225.03V111.752Z" fill="#407BFF"/>
<path d="M261.588 130.705H227.406V132.699H261.588V130.705Z" fill="#407BFF"/>
<path opacity="0.6" d="M270.829 130.705H264.103V132.699H270.829V130.705Z" fill="white"/>
<path d="M261.588 116.544H227.406V118.538H261.588V116.544Z" fill="#407BFF"/>
<path opacity="0.6" d="M270.829 116.544H264.103V118.538H270.829V116.544Z" fill="#263238"/>
<path opacity="0.6" d="M225.03 116.544H218.304V118.538H225.03V116.544Z" fill="#263238"/>
<path d="M271.32 107.043H255.072V109.037H271.32V107.043Z" fill="#407BFF"/>
<path opacity="0.6" d="M251.868 120.724H227.406V122.718H251.868V120.724Z" fill="white"/>
<path d="M270.786 120.802H254.538V122.796H270.786V120.802Z" fill="#407BFF"/>
<path opacity="0.6" d="M239.634 125.054H227.406V127.048H239.634V125.054Z" fill="#263238"/>
<path d="M95.3041 27.2773H34.5841C32.9471 27.2773 31.6201 28.6055 31.6201 30.244V80.4025C31.6201 82.041 32.9471 83.3693 34.5841 83.3693H95.3041C96.9411 83.3693 98.2681 82.041 98.2681 80.4025V30.244C98.2681 28.6055 96.9411 27.2773 95.3041 27.2773Z" fill="#407BFF"/>
<path opacity="0.5" d="M95.3041 27.2773H34.5841C32.9471 27.2773 31.6201 28.6055 31.6201 30.244V80.4025C31.6201 82.041 32.9471 83.3693 34.5841 83.3693H95.3041C96.9411 83.3693 98.2681 82.041 98.2681 80.4025V30.244C98.2681 28.6055 96.9411 27.2773 95.3041 27.2773Z" fill="white"/>
<path d="M34.3921 27.2773H95.5381C95.8976 27.2781 96.2535 27.3499 96.5852 27.4887C96.9169 27.6275 97.2179 27.8305 97.471 28.0861C97.7241 28.3417 97.9243 28.6448 98.0601 28.978C98.1958 29.3112 98.2645 29.668 98.2621 30.0278V37.0604H31.6201V30.0579C31.6201 29.3214 31.912 28.6151 32.4317 28.0938C32.9513 27.5725 33.6564 27.2789 34.3921 27.2773Z" fill="#407BFF"/>
<path opacity="0.5" d="M94.5005 32.8925C94.4993 33.3166 94.372 33.7308 94.135 34.0823C93.8979 34.4338 93.5617 34.7069 93.1692 34.8666C92.7767 35.0264 92.3456 35.0657 91.9307 34.9796C91.5158 34.8935 91.1359 34.6858 90.8393 34.3829C90.5426 34.0801 90.3427 33.6958 90.2649 33.2789C90.187 32.8619 90.2349 32.4313 90.4022 32.0417C90.5696 31.652 90.849 31.321 91.2048 31.0908C91.5606 30.8605 91.9768 30.7414 92.4005 30.7485C92.9623 30.7564 93.4982 30.9862 93.8915 31.3877C94.2848 31.7893 94.5037 32.3301 94.5005 32.8925Z" fill="white"/>
<path opacity="0.5" d="M88.44 32.8925C88.44 33.3153 88.3147 33.7287 88.08 34.0803C87.8453 34.4319 87.5117 34.7059 87.1214 34.8677C86.7311 35.0295 86.3016 35.0719 85.8873 34.9894C85.4729 34.9069 85.0923 34.7033 84.7936 34.4043C84.4949 34.1053 84.2914 33.7243 84.209 33.3096C84.1266 32.8949 84.1689 32.465 84.3306 32.0743C84.4922 31.6837 84.766 31.3498 85.1173 31.1148C85.4685 30.8799 85.8815 30.7545 86.304 30.7545C86.5847 30.7537 86.8628 30.8085 87.1223 30.9156C87.3818 31.0228 87.6176 31.1803 87.8161 31.3789C88.0146 31.5776 88.1719 31.8136 88.279 32.0734C88.3861 32.3331 88.4408 32.6115 88.44 32.8925Z" fill="white"/>
<path opacity="0.5" d="M82.3745 32.8925C82.3745 33.3156 82.2491 33.7292 82.0141 34.0809C81.7792 34.4326 81.4452 34.7067 81.0546 34.8683C80.6639 35.0299 80.2341 35.0719 79.8196 34.9889C79.4051 34.906 79.0245 34.7017 78.726 34.4021C78.4276 34.1025 78.2246 33.721 78.1429 33.3059C78.0611 32.8908 78.1043 32.4607 78.2669 32.0702C78.4295 31.6796 78.7042 31.3461 79.0562 31.1119C79.4083 30.8777 79.8218 30.7533 80.2445 30.7545C80.5248 30.7545 80.8022 30.8099 81.0611 30.9174C81.3199 31.0249 81.5549 31.1825 81.7528 31.3811C81.9507 31.5797 82.1074 31.8154 82.2141 32.0748C82.3208 32.3341 82.3753 32.612 82.3745 32.8925Z" fill="white"/>
<path d="M85.9442 58.5483C83.7362 55.5815 79.2062 54.1342 76.1882 56.2782C75.7259 52.9612 73.9662 49.9639 71.296 47.9457C68.6259 45.9274 65.2641 45.0535 61.9502 45.5162C58.6363 45.9789 55.6418 47.7403 53.6254 50.4129C51.609 53.0855 50.7359 56.4504 51.1982 59.7674C48.2822 59.1008 45.0782 59.8034 43.1882 62.8182C40.7282 66.7219 43.9142 70.5954 43.9142 70.5954L61.0142 70.6975V64.4217H58.8302C58.7436 64.4226 58.6587 64.3979 58.5862 64.3505C58.5137 64.3031 58.4569 64.2353 58.4228 64.1556C58.3888 64.076 58.3791 63.988 58.395 63.9028C58.4109 63.8176 58.4517 63.739 58.5122 63.677L61.0262 61.0466L63.9422 58.0018C63.9836 57.9593 64.033 57.9255 64.0877 57.9024C64.1423 57.8794 64.2009 57.8675 64.2602 57.8675C64.3195 57.8675 64.3782 57.8794 64.4328 57.9024C64.4874 57.9255 64.5368 57.9593 64.5782 58.0018L67.4882 61.0466L70.0082 63.677C70.0659 63.74 70.1043 63.8183 70.1187 63.9026C70.133 63.9869 70.1228 64.0735 70.0893 64.1521C70.0557 64.2307 70.0002 64.2979 69.9294 64.3457C69.8587 64.3936 69.7756 64.4199 69.6902 64.4217H67.5002V70.7276L85.7042 70.8297C88.2962 67.8509 88.1582 61.515 85.9442 58.5483Z" fill="white"/>
<path d="M60.3124 227.239C60.3124 227.239 112.584 214.981 115.068 225.875C118.62 241.436 80.9044 251.897 60.8164 251.261C40.7284 250.624 60.3124 227.239 60.3124 227.239Z" fill="#263238"/>
<path opacity="0.2" d="M60.3124 227.239C60.3124 227.239 112.584 214.981 115.068 225.875C118.62 241.436 80.9044 251.897 60.8164 251.261C40.7284 250.624 60.3124 227.239 60.3124 227.239Z" fill="black"/>
<path opacity="0.7" d="M97.9208 229.239L73.3688 244.853L76.6448 249.513C76.6448 249.513 74.9228 252.078 71.6348 244.21L86.8208 234.163C86.8208 234.163 82.0688 233.689 82.1888 232.962C82.3928 231.761 92.8328 229.413 97.5968 228.368C97.7118 228.335 97.8348 228.348 97.9411 228.402C98.0474 228.457 98.1293 228.55 98.1702 228.662C98.2112 228.774 98.2082 228.898 98.162 229.008C98.1157 229.118 98.0296 229.207 97.9208 229.257V229.239Z" fill="black"/>
<path opacity="0.7" d="M72.4804 243.087L76.7404 249.994C71.4829 250.907 66.1518 251.327 60.8164 251.249C59.0656 251.236 57.3301 250.921 55.6864 250.318L54.1924 247.58L57.4084 241.093L72.4804 243.087Z" fill="black"/>
<path d="M80.6044 240.349L69.6904 247.279L71.6464 252.582L84.4624 246.817L80.6044 240.349Z" fill="#B97964"/>
<path d="M63.6787 249.057L64.7527 252.87C64.9955 252.932 65.2191 253.054 65.4034 253.223C65.5877 253.393 65.727 253.606 65.8087 253.843C65.842 254.415 65.777 254.988 65.6167 255.537L68.4847 266.053C68.8333 265.961 69.1696 265.828 69.4867 265.656C69.7939 265.438 70.0738 265.184 70.3207 264.9C71.1007 264.005 71.1847 262.702 71.2147 261.741C71.2627 260.131 72.1867 255.417 72.1867 255.417C72.5146 254.511 73.0855 253.713 73.8367 253.111C74.1292 252.899 74.3702 252.623 74.5416 252.305C74.713 251.987 74.8105 251.634 74.8267 251.273C74.8073 251.074 74.7448 250.881 74.6436 250.708C74.5423 250.535 74.4047 250.386 74.2403 250.272C74.076 250.158 73.8887 250.081 73.6916 250.046C73.4944 250.012 73.2921 250.02 73.0987 250.072L72.0547 250.198C71.6839 249.935 71.4265 249.54 71.3341 249.095C71.2417 248.649 71.3212 248.185 71.5567 247.796C71.5567 247.796 72.1567 245.508 71.2147 245.892C70.6627 246.108 68.2567 247.189 66.3247 247.982L65.0767 248.492L63.6787 249.057Z" fill="#263238"/>
<path d="M71.7846 257.927C71.7979 257.898 71.8016 257.865 71.7952 257.834C71.7887 257.803 71.7724 257.774 71.7486 257.753C71.521 257.538 71.2387 257.391 70.9326 257.327C70.7646 257.327 70.6926 257.561 70.8546 257.597C71.1249 257.652 71.3756 257.778 71.5806 257.963C71.5923 257.979 71.6076 257.992 71.6254 258.001C71.6431 258.01 71.6627 258.015 71.6826 258.015C71.7025 258.015 71.7221 258.01 71.7399 258.001C71.7576 257.992 71.7729 257.979 71.7846 257.963V257.927Z" fill="#407BFF"/>
<path d="M72.0001 256.996C72.0134 256.967 72.0171 256.935 72.0107 256.903C72.0042 256.872 71.9879 256.843 71.9641 256.822C71.7368 256.608 71.454 256.463 71.1481 256.402C70.9801 256.366 70.9021 256.63 71.0701 256.666C71.3404 256.721 71.5911 256.848 71.7961 257.032C71.81 257.047 71.8273 257.058 71.8464 257.065C71.8655 257.071 71.8859 257.073 71.9059 257.07C71.9259 257.067 71.9449 257.06 71.9613 257.048C71.9777 257.036 71.991 257.02 72.0001 257.002V256.996Z" fill="#407BFF"/>
<path d="M72.1802 256.053C72.1923 256.023 72.1953 255.99 72.1889 255.958C72.1825 255.926 72.167 255.896 72.1442 255.873C71.9123 255.663 71.6286 255.517 71.3222 255.453C71.1602 255.417 71.0822 255.681 71.2502 255.717C71.5191 255.774 71.7678 255.903 71.9702 256.089C71.9845 256.104 72.0021 256.115 72.0215 256.121C72.0409 256.127 72.0615 256.128 72.0816 256.125C72.1017 256.121 72.1205 256.113 72.1367 256.1C72.1528 256.088 72.1657 256.072 72.1742 256.053H72.1802Z" fill="#407BFF"/>
<path opacity="0.2" d="M65.0767 248.492L63.6787 249.093L64.7527 252.906C64.9955 252.968 65.2191 253.09 65.4034 253.259C65.5877 253.429 65.727 253.642 65.8087 253.879C65.842 254.451 65.777 255.024 65.6167 255.573L68.4847 266.089C68.8333 265.997 69.1696 265.864 69.4867 265.692C69.6427 265.578 69.7807 265.464 69.9127 265.35L65.2867 248.432L65.0767 248.492Z" fill="white"/>
<path d="M72.0303 255.987C72.3816 255.845 72.7451 255.734 73.1163 255.657C73.4892 255.58 73.8756 255.601 74.2383 255.717C74.3232 255.74 74.4014 255.783 74.4662 255.843C74.531 255.902 74.5804 255.977 74.6103 256.059C74.6179 256.152 74.5995 256.245 74.5571 256.328C74.5147 256.411 74.45 256.48 74.3703 256.528C74.0671 256.725 73.6982 256.794 73.3443 256.72C72.8712 256.545 72.428 256.298 72.0303 255.987Z" stroke="#407BFF" stroke-width="0.25" stroke-miterlimit="10"/>
<path d="M72.0005 255.945C72.3018 255.716 72.5847 255.463 72.8465 255.189C73.1071 254.909 73.2892 254.565 73.3745 254.192C73.4005 254.108 73.4054 254.019 73.3886 253.933C73.3719 253.847 73.334 253.767 73.2785 253.699C73.2043 253.643 73.1155 253.61 73.0228 253.604C72.9302 253.597 72.8377 253.618 72.7565 253.663C72.5943 253.739 72.449 253.846 72.3294 253.979C72.2098 254.112 72.1183 254.268 72.0605 254.438C71.9621 254.934 71.9419 255.443 72.0005 255.945Z" stroke="#407BFF" stroke-width="0.25" stroke-miterlimit="10"/>
<path d="M81.9066 193.95C81.9066 193.95 83.8146 210.958 84.3066 211.87C86.0346 214.957 97.4646 220.278 97.4646 220.278L103.291 219.077L107.491 222.566L104.737 224.722L101.509 223.521C99.746 223.836 97.9589 223.993 96.1686 223.99C93.1686 223.99 78.6426 220.308 76.2186 216.254C73.7946 212.201 72.6846 193.433 72.6846 193.433L81.9066 193.95Z" fill="#B97964"/>
<path d="M72.4261 200.634C72.4261 200.634 67.9501 185.698 73.5301 181.548C79.1101 177.398 83.5441 197.943 83.5441 197.943L72.4261 200.634Z" fill="#407BFF"/>
<path opacity="0.3" d="M72.4261 200.634C72.4261 200.634 67.9501 185.698 73.5301 181.548C79.1101 177.398 83.5441 197.943 83.5441 197.943L72.4261 200.634Z" fill="white"/>
<path d="M75.9602 227.959L75.9182 208.141L75.3662 180.876L63.8042 178.473L53.6042 178.023L42.0602 183.362L41.7902 190.016C41.7902 190.016 43.1102 220.56 43.0382 221.485C42.9482 222.614 39.6602 229.695 39.6602 229.695C54.2882 233.034 76.2002 228.968 75.9602 227.959Z" fill="#407BFF"/>
<path opacity="0.3" d="M75.9602 227.959L75.9182 208.141L75.3662 180.876L63.8042 178.473L53.6042 178.023L42.0602 183.362L41.7902 190.016C41.7902 190.016 43.1102 220.56 43.0382 221.485C42.9482 222.614 39.6602 229.695 39.6602 229.695C54.2882 233.034 76.2002 228.968 75.9602 227.959Z" fill="white"/>
<path d="M59.4004 182.431C59.4004 182.431 62.2384 184.959 63.6904 181.692L64.4464 182.293C64.4464 182.293 64.3744 184.725 62.9944 185.536C63.3304 186.887 69.0904 206.525 70.1224 216.423L68.5504 220.44L64.3504 217.131C64.3504 217.131 62.3224 200.154 61.6264 185.722C60.8122 185.449 60.0678 185 59.4458 184.408C58.8237 183.815 58.3392 183.093 58.0264 182.293L59.4004 182.431Z" fill="#407BFF"/>
<path opacity="0.2" d="M63.0605 182.779L65.5205 184.695L65.9225 178.948L65.1425 178.78L64.4885 182.653L63.3245 181.975L63.0605 182.779Z" fill="black"/>
<path opacity="0.2" d="M51.2102 179.17C51.1682 179.17 57.0002 186.311 57.0002 186.311L58.9802 184.797L60.3422 183.644L60.6962 183.212L52.9742 177.843C52.6196 178.222 52.2387 178.575 51.8342 178.9C51.618 178.97 51.4091 179.06 51.2102 179.17Z" fill="black"/>
<path d="M51.624 179.05L54.444 176.528L62.166 183.764L60.15 183.05L57.204 185.308L51.624 179.05Z" fill="#407BFF"/>
<path d="M62.1666 183.764C61.9986 183.434 62.7666 176.864 62.7666 176.864L65.5026 178.738C65.3586 178.708 65.2626 184.143 65.1726 184.143C65.0826 184.143 63.3726 182.281 63.3726 182.281L62.1666 183.764Z" fill="#407BFF"/>
<path opacity="0.2" d="M75.7563 199.829L75.1562 187.061L78.0123 199.283L75.7563 199.829Z" fill="black"/>
<path opacity="0.2" d="M51.0006 201.691C51.3606 201.619 53.1786 201.018 53.1786 201.018L49.1406 189.74L54.7026 202.249L51.3606 203.583L51.0006 201.691Z" fill="black"/>
<path opacity="0.3" d="M51.624 179.05L54.444 176.528L62.166 183.764L60.15 183.05L57.204 185.308L51.624 179.05Z" fill="white"/>
<path opacity="0.3" d="M62.1666 183.764C61.9986 183.434 62.7666 176.864 62.7666 176.864L65.5026 178.738C65.3586 178.708 65.2626 184.143 65.1726 184.143C65.0826 184.143 63.3726 182.281 63.3726 182.281L62.1666 183.764Z" fill="white"/>
<path opacity="0.3" d="M66.5469 194.322L67.8429 200.694L71.6169 202.063L74.1669 199.835L73.6989 193.818L66.5469 194.322Z" fill="white"/>
<path d="M62.6284 183.212L61.4284 183.5C61.4284 183.5 61.3864 183.578 61.4284 183.53C61.4704 183.482 60.7744 185.794 60.7744 185.794C60.9664 185.968 61.6084 187.079 61.6804 187.061C61.7524 187.043 63.3424 186.893 63.3424 186.893L63.9424 185.212L62.6284 183.212Z" fill="#407BFF"/>
<path opacity="0.2" d="M62.6284 183.212L61.4284 183.5C61.4284 183.5 61.3864 183.578 61.4284 183.53C61.4704 183.482 60.7744 185.794 60.7744 185.794C60.9664 185.968 61.6084 187.079 61.6804 187.061C61.7524 187.043 63.3424 186.893 63.3424 186.893L63.9424 185.212L62.6284 183.212Z" fill="black"/>
<path d="M49.4462 192.334C49.4462 192.334 52.2782 211.216 53.9162 212.981C56.6822 215.984 70.3922 223.882 70.3922 223.882L77.2382 221.479C77.4722 221.401 77.7217 221.381 77.9653 221.421C78.2088 221.461 78.439 221.559 78.6362 221.708L83.3162 225.311L82.8722 225.689C82.7758 225.77 82.6582 225.821 82.5336 225.836C82.409 225.85 82.2827 225.829 82.1702 225.773L81.4442 225.413L82.2542 226.206L82.0022 226.428C81.8731 226.535 81.7201 226.61 81.5561 226.645C81.3921 226.681 81.222 226.676 81.0602 226.632L78.9662 226.068L80.8982 227.359C80.6803 227.538 80.4225 227.661 80.1467 227.719C79.8709 227.776 79.5852 227.766 79.3142 227.689L76.2542 226.818C74.1646 227.294 72.0394 227.598 69.9002 227.725C66.3002 227.947 49.2782 221.996 46.1042 217.642C42.9302 213.288 39.6602 195.157 39.6602 195.157L49.4462 192.334Z" fill="#B97964"/>
<path d="M40.3864 204.898C40.3864 204.898 36.1444 187.782 41.7244 183.632C47.3044 179.482 52.8304 201.138 52.8304 201.138L40.3864 204.898Z" fill="#407BFF"/>
<path opacity="0.3" d="M40.3864 204.898C40.3864 204.898 36.1444 187.782 41.7244 183.632C47.3044 179.482 52.8304 201.138 52.8304 201.138L40.3864 204.898Z" fill="white"/>
<path d="M76.9085 160.625C77.2642 160.587 77.5943 160.422 77.839 160.161C78.0837 159.9 78.2266 159.559 78.2419 159.202C78.2571 158.844 78.1437 158.493 77.9221 158.212C77.7006 157.931 77.3856 157.739 77.0345 157.67L73.7285 157.34C73.8845 159.466 74.0425 161.59 74.2025 163.712C74.8383 163.904 75.5167 163.904 76.1525 163.712C76.4693 163.611 76.7581 163.438 76.9957 163.205C77.2333 162.972 77.4131 162.687 77.5205 162.373C77.6201 162.054 77.6143 161.712 77.5041 161.397C77.3938 161.082 77.1849 160.811 76.9085 160.625Z" fill="#263238"/>
<path d="M64.2662 172.882L57.1562 163.928C57.1562 163.928 57.1562 163.928 57.1562 163.958C57.1562 164.805 57.1562 165.76 57.0602 166.805C57.0602 166.805 56.2922 166.438 56.2922 166.45C55.9862 171.099 54.1502 179.062 54.2342 179.723L61.7042 183.44L63.0662 182.077L63.3302 179.074C62.5682 177.152 63.2762 174.942 64.2662 172.882Z" fill="#B97964"/>
<path opacity="0.2" d="M63.1983 175.903L58.7043 172.348C58.5903 174.149 59.5383 177.002 63.1443 178.479C62.9488 177.629 62.9674 176.744 63.1983 175.903Z" fill="black"/>
<path d="M58.6745 159.49C57.2045 165.495 56.6465 168.408 58.6745 172.348C61.7645 178.269 69.3185 178.317 72.5705 172.834C75.4925 167.904 77.4125 158.883 72.3305 154.781C71.2047 153.881 69.8699 153.28 68.4499 153.034C67.03 152.789 65.571 152.906 64.2085 153.376C62.8461 153.846 61.6244 154.652 60.6568 155.721C59.6893 156.79 59.0074 158.087 58.6745 159.49Z" fill="#B97964"/>
<path d="M59.9402 151.31C61.7402 148.307 66.5402 147.821 68.2982 150.193C68.5562 150.548 65.7122 150.632 66.0362 150.614L64.3682 155.364C64.0382 155.178 63.2222 155.364 62.5322 156.349C62.5322 156.349 61.4582 162.883 58.0742 164.709C54.7562 160.12 55.1342 151.322 59.9402 151.31Z" fill="#263238"/>
<path d="M54.8105 163.694C54.8178 164.464 54.9774 165.225 55.2801 165.933C55.5829 166.641 56.0229 167.283 56.5745 167.82C58.0685 169.243 59.7965 168.138 60.2105 166.228C60.5765 164.504 60.2465 161.682 58.3565 160.985C56.4665 160.289 54.8105 161.784 54.8105 163.694Z" fill="#B97964"/>
<path d="M66.8229 164.541C66.6369 165.141 66.8229 165.742 67.2009 165.85C67.5789 165.958 68.0709 165.573 68.2629 164.973C68.4549 164.372 68.2629 163.772 67.8849 163.658C67.5069 163.544 67.0149 163.934 66.8229 164.541Z" fill="#263238"/>
<path d="M72.7506 166.468C72.5646 167.069 72.7506 167.669 73.1286 167.778C73.5066 167.886 74.0046 167.501 74.1906 166.901C74.3766 166.3 74.1906 165.7 73.8126 165.586C73.4346 165.471 72.9426 165.862 72.7506 166.468Z" fill="#263238"/>
<path d="M70.6626 164.853C70.6626 164.853 71.4186 167.609 71.7606 169.243C71.7808 169.335 71.7807 169.43 71.7603 169.522C71.74 169.614 71.6998 169.701 71.6427 169.775C71.5856 169.85 71.5129 169.912 71.4297 169.956C71.3464 170 71.2546 170.025 71.1606 170.03C70.5692 170.016 69.9901 169.858 69.4746 169.567L70.6626 164.853Z" fill="#A24E3F"/>
<path d="M66.1926 160.907C66.2329 160.941 66.2811 160.963 66.3326 160.973C66.384 160.982 66.4371 160.978 66.4866 160.961C66.8317 160.82 67.2049 160.761 67.5767 160.789C67.9486 160.817 68.3087 160.932 68.6286 161.123C68.6928 161.17 68.7724 161.189 68.8507 161.178C68.929 161.167 68.9999 161.126 69.0486 161.063C69.0938 160.999 69.1123 160.92 69.0999 160.843C69.0876 160.765 69.0455 160.696 68.9826 160.649C68.5834 160.396 68.1295 160.242 67.6587 160.2C67.188 160.158 66.7141 160.23 66.2766 160.409C66.2044 160.437 66.1459 160.492 66.1134 160.563C66.081 160.633 66.0771 160.714 66.1026 160.787C66.122 160.834 66.1529 160.875 66.1926 160.907Z" fill="#263238"/>
<path d="M75.9002 163.718C75.958 163.705 76.0117 163.679 76.0562 163.64C76.1108 163.585 76.1414 163.51 76.1414 163.432C76.1414 163.355 76.1108 163.28 76.0562 163.225C75.7529 162.868 75.3686 162.589 74.9353 162.412C74.5021 162.234 74.0326 162.163 73.5662 162.204C73.4881 162.218 73.4182 162.261 73.3712 162.325C73.3242 162.388 73.3038 162.468 73.3142 162.547C73.32 162.585 73.3334 162.622 73.3535 162.655C73.3735 162.688 73.3999 162.717 73.4311 162.74C73.4623 162.762 73.4978 162.779 73.5354 162.788C73.5729 162.797 73.612 162.799 73.6502 162.793C74.02 162.76 74.3923 162.818 74.7344 162.962C75.0765 163.107 75.3779 163.333 75.6122 163.622C75.6481 163.661 75.6933 163.69 75.7437 163.707C75.7941 163.724 75.848 163.728 75.9002 163.718Z" fill="#263238"/>
<path d="M66.3248 170.798C66.5323 170.966 66.753 171.117 66.9848 171.249C67.0217 171.267 67.0639 171.273 67.1044 171.264C67.1448 171.255 67.181 171.233 67.2068 171.201C67.2245 171.161 67.2269 171.117 67.2136 171.076C67.2003 171.035 67.1722 171 67.1348 170.978C66.5396 170.659 66.0282 170.202 65.6425 169.647C65.2567 169.092 65.0074 168.453 64.9148 167.784C64.9103 167.743 64.8904 167.705 64.8592 167.678C64.8281 167.652 64.7879 167.638 64.7468 167.639C64.7096 167.638 64.6732 167.651 64.6452 167.675C64.6172 167.7 64.5999 167.734 64.5968 167.772C64.594 167.783 64.594 167.796 64.5968 167.808C64.6668 168.397 64.8561 168.967 65.1532 169.481C65.4503 169.995 65.8489 170.443 66.3248 170.798Z" fill="#263238"/>
<path d="M79.8909 156.127C79.4829 154.926 78.0549 154.421 76.7889 154.325C77.1834 154.279 77.5469 154.089 77.8095 153.79C78.072 153.492 78.215 153.107 78.2109 152.71C78.1864 152.311 78.0735 151.924 77.8804 151.575C77.6874 151.225 77.419 150.924 77.0949 150.692C76.5318 150.254 75.8656 149.969 75.1605 149.864C74.4553 149.759 73.735 149.837 73.0689 150.091C73.1876 150.02 73.2781 149.91 73.3252 149.78C73.3722 149.65 73.3728 149.507 73.3269 149.376C73.2288 149.116 73.0528 148.891 72.8229 148.734C72.136 148.24 71.3018 147.994 70.4569 148.036C69.6121 148.079 68.8067 148.407 68.1729 148.968C67.9324 148.242 67.4304 147.632 66.7648 147.257C66.0991 146.882 65.3177 146.768 64.5729 146.938C63.1389 147.311 60.4389 147.599 60.0249 151.268C59.7161 150.974 59.3481 150.748 58.9454 150.607C58.5427 150.466 58.1146 150.413 57.6896 150.451C57.2647 150.489 56.8527 150.617 56.4811 150.826C56.1095 151.036 55.7869 151.323 55.5348 151.667C55.2828 152.012 55.107 152.406 55.0192 152.824C54.9314 153.242 54.9337 153.674 55.0259 154.091C55.1181 154.508 55.298 154.9 55.5538 155.242C55.8095 155.584 56.1351 155.867 56.5089 156.073C56.1702 155.962 55.802 155.983 55.4789 156.134C55.1557 156.285 54.9019 156.552 54.7689 156.883C54.6521 157.221 54.6272 157.584 54.6968 157.934C54.7664 158.285 54.9279 158.61 55.1649 158.877C55.6494 159.4 56.2745 159.771 56.9649 159.946C57.6057 160.155 58.2927 160.176 58.9449 160.006C59.2678 159.915 59.5611 159.74 59.7958 159.5C60.0305 159.26 60.1984 158.962 60.2829 158.637C60.3549 158.979 60.5498 159.283 60.8307 159.491C61.1115 159.699 61.4588 159.797 61.8069 159.766C62.1535 159.714 62.4748 159.553 62.7248 159.308C62.9748 159.062 63.1408 158.743 63.1989 158.397C63.2443 158.05 63.1972 157.697 63.0623 157.374C62.9274 157.052 62.7096 156.77 62.4309 156.559C62.6368 156.733 62.8791 156.858 63.1398 156.926C63.4005 156.993 63.673 157.001 63.9373 156.95C64.2016 156.898 64.4509 156.787 64.6668 156.626C64.8827 156.465 65.0598 156.257 65.1849 156.019C65.7163 157.18 66.6259 158.127 67.7649 158.703C68.3399 158.975 68.9883 159.051 69.6105 158.919C70.2327 158.786 70.7942 158.453 71.2089 157.97C71.5653 158.429 71.9856 158.833 72.4569 159.172C72.6963 159.338 72.9685 159.451 73.2553 159.503C73.542 159.554 73.8365 159.544 74.1189 159.472C74.3975 159.388 74.6375 159.208 74.7967 158.964C74.9558 158.72 75.0239 158.428 74.9889 158.139C75.4334 158.537 75.9709 158.816 76.5518 158.952C77.1328 159.087 77.7384 159.074 78.3129 158.913C78.8723 158.724 79.3425 158.336 79.6336 157.822C79.9247 157.308 80.0163 156.704 79.8909 156.127Z" fill="#263238"/>
<path d="M86.0583 226.65H64.3623C64.3623 227.479 65.2923 228.145 66.4323 228.139H101.766C102.894 228.139 103.8 227.461 103.794 226.638L86.0583 226.65Z" fill="#263238"/>
<path d="M102.09 228.073H82.2904C82.1455 228.084 82.0023 228.038 81.8905 227.945C81.7787 227.852 81.7071 227.719 81.6904 227.575C81.6917 227.522 81.7018 227.469 81.7204 227.419L90.5404 207.192C90.6873 206.886 90.921 206.63 91.2122 206.456C91.5035 206.282 91.8396 206.197 92.1784 206.213H111.978C112.123 206.201 112.266 206.246 112.378 206.338C112.49 206.43 112.562 206.562 112.578 206.706C112.578 206.762 112.566 206.817 112.542 206.868L103.728 227.101C103.579 227.405 103.345 227.658 103.054 227.831C102.763 228.004 102.428 228.088 102.09 228.073Z" fill="#263238"/>
<path opacity="0.7" d="M111.978 206.207H92.1783C91.8394 206.191 91.5034 206.276 91.2121 206.45C90.9208 206.624 90.6872 206.88 90.5403 207.186L82.0563 226.65H64.3623C64.3623 227.479 65.2923 228.145 66.4323 228.139H101.766C102.102 228.139 102.435 228.071 102.744 227.941C102.961 227.878 103.162 227.769 103.333 227.621C103.504 227.472 103.641 227.289 103.734 227.083L112.548 206.85C112.572 206.799 112.584 206.744 112.584 206.688C112.565 206.545 112.491 206.415 112.378 206.325C112.265 206.236 112.122 206.193 111.978 206.207Z" fill="white"/>
<path d="M100.068 216.981C99.6365 217.948 98.7725 218.615 98.1245 218.483C97.4765 218.35 97.3025 217.462 97.7225 216.489C98.1425 215.516 99.0125 214.861 99.6605 214.999C100.308 215.137 100.5 215.984 100.068 216.981Z" fill="white"/>
<g opacity="0.3">
<path d="M90.5104 207.186L82.0264 226.65H82.9444L92.1484 206.231C91.8121 206.213 91.4779 206.294 91.1869 206.464C90.8959 206.633 90.6607 206.884 90.5104 207.186Z" fill="black"/>
</g>
<path d="M91.5303 249.093L104.298 251.147L106.344 245.88L92.9283 241.688L91.5303 249.093Z" fill="#B97964"/>
<path d="M109.974 253.807L111.696 250.24C111.554 250.033 111.467 249.794 111.442 249.544C111.416 249.294 111.454 249.042 111.552 248.811C111.744 248.378 112.818 247.67 112.818 247.67L117.618 237.893C117.297 237.728 116.956 237.605 116.604 237.526C116.229 237.484 115.851 237.484 115.476 237.526C114.306 237.688 113.382 238.601 112.722 239.328C111.618 240.529 107.802 243.418 107.802 243.418C106.956 243.879 105.999 244.097 105.036 244.048C104.677 244.011 104.314 244.056 103.975 244.181C103.636 244.306 103.33 244.507 103.08 244.769C102.96 244.93 102.876 245.116 102.835 245.313C102.794 245.51 102.797 245.714 102.844 245.91C102.89 246.105 102.979 246.289 103.104 246.447C103.228 246.604 103.386 246.733 103.566 246.823L104.436 247.423C104.541 247.865 104.476 248.329 104.253 248.725C104.031 249.12 103.668 249.416 103.236 249.555C103.236 249.555 101.256 250.865 102.234 251.207C102.786 251.411 105.306 252.204 107.274 252.888L108.552 253.333L109.974 253.807Z" fill="#263238"/>
<path d="M109.8 241.784C109.769 241.796 109.743 241.818 109.725 241.846C109.708 241.874 109.7 241.907 109.704 241.94C109.74 242.251 109.855 242.547 110.04 242.799C110.142 242.937 110.376 242.799 110.274 242.649C110.107 242.429 110.003 242.167 109.974 241.892C109.974 241.872 109.969 241.851 109.959 241.833C109.949 241.815 109.935 241.8 109.917 241.789C109.9 241.779 109.88 241.772 109.859 241.771C109.839 241.771 109.818 241.775 109.8 241.784Z" fill="#407BFF"/>
<path d="M109.002 242.337C108.972 242.349 108.947 242.372 108.931 242.4C108.915 242.428 108.908 242.461 108.912 242.493C108.942 242.804 109.056 243.101 109.242 243.352C109.344 243.49 109.578 243.352 109.476 243.201C109.31 242.981 109.209 242.719 109.182 242.445C109.18 242.425 109.173 242.407 109.162 242.39C109.152 242.374 109.138 242.36 109.121 242.349C109.104 242.339 109.085 242.332 109.066 242.33C109.046 242.328 109.027 242.33 109.008 242.337H109.002Z" fill="#407BFF"/>
<path d="M108.241 242.931C108.211 242.944 108.186 242.966 108.169 242.994C108.153 243.022 108.147 243.055 108.151 243.087C108.182 243.399 108.298 243.696 108.487 243.946C108.583 244.078 108.817 243.946 108.715 243.796C108.552 243.574 108.451 243.313 108.421 243.039C108.419 243.019 108.413 243 108.403 242.983C108.392 242.966 108.378 242.951 108.361 242.941C108.344 242.93 108.325 242.924 108.305 242.922C108.285 242.92 108.265 242.924 108.247 242.931H108.241Z" fill="#407BFF"/>
<path opacity="0.2" d="M111.552 248.811C111.744 248.378 112.818 247.67 112.818 247.67L117.618 237.893C117.297 237.728 116.956 237.605 116.604 237.526C116.412 237.526 116.232 237.526 116.058 237.526L108.318 253.261L108.534 253.333L109.962 253.831L111.684 250.264C111.54 250.053 111.452 249.809 111.429 249.555C111.406 249.3 111.449 249.044 111.552 248.811Z" fill="white"/>
<path d="M108.312 243.087C107.955 242.96 107.61 242.801 107.28 242.613C106.949 242.424 106.673 242.151 106.482 241.82C106.432 241.749 106.4 241.665 106.391 241.578C106.381 241.491 106.394 241.403 106.428 241.322C106.483 241.247 106.558 241.19 106.644 241.156C106.73 241.122 106.823 241.113 106.914 241.13C107.091 241.154 107.262 241.214 107.416 241.306C107.569 241.398 107.703 241.519 107.808 241.664C108.044 242.111 108.214 242.591 108.312 243.087Z" stroke="#407BFF" stroke-width="0.25" stroke-miterlimit="10"/>
<path d="M108.289 243.117C107.912 243.082 107.532 243.082 107.155 243.117C106.774 243.151 106.41 243.286 106.099 243.508C106.023 243.554 105.961 243.618 105.917 243.695C105.873 243.771 105.849 243.858 105.847 243.946C105.867 244.036 105.912 244.118 105.977 244.184C106.042 244.25 106.123 244.296 106.213 244.318C106.384 244.369 106.564 244.385 106.741 244.364C106.918 244.344 107.09 244.287 107.245 244.198C107.646 243.891 107.998 243.525 108.289 243.111" stroke="#407BFF" stroke-width="0.25" stroke-miterlimit="10"/>
<path d="M43.5665 243.267C40.8125 238.877 34.5665 226.98 47.2145 224.65C59.8625 222.32 102.03 242.397 102.03 242.397L99.3605 250.474L60.0905 244.288C60.0905 244.288 65.4905 251.465 58.9445 251.141C49.4645 250.192 47.1905 247.922 43.5665 243.267Z" fill="#263238"/>
<path opacity="0.7" d="M61.0207 244.499L50.2207 241.105C50.2207 241.105 59.2567 246.637 62.5747 247.297L61.0207 244.499Z" fill="black"/>
<path d="M21.0004 142.098H42.9604C43.9152 142.098 44.8308 142.477 45.506 143.153C46.1811 143.829 46.5604 144.745 46.5604 145.701V157.568C46.5604 158.524 46.1811 159.44 45.506 160.116C44.8308 160.792 43.9152 161.171 42.9604 161.171H37.7044L37.6684 164.775L33.7144 161.171H21.0004C20.0456 161.171 19.1299 160.792 18.4548 160.116C17.7797 159.44 17.4004 158.524 17.4004 157.568V145.695C17.402 144.74 17.782 143.825 18.4569 143.151C19.1319 142.477 20.0466 142.098 21.0004 142.098Z" fill="#407BFF"/>
<path d="M29.2747 149.755L25.8007 151.37L29.2627 152.992V154.295L24.6367 152.049V150.698L29.2627 148.452L29.2747 149.755Z" fill="white"/>
<path d="M39.8106 150.698V152.049L35.1846 154.295V153.004L38.6466 151.382L35.1846 149.767V148.464L39.8106 150.698Z" fill="white"/>
<path d="M33.0421 147.539L30.7861 155.346H31.9141L34.1701 147.539H33.0421Z" fill="white"/>
<path d="M37.8908 141.287H26.6168C26.577 141.287 26.5389 141.271 26.5107 141.243C26.4826 141.215 26.4668 141.177 26.4668 141.137C26.4668 141.097 26.4826 141.059 26.5107 141.031C26.5389 141.003 26.577 140.987 26.6168 140.987H37.8908C37.9306 140.987 37.9687 141.003 37.9969 141.031C38.025 141.059 38.0408 141.097 38.0408 141.137C38.0408 141.177 38.025 141.215 37.9969 141.243C37.9687 141.271 37.9306 141.287 37.8908 141.287Z" fill="#407BFF"/>
<path d="M41.0047 141.293H39.2047C39.1649 141.293 39.1268 141.277 39.0986 141.249C39.0705 141.221 39.0547 141.183 39.0547 141.143C39.0547 141.103 39.0705 141.065 39.0986 141.037C39.1268 141.009 39.1649 140.993 39.2047 140.993H41.0047C41.0445 140.993 41.0826 141.009 41.1108 141.037C41.1389 141.065 41.1547 141.103 41.1547 141.143C41.1547 141.183 41.1389 141.221 41.1108 141.249C41.0826 141.277 41.0445 141.293 41.0047 141.293Z" fill="#407BFF"/>
</g>
<defs>
<clipPath id="clip0_44189_19638">
<rect width="300" height="266.053" fill="white"/>
</clipPath>
</defs>
</svg>
