<svg width="400" height="400" viewBox="0 0 400 400" fill="none" xmlns="http://www.w3.org/2000/svg">
<g clip-path="url(#clip0_46015_92558)">
<path d="M127.878 204.299C151.236 180.682 151.236 142.39 127.878 118.772C104.52 95.1544 66.6503 95.1544 43.2927 118.772C19.9351 142.39 19.9351 180.682 43.2927 204.299C66.6503 227.917 104.521 227.917 127.878 204.299Z" fill="#407BFF"/>
<path opacity="0.4" d="M127.878 204.299C151.236 180.682 151.236 142.39 127.878 118.772C104.52 95.1544 66.6503 95.1544 43.2927 118.772C19.9351 142.39 19.9351 180.682 43.2927 204.299C66.6503 227.917 104.521 227.917 127.878 204.299Z" fill="black"/>
<path opacity="0.2" d="M135.09 170.075C139.754 142.427 121.368 116.191 94.0245 111.475C66.6808 106.758 40.7333 125.349 36.0692 152.997C31.405 180.645 49.7905 206.881 77.1342 211.597C104.478 216.313 130.425 197.723 135.09 170.075Z" fill="black"/>
<path d="M137.501 166.41C139.365 139.485 119.289 116.13 92.6608 114.245C66.0322 112.361 42.9344 132.66 41.0704 159.585C39.2064 186.51 59.2821 209.865 85.9107 211.75C112.539 213.635 135.637 193.335 137.501 166.41Z" fill="#407BFF"/>
<path opacity="0.4" d="M137.501 166.41C139.365 139.485 119.289 116.13 92.6608 114.245C66.0322 112.361 42.9344 132.66 41.0704 159.585C39.2064 186.51 59.2821 209.865 85.9107 211.75C112.539 213.635 135.637 193.335 137.501 166.41Z" fill="black"/>
<path d="M105.436 156.881L108.583 170.671C108.717 171.198 108.741 171.747 108.653 172.283C108.566 172.819 108.369 173.331 108.075 173.787C107.79 174.252 107.415 174.655 106.973 174.971C106.531 175.288 106.031 175.511 105.502 175.629L93.509 178.432L95.7176 188.135C95.8476 188.66 95.8675 189.206 95.7763 189.739C95.685 190.271 95.4844 190.779 95.1876 191.228C94.9023 191.686 94.5264 192.079 94.0836 192.383C93.6408 192.686 93.1405 192.894 92.6144 192.993C92.0875 193.126 91.5394 193.151 91.0026 193.067C90.4658 192.983 89.9512 192.79 89.4892 192.501C89.0289 192.227 88.6302 191.86 88.3183 191.421C88.0065 190.983 87.7884 190.484 87.6781 189.955L85.4694 180.14L73.5757 182.921C73.0631 183.046 72.5308 183.065 72.0108 182.976C71.4908 182.888 70.9938 182.694 70.5498 182.407C70.0883 182.133 69.6881 181.766 69.3745 181.327C69.0608 180.889 68.8406 180.39 68.7276 179.861C68.602 179.339 68.5823 178.797 68.6696 178.267C68.7569 177.738 68.9495 177.231 69.2356 176.779C69.5086 176.317 69.8732 175.916 70.3065 175.603C70.7398 175.29 71.2324 175.071 71.7535 174.959L99.5828 168.471L98.2797 162.743L70.5277 169.208C70.0139 169.341 69.4789 169.367 68.955 169.284C68.4312 169.202 67.9293 169.012 67.4797 168.728C67.0188 168.448 66.6206 168.075 66.3107 167.63C66.0007 167.186 65.7858 166.682 65.6797 166.149L62.5433 152.414C62.3019 151.358 62.4851 150.249 63.0525 149.33C63.62 148.41 64.5252 147.757 65.5692 147.512L77.4077 144.754L75.1991 135.039C75.071 134.526 75.0461 133.991 75.1257 133.468C75.2054 132.944 75.388 132.442 75.6629 131.991C75.9541 131.502 76.3452 131.082 76.8099 130.759C77.2745 130.435 77.8022 130.216 78.3574 130.115C78.8682 129.99 79.3988 129.97 79.9171 130.059C80.4354 130.147 80.9305 130.341 81.3723 130.629C81.8258 130.911 82.2181 131.283 82.5256 131.722C82.8331 132.162 83.0493 132.66 83.1613 133.186L85.37 142.889L97.5177 140.075C98.0432 139.947 98.5891 139.927 99.1224 140.017C99.6556 140.107 100.165 140.306 100.621 140.6C101.082 140.868 101.482 141.23 101.798 141.662C102.114 142.095 102.337 142.588 102.454 143.113C102.687 144.193 102.492 145.322 101.912 146.259C101.333 147.196 100.413 147.866 99.3509 148.126L71.5216 154.614L72.7364 160.309L100.466 153.843C100.992 153.715 101.538 153.695 102.071 153.785C102.604 153.875 103.114 154.074 103.569 154.368C104.038 154.631 104.446 154.99 104.767 155.423C105.089 155.856 105.317 156.353 105.436 156.881Z" fill="#407BFF"/>
<g opacity="0.7">
<path d="M105.438 156.881L108.585 170.671C108.719 171.198 108.743 171.747 108.655 172.283C108.568 172.819 108.371 173.331 108.077 173.787C107.792 174.252 107.417 174.655 106.975 174.971C106.533 175.288 106.033 175.511 105.504 175.629L93.5109 178.432L95.7196 188.135C95.8495 188.66 95.8695 189.206 95.7782 189.739C95.6869 190.271 95.4864 190.779 95.1895 191.228C94.9043 191.686 94.5284 192.079 94.0856 192.383C93.6427 192.686 93.1425 192.894 92.6164 192.993C92.0894 193.126 91.5413 193.151 91.0046 193.067C90.4678 192.983 89.9531 192.79 89.4911 192.501C89.0309 192.227 88.6321 191.86 88.3203 191.421C88.0084 190.983 87.7904 190.484 87.68 189.955L85.4713 180.14L73.5776 182.921C73.0651 183.046 72.5328 183.065 72.0128 182.976C71.4928 182.888 70.9958 182.694 70.5517 182.407C70.0903 182.133 69.6901 181.766 69.3764 181.327C69.0628 180.889 68.8425 180.39 68.7296 179.861C68.604 179.339 68.5843 178.797 68.6716 178.267C68.7589 177.738 68.9514 177.231 69.2376 176.779C69.5106 176.317 69.8752 175.916 70.3085 175.603C70.7418 175.29 71.2344 175.071 71.7555 174.959L99.5848 168.471L98.2817 162.743L70.5297 169.208C70.0159 169.341 69.4809 169.367 68.957 169.284C68.4331 169.202 67.9312 169.012 67.4817 168.728C67.0207 168.448 66.6226 168.075 66.3126 167.63C66.0027 167.186 65.7878 166.682 65.6816 166.149L62.5453 152.414C62.3039 151.358 62.4871 150.249 63.0545 149.33C63.6219 148.41 64.5272 147.757 65.5712 147.512L77.4097 144.754L75.201 135.039C75.0729 134.526 75.048 133.991 75.1277 133.468C75.2073 132.944 75.39 132.442 75.6648 131.991C75.9561 131.502 76.3471 131.082 76.8118 130.759C77.2765 130.435 77.8041 130.216 78.3594 130.115C78.8701 129.99 79.4007 129.97 79.919 130.059C80.4373 130.147 80.9324 130.341 81.3742 130.629C81.8278 130.911 82.2201 131.283 82.5276 131.722C82.835 132.162 83.0513 132.66 83.1633 133.186L85.372 142.889L97.5197 140.075C98.0452 139.947 98.591 139.927 99.1243 140.017C99.6576 140.107 100.167 140.306 100.623 140.6C101.084 140.868 101.484 141.23 101.8 141.662C102.116 142.095 102.339 142.588 102.456 143.113C102.689 144.193 102.494 145.322 101.914 146.259C101.335 147.196 100.415 147.866 99.3529 148.126L71.5236 154.614L72.7383 160.309L100.468 153.843C100.994 153.715 101.54 153.695 102.073 153.785C102.606 153.875 103.116 154.074 103.571 154.368C104.04 154.631 104.448 154.99 104.769 155.423C105.091 155.856 105.319 156.353 105.438 156.881Z" fill="white"/>
</g>
<path d="M213.218 113.441C228.098 95.6361 225.887 69.0048 208.278 53.9584C190.669 38.912 164.331 41.1483 149.45 58.9533C134.569 76.7583 136.781 103.39 154.39 118.436C171.999 133.482 198.337 131.246 213.218 113.441Z" fill="#407BFF"/>
<path opacity="0.4" d="M213.218 113.441C228.098 95.6361 225.887 69.0048 208.278 53.9584C190.669 38.912 164.331 41.1483 149.45 58.9533C134.569 76.7583 136.781 103.39 154.39 118.436C171.999 133.482 198.337 131.246 213.218 113.441Z" fill="black"/>
<path opacity="0.2" d="M208.34 108.759C220.674 93.6724 218.578 71.3321 203.658 58.8604C188.738 46.3887 166.643 48.5084 154.309 63.5948C141.975 78.6812 144.071 101.021 158.991 113.493C173.911 125.965 196.006 123.845 208.34 108.759Z" fill="black"/>
<path d="M209.399 109.118C220.684 94.1881 217.862 72.8351 203.097 61.4247C188.332 50.0142 167.214 52.8671 155.929 67.7968C144.644 82.7264 147.466 104.079 162.231 115.49C176.996 126.9 198.114 124.047 209.399 109.118Z" fill="#407BFF"/>
<path opacity="0.4" d="M209.399 109.118C220.684 94.1881 217.862 72.8351 203.097 61.4247C188.332 50.0142 167.214 52.8671 155.929 67.7968C144.644 82.7264 147.466 104.079 162.231 115.49C176.996 126.9 198.114 124.047 209.399 109.118Z" fill="black"/>
<path d="M195.118 89.6594L192.744 99.2401C192.658 99.6044 192.498 99.9465 192.273 100.245C192.049 100.543 191.765 100.79 191.441 100.971C191.113 101.172 190.749 101.305 190.369 101.361C189.99 101.416 189.603 101.394 189.232 101.295L180.961 99.1843L179.282 105.884C179.197 106.25 179.037 106.594 178.812 106.894C178.588 107.194 178.304 107.443 177.979 107.626C177.666 107.823 177.316 107.953 176.952 108.008C176.587 108.064 176.215 108.044 175.859 107.95C175.491 107.863 175.145 107.702 174.84 107.478C174.534 107.253 174.276 106.97 174.081 106.643C173.881 106.325 173.749 105.968 173.692 105.595C173.635 105.222 173.655 104.842 173.749 104.477L175.439 97.6657L167.157 95.6222C166.798 95.5354 166.46 95.3758 166.164 95.1531C165.868 94.9305 165.619 94.6494 165.434 94.3269C165.234 94.0104 165.102 93.6555 165.045 93.2845C164.988 92.9136 165.007 92.5347 165.102 92.1718C165.185 91.8047 165.341 91.4586 165.562 91.1551C165.782 90.8516 166.062 90.5971 166.383 90.4075C166.701 90.2116 167.055 90.0828 167.423 90.0291C167.791 89.9753 168.166 89.9977 168.526 90.0949L187.852 94.9969L188.846 91.0217L169.575 86.1308C169.214 86.0492 168.874 85.8929 168.575 85.6719C168.277 85.451 168.027 85.17 167.841 84.8467C167.641 84.5283 167.51 84.1705 167.457 83.7971C167.404 83.4237 167.429 83.0431 167.532 82.6804L169.895 73.1332C169.984 72.7693 170.144 72.4269 170.364 72.1257C170.585 71.8245 170.863 71.5705 171.181 71.3784C171.499 71.1863 171.852 71.0599 172.219 71.0065C172.586 70.9532 172.96 70.9739 173.319 71.0675L181.513 73.1444L183.192 66.4446C183.273 66.0664 183.43 65.7094 183.655 65.3959C183.879 65.0824 184.165 64.8193 184.495 64.6231C184.825 64.4269 185.192 64.302 185.572 64.2561C185.952 64.2102 186.337 64.2444 186.703 64.3565C187.059 64.4399 187.394 64.5971 187.687 64.8181C187.98 65.0391 188.224 65.3192 188.404 65.6406C188.599 65.959 188.728 66.3143 188.784 66.6848C188.839 67.0554 188.818 67.4334 188.724 67.7957L187.046 74.4955L195.439 76.6283C195.807 76.7172 196.153 76.8808 196.457 77.1093C196.761 77.3377 197.015 77.6261 197.206 77.9571C197.407 78.2708 197.542 78.623 197.603 78.9919C197.664 79.3607 197.649 79.7383 197.559 80.101C197.467 80.473 197.302 80.8227 197.075 81.1295C196.847 81.4362 196.561 81.694 196.234 81.8876C195.908 82.0928 195.543 82.2284 195.164 82.286C194.784 82.3436 194.396 82.322 194.025 82.2226L174.688 77.3206L173.716 81.2735L192.976 86.1532C193.344 86.2421 193.691 86.4057 193.994 86.6341C194.298 86.8626 194.553 87.151 194.743 87.482C194.956 87.7967 195.099 88.1539 195.164 88.5295C195.229 88.9051 195.213 89.2904 195.118 89.6594Z" fill="#407BFF"/>
<g opacity="0.7">
<path d="M195.119 89.6594L192.745 99.2401C192.659 99.6044 192.498 99.9465 192.274 100.245C192.05 100.543 191.766 100.79 191.442 100.971C191.114 101.172 190.75 101.305 190.37 101.361C189.991 101.416 189.604 101.394 189.233 101.295L180.962 99.1843L179.283 105.884C179.198 106.25 179.038 106.594 178.813 106.894C178.589 107.194 178.305 107.443 177.98 107.626C177.667 107.823 177.317 107.953 176.953 108.008C176.588 108.064 176.216 108.044 175.86 107.95C175.492 107.863 175.146 107.702 174.841 107.478C174.535 107.253 174.277 106.97 174.082 106.643C173.882 106.325 173.75 105.968 173.693 105.595C173.636 105.222 173.656 104.842 173.75 104.477L175.44 97.6657L167.158 95.6222C166.799 95.5354 166.461 95.3758 166.165 95.1531C165.869 94.9305 165.62 94.6494 165.435 94.3269C165.235 94.0104 165.103 93.6555 165.046 93.2845C164.988 92.9136 165.008 92.5347 165.103 92.1718C165.186 91.8047 165.342 91.4586 165.563 91.1551C165.783 90.8516 166.063 90.5971 166.384 90.4075C166.702 90.2116 167.056 90.0828 167.424 90.0291C167.792 89.9753 168.167 89.9977 168.527 90.0949L187.853 94.9969L188.847 91.0217L169.576 86.1308C169.215 86.0492 168.875 85.8929 168.576 85.6719C168.278 85.451 168.028 85.17 167.842 84.8467C167.642 84.5283 167.511 84.1705 167.458 83.7971C167.405 83.4237 167.43 83.0431 167.533 82.6804L169.896 73.1332C169.985 72.7693 170.145 72.4269 170.365 72.1257C170.586 71.8245 170.864 71.5705 171.182 71.3784C171.5 71.1863 171.853 71.0599 172.22 71.0065C172.587 70.9532 172.961 70.9739 173.32 71.0675L181.514 73.1444L183.192 66.4446C183.274 66.0664 183.431 65.7094 183.656 65.3959C183.88 65.0824 184.166 64.8193 184.496 64.6231C184.826 64.4269 185.193 64.302 185.573 64.2561C185.953 64.2102 186.338 64.2444 186.704 64.3565C187.06 64.4399 187.395 64.5971 187.688 64.8181C187.981 65.0391 188.225 65.3192 188.405 65.6406C188.6 65.959 188.729 66.3143 188.785 66.6848C188.84 67.0554 188.819 67.4334 188.725 67.7957L187.047 74.4955L195.44 76.6283C195.808 76.7172 196.154 76.8808 196.458 77.1093C196.762 77.3377 197.016 77.6261 197.207 77.9571C197.408 78.2708 197.543 78.623 197.604 78.9919C197.665 79.3607 197.65 79.7383 197.56 80.101C197.468 80.473 197.303 80.8227 197.075 81.1295C196.848 81.4362 196.562 81.694 196.235 81.8876C195.909 82.0928 195.544 82.2284 195.165 82.286C194.785 82.3436 194.397 82.322 194.026 82.2226L174.689 77.3206L173.717 81.2735L192.977 86.1532C193.345 86.2421 193.692 86.4057 193.995 86.6341C194.299 86.8626 194.554 87.151 194.744 87.482C194.957 87.7967 195.1 88.1539 195.165 88.5295C195.23 88.9051 195.214 89.2904 195.119 89.6594Z" fill="white"/>
</g>
<path d="M384.38 166.461H99.0304C89.8513 166.461 82.4102 173.985 82.4102 183.267V352.157C82.4102 361.438 89.8513 368.962 99.0304 368.962H384.38C393.559 368.962 401 361.438 401 352.157V183.267C401 173.985 393.559 166.461 384.38 166.461Z" fill="#407BFF"/>
<path opacity="0.2" d="M384.38 166.461H99.0304C89.8513 166.461 82.4102 173.985 82.4102 183.267V352.157C82.4102 361.438 89.8513 368.962 99.0304 368.962H384.38C393.559 368.962 401 361.438 401 352.157V183.267C401 173.985 393.559 166.461 384.38 166.461Z" fill="black"/>
<path d="M349.428 236.976C354.896 236.976 360.14 234.78 364.007 230.87C367.874 226.961 370.046 221.658 370.046 216.129C370.046 210.6 367.874 205.297 364.007 201.387C360.14 197.478 354.896 195.281 349.428 195.281H322.813C317.345 195.281 312.101 197.478 308.234 201.387C304.368 205.297 302.195 210.6 302.195 216.129C302.195 221.658 304.368 226.961 308.234 230.87C312.101 234.78 317.345 236.976 322.813 236.976H349.428Z" fill="#407BFF"/>
<path d="M169.631 236.976H120.521C116.569 236.976 113.365 240.216 113.365 244.212V276.673C113.365 280.669 116.569 283.908 120.521 283.908H169.631C173.583 283.908 176.787 280.669 176.787 276.673V244.212C176.787 240.216 173.583 236.976 169.631 236.976Z" fill="#407BFF"/>
<path opacity="0.3" d="M169.631 236.976H120.521C116.569 236.976 113.365 240.216 113.365 244.212V276.673C113.365 280.669 116.569 283.908 120.521 283.908H169.631C173.583 283.908 176.787 280.669 176.787 276.673V244.212C176.787 240.216 173.583 236.976 169.631 236.976Z" fill="white"/>
<path d="M203.612 190.167H118.434C115.635 190.167 113.365 192.459 113.365 195.287C113.365 198.114 115.635 200.407 118.434 200.407H203.612C206.411 200.407 208.681 198.114 208.681 195.287C208.681 192.459 206.411 190.167 203.612 190.167Z" fill="#407BFF"/>
<path opacity="0.3" d="M203.612 190.167H118.434C115.635 190.167 113.365 192.459 113.365 195.287C113.365 198.114 115.635 200.407 118.434 200.407H203.612C206.411 200.407 208.681 198.114 208.681 195.287C208.681 192.459 206.411 190.167 203.612 190.167Z" fill="white"/>
<path d="M159.107 307.202H120.797C116.693 307.202 113.365 310.566 113.365 314.717V321.74C113.365 325.891 116.693 329.255 120.797 329.255H159.107C163.212 329.255 166.539 325.891 166.539 321.74V314.717C166.539 310.566 163.212 307.202 159.107 307.202Z" fill="#407BFF"/>
<path opacity="0.3" d="M159.107 307.202H120.797C116.693 307.202 113.365 310.566 113.365 314.717V321.74C113.365 325.891 116.693 329.255 120.797 329.255H159.107C163.212 329.255 166.539 325.891 166.539 321.74V314.717C166.539 310.566 163.212 307.202 159.107 307.202Z" fill="white"/>
<path d="M226.945 307.202H188.635C184.531 307.202 181.203 310.566 181.203 314.717V321.74C181.203 325.891 184.531 329.255 188.635 329.255H226.945C231.049 329.255 234.377 325.891 234.377 321.74V314.717C234.377 310.566 231.049 307.202 226.945 307.202Z" fill="#407BFF"/>
<path opacity="0.3" d="M226.945 307.202H188.635C184.531 307.202 181.203 310.566 181.203 314.717V321.74C181.203 325.891 184.531 329.255 188.635 329.255H226.945C231.049 329.255 234.377 325.891 234.377 321.74V314.717C234.377 310.566 231.049 307.202 226.945 307.202Z" fill="white"/>
<path d="M294.775 307.202H256.465C252.361 307.202 249.033 310.566 249.033 314.717V321.74C249.033 325.891 252.361 329.255 256.465 329.255H294.775C298.88 329.255 302.207 325.891 302.207 321.74V314.717C302.207 310.566 298.88 307.202 294.775 307.202Z" fill="#407BFF"/>
<path opacity="0.3" d="M294.775 307.202H256.465C252.361 307.202 249.033 310.566 249.033 314.717V321.74C249.033 325.891 252.361 329.255 256.465 329.255H294.775C298.88 329.255 302.207 325.891 302.207 321.74V314.717C302.207 310.566 298.88 307.202 294.775 307.202Z" fill="white"/>
<path d="M362.602 307.202H324.293C320.188 307.202 316.86 310.566 316.86 314.717V321.74C316.86 325.891 320.188 329.255 324.293 329.255H362.602C366.707 329.255 370.034 325.891 370.034 321.74V314.717C370.034 310.566 366.707 307.202 362.602 307.202Z" fill="#407BFF"/>
<path opacity="0.3" d="M362.602 307.202H324.293C320.188 307.202 316.86 310.566 316.86 314.717V321.74C316.86 325.891 320.188 329.255 324.293 329.255H362.602C366.707 329.255 370.034 325.891 370.034 321.74V314.717C370.034 310.566 366.707 307.202 362.602 307.202Z" fill="white"/>
<path d="M289.187 93.1874C286.569 100.658 283.665 107.882 280.584 115.107C277.465 122.454 273.888 129.592 269.872 136.479C269.331 137.361 268.768 138.244 268.182 139.126L267.752 139.784L267.166 140.6C266.769 141.113 266.393 141.56 266.062 141.995C264.67 143.564 263.196 145.055 261.645 146.462C258.696 149.22 255.692 151.721 252.655 154.189C246.559 159.08 240.331 163.658 233.881 168.002L230.027 163.167L246.261 146.987C248.945 144.296 251.606 141.582 254.091 138.869C255.317 137.518 256.509 136.133 257.492 134.86C257.735 134.547 257.945 134.235 258.133 133.967L258.365 133.587L258.685 133.007C259.116 132.236 259.568 131.488 259.988 130.695C263.367 124.274 266.349 117.296 269.22 110.216C272.092 103.137 274.852 96.0013 277.503 88.9219L289.187 93.1874Z" fill="#E4897B"/>
<path d="M292.288 87.8055C294.795 95.2199 280.063 117.028 280.063 117.028L265.994 109.111C268.392 102.306 271.225 95.667 274.475 89.2348C279.401 79.8104 289.539 79.6652 292.288 87.8055Z" fill="#407BFF"/>
<path opacity="0.7" d="M292.288 87.8055C294.795 95.2199 280.063 117.028 280.063 117.028L265.994 109.111C268.392 102.306 271.225 95.667 274.475 89.2348C279.401 79.8104 289.539 79.6652 292.288 87.8055Z" fill="white"/>
<path opacity="0.31" d="M292.497 88.7322C289.338 87.2024 285.705 88.4865 281.873 94.6057C278.041 100.725 274.783 110.942 274.43 113.856L280.073 117.017C280.073 117.017 293.667 96.8724 292.497 88.7322Z" fill="#407BFF"/>
<path d="M282.757 82.1329C282.757 82.1329 272.244 107.134 279.819 153.687H323.606C324.147 146.886 321.055 113.734 328.642 81.7086C323.822 80.7597 318.945 80.1331 314.043 79.8326C307.845 79.4751 301.632 79.4751 295.435 79.8326C291.157 80.2718 286.919 81.0408 282.757 82.1329Z" fill="#407BFF"/>
<path opacity="0.7" d="M282.757 82.1329C282.757 82.1329 272.244 107.134 279.819 153.687H323.606C324.147 146.886 321.055 113.734 328.642 81.7086C323.822 80.7597 318.945 80.1331 314.043 79.8326C307.845 79.4751 301.632 79.4751 295.435 79.8326C291.157 80.2718 286.919 81.0408 282.757 82.1329Z" fill="white"/>
<path d="M339.123 352.034L332.63 357.907L320.283 344.899L326.766 339.025L339.123 352.034Z" fill="#E4897B"/>
<path d="M316.893 364.261H308.71L307.639 345.089H315.833L316.893 364.261Z" fill="#E4897B"/>
<path d="M320.283 344.899L326.644 351.61L333.149 345.736L326.777 339.025L320.283 344.899Z" fill="#CE6F64"/>
<path d="M315.833 345.089H307.639L308.191 354.971H316.385L315.833 345.089Z" fill="#CE6F64"/>
<path d="M279.82 153.687C279.82 153.687 271.195 214.052 268.258 246.904C265.895 273.267 322.271 351.867 322.271 351.867L333.171 341.493C333.171 341.493 292.001 271.023 295.171 241.678C298.241 213.259 308.643 153.654 308.643 153.654L279.82 153.687Z" fill="#407BFF"/>
<path opacity="0.7" d="M279.82 153.687C279.82 153.687 271.195 214.052 268.258 246.904C265.895 273.267 322.271 351.867 322.271 351.867L333.171 341.493C333.171 341.493 292.001 271.023 295.171 241.678C298.241 213.259 308.643 153.654 308.643 153.654L279.82 153.687Z" fill="black"/>
<path opacity="0.2" d="M295.169 241.711C296.749 227.072 300.282 204.136 303.319 185.354C301.729 182.206 297.268 175.83 297.268 175.83C293.27 189.799 284.579 242.459 296.981 313.577C309.901 334.637 322.27 351.9 322.27 351.9L323.959 324.744C312.022 302.031 292.972 262 295.169 241.711Z" fill="black"/>
<path d="M295.39 153.687C295.39 153.687 294.617 216.944 295.942 240.65C297.389 266.601 304.678 352.581 304.678 352.581H319.675C319.675 352.581 319.222 268.7 320.105 243.017C321.088 215.102 323.628 153.687 323.628 153.687H295.39Z" fill="#407BFF"/>
<path opacity="0.7" d="M295.39 153.687C295.39 153.687 294.617 216.944 295.942 240.65C297.389 266.601 304.678 352.581 304.678 352.581H319.675C319.675 352.581 319.222 268.7 320.105 243.017C321.088 215.102 323.628 153.687 323.628 153.687H295.39Z" fill="black"/>
<path d="M308.268 363.301H317.467C317.621 363.295 317.771 363.35 317.884 363.454C317.998 363.559 318.066 363.704 318.075 363.859L318.528 371.218C318.529 371.41 318.493 371.601 318.422 371.779C318.35 371.957 318.245 372.119 318.112 372.256C317.978 372.392 317.82 372.501 317.645 372.576C317.47 372.651 317.282 372.69 317.092 372.692C313.889 372.636 312.354 372.446 308.313 372.446C305.828 372.446 295.248 372.714 291.814 372.714C288.379 372.714 288.501 369.275 289.925 368.962C296.452 367.567 304.547 365.612 306.866 363.803C307.266 363.484 307.759 363.307 308.268 363.301Z" fill="#263238"/>
<path d="M330.842 355.551L338.727 350.18C338.856 350.077 339.016 350.021 339.18 350.021C339.344 350.021 339.504 350.077 339.633 350.18L345.662 356.333C345.78 356.468 345.867 356.628 345.917 356.801C345.967 356.974 345.978 357.156 345.951 357.333C345.923 357.511 345.858 357.681 345.758 357.83C345.659 357.98 345.528 358.105 345.375 358.198C340.34 362.117 336.706 365.076 333.835 368.337C330.522 372.145 328.733 372.692 321.003 372.692C317.425 372.692 315.404 369.643 316.861 369.174C329.738 365.054 326.292 363.256 329.429 357.215C329.756 356.55 330.242 355.979 330.842 355.551Z" fill="#263238"/>
<path d="M231.882 162.129L223.346 162.43L225.135 169.197C225.135 169.197 234.058 170.001 234.853 167.276L231.882 162.129Z" fill="#E4897B"/>
<path d="M214.146 166.461L220.12 170.001L225.134 169.197L223.356 162.43L214.146 166.461Z" fill="#E4897B"/>
<path opacity="0.31" d="M318.859 89.6142C317.954 94.8847 319.157 107.48 323.63 122.064C323.98 109.569 325.417 97.1302 327.926 84.8908V84.8238C325.054 84.5335 319.732 84.6675 318.859 89.6142Z" fill="#407BFF"/>
<path d="M312.93 58.6392C311.55 64.6913 309.993 75.7906 314.035 79.8552C314.035 79.8552 312.29 84.8688 301.158 84.8688C288.922 84.8688 295.426 79.8552 295.426 79.8552C302.163 78.2472 302.163 73.2335 301.158 68.5325L312.93 58.6392Z" fill="#E4897B"/>
<path d="M300.847 84.8574L297.545 88.4195L299.157 91.8475L301.797 91.9704L304.049 88.6986L300.847 84.8574Z" fill="#407BFF"/>
<path d="M308.136 62.6697L301.168 68.4985C301.419 69.5993 301.574 70.7202 301.632 71.8484C304.194 71.4799 307.794 68.6437 308.158 65.9414C308.353 64.859 308.346 63.7493 308.136 62.6697Z" fill="#CE6F64"/>
<path d="M298.407 38.1155C294.221 39.5559 290.875 50.7781 295.756 53.7483C300.638 56.7185 306.358 35.3797 298.407 38.1155Z" fill="#263238"/>
<path d="M315.544 52.2967C313.048 60.1131 311.988 64.8364 306.952 68.0412C305.328 69.0969 303.449 69.6834 301.518 69.7373C299.588 69.7911 297.68 69.3103 296 68.3467C294.321 67.3831 292.933 65.9735 291.989 64.2704C291.044 62.5673 290.578 60.6354 290.641 58.6838C290.741 51.1689 294.805 39.6005 303.363 38.1489C305.208 37.7889 307.114 37.9252 308.89 38.5441C310.666 39.1631 312.25 40.243 313.483 41.6756C314.717 43.1083 315.557 44.8436 315.918 46.7076C316.28 48.5716 316.151 50.4989 315.544 52.2967Z" fill="#E4897B"/>
<path d="M321.729 39.2319C319.234 45.3287 325.042 40.2369 323.54 47.4727C322.569 52.1849 314.154 63.474 310.907 62.4467C307.66 61.4194 307.693 53.4131 311.835 47.7518C314.22 44.5024 309.063 40.8175 297.478 41.2084C285.894 41.5992 278.892 35.011 294.287 30.176C294.287 30.176 288.61 33.5259 291.979 34.6426C296.749 36.4403 326.732 27.016 321.729 39.2319Z" fill="#263238"/>
<path d="M319.521 42.0236C319.399 42.0236 322.116 41.3424 323.562 36.4404C323.562 36.5186 323.088 43.7432 319.521 42.0236Z" fill="#263238"/>
<path d="M297.843 31.2588C290.72 33.4921 293.669 36.0045 296.618 36.6298L303.376 33.9499C293.106 35.3233 297.843 31.2588 297.843 31.2588Z" fill="#263238"/>
<path d="M316.914 61.8435C315.433 63.2989 313.458 64.126 311.393 64.155C308.665 64.155 308.08 61.5421 309.548 59.3535C310.851 57.3882 313.833 55.0209 316.241 56.0817C318.648 57.1425 318.725 60.0458 316.914 61.8435Z" fill="#E4897B"/>
<path d="M302.968 51.8598C302.802 52.507 302.327 52.9757 301.863 52.8641C301.4 52.7525 301.234 52.1611 301.4 51.5139C301.565 50.8667 302.04 50.3981 302.504 50.5208C302.968 50.6436 303.133 51.2126 302.968 51.8598Z" fill="#263238"/>
<path d="M295.68 50.2407C295.514 50.8879 295.039 51.3566 294.575 51.245C294.111 51.1334 293.946 50.5532 294.111 49.906C294.277 49.2588 294.741 48.7901 295.216 48.9017C295.691 49.0133 295.812 49.5935 295.68 50.2407Z" fill="#263238"/>
<path d="M297.909 51.0793C296.653 52.8872 295.168 54.5203 293.491 55.9367C293.86 56.3511 294.314 56.6788 294.822 56.8968C295.329 57.1147 295.878 57.2177 296.429 57.1985L297.909 51.0793Z" fill="#DE5753"/>
<path d="M299.124 59.5532C298.667 59.5527 298.211 59.5003 297.766 59.397C297.717 59.3838 297.675 59.3522 297.648 59.3087C297.621 59.2651 297.612 59.2129 297.622 59.1627C297.635 59.1132 297.667 59.0706 297.71 59.0436C297.753 59.0167 297.804 59.0074 297.854 59.0176C298.667 59.2006 299.511 59.1953 300.322 59.002C301.133 58.8088 301.89 58.4327 302.536 57.9018C302.574 57.8656 302.623 57.8455 302.675 57.8455C302.726 57.8455 302.776 57.8656 302.813 57.9018C302.848 57.9392 302.868 57.9892 302.868 58.0413C302.868 58.0933 302.848 58.1433 302.813 58.1807C301.787 59.0727 300.477 59.5602 299.124 59.5532Z" fill="#263238"/>
<path d="M305.862 49.9953C305.786 49.9966 305.712 49.9749 305.649 49.9331C305.586 49.8913 305.537 49.8313 305.508 49.7609C305.327 49.313 305.042 48.9159 304.676 48.6031C304.311 48.2903 303.877 48.071 303.41 47.9637C303.359 47.9568 303.31 47.9398 303.266 47.9136C303.221 47.8873 303.182 47.8524 303.152 47.8108C303.121 47.7692 303.098 47.7218 303.086 47.6714C303.073 47.621 303.071 47.5685 303.079 47.5172C303.095 47.4144 303.15 47.322 303.233 47.2596C303.315 47.1971 303.418 47.1694 303.52 47.1823C304.115 47.3049 304.672 47.5722 305.141 47.9613C305.611 48.3503 305.979 48.8492 306.215 49.4148C306.237 49.4615 306.249 49.5122 306.251 49.5638C306.252 49.6154 306.244 49.6667 306.225 49.7148C306.206 49.7629 306.178 49.8066 306.142 49.8433C306.106 49.88 306.064 49.9089 306.016 49.9283C305.97 49.9618 305.917 49.9847 305.862 49.9953Z" fill="#263238"/>
<path d="M293.216 47.036C293.127 47.0353 293.041 47.0038 292.973 46.9467C292.894 46.8794 292.843 46.7833 292.833 46.6791C292.823 46.5749 292.853 46.4707 292.918 46.3888C293.307 45.8997 293.802 45.5074 294.365 45.2424C294.928 44.9773 295.544 44.8465 296.164 44.8601C296.215 44.8643 296.265 44.8786 296.31 44.9023C296.355 44.9259 296.396 44.9584 296.428 44.9978C296.461 45.0372 296.486 45.0828 296.501 45.1319C296.517 45.1811 296.522 45.2328 296.518 45.2841C296.515 45.336 296.502 45.3868 296.479 45.4334C296.456 45.4799 296.424 45.5212 296.385 45.5547C296.345 45.5882 296.3 45.6131 296.25 45.628C296.201 45.6429 296.149 45.6474 296.098 45.6412C295.602 45.6359 295.11 45.7458 294.662 45.9625C294.214 46.1791 293.821 46.4968 293.514 46.8909C293.479 46.9365 293.433 46.9733 293.382 46.9984C293.33 47.0236 293.273 47.0364 293.216 47.036Z" fill="#263238"/>
<path d="M330.765 87.4146C331.626 88.7657 332.344 89.9605 333.073 91.2558C333.802 92.5511 334.498 93.8017 335.182 95.097C336.53 97.6764 337.8 100.312 338.959 103.003C341.391 108.512 343.217 114.275 344.404 120.188L344.514 120.757L344.569 121.036L344.647 121.505C344.74 122.13 344.788 122.761 344.79 123.392C344.779 124.45 344.668 125.505 344.459 126.541C344.085 128.251 343.545 129.919 342.846 131.522C341.607 134.329 340.129 137.023 338.429 139.572C335.217 144.421 331.564 148.955 327.518 153.117L322.714 149.22C325.387 144.508 328.048 139.617 330.279 134.827C331.376 132.536 332.313 130.17 333.084 127.747C333.399 126.737 333.614 125.697 333.725 124.643C333.763 124.298 333.763 123.95 333.725 123.605C333.725 123.504 333.725 123.415 333.658 123.404C333.592 123.392 333.658 123.404 333.658 123.348L333.592 123.124L333.46 122.667C332.762 120.204 331.932 117.781 330.975 115.409C330.003 112.985 328.921 110.574 327.783 108.173C326.646 105.772 325.42 103.405 324.161 101.037C323.543 99.8539 322.891 98.6814 322.24 97.5201L320.296 94.1702L330.765 87.4146Z" fill="#E4897B"/>
<path d="M305.375 364.729C304.824 364.785 304.272 364.63 303.829 364.294C303.704 364.154 303.616 363.984 303.574 363.801C303.531 363.618 303.536 363.426 303.586 363.245C303.611 363.123 303.665 363.009 303.744 362.914C303.823 362.818 303.924 362.744 304.039 362.698C305.044 362.297 307.352 363.903 307.617 364.082C307.65 364.102 307.675 364.133 307.689 364.169C307.703 364.205 307.705 364.245 307.694 364.283C307.689 364.32 307.672 364.355 307.646 364.383C307.621 364.411 307.587 364.43 307.551 364.439C306.837 364.612 306.108 364.71 305.375 364.729ZM304.414 363.022C304.338 363.009 304.259 363.009 304.182 363.022C304.126 363.042 304.077 363.078 304.04 363.126C304.003 363.173 303.979 363.23 303.973 363.29C303.932 363.407 303.924 363.532 303.947 363.654C303.97 363.775 304.025 363.888 304.105 363.981C304.481 364.361 305.552 364.406 307.021 364.115C306.24 363.568 305.35 363.199 304.414 363.033V363.022Z" fill="white"/>
<path d="M307.507 364.451H307.408C306.59 363.96 305.376 362.218 305.563 361.324C305.596 361.161 305.682 361.013 305.809 360.905C305.935 360.798 306.094 360.737 306.259 360.733C306.405 360.714 306.553 360.728 306.692 360.774C306.832 360.82 306.959 360.898 307.065 361.001C307.894 361.816 307.706 364.194 307.706 364.295C307.702 364.328 307.69 364.36 307.67 364.387C307.651 364.414 307.625 364.436 307.595 364.451H307.507ZM306.403 361.101H306.314C306.038 361.101 305.972 361.269 305.95 361.38C305.828 361.972 306.635 363.278 307.341 363.881C307.443 362.976 307.257 362.061 306.811 361.269C306.756 361.214 306.69 361.171 306.618 361.142C306.546 361.114 306.469 361.1 306.392 361.101H306.403Z" fill="white"/>
<path d="M325.542 360.039C325.337 360.045 325.134 360.007 324.945 359.928C324.8 359.869 324.671 359.775 324.569 359.654C324.467 359.534 324.395 359.39 324.36 359.236C324.332 359.142 324.328 359.042 324.35 358.946C324.371 358.85 324.416 358.762 324.482 358.689C325.221 357.785 329.098 358.053 329.539 358.086C329.581 358.088 329.62 358.103 329.652 358.129C329.684 358.155 329.706 358.191 329.716 358.231C329.725 358.272 329.721 358.314 329.705 358.352C329.689 358.389 329.662 358.422 329.628 358.443C328.395 359.265 327.001 359.809 325.542 360.039ZM327.883 358.41C326.525 358.41 325.1 358.544 324.78 358.934C324.761 358.965 324.751 358.999 324.751 359.035C324.751 359.07 324.761 359.105 324.78 359.135C324.798 359.232 324.84 359.322 324.902 359.398C324.964 359.474 325.043 359.533 325.133 359.57C325.752 359.827 327.143 359.403 328.899 358.455L327.883 358.41Z" fill="white"/>
<path d="M329.528 358.476C328.423 358.476 325.939 357.617 325.751 356.724C325.751 356.501 325.751 356.188 326.281 355.931C328.181 355.027 329.649 358.063 329.716 358.164C329.729 358.196 329.736 358.23 329.736 358.264C329.736 358.299 329.729 358.333 329.716 358.365C329.697 358.399 329.67 358.428 329.637 358.447C329.604 358.467 329.566 358.477 329.528 358.476ZM326.977 356.166C326.789 356.164 326.604 356.206 326.436 356.289C326.204 356.4 326.093 356.523 326.115 356.635C326.226 357.159 328.015 357.896 329.185 358.052C328.832 357.449 327.982 356.166 326.977 356.166Z" fill="white"/>
<path d="M324.901 147.411L316.795 145.971L320.98 155.518C320.98 155.518 328.413 155.518 328.081 151.587L324.901 147.411Z" fill="#E4897B"/>
<path d="M310.675 150.772L314.496 158.477L320.934 155.518L316.749 145.971L310.675 150.772Z" fill="#E4897B"/>
<path d="M333.844 340.902L321.608 352.537L317.677 348.26L331.658 335.374L333.844 340.902Z" fill="#407BFF"/>
<path opacity="0.6" d="M333.844 340.902L321.608 352.537L317.677 348.26L331.658 335.374L333.844 340.902Z" fill="white"/>
<path d="M320.283 352.593H304.082L303.177 346.831L321.056 347.735L320.283 352.593Z" fill="#407BFF"/>
<path opacity="0.6" d="M320.283 352.593H304.082L303.177 346.831L321.056 347.735L320.283 352.593Z" fill="white"/>
<path d="M328.642 81.7088C336.372 82.8254 344.29 109.982 344.29 109.982L327.725 119.272C327.725 119.272 321 106.364 317.786 96.7833C314.418 86.7448 320.37 80.4805 328.642 81.7088Z" fill="#407BFF"/>
<path opacity="0.7" d="M328.642 81.7088C336.372 82.8254 344.29 109.982 344.29 109.982L327.725 119.272C327.725 119.272 321 106.364 317.786 96.7833C314.418 86.7448 320.37 80.4805 328.642 81.7088Z" fill="white"/>
<path opacity="0.2" d="M300.847 84.8574L297.545 88.4195L299.157 91.8475L301.797 91.9704L304.049 88.6986L300.847 84.8574Z" fill="black"/>
<path d="M299.445 91.2334C299.445 91.2334 293.161 117.552 292.918 123.024C292.576 130.55 295.69 143.402 295.69 143.402C295.69 143.402 300.107 132.716 301.013 122.789C301.918 112.863 301.245 96.8054 301.653 91.2334H299.445Z" fill="#407BFF"/>
<path opacity="0.2" d="M299.445 91.2334C299.445 91.2334 293.161 117.552 292.918 123.024C292.576 130.55 295.69 143.402 295.69 143.402C295.69 143.402 300.107 132.716 301.013 122.789C301.918 112.863 301.245 96.8054 301.653 91.2334H299.445Z" fill="black"/>
<path d="M300.848 84.8463C302.106 86.9062 302.835 89.2515 302.968 91.6689C302.968 91.6689 316.75 86.7558 316.099 79.5535C316.099 79.5535 314.144 78.381 312.907 77.4319C312.907 77.4319 312.443 81.9654 300.848 84.8463Z" fill="#407BFF"/>
<path opacity="0.6" d="M300.848 84.8463C302.106 86.9062 302.835 89.2515 302.968 91.6689C302.968 91.6689 316.75 86.7558 316.099 79.5535C316.099 79.5535 314.144 78.381 312.907 77.4319C312.907 77.4319 312.443 81.9654 300.848 84.8463Z" fill="white"/>
<path d="M300.847 84.8463C299.581 86.7963 298.668 88.9592 298.153 91.2334C298.153 91.2334 291.913 86.9679 293.791 79.8549C294.934 79.389 296.112 79.0157 297.313 78.7383C297.313 78.7383 296.496 83.3388 300.847 84.8463Z" fill="#407BFF"/>
<path opacity="0.6" d="M300.847 84.8463C299.581 86.7963 298.668 88.9592 298.153 91.2334C298.153 91.2334 291.913 86.9679 293.791 79.8549C294.934 79.389 296.112 79.0157 297.313 78.7383C297.313 78.7383 296.496 83.3388 300.847 84.8463Z" fill="white"/>
</g>
<defs>
<clipPath id="clip0_46015_92558">
<rect width="400" height="400" fill="white"/>
</clipPath>
</defs>
</svg>
