<svg width="356" height="329" viewBox="0 0 356 329" fill="none" xmlns="http://www.w3.org/2000/svg">
<g clip-path="url(#clip0_4939_14971)">
<g clip-path="url(#clip1_4939_14971)">
<path d="M411 295.944H-54V296.177H411V295.944Z" fill="#EBEBEB"/>
<path d="M364.407 310.928H333.605V311.161H364.407V310.928Z" fill="#EBEBEB"/>
<path d="M254.035 313.461H245.953V313.694H254.035V313.461Z" fill="#EBEBEB"/>
<path d="M332.675 302.286H314.829V302.519H332.675V302.286Z" fill="#EBEBEB"/>
<path d="M34.9545 303.85H-5.21222V304.083H34.9545V303.85Z" fill="#EBEBEB"/>
<path d="M49.1277 303.85H43.2408V304.083H49.1277V303.85Z" fill="#EBEBEB"/>
<path d="M155.389 307.78H68.2671V308.013H155.389V307.78Z" fill="#EBEBEB"/>
<path d="M166.419 254.409H-13.1637C-16.0932 254.409 -18.474 252.025 -18.474 249.092V-3.68246C-18.474 -6.61595 -16.0932 -9 -13.1637 -9H166.419C169.349 -9 171.73 -6.61595 171.73 -3.68246V249.092C171.73 252.025 169.349 254.409 166.419 254.409ZM-13.1637 -8.76718C-15.963 -8.76718 -18.2415 -6.48557 -18.2415 -3.68246V249.092C-18.2415 251.895 -15.963 254.177 -13.1637 254.177H166.419C169.219 254.177 171.497 251.895 171.497 249.092V-3.68246C171.497 -6.48557 169.219 -8.76718 166.419 -8.76718H-13.1637Z" fill="#EBEBEB"/>
<path d="M367.578 254.409H187.995C185.066 254.409 182.685 252.025 182.685 249.092V-3.68246C182.685 -6.61595 185.066 -9 187.995 -9H367.578C370.508 -9 372.889 -6.61595 372.889 -3.68246V249.092C372.889 252.025 370.508 254.409 367.578 254.409ZM187.995 -8.76718C185.196 -8.76718 182.917 -6.48557 182.917 -3.68246V249.092C182.917 251.895 185.196 254.177 187.995 254.177H367.578C370.378 254.177 372.656 251.895 372.656 249.092V-3.68246C372.656 -6.48557 370.378 -8.76718 367.578 -8.76718H187.995Z" fill="#EBEBEB"/>
<path d="M147.457 40.4318H30.7695V161.161H147.457V40.4318Z" fill="#EBEBEB"/>
<path d="M151.53 40.4318H34.8429V161.161H151.53V40.4318Z" fill="#F0F0F0"/>
<path d="M148.442 43.3H37.791V158.368H148.442V43.3Z" fill="#E0E0E0"/>
<path d="M145.68 43.3H37.791V158.368H145.68V43.3Z" fill="#F5F5F5"/>
<path d="M92.847 43.3H90.6522V158.368H92.847V43.3Z" fill="#EBEBEB"/>
<path d="M78.0414 43.3L47.2956 158.358H44.3382L75.0933 43.3H78.0414Z" fill="white"/>
<path d="M93.7863 41.5214H91.9077V160.565H93.7863V41.5214Z" fill="#F0F0F0"/>
<path d="M66.8814 43.3L37.791 152.193V92.3313L50.8854 43.3H66.8814Z" fill="white"/>
<path d="M145.671 53.7396V64.7844L120.663 158.358H117.715L145.671 53.7396Z" fill="white"/>
<path d="M145.671 76.0435V135.896L139.672 158.358H123.676L145.671 76.0435Z" fill="white"/>
<path d="M240.308 203.218H352.038C352.038 207.324 348.811 210.696 344.71 210.882C332.703 211.422 314.234 213.331 308.375 219.98C297.456 232.385 298.516 275.94 311.592 286.035C315.694 289.202 327.644 295.478 327.644 295.478H264.692C264.692 295.478 275.862 289.071 279.749 286.035C292.751 275.866 293.132 232.329 282.158 219.98C276.531 213.648 259.215 211.599 247.599 210.956C243.498 210.733 240.299 207.324 240.299 203.218H240.308Z" fill="#F5F5F5"/>
<path d="M338.19 211.292C326.844 212.204 313.238 214.449 308.365 219.98C306.924 221.619 305.696 223.808 304.673 226.387H285.906C284.855 223.808 283.609 221.619 282.158 219.98C277.266 214.477 263.549 212.214 252.416 211.292H338.19Z" fill="#E6E6E6"/>
<path d="M287.896 203.273L289.421 185.887H267.389L265.874 203.273H287.896Z" fill="#EBEBEB"/>
<path d="M287.896 203.273L289.421 185.887H290.602L289.086 203.273H287.896Z" fill="#E0E0E0"/>
<path d="M285.803 201.504L287.012 187.656H269.482L268.273 201.504H285.803Z" fill="#F0F0F0"/>
<path d="M284.464 200.359L285.478 188.792H270.83L269.817 200.359H284.464Z" fill="#FAFAFA"/>
<path d="M295.038 203.218H317.163L314.708 175.121H292.583L295.038 203.218Z" fill="#E6E6E6"/>
<path d="M295.038 203.218H293.987L291.532 175.121H292.583L295.038 203.218Z" fill="#E0E0E0"/>
<path d="M297.047 200.359H314.661L312.708 177.989H295.094L297.047 200.359Z" fill="#F0F0F0"/>
<path d="M298.34 198.515H313.052L311.416 179.833H296.703L298.34 198.515Z" fill="#FAFAFA"/>
<path d="M305.771 188.233C304.775 189.23 303.148 189.23 302.153 188.233C301.158 187.237 301.158 185.607 302.153 184.611C303.148 183.614 304.775 183.614 305.771 184.611C306.766 185.607 306.766 187.237 305.771 188.233Z" fill="#EBEBEB"/>
<path d="M304.682 191.372C305.417 190.636 306.598 190.636 307.333 191.372C308.514 192.554 307.677 194.575 306.003 194.575C304.329 194.575 303.501 192.554 304.682 191.372Z" fill="#F0F0F0"/>
<path d="M117.176 289.732H138.724L127.396 197.341C126.913 193.43 123.36 190.264 119.454 190.264H25.4313L39.2139 289.732H117.176Z" fill="#F5F5F5"/>
<path d="M48.8394 289.732H27.2913L15.9639 197.341C15.4803 193.43 18.261 190.264 22.167 190.264H29.5698C33.4758 190.264 37.0284 193.43 37.512 197.341L48.8394 289.732Z" fill="#F0F0F0"/>
<path d="M56.7723 289.621L52.8663 244.938C52.6896 242.945 51.1551 241.334 49.1649 241.083L47.556 240.878C44.8962 240.533 42.8316 238.382 42.5898 235.709L41.8737 227.561C41.5854 224.218 44.208 221.349 47.556 221.349H11.5464C8.1984 221.349 5.5665 224.218 5.8641 227.561L6.5802 235.709C6.8127 238.392 8.8773 240.543 11.5464 240.878L13.1553 241.083C15.1362 241.334 16.68 242.945 16.8567 244.938L20.7627 289.621C21.051 292.88 23.7759 295.376 27.0402 295.376H63.0498C59.7855 295.376 57.0606 292.88 56.7723 289.621Z" fill="#E6E6E6"/>
<path d="M155.882 233.754C156.496 226.732 162.364 221.349 169.395 221.349H138.045C131.014 221.349 125.146 226.732 124.532 233.754L121.435 269.179H152.785L155.882 233.754Z" fill="#E6E6E6"/>
<path d="M183.317 221.349H169.395C162.364 221.349 156.496 226.732 155.882 233.754L152.785 269.179H78.1158L75.0189 233.754C74.4051 226.732 68.5368 221.349 61.506 221.349H47.5839C44.2359 221.349 41.604 224.218 41.9016 227.561L42.6177 235.709C42.8502 238.392 44.9148 240.543 47.5839 240.878L49.1928 241.083C51.1737 241.334 52.7175 242.945 52.8942 244.938L56.8002 289.621C57.0885 292.88 59.8134 295.376 63.0777 295.376H167.879C171.144 295.376 173.869 292.88 174.157 289.621L178.063 244.938C178.24 242.945 179.774 241.334 181.764 241.083L183.373 240.878C186.033 240.533 188.098 238.382 188.339 235.709L189.055 227.561C189.344 224.218 186.721 221.349 183.373 221.349H183.317Z" fill="#F0F0F0"/>
<path d="M333.01 78.325V49.4464H292.211V78.325H333.01Z" fill="#E0E0E0"/>
<path d="M331.085 76.4346V51.3276H294.118V76.4346H331.085Z" fill="#EBEBEB"/>
<path d="M318.865 114.598V85.7194H278.066V114.598H318.865Z" fill="#E0E0E0"/>
<path d="M316.94 112.708V87.6005H279.972V112.708H316.94Z" fill="#EBEBEB"/>
<path d="M258.499 78.3157H284.464V41.5306H258.499V78.3157Z" fill="#E0E0E0"/>
<path d="M260.191 76.5836H282.772V43.2535H260.191V76.5836Z" fill="#EBEBEB"/>
<path d="M243.73 126.574H272.569V85.7193H243.73V126.574Z" fill="#E0E0E0"/>
<path d="M245.618 124.656H270.691V87.6378H245.618V124.656Z" fill="#EBEBEB"/>
<path d="M217.746 55.7046V78.3158H249.692V55.7046H217.746Z" fill="#E0E0E0"/>
<path d="M219.243 57.1853V76.8444H248.185V57.1853H219.243Z" fill="#EBEBEB"/>
<path d="M178.5 338C278.087 338 358.818 333.28 358.818 327.458C358.818 321.636 278.087 316.916 178.5 316.916C78.9133 316.916 -1.81769 321.636 -1.81769 327.458C-1.81769 333.28 78.9133 338 178.5 338Z" fill="#F5F5F5"/>
<path d="M95.6742 321.33H59.3763V328.464H95.6742V321.33Z" fill="#407BFF"/>
<path opacity="0.2" d="M95.6742 321.33H87.6762V328.464H95.6742V321.33Z" fill="black"/>
<path opacity="0.2" d="M83.8353 328.473H86.7462V321.34H83.8353V328.473Z" fill="black"/>
<path opacity="0.2" d="M80.1061 328.473H82.0963V321.34H80.1061V328.473Z" fill="black"/>
<path opacity="0.2" d="M76.4511 328.473H77.4462V321.34H76.4511V328.473Z" fill="black"/>
<path opacity="0.2" d="M70.434 328.473H70.9362V321.34H70.434V328.473Z" fill="black"/>
<path d="M93.9631 314.234H57.6652V321.368H93.9631V314.234Z" fill="#407BFF"/>
<path opacity="0.2" d="M93.9631 314.234H85.9651V321.368H93.9631V314.234Z" fill="black"/>
<path opacity="0.2" d="M82.1241 321.377H85.035V314.243H82.1241V321.377Z" fill="black"/>
<path opacity="0.2" d="M78.3949 321.377H80.3851V314.243H78.3949V321.377Z" fill="black"/>
<path opacity="0.2" d="M74.7399 321.377H75.735V314.243H74.7399V321.377Z" fill="black"/>
<path opacity="0.2" d="M68.7228 321.377H69.225V314.243H68.7228V321.377Z" fill="black"/>
<path d="M97.2087 307.138H60.9108V314.271H97.2087V307.138Z" fill="#407BFF"/>
<path opacity="0.2" d="M97.2087 307.138H89.2108V314.271H97.2087V307.138Z" fill="black"/>
<path opacity="0.2" d="M85.3698 314.281H88.2807V307.147H85.3698V314.281Z" fill="black"/>
<path opacity="0.2" d="M81.6405 314.281H83.6307V307.147H81.6405V314.281Z" fill="black"/>
<path opacity="0.2" d="M77.9856 314.281H78.9807V307.147H77.9856V314.281Z" fill="black"/>
<path opacity="0.2" d="M71.9686 314.281H72.4708V307.147H71.9686V314.281Z" fill="black"/>
<path d="M95.6742 300.041H59.3763V307.175H95.6742V300.041Z" fill="#407BFF"/>
<path opacity="0.2" d="M95.6742 300.041H87.6762V307.175H95.6742V300.041Z" fill="black"/>
<path opacity="0.2" d="M83.8353 307.184H86.7462V300.051H83.8353V307.184Z" fill="black"/>
<path opacity="0.2" d="M80.1061 307.184H82.0963V300.051H80.1061V307.184Z" fill="black"/>
<path opacity="0.2" d="M76.4511 307.184H77.4462V300.051H76.4511V307.184Z" fill="black"/>
<path opacity="0.2" d="M70.434 307.184H70.9362V300.051H70.434V307.184Z" fill="black"/>
<path d="M94.7442 292.945H58.4464V300.079H94.7442V292.945Z" fill="#407BFF"/>
<path opacity="0.2" d="M94.7442 292.945H86.7462V300.079H94.7442V292.945Z" fill="black"/>
<path opacity="0.2" d="M82.9053 300.088H85.8162V292.954H82.9053V300.088Z" fill="black"/>
<path opacity="0.2" d="M79.1761 300.088H81.1663V292.954H79.1761V300.088Z" fill="black"/>
<path opacity="0.2" d="M75.5211 300.088H76.5162V292.954H75.5211V300.088Z" fill="black"/>
<path opacity="0.2" d="M69.504 300.088H70.0062V292.954H69.504V300.088Z" fill="black"/>
<path d="M95.6742 285.849H59.3763V292.982H95.6742V285.849Z" fill="#407BFF"/>
<path opacity="0.2" d="M95.6742 285.849H87.6762V292.982H95.6742V285.849Z" fill="black"/>
<path opacity="0.2" d="M83.8353 292.992H86.7462V285.858H83.8353V292.992Z" fill="black"/>
<path opacity="0.2" d="M80.1061 292.992H82.0963V285.858H80.1061V292.992Z" fill="black"/>
<path opacity="0.2" d="M76.4511 292.992H77.4462V285.858H76.4511V292.992Z" fill="black"/>
<path opacity="0.2" d="M70.434 292.992H70.9362V285.858H70.434V292.992Z" fill="black"/>
<path d="M95.6742 278.753H59.3763V285.886H95.6742V278.753Z" fill="#407BFF"/>
<path opacity="0.2" d="M95.6742 278.753H87.6762V285.886H95.6742V278.753Z" fill="black"/>
<path opacity="0.2" d="M83.8353 285.896H86.7462V278.762H83.8353V285.896Z" fill="black"/>
<path opacity="0.2" d="M80.1061 285.896H82.0963V278.762H80.1061V285.896Z" fill="black"/>
<path opacity="0.2" d="M76.4511 285.896H77.4462V278.762H76.4511V285.896Z" fill="black"/>
<path opacity="0.2" d="M70.434 285.896H70.9362V278.762H70.434V285.896Z" fill="black"/>
<path d="M93.8143 271.656H57.5164V278.79H93.8143V271.656Z" fill="#407BFF"/>
<path opacity="0.2" d="M93.8142 271.656H85.8162V278.79H93.8142V271.656Z" fill="black"/>
<path opacity="0.2" d="M81.9753 278.799H84.8862V271.666H81.9753V278.799Z" fill="black"/>
<path opacity="0.2" d="M78.2461 278.799H80.2363V271.666H78.2461V278.799Z" fill="black"/>
<path opacity="0.2" d="M74.5912 278.799H75.5862V271.666H74.5912V278.799Z" fill="black"/>
<path opacity="0.2" d="M68.574 278.799H69.0762V271.666H68.574V278.799Z" fill="black"/>
<path d="M95.6742 264.56H59.3763V271.694H95.6742V264.56Z" fill="#407BFF"/>
<path opacity="0.2" d="M95.6742 264.56H87.6762V271.694H95.6742V264.56Z" fill="black"/>
<path opacity="0.2" d="M83.8353 271.703H86.7462V264.569H83.8353V271.703Z" fill="black"/>
<path opacity="0.2" d="M80.1061 271.703H82.0963V264.569H80.1061V271.703Z" fill="black"/>
<path opacity="0.2" d="M76.4511 271.703H77.4462V264.569H76.4511V271.703Z" fill="black"/>
<path opacity="0.2" d="M70.434 271.703H70.9362V264.569H70.434V271.703Z" fill="black"/>
<path d="M97.5342 257.464H61.2363V264.597H97.5342V257.464Z" fill="#407BFF"/>
<path opacity="0.2" d="M97.5342 257.464H89.5362V264.597H97.5342V257.464Z" fill="black"/>
<path opacity="0.2" d="M85.6953 264.607H88.6062V257.473H85.6953V264.607Z" fill="black"/>
<path opacity="0.2" d="M81.966 264.607H83.9562V257.473H81.966V264.607Z" fill="black"/>
<path opacity="0.2" d="M78.3111 264.607H79.3062V257.473H78.3111V264.607Z" fill="black"/>
<path opacity="0.2" d="M72.294 264.607H72.7962V257.473H72.294V264.607Z" fill="black"/>
<path d="M65.3748 321.33H29.0769V328.464H65.3748V321.33Z" fill="#407BFF"/>
<path opacity="0.2" d="M65.3841 321.33H57.3861V328.464H65.3841V321.33Z" fill="black"/>
<path opacity="0.2" d="M53.5452 328.473H56.4561V321.34H53.5452V328.473Z" fill="black"/>
<path opacity="0.2" d="M49.8159 328.473H51.8061V321.34H49.8159V328.473Z" fill="black"/>
<path opacity="0.2" d="M46.161 328.473H47.1561V321.34H46.161V328.473Z" fill="black"/>
<path opacity="0.2" d="M40.1346 328.473H40.6368V321.34H40.1346V328.473Z" fill="black"/>
<path d="M63.5148 314.234H27.2169V321.368H63.5148V314.234Z" fill="#407BFF"/>
<path opacity="0.2" d="M63.5241 314.234H55.5261V321.368H63.5241V314.234Z" fill="black"/>
<path opacity="0.2" d="M51.6852 321.377H54.5961V314.243H51.6852V321.377Z" fill="black"/>
<path opacity="0.2" d="M47.9559 321.377H49.9461V314.243H47.9559V321.377Z" fill="black"/>
<path opacity="0.2" d="M44.301 321.377H45.2961V314.243H44.301V321.377Z" fill="black"/>
<path opacity="0.2" d="M38.2746 321.377H38.7768V314.243H38.2746V321.377Z" fill="black"/>
<path d="M65.3748 307.138H29.0769V314.271H65.3748V307.138Z" fill="#407BFF"/>
<path opacity="0.2" d="M65.3841 307.138H57.3861V314.271H65.3841V307.138Z" fill="black"/>
<path opacity="0.2" d="M53.5452 314.281H56.4561V307.147H53.5452V314.281Z" fill="black"/>
<path opacity="0.2" d="M49.8159 314.281H51.8061V307.147H49.8159V314.281Z" fill="black"/>
<path opacity="0.2" d="M46.161 314.281H47.1561V307.147H46.161V314.281Z" fill="black"/>
<path opacity="0.2" d="M40.1346 314.281H40.6368V307.147H40.1346V314.281Z" fill="black"/>
<path d="M64.4448 300.042H28.1469V307.175H64.4448V300.042Z" fill="#407BFF"/>
<path opacity="0.2" d="M64.4541 300.042H56.4561V307.175H64.4541V300.042Z" fill="black"/>
<path opacity="0.2" d="M52.6152 307.184H55.5261V300.051H52.6152V307.184Z" fill="black"/>
<path opacity="0.2" d="M48.8859 307.184H50.8761V300.051H48.8859V307.184Z" fill="black"/>
<path opacity="0.2" d="M45.231 307.184H46.2261V300.051H45.231V307.184Z" fill="black"/>
<path opacity="0.2" d="M39.2046 307.184H39.7068V300.051H39.2046V307.184Z" fill="black"/>
<path d="M65.3748 292.945H29.0769V300.079H65.3748V292.945Z" fill="#407BFF"/>
<path opacity="0.2" d="M65.3841 292.945H57.3861V300.079H65.3841V292.945Z" fill="black"/>
<path opacity="0.2" d="M53.5452 300.088H56.4561V292.955H53.5452V300.088Z" fill="black"/>
<path opacity="0.2" d="M49.8159 300.088H51.8061V292.955H49.8159V300.088Z" fill="black"/>
<path opacity="0.2" d="M46.161 300.088H47.1561V292.955H46.161V300.088Z" fill="black"/>
<path opacity="0.2" d="M40.1346 300.088H40.6368V292.955H40.1346V300.088Z" fill="black"/>
<path d="M62.5848 285.849H26.2869V292.982H62.5848V285.849Z" fill="#407BFF"/>
<path opacity="0.2" d="M62.5941 285.849H54.5961V292.982H62.5941V285.849Z" fill="black"/>
<path opacity="0.2" d="M50.7552 292.992H53.6661V285.858H50.7552V292.992Z" fill="black"/>
<path opacity="0.2" d="M47.0259 292.992H49.0161V285.858H47.0259V292.992Z" fill="black"/>
<path opacity="0.2" d="M43.3711 292.992H44.3661V285.858H43.3711V292.992Z" fill="black"/>
<path opacity="0.2" d="M37.3446 292.992H37.8468V285.858H37.3446V292.992Z" fill="black"/>
<path d="M247.85 278.734L252.63 328.473H222.461L207.376 293.132C207.376 293.132 228.72 275.484 247.85 278.734Z" fill="#407BFF"/>
<path d="M305.612 263.936L314.01 328.464H283.841L265.771 286.128C265.771 286.128 275.806 263.703 305.612 263.936Z" fill="#407BFF"/>
<path opacity="0.2" d="M247.85 278.734L252.63 328.473H222.461L207.376 293.132C207.376 293.132 228.72 275.484 247.85 278.734Z" fill="white"/>
<path opacity="0.2" d="M305.612 263.936L314.01 328.464H283.841L265.771 286.128C265.771 286.128 275.806 263.703 305.612 263.936Z" fill="white"/>
<path opacity="0.2" d="M252.63 328.464H222.461L207.376 293.122C207.376 293.122 228.72 275.475 247.85 278.734L251.105 312.642L252.63 328.464Z" fill="black"/>
<path opacity="0.2" d="M314.01 328.464H283.841L265.771 286.128C265.771 286.128 275.815 263.703 305.612 263.936L307.779 280.587L314.01 328.464Z" fill="black"/>
<path opacity="0.2" d="M251.105 312.642C241.833 316.441 232.077 319.673 222.108 321.908L222.461 328.464L207.376 293.122C207.376 293.122 228.72 275.475 247.85 278.734L251.105 312.642Z" fill="black"/>
<path opacity="0.2" d="M277.331 299.986L283.841 328.464L265.771 286.128C265.771 286.128 275.815 263.703 305.612 263.936L307.779 280.587C299.828 286.333 289.402 293.29 277.331 299.986Z" fill="black"/>
<path d="M216.974 300.945C266.39 300.945 306.449 268.982 306.449 229.554C306.449 190.126 266.39 158.163 216.974 158.163C167.558 158.163 127.499 190.126 127.499 229.554C127.499 268.982 167.558 300.945 216.974 300.945Z" fill="#407BFF"/>
<path opacity="0.2" d="M306.45 229.544C306.45 231.314 306.366 233.074 306.208 234.815C304.72 251.057 296.424 265.799 283.59 277.216C267.213 291.781 243.433 300.945 216.974 300.945C167.563 300.945 127.508 268.974 127.508 229.544C127.508 228.762 127.527 227.989 127.564 227.216C129.099 188.867 168.54 158.153 216.974 158.153C239.173 158.153 259.475 164.598 275.109 175.27C294.294 188.373 306.45 207.827 306.45 229.544Z" fill="white"/>
<path opacity="0.2" d="M289.514 271.331C289.96 270.837 290.398 270.343 290.835 269.84C291.151 269.468 291.467 269.095 291.774 268.723C292.174 268.239 292.574 267.745 292.955 267.242C293.262 266.851 293.569 266.46 293.866 266.06C294.238 265.566 294.592 265.063 294.955 264.551C295.243 264.15 295.531 263.75 295.801 263.34C296.154 262.809 296.498 262.279 296.833 261.738C297.084 261.347 297.345 260.956 297.577 260.565C298.07 259.755 298.535 258.926 298.991 258.097C299.242 257.632 299.484 257.166 299.725 256.7C300.023 256.114 300.33 255.536 300.609 254.94C300.823 254.484 301.018 254.028 301.232 253.571C301.474 253.04 301.706 252.51 301.93 251.979C302.125 251.504 302.311 251.02 302.497 250.545C302.701 250.014 302.906 249.483 303.092 248.943C303.259 248.459 303.427 247.974 303.585 247.481C303.762 246.931 303.929 246.382 304.096 245.832C304.236 245.348 304.375 244.873 304.506 244.389C304.664 243.802 304.803 243.225 304.933 242.629C305.045 242.163 305.147 241.707 305.25 241.241C305.389 240.58 305.501 239.91 305.612 239.239C305.677 238.839 305.761 238.447 305.817 238.056C305.975 236.985 306.115 235.905 306.208 234.825C306.366 233.083 306.449 231.323 306.449 229.554C306.449 207.837 294.294 188.382 275.108 175.279C264.413 171.079 248.11 188.494 246.604 213.312C245.33 234.35 255.113 255.76 269.612 268.499C251.858 286.482 220.638 296.745 186.265 288.624C149.8 280.01 129.089 246.577 127.564 227.226C127.527 227.999 127.508 228.772 127.508 229.554C127.508 268.984 167.563 300.954 216.974 300.954C243.433 300.954 267.203 291.79 283.581 277.225C283.618 277.188 283.655 277.151 283.692 277.123C283.841 276.993 283.971 276.862 284.12 276.732C284.827 276.089 285.524 275.447 286.194 274.786C286.482 274.506 286.752 274.217 287.031 273.938C287.552 273.417 288.063 272.895 288.565 272.364C288.882 272.029 289.189 271.684 289.495 271.349L289.514 271.331Z" fill="black"/>
<path opacity="0.2" d="M254.565 166.768L248.994 167.96L242.921 169.263C222.191 161.236 198.142 163.462 186.861 165.194C183.076 165.781 180.723 166.302 180.416 166.377L191.232 162.065C229.008 153.898 254.565 166.768 254.565 166.768Z" fill="black"/>
<path opacity="0.2" d="M248.994 167.96L242.921 169.263C222.191 161.236 198.142 163.462 186.861 165.194L191.25 163.443C218.527 157.902 239.443 164.076 248.994 167.96Z" fill="black"/>
<path d="M293.699 182.888C293.699 182.888 300.562 169.701 322.882 165.483C322.882 165.483 326.314 166.2 322.882 169.506C322.882 169.506 323.617 187.349 320.678 196.54C317.74 205.723 293.699 182.888 293.699 182.888Z" fill="#407BFF"/>
<path opacity="0.2" d="M322.882 169.506C322.882 169.506 323.617 187.358 320.678 196.54C320.557 196.904 320.409 197.22 320.223 197.49C319.544 198.487 318.446 198.831 317.07 198.692C317.47 198.142 317.833 197.406 318.158 196.466C318.288 196.093 318.418 195.674 318.53 195.227C322.213 181.053 317.247 173.957 317.247 173.957L319.637 171.07C306.449 175.512 303.445 188.224 303.445 188.224C303.445 188.224 303.52 188.364 303.659 188.615C304.134 189.453 305.371 191.577 306.952 193.774C300.265 189.127 293.699 182.888 293.699 182.888C293.699 182.888 300.562 169.692 322.882 165.483C322.882 165.483 324.454 165.808 324.408 167.047C324.38 167.634 323.989 168.444 322.882 169.506Z" fill="white"/>
<path opacity="0.2" d="M322.882 169.506C322.882 169.506 323.617 187.358 320.678 196.54C320.557 196.904 320.409 197.22 320.223 197.49C319.572 197.174 318.883 196.829 318.158 196.466C313.75 194.24 308.133 191.297 303.659 188.615C298.991 185.812 296.089 182.106 296.089 182.106C298.275 180.364 305.101 180.364 305.101 180.364C311.174 172.821 324.408 167.047 324.408 167.047C324.38 167.634 323.989 168.444 322.882 169.506Z" fill="black"/>
<path d="M338.665 218.202L332.954 218.863C328.732 196.838 311.741 180.364 291.421 180.364C267.919 180.364 248.864 202.389 248.864 229.544C248.864 256.7 267.919 278.725 291.421 278.725C306.998 278.725 320.623 269.04 328.035 254.605C328.035 254.605 350.15 244.277 350.987 239.565L338.665 218.192V218.202Z" fill="#407BFF"/>
<path opacity="0.2" d="M350.987 239.565C350.15 244.286 328.035 254.605 328.035 254.605C320.613 269.049 306.998 278.734 291.421 278.734C267.91 278.734 248.864 256.71 248.864 229.544V229.219C248.947 214.477 254.648 201.271 263.614 192.312C268.97 186.958 275.508 183.13 282.706 181.398C285.515 180.718 288.435 180.364 291.421 180.364C309.993 180.364 325.784 194.128 331.587 213.303C332.136 215.11 332.592 216.963 332.954 218.863L338.665 218.202L350.987 239.565Z" fill="white"/>
<path opacity="0.2" d="M283.767 193.914C281.218 200.824 268.338 194.799 263.614 192.312C268.97 186.958 275.508 183.13 282.706 181.398C284.213 184.723 285.441 189.37 283.767 193.914Z" fill="black"/>
<path opacity="0.2" d="M332.954 218.863C332.954 218.863 324.417 218.5 319.637 226.108C319.637 226.108 323.227 215.752 331.587 213.303C332.136 215.11 332.592 216.963 332.954 218.863Z" fill="black"/>
<path opacity="0.2" d="M328.035 254.605C320.613 269.049 306.998 278.734 291.421 278.734C267.91 278.734 248.864 256.71 248.864 229.545V229.219C252.026 246.708 263.223 263.759 279.898 270.194C300.869 278.306 310.253 265.957 310.253 265.957C302.599 263.88 301.241 256.57 301.241 256.57C311.908 260.621 328.035 254.605 328.035 254.605Z" fill="black"/>
<path d="M338.665 218.202C343.268 218.202 352.094 232.376 350.987 239.574C349.88 246.764 323.943 248.412 321.357 241.418C319.553 236.538 333.326 218.211 338.665 218.211V218.202Z" fill="#407BFF"/>
<path opacity="0.6" d="M338.665 218.202C343.268 218.202 352.094 232.376 350.987 239.574C349.88 246.764 323.943 248.412 321.357 241.418C319.553 236.538 333.326 218.211 338.665 218.211V218.202Z" fill="white"/>
<path opacity="0.3" d="M335.912 236.855C335.344 239.192 333.903 240.85 332.685 240.561C331.466 240.263 330.936 238.131 331.504 235.793C332.071 233.456 333.512 231.798 334.731 232.087C335.949 232.385 336.479 234.517 335.912 236.855Z" fill="black"/>
<path opacity="0.3" d="M344.551 240.454C345.801 240.359 346.667 238.337 346.485 235.936C346.304 233.536 345.144 231.667 343.894 231.762C342.644 231.857 341.779 233.879 341.96 236.28C342.142 238.68 343.302 240.549 344.551 240.454Z" fill="black"/>
<path d="M298.265 226.117C298.265 228.827 296.926 231.025 295.271 231.025C293.615 231.025 292.276 228.827 292.276 226.117C292.276 223.407 293.615 221.21 295.271 221.21C296.926 221.21 298.265 223.407 298.265 226.117Z" fill="#263238"/>
<path d="M254.574 207.678C254.574 207.678 253.718 180.951 270.709 165.864C270.709 165.864 274.03 164.719 272.774 169.319C272.774 169.319 282.558 184.257 284.734 193.653C286.919 203.05 254.574 207.678 254.574 207.678Z" fill="#407BFF"/>
<path opacity="0.2" d="M254.574 207.678C254.574 207.678 253.718 180.951 270.709 165.864C270.709 165.864 274.03 164.719 272.774 169.319C272.774 169.319 282.558 184.257 284.734 193.653C286.919 203.05 254.574 207.678 254.574 207.678Z" fill="white"/>
<path d="M270.998 172.635C270.998 172.635 263.893 187.619 264.451 202.109C264.451 202.109 276.41 199.651 281.005 190.804C281.005 190.804 277.917 180.066 270.998 172.635Z" fill="#407BFF"/>
<path d="M199.146 278.734L194.366 328.473H224.535L239.62 293.132C239.62 293.132 218.276 275.484 199.146 278.734Z" fill="#407BFF"/>
<path d="M141.384 263.936L132.986 328.464H163.155L178.24 293.122C178.24 293.122 171.19 263.703 141.384 263.927V263.936Z" fill="#407BFF"/>
<path opacity="0.2" d="M239.61 293.122L224.526 328.464H194.357L199.146 278.734C206.819 277.43 214.835 279.479 221.699 282.413C231.947 286.79 239.61 293.122 239.61 293.122Z" fill="white"/>
<path opacity="0.2" d="M178.23 293.122L163.146 328.464H132.977L141.384 263.936C151.614 263.853 159.156 267.27 164.662 271.787C175.189 280.438 178.23 293.122 178.23 293.122Z" fill="white"/>
<path opacity="0.2" d="M178.23 293.122L163.146 328.464H132.977L141.384 263.936L135.859 325.018H158.97L173.022 290.459C173.022 290.459 172.083 281.975 164.662 271.787C175.189 280.439 178.23 293.122 178.23 293.122Z" fill="black"/>
<path opacity="0.2" d="M239.61 293.122L224.526 328.464H194.357L199.146 278.734L196.57 325.018H220.992L230.459 294.65C230.459 294.65 229.055 288.857 221.699 282.413C231.947 286.79 239.61 293.122 239.61 293.122Z" fill="black"/>
<path d="M125.657 127.124C119.687 128.912 117.297 150.927 113.8 159.355C110.303 167.783 103.133 184.462 103.133 184.462L105.895 187.377C105.895 187.377 118.217 166.87 119.873 163.825C121.528 160.789 128.773 137.759 128.773 137.759L125.648 127.124H125.657Z" fill="#E4897B"/>
<path d="M125.657 127.124C122.086 128.12 120.626 128.176 115.53 153.991L104.426 179.573L109.699 182.888C109.699 182.888 121.063 163.145 123.658 158.163C126.253 153.171 129.294 133.428 129.294 133.428L125.657 127.124Z" fill="#407BFF"/>
<path opacity="0.4" d="M129.294 133.428C129.294 133.428 128.215 140.459 126.792 147.183C125.825 151.728 124.7 156.142 123.658 158.153C123.053 159.317 121.975 161.273 120.673 163.601C119.966 164.868 119.185 166.246 118.385 167.662C114.358 174.795 109.699 182.888 109.699 182.888L104.426 179.563L115.53 153.981C120.626 128.176 122.086 128.111 125.657 127.124L129.294 133.428Z" fill="white"/>
<path opacity="0.2" d="M126.792 147.183C125.825 151.728 124.699 156.142 123.658 158.153C123.053 159.317 121.975 161.273 120.673 163.601C119.008 151.513 123.016 139.528 123.016 139.528C124.625 140.85 125.881 143.663 126.792 147.183Z" fill="black"/>
<path d="M109.271 153.721H105.82C95.9718 153.721 87.9924 163.089 87.9924 174.646C87.9924 186.203 95.9718 195.572 105.82 195.572H109.271C119.119 195.572 127.099 186.203 127.099 174.646C127.099 163.089 119.119 153.721 109.271 153.721Z" fill="#407BFF"/>
<path opacity="0.2" d="M109.271 153.721H105.82C95.9718 153.721 87.9924 163.089 87.9924 174.646C87.9924 186.203 95.9718 195.572 105.82 195.572H109.271C119.119 195.572 127.099 186.203 127.099 174.646C127.099 163.089 119.119 153.721 109.271 153.721Z" fill="black"/>
<path d="M109.271 195.572C119.117 195.572 127.099 186.203 127.099 174.646C127.099 163.089 119.117 153.721 109.271 153.721C99.4246 153.721 91.4427 163.089 91.4427 174.646C91.4427 186.203 99.4246 195.572 109.271 195.572Z" fill="#407BFF"/>
<path opacity="0.2" d="M109.271 191.949C117.412 191.949 124.011 184.202 124.011 174.646C124.011 165.09 117.412 157.343 109.271 157.343C101.13 157.343 94.5303 165.09 94.5303 174.646C94.5303 184.202 101.13 191.949 109.271 191.949Z" fill="black"/>
<path d="M148.47 263.675L146.108 268.201C146.108 268.201 144.081 267.121 140.854 265.352C139.933 264.849 138.91 264.29 137.813 263.675C134.762 261.999 131.098 259.96 127.229 257.762C126.392 257.278 125.546 256.793 124.699 256.309C111.28 248.608 96.5205 239.546 96.5205 237.004C96.5205 234.21 105.169 217.54 112.089 204.652C116.711 196.047 120.561 189.118 120.561 189.118L136.994 199.194C136.994 199.194 131.395 206.691 125.657 214.942C118.971 224.562 112.098 235.207 113.67 236.268C114.869 237.069 120.98 241.856 127.741 247.211C128.15 247.527 128.559 247.853 128.968 248.179C132.614 251.066 136.38 254.055 139.626 256.644C140.547 257.371 141.43 258.069 142.249 258.721C145.941 261.664 148.47 263.675 148.47 263.675Z" fill="#E4897B"/>
<path opacity="0.2" d="M136.994 199.194C136.994 199.194 129.284 209.625 123.546 217.876L110.498 207.567C115.121 198.962 120.561 189.118 120.561 189.118L136.994 199.194Z" fill="black"/>
<path opacity="0.2" d="M142.249 258.721L140.854 265.352C136.817 263.145 130.903 259.876 124.699 256.309C125.75 253.106 126.959 249.502 127.741 247.211C132.79 251.197 138.212 255.508 142.249 258.721Z" fill="black"/>
<path d="M155.715 207.567L152.553 217.233L151.902 219.217L147.075 233.931L146.527 235.616L143.337 245.329L139.626 256.644L137.915 261.869C137.887 262.465 137.859 263.07 137.812 263.675C136.185 288.661 123.193 321.33 123.193 321.33L118.552 320.064C120.198 300.433 123.723 277.561 127.229 257.762C127.815 254.475 128.392 251.271 128.968 248.179C129.294 246.447 129.61 244.743 129.926 243.085C130.596 239.574 131.228 236.25 131.851 233.158C132.149 231.686 132.428 230.28 132.697 228.911C133.376 225.54 133.99 222.532 134.539 219.952C135.069 217.382 135.515 215.24 135.869 213.61C136.38 211.226 136.669 209.904 136.669 209.904L155.715 207.567Z" fill="#E4897B"/>
<path d="M142.881 258.824C142.276 258.824 142.639 266.246 142.639 266.246C142.639 266.246 147.196 270.874 148.173 275.316C149.149 279.759 151.837 277.328 151.911 272.374C151.986 267.429 152.041 263.648 152.097 260.127C152.153 256.607 149.121 258.768 142.881 258.814V258.824Z" fill="#263238"/>
<path d="M144.285 270.828C144.164 270.967 143.932 271.116 143.495 270.995C143.281 270.939 143.113 270.8 143.002 270.595C142.779 270.194 142.779 269.561 142.844 268.928C142.509 269.524 142.118 270.045 141.728 270.064C141.477 270.073 141.272 269.906 141.114 269.57C140.965 269.254 140.965 268.928 141.105 268.611C141.542 267.615 143.272 267.019 143.346 266.991C143.392 266.972 143.448 266.981 143.495 267C143.513 267 143.523 267.019 143.532 267.028C143.532 267.028 143.569 267.065 143.578 267.093C143.755 267.484 144.49 269.142 144.471 270.176C144.471 270.446 144.415 270.679 144.285 270.828ZM143.337 270.399C143.402 270.511 143.485 270.586 143.588 270.613C143.876 270.688 143.95 270.604 143.978 270.567C144.267 270.222 143.885 268.853 143.439 267.764C143.244 268.593 143.03 269.859 143.327 270.399H143.337ZM141.458 269.403C141.505 269.505 141.598 269.673 141.7 269.673C142.035 269.664 142.621 268.611 143.058 267.512C142.49 267.764 141.681 268.22 141.449 268.76C141.402 268.863 141.384 268.956 141.384 269.058C141.384 269.17 141.412 269.282 141.458 269.403Z" fill="#407BFF"/>
<path d="M124.513 319.226C124.495 318.62 117.101 319.095 117.101 319.095C117.101 319.095 112.544 323.733 108.127 324.776C103.7 325.819 106.174 328.473 111.121 328.473H123.351C126.866 328.473 124.672 325.475 124.523 319.226H124.513Z" fill="#263238"/>
<path d="M112.554 320.809C112.414 320.688 112.265 320.455 112.377 320.017C112.433 319.803 112.563 319.635 112.768 319.514C113.158 319.291 113.8 319.272 114.423 319.328C113.819 319.002 113.298 318.611 113.27 318.229C113.251 317.978 113.419 317.764 113.753 317.605C114.07 317.456 114.395 317.447 114.711 317.577C115.716 317.996 116.339 319.729 116.367 319.803C116.385 319.85 116.376 319.906 116.367 319.952C116.367 319.971 116.348 319.98 116.339 319.989C116.339 319.989 116.302 320.027 116.274 320.036C115.883 320.222 114.237 320.976 113.205 320.976C112.935 320.976 112.702 320.921 112.554 320.8V320.809ZM112.963 319.859C112.851 319.924 112.777 320.008 112.749 320.12C112.675 320.408 112.768 320.483 112.796 320.511C113.149 320.8 114.497 320.39 115.595 319.924C114.767 319.738 113.493 319.552 112.963 319.859ZM113.93 317.968C113.828 318.015 113.66 318.108 113.67 318.22C113.688 318.555 114.749 319.133 115.846 319.542C115.586 318.984 115.12 318.173 114.572 317.95C114.469 317.903 114.367 317.885 114.274 317.885C114.163 317.885 114.051 317.913 113.93 317.968Z" fill="#407BFF"/>
<path opacity="0.7" d="M129.805 212.921L128.736 213.927L112.758 203.078L114.776 198.142C114.814 199.846 114.99 201.988 115.53 203.264C116.404 205.331 126.987 211.347 129.805 212.921Z" fill="white"/>
<path opacity="0.2" d="M155.715 207.567L151.902 219.217C143.169 221.293 138.175 219.98 134.539 219.952C135.069 217.382 135.515 215.24 135.869 213.61C136.38 211.226 136.669 209.904 136.669 209.904L155.715 207.567Z" fill="black"/>
<path d="M155.483 214.113C155.287 215.65 155.045 217.224 154.766 218.826L133.432 218.071V209.494L126.318 217.336L110.498 204.484L121.491 181.705L122.905 167.354L151.614 170.409C151.614 170.409 158.979 187.637 155.483 214.113Z" fill="#263238"/>
<path d="M151.325 166.339L122.254 163.825V168.807L152.014 171.443L151.325 166.339Z" fill="black"/>
<path d="M130.363 166.023V168.341C130.363 169.282 131.07 170.055 132.009 170.139L135.636 170.455C135.692 170.455 135.739 170.455 135.794 170.455C136.241 170.455 136.678 170.288 137.013 169.981C137.385 169.636 137.599 169.152 137.599 168.649V166.33C137.599 165.389 136.892 164.616 135.953 164.533L132.326 164.216C131.823 164.169 131.321 164.346 130.949 164.682C130.577 165.026 130.363 165.51 130.363 166.013V166.023ZM131.293 168.341V167.578C131.293 167.578 131.321 167.587 131.34 167.587L132.353 167.662C132.688 167.69 132.986 167.429 133.014 167.094C133.042 166.758 132.781 166.46 132.446 166.432L131.433 166.358C131.386 166.358 131.34 166.367 131.293 166.377V166.023C131.293 165.771 131.396 165.548 131.572 165.38C131.74 165.231 131.944 165.147 132.158 165.147C132.186 165.147 132.214 165.147 132.233 165.147L135.86 165.464C136.315 165.501 136.659 165.883 136.659 166.339V168.658C136.659 168.91 136.557 169.133 136.38 169.301C136.194 169.468 135.962 169.552 135.711 169.524L132.084 169.208C131.628 169.17 131.284 168.788 131.284 168.332L131.293 168.341Z" fill="white"/>
<path d="M125.657 127.124C125.657 127.124 143.476 125.783 156.422 131.128L151.325 166.339L123.751 163.825C123.751 163.825 123.016 137.591 125.667 127.124H125.657Z" fill="#407BFF"/>
<path d="M145.327 128.837C145.327 128.837 143.764 132.218 137.375 134.127C137.375 134.127 133.851 132.246 134.855 129.172C134.855 129.172 136.892 128.818 136.324 123.939C136.306 123.808 136.287 123.669 136.269 123.52C136.12 122.495 135.878 121.303 135.497 119.897L143.113 117.094C143.113 117.094 141.198 123.324 143.95 127.347C144.313 127.897 144.769 128.399 145.327 128.837Z" fill="#E4897B"/>
<path opacity="0.2" d="M143.95 127.347C140.277 127.124 137.859 125.55 136.324 123.939C136.306 123.808 136.287 123.669 136.269 123.52C136.12 122.495 135.878 121.303 135.497 119.897L143.113 117.094C143.113 117.094 141.198 123.324 143.95 127.347Z" fill="black"/>
<path d="M135.664 99.3438C135.664 99.3438 133.581 88.9322 122.877 91.0183C112.163 93.1043 117.157 107.735 119.343 112.344C121.528 116.945 121.835 120.698 119.24 122.775C119.24 122.775 122.774 123.79 124.644 121.359C124.644 121.359 124.541 123.613 123.295 124.553C123.295 124.553 134.065 120.698 131.33 108.098C128.596 95.4977 135.674 99.3531 135.674 99.3531L135.664 99.3438Z" fill="#263238"/>
<path d="M147.103 98.5057C147.103 98.5057 152.497 98.7106 153.957 103.292C155.417 107.874 154.264 112.996 146.201 118.463C138.138 123.929 131.386 118.556 128.271 114.831C125.155 111.106 126.708 98.4871 135.655 96.9877C144.602 95.4884 147.103 98.5057 147.103 98.5057Z" fill="#263238"/>
<path d="M141.942 99.9957C148.796 100.983 150.479 104.978 149.958 112.13C149.307 121.061 146.443 127.058 138.147 123.929C126.876 119.683 130.559 98.3473 141.942 99.9957Z" fill="#E4897B"/>
<path d="M145.578 111.106C145.578 111.106 146.266 113.033 147.159 114.244C147.159 114.244 146.434 115.092 145.243 114.756L145.578 111.106Z" fill="#DE5753"/>
<path d="M141.467 109.932C141.402 110.5 141.04 110.919 140.658 110.873C140.286 110.826 140.035 110.333 140.1 109.765C140.165 109.197 140.528 108.778 140.909 108.824C141.291 108.871 141.532 109.364 141.467 109.932Z" fill="#263238"/>
<path d="M140.751 108.833L142.035 108.498C142.035 108.498 141.3 109.457 140.751 108.833Z" fill="#263238"/>
<path d="M148.507 110.668C148.442 111.236 148.08 111.655 147.698 111.609C147.317 111.562 147.075 111.068 147.14 110.5C147.205 109.932 147.568 109.513 147.949 109.56C148.331 109.606 148.573 110.1 148.507 110.668Z" fill="#263238"/>
<path d="M147.791 109.569L149.075 109.234C149.075 109.234 148.34 110.193 147.791 109.569Z" fill="#263238"/>
<path d="M142.081 105.183C142.081 105.183 140.193 104.652 138.956 105.788" stroke="#263238" stroke-width="0.71" stroke-linecap="round" stroke-linejoin="round"/>
<path d="M147.103 105.611C147.103 105.611 148.377 105.341 149.754 106.57" stroke="#263238" stroke-width="0.71" stroke-linecap="round" stroke-linejoin="round"/>
<path d="M132.781 110.482C132.781 110.482 136.799 105.304 136.948 100.88C136.948 100.88 151.335 97.2857 150.014 111.199C150.014 111.199 153.111 99.1296 141.365 97.146C129.638 95.1717 127.173 112.447 132.521 118.472C132.521 118.472 130.289 113.732 132.781 110.491V110.482Z" fill="#263238"/>
<path d="M133.693 112.093C133.804 110.985 132.939 108.945 130.856 108.871C128.699 108.796 127.052 113.015 132.186 114.831C132.921 115.092 133.46 114.412 133.693 112.093Z" fill="#E4897B"/>
<path d="M143.792 118.342C143.792 118.342 140.826 118.584 139.998 115.846" stroke="#263238" stroke-width="0.71" stroke-linecap="round" stroke-linejoin="round"/>
<path d="M146.21 95.777C146.21 95.777 150.609 94.0356 150.414 97.9935C150.219 101.951 133.581 111.73 125.164 111.106C125.164 111.106 127.452 110.51 128.178 109.513C128.178 109.513 124.3 102.482 131.247 96.997C140.007 90.087 146.21 95.7863 146.21 95.7863V95.777Z" fill="#263238"/>
<path d="M149.075 98.8689C149.075 98.8689 148.396 107.139 136.883 111.096" stroke="#263238" stroke-width="0.49" stroke-linecap="round" stroke-linejoin="round"/>
<path d="M156.422 131.128C159.984 132.599 172.855 149.632 172.669 156.226C172.483 162.81 157.036 174.655 157.036 174.655L163.108 180.373C163.108 180.373 157.956 183.81 157.408 183.633C156.859 183.456 152.692 175.997 152.014 174.655C151.335 173.314 154.497 171.452 154.497 171.452C154.497 171.452 167.34 158.787 167.517 155.462C167.693 152.137 154.497 142.005 154.497 142.005L156.422 131.137V131.128Z" fill="#E4897B"/>
<path d="M131.926 132.665C132.26 135.002 125.955 165.259 125.955 165.259L121.277 164.318C121.277 164.318 122.151 134.211 125.657 127.133L129.294 127.356L131.926 132.665Z" fill="#407BFF"/>
<path d="M144.806 133.428C142.937 135.85 145.327 168.397 145.327 168.397L153.846 167.634L156.422 131.128C156.422 131.128 155.25 129.675 150.377 128.278L144.806 133.428Z" fill="#407BFF"/>
<path opacity="0.4" d="M131.926 132.665C132.26 135.002 125.955 165.259 125.955 165.259L121.277 164.318C121.277 164.318 122.151 134.211 125.657 127.133L129.294 127.356L131.926 132.665Z" fill="white"/>
<path opacity="0.4" d="M156.422 131.119L155.799 139.929L155.055 150.48L153.846 167.624L145.327 168.388C145.327 168.388 142.937 135.85 144.806 133.428L150.377 128.278C155.25 129.666 156.422 131.119 156.422 131.119Z" fill="white"/>
<path d="M144.806 133.428C144.806 133.428 150.116 124.404 152.014 125.326C153.911 126.248 153.632 127.356 153.632 127.356C153.632 127.356 155.38 127.543 155.566 128.278C155.752 129.014 152.237 132.73 144.806 133.438V133.428Z" fill="#407BFF"/>
<path d="M131.926 132.665C131.926 132.665 131.926 124.404 130.726 123.957C129.526 123.51 128.773 125.987 128.773 125.987C128.773 125.987 127.936 124.153 126.792 125.987C125.648 127.822 131.916 132.665 131.916 132.665H131.926Z" fill="#407BFF"/>
<path opacity="0.2" d="M144.806 133.428C144.806 133.428 150.116 124.404 152.014 125.326C153.911 126.248 153.632 127.356 153.632 127.356C153.632 127.356 155.38 127.543 155.566 128.278C155.752 129.014 152.237 132.73 144.806 133.438V133.428Z" fill="white"/>
<path opacity="0.2" d="M131.926 132.665C131.926 132.665 131.926 124.404 130.726 123.957C129.526 123.51 128.773 125.987 128.773 125.987C128.773 125.987 127.936 124.153 126.792 125.987C125.648 127.822 131.916 132.665 131.916 132.665H131.926Z" fill="white"/>
<path opacity="0.2" d="M155.799 139.929L155.055 150.48C153.585 144.883 154.292 138.923 154.292 138.923L155.799 139.929Z" fill="black"/>
<path d="M156.422 131.128C158.998 132.171 173.72 148.505 173.469 155.378C173.227 162.251 160.467 172.635 160.467 172.635L155.566 169.263C155.566 169.263 165.982 156.235 165.489 153.041C164.996 149.846 155.566 143.179 155.566 143.179C155.566 143.179 153.669 141.623 154.497 136.837C155.315 132.05 156.422 131.128 156.422 131.128Z" fill="#407BFF"/>
<path opacity="0.4" d="M156.422 131.128C158.998 132.171 173.72 148.505 173.469 155.378C173.227 162.251 160.467 172.635 160.467 172.635L155.566 169.263C155.566 169.263 165.982 156.235 165.489 153.041C164.996 149.846 155.566 143.179 155.566 143.179C155.566 143.179 153.669 141.623 154.497 136.837C155.315 132.05 156.422 131.128 156.422 131.128Z" fill="white"/>
<path d="M92.1216 188.038L95.4696 189.118L98.427 193.691C98.427 193.691 95.7858 194.92 94.5303 194.184C93.2748 193.449 91.452 191.484 91.4427 190.748C91.4334 190.012 92.1216 188.038 92.1216 188.038Z" fill="#E4897B"/>
<path d="M105.505 183.973C105.379 183.973 105.266 183.916 105.166 183.803C105.078 183.69 105.034 183.545 105.035 183.367L105.039 181.138H103.644C103.505 181.138 103.392 181.081 103.305 180.968C103.217 180.855 103.173 180.71 103.173 180.532L103.175 179.611C103.176 179.434 103.22 179.288 103.308 179.175C103.396 179.062 103.51 179.005 103.648 179.005H105.043L105.045 177.77H103.65C103.512 177.77 103.399 177.713 103.311 177.6C103.223 177.471 103.18 177.325 103.18 177.164L103.183 175.347C103.184 175.169 103.228 175.024 103.316 174.911C103.404 174.781 103.518 174.717 103.656 174.717H105.051L105.065 167.617C105.065 167.44 105.109 167.294 105.198 167.181C105.298 167.068 105.412 167.011 105.537 167.011H110.836C111.879 167.011 112.784 167.221 113.55 167.641C114.328 168.045 114.931 168.659 115.356 169.483C115.782 170.307 115.994 171.349 115.992 172.609C115.989 173.788 115.774 174.757 115.345 175.516C114.916 176.276 114.312 176.841 113.532 177.212C112.764 177.584 111.859 177.77 110.815 177.77H108.553L108.55 179.005H111.077C111.215 179.005 111.328 179.062 111.416 179.175C111.516 179.288 111.566 179.434 111.566 179.611L111.564 180.532C111.564 180.71 111.513 180.855 111.413 180.968C111.324 181.081 111.211 181.138 111.073 181.138H108.546L108.542 183.367C108.542 183.545 108.497 183.69 108.409 183.803C108.321 183.916 108.208 183.973 108.069 183.973H105.505ZM108.502 174.717H110.727C111.267 174.717 111.695 174.539 112.01 174.184C112.325 173.828 112.483 173.287 112.485 172.56C112.486 171.946 112.348 171.429 112.073 171.009C111.797 170.589 111.351 170.379 110.735 170.379H108.51L108.502 174.717Z" fill="#407BFF"/>
</g>
</g>
<defs>
<clipPath id="clip0_4939_14971">
<rect width="356" height="329" fill="white"/>
</clipPath>
<clipPath id="clip1_4939_14971">
<rect width="465" height="347" fill="white" transform="translate(-54 -9)"/>
</clipPath>
</defs>
</svg>
