<svg width="278" height="200" viewBox="0 0 278 200" fill="none" xmlns="http://www.w3.org/2000/svg">
<path d="M210.69 22.5327C211.631 25.7219 216.484 31.6855 216.867 36.0375C217.25 40.3895 208.976 47.3255 208.976 47.3255C208.976 47.3255 202.793 26.4155 206.664 23.9675C210.536 21.5263 210.69 22.5327 210.69 22.5327Z" fill="#263238"/>
<path d="M193.698 45.1156C192.233 46.3531 190.795 47.4003 189.296 48.4611C187.797 49.5083 186.251 50.474 184.678 51.4124C183.112 52.3576 181.472 53.2076 179.799 53.9896C178.952 54.3704 178.112 54.7511 177.238 55.0911C176.808 55.2679 176.371 55.438 175.927 55.5876L174.556 56.0636C173.191 56.4648 172.062 56.424 171.02 56.322C169.979 56.2064 169.017 55.9956 168.09 55.7507C166.241 55.2543 164.521 54.5812 162.84 53.8604C159.5 52.378 156.354 50.6915 153.303 48.7263L154.566 46.36C156.146 47.0264 157.772 47.6995 159.392 48.3115C161.005 48.9439 162.632 49.5288 164.259 50.0388C165.879 50.5624 167.512 51.0112 169.091 51.3172C169.878 51.4668 170.657 51.5687 171.37 51.5959C172.076 51.6231 172.741 51.5552 173.064 51.4192C174.522 50.8412 176.088 50.1408 177.56 49.3588C178.3 48.9576 179.039 48.5563 179.765 48.1211C180.498 47.7063 181.23 47.2643 181.949 46.8155C183.395 45.918 184.806 44.9523 186.204 43.9663C187.595 42.9939 189 41.9264 190.271 40.9268L193.698 45.1156Z" fill="#E58A7B"/>
<path d="M197.247 37.8736C195.58 36.5544 188.684 40.8724 186.587 42.6744L188.113 52.0108C188.113 52.0108 198.027 47.8084 198.625 44.932C199.25 41.94 198.517 38.88 197.247 37.8736Z" fill="#407BFF"/>
<path opacity="0.2" d="M197.247 37.8736C195.58 36.5544 188.684 40.8724 186.587 42.6744L188.113 52.0108C188.113 52.0108 198.027 47.8084 198.625 44.932C199.25 41.94 198.517 38.88 197.247 37.8736Z" fill="black"/>
<path d="M220.443 66.1277C216.397 66.9233 207.813 68.6165 199.512 70.2553C188.698 40.6277 191.05 39.6689 191.05 39.6689C191.05 39.6689 193.127 38.4789 195.762 37.4249C195.863 37.3841 195.957 37.3501 196.044 37.3161C197.375 36.8197 197.657 36.7449 199.445 36.2145C202.524 35.4733 205.394 34.8681 208.949 34.3445C209.178 34.3105 209.406 34.2765 209.628 34.2493C210.273 34.1677 210.912 34.0997 211.53 34.0385C211.947 33.9909 212.364 33.9637 212.76 33.9365C213.231 33.9093 213.688 33.8821 214.118 33.8617C216.417 33.7461 218.064 33.7801 218.064 33.7801C217.398 52.2693 218.433 57.5801 220.443 66.1277Z" fill="#407BFF"/>
<path opacity="0.2" d="M220.443 66.1277C216.397 66.9233 207.813 68.6165 199.512 70.2553C188.698 40.6277 191.05 39.6689 191.05 39.6689C191.05 39.6689 193.127 38.4789 195.762 37.4249C195.863 37.3841 195.957 37.3501 196.044 37.3161C197.375 36.8197 197.657 36.7449 199.445 36.2145C202.524 35.4733 205.394 34.8681 208.949 34.3445C209.178 34.3105 209.406 34.2765 209.628 34.2493C210.273 34.1677 210.912 34.0997 211.53 34.0385C211.947 33.9909 212.364 33.9637 212.76 33.9365C213.231 33.9093 213.688 33.8821 214.118 33.8617C216.417 33.7461 218.064 33.7801 218.064 33.7801C217.398 52.2693 218.433 57.5801 220.443 66.1277Z" fill="black"/>
<path d="M204.05 24.6475C202.685 26.8983 207.578 27.9387 210.462 25.6335C212.774 23.7839 212.223 19.5135 210.254 18.5207C208.345 17.5687 204.05 24.6475 204.05 24.6475Z" fill="#407BFF"/>
<path opacity="0.4" d="M204.05 24.6475C202.685 26.8983 207.578 27.9387 210.462 25.6335C212.774 23.7839 212.223 19.5135 210.254 18.5207C208.345 17.5687 204.05 24.6475 204.05 24.6475Z" fill="black"/>
<path d="M224.422 188.759L219.186 189.153L217.271 176.961L222.507 176.566L224.422 188.759Z" fill="#E58A7B"/>
<path d="M261.457 171.718L257.021 174.547L249.104 165.054L253.546 162.219L261.457 171.718Z" fill="#E58A7B"/>
<path d="M217.271 176.961L218.332 183.734L223.495 182.856L222.513 176.566L217.271 176.961Z" fill="#CF6F64"/>
<path d="M253.553 162.226L249.104 165.054L252.384 168.985L256.927 166.272L253.553 162.226Z" fill="#CF6F64"/>
<path d="M199.821 70.2556C199.821 70.2556 199.741 112.293 203.142 128.13C206.677 144.6 217.075 182.068 217.075 182.068L224.617 181.082C224.617 181.082 218.722 143.233 216.208 126.872C213.473 109.029 215.153 67.2432 215.153 67.2432L199.821 70.2556Z" fill="#407BFF"/>
<path opacity="0.7" d="M199.821 70.2556C199.821 70.2556 199.741 112.293 203.142 128.13C206.677 144.6 217.075 182.068 217.075 182.068L224.617 181.082C224.617 181.082 218.722 143.233 216.208 126.872C213.473 109.029 215.153 67.2432 215.153 67.2432L199.821 70.2556Z" fill="black"/>
<path opacity="0.5" d="M214.696 85.868L210.999 82.1416C211.14 98.2916 212.034 106.268 215.106 114.958C214.615 105.772 214.582 94.9052 214.696 85.868Z" fill="black"/>
<path d="M205.037 69.1675C205.037 69.1675 216.309 103.916 221.908 123.921C227.809 145.035 250.434 168.386 250.434 168.386L256.927 164.592C256.927 164.592 241.481 142.424 235.781 122.724C224.213 82.7335 228.972 74.2607 220.443 66.1279L205.037 69.1675Z" fill="#407BFF"/>
<path opacity="0.7" d="M205.037 69.1675C205.037 69.1675 216.309 103.916 221.908 123.921C227.809 145.035 250.434 168.386 250.434 168.386L256.927 164.592C256.927 164.592 241.481 142.424 235.781 122.724C224.213 82.7335 228.972 74.2607 220.443 66.1279L205.037 69.1675Z" fill="black"/>
<path d="M196.178 12.3809C199.176 13.3941 201.898 20.9285 202.012 23.8933C202.127 26.8581 193.335 30.9449 193.335 30.9449C193.335 30.9449 189.457 21.3977 190.532 15.3185C191.003 12.6393 196.178 12.3809 196.178 12.3809Z" fill="#263238"/>
<path d="M155.037 46.6121L151.481 42.6953L150.318 47.6049C150.318 47.6049 152.846 49.8625 154.896 49.0941L155.037 46.6121Z" fill="#E58A7B"/>
<path d="M147.879 41.5732L145.392 43.5724L150.318 47.6048L151.481 42.6952L147.879 41.5732Z" fill="#E58A7B"/>
<path d="M255.617 173.534L259.77 169.298C259.925 169.141 260.153 169.128 260.322 169.25L264.106 172.092C264.496 172.385 264.529 173.01 264.173 173.364C262.701 174.812 261.915 175.438 260.086 177.301C258.964 178.444 257.438 180.239 255.885 181.823C254.366 183.374 252.706 181.939 253.21 181.136C255.482 177.553 255.072 176.213 255.227 174.391C255.254 174.064 255.395 173.758 255.617 173.534Z" fill="#263238"/>
<path d="M218.837 188.392H224.738C224.953 188.392 225.135 188.541 225.175 188.752L226.102 193.471C226.197 193.961 225.807 194.423 225.309 194.416C223.253 194.382 222.251 194.26 219.657 194.26C218.064 194.26 214.77 194.43 212.566 194.43C210.408 194.43 210.126 192.227 211.033 192.023C215.1 191.125 216.652 189.894 217.97 188.718C218.218 188.507 218.521 188.392 218.837 188.392Z" fill="#263238"/>
<path opacity="0.27" d="M218.716 44.4902L215.489 46.435L219.213 60.5722C218.4 56.3086 218.763 51.5962 218.716 44.4902Z" fill="#407BFF"/>
<path d="M200.38 22.3763C202.672 24.3211 205.999 27.1567 209.918 23.8451C213.285 21.0027 215.631 13.5431 209.608 13.2643C206.449 13.1215 200.38 22.3763 200.38 22.3763Z" fill="#263238"/>
<path d="M205.918 23.7021C205.912 26.9117 206.409 32.6985 208.943 34.3441C208.943 34.3441 208.715 37.6489 203.028 38.7641C196.777 39.9949 199.439 36.2141 199.439 36.2141C202.692 34.7181 202.107 32.1749 201.052 29.8901L205.918 23.7021Z" fill="#E58A7B"/>
<path d="M203.935 26.2256L201.059 29.884C201.314 30.428 201.536 30.9788 201.677 31.5364C202.941 31.0876 204.453 29.2924 204.325 27.8848C204.265 27.1844 204.11 26.5248 203.935 26.2256Z" fill="#CF6F64"/>
<path d="M206.22 16.3314C206.899 21.5606 207.302 23.757 205.232 26.9122C202.12 31.6654 195.627 31.3662 193.416 26.4498C191.426 22.023 190.647 14.2234 195.251 11.177C199.781 8.19183 205.541 11.109 206.22 16.3314Z" fill="#E58A7B"/>
<path d="M197.24 7.17161C193.745 9.68082 200.755 10.422 200.762 14.06C200.769 15.5628 203.202 20.3296 206.67 20.0576L210.038 14.0124C213.566 8.22562 205.232 1.43921 197.24 7.17161Z" fill="#263238"/>
<path d="M197.24 7.17157C191.09 6.84517 188.408 11.7956 189.114 16.2428C189.114 16.2428 195.392 14.4884 202.254 15.1956C210.676 16.0592 197.24 7.17157 197.24 7.17157Z" fill="#263238"/>
<path d="M207.908 20.8398C208.008 21.9278 207.605 22.9614 207.027 23.6414C206.16 24.6682 204.984 24.063 204.607 22.839C204.265 21.7374 204.305 19.881 205.474 19.303C206.631 18.7318 207.793 19.5954 207.908 20.8398Z" fill="#E58A7B"/>
<path d="M198.753 19.3023C198.833 19.7239 198.679 20.1047 198.41 20.1591C198.141 20.2135 197.852 19.9143 197.771 19.4927C197.691 19.0711 197.845 18.6903 198.114 18.6359C198.39 18.5883 198.672 18.8807 198.753 19.3023Z" fill="#263238"/>
<path d="M194.054 20.2271C194.135 20.6487 193.981 21.0295 193.712 21.0839C193.443 21.1383 193.154 20.8391 193.073 20.4175C192.992 19.9959 193.147 19.6151 193.416 19.5607C193.692 19.5131 193.974 19.8055 194.054 20.2271Z" fill="#263238"/>
<path d="M193.544 19.561L192.488 19.4658C192.488 19.4726 193.154 20.1594 193.544 19.561Z" fill="#263238"/>
<path d="M195.44 20.71C195.44 20.71 195.083 22.6616 194.472 23.6884C195.117 24.0964 196.011 23.6748 196.011 23.6748L195.44 20.71Z" fill="#DF5753"/>
<path d="M197.765 25.042C197.704 25.042 197.657 25.0012 197.644 24.94C197.63 24.872 197.678 24.804 197.745 24.7904C199.573 24.43 200.171 22.9748 200.178 22.9612C200.205 22.8932 200.279 22.866 200.339 22.8932C200.4 22.9204 200.433 22.9952 200.406 23.0564C200.38 23.1244 199.748 24.6544 197.792 25.042C197.778 25.042 197.772 25.042 197.765 25.042Z" fill="#263238"/>
<path d="M199.828 17.4937C199.768 17.4937 199.707 17.4734 199.66 17.4326C198.84 16.6914 197.973 16.9089 197.939 16.9157C197.812 16.9497 197.671 16.8681 197.637 16.7389C197.603 16.6029 197.677 16.467 197.812 16.433C197.859 16.4194 198.968 16.1337 199.996 17.0585C200.097 17.1537 200.11 17.3102 200.016 17.4122C199.963 17.4666 199.895 17.4937 199.828 17.4937Z" fill="#263238"/>
<path d="M191.453 18.4665C191.42 18.4665 191.386 18.4597 191.359 18.4461C191.231 18.3917 191.171 18.2421 191.225 18.1197C191.756 16.8345 192.878 16.6101 192.932 16.6033C193.073 16.5761 193.194 16.6713 193.221 16.8073C193.248 16.9433 193.154 17.0725 193.019 17.0997C192.979 17.1065 192.105 17.2969 191.682 18.3169C191.641 18.4053 191.547 18.4665 191.453 18.4665Z" fill="#263238"/>
<path d="M254.064 176.002C253.842 176.002 253.647 175.893 253.486 175.676C253.358 175.506 253.372 175.349 253.412 175.247C253.647 174.615 255.502 174.2 255.711 174.153C255.758 174.139 255.812 174.159 255.838 174.2C255.865 174.241 255.872 174.295 255.845 174.336C255.482 174.941 254.77 175.955 254.104 175.989C254.091 176.002 254.077 176.002 254.064 176.002ZM255.469 174.472C254.729 174.656 253.768 175.003 253.647 175.336C253.634 175.377 253.62 175.438 253.688 175.519C253.809 175.676 253.936 175.751 254.091 175.744C254.447 175.73 254.958 175.261 255.469 174.472Z" fill="#407BFF"/>
<path d="M255.166 174.472C254.507 174.472 253.647 174.309 253.405 173.935C253.337 173.84 253.263 173.636 253.452 173.384C253.573 173.228 253.741 173.14 253.942 173.126C253.962 173.126 253.976 173.126 253.996 173.126C254.756 173.126 255.784 174.153 255.831 174.194C255.865 174.228 255.878 174.268 255.865 174.316C255.851 174.357 255.818 174.391 255.777 174.404C255.623 174.445 255.408 174.472 255.166 174.472ZM253.996 173.378C253.983 173.378 253.969 173.378 253.956 173.378C253.828 173.384 253.727 173.439 253.647 173.541C253.546 173.67 253.573 173.745 253.606 173.792C253.815 174.098 254.836 174.282 255.468 174.207C255.105 173.874 254.446 173.378 253.996 173.378Z" fill="#407BFF"/>
<path d="M216.908 189.323C216.39 189.323 215.906 189.242 215.624 188.997C215.442 188.841 215.355 188.637 215.369 188.385C215.375 188.236 215.436 188.12 215.557 188.052C216.175 187.685 218.339 188.773 218.581 188.895C218.628 188.922 218.655 188.97 218.649 189.024C218.642 189.079 218.602 189.119 218.548 189.133C218.111 189.221 217.486 189.323 216.908 189.323ZM215.913 188.222C215.812 188.222 215.738 188.236 215.678 188.27C215.644 188.29 215.611 188.317 215.611 188.399C215.604 188.569 215.658 188.705 215.779 188.807C216.115 189.092 216.982 189.147 218.124 188.956C217.392 188.603 216.41 188.222 215.913 188.222Z" fill="#407BFF"/>
<path d="M218.527 189.133C218.507 189.133 218.493 189.133 218.48 189.119C217.821 188.827 216.517 187.671 216.611 187.072C216.631 186.936 216.726 186.766 217.062 186.732C217.095 186.726 217.129 186.726 217.162 186.726C218.332 186.726 218.641 188.895 218.655 188.99C218.661 189.038 218.641 189.078 218.608 189.106C218.581 189.126 218.554 189.133 218.527 189.133ZM217.156 186.984C217.129 186.984 217.109 186.984 217.082 186.984C216.867 187.004 216.853 187.086 216.853 187.113C216.799 187.474 217.687 188.378 218.359 188.779C218.251 188.235 217.909 186.984 217.156 186.984Z" fill="#407BFF"/>
<path d="M198.242 18.6362L197.187 18.541C197.187 18.541 197.852 19.2346 198.242 18.6362Z" fill="#263238"/>
<path d="M202.86 43.2861C191.615 45.8225 195.09 38.9409 195.762 37.4245C195.863 37.3837 195.957 37.3497 196.044 37.3157C197.375 36.8193 197.658 36.7445 199.445 36.2141C202.484 35.3165 205.394 34.8677 208.95 34.3441C209.178 34.3101 209.407 34.2761 209.628 34.2489C210.274 34.1605 210.912 34.0925 211.531 34.0381C211.947 33.9905 212.364 33.9633 212.761 33.9361C213.231 33.9021 213.688 33.8749 214.118 33.8545V33.8613C214.327 34.9153 214.885 40.5865 202.86 43.2861Z" fill="#E58A7B"/>
<path d="M220.51 64.8221L221.821 66.5289C221.922 66.6649 221.781 66.8485 221.539 66.8961L199.586 71.2209C199.398 71.2549 199.223 71.1937 199.19 71.0781L198.639 69.2217C198.598 69.0925 198.74 68.9497 198.948 68.9089L220.147 64.7337C220.295 64.6997 220.45 64.7405 220.51 64.8221Z" fill="#26395A"/>
<path d="M218.124 67.7797L218.689 67.6709C218.803 67.6505 218.877 67.5757 218.857 67.5009L218.118 65.0937C218.097 65.0257 217.983 64.9849 217.876 65.0053L217.311 65.1141C217.197 65.1345 217.123 65.2093 217.143 65.2841L217.882 67.6913C217.902 67.7661 218.017 67.8069 218.124 67.7797Z" fill="#407BFF"/>
<path d="M205.266 75.8038L200.891 74.1582L201.563 78.3674C201.563 78.3674 204.735 79.5234 206.355 78.041L205.266 75.8038Z" fill="#E58A7B"/>
<path d="M196.723 75.2734L195.682 78.0342L201.563 78.3674L200.891 74.1582L196.723 75.2734Z" fill="#E58A7B"/>
<path d="M201.22 71.1117L201.785 71.0029C201.899 70.9825 201.973 70.9077 201.953 70.8329L201.213 68.4257C201.193 68.3577 201.079 68.3169 200.971 68.3373L200.407 68.4461C200.292 68.4665 200.218 68.5413 200.239 68.6161L200.978 71.0233C200.998 71.0981 201.106 71.1389 201.22 71.1117Z" fill="#407BFF"/>
<path d="M209.675 69.4457L210.24 69.3369C210.354 69.3165 210.428 69.2417 210.408 69.1669L209.668 66.7597C209.648 66.6917 209.534 66.6509 209.426 66.6713L208.862 66.7801C208.748 66.8005 208.674 66.8753 208.694 66.9501L209.433 69.3573C209.453 69.4321 209.561 69.4729 209.675 69.4457Z" fill="#407BFF"/>
<path d="M207.282 31.6447C207.76 31.4611 208.358 33.1611 208.21 33.3787C207.867 33.8751 201.589 35.6091 201.307 34.6367C201.3 34.2219 201.361 33.4127 201.542 33.0863C201.724 32.7599 203.115 33.3583 207.282 31.6447Z" fill="#407BFF"/>
<path d="M206.22 31.6859C206.469 31.1215 207.161 30.2172 207.759 30.734C208.358 31.2508 208.62 32.366 208.223 32.5428C207.833 32.7264 205.803 32.6311 206.22 31.6859Z" fill="#407BFF"/>
<path d="M207.504 31.9777C207.921 31.5357 208.876 30.9169 209.272 31.6037C209.669 32.2973 209.541 33.4329 209.111 33.4669C208.681 33.5009 206.799 32.7257 207.504 31.9777Z" fill="#407BFF"/>
<path d="M207.733 31.8759C207.639 31.3047 207.908 30.5635 208.667 30.0603C209.427 29.5571 210.173 29.2307 210.475 28.7139C210.475 28.7139 210.697 29.5299 210.549 30.2371C210.395 30.9647 208.008 31.5155 208.17 32.1547L207.733 31.8759Z" fill="#407BFF"/>
<path d="M207.632 31.8422C207.249 31.4138 207.074 30.6454 207.437 29.8022C207.807 28.959 208.257 28.279 208.23 27.6738C208.23 27.6738 208.855 28.2314 209.111 28.9114C209.373 29.605 207.666 31.3866 208.15 31.8286L207.632 31.8422Z" fill="#407BFF"/>
<path d="M254.379 164.68C254.352 164.68 254.325 164.666 254.312 164.646C254.157 164.421 238.792 142.24 233.153 122.751C227.856 104.425 225.948 92.5046 224.684 84.6234C223.521 77.361 222.822 72.975 220.503 69.3778C220.476 69.337 220.49 69.2826 220.53 69.2622C220.57 69.235 220.624 69.2486 220.644 69.2894C222.983 72.9206 223.682 77.3134 224.852 84.603C226.116 92.4842 228.018 104.391 233.314 122.71C238.94 142.172 254.292 164.333 254.446 164.551C254.473 164.591 254.467 164.639 254.426 164.666C254.413 164.673 254.399 164.68 254.379 164.68Z" fill="#407BFF"/>
<path opacity="0.4" d="M254.379 164.68C254.352 164.68 254.325 164.666 254.312 164.646C254.157 164.421 238.792 142.24 233.153 122.751C227.856 104.425 225.948 92.5046 224.684 84.6234C223.521 77.361 222.822 72.975 220.503 69.3778C220.476 69.337 220.49 69.2826 220.53 69.2622C220.57 69.235 220.624 69.2486 220.644 69.2894C222.983 72.9206 223.682 77.3134 224.852 84.603C226.116 92.4842 228.018 104.391 233.314 122.71C238.94 142.172 254.292 164.333 254.446 164.551C254.473 164.591 254.467 164.639 254.426 164.666C254.413 164.673 254.399 164.68 254.379 164.68Z" fill="black"/>
<path d="M225.982 181.048L215.711 182.394L215.039 179.498L225.733 177.206L225.982 181.048Z" fill="#407BFF"/>
<path d="M257.464 164.361L249.889 168.787L247.335 166.571L255.622 160.906L257.464 164.361Z" fill="#407BFF"/>
<path d="M221.915 40.9678C222.278 42.865 222.493 44.6398 222.688 46.4826C222.87 48.3118 222.964 50.1478 223.018 51.9974C223.078 53.8402 223.024 55.7034 222.897 57.5598C222.823 58.4914 222.742 59.423 222.614 60.3614C222.561 60.8306 222.5 61.293 222.413 61.7622L222.164 63.2038C221.848 64.6046 221.27 65.5906 220.679 66.461C220.074 67.3314 219.435 68.0794 218.77 68.7798C217.446 70.1806 216.041 71.3774 214.602 72.5198C211.706 74.7638 208.728 76.7426 205.555 78.497L204.11 76.2394C205.448 75.1582 206.819 74.043 208.13 72.9074C209.454 71.7854 210.751 70.6226 211.974 69.4258C213.211 68.2426 214.387 67.0118 215.416 65.7606C215.927 65.135 216.39 64.4958 216.753 63.8702C217.116 63.2582 217.378 62.6326 217.412 62.2858C217.614 60.715 217.768 58.9878 217.795 57.3082C217.809 56.4582 217.815 55.6082 217.788 54.7582C217.782 53.9082 217.755 53.0514 217.715 52.1946C217.634 50.481 217.479 48.7674 217.298 47.0538C217.13 45.3538 216.881 43.5926 216.632 41.981L221.915 40.9678Z" fill="#E58A7B"/>
<path d="M221.102 35.1809C223.979 37.5405 223.293 44.5241 223.293 44.5241L213.614 47.7473C213.614 47.7473 214.058 39.6893 214.535 36.7925C215.1 33.3517 218.272 32.8689 221.102 35.1809Z" fill="#407BFF"/>
<path opacity="0.2" d="M221.102 35.1809C223.979 37.5405 223.293 44.5241 223.293 44.5241L213.614 47.7473C213.614 47.7473 214.058 39.6893 214.535 36.7925C215.1 33.3517 218.272 32.8689 221.102 35.1809Z" fill="black"/>
<path d="M93.5817 64.2584C92.8087 60.8652 89.8244 58.458 86.3763 58.458H32.5713C28.4914 58.458 25.1777 61.8036 25.1777 65.938V186.856C25.1777 190.983 28.4847 194.336 32.5713 194.336H203.309C207.389 194.336 210.702 190.99 210.702 186.856V85.284C210.702 81.1564 207.396 77.804 203.309 77.804H110.405C102.36 77.8108 95.383 72.1872 93.5817 64.2584Z" fill="#407BFF"/>
<path opacity="0.6" d="M93.5817 64.2584C92.8087 60.8652 89.8244 58.458 86.3763 58.458H32.5713C28.4914 58.458 25.1777 61.8036 25.1777 65.938V186.856C25.1777 190.983 28.4847 194.336 32.5713 194.336H203.309C207.389 194.336 210.702 190.99 210.702 186.856V85.284C210.702 81.1564 207.396 77.804 203.309 77.804H110.405C102.36 77.8108 95.383 72.1872 93.5817 64.2584Z" fill="black"/>
<path opacity="0.22" d="M74.6006 26.5996L79.393 42.3008C80.6633 46.4624 85.0322 48.7948 89.1457 47.5096L104.659 42.6612L74.6006 26.5996Z" fill="#407BFF"/>
<path d="M74.6008 26.5996L19.1491 43.926C15.0356 45.2112 12.7301 49.6244 14.0005 53.786L45.6584 157.472C46.9287 161.634 51.2909 163.966 55.4044 162.681L126.376 140.5C130.489 139.214 132.795 134.801 131.525 130.64L104.659 42.6544L74.6008 26.5996Z" fill="#407BFF"/>
<path opacity="0.8" d="M74.6008 26.5996L19.1491 43.926C15.0356 45.2112 12.7301 49.6244 14.0005 53.786L45.6584 157.472C46.9287 161.634 51.2909 163.966 55.4044 162.681L126.376 140.5C130.489 139.214 132.795 134.801 131.525 130.64L104.659 42.6544L74.6008 26.5996Z" fill="white"/>
<g opacity="0.28">
<path d="M104.437 135.998L58.3009 150.414C56.513 150.971 54.5974 149.951 54.0462 148.142C53.4951 146.334 54.5033 144.396 56.2912 143.838L102.427 129.422C104.215 128.864 106.131 129.884 106.682 131.693C107.24 133.502 106.225 135.44 104.437 135.998Z" fill="#407BFF"/>
</g>
<g opacity="0.28">
<path d="M54.7864 51.3716L30.381 59.0012C28.5931 59.5588 26.6775 58.5388 26.1263 56.73C25.5752 54.9212 26.5834 52.9832 28.3713 52.4256L52.7767 44.796C54.5646 44.2384 56.4802 45.2584 57.0314 47.0672C57.5893 48.8692 56.5811 50.8072 54.7864 51.3716Z" fill="#407BFF"/>
</g>
<g opacity="0.28">
<path d="M74.695 59.4576L34.3732 72.058C32.5853 72.6156 30.6697 71.5956 30.1185 69.7868C29.5673 67.978 30.5756 66.04 32.3635 65.4824L72.6853 52.882C74.4732 52.3244 76.3888 53.3444 76.9399 55.1532C77.4978 56.9552 76.4829 58.8932 74.695 59.4576Z" fill="#407BFF"/>
</g>
<g opacity="0.28">
<path d="M97.2113 66.7261L38.3585 85.1201C36.5706 85.6777 34.655 84.6577 34.1038 82.8489C33.5527 81.0401 34.5609 79.1021 36.3488 78.5445L95.2016 60.1505C96.9895 59.5929 98.9051 60.6129 99.4562 62.4217C100.014 64.2237 98.9992 66.1617 97.2113 66.7261Z" fill="#407BFF"/>
</g>
<g opacity="0.28">
<path d="M101.198 79.7828L66.9855 90.4724C65.1976 91.03 63.282 90.01 62.7308 88.2012C62.1796 86.3924 63.1879 84.4544 64.9758 83.8968L99.1878 73.2072C100.976 72.6496 102.891 73.6696 103.442 75.4784C104 77.2872 102.985 79.2252 101.198 79.7828Z" fill="#407BFF"/>
</g>
<g opacity="0.28">
<path d="M51.2979 95.3814L42.3517 98.1762C40.5638 98.7338 38.6482 97.7138 38.097 95.905C37.5459 94.0962 38.5541 92.1582 40.342 91.6006L49.2882 88.8058C51.0761 88.2482 52.9917 89.2682 53.5428 91.077C54.1007 92.879 53.0858 94.817 51.2979 95.3814Z" fill="#407BFF"/>
</g>
<g opacity="0.28">
<path d="M105.19 92.8453L46.337 111.239C44.5491 111.797 42.6335 110.777 42.0824 108.968C41.5312 107.159 42.5394 105.221 44.3273 104.664L103.18 86.2697C104.968 85.7121 106.884 86.7321 107.435 88.5409C107.986 90.3497 106.978 92.2877 105.19 92.8453Z" fill="#407BFF"/>
</g>
<g opacity="0.28">
<path d="M86.4644 113.001L50.3234 124.295C48.5355 124.853 46.6198 123.833 46.0687 122.024C45.5175 120.215 46.5257 118.277 48.3136 117.72L84.4547 106.425C86.2426 105.867 88.1582 106.887 88.7094 108.696C89.2673 110.505 88.2591 112.443 86.4644 113.001Z" fill="#407BFF"/>
</g>
<g opacity="0.28">
<path d="M109.176 105.908L99.5304 108.92C97.7425 109.478 95.8269 108.458 95.2757 106.649C94.7246 104.84 95.7328 102.902 97.5207 102.345L107.166 99.3322C108.954 98.7746 110.869 99.7946 111.421 101.603C111.978 103.405 110.964 105.343 109.176 105.908Z" fill="#407BFF"/>
</g>
<g opacity="0.28">
<path d="M113.161 118.964L54.3087 137.358C52.5208 137.916 50.6052 136.896 50.054 135.087C49.5029 133.278 50.5111 131.34 52.299 130.783L111.152 112.389C112.94 111.831 114.855 112.851 115.406 114.66C115.964 116.469 114.949 118.407 113.161 118.964Z" fill="#407BFF"/>
</g>
<path d="M138.387 34.1338L80.4614 37.7514C76.1597 38.0166 72.8931 41.7566 73.162 46.1086L79.7624 154.419C80.0245 158.771 83.7213 162.076 88.023 161.804L162.16 157.18C166.462 156.915 169.729 153.175 169.46 148.823L163.854 56.9138L138.387 34.1338Z" fill="#407BFF"/>
<path opacity="0.8" d="M138.387 34.1338L80.4614 37.7514C76.1597 38.0166 72.8931 41.7566 73.162 46.1086L79.7624 154.419C80.0245 158.771 83.7213 162.076 88.023 161.804L162.16 157.18C166.462 156.915 169.729 153.175 169.46 148.823L163.854 56.9138L138.387 34.1338Z" fill="white"/>
<g opacity="0.22">
<path d="M141.888 147.565L93.689 150.57C91.8205 150.686 90.1939 149.238 90.0796 147.347C89.9654 145.457 91.397 143.811 93.2656 143.696L141.465 140.69C143.333 140.574 144.96 142.023 145.074 143.913C145.195 145.81 143.757 147.449 141.888 147.565Z" fill="#407BFF"/>
</g>
<g opacity="0.22">
<path d="M113.363 53.4799L87.8687 55.0711C86.0002 55.1867 84.3736 53.7383 84.2593 51.8479C84.1451 49.9575 85.5767 48.3119 87.4453 48.1963L112.94 46.6051C114.808 46.4895 116.435 47.9379 116.549 49.8283C116.663 51.7187 115.232 53.3643 113.363 53.4799Z" fill="#407BFF"/>
</g>
<g opacity="0.22">
<path d="M130.825 66.0873L88.7017 68.7189C86.8332 68.8345 85.2066 67.3861 85.0923 65.4957C84.9781 63.6053 86.4097 61.9597 88.2783 61.8441L130.401 59.2125C132.27 59.0969 133.897 60.5453 134.011 62.4357C134.125 64.3261 132.693 65.9717 130.825 66.0873Z" fill="#407BFF"/>
</g>
<g opacity="0.22">
<path d="M151.01 78.5238L89.5357 82.359C87.6672 82.4746 86.0406 81.0263 85.9263 79.1359C85.812 77.2455 87.2437 75.5998 89.1123 75.4842L150.586 71.649C152.455 71.5334 154.082 72.9818 154.196 74.8722C154.317 76.7626 152.878 78.4014 151.01 78.5238Z" fill="#407BFF"/>
</g>
<g opacity="0.22">
<path d="M151.843 92.1654L116.105 94.3958C114.236 94.5114 112.61 93.063 112.496 91.1726C112.381 89.2822 113.813 87.6366 115.682 87.521L151.419 85.2906C153.288 85.175 154.915 86.6234 155.029 88.5138C155.143 90.4042 153.711 92.0498 151.843 92.1654Z" fill="#407BFF"/>
</g>
<g opacity="0.22">
<path d="M99.7114 95.4155L90.3619 96.0002C88.4933 96.1158 86.8667 94.6675 86.7525 92.7771C86.6382 90.8867 88.0699 89.2411 89.9384 89.1255L99.2879 88.5406C101.156 88.425 102.783 89.8735 102.897 91.7639C103.018 93.6611 101.58 95.2999 99.7114 95.4155Z" fill="#407BFF"/>
</g>
<g opacity="0.22">
<path d="M152.677 105.806L91.2027 109.641C89.3342 109.757 87.7076 108.308 87.5933 106.418C87.479 104.528 88.9107 102.882 90.7793 102.766L152.253 98.9313C154.122 98.8157 155.749 100.264 155.863 102.154C155.977 104.052 154.545 105.69 152.677 105.806Z" fill="#407BFF"/>
</g>
<g opacity="0.22">
<path d="M129.783 120.929L92.0289 123.282C90.1603 123.398 88.5337 121.949 88.4195 120.059C88.3052 118.168 89.7369 116.523 91.6054 116.407L129.36 114.054C131.228 113.939 132.855 115.387 132.969 117.278C133.09 119.175 131.652 120.814 129.783 120.929Z" fill="#407BFF"/>
</g>
<g opacity="0.22">
<path d="M153.503 119.454L143.427 120.079C141.559 120.195 139.932 118.746 139.818 116.856C139.704 114.966 141.135 113.32 143.004 113.204L153.079 112.579C154.948 112.463 156.574 113.912 156.689 115.802C156.81 117.692 155.371 119.331 153.503 119.454Z" fill="#407BFF"/>
</g>
<g opacity="0.22">
<path d="M154.337 133.094L92.8629 136.929C90.9943 137.045 89.3677 135.597 89.2535 133.706C89.1392 131.816 90.5709 130.17 92.4394 130.055L153.914 126.219C155.782 126.104 157.409 127.552 157.523 129.443C157.644 131.333 156.206 132.979 154.337 133.094Z" fill="#407BFF"/>
</g>
<path opacity="0.22" d="M138.387 34.1338L139.388 50.5354C139.65 54.8874 143.354 58.1922 147.656 57.9202L163.861 56.907L138.387 34.1338Z" fill="#407BFF"/>
<path opacity="0.5" d="M119.419 75.0494C119.305 71.6562 116.778 69.249 113.336 69.249H59.5313C55.4514 69.249 51.4925 72.5946 50.6994 76.729L29.4395 186.855C28.6397 190.983 31.3081 194.335 35.388 194.335H206.126C210.205 194.335 214.164 190.989 214.958 186.855L232.48 96.075C233.28 91.9474 230.612 88.595 226.532 88.595H133.628C125.583 88.595 119.695 82.9782 119.419 75.0494Z" fill="#407BFF"/>
</svg>
