<svg width="513" height="600" viewBox="0 0 513 600" fill="none" xmlns="http://www.w3.org/2000/svg">
    <path d="M420.968 474.194V445.161H450V474.194H420.968Z" fill="#005AFE"/>
    <path d="M425.806 150V120.968H454.839V150H425.806Z" fill="#005AFE"/>
    <path d="M63.2924 195.871H112.78V406.171H63.2924V195.871Z" fill="#D8DFEA"/>
    <path d="M116.456 209.19H59.616C51.8343 209.19 45.5262 202.958 45.5262 195.27V164.926H130.546V195.27C130.546 202.958 124.238 209.19 116.456 209.19ZM116.456 384.039H59.616C51.8343 384.039 45.5262 390.271 45.5262 397.959V428.304H130.546V397.959C130.546 390.271 124.238 384.039 116.456 384.039Z"
          fill="#014FDE"/>
    <path d="M400.095 195.871H449.583V406.171H400.095V195.871Z" fill="#D8DFEA"/>
    <path d="M453.259 209.19H396.419C388.637 209.19 382.329 202.958 382.329 195.27V164.926H467.349V195.27C467.349 202.958 461.041 209.19 453.259 209.19ZM453.259 384.039H396.419C388.637 384.039 382.329 390.271 382.329 397.959V428.304H467.349V397.959C467.349 390.271 461.041 384.039 453.259 384.039Z"
          fill="#014FDE"/>
    <path d="M231.694 195.871H281.181V406.171H231.694V195.871Z" fill="#D8DFEA"/>
    <path d="M284.858 209.19H228.018C220.236 209.19 213.928 202.958 213.928 195.27V164.926H298.947V195.27C298.946 202.958 292.638 209.19 284.858 209.19ZM284.858 384.039H228.018C220.236 384.039 213.928 390.271 213.928 397.959V428.304H298.947V397.959C298.946 390.271 292.638 384.039 284.858 384.039Z"
          fill="#014FDE"/>
    <path d="M429.71 159.594V130.669H19.7548V159.594C19.7548 168.433 27.0076 175.598 35.9533 175.598H415.574C424.521 175.598 429.71 168.433 429.71 159.594Z"
          fill="#0650D8"/>
    <path d="M429.71 130.669V159.594C429.71 168.433 422.457 175.598 413.511 175.598H476.922C485.869 175.598 493.12 168.432 493.12 159.594V130.669H429.71Z"
          fill="#005AFE"/>
    <path d="M441.604 138.783C448.287 135.669 451.627 129.689 451.647 123.451V86.9784C451.647 86.3222 451.455 85.6799 451.094 85.1291C450.733 84.5782 450.219 84.1422 449.613 83.8737L263.84 1.51638C261.586 0.517616 259.145 0.000853891 256.675 1.05733e-06C254.205 -0.000851776 251.763 0.514224 249.509 1.51143L10.3542 107.355C-3.30382 113.401 -3.49215 132.49 10.0437 138.796C12.3799 139.885 14.9309 140.449 17.5138 140.449H434.104C436.693 140.449 439.248 139.882 441.589 138.789L441.604 138.783Z"
          fill="#005AFE"/>
    <path d="M502.559 107.347L449.583 83.8608V123.452C449.563 129.69 446.223 135.669 439.539 138.784L439.51 138.797C437.174 139.886 432.293 140.449 429.71 140.449L495.36 140.45C497.944 140.45 500.494 139.886 502.83 138.797L502.859 138.784C516.391 132.478 516.209 113.398 502.559 107.347Z"
          fill="#0351DF"/>
    <path d="M421.937 416.537H28.7316C26.3511 416.537 24.068 417.472 22.3847 419.135C20.7015 420.798 19.7558 423.053 19.7558 425.405V466.325H429.709V425.405C429.708 423.053 429.968 420.797 428.284 419.134C426.601 417.471 424.318 416.537 421.937 416.537Z"
          fill="#0650D8"/>
    <path d="M484.143 416.537H420.733C423.113 416.537 425.396 417.472 427.08 419.135C428.763 420.798 429.709 423.053 429.709 425.405V466.325H493.119V425.405C493.119 423.053 492.174 420.798 490.49 419.135C488.807 417.472 486.524 416.537 484.143 416.537Z"
          fill="#005AFE"/>
    <path d="M429.709 449.729H17.2343C7.95701 449.729 0.435767 457.16 0.435767 466.325V478.236C0.435767 480.113 1.1905 481.914 2.53394 483.241C3.19914 483.898 3.98886 484.419 4.85799 484.775C5.72711 485.131 6.65864 485.314 7.59938 485.314H450.696V469.044C450.697 458.377 440.506 449.729 429.709 449.729Z"
          fill="#005AFE"/>
    <path d="M496.105 449.729H429.709C440.506 449.729 449.492 458.376 449.492 469.043V485.313H505.739C507.638 485.313 509.461 484.567 510.804 483.24C512.147 481.913 512.902 480.112 512.902 478.235V466.324C512.903 457.16 505.382 449.729 496.105 449.729Z"
          fill="#0351DF"/>
    <path d="M256.438 110.351C274.09 110.351 288.401 96.2131 288.401 78.7728C288.401 61.3324 274.09 47.1942 256.438 47.1942C238.785 47.1942 224.474 61.3324 224.474 78.7728C224.474 96.2131 238.785 110.351 256.438 110.351Z"
          fill="#FEFEFE"/>
    <path d="M0 600V511.857H23.0879V581.98H60.645V600H0Z" fill="#005BFF"/>
    <path d="M71.2138 600V511.857H94.3017V600H71.2138Z" fill="#005BFF"/>
    <path d="M108.079 600V511.857H150.291C168.284 511.857 179.167 520.286 179.167 534.03V534.152C179.167 544.109 171.303 552.05 160.986 553.332V553.76C173.379 554.371 183.13 563.106 183.13 574.65V574.773C183.13 590.104 170.863 600 151.424 600H108.079ZM144.189 527.677H131.167V548.079H142.491C151.738 548.079 156.645 544.17 156.645 537.573V537.451C156.645 531.342 151.99 527.677 144.189 527.677ZM144.189 562.189H131.167V584.179H144.881C154.318 584.179 159.665 580.331 159.665 573.184V573.062C159.665 566.038 154.318 562.189 144.189 562.189Z"
          fill="#005BFF"/>
    <path d="M192.881 600V511.857H255.099V529.876H215.969V547.285H252.771V564.144H215.969V581.98H255.099V600H192.881Z"
          fill="#005BFF"/>
    <path d="M268.121 600V511.857H307.44C329.395 511.857 341.789 522.424 341.789 541.116V541.238C341.789 552.538 335.749 562.312 326.313 566.282L344.494 600H318.575L302.973 569.642H291.209V600H268.121ZM291.209 553.393H304.861C313.039 553.393 318.26 548.629 318.26 541.177V541.055C318.26 533.664 312.85 528.777 304.735 528.777H291.209V553.393Z"
          fill="#005BFF"/>
    <path d="M374.502 600V529.876H349.464V511.857H422.565V529.876H397.527V600H374.502Z" fill="#005BFF"/>
    <path d="M458.549 600V569.703L427.283 511.857H451.818L469.873 548.507H470.313L488.368 511.857H512.903L481.637 569.703V600H458.549Z"
          fill="#005BFF"/>
</svg>
