<svg width="140" height="176" viewBox="0 0 140 176" fill="none" xmlns="http://www.w3.org/2000/svg">
<g clip-path="url(#clip0_6212_27064)">
<path d="M139.667 173.381C139.667 174.829 108.477 176 70 176C31.5231 176 0.333374 174.829 0.333374 173.381C0.333374 171.933 31.5231 170.762 70 170.762C108.477 170.762 139.667 171.933 139.667 173.381Z" fill="#F5F5F5"/>
<path d="M19.4148 47.0792C19.4148 40.4216 21.4788 33.6795 25.6068 26.8442C29.7347 20.0131 35.7604 14.3544 43.6795 9.86808C51.5986 5.38598 60.8396 3.14282 71.3984 3.14282C81.2109 3.14282 89.8762 5.01777 97.3902 8.76766C104.904 12.5175 110.708 17.6133 114.802 24.0592C118.896 30.5094 120.943 37.514 120.943 45.0815C120.943 51.0364 119.774 56.2592 117.442 60.7413C115.105 65.2276 112.333 69.096 109.117 72.3549C105.902 75.6139 100.132 81.0948 91.808 88.8062C89.5052 90.9774 87.663 92.8905 86.2728 94.5326C84.8868 96.179 83.8548 97.6858 83.1768 99.0528C82.4987 100.42 81.9742 101.787 81.6032 103.154C81.2322 104.521 80.6735 106.921 79.9273 110.353C78.6394 117.641 74.6138 121.286 67.8461 121.286C64.3279 121.286 61.3641 120.096 58.9633 117.713C56.5624 115.331 55.3598 111.792 55.3598 107.099C55.3598 101.211 56.2383 96.1155 57.9995 91.807C59.7607 87.4984 62.0934 83.7147 65.006 80.4557C67.9186 77.1968 71.8419 73.3242 76.7844 68.8421C81.117 64.9187 84.2472 61.956 86.1747 59.9583C88.1022 57.9606 89.727 55.7386 91.0489 53.2838C92.3709 50.8333 93.0276 48.1711 93.0276 45.2973C93.0276 39.6894 91.0148 34.9619 86.9849 31.1062C82.9593 27.2547 77.7609 25.3247 71.3984 25.3247C63.9527 25.3247 58.4686 27.2674 54.9504 31.1569C51.4322 35.0465 48.4514 40.7729 46.0164 48.3404C43.7136 56.2592 39.3511 60.2165 32.9203 60.2165C29.1292 60.2165 25.9309 58.8325 23.3253 56.0645C20.7197 53.2965 19.4148 50.3 19.4148 47.0792Z" fill="#407BFF"/>
<g opacity="0.2">
<path d="M90.5116 77.6158C88.7163 67.657 86.857 63.6489 84.4518 61.6766C82.5584 63.5304 79.9998 65.9175 76.7758 68.8378C72.618 72.6089 69.1851 75.9482 66.4644 78.8516C67.4964 91.917 68.9634 110.472 68.9804 110.628L69.8674 121.167C73.6372 120.706 76.392 118.894 78.1319 115.737C77.8121 111.818 77.0871 110.29 77.0871 110.29C77.0871 110.29 78.004 96.9408 78.874 86.5419C80.1064 90.6811 81.2876 95.3156 82.874 99.6919C82.9721 99.4803 83.0659 99.2686 83.1725 99.057C83.8506 97.69 84.8826 96.1832 86.2685 94.5368C87.6544 92.8904 89.5009 90.9816 91.8037 88.8104C92.0298 88.603 92.243 88.4041 92.4647 88.1967C91.6289 83.9771 90.8997 79.9986 90.5116 77.6158Z" fill="black"/>
</g>
<g opacity="0.2">
<path d="M95.4157 63.4923L91.4455 52.4755C91.3176 52.7463 91.1854 53.013 91.0447 53.2796C90.26 54.7356 89.3687 56.1111 88.3708 57.4062L92.2771 64.6943C92.0425 65.0626 91.7526 65.6636 91.7995 66.2942C91.8805 67.3269 91.6673 68.1734 91.7824 68.9394C91.8975 69.7055 92.4605 68.8251 92.6651 68.2961C92.8698 67.767 93.1044 67.1703 93.4797 67.3861C93.8549 67.602 95.7228 70.8101 96.2771 71.0514C96.8315 71.2926 96.695 70.6789 96.695 70.6789C96.695 70.6789 97.1684 71.445 97.5266 71.3434C97.6204 71.318 97.791 71.1064 97.629 70.7213C97.2665 69.8579 96.4136 68.0887 96.4136 68.0887C96.4605 68.1903 97.6716 70.3022 97.8976 70.5943C98.1876 70.9752 98.5245 71.0091 98.742 70.8355C99.0533 70.5858 97.6375 67.9194 97.6588 67.767C97.6588 67.767 98.4221 69.3288 98.9339 69.3542C99.4499 69.3796 99.0234 68.3723 98.4776 67.5512C97.9786 66.8021 97.194 65.198 96.6098 64.4827C96.2174 64.0045 95.8422 63.6659 95.4157 63.4923Z" fill="black"/>
</g>
<g opacity="0.2">
<path d="M50.0548 36.2146C50.0804 36.202 50.1017 36.1892 50.1273 36.1765C50.703 35.8676 50.2126 33.5144 50.2126 33.5144C50.2126 33.5144 50.8054 32.8795 50.5794 32.287C50.4599 31.9738 50.315 31.923 50.315 31.923C50.7585 31.4321 50.6902 30.666 50.1572 30.2681C50.1103 30.2343 50.0804 30.2131 50.0804 30.2131C50.2766 29.955 50.0634 29.1381 49.5516 29.3709C49.4407 29.4217 49.2019 29.574 48.9077 29.7772V28.7995C48.9631 28.7995 49.0143 28.7953 49.0527 28.7953C50.8224 28.6895 52.1359 26.6622 51.9866 24.2666C51.8374 21.8753 50.2851 20.0216 48.5154 20.1274C48.4087 20.1358 48.3064 20.1485 48.1998 20.1697C48.2126 20.1697 48.2254 20.1739 48.2339 20.1739C48.2083 20.1739 48.1827 20.1781 48.1614 20.1781C48.1742 20.1739 48.187 20.1697 48.1998 20.1697C48.0932 20.1612 47.9908 20.1612 47.8842 20.1655C46.1145 20.2713 44.801 22.2986 44.9503 24.6941C45.0867 26.8992 46.4172 28.6429 48.0079 28.8164V30.4332C47.0441 31.1696 46.0079 32.0584 46.0377 32.3082C46.0932 32.7399 47.2915 36.6633 47.2915 36.6633H47.3213C47.4237 37.6579 47.6923 40.0619 48.0974 42.6309C48.865 40.7729 49.6796 39.063 50.5367 37.5013L50.0548 36.2146ZM48.6817 28.7868C48.6689 28.7868 48.6603 28.7826 48.6476 28.7826C48.6731 28.7783 48.6945 28.7783 48.7201 28.7783C48.7073 28.7826 48.6945 28.7868 48.6817 28.7868Z" fill="black"/>
</g>
<g opacity="0.2">
<path d="M67.1126 15.4337C67.1041 15.4295 67.0956 15.4295 67.0828 15.4295C66.8269 15.3956 66.5625 15.3829 66.2896 15.3956C65.3088 15.3279 64.4644 15.2432 62.1232 16.0982C59.3513 17.2367 58.153 19.4164 57.8204 21.1008C57.6285 23.4244 58.0635 25.1851 58.1999 27.5044L58.3833 27.2547C58.3833 27.4875 58.3876 27.7161 58.4004 27.9404C58.4089 28.0673 58.4259 28.1858 58.4387 28.3086C61.7565 26.3194 66.0721 25.3205 71.3984 25.3205C71.6884 25.3205 71.9698 25.329 72.2555 25.3375C72.1958 25.257 72.1276 25.1851 72.0466 25.1174C72.2214 24.5037 72.3621 23.8688 72.4901 23.2721C72.6052 22.6838 72.6308 22.0912 72.5924 21.5029C73.4368 21.8034 74.2428 22.396 74.5541 23.1112C74.972 24.0762 75.3558 24.8211 75.8334 25.6633C79.245 26.2178 82.2514 27.441 84.857 29.3286C85.987 29.117 87.0787 28.7318 88.0212 28.0335C89.4071 27.005 90.3453 25.0116 89.7611 23.2848C89.211 23.8053 88.4561 24.0508 87.7397 23.945C88.3581 23.2974 88.6139 22.2605 88.3837 21.359C85.987 22.3028 83.1256 23.4794 80.8313 22.269C79.778 21.7145 79.1 20.5168 78.2599 19.6237C77.4198 18.7307 76.5029 17.8546 75.3771 17.4991C74.4602 17.2113 72.6692 17.77 71.7097 18.5826C71.5519 18.3117 71.3856 18.0451 71.1894 17.7954C70.3024 16.9066 68.8951 15.6749 67.1126 15.4337Z" fill="black"/>
</g>
<path d="M68.2427 173.009C64.0038 173.009 60.3023 171.587 57.1423 168.747C53.9781 165.903 52.4003 161.933 52.4003 156.821C52.4003 152.288 53.9312 148.474 56.9888 145.381C60.0464 142.287 63.7991 140.742 68.2469 140.742C72.6265 140.742 76.3067 142.291 79.2961 145.381C82.2855 148.474 83.7781 152.288 83.7781 156.821C83.7781 161.857 82.213 165.814 79.0872 168.692C75.9613 171.57 72.3408 173.009 68.2427 173.009Z" fill="#407BFF"/>
<g opacity="0.2">
<path d="M69.0956 144.822C68.6777 144.411 68.0423 144.322 67.458 144.293C65.8162 144.208 64.3109 144.428 62.7288 144.881C60.3833 145.774 58.3833 147.539 57.2234 149.753C56.0635 151.966 55.7479 154.603 56.3577 157.024C56.6349 158.124 57.3684 159.36 58.507 159.309C59.2618 159.275 59.846 158.674 60.3492 158.116C61.5475 156.782 62.7458 155.454 63.9442 154.12C65.7395 152.127 67.5433 150.112 68.8994 147.801C69.441 146.874 69.8675 145.579 69.0956 144.822Z" fill="white"/>
</g>
<path d="M42.9332 23.1282C42.7925 20.8808 43.9482 18.9551 45.5559 18.6419C45.4493 18.6334 45.3469 18.6334 45.2403 18.6377C43.4706 18.7435 42.1571 20.7708 42.3064 23.1663C42.4556 25.5576 44.0079 27.4114 45.7776 27.3056C45.8842 27.2971 45.9866 27.2844 46.0932 27.2633C44.4556 27.149 43.074 25.3799 42.9332 23.1282Z" fill="#263238"/>
<path opacity="0.5" d="M45.7563 27.2716C47.4732 27.2716 48.8651 25.3388 48.8651 22.9546C48.8651 20.5704 47.4732 18.6376 45.7563 18.6376C44.0394 18.6376 42.6475 20.5704 42.6475 22.9546C42.6475 25.3388 44.0394 27.2716 45.7563 27.2716Z" fill="white"/>
<path opacity="0.5" d="M47.6796 19.8945L42.7712 24.1862C42.8351 24.5248 42.9759 24.9099 43.1465 25.3162L48.2169 20.7918C48.1017 20.4828 47.9141 20.1866 47.6796 19.8945Z" fill="white"/>
<path opacity="0.5" d="M47.0141 19.175L42.6516 23.2678L42.6899 23.6317L47.3254 19.4967C47.206 19.1877 47.223 19.2893 47.0141 19.175Z" fill="white"/>
<path d="M49.3427 22.7429C49.1934 20.3517 47.6412 18.4979 45.8714 18.6037C45.7648 18.6121 45.6625 18.6248 45.5558 18.646C47.1891 18.7603 48.5708 20.5336 48.7073 22.781C48.8437 25.0284 47.5943 26.9626 45.9866 27.2758C46.0932 27.2843 46.2979 27.2801 46.4045 27.2716C48.1742 27.1616 49.4877 25.1342 49.3427 22.7429Z" fill="#263238"/>
<path d="M45.82 34.0011H45.8029C45.56 34.0011 45.364 33.8064 45.364 33.5652V27.2759H46.259V33.5652C46.259 33.8064 46.0629 34.0011 45.82 34.0011Z" fill="#263238"/>
<path d="M54.5965 38.843L51.0357 44.3916L47.1764 34.0688L44.6262 34.6529C44.6262 34.6529 45.8331 47.4262 47.8373 49.4028C49.3128 50.8545 51.4621 50.9645 53.0016 49.7625C54.5155 48.5774 59.5475 42.322 59.5475 42.322L54.5965 38.843Z" fill="#B97964"/>
<path d="M44.6476 35.1396C44.6476 35.1396 43.4492 31.2161 43.3938 30.7844C43.3384 30.3527 46.3917 28.0757 46.9034 27.8429C47.4152 27.6102 47.6327 28.4228 47.4322 28.6852C47.4322 28.6852 47.4621 28.7063 47.509 28.7402C48.0421 29.1338 48.1103 29.9041 47.6668 30.3951C47.6668 30.3951 47.8118 30.4458 47.9312 30.759C48.1572 31.3516 47.5644 31.9864 47.5644 31.9864C47.5644 31.9864 48.0591 34.3396 47.4792 34.6486C46.8693 34.9745 46.3747 35.2157 46.3661 35.1523L44.6476 35.1396Z" fill="#B97964"/>
<path d="M45.5558 33.1123L46.3742 32.5071V33.8995C46.3742 34.1704 46.1909 34.3905 45.965 34.3905C45.7391 34.3905 45.5558 34.1704 45.5558 33.8995V33.1123Z" fill="#263238"/>
<path d="M68.4943 131.49L69.0487 137.258L73.4198 137.733L73.8633 131.528L68.4943 131.49Z" fill="#B97964"/>
<path d="M68.102 136.336C68.0935 136.107 68.2939 135.925 68.5199 135.934L69.8504 135.985C70.1873 135.989 70.5285 136.611 70.7246 136.886C71.5647 138.08 72.2129 137.644 73.1596 136.543C73.7524 136.48 73.9016 137.17 73.9486 137.356L75.0019 141.457C75.0957 141.8 74.8953 142.151 74.5541 142.244C74.4944 142.261 74.4304 142.27 74.3707 142.265C72.5669 142.24 71.714 142.227 69.4709 142.198L62.6094 142.105C60.7373 142.079 60.3791 140.166 61.151 140.001C64.6265 139.273 67.0913 138.274 68.1788 137.271C68.3238 137.14 68.1191 136.755 68.102 136.336Z" fill="#263238"/>
<path d="M67.4581 137.606C67.9698 137.682 68.4389 137.999 68.7076 138.444" stroke="white" stroke-width="0.5" stroke-miterlimit="10" stroke-linecap="round" stroke-linejoin="round"/>
<path d="M66.473 138.173C66.9847 138.249 67.4538 138.567 67.7224 139.011" stroke="white" stroke-width="0.5" stroke-miterlimit="10" stroke-linecap="round" stroke-linejoin="round"/>
<path d="M65.2619 138.744C65.7736 138.82 66.2427 139.138 66.5114 139.583" stroke="white" stroke-width="0.5" stroke-miterlimit="10" stroke-linecap="round" stroke-linejoin="round"/>
<path d="M104.013 122.492L108.721 125.84L111.983 122.877L107.599 118.479L104.013 122.492Z" fill="#B97964"/>
<path d="M107.352 125.988C107.173 125.844 107.169 125.573 107.322 125.408L108.222 124.426C108.444 124.172 109.134 124.316 109.467 124.346C110.913 124.485 111.002 123.702 110.789 122.259C111.126 121.764 111.744 122.102 111.915 122.187L115.689 124.062C116.004 124.214 116.141 124.6 115.992 124.917C115.966 124.972 115.932 125.027 115.889 125.074C114.7 126.436 114.141 127.08 112.661 128.777L108.137 133.962C106.904 135.375 105.228 134.402 105.604 133.703C107.309 130.571 108.158 128.032 108.107 126.546C108.102 126.343 107.676 126.25 107.352 125.988Z" fill="#263238"/>
<path d="M107.949 127.279C108.337 126.94 108.883 126.788 109.39 126.872" stroke="white" stroke-width="0.5" stroke-miterlimit="10" stroke-linecap="round" stroke-linejoin="round"/>
<path d="M107.736 128.405C108.124 128.066 108.67 127.913 109.177 127.998" stroke="white" stroke-width="0.5" stroke-miterlimit="10" stroke-linecap="round" stroke-linejoin="round"/>
<path d="M107.382 129.708C107.77 129.369 108.316 129.217 108.823 129.302" stroke="white" stroke-width="0.5" stroke-miterlimit="10" stroke-linecap="round" stroke-linejoin="round"/>
<path d="M62.8268 64.7071C62.8268 64.7071 66.3109 108.851 66.3407 109.101L68.5199 134.939H74.1788C74.1788 134.939 74.2172 133.449 74.5114 131.49C77.0914 114.311 74.4475 108.758 74.4475 108.758C74.4475 108.758 76.7204 75.5885 77.5179 73.0914C77.5946 72.829 74.8867 53.8214 62.8268 64.7071Z" fill="#263238"/>
<path d="M62.7416 64.652L62.8994 64.9102C65.232 68.0422 69.65 71.3773 71.9613 74.2384L72.763 76.0414C72.763 76.0414 89.5777 63.103 78.648 57.7702C78.1917 57.5501 74.8483 55.7725 74.8483 55.7725C71.9528 55.0742 62.7416 64.652 62.7416 64.652Z" fill="#263238"/>
<path d="M87.8677 76.0879C88.7845 81.7381 91.6246 96.3356 93.2366 101.829C93.2366 101.829 98.1919 104.644 100.994 107.793L109.936 120.287L105.945 123.842L89.6374 112.004C85.9487 109.249 84.4561 107.209 83.0105 104.521C79.471 97.9566 77.7268 89.6019 75.6117 82.9951C74.6351 79.9309 70.8739 70.0652 71.198 66.8951C71.6244 62.6035 71.7779 55.6582 77.036 58.0198C82.0638 59.48 85.0446 60.4111 87.8677 76.0879Z" fill="#263238"/>
<path opacity="0.2" d="M75.3643 84.468L71.2278 69.3076L66.5114 67.7458L70.1916 71.1529L75.3643 84.468Z" fill="black"/>
<path d="M56.5283 36.4897C54.9974 37.7467 52.2937 42.0426 52.2937 42.0426L58.3833 45.4666C58.3833 45.4666 61.4964 40.9676 61.1765 38.9699C60.8439 36.8833 58.8311 35.4866 56.5283 36.4897Z" fill="#263238"/>
<path opacity="0.5" d="M56.5283 36.4897C54.9974 37.7467 52.2937 42.0426 52.2937 42.0426L58.3833 45.4666C58.3833 45.4666 61.4964 40.9676 61.1765 38.9699C60.8439 36.8833 58.8311 35.4866 56.5283 36.4897Z" fill="white"/>
<path opacity="0.3" d="M56.1991 44.1122V39.8121C56.1991 39.8121 54.4261 44.946 54.8353 45.8687C55.2402 46.7913 55.4064 47.2696 55.4064 47.2696L56.0883 46.4866L56.1991 44.1122Z" fill="black"/>
<path d="M78.4987 55.1249C77.1895 53.6351 76.3324 51.8067 76.0296 49.8514C75.569 46.8718 74.9379 42.7029 75.0061 42.377L75.2108 34.3397C73.4198 32.5621 66.7758 32.5452 66.7758 32.5452L62.3194 33.6752C62.3194 33.6752 60.6648 34.399 59.2746 35.1692C57.4238 36.1977 56.4473 36.2527 56.1957 37.4336C56.1957 37.4336 55.8332 41.3104 55.7308 45.2338C55.6967 46.6348 62.2512 59.5181 62.3322 61.9433V65.8921C71.8334 70.6408 81.8122 58.9002 81.8122 58.9002L78.4987 55.1249Z" fill="#263238"/>
<path opacity="0.5" d="M78.4987 55.1249C77.1895 53.6351 76.3324 51.8067 76.0296 49.8514C75.569 46.8718 74.9379 42.7029 75.0061 42.377L75.2108 34.3397C73.4198 32.5621 66.7758 32.5452 66.7758 32.5452L62.3194 33.6752C62.3194 33.6752 60.6648 34.399 59.2746 35.1692C57.4238 36.1977 56.4473 36.2527 56.1957 37.4336C56.1957 37.4336 55.8332 41.3104 55.7308 45.2338C55.6967 46.6348 62.2512 59.5181 62.3322 61.9433V65.8921C71.8334 70.6408 81.8122 58.9002 81.8122 58.9002L78.4987 55.1249Z" fill="white"/>
<path opacity="0.3" d="M75.3729 45.5047C75.3729 45.5047 71.2065 41.7718 71.4197 40.0238L74.9635 41.9114L75.2023 44.2773L75.3729 45.5047Z" fill="black"/>
<path d="M78.4262 37.8484C78.5243 37.9923 84.5542 44.7302 86.9764 47.2781C87.4967 47.8241 87.8976 48.4717 88.162 49.1742L93.1343 62.9676L90.0212 63.8902L82.874 50.5498L73.8889 43.0034L78.4262 37.8484Z" fill="#B97964"/>
<path d="M89.9018 62.7856C89.9018 62.7856 89.0703 63.7294 89.1513 64.7621C89.2323 65.7948 89.0191 66.6412 89.1343 67.4073C89.2494 68.1734 89.8123 67.293 90.017 66.764C90.2217 66.2349 90.4562 65.6382 90.8315 65.854C91.2068 66.0699 93.0746 69.278 93.629 69.5193C94.1833 69.7605 94.0469 69.1468 94.0469 69.1468C94.0469 69.1468 94.5202 69.9129 94.8785 69.8113C94.9723 69.7859 95.1429 69.5743 94.9808 69.1891C94.6183 68.3257 93.7654 66.5566 93.7654 66.5566C93.8123 66.6582 95.0234 68.7701 95.2495 69.0622C95.5394 69.4431 95.8763 69.4769 96.0938 69.3034C96.4051 69.0537 94.9893 66.3873 95.0107 66.2349C95.0107 66.2349 95.774 67.7967 96.2857 67.8221C96.8017 67.8475 96.3753 66.8402 95.8294 66.0191C95.3305 65.27 94.5458 63.6659 93.9616 62.9506C93.2452 62.0703 92.5629 61.6386 91.5266 61.9052C90.4861 62.1719 89.9018 62.7856 89.9018 62.7856Z" fill="#B97964"/>
<path d="M74.0679 33.7345C76.0893 33.8614 79.7567 38.8768 79.7567 38.8768L75.0104 44.2011C75.0104 44.2011 70.5583 40.3412 70.4815 37.7595C70.4176 35.5756 71.5007 33.5652 74.0679 33.7345Z" fill="#263238"/>
<path opacity="0.5" d="M74.0679 33.7345C76.0893 33.8614 79.7567 38.8768 79.7567 38.8768L75.0104 44.2011C75.0104 44.2011 70.5583 40.3412 70.4815 37.7595C70.4176 35.5756 71.5007 33.5652 74.0679 33.7345Z" fill="white"/>
<path d="M59.4836 14.5703C56.7117 15.7088 55.5134 17.8884 55.1807 19.5729C54.9888 21.8965 55.4238 23.6572 55.5603 25.9765L64.4772 13.9015C63.0017 13.9058 62.4303 13.491 59.4836 14.5703Z" fill="#263238"/>
<path d="M62.7586 13.9947C65.3557 13.364 67.3898 15.112 68.5455 16.2717C69.7523 17.8123 70.2257 19.8015 69.8461 21.7442C69.4538 23.5514 68.9762 25.7395 67.6713 26.4633C66.9378 26.8865 66.0636 26.9881 65.2619 26.7426L58.1019 16.7415C59.4025 15.4548 61.006 14.5068 62.7586 13.9947Z" fill="#263238"/>
<path d="M66.2257 28.8883C66.2257 28.8206 66.2214 28.7487 66.2086 28.681C66.166 28.3678 66.0295 28.08 65.8163 27.8556C65.2491 27.2208 64.2725 27.17 63.6286 27.7498L61.151 28.8418C61.1467 28.8799 61.1467 28.9137 61.1424 28.9561L61.5902 32.5747C61.6584 33.654 60.4303 34.5386 59.7437 35.0126C59.3301 35.33 58.507 38.2758 61.2661 40.4554C62.0806 41.103 63.3386 40.0449 64.1574 39.3423C67.5221 36.13 67.4496 33.163 67.4496 33.163C66.2043 32.0372 66.1148 31.2796 66.2257 28.8883Z" fill="#B97964"/>
<path opacity="0.2" d="M60.2426 28.6303C60.2639 28.5964 60.281 28.5583 60.2895 28.5202L62.9761 28.2747C63.7778 27.9489 64.6819 28.3213 64.9975 29.1128C65.1211 29.3328 65.4324 27.7838 65.1083 29.8069L65.1041 29.8365L61.5561 32.3124C61.5561 32.3124 61.1254 29.3752 61.104 29.3625C61.0784 29.3582 60.2426 28.6303 60.2426 28.6303Z" fill="black"/>
<path d="M68.392 22.0065C67.3898 26.1627 67.0572 27.9361 64.5753 29.8152C60.8397 32.6298 56.0208 30.7379 55.7564 26.4124C55.5518 22.5271 57.2064 16.3901 61.5689 15.2474C65.9314 14.1089 69.3941 17.8461 68.392 22.0065Z" fill="#B97964"/>
<path d="M69.4666 25.9469C68.8483 26.7638 67.9528 27.2251 67.1766 27.3267C66.0082 27.4833 65.6585 25.6083 66.1958 24.5206C66.6777 23.5429 67.8803 22.9927 68.9506 23.3355C70.004 23.6741 70.1745 25.0116 69.4666 25.9469Z" fill="#B97964"/>
<path opacity="0.2" d="M67.0999 25.4602C67.1809 25.0581 67.424 24.6899 67.7651 24.4571C68.1063 24.2243 68.537 24.1312 68.9378 24.199" stroke="black" stroke-width="0.5" stroke-miterlimit="10" stroke-linecap="round" stroke-linejoin="round"/>
<path d="M62.5449 22.7345C62.4639 23.1832 62.1698 23.526 61.8885 23.5006C61.6072 23.4752 61.441 23.09 61.522 22.6414C61.603 22.1928 61.897 21.85 62.1783 21.8753C62.4596 21.9007 62.6258 22.2859 62.5449 22.7345Z" fill="#263238"/>
<path d="M58.3237 22.2568C58.2469 22.693 57.9527 23.0233 57.6712 22.9979C57.3898 22.9725 57.2234 22.5998 57.3045 22.1636C57.3812 21.7274 57.6755 21.3971 57.9569 21.4225C58.2384 21.4522 58.4047 21.8248 58.3237 22.2568Z" fill="#263238"/>
<path d="M63.6414 21.2616C63.5859 21.2616 63.5348 21.2405 63.4964 21.1981C62.9164 20.5167 62.1446 20.6479 62.136 20.6522C62.0209 20.6733 61.9185 20.5971 61.91 20.4829C61.9015 20.3686 61.9868 20.2585 62.1019 20.2374C62.1403 20.2289 63.1083 20.0639 63.829 20.9103C63.9015 20.995 63.8844 21.1262 63.7949 21.2066C63.748 21.2447 63.6968 21.2616 63.6414 21.2616Z" fill="#263238"/>
<path d="M57.185 19.9623C57.1424 19.9411 57.1126 19.9073 57.0998 19.8565C57.0742 19.7549 57.1381 19.6364 57.2405 19.5941C58.2895 19.1539 58.9591 19.6491 58.9889 19.6702C59.0699 19.7295 59.0742 19.8522 59.0017 19.9453C58.9292 20.0385 58.8055 20.0639 58.7245 20.0046C58.6989 19.9834 58.1701 19.611 57.3386 19.958C57.2831 19.9834 57.2277 19.9834 57.185 19.9623Z" fill="#263238"/>
<path d="M59.5006 22.1758C59.5006 22.1758 58.6222 23.6952 57.7352 24.6094C57.5816 24.7702 57.6285 25.0326 57.8247 25.13C58.3279 25.3797 58.9676 25.2739 58.9676 25.2739L59.5006 22.1758Z" fill="#A24E3F"/>
<path d="M62.3365 21.9136L61.3855 21.5748C61.3855 21.5748 61.829 22.3625 62.3365 21.9136Z" fill="#263238"/>
<path d="M58.0592 21.4481L57.1082 21.1093C57.104 21.105 57.5475 21.8969 58.0592 21.4481Z" fill="#263238"/>
<path d="M58.9932 26.4717C59.2576 26.9288 59.5518 27.8049 59.5518 27.8049C59.6371 27.7922 59.7224 27.7753 59.8077 27.7583C60.9591 27.5425 61.4282 27.0642 61.603 26.6029C61.6968 26.349 61.6968 26.095 61.6712 25.8961C61.6414 25.6633 61.5689 25.5067 61.5689 25.5067C61.0188 25.9807 59.9612 26.2643 59.3898 26.3955C59.1467 26.4505 58.9932 26.4717 58.9932 26.4717Z" fill="#263238"/>
<path d="M59.3855 26.3913L59.5603 26.7807C60.6435 26.5733 61.3855 26.2855 61.667 25.8961C61.6371 25.6633 61.5646 25.5067 61.5646 25.5067C61.0188 25.9807 59.9569 26.2643 59.3855 26.3913Z" fill="white"/>
<path d="M59.8077 27.7583C60.9591 27.5425 61.4282 27.0642 61.603 26.6029C61.2149 26.6918 60.7501 26.8399 60.3663 27.0939C60.0678 27.2843 59.9058 27.5256 59.8077 27.7583Z" fill="#DE5753"/>
<path d="M66.7203 22.743C66.7203 22.743 64.9207 19.5475 65.3557 17.2028C65.3557 17.2028 57.2106 13.6264 56.3918 21.1474C56.3918 21.1474 55.9313 14.4137 63.151 14.748C70.3707 15.0824 69.8291 24.4698 65.9655 27.0219C65.9612 26.9881 67.8291 24.7407 66.7203 22.743Z" fill="#263238"/>
<path d="M59.7736 15.0358C58.6605 15.7341 57.7949 16.7668 57.3002 17.9731C57.104 18.883 58.2 19.7803 58.2 19.7803L60.1446 18.0958L59.765 19.8353C62.3066 20.0512 64.0252 19.0185 65.2875 17.2917L64.4431 14.5575C64.4431 14.5575 60.7501 14.4856 59.7736 15.0358Z" fill="#263238"/>
<path d="M87.1172 21.7569C86.5671 22.2775 85.8123 22.523 85.0959 22.4171C85.7142 21.7696 85.9701 20.7327 85.7398 19.8312C83.3432 20.775 80.4817 21.9516 78.1875 20.7411C77.1341 20.1867 76.4561 18.9889 75.616 18.0959C74.7759 17.2028 73.859 16.3267 72.7332 15.9712C71.6117 15.6199 69.1767 16.5341 68.5669 17.6303L68.4219 19.7888C69.5818 19.5687 71.407 20.4068 71.9145 21.5791C72.4262 22.7515 72.8782 23.5937 73.5136 24.6899C74.3196 26.0739 75.1085 26.9458 76.4774 27.551C77.1 27.8261 78.5158 28.1309 80.6182 27.9954C82.2856 27.8896 83.9999 27.5299 85.3816 26.5014C86.7632 25.4814 87.7014 23.4837 87.1172 21.7569Z" fill="#263238"/>
</g>
<defs>
<clipPath id="clip0_6212_27064">
<rect width="139.333" height="176" fill="white" transform="translate(0.333374)"/>
</clipPath>
</defs>
</svg>