<svg width="244" height="200" viewBox="0 0 244 200" fill="none" xmlns="http://www.w3.org/2000/svg">
<g id="pic 1">
<g id="Character">
<g id="Group">
<path id="Vector" d="M67.8204 19.0779C69.1108 20.7762 69.2669 22.875 67.8804 26.2237C67.3042 27.6109 66.4999 28.9683 64.7593 26.6422C63.0187 24.3161 61.5242 20.0885 64.1411 19.6938C66.758 19.2932 67.8204 19.0779 67.8204 19.0779Z" fill="#263238"/>
<path id="Vector_2" d="M67.2622 187.502H71.7218L71.9138 177.211H67.4543L67.2622 187.502Z" fill="#FFC3BD"/>
<path id="Vector_3" d="M34.1543 179.609L38.4758 180.703L42.9474 171.225L38.6259 170.131L34.1543 179.609Z" fill="#FFC3BD"/>
<path id="Vector_4" d="M39.0524 180.248L34.3048 178.646C34.1307 178.586 33.9446 178.658 33.8546 178.813L31.8439 182.305C31.6338 182.67 31.8259 183.142 32.228 183.268C33.8906 183.8 34.7309 183.974 36.8136 184.673C38.0981 185.104 41.7594 186.635 43.53 187.233C45.2646 187.819 46.0869 186.15 45.4087 185.744C42.3776 183.932 40.4029 182.024 39.6526 180.733C39.5206 180.511 39.3045 180.338 39.0524 180.248Z" fill="#263238"/>
<path id="Vector_5" d="M71.6796 186.987H66.8119C66.6318 186.987 66.4758 187.113 66.4397 187.292L65.6535 191.239C65.5694 191.646 65.8936 192.034 66.3137 192.028C68.0723 191.998 70.6052 191.897 72.814 191.897C75.3949 191.897 75.9351 192.034 78.9601 192.034C80.7908 192.034 81.2529 190.193 80.4847 190.025C76.9794 189.266 75.821 189.182 72.76 187.334C72.4298 187.131 72.0637 186.987 71.6796 186.987Z" fill="#263238"/>
<path id="Vector_6" d="M70.521 46.9911L76.6071 45.0477C76.6071 45.0477 82.8973 59.5544 84.9981 60.4573C87.8611 61.6831 90.1058 63.6983 93.7911 64.0631C94.2893 64.6311 95.1056 66.4549 95.0276 67.1366C90.0878 68.9963 82.4772 67.029 80.3824 65.0916C75.5988 60.6845 70.521 46.9911 70.521 46.9911Z" fill="#FFC3BD"/>
<path id="Vector_7" d="M69.0989 43.6545C67.3883 47.5413 74.2547 59.8833 74.2547 59.8833L83.3539 55.6856C83.3539 55.6856 81.6253 49.6581 78.8463 44.8384C75.9893 39.8932 70.9776 39.385 69.0989 43.6545Z" fill="#407BFF"/>
<path id="Vector_8" opacity="0.5" d="M69.0989 43.6545C67.3883 47.5413 74.2547 59.8833 74.2547 59.8833L83.3539 55.6856C83.3539 55.6856 81.6253 49.6581 78.8463 44.8384C75.9893 39.8932 70.9776 39.385 69.0989 43.6545Z" fill="#407BFF" fill-opacity="0.482353"/>
<path id="Vector_9" d="M93.0474 64.0512L96.4806 62.2752L98.2272 67.2981C98.2272 67.2981 97.1048 67.7944 93.8997 67.3998L93.0474 64.0512Z" fill="#FFC3BD"/>
<path id="Vector_10" d="M99.9017 60.9955L101 65.2949L98.2271 67.3041L96.4805 62.2752L99.9017 60.9955Z" fill="#FFC3BD"/>
<g id="Group_2">
<path id="Vector_11" opacity="0.2" d="M71.914 177.217L71.818 182.515H67.3584L67.4544 177.217H71.914Z" fill="black"/>
<path id="Vector_12" opacity="0.2" d="M38.6202 170.131L42.9478 171.225L40.6369 176.11L36.3154 175.016L38.6202 170.131Z" fill="black"/>
</g>
<path id="Vector_13" d="M74.9268 41.131C74.9268 41.131 80.5208 56.3972 76.1332 81.3803C68.9487 81.3803 55.7801 81.3803 52.2809 81.3803C52.0288 77.7327 53.8895 58.0894 49.9341 40.9038C49.9341 40.9038 54.0035 40.0846 57.8929 39.8992C60.9359 39.7557 65.3475 39.654 68.0304 39.8992C71.5776 40.2221 74.9268 41.131 74.9268 41.131Z" fill="#407BFF"/>
<path id="Vector_14" opacity="0.5" d="M74.9268 41.131C74.9268 41.131 80.5208 56.3972 76.1332 81.3803C68.9487 81.3803 55.7801 81.3803 52.2809 81.3803C52.0288 77.7327 53.8895 58.0894 49.9341 40.9038C49.9341 40.9038 54.0035 40.0846 57.8929 39.8992C60.9359 39.7557 65.3475 39.654 68.0304 39.8992C71.5776 40.2221 74.9268 41.131 74.9268 41.131Z" fill="#407BFF"/>
<path id="Vector_15" opacity="0.2" d="M55.2281 45.1494C55.6962 47.9778 54.964 54.7468 52.4551 62.5622C52.2991 56.5466 51.7649 49.5684 50.3184 42.614V42.5781C51.8789 42.4226 54.7779 42.4944 55.2281 45.1494Z" fill="black"/>
<path id="Vector_16" d="M58.9913 30.4513C59.7116 33.6983 60.1257 37.7286 57.8989 39.8992C57.8989 39.8992 59.2914 43.194 65.3535 43.194C70.8935 43.194 68.0365 39.8992 68.0365 39.8992C64.3752 39.0321 64.4592 34.5534 65.0294 32.024L58.9913 30.4513Z" fill="#FFC3BD"/>
<path id="Vector_17" d="M65.3532 43.194C64.2788 44.8145 64.2668 46.3154 64.2668 46.3154C64.2668 46.3154 56.6082 43.6485 56.8662 39.7378C56.8662 39.7378 57.9286 39.0979 58.6008 38.5837C58.6008 38.5837 58.925 41.6333 65.3532 43.194Z" fill="white"/>
<path id="Vector_18" d="M65.3535 43.194C66.5059 44.8145 66.9141 46.0822 66.9141 46.0822C66.9141 46.0822 70.2992 43.7621 69.1709 39.8992C69.1709 39.8992 68.1925 39.4926 67.2142 39.2833C67.2082 39.2833 67.7243 42.3629 65.3535 43.194Z" fill="white"/>
<path id="Vector_19" opacity="0.2" d="M65.0353 32.0299C64.6932 33.5069 64.5311 35.6596 65.1914 37.3638C64.6512 37.2861 64.099 37.1186 63.5528 36.8675C61.4761 35.9048 60.4317 34.3859 59.3213 32.1376C59.2253 31.5635 59.1173 30.9954 58.9912 30.4513L65.0353 32.0299Z" fill="black"/>
<g id="Group_3">
<path id="Vector_20" d="M70.6052 29.2733C70.1131 30.3497 69.1647 31.0852 68.2464 31.3961C66.8659 31.8625 66.0737 30.6247 66.3738 29.2614C66.6438 28.0355 67.6882 26.3194 69.1167 26.4449C70.5272 26.5705 71.1694 28.0415 70.6052 29.2733Z" fill="#FFC3BD"/>
<path id="Vector_21" opacity="0.2" d="M70.6052 29.2733C70.1131 30.3497 69.1647 31.0852 68.2464 31.3961C66.8659 31.8625 66.0737 30.6247 66.3738 29.2614C66.6438 28.0355 67.6882 26.3194 69.1167 26.4449C70.5272 26.5705 71.1694 28.0415 70.6052 29.2733Z" fill="black"/>
</g>
<path id="Vector_22" d="M56.9623 25.7871C57.7786 30.1642 58.0307 32.7594 60.5156 34.7925C64.2489 37.8481 69.3747 35.2649 69.8728 30.7622C70.317 26.708 68.9125 20.232 64.4289 18.9284C60.0114 17.6368 56.152 21.41 56.9623 25.7871Z" fill="#FFC3BD"/>
<path id="Vector_23" d="M60.0001 20.7882C61.0144 22.6658 60.4802 23.8856 59.0938 27.2343C58.5175 28.6215 57.5452 30.0925 55.9727 27.6528C54.4901 25.3447 52.2273 21.0513 54.19 20.6088C56.7649 20.0228 60.0001 20.7882 60.0001 20.7882Z" fill="#263238"/>
<path id="Vector_24" d="M58.7333 22.014C60.5579 22.6 61.9624 21.709 62.2985 20.8539C63.739 21.4878 65.6297 21.5715 66.2419 20.7582C67.4183 20.7582 68.7268 20.9735 69.303 19.2633C69.8792 17.5531 69.1709 16.0163 67.2803 15.1493C67.2382 15.526 66.2599 16.0223 65.3416 15.3945C64.4233 14.7666 62.7367 14.928 62.0164 15.5978C60.0537 15.0895 58.6612 14.8084 57.5389 16.0941C55.6662 15.7054 53.3914 17.3917 53.7095 18.8567C52.245 20.6685 53.6615 22.1395 55.162 22.3967C55.4681 23.1501 58.3371 22.7734 58.7333 22.014Z" fill="#263238"/>
<path id="Vector_25" d="M55.6002 30.846C56.3445 31.7908 57.4429 32.317 58.4152 32.4246C59.8737 32.592 60.3419 31.2227 59.7177 29.955C59.1535 28.8189 57.713 27.3598 56.3565 27.7784C55.018 28.191 54.7479 29.7577 55.6002 30.846Z" fill="#FFC3BD"/>
<path id="Vector_26" d="M60.4619 81.3803C60.4619 81.3803 60.9361 86.9653 61.5363 94.5356C62.2265 103.116 63.0728 114.251 63.577 122.742C63.577 122.784 63.583 122.82 63.583 122.855C63.679 124.47 63.7631 125.977 63.8351 127.358C64.5133 141.201 65.9058 181.486 65.9058 181.486H73.4565C73.4565 181.486 77.2618 140.376 77.4178 126.288C77.5679 112.744 76.1394 81.3743 76.1394 81.3743H60.4619V81.3803Z" fill="#263238"/>
<path id="Vector_27" d="M65.3411 179.184C65.3051 179.184 65.4011 181.642 65.4011 181.642H74.1102L74.4103 178.879L65.3411 179.184Z" fill="#407BFF"/>
<path id="Vector_28" opacity="0.2" d="M61.5361 94.5356C62.2264 103.116 63.0727 114.251 63.5768 122.742C63.5768 122.784 63.5829 122.819 63.5829 122.855C65.4315 114.807 66.1818 104.797 65.9177 88.3167L61.5361 94.5356Z" fill="black"/>
<path id="Vector_29" d="M67.6763 81.3802C67.6763 81.3802 63.4508 113.479 60.984 126.198C58.283 140.125 42.8816 175.62 42.8816 175.62L34.9648 173.617C34.9648 173.617 46.2428 141.249 47.6353 127.46C49.1538 112.493 52.2809 81.3802 52.2809 81.3802H67.6763Z" fill="#263238"/>
<path id="Vector_30" d="M35.4389 171.548C35.4029 171.542 34.5386 173.665 34.5386 173.665L43.2416 175.865L44.5921 173.515L35.4389 171.548Z" fill="#407BFF"/>
<path id="Vector_31" d="M63.7268 26.3254C63.7688 26.6842 63.9969 26.9532 64.2249 26.9293C64.459 26.9054 64.6091 26.5945 64.5671 26.2357C64.5251 25.8769 64.297 25.6078 64.0689 25.6317C63.8348 25.6556 63.6848 25.9666 63.7268 26.3254Z" fill="#263238"/>
<path id="Vector_32" d="M67.7423 25.9067C67.7843 26.2655 68.0124 26.5346 68.2405 26.5107C68.4746 26.4868 68.6246 26.1758 68.5826 25.817C68.5406 25.4583 68.3125 25.1892 68.0845 25.2131C67.8444 25.237 67.6943 25.5479 67.7423 25.9067Z" fill="#263238"/>
<path id="Vector_33" d="M66.4878 26.2177C66.4878 26.2177 67.5502 28.203 68.5645 29.1059C68.0123 29.7637 66.9079 29.6022 66.9079 29.6022L66.4878 26.2177Z" fill="#ED847E"/>
<path id="Vector_34" d="M66.0138 30.6008C66.0739 30.5948 66.1099 30.541 66.1039 30.4812C66.0979 30.4214 66.0438 30.3855 65.9838 30.3915C64.4293 30.6008 63.535 29.6022 63.529 29.5962C63.4869 29.5543 63.4209 29.5483 63.3789 29.5842C63.3369 29.6201 63.3309 29.6859 63.3729 29.7337C63.4089 29.7756 64.3512 30.822 66.0138 30.6008Z" fill="#263238"/>
<path id="Vector_35" d="M62.3583 25.1414C62.4244 25.1354 62.4784 25.0995 62.5144 25.0397C62.9826 24.2324 63.7568 24.1966 63.7628 24.1966C63.8709 24.1966 63.9669 24.0949 63.9609 23.9753C63.9549 23.8557 63.8529 23.766 63.7388 23.772C63.6968 23.772 62.7305 23.8139 62.1483 24.8185C62.0882 24.9201 62.1243 25.0517 62.2263 25.1115C62.2683 25.1414 62.3163 25.1473 62.3583 25.1414Z" fill="#263238"/>
<path id="Vector_36" d="M69.3633 24.2803C69.3933 24.2743 69.4233 24.2623 69.4474 24.2444C69.5374 24.1786 69.5614 24.0471 69.4894 23.9514C68.7931 23.0006 67.8268 23.0245 67.7848 23.0305C67.6707 23.0305 67.5807 23.1322 67.5867 23.2518C67.5927 23.3654 67.6947 23.4611 67.8088 23.4551C67.8388 23.4551 68.5951 23.4371 69.1533 24.2025C69.2073 24.2623 69.2853 24.2922 69.3633 24.2803Z" fill="#263238"/>
<path id="Vector_37" d="M47.6295 47.5412L53.3735 50.6088C53.3735 50.6088 46.8312 64.7268 47.6895 66.8317C48.8479 69.6899 50.6846 75.9985 52.6713 79.1139C52.5152 79.8375 51.5429 81.5357 50.9427 81.8706C46.3631 79.0601 41.0932 69.4747 40.9972 66.6881C40.7811 60.3138 47.6295 47.5412 47.6295 47.5412Z" fill="#FFC3BD"/>
<path id="Vector_38" d="M49.9398 40.9038C45.7383 41.5137 41.2607 56.0802 41.2607 56.0802L50.2459 61.0673C50.2459 61.0673 53.9792 54.1428 55.7738 48.9943C57.6585 43.6066 54.4474 40.246 49.9398 40.9038Z" fill="#407BFF"/>
<path id="Vector_39" opacity="0.5" d="M49.9398 40.9038C45.7383 41.5137 41.2607 56.0802 41.2607 56.0802L50.2459 61.0673C50.2459 61.0673 53.9792 54.1428 55.7738 48.9943C57.6585 43.6066 54.4474 40.246 49.9398 40.9038Z" fill="#407BFF"/>
<path id="Vector_40" d="M40.2165 181.462C40.5406 181.57 40.8527 181.618 41.0988 181.522C41.2909 181.444 41.4169 181.289 41.4709 181.062C41.513 180.888 41.4469 180.781 41.3869 180.721C41.0028 180.326 39.3702 180.703 39.1841 180.751C39.1421 180.763 39.1121 180.793 39.1061 180.834C39.1001 180.876 39.1181 180.918 39.1541 180.942C39.4302 181.109 39.8264 181.331 40.2165 181.462ZM41.1168 180.799C41.1708 180.816 41.2129 180.84 41.2369 180.87C41.2609 180.894 41.2849 180.93 41.2609 181.008C41.2189 181.169 41.1408 181.277 41.0088 181.325C40.7147 181.444 40.1565 181.283 39.4842 180.894C40.0544 180.775 40.7927 180.685 41.1168 180.799Z" fill="#407BFF"/>
<path id="Vector_41" d="M39.1785 180.948C39.1965 180.954 39.2145 180.954 39.2325 180.954C39.7427 180.864 40.8771 180.218 40.9371 179.716C40.9491 179.626 40.9311 179.453 40.703 179.345C40.5529 179.274 40.3969 179.268 40.2348 179.333C39.6166 179.573 39.1365 180.763 39.1124 180.81C39.1004 180.846 39.1064 180.888 39.1305 180.918C39.1425 180.93 39.1605 180.942 39.1785 180.948ZM40.571 179.513C40.583 179.519 40.601 179.525 40.613 179.531C40.739 179.591 40.733 179.656 40.727 179.68C40.691 179.979 39.9347 180.499 39.3945 180.685C39.5566 180.344 39.9107 179.674 40.3069 179.525C40.4029 179.489 40.4869 179.489 40.571 179.513Z" fill="#407BFF"/>
<path id="Vector_42" d="M73.5582 187.759C74.0023 187.759 74.4104 187.693 74.6325 187.484C74.7766 187.352 74.8366 187.179 74.8186 186.97C74.8066 186.844 74.7406 186.748 74.6385 186.688C74.0923 186.384 72.3217 187.292 72.1176 187.4C72.0756 187.418 72.0576 187.466 72.0636 187.508C72.0696 187.55 72.1056 187.585 72.1477 187.597C72.5318 187.675 73.066 187.759 73.5582 187.759ZM74.3384 186.844C74.4225 186.844 74.4885 186.856 74.5365 186.88C74.5785 186.904 74.6025 186.94 74.6085 186.993C74.6205 187.137 74.5845 187.245 74.4885 187.334C74.2184 187.579 73.4861 187.615 72.5018 187.454C73.108 187.161 73.9183 186.844 74.3384 186.844Z" fill="#407BFF"/>
<path id="Vector_43" d="M72.1715 187.603C72.1835 187.603 72.2015 187.597 72.2135 187.591C72.7477 187.352 73.7861 186.389 73.696 185.887C73.672 185.768 73.588 185.624 73.2939 185.594C73.0838 185.57 72.8798 185.63 72.7117 185.773C72.1535 186.24 72.0635 187.436 72.0635 187.484C72.0635 187.52 72.0815 187.555 72.1115 187.579C72.1295 187.597 72.1475 187.603 72.1715 187.603ZM73.2159 185.803C73.2339 185.803 73.2579 185.803 73.2819 185.809C73.474 185.827 73.486 185.905 73.492 185.929C73.546 186.228 72.8438 186.987 72.3036 187.316C72.3516 186.969 72.4956 186.252 72.8558 185.947C72.9578 185.851 73.0778 185.803 73.2159 185.803Z" fill="#407BFF"/>
<path id="Vector_44" d="M51.8487 78.534L56.0742 78.9645L53.1572 83.1862C53.1572 83.1862 49.4719 82.6899 49.2979 79.7837L51.8487 78.534Z" fill="#FFC3BD"/>
<path id="Vector_45" d="M58.4631 80.5969L55.6301 84.2864L53.1572 83.1861L56.0803 78.9645L58.4631 80.5969Z" fill="#FFC3BD"/>
</g>
</g>
<g id="Nessage">
<g id="Group_4">
<g id="Group_5">
<g id="Group_6">
<path id="Vector_46" d="M196.374 90.4794L200.16 134.422C200.47 137.999 198.272 141.132 195.28 141.386L111.58 148.54C108.588 148.795 105.885 146.08 105.58 142.503L101.794 98.5601C101.718 97.7038 101.788 96.8692 101.984 96.0996C102.588 93.6445 104.399 91.7909 106.673 91.5958L190.373 84.4418C192.647 84.2467 194.752 85.7697 195.764 88.0784C196.091 88.8101 196.297 89.6176 196.374 90.4794Z" fill="#407BFF"/>
<path id="Vector_47" opacity="0.1" d="M196.374 90.4794L200.16 134.422C200.47 137.999 198.272 141.132 195.28 141.386L111.58 148.54C108.588 148.795 105.885 146.08 105.58 142.503L101.794 98.5601C101.718 97.7038 101.788 96.8692 101.984 96.0996C102.588 93.6445 104.399 91.7909 106.673 91.5958L190.373 84.4418C192.647 84.2467 194.752 85.7697 195.764 88.0784C196.091 88.8101 196.297 89.6176 196.374 90.4794Z" fill="black"/>
</g>
<path id="Vector_48" d="M206.321 116.378L205.727 116.449L205.967 118.429L206.561 118.358L206.321 116.378Z" fill="#407BFF"/>
<path id="Vector_49" d="M205.162 106.819L204.568 106.891L205.463 114.268L206.057 114.196L205.162 106.819Z" fill="#407BFF"/>
<path id="Vector_50" d="M200.121 82.6208L205.594 127.691C206.04 131.36 203.891 134.661 200.823 135.029L114.985 145.375C111.917 145.744 109.04 143.045 108.593 139.381L103.121 94.3111C103.012 93.4331 103.056 92.5714 103.23 91.7747C103.763 89.2329 105.558 87.2547 107.892 86.9729L193.729 76.6267C196.058 76.3449 198.283 77.8353 199.409 80.1766C199.768 80.9136 200.013 81.7374 200.121 82.6208Z" fill="#407BFF"/>
<path id="Vector_51" opacity="0.1" d="M199.409 80.1766L160.475 106.294C156.52 108.944 151.76 109.519 147.289 107.882L103.23 91.7693C103.763 89.2274 105.558 87.2493 107.892 86.9674L193.73 76.6213C196.064 76.3449 198.283 77.8353 199.409 80.1766Z" fill="black"/>
<g id="Group_7">
<path id="Vector_52" d="M184.884 89.9157L173.694 97.4166L170.038 99.8717L160.469 106.289C156.623 108.874 151.994 109.486 147.625 107.99C147.511 107.963 147.397 107.92 147.288 107.877L141.919 105.915L129.842 101.498L124.195 99.4327L117.798 97.0968L117.341 85.8293L116.324 60.7904L165.463 58.8013L184.193 72.9413L184.389 77.7485L184.884 89.9157Z" fill="#407BFF"/>
<path id="Vector_53" opacity="0.7" d="M184.884 89.9157L173.694 97.4166L170.038 99.8717L160.469 106.289C156.623 108.874 151.994 109.486 147.625 107.99C147.511 107.963 147.397 107.92 147.288 107.877L141.919 105.915L129.842 101.498L124.195 99.4327L117.798 97.0968L117.341 85.8293L116.324 60.7904L165.463 58.8013L184.193 72.9413L184.389 77.7485L184.884 89.9157Z" fill="#FAFAFA"/>
<g id="Group_8" opacity="0.9">
<path id="Vector_54" d="M177.953 77.922L123.553 80.1224C122.917 80.1495 122.373 79.6508 122.351 79.0167C122.324 78.3826 122.824 77.8407 123.461 77.819L177.861 75.6186C178.497 75.5915 179.041 76.0901 179.063 76.7242C179.09 77.3583 178.595 77.9003 177.953 77.922Z" fill="white"/>
<path id="Vector_55" d="M178.247 85.1247L123.847 87.3251C123.211 87.3522 122.667 86.8536 122.645 86.2195C122.618 85.5854 123.118 85.0434 123.755 85.0218L178.155 82.8214C178.791 82.7943 179.335 83.2929 179.357 83.927C179.384 84.5557 178.884 85.0976 178.247 85.1247Z" fill="white"/>
<path id="Vector_56" d="M178.541 92.3221L124.141 94.5224C123.504 94.5495 122.96 94.0509 122.939 93.4168C122.911 92.7827 123.412 92.2408 124.048 92.2191L178.448 90.0187C179.085 89.9916 179.629 90.4902 179.651 91.1243C179.678 91.7584 179.177 92.295 178.541 92.3221Z" fill="white"/>
<path id="Vector_57" d="M173.699 97.4166L170.043 99.8717L129.853 101.498L124.206 99.4327C124.255 99.4218 124.304 99.4164 124.347 99.4164L173.699 97.4166Z" fill="white"/>
<path id="Vector_58" d="M158.81 106.386V106.43C158.81 107.047 158.326 107.562 157.7 107.595L147.626 107.996C147.511 107.969 147.397 107.925 147.288 107.882L141.919 105.92L157.602 105.286C158.244 105.259 158.788 105.757 158.81 106.386Z" fill="white"/>
</g>
<path id="Vector_59" opacity="0.1" d="M184.193 72.9413L171.181 72.3831L165.463 58.8013L184.193 72.9413Z" fill="#263238"/>
<path id="Vector_60" d="M184.193 72.9413L171.567 70.7897L165.463 58.8013L184.193 72.9413Z" fill="#407BFF"/>
</g>
</g>
<g id="Group_9">
<path id="Vector_61" d="M209.223 20.3812C209.223 31.3994 197.097 42.2334 195.28 42.2334C193.463 42.2334 181.337 31.3994 181.337 20.3812C181.337 12.9887 187.583 7 195.28 7C202.978 7 209.223 12.9942 209.223 20.3812Z" fill="#407BFF"/>
<path id="Vector_62" opacity="0.1" d="M192.691 17.6334C190.166 20.392 186.739 21.3784 185.036 19.8284C183.334 18.2838 183.997 14.7881 186.516 12.0294C189.04 9.27083 192.468 8.28445 194.17 9.83448C195.878 11.3845 195.215 14.8748 192.691 17.6334Z" fill="white"/>
<path id="Vector_63" opacity="0.1" d="M185.254 28.7384C184.922 27.9146 185.009 27.107 185.45 26.9282C185.891 26.7493 186.516 27.275 186.848 28.0988C187.18 28.9226 187.093 29.7302 186.652 29.909C186.212 30.0879 185.586 29.5567 185.254 28.7384Z" fill="white"/>
<path id="Vector_64" d="M194.682 76.9247C194.556 76.9247 194.458 76.8272 194.458 76.7025C194.458 75.6782 194.779 75.1579 195.09 74.6593C195.378 74.1932 195.65 73.7488 195.65 72.8491C195.65 71.9495 195.378 71.505 195.09 71.039C194.779 70.5403 194.458 70.0201 194.458 68.9957C194.458 67.9714 194.779 67.4511 195.09 66.9525C195.378 66.4864 195.65 66.042 195.65 65.1423C195.65 64.2427 195.378 63.8037 195.09 63.3376C194.779 62.839 194.458 62.3241 194.458 61.2998C194.458 60.2755 194.779 59.7606 195.09 59.2566C195.378 58.7905 195.65 58.3461 195.65 57.4464C195.65 56.5467 195.378 56.1077 195.09 55.6416C194.779 55.143 194.458 54.6282 194.458 53.5984C194.458 52.5741 194.779 52.0592 195.09 51.5552C195.378 51.0891 195.65 50.6447 195.65 49.7504C195.65 48.8508 195.378 48.4118 195.09 47.9457C194.779 47.4471 194.458 46.9322 194.458 45.9025C194.458 44.8781 194.779 44.3633 195.09 43.8647C195.378 43.3986 195.65 42.9596 195.65 42.0599C195.65 41.9353 195.748 41.8377 195.873 41.8377C195.998 41.8377 196.096 41.9353 196.096 42.0599C196.096 43.0842 195.775 43.5991 195.465 44.0977C195.177 44.5638 194.905 45.0082 194.905 45.9025C194.905 46.8021 195.177 47.2411 195.465 47.7072C195.775 48.2058 196.096 48.7207 196.096 49.7504C196.096 50.7748 195.775 51.2896 195.465 51.7937C195.177 52.2598 194.905 52.7042 194.905 53.5984C194.905 54.4981 195.177 54.9371 195.465 55.4032C195.775 55.9018 196.096 56.4167 196.096 57.4464C196.096 58.4707 195.775 58.9856 195.465 59.4896C195.177 59.9557 194.905 60.4001 194.905 61.2944C194.905 62.194 195.177 62.633 195.465 63.0991C195.775 63.5977 196.096 64.1126 196.096 65.1369C196.096 66.1612 195.775 66.6815 195.465 67.1801C195.177 67.6462 194.905 68.0906 194.905 68.9903C194.905 69.89 195.177 70.3344 195.465 70.8005C195.775 71.2991 196.096 71.8194 196.096 72.8437C196.096 73.868 195.775 74.3883 195.465 74.8869C195.177 75.353 194.905 75.7974 194.905 76.6971C194.905 76.8218 194.807 76.9247 194.682 76.9247Z" fill="#263238"/>
<path id="Vector_65" d="M195.28 41.7185C194.851 41.7185 192 44.2658 192 46.8564H198.555C198.555 44.2658 195.71 41.7185 195.28 41.7185Z" fill="#407BFF"/>
<path id="Vector_66" d="M195.922 42.3147H194.638C194.535 42.3147 194.448 42.228 194.448 42.125V41.9895C194.448 41.8865 194.535 41.7998 194.638 41.7998H195.927C196.031 41.7998 196.118 41.8865 196.118 41.9895V42.125C196.112 42.2334 196.025 42.3147 195.922 42.3147Z" fill="#263238"/>
</g>
<g id="Group_10">
<path id="Vector_67" d="M121.72 30.684C121.72 41.7022 109.595 52.5362 107.778 52.5362C105.961 52.5362 93.835 41.7022 93.835 30.684C93.835 23.2915 100.08 17.3028 107.778 17.3028C115.475 17.2974 121.72 23.2915 121.72 30.684Z" fill="#407BFF"/>
<path id="Vector_68" opacity="0.1" d="M105.538 28.3809C108.061 25.6215 108.725 22.1312 107.021 20.5852C105.318 19.0393 101.891 20.023 99.3684 22.7824C96.8455 25.5419 96.1814 29.0321 97.885 30.5781C99.5886 32.1241 103.015 31.1404 105.538 28.3809Z" fill="white"/>
<path id="Vector_69" opacity="0.1" d="M98.0999 39.4855C97.768 38.6618 97.8551 37.8542 98.2957 37.6754C98.7363 37.4965 99.3619 38.0222 99.6938 38.846C100.026 39.6698 99.9386 40.4773 99.4979 40.6562C99.0573 40.8296 98.4317 40.3093 98.0999 39.4855Z" fill="white"/>
<path id="Vector_70" d="M107.179 87.2222C107.054 87.2222 106.956 87.1246 106.956 87C106.956 85.9756 107.277 85.4553 107.587 84.9567C107.875 84.4906 108.147 84.0462 108.147 83.1466C108.147 82.2469 107.875 81.8025 107.587 81.3364C107.277 80.8378 106.956 80.3175 106.956 79.2932C106.956 78.2688 107.277 77.7486 107.587 77.2499C107.875 76.7838 108.147 76.3394 108.147 75.4398C108.147 74.5401 107.875 74.1011 107.587 73.635C107.277 73.1364 106.956 72.6215 106.956 71.5972C106.956 70.5729 107.277 70.058 107.587 69.554C107.875 69.0879 108.147 68.6435 108.147 67.7438C108.147 66.8442 107.875 66.4052 107.587 65.9391C107.277 65.4405 106.956 64.9256 106.956 63.8958C106.956 62.8715 107.277 62.3566 107.587 61.8526C107.875 61.3865 108.147 60.9421 108.147 60.0479C108.147 59.1482 107.875 58.7092 107.587 58.2431C107.277 57.7445 106.956 57.2296 106.956 56.1999C106.956 55.1756 107.277 54.6607 107.587 54.1621C107.875 53.696 108.147 53.2516 108.147 52.3573C108.147 52.2327 108.245 52.1351 108.37 52.1351C108.496 52.1351 108.593 52.2327 108.593 52.3573C108.593 53.3817 108.273 53.8965 107.962 54.3951C107.674 54.8612 107.402 55.3056 107.402 56.1999C107.402 57.0996 107.674 57.5386 107.962 58.0046C108.273 58.5033 108.593 59.0181 108.593 60.0479C108.593 61.0776 108.273 61.5871 107.962 62.0911C107.674 62.5572 107.402 63.0016 107.402 63.8958C107.402 64.7955 107.674 65.2345 107.962 65.7006C108.273 66.1992 108.593 66.7141 108.593 67.7438C108.593 68.7681 108.273 69.283 107.962 69.787C107.674 70.2531 107.402 70.6975 107.402 71.5918C107.402 72.4915 107.674 72.9305 107.962 73.3965C108.273 73.8952 108.593 74.41 108.593 75.4343C108.593 76.4587 108.273 76.979 107.962 77.4776C107.674 77.9437 107.402 78.3881 107.402 79.2877C107.402 80.1874 107.674 80.6318 107.962 81.0979C108.273 81.5965 108.593 82.1168 108.593 83.1411C108.593 84.1655 108.273 84.6857 107.962 85.1844C107.674 85.6504 107.402 86.0949 107.402 86.9945C107.402 87.1246 107.304 87.2222 107.179 87.2222Z" fill="#407BFF"/>
<path id="Vector_71" d="M107.778 52.0213C107.348 52.0213 104.503 54.5685 104.503 57.1592H111.058C111.053 54.5631 108.202 52.0213 107.778 52.0213Z" fill="#407BFF"/>
<path id="Vector_72" d="M108.42 52.6175H107.13C107.027 52.6175 106.94 52.5308 106.94 52.4278V52.2923C106.94 52.1893 107.027 52.1026 107.13 52.1026H108.42C108.523 52.1026 108.61 52.1893 108.61 52.2923V52.4278C108.61 52.5308 108.523 52.6175 108.42 52.6175Z" fill="#407BFF"/>
</g>
</g>
</g>
</g>
</svg>
