<svg width="252" height="190" viewBox="0 0 252 190" fill="none" xmlns="http://www.w3.org/2000/svg">
<g id="Group 1">
<g id="Character">
<g id="Group">
<path id="Vector" d="M197.69 17.5327C198.631 20.7219 203.484 26.6855 203.867 31.0375C204.25 35.3895 195.976 42.3255 195.976 42.3255C195.976 42.3255 189.793 21.4155 193.664 18.9675C197.536 16.5263 197.69 17.5327 197.69 17.5327Z" fill="#263238"/>
<path id="Vector_2" d="M180.698 40.1156C179.233 41.3531 177.795 42.4003 176.296 43.4611C174.797 44.5083 173.251 45.474 171.678 46.4124C170.112 47.3576 168.472 48.2076 166.799 48.9896C165.952 49.3704 165.112 49.7511 164.238 50.0911C163.808 50.2679 163.371 50.438 162.927 50.5876L161.556 51.0636C160.191 51.4648 159.062 51.424 158.02 51.322C156.979 51.2064 156.017 50.9956 155.09 50.7507C153.241 50.2543 151.521 49.5812 149.84 48.8604C146.5 47.378 143.354 45.6915 140.303 43.7263L141.566 41.36C143.146 42.0264 144.772 42.6995 146.392 43.3115C148.005 43.9439 149.632 44.5288 151.259 45.0388C152.879 45.5624 154.512 46.0112 156.091 46.3172C156.878 46.4668 157.657 46.5687 158.37 46.5959C159.076 46.6231 159.741 46.5552 160.064 46.4192C161.522 45.8412 163.088 45.1408 164.56 44.3588C165.3 43.9576 166.039 43.5563 166.765 43.1211C167.498 42.7063 168.23 42.2643 168.949 41.8155C170.395 40.918 171.806 39.9523 173.204 38.9663C174.595 37.9939 176 36.9264 177.271 35.9268L180.698 40.1156Z" fill="#E58A7B"/>
<g id="Group_2">
<path id="Vector_3" d="M184.247 32.8736C182.58 31.5544 175.684 35.8724 173.587 37.6744L175.113 47.0108C175.113 47.0108 185.027 42.8084 185.625 39.932C186.25 36.94 185.518 33.88 184.247 32.8736Z" fill="#407BFF"/>
<path id="Vector_4" opacity="0.2" d="M184.247 32.8736C182.58 31.5544 175.684 35.8724 173.587 37.6744L175.113 47.0108C175.113 47.0108 185.027 42.8084 185.625 39.932C186.25 36.94 185.518 33.88 184.247 32.8736Z" fill="black"/>
</g>
<g id="Group_3">
<path id="Vector_5" d="M207.443 61.1277C203.397 61.9233 194.813 63.6165 186.512 65.2553C175.698 35.6277 178.05 34.6689 178.05 34.6689C178.05 34.6689 180.127 33.4789 182.762 32.4249C182.863 32.3841 182.957 32.3501 183.044 32.3161C184.375 31.8197 184.657 31.7449 186.445 31.2145C189.524 30.4733 192.394 29.8681 195.949 29.3445C196.178 29.3105 196.406 29.2765 196.628 29.2493C197.273 29.1677 197.912 29.0997 198.53 29.0385C198.947 28.9909 199.364 28.9637 199.76 28.9365C200.231 28.9093 200.688 28.8821 201.118 28.8617C203.417 28.7461 205.064 28.7801 205.064 28.7801C204.398 47.2693 205.433 52.5801 207.443 61.1277Z" fill="#407BFF"/>
<path id="Vector_6" opacity="0.2" d="M207.443 61.1277C203.397 61.9233 194.813 63.6165 186.512 65.2553C175.698 35.6277 178.05 34.6689 178.05 34.6689C178.05 34.6689 180.127 33.4789 182.762 32.4249C182.863 32.3841 182.957 32.3501 183.044 32.3161C184.375 31.8197 184.657 31.7449 186.445 31.2145C189.524 30.4733 192.394 29.8681 195.949 29.3445C196.178 29.3105 196.406 29.2765 196.628 29.2493C197.273 29.1677 197.912 29.0997 198.53 29.0385C198.947 28.9909 199.364 28.9637 199.76 28.9365C200.231 28.9093 200.688 28.8821 201.118 28.8617C203.417 28.7461 205.064 28.7801 205.064 28.7801C204.398 47.2693 205.433 52.5801 207.443 61.1277Z" fill="black"/>
</g>
<g id="Group_4">
<path id="Vector_7" d="M191.049 19.6475C189.685 21.8983 194.578 22.9387 197.462 20.6335C199.774 18.7839 199.223 14.5135 197.253 13.5207C195.344 12.5687 191.049 19.6475 191.049 19.6475Z" fill="#407BFF"/>
<path id="Vector_8" opacity="0.4" d="M191.049 19.6475C189.685 21.8983 194.578 22.9387 197.462 20.6335C199.774 18.7839 199.223 14.5135 197.253 13.5207C195.344 12.5687 191.049 19.6475 191.049 19.6475Z" fill="black"/>
</g>
<path id="Vector_9" d="M211.422 183.759L206.186 184.153L204.271 171.961L209.507 171.566L211.422 183.759Z" fill="#E58A7B"/>
<path id="Vector_10" d="M248.457 166.718L244.021 169.547L236.103 160.054L240.546 157.218L248.457 166.718Z" fill="#E58A7B"/>
<g id="Group_5">
<path id="Vector_11" d="M204.271 171.961L205.332 178.734L210.495 177.856L209.513 171.566L204.271 171.961Z" fill="#CF6F64"/>
<path id="Vector_12" d="M240.553 157.225L236.103 160.054L239.383 163.984L243.927 161.271L240.553 157.225Z" fill="#CF6F64"/>
</g>
<g id="Group_6">
<path id="Vector_13" d="M186.822 65.2551C186.822 65.2551 186.741 107.293 190.142 123.13C193.678 139.599 204.076 177.067 204.076 177.067L211.617 176.081C211.617 176.081 205.722 138.233 203.209 121.872C200.473 104.029 202.153 62.2427 202.153 62.2427L186.822 65.2551Z" fill="#407BFF"/>
<path id="Vector_14" opacity="0.7" d="M186.822 65.2551C186.822 65.2551 186.741 107.293 190.142 123.13C193.678 139.599 204.076 177.067 204.076 177.067L211.617 176.081C211.617 176.081 205.722 138.233 203.209 121.872C200.473 104.029 202.153 62.2427 202.153 62.2427L186.822 65.2551Z" fill="black"/>
</g>
<path id="Vector_15" opacity="0.5" d="M201.696 80.868L197.999 77.1416C198.14 93.2916 199.034 101.268 202.106 109.958C201.615 100.772 201.582 89.9052 201.696 80.868Z" fill="black"/>
<g id="Group_7">
<path id="Vector_16" d="M192.038 64.167C192.038 64.167 203.309 98.915 208.908 118.921C214.81 140.035 237.434 163.386 237.434 163.386L243.927 159.591C243.927 159.591 228.481 137.423 222.781 117.724C211.214 77.733 215.973 69.2602 207.443 61.1274L192.038 64.167Z" fill="#407BFF"/>
<path id="Vector_17" opacity="0.7" d="M192.038 64.167C192.038 64.167 203.309 98.915 208.908 118.921C214.81 140.035 237.434 163.386 237.434 163.386L243.927 159.591C243.927 159.591 228.481 137.423 222.781 117.724C211.214 77.733 215.973 69.2602 207.443 61.1274L192.038 64.167Z" fill="black"/>
</g>
<path id="Vector_18" d="M183.179 7.38037C186.176 8.39357 188.899 15.928 189.013 18.8928C189.127 21.8576 180.336 25.9444 180.336 25.9444C180.336 25.9444 176.457 16.3972 177.533 10.318C178.003 7.63878 183.179 7.38037 183.179 7.38037Z" fill="#263238"/>
<path id="Vector_19" d="M142.037 41.6116L138.481 37.6948L137.318 42.6044C137.318 42.6044 139.846 44.862 141.896 44.0936L142.037 41.6116Z" fill="#E58A7B"/>
<path id="Vector_20" d="M134.879 36.5728L132.392 38.572L137.318 42.6044L138.481 37.6947L134.879 36.5728Z" fill="#E58A7B"/>
<path id="Vector_21" d="M242.616 168.533L246.77 164.297C246.925 164.141 247.153 164.127 247.321 164.249L251.105 167.092C251.495 167.384 251.529 168.01 251.173 168.363C249.701 169.812 248.914 170.437 247.086 172.301C245.964 173.443 244.438 175.238 242.885 176.823C241.366 178.373 239.706 176.938 240.21 176.136C242.482 172.552 242.072 171.213 242.226 169.39C242.253 169.064 242.394 168.758 242.616 168.533Z" fill="#263238"/>
<path id="Vector_22" d="M205.837 183.392H211.738C211.953 183.392 212.135 183.541 212.175 183.752L213.102 188.471C213.197 188.961 212.807 189.423 212.309 189.416C210.253 189.382 209.251 189.26 206.657 189.26C205.064 189.26 201.77 189.43 199.566 189.43C197.408 189.43 197.126 187.227 198.033 187.023C202.1 186.125 203.652 184.894 204.97 183.718C205.218 183.507 205.521 183.392 205.837 183.392Z" fill="#263238"/>
<path id="Vector_23" opacity="0.27" d="M205.716 39.4902L202.489 41.435L206.213 55.5722C205.4 51.3086 205.763 46.5962 205.716 39.4902Z" fill="#407BFF"/>
<path id="Vector_24" d="M187.38 17.3763C189.672 19.3211 192.999 22.1567 196.917 18.8451C200.285 16.0027 202.631 8.54313 196.608 8.26433C193.449 8.12153 187.38 17.3763 187.38 17.3763Z" fill="#263238"/>
<path id="Vector_25" d="M192.918 18.7026C192.911 21.9122 193.409 27.699 195.943 29.3446C195.943 29.3446 195.714 32.6494 190.028 33.7646C183.777 34.9954 186.439 31.2146 186.439 31.2146C189.692 29.7186 189.107 27.1754 188.052 24.8906L192.918 18.7026Z" fill="#E58A7B"/>
<path id="Vector_26" d="M190.935 21.2251L188.058 24.8835C188.314 25.4275 188.536 25.9783 188.677 26.5359C189.94 26.0871 191.453 24.2919 191.325 22.8843C191.264 22.1839 191.11 21.5243 190.935 21.2251Z" fill="#CF6F64"/>
<path id="Vector_27" d="M193.221 11.3314C193.899 16.5606 194.303 18.757 192.233 21.9122C189.12 26.6654 182.628 26.3662 180.416 21.4498C178.427 17.023 177.647 9.22343 182.251 6.17703C186.781 3.19183 192.542 6.10902 193.221 11.3314Z" fill="#E58A7B"/>
<path id="Vector_28" d="M184.241 2.17161C180.746 4.68082 187.756 5.42202 187.763 9.06002C187.769 10.5628 190.203 15.3296 193.671 15.0576L197.038 9.01242C200.567 3.22562 192.232 -3.56079 184.241 2.17161Z" fill="#263238"/>
<path id="Vector_29" d="M184.241 2.17157C178.09 1.84517 175.409 6.79558 176.114 11.2428C176.114 11.2428 182.392 9.48837 189.255 10.1956C197.677 11.0592 184.241 2.17157 184.241 2.17157Z" fill="#263238"/>
<path id="Vector_30" d="M194.908 15.8398C195.008 16.9278 194.605 17.9614 194.027 18.6414C193.16 19.6682 191.984 19.063 191.607 17.839C191.265 16.7374 191.305 14.881 192.474 14.303C193.631 13.7318 194.793 14.5954 194.908 15.8398Z" fill="#E58A7B"/>
<path id="Vector_31" d="M185.753 14.3028C185.834 14.7244 185.679 15.1052 185.41 15.1596C185.141 15.214 184.852 14.9148 184.772 14.4932C184.691 14.0716 184.846 13.6908 185.114 13.6364C185.39 13.5888 185.672 13.8812 185.753 14.3028Z" fill="#263238"/>
<path id="Vector_32" d="M181.055 15.2276C181.135 15.6492 180.981 16.03 180.712 16.0844C180.443 16.1388 180.154 15.8396 180.073 15.418C179.993 14.9964 180.147 14.6156 180.416 14.5612C180.692 14.5136 180.974 14.806 181.055 15.2276Z" fill="#263238"/>
<path id="Vector_33" d="M180.544 14.561L179.489 14.4658C179.489 14.4726 180.154 15.1594 180.544 14.561Z" fill="#263238"/>
<path id="Vector_34" d="M182.439 15.7104C182.439 15.7104 182.083 17.6621 181.471 18.6889C182.117 19.0969 183.011 18.6752 183.011 18.6752L182.439 15.7104Z" fill="#DF5753"/>
<path id="Vector_35" d="M184.765 20.042C184.704 20.042 184.657 20.0012 184.644 19.94C184.63 19.872 184.678 19.804 184.745 19.7904C186.573 19.43 187.171 17.9748 187.178 17.9612C187.205 17.8932 187.279 17.866 187.339 17.8932C187.4 17.9204 187.433 17.9952 187.406 18.0564C187.38 18.1244 186.748 19.6544 184.792 20.042C184.778 20.042 184.772 20.042 184.765 20.042Z" fill="#263238"/>
<path id="Vector_36" d="M186.828 12.4942C186.768 12.4942 186.707 12.4738 186.66 12.433C185.84 11.6918 184.973 11.9094 184.94 11.9162C184.812 11.9502 184.671 11.8686 184.637 11.7394C184.604 11.6034 184.678 11.4674 184.812 11.4334C184.859 11.4198 185.968 11.1342 186.996 12.059C187.097 12.1542 187.111 12.3106 187.017 12.4126C186.963 12.467 186.896 12.4942 186.828 12.4942Z" fill="#263238"/>
<path id="Vector_37" d="M178.453 13.4665C178.42 13.4665 178.386 13.4597 178.359 13.4461C178.232 13.3917 178.171 13.2421 178.225 13.1197C178.756 11.8345 179.878 11.6101 179.932 11.6033C180.073 11.5761 180.194 11.6713 180.221 11.8073C180.248 11.9433 180.154 12.0725 180.02 12.0997C179.979 12.1065 179.105 12.2969 178.682 13.3169C178.642 13.4053 178.548 13.4665 178.453 13.4665Z" fill="#263238"/>
<path id="Vector_38" d="M241.063 171.002C240.842 171.002 240.647 170.893 240.485 170.676C240.358 170.506 240.371 170.349 240.411 170.247C240.647 169.615 242.502 169.2 242.71 169.153C242.757 169.139 242.811 169.159 242.838 169.2C242.865 169.241 242.872 169.295 242.845 169.336C242.482 169.941 241.769 170.955 241.104 170.989C241.09 171.002 241.077 171.002 241.063 171.002ZM242.468 169.472C241.729 169.656 240.768 170.003 240.647 170.336C240.633 170.377 240.62 170.438 240.687 170.519C240.808 170.676 240.936 170.751 241.09 170.744C241.447 170.73 241.957 170.261 242.468 169.472Z" fill="#407BFF"/>
<path id="Vector_39" d="M242.166 169.472C241.507 169.472 240.647 169.309 240.405 168.935C240.338 168.839 240.264 168.635 240.452 168.384C240.573 168.227 240.741 168.139 240.943 168.125C240.963 168.125 240.976 168.125 240.996 168.125C241.756 168.125 242.784 169.152 242.831 169.193C242.865 169.227 242.878 169.268 242.865 169.315C242.851 169.356 242.818 169.39 242.777 169.404C242.623 169.445 242.408 169.472 242.166 169.472ZM240.996 168.377C240.983 168.377 240.969 168.377 240.956 168.377C240.828 168.384 240.727 168.438 240.647 168.54C240.546 168.669 240.573 168.744 240.606 168.792C240.815 169.098 241.836 169.281 242.468 169.207C242.105 168.873 241.447 168.377 240.996 168.377Z" fill="#407BFF"/>
<path id="Vector_40" d="M203.908 184.323C203.39 184.323 202.906 184.241 202.624 183.997C202.442 183.84 202.355 183.636 202.368 183.385C202.375 183.235 202.436 183.119 202.557 183.051C203.175 182.684 205.339 183.772 205.581 183.895C205.628 183.922 205.655 183.969 205.648 184.024C205.642 184.078 205.601 184.119 205.548 184.133C205.111 184.221 204.486 184.323 203.908 184.323ZM202.913 183.221C202.812 183.221 202.738 183.235 202.677 183.269C202.644 183.289 202.61 183.317 202.61 183.398C202.604 183.568 202.657 183.704 202.778 183.806C203.114 184.092 203.981 184.146 205.124 183.956C204.391 183.602 203.41 183.221 202.913 183.221Z" fill="#407BFF"/>
<path id="Vector_41" d="M205.527 184.133C205.507 184.133 205.494 184.133 205.48 184.119C204.822 183.827 203.518 182.671 203.612 182.072C203.632 181.936 203.726 181.766 204.062 181.732C204.096 181.726 204.129 181.726 204.163 181.726C205.332 181.726 205.642 183.895 205.655 183.99C205.662 184.038 205.642 184.078 205.608 184.106C205.581 184.126 205.554 184.133 205.527 184.133ZM204.156 181.984C204.129 181.984 204.109 181.984 204.082 181.984C203.867 182.004 203.854 182.086 203.854 182.113C203.8 182.474 204.687 183.378 205.359 183.779C205.252 183.235 204.909 181.984 204.156 181.984Z" fill="#407BFF"/>
<path id="Vector_42" d="M185.242 13.6362L184.187 13.541C184.187 13.541 184.852 14.2346 185.242 13.6362Z" fill="#263238"/>
<path id="Vector_43" d="M189.86 38.2866C178.615 40.823 182.09 33.9414 182.762 32.425C182.863 32.3842 182.957 32.3502 183.044 32.3162C184.375 31.8198 184.657 31.745 186.445 31.2146C189.483 30.317 192.394 29.8682 195.949 29.3446C196.178 29.3106 196.406 29.2766 196.628 29.2494C197.273 29.161 197.912 29.093 198.53 29.0386C198.947 28.991 199.364 28.9638 199.76 28.9366C200.231 28.9026 200.688 28.8754 201.118 28.855V28.8618C201.326 29.9158 201.884 35.587 189.86 38.2866Z" fill="#E58A7B"/>
<path id="Vector_44" d="M207.51 59.8221L208.821 61.5289C208.922 61.6649 208.781 61.8485 208.539 61.8961L186.586 66.2209C186.398 66.2549 186.223 66.1937 186.19 66.0781L185.639 64.2217C185.598 64.0925 185.74 63.9497 185.948 63.9089L207.147 59.7337C207.295 59.6997 207.45 59.7405 207.51 59.8221Z" fill="#26395A"/>
<path id="Vector_45" d="M205.124 62.7802L205.689 62.6714C205.803 62.651 205.877 62.5762 205.857 62.5014L205.117 60.0942C205.097 60.0262 204.983 59.9854 204.875 60.0058L204.311 60.1146C204.196 60.135 204.123 60.2098 204.143 60.2846L204.882 62.6918C204.902 62.7666 205.016 62.8074 205.124 62.7802Z" fill="#407BFF"/>
<path id="Vector_46" d="M192.266 70.8038L187.89 69.1582L188.563 73.3674C188.563 73.3674 191.735 74.5234 193.355 73.041L192.266 70.8038Z" fill="#E58A7B"/>
<path id="Vector_47" d="M183.723 70.2734L182.681 73.0342L188.562 73.3674L187.89 69.1582L183.723 70.2734Z" fill="#E58A7B"/>
<path id="Vector_48" d="M188.22 66.1122L188.784 66.0034C188.899 65.983 188.973 65.9082 188.952 65.8334L188.213 63.4262C188.193 63.3582 188.079 63.3174 187.971 63.3378L187.406 63.4466C187.292 63.467 187.218 63.5418 187.238 63.6166L187.978 66.0238C187.998 66.0986 188.105 66.1394 188.22 66.1122Z" fill="#407BFF"/>
<path id="Vector_49" d="M196.675 64.4462L197.24 64.3374C197.354 64.317 197.428 64.2422 197.408 64.1674L196.669 61.7602C196.648 61.6922 196.534 61.6514 196.427 61.6718L195.862 61.7806C195.748 61.801 195.674 61.8758 195.694 61.9506L196.433 64.3578C196.454 64.4326 196.561 64.4734 196.675 64.4462Z" fill="#407BFF"/>
<path id="Vector_50" d="M194.282 26.6447C194.76 26.4611 195.358 28.1611 195.21 28.3787C194.867 28.8751 188.589 30.6091 188.307 29.6367C188.3 29.2219 188.361 28.4127 188.542 28.0863C188.724 27.7599 190.115 28.3583 194.282 26.6447Z" fill="#407BFF"/>
<path id="Vector_51" d="M193.22 26.6855C193.469 26.1211 194.161 25.2167 194.76 25.7335C195.358 26.2503 195.62 27.3655 195.223 27.5423C194.834 27.7259 192.804 27.6307 193.22 26.6855Z" fill="#407BFF"/>
<path id="Vector_52" d="M194.504 26.9782C194.921 26.5362 195.876 25.9174 196.272 26.6042C196.669 27.2978 196.541 28.4334 196.111 28.4674C195.681 28.5014 193.799 27.7262 194.504 26.9782Z" fill="#407BFF"/>
<path id="Vector_53" d="M194.733 26.8759C194.639 26.3047 194.908 25.5635 195.667 25.0603C196.427 24.5571 197.173 24.2307 197.475 23.7139C197.475 23.7139 197.697 24.5299 197.549 25.2371C197.395 25.9647 195.008 26.5155 195.17 27.1547L194.733 26.8759Z" fill="#407BFF"/>
<path id="Vector_54" d="M194.632 26.8422C194.249 26.4138 194.074 25.6454 194.437 24.8022C194.807 23.959 195.257 23.279 195.23 22.6738C195.23 22.6738 195.855 23.2314 196.111 23.9114C196.373 24.605 194.665 26.3866 195.149 26.8286L194.632 26.8422Z" fill="#407BFF"/>
<g id="Group_8">
<path id="Vector_55" d="M241.379 159.68C241.353 159.68 241.326 159.666 241.312 159.646C241.158 159.421 225.792 137.24 220.153 117.751C214.857 99.425 212.948 87.5046 211.684 79.6234C210.521 72.361 209.822 67.975 207.503 64.3778C207.477 64.337 207.49 64.2826 207.53 64.2622C207.571 64.235 207.624 64.2486 207.645 64.2894C209.984 67.9206 210.683 72.3134 211.852 79.603C213.116 87.4842 215.018 99.391 220.315 117.71C225.94 137.172 241.292 159.333 241.447 159.551C241.474 159.591 241.467 159.639 241.427 159.666C241.413 159.673 241.4 159.68 241.379 159.68Z" fill="#407BFF"/>
<path id="Vector_56" opacity="0.4" d="M241.379 159.68C241.353 159.68 241.326 159.666 241.312 159.646C241.158 159.421 225.792 137.24 220.153 117.751C214.857 99.425 212.948 87.5046 211.684 79.6234C210.521 72.361 209.822 67.975 207.503 64.3778C207.477 64.337 207.49 64.2826 207.53 64.2622C207.571 64.235 207.624 64.2486 207.645 64.2894C209.984 67.9206 210.683 72.3134 211.852 79.603C213.116 87.4842 215.018 99.391 220.315 117.71C225.94 137.172 241.292 159.333 241.447 159.551C241.474 159.591 241.467 159.639 241.427 159.666C241.413 159.673 241.4 159.68 241.379 159.68Z" fill="black"/>
</g>
<path id="Vector_57" d="M212.982 176.048L202.711 177.394L202.039 174.497L212.733 172.206L212.982 176.048Z" fill="#407BFF"/>
<path id="Vector_58" d="M244.465 159.361L236.89 163.787L234.335 161.571L242.623 155.906L244.465 159.361Z" fill="#407BFF"/>
<path id="Vector_59" d="M208.915 35.9678C209.278 37.865 209.493 39.6398 209.688 41.4826C209.869 43.3118 209.963 45.1478 210.017 46.9974C210.078 48.8402 210.024 50.7034 209.896 52.5598C209.822 53.4914 209.742 54.423 209.614 55.3614C209.56 55.8306 209.5 56.293 209.412 56.7622L209.164 58.2038C208.848 59.6046 208.27 60.5906 207.678 61.461C207.073 62.3314 206.435 63.0794 205.769 63.7798C204.445 65.1806 203.04 66.3774 201.602 67.5198C198.705 69.7638 195.727 71.7426 192.555 73.497L191.11 71.2394C192.447 70.1582 193.819 69.043 195.129 67.9074C196.453 66.7854 197.751 65.6226 198.974 64.4258C200.211 63.2426 201.387 62.0118 202.415 60.7606C202.926 60.135 203.39 59.4958 203.753 58.8702C204.116 58.2582 204.378 57.6326 204.412 57.2858C204.613 55.715 204.768 53.9878 204.795 52.3082C204.808 51.4582 204.815 50.6082 204.788 49.7582C204.781 48.9082 204.754 48.0514 204.714 47.1946C204.633 45.481 204.479 43.7674 204.297 42.0538C204.129 40.3538 203.881 38.5926 203.632 36.981L208.915 35.9678Z" fill="#E58A7B"/>
<g id="Group_9">
<path id="Vector_60" d="M208.102 30.1809C210.978 32.5405 210.293 39.5241 210.293 39.5241L200.614 42.7473C200.614 42.7473 201.058 34.6893 201.535 31.7925C202.099 28.3517 205.272 27.8689 208.102 30.1809Z" fill="#407BFF"/>
<path id="Vector_61" opacity="0.2" d="M208.102 30.1809C210.978 32.5405 210.293 39.5241 210.293 39.5241L200.614 42.7473C200.614 42.7473 201.058 34.6893 201.535 31.7925C202.099 28.3517 205.272 27.8689 208.102 30.1809Z" fill="black"/>
</g>
</g>
</g>
<g id="Documents">
<g id="Group_10">
<g id="Group_11">
<path id="Vector_62" d="M80.5826 59.2574C79.8097 55.8642 76.8254 53.457 73.3773 53.457H19.5723C15.4924 53.457 12.1787 56.8026 12.1787 60.937V181.855C12.1787 185.982 15.4857 189.335 19.5723 189.335H190.31C194.39 189.335 197.703 185.989 197.703 181.855V80.283C197.703 76.1554 194.396 72.803 190.31 72.803H97.4063C89.3608 72.8098 82.384 67.1862 80.5826 59.2574Z" fill="#407BFF"/>
<path id="Vector_63" opacity="0.6" d="M80.5826 59.2574C79.8097 55.8642 76.8254 53.457 73.3773 53.457H19.5723C15.4924 53.457 12.1787 56.8026 12.1787 60.937V181.855C12.1787 185.982 15.4857 189.335 19.5723 189.335H190.31C194.39 189.335 197.703 185.989 197.703 181.855V80.283C197.703 76.1554 194.396 72.803 190.31 72.803H97.4063C89.3608 72.8098 82.384 67.1862 80.5826 59.2574Z" fill="black"/>
</g>
<g id="Group_12">
<path id="Vector_64" opacity="0.22" d="M61.6013 21.5991L66.3937 37.3003C67.664 41.4619 72.033 43.7943 76.1465 42.5091L91.6595 37.6607L61.6013 21.5991Z" fill="#407BFF"/>
<g id="Group_13">
<g id="Group_14">
<path id="Vector_65" d="M61.6013 21.5991L6.14957 38.9255C2.03606 40.2107 -0.269388 44.6239 1.00096 48.7855L32.6589 152.472C33.9292 156.633 38.2914 158.966 42.4049 157.681L113.376 135.499C117.49 134.214 119.795 129.801 118.525 125.639L91.6595 37.6539L61.6013 21.5991Z" fill="#407BFF"/>
<path id="Vector_66" opacity="0.8" d="M61.6013 21.5991L6.14957 38.9255C2.03606 40.2107 -0.269388 44.6239 1.00096 48.7855L32.6589 152.472C33.9292 156.633 38.2914 158.966 42.4049 157.681L113.376 135.499C117.49 134.214 119.795 129.801 118.525 125.639L91.6595 37.6539L61.6013 21.5991Z" fill="white"/>
</g>
<g id="Group_15" opacity="0.28">
<path id="Vector_67" d="M91.4377 130.998L45.3019 145.414C43.514 145.971 41.5984 144.951 41.0472 143.142C40.496 141.334 41.5043 139.396 43.2922 138.838L89.428 124.422C91.2159 123.864 93.1315 124.884 93.6827 126.693C94.2405 128.502 93.2256 130.44 91.4377 130.998Z" fill="#407BFF"/>
</g>
<g id="Group_16" opacity="0.28">
<path id="Vector_68" d="M41.7864 46.3716L17.381 54.0012C15.5931 54.5588 13.6775 53.5388 13.1263 51.73C12.5752 49.9212 13.5834 47.9832 15.3713 47.4256L39.7767 39.796C41.5646 39.2384 43.4802 40.2584 44.0314 42.0672C44.5893 43.8692 43.5811 45.8072 41.7864 46.3716Z" fill="#407BFF"/>
</g>
<g id="Group_17" opacity="0.28">
<path id="Vector_69" d="M61.6954 54.4566L21.3736 67.057C19.5857 67.6146 17.6701 66.5946 17.119 64.7858C16.5678 62.977 17.576 61.039 19.3639 60.4814L59.6858 47.881C61.4736 47.3234 63.3892 48.3434 63.9404 50.1522C64.4983 51.9542 63.4833 53.8922 61.6954 54.4566Z" fill="#407BFF"/>
</g>
<g id="Group_18" opacity="0.28">
<path id="Vector_70" d="M84.2123 61.7261L25.3595 80.1201C23.5716 80.6777 21.656 79.6577 21.1048 77.8489C20.5537 76.0401 21.5619 74.1021 23.3498 73.5445L82.2026 55.1505C83.9905 54.5929 85.9061 55.6129 86.4572 57.4217C87.0151 59.2237 86.0002 61.1617 84.2123 61.7261Z" fill="#407BFF"/>
</g>
<g id="Group_19" opacity="0.28">
<path id="Vector_71" d="M88.198 74.7818L53.9859 85.4714C52.198 86.029 50.2824 85.009 49.7313 83.2002C49.1801 81.3914 50.1884 79.4534 51.9762 78.8958L86.1883 68.2062C87.9762 67.6486 89.8918 68.6686 90.4429 70.4774C91.0008 72.2862 89.9859 74.2242 88.198 74.7818Z" fill="#407BFF"/>
</g>
<g id="Group_20" opacity="0.28">
<path id="Vector_72" d="M38.2981 90.3809L29.3519 93.1757C27.564 93.7333 25.6484 92.7133 25.0973 90.9045C24.5461 89.0957 25.5543 87.1577 27.3422 86.6001L36.2884 83.8053C38.0763 83.2477 39.9919 84.2677 40.5431 86.0765C41.101 87.8785 40.086 89.8165 38.2981 90.3809Z" fill="#407BFF"/>
</g>
<g id="Group_21" opacity="0.28">
<path id="Vector_73" d="M92.1905 87.8448L33.3378 106.239C31.5499 106.796 29.6343 105.776 29.0831 103.968C28.5319 102.159 29.5401 100.221 31.328 99.6632L90.1808 81.2692C91.9687 80.7116 93.8843 81.7316 94.4355 83.5404C94.9866 85.3492 93.9784 87.2872 92.1905 87.8448Z" fill="#407BFF"/>
</g>
<g id="Group_22" opacity="0.28">
<path id="Vector_74" d="M73.4647 108L37.3236 119.295C35.5357 119.852 33.6201 118.832 33.0689 117.024C32.5178 115.215 33.526 113.277 35.3139 112.719L71.455 101.424C73.2429 100.867 75.1585 101.887 75.7096 103.696C76.2675 105.504 75.2593 107.442 73.4647 108Z" fill="#407BFF"/>
</g>
<g id="Group_23" opacity="0.28">
<path id="Vector_75" d="M96.1764 100.908L86.5311 103.92C84.7432 104.478 82.8276 103.458 82.2765 101.649C81.7253 99.8402 82.7335 97.9022 84.5214 97.3446L94.1666 94.3322C95.9545 93.7746 97.8702 94.7946 98.4213 96.6034C98.9792 98.4054 97.9643 100.343 96.1764 100.908Z" fill="#407BFF"/>
</g>
<g id="Group_24" opacity="0.28">
<path id="Vector_76" d="M100.162 113.963L41.3094 132.357C39.5215 132.915 37.6059 131.895 37.0548 130.086C36.5036 128.277 37.5118 126.339 39.2997 125.782L98.1525 107.388C99.9404 106.83 101.856 107.85 102.407 109.659C102.965 111.468 101.95 113.406 100.162 113.963Z" fill="#407BFF"/>
</g>
</g>
</g>
<g id="Group_25">
<g id="Group_26">
<path id="Vector_77" d="M125.388 29.1333L67.4624 32.7509C63.1607 33.0161 59.8941 36.7561 60.1629 41.1081L66.7634 149.418C67.0255 153.77 70.7223 157.075 75.024 156.803L149.161 152.179C153.463 151.914 156.73 148.174 156.461 143.822L150.855 51.9133L125.388 29.1333Z" fill="#407BFF"/>
<path id="Vector_78" opacity="0.8" d="M125.388 29.1333L67.4624 32.7509C63.1607 33.0161 59.8941 36.7561 60.1629 41.1081L66.7634 149.418C67.0255 153.77 70.7223 157.075 75.024 156.803L149.161 152.179C153.463 151.914 156.73 148.174 156.461 143.822L150.855 51.9133L125.388 29.1333Z" fill="white"/>
</g>
<g id="Group_27" opacity="0.22">
<path id="Vector_79" d="M128.89 142.564L80.6903 145.569C78.8217 145.685 77.1951 144.237 77.0809 142.346C76.9666 140.456 78.3983 138.81 80.2668 138.695L128.466 135.689C130.335 135.573 131.961 137.022 132.076 138.912C132.197 140.809 130.758 142.448 128.89 142.564Z" fill="#407BFF"/>
</g>
<g id="Group_28" opacity="0.22">
<path id="Vector_80" d="M100.364 48.4794L74.8695 50.0706C73.0009 50.1862 71.3743 48.7378 71.2601 46.8474C71.1458 44.957 72.5775 43.3114 74.446 43.1958L99.9404 41.6046C101.809 41.489 103.436 42.9374 103.55 44.8278C103.664 46.7182 102.232 48.3638 100.364 48.4794Z" fill="#407BFF"/>
</g>
<g id="Group_29" opacity="0.22">
<path id="Vector_81" d="M117.826 61.0863L75.703 63.7179C73.8344 63.8335 72.2078 62.3851 72.0935 60.4947C71.9793 58.6043 73.411 56.9587 75.2795 56.8431L117.403 54.2115C119.271 54.0959 120.898 55.5443 121.012 57.4347C121.126 59.3251 119.695 60.9707 117.826 61.0863Z" fill="#407BFF"/>
</g>
<g id="Group_30" opacity="0.22">
<path id="Vector_82" d="M138.011 73.5238L76.5364 77.359C74.6679 77.4746 73.0413 76.0263 72.927 74.1359C72.8128 72.2455 74.2444 70.5998 76.113 70.4842L137.587 66.649C139.456 66.5334 141.082 67.9818 141.197 69.8722C141.318 71.7626 139.879 73.4014 138.011 73.5238Z" fill="#407BFF"/>
</g>
<g id="Group_31" opacity="0.22">
<path id="Vector_83" d="M138.844 87.1645L103.106 89.3949C101.237 89.5105 99.6109 88.0621 99.4966 86.1717C99.3824 84.2813 100.814 82.6357 102.683 82.5201L138.42 80.2897C140.289 80.1741 141.916 81.6225 142.03 83.5129C142.144 85.4033 140.712 87.0489 138.844 87.1645Z" fill="#407BFF"/>
</g>
<g id="Group_32" opacity="0.22">
<path id="Vector_84" d="M86.7126 90.415L77.3631 90.9998C75.4946 91.1154 73.868 89.667 73.7537 87.7766C73.6394 85.8862 75.0711 84.2406 76.9397 84.125L86.2892 83.5402C88.1577 83.4246 89.7843 84.873 89.8986 86.7634C90.0196 88.6606 88.5812 90.2994 86.7126 90.415Z" fill="#407BFF"/>
</g>
<g id="Group_33" opacity="0.22">
<path id="Vector_85" d="M139.677 100.805L78.2032 104.64C76.3346 104.756 74.7081 103.308 74.5938 101.417C74.4795 99.5267 75.9112 97.8811 77.7798 97.7655L139.254 93.9303C141.122 93.8147 142.749 95.2631 142.863 97.1535C142.978 99.0507 141.546 100.69 139.677 100.805Z" fill="#407BFF"/>
</g>
<g id="Group_34" opacity="0.22">
<path id="Vector_86" d="M116.784 115.929L79.0299 118.281C77.1613 118.397 75.5347 116.949 75.4205 115.058C75.3062 113.168 76.7379 111.522 78.6064 111.407L116.361 109.054C118.229 108.938 119.856 110.387 119.97 112.277C120.091 114.174 118.653 115.813 116.784 115.929Z" fill="#407BFF"/>
</g>
<g id="Group_35" opacity="0.22">
<path id="Vector_87" d="M140.504 114.453L130.429 115.079C128.56 115.194 126.934 113.746 126.819 111.855C126.705 109.965 128.137 108.319 130.005 108.204L140.081 107.578C141.949 107.463 143.576 108.911 143.69 110.801C143.811 112.692 142.373 114.331 140.504 114.453Z" fill="#407BFF"/>
</g>
<g id="Group_36" opacity="0.22">
<path id="Vector_88" d="M141.337 128.094L79.8634 131.929C77.9948 132.044 76.3682 130.596 76.2539 128.706C76.1397 126.815 77.5714 125.17 79.4399 125.054L140.914 121.219C142.783 121.103 144.409 122.552 144.523 124.442C144.644 126.332 143.206 127.978 141.337 128.094Z" fill="#407BFF"/>
</g>
<path id="Vector_89" opacity="0.22" d="M125.388 29.1333L126.389 45.5349C126.651 49.8869 130.355 53.1917 134.657 52.9197L150.862 51.9065L125.388 29.1333Z" fill="#407BFF"/>
</g>
<path id="Vector_90" opacity="0.5" d="M106.42 70.0489C106.305 66.6557 103.778 64.2485 100.337 64.2485H46.5318C42.4519 64.2485 38.493 67.5941 37.6999 71.7285L16.44 181.855C15.6402 185.982 18.3086 189.335 22.3885 189.335H193.126C197.206 189.335 201.165 185.989 201.958 181.855L219.481 91.0745C220.281 86.9469 217.612 83.5945 213.532 83.5945H120.629C112.583 83.5945 106.695 77.9777 106.42 70.0489Z" fill="#407BFF"/>
</g>
</g>
</g>
</svg>
