<svg xmlns="http://www.w3.org/2000/svg" width="22" height="22" fill="none"><path d="M12 7a1 1 0 1 0-2 0h2zm-2 8a1 1 0 1 0 2 0h-2zm-3-5a1 1 0 1 0 0 2v-2zm8 2a1 1 0 1 0 0-2v2zm3.778 6.778c4.296-4.296 4.296-11.261 0-15.556l-1.414 1.414a9 9 0 0 1 0 12.728l1.414 1.414zm0-15.556c-4.296-4.296-11.261-4.296-15.556 0l1.414 1.414a9 9 0 0 1 12.728 0l1.414-1.414zm-15.556 0c-4.296 4.296-4.296 11.261 0 15.556l1.414-1.414a9 9 0 0 1 0-12.728L3.222 3.222zm0 15.556c4.296 4.296 11.261 4.296 15.556 0l-1.414-1.414a9 9 0 0 1-12.728 0l-1.414 1.414zM10 7v8h2V7h-2zm-3 5h8v-2H7v2z" fill="#22c55e"/></svg>