<svg width="22" height="22" viewBox="0 0 22 22" fill="none" xmlns="http://www.w3.org/2000/svg">
<path fill-rule="evenodd" clip-rule="evenodd" d="M1 10C1.55228 10 2 10.4477 2 11V17.0714C2 18.5569 3.44547 20 5.54545 20H16.4545C18.5545 20 20 18.5569 20 17.0714V11C20 10.4477 20.4477 10 21 10C21.5523 10 22 10.4477 22 11V17.0714C22 19.9253 19.3753 22 16.4545 22H5.54545C2.62467 22 0 19.9253 0 17.0714V11C0 10.4477 0.447715 10 1 10Z" fill="#1F2229"/>
<path d="M10.1695 13.5572C10.349 13.8243 10.654 14 11 14C11.0046 14 11.0092 14 11.0137 13.9999C11.0192 14 11.0246 14 11.0301 14C11.2953 13.9993 11.5494 13.8932 11.7364 13.7052L16.709 8.70517C17.0985 8.31357 17.0968 7.68041 16.7052 7.29096C16.3136 6.90151 15.6804 6.90324 15.291 7.29483L12 10.6039V1C12 0.447715 11.5523 0 11 0C10.4477 0 10 0.447715 10 1V10.5679L6.70518 7.29097C6.31359 6.90151 5.68043 6.90324 5.29097 7.29482C4.90151 7.68641 4.90324 8.31957 5.29482 8.70903L10.1695 13.5572Z" fill="#1F2229"/>
</svg>
