<svg xmlns="http://www.w3.org/2000/svg" width="26" height="24" fill="none"><g stroke="#4ade80" stroke-width="2"><g stroke-linejoin="round"><path d="M13 20.5c4.971 0 9-4.161 9-7s-4.029-7-9-7-9 4.164-9 7 4.029 7 9 7z"/><path d="M13 16.5a3 3 0 1 0 0-6 3 3 0 1 0 0 6z"/></g><path d="M7.632 5.633l1.297 1.81m9.883-1.588l-1.297 1.81M13.004 3.5v3" stroke-linecap="round"/></g><path fill="#fff" d="M.776 7.632l2-3.464 22.516 12.999-2 3.464z"/><path fill="#4ade80" d="M.774 7.631l1-1.732L24.292 18.9l-1 1.732z"/></svg>