<svg width="16" height="20" viewBox="0 0 16 20" fill="none" xmlns="http://www.w3.org/2000/svg">
<path d="M1.25781 16.893C1.25776 16.9678 1.27688 17.0413 1.31335 17.1066C1.34981 17.1719 1.40241 17.2268 1.46612 17.2659C1.52983 17.3051 1.60252 17.3273 1.67725 17.3304C1.75197 17.3335 1.82625 17.3174 1.89297 17.2836C2.50875 16.9812 3.19717 16.858 3.87961 16.9282C4.56205 16.9984 5.211 17.259 5.75234 17.6805C6.39486 18.1806 7.1858 18.4521 8 18.4521C8.8142 18.4521 9.60514 18.1806 10.2477 17.6805C10.789 17.259 11.438 16.9984 12.1204 16.9282C12.8028 16.858 13.4912 16.9812 14.107 17.2836C14.1738 17.3174 14.248 17.3335 14.3228 17.3304C14.3975 17.3273 14.4702 17.3051 14.5339 17.2659C14.5976 17.2268 14.6502 17.1719 14.6867 17.1066C14.7231 17.0413 14.7422 16.9678 14.7422 16.893V8.2914C14.7422 7.40604 14.5678 6.52935 14.229 5.71139C13.8901 4.89343 13.3935 4.15023 12.7674 3.52422C12.1413 2.89822 11.3981 2.40166 10.5801 2.06292C9.76207 1.72418 8.88536 1.54989 8 1.54999C7.11464 1.54989 6.23793 1.72418 5.41994 2.06292C4.60194 2.40166 3.85868 2.89822 3.2326 3.52422C2.60652 4.15023 2.10988 4.89343 1.77105 5.71139C1.43221 6.52935 1.25781 7.40604 1.25781 8.2914V16.893Z" stroke="white" stroke-width="1.95313" stroke-linecap="round" stroke-linejoin="round"/>
<path d="M5.10146 9.48595C5.94844 9.48595 6.63506 8.79934 6.63506 7.95236C6.63506 7.10537 5.94844 6.41876 5.10146 6.41876C4.25448 6.41876 3.56787 7.10537 3.56787 7.95236C3.56787 8.79934 4.25448 9.48595 5.10146 9.48595Z" fill="white"/>
<path d="M10.8988 9.48595C11.7458 9.48595 12.4324 8.79934 12.4324 7.95236C12.4324 7.10537 11.7458 6.41876 10.8988 6.41876C10.0518 6.41876 9.36523 7.10537 9.36523 7.95236C9.36523 8.79934 10.0518 9.48595 10.8988 9.48595Z" fill="white"/>
</svg>
