<svg width="24" height="24" viewBox="0 0 24 24" fill="none" xmlns="http://www.w3.org/2000/svg">
<path fill-rule="evenodd" clip-rule="evenodd" d="M6 2C4.89543 2 4 2.89543 4 4V20C4 21.1046 4.89543 22 6 22H18C19.1046 22 20 21.1046 20 20V4C20 2.89543 19.1046 2 18 2H6ZM7 8C7 7.44772 7.44772 7 8 7C8.55229 7 9 7.44772 9 8C9 8.55229 8.55229 9 8 9C7.44772 9 7 8.55229 7 8ZM7 12C7 11.4477 7.44772 11 8 11C8.55229 11 9 11.4477 9 12C9 12.5523 8.55229 13 8 13C7.44772 13 7 12.5523 7 12ZM8 15C7.44772 15 7 15.4477 7 16C7 16.5523 7.44772 17 8 17C8.55229 17 9 16.5523 9 16C9 15.4477 8.55229 15 8 15ZM11 16C11 15.4477 11.4477 15 12 15H16C16.5523 15 17 15.4477 17 16C17 16.5523 16.5523 17 16 17H12C11.4477 17 11 16.5523 11 16ZM12 11C11.4477 11 11 11.4477 11 12C11 12.5523 11.4477 13 12 13H16C16.5523 13 17 12.5523 17 12C17 11.4477 16.5523 11 16 11H12ZM11 8C11 7.44772 11.4477 7 12 7H16C16.5523 7 17 7.44772 17 8C17 8.55229 16.5523 9 16 9H12C11.4477 9 11 8.55229 11 8Z" fill="#808080"/>
</svg>
