<svg width="24" height="24" viewBox="0 0 24 24" fill="none" xmlns="http://www.w3.org/2000/svg">
<path fill-rule="evenodd" clip-rule="evenodd" d="M2 6C2 4.89543 2.89543 4 4 4H20C21.1046 4 22 4.89543 22 6V7H21C20.4477 7 20 7.44772 20 8C20 8.55228 20.4477 9 21 9H22V11H21C20.4477 11 20 11.4477 20 12C20 12.5523 20.4477 13 21 13H22V15H21C20.4477 15 20 15.4477 20 16C20 16.5523 20.4477 17 21 17H22V18C22 19.1046 21.1046 20 20 20H4C2.89543 20 2 19.1046 2 18V17H3C3.55228 17 4 16.5523 4 16C4 15.4477 3.55228 15 3 15H2V13H3C3.55228 13 4 12.5523 4 12C4 11.4477 3.55228 11 3 11H2V9H3C3.55228 9 4 8.55228 4 8C4 7.44772 3.55228 7 3 7H2V6ZM13 13C12.4477 13 12 13.4477 12 14V16C12 16.5523 12.4477 17 13 17H16C16.5523 17 17 16.5523 17 16V14C17 13.4477 16.5523 13 16 13H13Z" fill="#808080"/>
</svg>
