<svg width="24" height="24" viewBox="0 0 24 24" fill="none" xmlns="http://www.w3.org/2000/svg">
<path fill-rule="evenodd" clip-rule="evenodd" d="M12 6.54543C11.5 6.54543 11.0909 6.95452 11.0909 7.45452V12C11.0909 12.0082 11.0954 12.0145 11.0954 12.0218C11.0981 12.1327 11.1181 12.2445 11.1618 12.3482C11.1881 12.4118 11.2345 12.4627 11.2745 12.5191C11.3027 12.5591 11.32 12.6054 11.3563 12.6418L13.9272 15.2127C14.2809 15.5663 14.86 15.5663 15.2127 15.2127C15.5663 14.86 15.5663 14.2809 15.2127 13.9273L12.909 11.6236V7.45452C12.909 6.95452 12.5 6.54543 12 6.54543ZM22 12C22 17.5136 17.5136 22 12 22C11.5264 22 11.0509 21.9664 10.5864 21.9009C8.73818 21.6391 7.04273 20.8718 5.63636 19.7045V21.0909C5.63636 21.5927 5.23 22 4.72727 22C4.22455 22 3.81818 21.5927 3.81818 21.0909V17.4545C3.81818 17.43 3.83091 17.4091 3.83273 17.3855C3.83636 17.3336 3.84909 17.2845 3.86273 17.2345C3.88 17.1673 3.89818 17.1027 3.92909 17.0418C3.94818 17.0045 3.97455 16.9736 3.99818 16.9391C4.04455 16.8745 4.09273 16.8164 4.15273 16.7655C4.16455 16.7555 4.17091 16.7409 4.18273 16.7318C4.20455 16.7155 4.23 16.7127 4.25273 16.6982C4.31818 16.6573 4.38455 16.6227 4.46 16.6C4.50636 16.5845 4.55091 16.5782 4.59727 16.5718C4.64182 16.5645 4.68091 16.5455 4.72727 16.5455H8.36364C8.86636 16.5455 9.27273 16.9527 9.27273 17.4545C9.27273 17.9564 8.86636 18.3636 8.36364 18.3636H6.86727C8.00364 19.2845 9.36273 19.8918 10.8418 20.1009C11.2227 20.1545 11.6118 20.1818 12 20.1818C16.5118 20.1818 20.1818 16.5109 20.1818 12C20.1818 7.48909 16.5118 3.81818 12 3.81818C7.48818 3.81818 3.81818 7.48909 3.81818 12C3.81818 12.5018 3.41182 12.9091 2.90909 12.9091C2.40636 12.9091 2 12.5018 2 12C2 6.48636 6.48636 2 12 2C17.5136 2 22 6.48636 22 12Z" fill="#808080"/>
</svg>
