<svg width="24" height="24" viewBox="0 0 24 24" fill="none" xmlns="http://www.w3.org/2000/svg">
<path fill-rule="evenodd" clip-rule="evenodd" d="M12 2C6.47715 2 2 6.47715 2 12C2 17.5228 6.47715 22 12 22C17.5228 22 22 17.5228 22 12C22 6.47715 17.5228 2 12 2ZM7.26465 5.54729C8.59066 4.57255 10.2281 3.99672 12 3.99672C12.4091 3.99672 12.811 4.02741 13.2035 4.08661C12.4511 4.32904 11.8195 4.85834 11.6169 5.87123C11.279 7.56064 12.7294 8.19034 13.9816 8.73404C14.8589 9.11491 15.6389 9.45357 15.6389 10.0848C15.6389 11.6169 16.0219 12.5746 17.3626 12.9576C18.1359 13.1786 18.272 13.7182 18.3957 14.2088C18.4865 14.5687 18.5706 14.9023 18.8948 15.0644C19.0405 15.1373 19.1891 15.1827 19.3345 15.2079C18.3041 17.5603 16.1752 19.3219 13.5967 19.844C13.8271 19.259 14.2275 18.5899 14.8729 18.1288C16.2136 17.1712 15.256 16.4051 13.3407 16.4051C12.157 16.4051 11.9975 15.893 11.7771 15.1853C11.6409 14.748 11.4814 14.2359 11.0424 13.7238C9.89327 12.3831 7.40346 12.9577 6.44583 14.2983C5.9457 14.9985 5.63603 15.9001 5.46353 16.6193C4.54559 15.3227 4.00372 13.7411 3.99679 12.0332C4.53559 11.8085 5.2991 11.8085 6.06262 11.8085C7.21177 11.8085 7.2792 11.3168 7.08768 10.3592C6.94922 9.66687 7.06506 9.63466 7.71875 9.45288C7.9693 9.38321 8.29886 9.29157 8.7234 9.13236C10.2556 8.55779 9.9502 7.49664 7.97786 7.21191C6.99326 7.06977 7.07994 6.24854 7.26465 5.54729Z" fill="#808080"/>
</svg>
