<svg width="24" height="24" viewBox="0 0 24 24" fill="none" xmlns="http://www.w3.org/2000/svg">
<path d="M19.1001 1.14062L23.7601 4.69063H23.7501C23.9001 4.80062 23.9901 4.96063 23.9901 5.14062C23.9901 5.32062 23.9101 5.49062 23.7601 5.60063L19.0901 9.25062C18.9001 9.40062 18.6201 9.44063 18.3801 9.34062C18.1401 9.24062 17.9901 9.03063 17.9901 8.79062V7.00063C15.4301 7.06063 14.7101 7.53062 13.2301 9.71062C13.1101 9.89062 12.8901 10.0006 12.6601 10.0006C12.6101 10.0006 12.5501 9.99062 12.4901 9.98062C12.2101 9.91062 12.0001 9.68062 12.0001 9.41062C12.0001 9.40853 12.0001 9.40565 12.0001 9.402C11.999 9.19605 11.985 6.53855 13.9501 4.73063C14.9801 3.78062 16.3401 3.25062 18.0001 3.14062V1.59063C18.0001 1.36063 18.1501 1.15062 18.3901 1.05062C18.6201 0.960625 18.9001 0.990625 19.1001 1.14062Z" fill="#808080"/>
<path d="M17.64 11.1906C18.51 11.5506 19.55 11.4406 20.34 10.8206L22 9.52063V18.0006C22 20.2106 20.21 22.0006 18 22.0006H6C3.79 22.0006 2 20.2106 2 18.0006V8.00063C2 5.79063 3.79 4.00063 6.03 3.99063H11.94C10.0076 6.31337 10.0278 9.14092 10.0299 9.43365C10.03 9.44086 10.03 9.44654 10.03 9.45063C10.06 10.7406 11 11.6506 12.04 11.9106C12.26 11.9706 12.47 11.9906 12.68 11.9906C13.5 11.9906 14.37 11.6206 14.9 10.8306C15.51 9.93063 15.85 9.56063 16.09 9.38063C16.29 10.2306 16.91 10.8906 17.64 11.1906Z" fill="#808080"/>
</svg>
