<!DOCTYPE svg PUBLIC "-//W3C//DTD SVG 1.1//EN" "http://www.w3.org/Graphics/SVG/1.1/DTD/svg11.dtd">

<!-- Uploaded to: SVG Repo, www.svgrepo.com, Transformed by: SVG Repo Mixer Tools -->
<svg fill="#000000" height="64px" width="64px" version="1.1" id="Layer_1" xmlns="http://www.w3.org/2000/svg" xmlns:xlink="http://www.w3.org/1999/xlink" viewBox="0 0 489.6 489.6" xml:space="preserve">

<g stroke-width="0"/>

<g stroke-linecap="round" stroke-linejoin="round"/>

<g> <g> <g> <path d="M470.758,288L470.758,288l-77.9,34.2l-128.7-77.2l128.7-77.2l77.9,34.2c1.3,0.6,2.7,0.8,4,0.8c3.8,0,7.5-2.2,9.2-6 c2.2-5.1-0.1-11-5.1-13.2l-64.9-28.5l45.2-27.1c4.7-2.8,6.3-9,3.4-13.7c-2.9-4.7-9-6.3-13.7-3.4l-46.1,27.7l7.5-70.2 c0.6-5.5-3.4-10.4-8.9-11s-10.4,3.4-11,8.9l-9.1,85.2l-126.4,75.9V77.5l69.2-49.1c4.5-3.2,5.6-9.4,2.4-13.9s-9.4-5.6-13.9-2.4 l-57.6,40.9V10c0-5.5-4.5-10-10-10s-10,4.5-10,10v42.5l-57.7-40.5c-4.5-3.2-10.8-2.1-13.9,2.4c-3.2,4.5-2.1,10.8,2.4,13.9 l69.1,48.5v150.4l-127.2-76.4l-8.2-84.7c-0.5-5.5-5.4-9.5-10.9-9s-9.5,5.4-9,10.9l6.8,69.9l-45.5-27.3c-4.7-2.8-10.9-1.3-13.7,3.4 c-2.8,4.7-1.3,10.9,3.4,13.7l45,27l-64.7,28.7c-5,2.2-7.3,8.1-5.1,13.2c1.7,3.7,5.3,6,9.1,6c1.4,0,2.7-0.3,4-0.9l77.5-34.4 l129,77.4l-129,77.4l-77.5-34.4c-5.1-2.2-11,0-13.2,5.1c-2.2,5,0,11,5.1,13.2l64.7,28.7l-45,27c-4.7,2.8-6.3,9-3.4,13.7 c1.9,3.1,5.2,4.9,8.6,4.9c1.8,0,3.5-0.5,5.1-1.4l45.5-27.3l-6.8,69.9c-0.5,5.5,3.5,10.4,9,10.9c0.3,0,0.7,0,1,0 c5.1,0,9.4-3.9,9.9-9l8.2-84.7l127.2-76.4v154.8l-68.8,43.9c-4.7,3-6,9.2-3.1,13.8c1.9,3,5.1,4.6,8.4,4.6c1.8,0,3.7-0.5,5.4-1.6 l58-37v38.8c0,5.5,4.5,10,10,10s10-4.5,10-10v-39.2l58,37.4c4.6,3,10.8,1.7,13.8-3c3-4.7,1.7-10.8-3-13.8l-68.7-44V262.6 l126.4,75.9l9.1,85.2c0.5,5.1,4.9,8.9,9.9,8.9c0.4,0,0.7,0,1.1-0.1c5.5-0.6,9.5-5.5,8.9-11l-7.5-70.2l46.1,27.7 c1.6,1,3.4,1.4,5.1,1.4c3.4,0,6.7-1.7,8.6-4.9c2.8-4.7,1.3-10.9-3.4-13.7l-45.2-27.1l64.9-28.5c5.1-2.2,7.4-8.1,5.1-13.2 C481.658,288.1,475.758,285.8,470.758,288z"/> </g> </g> </g>

</svg>