<svg width="20" height="21" viewBox="0 0 20 21" fill="none" xmlns="http://www.w3.org/2000/svg">
<path d="M9.99992 12.1667C10.9204 12.1667 11.6666 11.4205 11.6666 10.5C11.6666 9.57954 10.9204 8.83334 9.99992 8.83334C9.07944 8.83334 8.33325 9.57954 8.33325 10.5C8.33325 11.4205 9.07944 12.1667 9.99992 12.1667Z" stroke="white" stroke-width="1.66667" stroke-linecap="round" stroke-linejoin="round"/>
<path d="M16.6667 12.1667C17.5871 12.1667 18.3333 11.4205 18.3333 10.5C18.3333 9.57954 17.5871 8.83334 16.6667 8.83334C15.7462 8.83334 15 9.57954 15 10.5C15 11.4205 15.7462 12.1667 16.6667 12.1667Z" stroke="white" stroke-width="1.66667" stroke-linecap="round" stroke-linejoin="round"/>
<path d="M3.33341 12.1667C4.25389 12.1667 5.00008 11.4205 5.00008 10.5C5.00008 9.57954 4.25389 8.83334 3.33341 8.83334C2.41294 8.83334 1.66675 9.57954 1.66675 10.5C1.66675 11.4205 2.41294 12.1667 3.33341 12.1667Z" stroke="white" stroke-width="1.66667" stroke-linecap="round" stroke-linejoin="round"/>
</svg>
